<?xml version="1.0" standalone="no"?>
<!DOCTYPE svg PUBLIC "-//W3C//DTD SVG 1.1//EN" "http://www.w3.org/Graphics/SVG/1.1/DTD/svg11.dtd" >
<svg xmlns="http://www.w3.org/2000/svg" xmlns:xlink="http://www.w3.org/1999/xlink" version="1.1">
<metadata>
Created by FontForge 20161116 at Wed Apr 17 13:49:36 2013
 By Jimmy Warting
Copyright (c) 2006 Parachute\u00AE , www.parachute.gr. All rights reserved. Sapient Centro Slab is exclusively licensed to Sapient.
</metadata>
<defs>
<font id="SapientCentroSlab-Medium" horiz-adv-x="1818" >
  <font-face 
    font-family="Sapient Centro Slab Medium"
    font-weight="500"
    font-stretch="normal"
    units-per-em="1000"
    panose-1="2 0 6 3 6 0 0 2 0 4"
    ascent="750"
    descent="-250"
    x-height="488"
    cap-height="686"
    bbox="-379 -266 1760 964"
    underline-thickness="60"
    underline-position="-115"
    stemh="72"
    stemv="106"
    unicode-range="U+0020-FB05"
  />
<missing-glyph horiz-adv-x="440" 
d="M0 0v686h440v-686h-440zM79 49h282l-141 249zM220 388l141 249h-282zM49 595v-503l141 251zM249 342l142 -252v508z" />
    <glyph glyph-name="fj" unicode="fj" horiz-adv-x="591" 
d="M29 0v75h68v338h-69v60c20 6 51 14 70 19v71c0 111 69 170 203 170c46 -1 112 -8 166 -21c-3 -18 -11 -62 -15 -78c-50 7 -97 13 -135 13c-79 0 -116 -22 -116 -104v-54h313v-414c0 -147 -18 -236 -199 -296c-6 15 -20 53 -27 67c101 57 119 89 119 181v386h-206v-338h79
v-75h-251z" />
    <glyph glyph-name="ffj" unicode="ffj" horiz-adv-x="895" 
d="M767 723c-6 -25 -10 -51 -15 -77c-51 8 -94 13 -132 13c-78 0 -115 -22 -115 -105v-65h305v-450c-3 -137 -46 -213 -198 -259l-27 67c94 53 117 85 119 161v404h-199v-338h79v-74h-240v74h57v338h-200v-338h64v-74h-237v74h69v338h-69v60c23 8 46 13 70 19v66
c5 99 71 161 213 161c44 0 85 -5 136 -19c33 31 84 45 158 45c49 -1 111 -8 162 -21zM402 489v78c0 22 2 41 7 57c-33 8 -63 11 -87 11c-92 0 -121 -32 -121 -110v-36h201z" />
    <glyph glyph-name="ff" unicode="ff" horiz-adv-x="687" 
d="M647 488v-76h-142v-338h81v-74h-240v74h55v338h-200v-338h59v-74h-232v74h69v338h-69v60c23 8 46 13 70 19v37c0 110 51 191 211 191c44 0 85 -4 133 -19c29 27 80 41 147 41c29 0 67 -5 97 -13l-15 -77c-28 6 -61 8 -82 8c-51 0 -84 -24 -84 -78v-93h142zM201 488h200
c3 67 0 118 5 136c-31 8 -61 11 -84 11c-92 0 -121 -32 -121 -110v-37z" />
    <glyph glyph-name="fi" unicode="fi" horiz-adv-x="609" 
d="M504 489v-412h73v-64c-30 -13 -71 -20 -98 -20c-56 0 -80 17 -80 72v348h-198v-338h66v-75h-238v75h68v338h-69v61l70 19v70c0 110 66 170 198 170c44 0 114 -6 172 -21l-15 -78c-51 8 -98 14 -136 14c-79 0 -116 -23 -116 -105v-54h303z" />
    <glyph glyph-name="fl" unicode="fl" horiz-adv-x="618" 
d="M517 724v-649h69v-75h-237v75h62v556c-32 6 -67 9 -94 9c-79 0 -116 -21 -116 -104v-47h139v-76h-139v-338h61v-75h-233v75h68v338h-69v61l70 19v63c0 109 66 170 198 170c37 0 89 -5 136 -13z" />
    <glyph glyph-name="ffi" unicode="ffi" horiz-adv-x="914" 
d="M402 489v83c0 21 1 36 8 52c-33 8 -64 11 -88 11c-92 0 -121 -32 -121 -110v-36h201zM703 412h-198v-338h74v-74h-241v74h63v338h-200v-338h60v-74h-233v74h69v338h-69v60c23 8 46 13 70 19v65c4 101 71 163 211 163c44 0 87 -5 138 -20c35 33 90 44 174 44
c47 -1 106 -9 150 -21c-5 -25 -10 -52 -14 -78c-52 9 -99 14 -137 14c-79 0 -115 -22 -115 -104v-65h304c0 -138 -1 -275 -1 -413h72v-63c-28 -13 -70 -19 -97 -19c-66 0 -80 31 -80 78v340z" />
    <glyph glyph-name="ffl" unicode="ffl" horiz-adv-x="923" 
d="M506 554c0 -22 -1 -44 -1 -65h138v-77h-138v-338h71v-74h-239v74h64v338h-200v-338h59v-74h-232v74h69v338h-69v60c23 8 46 13 70 19v60c2 105 77 168 209 168c44 0 88 -5 140 -20c38 33 91 44 171 44c43 0 91 -7 141 -13l62 12v-668h68v-74h-235v74h61v575
c-33 5 -67 9 -94 9c-80 0 -115 -22 -115 -104zM402 489c0 43 -3 100 8 129v6c-33 8 -64 11 -88 11c-92 0 -121 -32 -121 -110v-36h201z" />
    <glyph glyph-name="ft" unicode="ft" horiz-adv-x="712" 
d="M29 0v75h68v338h-69v61l70 19v78c0 95 49 157 169 157c31 0 88 -4 126 -14l-15 -75c-25 4 -66 7 -87 7c-58 0 -90 -20 -90 -77v-79h215l31 119l68 9v-129h146v-76h-146v-258c0 -50 14 -79 67 -79c22 0 53 5 89 15l14 -70c-38 -17 -88 -27 -129 -27
c-107 0 -147 51 -147 130v289h-208v-338h82v-75h-254z" />
    <glyph glyph-name=".notdef" horiz-adv-x="440" 
d="M0 0v686h440v-686h-440zM79 49h282l-141 249zM220 388l141 249h-282zM49 595v-503l141 251zM249 342l142 -252v508z" />
    <glyph glyph-name="exclam" unicode="!" horiz-adv-x="249" 
d="M74 700h102l-2 -284l-11 -236h-74l-11 236zM125 109c36 0 62 -27 62 -60s-27 -61 -62 -61c-37 0 -63 28 -63 61s27 60 63 60z" />
    <glyph glyph-name="quotedbl" unicode="&#x22;" horiz-adv-x="311" 
d="M256 467h-60l-16 220h91zM119 467h-59l-16 220h92z" />
    <glyph glyph-name="numbersign" unicode="#" horiz-adv-x="556" 
d="M507 404h-77l-34 -153h77l-7 -55h-82l-43 -196h-63l43 196h-132l-44 -196h-63l44 196h-75l8 55h79l34 153h-81l8 54h86l40 174h62l-40 -174h133l40 174h62l-39 -174h71zM235 404l-34 -153h133l33 153h-132z" />
    <glyph glyph-name="dollar" unicode="$" horiz-adv-x="575" 
d="M300 -75v810h40v-66c43 -3 90 -14 128 -36v-135h-69v81c-18 8 -37 12 -59 15v-221c86 -31 174 -67 174 -179c0 -109 -71 -169 -174 -185v-84h-40zM267 735v-810h-39v81c-54 5 -104 16 -156 46v137h69v-81c36 -16 58 -20 87 -24v237c-85 28 -155 69 -155 167
c0 100 62 162 155 179v68h39zM426 192c0 51 -36 76 -86 95v-199c49 10 86 42 86 104zM159 497c0 -52 29 -72 69 -89v181c-39 -11 -69 -39 -69 -92z" />
    <glyph glyph-name="percent" unicode="%" horiz-adv-x="850" 
d="M356 464c0 -100 -40 -202 -168 -202c-138 0 -170 98 -170 201c0 96 32 207 172 207c142 0 166 -115 166 -206zM273 463c0 57 -6 145 -83 145c-80 0 -90 -84 -90 -146c0 -78 14 -140 90 -140c69 0 83 73 83 141zM610 704l-302 -725h-67l303 725h66zM830 199
c0 -100 -40 -202 -168 -202c-138 0 -170 98 -170 201c0 96 32 207 172 207c142 0 166 -115 166 -206zM747 198c0 57 -6 145 -83 145c-80 0 -90 -84 -90 -146c0 -78 14 -140 90 -140c69 0 83 73 83 141z" />
    <glyph glyph-name="ampersand" unicode="&#x26;" horiz-adv-x="753" 
d="M268 -13c-127 0 -228 66 -228 197c0 86 56 157 163 215c-39 52 -53 93 -53 135c0 70 44 147 153 147c115 0 156 -77 156 -136c0 -76 -61 -124 -137 -170c29 -41 64 -87 101 -132c24 -28 47 -55 72 -82c47 46 84 105 95 176h-80v71h233v-71h-68
c-11 -88 -57 -167 -122 -230c46 -42 99 -79 147 -99l-38 -67c-47 20 -123 69 -175 116c-64 -45 -143 -70 -219 -70zM345 209c-34 43 -69 87 -98 125c-64 -35 -112 -79 -112 -145c0 -85 62 -128 139 -128c50 0 105 18 154 51c-31 32 -57 65 -83 97zM239 539
c0 -31 16 -64 43 -102c51 26 96 56 96 108c0 41 -28 68 -74 68c-48 0 -65 -44 -65 -74z" />
    <glyph glyph-name="quotesingle" unicode="'" horiz-adv-x="213" 
d="M136 467h-60l-16 220h93z" />
    <glyph glyph-name="parenleft" unicode="(" horiz-adv-x="305" 
d="M61 283c0 209 96 361 156 430l46 -29c-32 -47 -108 -184 -108 -399c0 -240 76 -374 109 -423l-47 -32c-58 68 -156 222 -156 453z" />
    <glyph glyph-name="parenright" unicode=")" horiz-adv-x="307" 
d="M237 283c0 -231 -97 -384 -157 -453l-45 32c32 49 109 183 109 423c0 215 -77 353 -109 399l46 29c60 -69 156 -221 156 -430z" />
    <glyph glyph-name="asterisk" unicode="*" horiz-adv-x="403" 
d="M227 578c33 17 68 37 103 55c20 -28 25 -56 29 -88c-40 -5 -79 -11 -119 -15l85 -80c-21 -24 -44 -41 -73 -55l-51 108l-49 -107c-29 13 -52 29 -75 54l85 81l-115 15c5 35 13 62 29 90c33 -20 68 -39 102 -58l-23 114c16 4 32 4 49 4c16 0 31 0 46 -4
c-8 -37 -15 -77 -23 -114z" />
    <glyph glyph-name="plus" unicode="+" horiz-adv-x="575" 
d="M492 266h-163v-169h-71v169h-164v69h164v163h71v-163h163v-69z" />
    <glyph glyph-name="comma" unicode="," horiz-adv-x="232" 
d="M49 56c0 32 26 61 65 61c43 0 68 -34 68 -75c0 -61 -41 -132 -109 -176l-28 33c32 32 48 64 52 100c-36 3 -48 29 -48 57z" />
    <glyph glyph-name="hyphen" unicode="-" horiz-adv-x="377" 
d="M321 225h-265v82h265v-82z" />
    <glyph glyph-name="period" unicode="." horiz-adv-x="231" 
d="M179 55c0 -36 -30 -65 -64 -65c-36 0 -66 29 -66 65s30 65 65 65c36 0 65 -29 65 -65z" />
    <glyph glyph-name="slash" unicode="/" horiz-adv-x="349" 
d="M342 703l-257 -733h-73l257 733h73z" />
    <glyph glyph-name="zero" unicode="0" horiz-adv-x="575" 
d="M542 330c0 -167 -62 -337 -253 -337c-211 0 -258 164 -258 335c0 158 49 346 259 346c213 0 252 -195 252 -344zM435 328c0 104 -11 266 -145 266c-135 0 -152 -156 -152 -268c0 -142 25 -254 152 -254c118 0 145 130 145 256z" />
    <glyph glyph-name="one" unicode="1" horiz-adv-x="575" 
d="M98 0v75h143v493c-7 -1 -148 -22 -154 -22l-13 60l177 59h95v-590h138v-75h-386z" />
    <glyph glyph-name="two" unicode="2" horiz-adv-x="575" 
d="M477 486c0 -158 -193 -314 -297 -411l241 -1v85h84v-159h-465v68c121 109 329 279 329 411c0 76 -48 110 -127 110c-33 0 -93 -8 -168 -53l-35 65c82 58 163 73 220 73c129 0 218 -63 218 -188z" />
    <glyph glyph-name="three" unicode="3" horiz-adv-x="575" 
d="M73 665h408l15 -59l-205 -204c122 -4 220 -56 220 -190c0 -149 -118 -221 -255 -221c-69 0 -147 11 -209 42l25 73c73 -22 123 -30 165 -30c102 0 166 43 166 135c0 79 -58 122 -175 122c-17 0 -32 -1 -51 -4l-16 57c59 61 143 144 203 203h-208v-88h-83v164z" />
    <glyph glyph-name="four" unicode="4" horiz-adv-x="575" 
d="M346 665h101v-403h97v-74h-97v-113h70v-75h-239v75h68v113h-315v68c88 117 227 292 315 409zM346 534h-5c-68 -90 -146 -183 -213 -272h219z" />
    <glyph glyph-name="five" unicode="5" horiz-adv-x="575" 
d="M255 346c-35 0 -74 -10 -110 -26l-57 34l22 311h372v-149h-83v74h-203l-13 -185c23 9 50 18 103 18c119 0 228 -64 228 -209c0 -150 -117 -223 -251 -223c-68 0 -150 10 -214 43l25 74c74 -22 125 -30 167 -30c100 0 166 41 166 136c0 89 -70 132 -152 132z" />
    <glyph glyph-name="six" unicode="6" horiz-adv-x="575" 
d="M154 375l5 -4c50 27 101 46 163 46c106 0 203 -61 203 -206c0 -138 -97 -218 -234 -218c-186 0 -242 137 -242 309c0 213 83 372 277 372c70 0 122 -14 148 -26l-20 -74c-49 18 -92 21 -123 21c-137 0 -172 -147 -177 -220zM299 341c-87 0 -136 -43 -144 -47v-20
c0 -80 17 -202 137 -202c85 0 130 56 130 136c0 77 -29 133 -123 133z" />
    <glyph glyph-name="seven" unicode="7" horiz-adv-x="575" 
d="M164 491h-85v174h421v-71l-269 -594h-101c88 197 177 393 266 590h-232v-99z" />
    <glyph glyph-name="eight" unicode="8" horiz-adv-x="575" 
d="M181 504c0 -61 63 -82 143 -119c61 44 82 78 82 115c0 42 -32 97 -116 97c-80 0 -109 -60 -109 -93zM284 71c86 0 135 52 135 115c0 68 -64 98 -178 145c-70 -45 -89 -103 -89 -150c0 -60 44 -110 132 -110zM505 510c0 -47 -17 -103 -95 -161c63 -32 114 -88 114 -170
c0 -106 -94 -187 -242 -187c-152 0 -238 72 -238 178c0 64 28 147 120 199c-60 36 -88 72 -88 136c0 98 90 172 217 172c97 0 212 -46 212 -167z" />
    <glyph glyph-name="nine" unicode="9" horiz-adv-x="575" 
d="M413 292l-5 3c-49 -29 -102 -47 -163 -47c-109 0 -203 62 -203 206c0 139 97 220 234 220c185 0 241 -138 241 -310c0 -213 -83 -370 -277 -370c-71 0 -122 13 -156 24l20 72c54 -15 100 -19 131 -19c137 0 173 148 178 221zM268 324c86 0 136 43 143 47v21
c0 77 -16 199 -137 199c-85 0 -130 -54 -130 -133c0 -77 30 -134 124 -134z" />
    <glyph glyph-name="colon" unicode=":" horiz-adv-x="228" 
d="M179 55c0 -36 -30 -65 -64 -65c-36 0 -66 29 -66 65s30 65 65 65c36 0 65 -29 65 -65zM179 360c0 -37 -30 -66 -64 -66c-36 0 -66 29 -66 66c0 35 30 64 65 64c36 0 65 -29 65 -64z" />
    <glyph glyph-name="semicolon" unicode=";" horiz-adv-x="228" 
d="M179 360c0 -37 -30 -66 -64 -66c-36 0 -66 29 -66 66c0 35 30 64 65 64c36 0 65 -29 65 -64zM50 56c0 32 26 61 64 61c44 0 69 -34 69 -75c0 -61 -41 -132 -110 -176l-27 33c32 32 48 64 52 100c-36 3 -48 29 -48 57z" />
    <glyph glyph-name="less" unicode="&#x3c;" horiz-adv-x="575" 
d="M500 140v-79l-418 208v57l418 208v-80l-328 -156z" />
    <glyph glyph-name="equal" unicode="=" horiz-adv-x="575" 
d="M493 343h-412v68h412v-68zM493 191h-412v67h412v-67z" />
    <glyph glyph-name="greater" unicode="&#x3e;" horiz-adv-x="575" 
d="M82 61v79l328 158l-328 156v80l418 -208v-57z" />
    <glyph glyph-name="question" unicode="?" horiz-adv-x="464" 
d="M235 706c122 0 199 -53 199 -139c0 -137 -208 -210 -208 -325c0 -19 2 -38 5 -63l-84 -7c-7 35 -10 64 -10 84c0 84 56 133 128 202c34 33 57 57 57 94c0 50 -43 71 -101 71c-30 0 -65 -5 -99 -15v-87h-80v151c69 24 141 34 193 34zM267 47c0 -32 -28 -57 -61 -57
c-34 0 -62 25 -62 57c0 33 27 60 61 60c35 0 62 -27 62 -60z" />
    <glyph glyph-name="at" unicode="@" horiz-adv-x="897" 
d="M465 694c220 0 353 -132 353 -330c-2 -134 -88 -205 -182 -205c-43 0 -95 16 -112 61c-31 -32 -82 -55 -131 -55c-88 0 -107 65 -107 105c0 107 122 107 226 116v22c0 55 -16 73 -71 73c-35 0 -72 -6 -110 -18l-15 51c42 18 94 29 143 29c76 0 127 -31 127 -121v-151
c0 -33 20 -56 63 -56s107 41 107 146c0 171 -112 277 -291 277c-181 0 -329 -131 -329 -302c0 -175 130 -305 303 -305c36 0 77 5 127 21c6 -16 11 -32 18 -49c-40 -17 -95 -27 -144 -27c-221 0 -365 151 -365 357c0 209 174 361 390 361zM512 343c-65 -7 -145 -3 -145 -64
c0 -37 17 -59 59 -59c28 0 57 13 86 38v85z" />
    <glyph glyph-name="A" unicode="A" horiz-adv-x="697" 
d="M444 76h66c-11 35 -25 81 -36 113h-257c-9 -28 -25 -76 -35 -113h68v-76h-230v76h56l207 610h137c65 -198 137 -413 202 -610h56v-76h-234v76zM451 265c-27 90 -55 179 -84 269c-5 20 -12 40 -18 60h-2l-19 -61c-23 -72 -64 -192 -85 -268h208z" />
    <glyph glyph-name="B" unicode="B" horiz-adv-x="648" 
d="M110 608h-66v77h314c152 0 227 -65 227 -178c0 -39 -12 -111 -92 -148v-1c87 -27 113 -103 113 -168c0 -116 -91 -190 -205 -190h-361v76h70v532zM493 196c0 63 -41 120 -127 120h-145v-240h145c91 0 127 56 127 120zM474 499c0 64 -37 109 -123 109h-130v-216h130
c79 0 123 43 123 107z" />
    <glyph glyph-name="C" unicode="C" horiz-adv-x="593" 
d="M165 341c0 -160 47 -260 215 -260c35 0 109 6 162 22l18 -78c-52 -20 -137 -34 -203 -34c-232 0 -307 148 -307 349c0 153 61 358 314 358c74 0 133 -12 178 -28v-174h-80v105c-31 8 -66 11 -95 11c-143 0 -202 -108 -202 -271z" />
    <glyph glyph-name="D" unicode="D" horiz-adv-x="692" 
d="M343 0h-301v77h70v530h-66v79h304c231 0 292 -158 292 -341c0 -186 -70 -345 -299 -345zM334 607h-110v-530h106c67 0 197 25 197 262c0 241 -117 268 -193 268z" />
    <glyph glyph-name="E" unicode="E" horiz-adv-x="607" 
d="M577 0h-535v78h68v530h-66v77h519v-179h-81v102h-262v-215l243 5v-79l-243 4v-245h275v105h82v-183z" />
    <glyph glyph-name="F" unicode="F" horiz-adv-x="587" 
d="M315 0h-273v77h68v531h-66v77h520v-179h-82v102h-262v-215l243 5v-79l-243 4v-246h95v-77z" />
    <glyph glyph-name="G" unicode="G" horiz-adv-x="657" 
d="M377 698c74 0 139 -12 184 -28v-171h-80v100c-26 7 -65 12 -100 12c-151 0 -216 -107 -216 -270c0 -153 44 -261 198 -261c32 0 81 5 110 14v192h-99v75h250v-75h-50v-261c-71 -23 -149 -34 -218 -34c-230 0 -306 149 -306 349c0 152 60 358 327 358z" />
    <glyph glyph-name="H" unicode="H" horiz-adv-x="739" 
d="M697 0h-240v77h62v244h-301v-244h63v-77h-240v77h67v531h-67v77h240v-77h-63v-213h301v213h-62v77h240v-77h-67v-531h67v-77z" />
    <glyph glyph-name="I" unicode="I" horiz-adv-x="381" 
d="M311 0h-241v77h65v531h-65v78h241v-78h-66v-531h66v-77z" />
    <glyph glyph-name="J" unicode="J" horiz-adv-x="393" 
d="M65 608v78h275v-78h-77l-1 -463c0 -179 -90 -274 -257 -323l-29 71c145 78 176 134 176 255v460h-87z" />
    <glyph glyph-name="K" unicode="K" horiz-adv-x="678" 
d="M582 610l-207 -194l228 -339h58v-77h-245l-1 77h63l-182 272l-80 -76v-197h63v-76h-237v76h66v535h-66v74h238v-74h-64v-239l250 238h-63v75h237v-75h-58z" />
    <glyph glyph-name="L" unicode="L" horiz-adv-x="591" 
d="M582 0h-540v77h68v531h-66v77h249v-77h-72v-531h279v122h82v-199z" />
    <glyph glyph-name="M" unicode="M" horiz-adv-x="910" 
d="M453 200h5c16 35 31 74 46 108l107 246l57 131h206v-77h-62v-532h62v-76h-234v76h61v453h-2l-40 -94c-21 -49 -42 -99 -64 -148c-30 -66 -59 -133 -88 -200h-104c-31 68 -63 136 -93 203l-67 151l-38 88h-3c0 -151 -1 -302 -1 -453h65v-76h-235v76h66v532h-66v77h209
c19 -39 41 -89 65 -144c31 -68 64 -145 94 -215c21 -46 39 -91 54 -126z" />
    <glyph glyph-name="N" unicode="N" horiz-adv-x="770" 
d="M553 169h5v439h-69v77h238v-77h-66v-608h-106l-160 246c-40 61 -81 124 -121 187c-20 32 -40 65 -61 97c-1 0 -1 -1 -2 -1v-453h68c0 -25 1 -51 1 -76h-240c0 25 -1 51 -1 76h69c0 178 1 354 1 532h-69v77h186c63 -100 110 -174 148 -232l111 -175c23 -36 46 -72 68 -109
z" />
    <glyph glyph-name="O" unicode="O" horiz-adv-x="705" 
d="M655 342c0 -200 -101 -351 -299 -351c-217 0 -306 138 -306 348c0 193 85 358 306 358c225 0 299 -166 299 -355zM539 339c0 132 -30 275 -183 275s-191 -134 -191 -276c0 -172 55 -264 191 -264c127 0 183 115 183 265z" />
    <glyph glyph-name="P" unicode="P" horiz-adv-x="598" 
d="M569 483c0 -90 -53 -208 -211 -208h-141v-198h87v-77h-262v77h65v531h-65v78h305c138 0 222 -73 222 -203zM330 608h-113v-257h116c63 0 122 32 122 128c0 89 -47 129 -125 129z" />
    <glyph glyph-name="Q" unicode="Q" horiz-adv-x="706" 
d="M653 340c0 -143 -51 -261 -152 -314l156 -38l-35 -89l-267 87c-34 3 -66 9 -93 16c-149 39 -212 155 -212 337c0 192 83 358 305 358c224 0 298 -167 298 -357zM538 339c0 131 -29 275 -183 275c-153 0 -191 -135 -191 -277c0 -172 55 -263 191 -263
c127 0 183 114 183 265z" />
    <glyph glyph-name="R" unicode="R" horiz-adv-x="648" 
d="M460 491c0 86 -57 117 -122 117h-121v-239h121c54 0 122 22 122 122zM352 294h-135v-216h77v-78h-251v78h64v530h-64v78h313c139 0 219 -69 219 -194c0 -64 -30 -152 -124 -181l108 -236l74 -10v-60c-27 -11 -67 -16 -90 -16c-48 0 -66 22 -84 62z" />
    <glyph glyph-name="S" unicode="S" horiz-adv-x="575" 
d="M37 187h80l1 -82c49 -23 102 -30 146 -30c104 0 154 57 154 113c0 82 -65 94 -152 119c-122 28 -221 73 -221 188c4 131 106 200 242 200c60 0 142 -9 201 -42l1 -143h-81l-1 83c-30 13 -83 18 -119 18c-69 0 -129 -36 -129 -103c0 -63 73 -91 152 -111
c111 -27 226 -63 226 -204s-109 -202 -266 -202c-77 0 -163 13 -233 50c0 48 -1 97 -1 146z" />
    <glyph glyph-name="T" unicode="T" horiz-adv-x="587" 
d="M431 0h-273v77h82v531h-145v-109h-80v187h558v-187h-81v109h-143v-531h82v-77z" />
    <glyph glyph-name="U" unicode="U" horiz-adv-x="728" 
d="M635 608v-359c0 -157 -86 -257 -272 -257c-193 0 -272 96 -272 257v359h-59v78h235v-78h-68v-358c0 -117 59 -174 165 -174c103 0 164 55 164 174v358h-67v78h235v-78h-61z" />
    <glyph glyph-name="V" unicode="V" horiz-adv-x="672" 
d="M435 607v78h228v-78h-60c-66 -202 -132 -407 -199 -607h-134c-67 200 -134 405 -202 607h-59v78h234c0 -27 -1 -52 -1 -78h-59c41 -135 80 -262 123 -396c11 -36 21 -73 32 -110h4l33 112c41 130 79 263 119 394h-59z" />
    <glyph glyph-name="W" unicode="W" horiz-adv-x="980" 
d="M493 436h-2l-30 -103l-99 -333h-134l-159 607h-59v79h240v-79h-65l89 -366l31 -133h2l36 133l97 333l-12 33h-66l-1 79h247l1 -79h-69l113 -372l35 -119h2l29 130l83 361h-64v79h236v-79h-62c-35 -145 -122 -464 -157 -607h-133l-100 337z" />
    <glyph glyph-name="X" unicode="X" horiz-adv-x="667" 
d="M408 607v79h228v-79h-63l-172 -255l177 -274h66l1 -78h-259v78h63l-131 210l-134 -210h66v-78h-232v78h61l183 278l-157 251h-72l1 79h254v-79h-58l117 -190l121 190h-60z" />
    <glyph glyph-name="Y" unicode="Y" horiz-adv-x="621" 
d="M313 366l132 241h-59v79h224v-79h-56l-189 -320v-210h80v-77h-273v77h80v207l-185 323h-55v79h227v-79h-58l128 -241h4z" />
    <glyph glyph-name="Z" unicode="Z" horiz-adv-x="565" 
d="M524 610l-368 -532h305v121h83v-199h-521v76l367 532h-261v-107h-82v185h477v-76z" />
    <glyph glyph-name="bracketleft" unicode="[" horiz-adv-x="282" 
d="M247 -160h-189v858h189v-65h-96v-729h96v-64z" />
    <glyph glyph-name="backslash" unicode="\" horiz-adv-x="349" 
d="M269 -30l-257 733h72l258 -733h-73z" />
    <glyph glyph-name="bracketright" unicode="]" horiz-adv-x="282" 
d="M224 -160h-189v64h97v729h-97v65h189v-858z" />
    <glyph glyph-name="asciicircum" unicode="^" horiz-adv-x="461" 
d="M434 370h-76c-44 77 -87 154 -131 230c-40 -73 -88 -153 -131 -230h-76l180 310h56z" />
    <glyph glyph-name="underscore" unicode="_" horiz-adv-x="500" 
d="M500 -138h-500v57h500v-57z" />
    <glyph glyph-name="grave" unicode="`" horiz-adv-x="500" 
d="M298 534l-158 139l63 63l134 -165z" />
    <glyph glyph-name="a" unicode="a" horiz-adv-x="537" 
d="M339 228l-109 -8c-56 -4 -86 -36 -86 -77c0 -52 24 -76 81 -76c36 0 82 21 114 51v110zM442 332v-257h76l6 -60c-27 -15 -85 -21 -112 -21c-39 0 -66 9 -67 61c-1 0 -1 1 -2 1c-71 -64 -136 -65 -165 -65c-117 0 -145 84 -145 141c0 79 54 137 190 146l118 8v29
c0 73 -23 101 -98 101c-48 0 -103 -10 -150 -26c-7 22 -14 45 -20 68c56 25 131 39 195 39c109 0 174 -42 174 -165z" />
    <glyph glyph-name="b" unicode="b" horiz-adv-x="568" 
d="M299 -8c-63 0 -151 14 -222 47v598h-75v76h182v-255c56 31 105 43 144 43c150 0 193 -109 193 -258c0 -136 -50 -251 -222 -251zM306 419c-43 0 -88 -19 -122 -38v-288c39 -16 78 -21 108 -21c74 0 121 38 121 169c0 146 -46 178 -107 178z" />
    <glyph glyph-name="c" unicode="c" horiz-adv-x="471" 
d="M272 500c54 0 107 -9 149 -26v-137h-76v71c-12 3 -31 5 -43 5c-109 0 -155 -51 -155 -172c0 -114 46 -168 132 -168c49 0 94 10 140 28l23 -70c-45 -25 -111 -39 -176 -39c-176 0 -226 109 -226 247c0 108 40 261 232 261z" />
    <glyph glyph-name="d" unicode="d" horiz-adv-x="572" 
d="M383 44l-2 1c-41 -33 -102 -53 -150 -53c-145 0 -191 111 -191 243c0 151 54 266 203 266c36 0 89 -7 134 -31v167h-78v76h185v-638h73v-75h-174v44zM264 419c-61 0 -116 -36 -116 -183c0 -128 47 -163 112 -163c42 0 93 24 117 45v269c-22 15 -73 32 -113 32z" />
    <glyph glyph-name="e" unicode="e" horiz-adv-x="505" 
d="M264 422c-77 0 -110 -67 -114 -131h218c-2 71 -24 131 -104 131zM265 500c189 0 203 -163 203 -235v-48h-320c-1 -88 29 -146 131 -146c55 0 99 11 152 33l27 -67c-61 -32 -127 -46 -192 -46c-183 0 -226 122 -226 252c0 96 40 257 225 257z" />
    <glyph glyph-name="f" unicode="f" horiz-adv-x="383" 
d="M29 0v75h68v338h-69v60l70 19v73c0 95 49 157 169 157c31 0 77 -3 116 -14l-15 -75c-26 4 -56 7 -77 7c-58 0 -90 -20 -90 -77v-74h143v-76h-143v-338h82v-75h-254z" />
    <glyph glyph-name="g" unicode="g" horiz-adv-x="540" 
d="M444 430l-3 -2c21 -24 33 -65 33 -102c0 -108 -92 -168 -214 -169h-55c-46 0 -71 -7 -71 -34c0 -20 17 -31 46 -31h132c121 0 193 -49 193 -146c0 -92 -83 -163 -259 -163c-168 0 -216 65 -216 137c0 56 33 98 64 115c-39 8 -59 36 -59 75c0 55 47 76 83 85
c-36 16 -69 56 -69 127c0 129 106 179 208 179c35 0 70 -5 97 -12h165v-59h-75zM293 21h-106c-25 -9 -52 -45 -52 -77c0 -41 24 -81 127 -81c87 0 133 33 133 81c0 37 -25 77 -102 77zM366 327c0 39 -24 97 -106 97c-67 0 -103 -39 -103 -98c0 -58 35 -94 95 -94
c65 0 114 32 114 95z" />
    <glyph glyph-name="h" unicode="h" horiz-adv-x="608" 
d="M196 0h-106v637h-70v76h176v-268c55 35 118 55 168 55c141 0 149 -106 149 -163v-261h74v-63c-28 -13 -72 -19 -99 -19c-79 0 -81 69 -81 89v234c0 66 -11 97 -79 97c-41 0 -95 -22 -132 -45v-369z" />
    <glyph glyph-name="i" unicode="i" horiz-adv-x="315" 
d="M104 412h-51v76h157v-411h72v-64c-28 -13 -70 -20 -96 -20c-57 0 -81 21 -82 79v340zM220 625c0 -36 -30 -66 -67 -66c-36 0 -65 30 -65 66c0 37 29 66 65 66c37 0 67 -29 67 -66z" />
    <glyph glyph-name="k" unicode="k" horiz-adv-x="558" 
d="M303 416v72h212v-72h-45l-131 -112l142 -232l64 -9v-57c-25 -9 -59 -13 -80 -13c-27 0 -52 4 -72 37l-129 217c-23 -19 -43 -37 -65 -56v-120h62v-71h-236v71h68v569h-75v71h181v-422l148 127h-44z" />
    <glyph glyph-name="l" unicode="l" horiz-adv-x="320" 
d="M218 713v-638h69v-75h-243v75h68v562h-75v76h181z" />
    <glyph glyph-name="m" unicode="m" horiz-adv-x="905" 
d="M365 498c56 0 95 -19 119 -61c48 35 120 62 175 62c134 0 152 -86 152 -166v-257h68v-63c-29 -13 -67 -19 -94 -19c-60 0 -78 22 -80 70v249c0 65 -14 96 -81 96c-36 0 -92 -16 -125 -38c5 -21 5 -45 5 -61v-310h-106v326c0 63 -31 83 -76 83c-39 0 -88 -19 -123 -42
v-367h-107v412h-72v77h176v-43l4 -3c54 36 116 55 165 55z" />
    <glyph glyph-name="n" unicode="n" horiz-adv-x="611" 
d="M365 500c141 0 149 -106 149 -163v-261h74v-63c-28 -13 -72 -19 -99 -19c-79 0 -81 59 -81 79v244c0 66 -11 97 -79 97c-41 0 -95 -22 -132 -45v-369h-106v413h-70v76h176v-43l5 -1c56 36 114 55 163 55z" />
    <glyph glyph-name="o" unicode="o" horiz-adv-x="538" 
d="M498 244c0 -130 -59 -252 -234 -252c-165 0 -224 115 -224 250c0 134 66 257 232 257c169 0 226 -123 226 -255zM389 242c0 82 -19 177 -115 177c-99 0 -124 -90 -124 -177c0 -91 18 -171 121 -171c96 0 118 87 118 171z" />
    <glyph glyph-name="p" unicode="p" horiz-adv-x="568" 
d="M16 -210v76h73v546h-73v76h173v-45l2 -1c40 33 102 54 150 54c146 0 192 -111 192 -243c0 -151 -54 -263 -204 -263c-35 0 -88 8 -134 32v-156h78v-76h-257zM309 74c60 0 115 33 115 178c0 128 -47 158 -111 158c-42 0 -94 -24 -118 -45v-258c23 -16 73 -33 114 -33z" />
    <glyph glyph-name="q" unicode="q" horiz-adv-x="566" 
d="M304 -210v76h81v165c-56 -31 -105 -42 -144 -42c-145 0 -195 102 -193 248c2 139 55 260 231 260c63 0 144 -13 212 -44v-587h74v-76h-261zM263 76c43 0 87 17 122 36v283c-35 14 -71 19 -103 19c-74 0 -125 -44 -126 -171c-3 -139 46 -167 107 -167z" />
    <glyph glyph-name="r" unicode="r" horiz-adv-x="416" 
d="M205 420l3 -1c40 34 116 82 178 82c19 0 28 -9 28 -34c0 -26 -11 -70 -33 -94l-174 -1v-297h73v-75h-248v75h68v338h-66v76h171v-69z" />
    <glyph glyph-name="s" unicode="s" horiz-adv-x="464" 
d="M30 149h77l3 -62c26 -14 68 -20 99 -20c60 0 108 17 108 65s-43 62 -95 77c-90 26 -184 48 -184 146c0 101 81 144 193 144c57 0 117 -11 161 -37c0 -39 1 -78 2 -118h-79l-2 65c-22 9 -49 14 -75 14c-50 0 -91 -18 -91 -64c0 -39 58 -55 94 -65c81 -23 186 -43 186 -162
c0 -96 -84 -140 -210 -140c-57 0 -132 8 -185 38z" />
    <glyph glyph-name="t" unicode="t" horiz-adv-x="391" 
d="M123 609l71 9v-129h145v-76h-146v-255c0 -50 9 -79 67 -79c22 0 53 4 90 14l16 -72c-38 -17 -90 -27 -131 -27c-113 0 -147 51 -147 130v289h-70v60l75 23z" />
    <glyph glyph-name="u" unicode="u" horiz-adv-x="601" 
d="M238 -11c-124 0 -146 76 -146 156v267h-70v77h177v-326c0 -55 7 -86 71 -86c32 0 86 14 130 55v280h-63v77h170v-413h69v-63c-37 -14 -74 -19 -97 -19c-49 0 -71 15 -76 63c-59 -54 -123 -68 -165 -68z" />
    <glyph glyph-name="v" unicode="v" horiz-adv-x="553" 
d="M278 86h4c14 50 39 116 53 165c17 50 37 110 53 161h-43v77h192v-77h-47c-41 -119 -107 -293 -149 -412h-129c-41 118 -104 290 -144 409h-53v80h132l70 -216c17 -55 44 -131 61 -187z" />
    <glyph glyph-name="w" unicode="w" horiz-adv-x="860" 
d="M606 79h4l36 137l56 197h-60v76h205v-76l-47 -1l-122 -412h-142l-56 151l-46 129h-5l-43 -129l-53 -151h-146l-120 409h-53v80h134l73 -260l41 -152h5l44 130l64 183l-9 22h-73v77h248v-77h-55l72 -202z" />
    <glyph glyph-name="x" unicode="x" horiz-adv-x="548" 
d="M330 75l-76 115l-87 -115h56v-75h-211l1 75h45l145 192l-96 146h-82v75h147l107 -162l64 87h-49v75h217v-75h-58l-125 -161l118 -177h71v-75h-226v75h39z" />
    <glyph glyph-name="y" unicode="y" horiz-adv-x="561" 
d="M277 70c9 29 98 301 112 342h-59v77h208v-77h-49l-178 -518c-27 -68 -56 -108 -143 -108c-15 0 -60 1 -114 18l16 84c29 -6 56 -10 79 -10c64 0 62 28 102 128h-53c-44 134 -87 269 -131 404h-50v79h129c15 -47 119 -392 126 -419h5z" />
    <glyph glyph-name="z" unicode="z" horiz-adv-x="475" 
d="M437 423l-280 -350h212v75h77v-148h-420v67l280 348h-185v-77h-76v151h392v-66z" />
    <glyph glyph-name="braceleft" unicode="{" horiz-adv-x="291" 
d="M269 -168h-66c-92 0 -106 58 -106 129v201c0 51 -17 93 -68 100v57c51 9 68 49 68 106v133c0 62 7 144 100 144h72v-64h-25c-40 0 -53 -29 -53 -66v-154c0 -59 -8 -111 -64 -125v-1c59 -28 64 -71 64 -147v-184c0 -35 8 -65 50 -65h28v-64z" />
    <glyph glyph-name="bar" unicode="|" horiz-adv-x="272" 
d="M170 -142h-73v845h73v-845z" />
    <glyph glyph-name="braceright" unicode="}" horiz-adv-x="291" 
d="M89 -168h-66v64h28c42 0 50 30 50 65v184c0 76 5 119 64 147v1c-56 14 -64 66 -64 125v154c0 37 -13 66 -53 66h-25v64h72c93 0 100 -82 100 -144v-133c0 -57 17 -97 68 -106v-57c-51 -7 -68 -49 -68 -100v-201c0 -71 -14 -129 -106 -129z" />
    <glyph glyph-name="asciitilde" unicode="~" horiz-adv-x="575" 
d="M397 240c-81 0 -157 47 -212 47l-72 -47l-41 32c26 61 69 94 121 94c66 0 159 -46 216 -46l68 48l39 -31c-23 -59 -64 -97 -119 -97z" />
    <glyph glyph-name="endash" unicode="&#x2013;" horiz-adv-x="500" 
d="M467 221h-432v71h432v-71z" />
    <glyph glyph-name="emdash" unicode="&#x2014;" horiz-adv-x="1000" 
d="M956 221h-915v71h915v-71z" />
    <glyph glyph-name="quoteleft" unicode="&#x2018;" horiz-adv-x="232" 
d="M182 535c0 -32 -27 -61 -63 -61c-44 0 -68 34 -68 76c0 63 53 137 113 168l26 -35c-29 -25 -47 -53 -49 -91c27 -7 41 -28 41 -57z" />
    <glyph glyph-name="quoteright" unicode="&#x2019;" horiz-adv-x="232" 
d="M60 657c0 33 27 61 64 61c43 0 67 -34 67 -75c0 -63 -51 -137 -113 -168l-25 35c28 25 45 53 49 90c-28 7 -42 29 -42 57z" />
    <glyph glyph-name="quotedblleft" unicode="&#x201c;" horiz-adv-x="377" 
d="M180 535c0 -32 -27 -61 -64 -61c-43 0 -67 34 -67 76c0 64 51 136 113 168l26 -35c-29 -25 -47 -53 -50 -91c27 -7 42 -28 42 -57zM332 535c0 -32 -28 -61 -64 -61c-44 0 -67 34 -67 76c0 63 52 137 112 168c9 -12 17 -23 27 -35c-29 -25 -47 -53 -50 -91
c27 -7 42 -28 42 -57z" />
    <glyph glyph-name="quotedblright" unicode="&#x201d;" horiz-adv-x="377" 
d="M210 657c0 33 28 61 65 61c43 0 67 -34 67 -75c0 -63 -50 -137 -113 -168l-26 35c28 25 47 53 49 90c-27 7 -42 29 -42 57zM59 657c0 33 26 61 64 61c43 0 67 -34 67 -75c0 -63 -51 -137 -113 -168l-27 35c30 25 47 53 51 90c-28 7 -42 29 -42 57z" />
    <glyph glyph-name="bullet" unicode="&#x2022;" horiz-adv-x="351" 
d="M291 273c0 -64 -53 -117 -116 -117s-116 53 -116 117s53 117 116 117s116 -53 116 -117z" />
    <glyph glyph-name="quotesinglbase" unicode="&#x201a;" horiz-adv-x="232" 
d="M49 56c0 32 26 61 65 61c43 0 68 -34 68 -75c0 -61 -41 -132 -109 -176l-28 33c32 32 48 64 52 100c-36 3 -48 29 -48 57z" />
    <glyph glyph-name="quotedblbase" unicode="&#x201e;" horiz-adv-x="393" 
d="M49 56c0 32 26 61 65 61c43 0 68 -34 68 -75c0 -61 -41 -132 -109 -176l-28 33c32 32 48 64 52 100c-36 3 -48 29 -48 57zM214 56c0 32 26 61 64 61c44 0 69 -34 69 -75c0 -61 -41 -132 -110 -176l-27 33c31 32 48 64 51 100c-35 3 -47 29 -47 57z" />
    <glyph glyph-name="alpha" unicode="&#x3b1;" horiz-adv-x="571" 
d="M480 489v-414h71l2 -63c-25 -11 -69 -18 -95 -18c-46 0 -69 7 -77 59c-71 -60 -137 -62 -166 -62c-135 0 -178 112 -178 251c0 123 56 255 206 255c56 0 105 -24 139 -54c5 14 14 33 19 46h79zM251 75c34 0 79 16 123 53v240c-23 21 -72 50 -108 50
c-88 0 -121 -81 -121 -172c0 -140 49 -171 106 -171z" />
    <glyph glyph-name="beta" unicode="&#x3b2;" horiz-adv-x="527" 
d="M152 -196h-106c1 18 0 338 0 356v337c0 130 68 220 202 220c138 0 205 -72 205 -171c0 -64 -37 -121 -82 -143c93 -30 117 -103 117 -188c0 -149 -83 -225 -202 -225c-50 0 -105 16 -134 36v-222zM253 640c-63 0 -99 -39 -99 -112v-426c38 -25 88 -32 111 -32
c77 0 117 58 117 154c0 86 -37 138 -129 138h-45v68h44c55 0 98 41 98 112c0 58 -39 98 -97 98z" />
    <glyph glyph-name="gamma" unicode="&#x3b3;" horiz-adv-x="540" 
d="M215 -209l1 223c-43 112 -112 283 -155 395h-54v80h135l70 -194c7 -18 52 -149 59 -167h4c12 38 31 92 44 131c16 49 37 106 53 153h-46v77h205v-77h-54c-41 -112 -109 -281 -148 -393l1 -228h-115z" />
    <glyph glyph-name="delta" unicode="&#x3b4;" horiz-adv-x="534" 
d="M276 710c51 0 116 -10 161 -34v-120h-77v67c-22 9 -52 15 -78 15c-50 0 -95 -20 -95 -66c0 -50 60 -68 94 -79c138 -46 213 -105 213 -261c0 -116 -59 -240 -233 -240c-164 0 -223 115 -223 238c0 94 36 184 126 221c-46 25 -82 58 -82 117c0 99 82 142 194 142zM260 405
c-89 -15 -113 -95 -113 -176c0 -80 19 -159 123 -159c96 0 115 90 115 160c0 72 -6 152 -125 175z" />
    <glyph glyph-name="epsilon" unicode="&#x3b5;" horiz-adv-x="442" 
d="M232 502c66 0 134 -13 169 -29v-124h-73v72c-27 8 -57 10 -83 10c-70 0 -98 -34 -98 -72c0 -56 41 -64 85 -64h70v-66h-70c-42 0 -93 -16 -93 -79c0 -60 51 -84 120 -84c49 0 94 12 146 33l22 -63c-41 -22 -112 -44 -188 -44c-118 0 -209 43 -209 145c0 58 38 105 89 121
l1 3c-44 13 -81 46 -81 97c0 87 77 144 193 144z" />
    <glyph glyph-name="zeta" unicode="&#x3b6;" horiz-adv-x="409" 
d="M329 635l-1 4h-197v-62h-72v133h386v-68c-184 -149 -298 -317 -298 -423c0 -75 42 -96 194 -148c64 -21 87 -52 87 -86c0 -47 -49 -108 -107 -165l-54 47c12 14 31 38 37 47c21 31 23 44 22 51c-1 16 -21 29 -49 38c-152 50 -235 76 -235 203c0 98 104 282 287 429z" />
    <glyph glyph-name="eta" unicode="&#x3b7;" horiz-adv-x="611" 
d="M365 500c141 0 149 -106 149 -163v-261h74v-63c-28 -13 -72 -19 -99 -19c-79 0 -81 59 -81 79v244c0 66 -11 97 -79 97c-41 0 -95 -22 -132 -45v-369h-106v413h-70v76h176v-43l5 -1c56 36 114 55 163 55z" />
    <glyph glyph-name="theta" unicode="&#x3b8;" horiz-adv-x="535" 
d="M263 -7c-190 0 -228 161 -228 356c0 188 44 368 234 368s228 -183 228 -363c0 -188 -49 -361 -234 -361zM269 638c-105 0 -123 -111 -126 -234h245c-2 118 -20 234 -119 234zM389 331h-246c-1 -164 11 -262 124 -262c104 0 123 129 122 262z" />
    <glyph glyph-name="upsilon" unicode="&#x3c5;" horiz-adv-x="571" 
d="M395 489h108v-291c0 -125 -83 -205 -214 -205c-139 0 -209 76 -209 189v230h-61v77h168v-308c0 -64 26 -108 102 -108c68 0 106 47 106 116v300z" />
    <glyph glyph-name="omega" unicode="&#x3c9;" horiz-adv-x="755" 
d="M334 335h93l1 -171c1 -48 26 -92 79 -92c74 0 105 61 105 167c0 81 -21 157 -93 190l20 69c131 -26 178 -137 178 -258c0 -131 -56 -247 -202 -247c-62 0 -113 27 -135 75h-4c-27 -49 -80 -75 -139 -75c-160 0 -199 116 -199 247c0 118 46 232 178 258l20 -69
c-72 -33 -92 -109 -92 -190c0 -86 16 -167 103 -167c60 0 87 44 87 92v171z" />
    <glyph glyph-name="rho" unicode="&#x3c1;" horiz-adv-x="540" 
d="M45 238c1 164 81 261 234 261s220 -105 220 -250c0 -154 -68 -259 -215 -259c-36 0 -90 7 -131 33v-230h-108v445zM263 70c70 0 129 33 129 182c0 134 -57 167 -122 167c-78 0 -117 -70 -117 -149v-168c22 -15 70 -32 110 -32z" />
    <glyph glyph-name="xi" unicode="&#x3be;" horiz-adv-x="447" 
d="M273 719c38 0 114 -8 162 -29l-19 -73c-57 18 -103 22 -137 22c-88 0 -120 -45 -120 -107c0 -65 55 -103 136 -103h90v-75h-95c-104 0 -148 -65 -148 -140c0 -68 35 -99 159 -145c92 -34 147 -56 147 -107c0 -50 -51 -109 -100 -158l-56 43c9 11 17 21 23 30
c20 27 29 45 29 57c0 17 -15 30 -55 45l-39 15c-113 39 -211 78 -214 207c0 66 26 157 123 193c-80 29 -106 101 -106 145c0 114 82 180 220 180z" />
    <glyph glyph-name="nu" unicode="&#x3bd;" horiz-adv-x="553" 
d="M278 86h4c14 50 39 116 53 165c17 50 37 110 53 161h-43v77h192v-77h-47c-41 -119 -107 -293 -149 -412h-129c-41 118 -104 290 -144 409h-53v80h132l70 -216c17 -55 44 -131 61 -187z" />
    <glyph glyph-name="omicron" unicode="&#x3bf;" horiz-adv-x="538" 
d="M498 244c0 -130 -59 -252 -234 -252c-165 0 -224 115 -224 250c0 134 66 257 232 257c169 0 226 -123 226 -255zM389 242c0 82 -19 177 -115 177c-99 0 -124 -90 -124 -177c0 -91 18 -171 121 -171c96 0 118 87 118 171z" />
    <glyph glyph-name="Euro" unicode="&#x20ac;" horiz-adv-x="575" 
d="M367 674c68 0 123 -12 164 -26v-141h-76v73c-24 7 -54 12 -86 12c-112 0 -168 -73 -183 -189h266v-46h-421v46h49c14 130 90 271 287 271zM31 266v45h421v-45h-267c12 -110 59 -190 190 -190c22 0 57 3 92 11v76h76v-144c-45 -16 -124 -27 -183 -27
c-189 0 -271 113 -281 274h-48z" />
    <glyph glyph-name="Phi" unicode="&#x3a6;" horiz-adv-x="831" 
d="M791 348c0 -154 -137 -231 -318 -241v-34h61v-73h-230v73h61v34c-197 9 -325 78 -325 238c0 142 135 232 325 242v25h-61v73h230v-73h-61v-26c185 -9 318 -97 318 -238zM143 343c0 -115 108 -149 222 -159v322c-123 -8 -222 -59 -222 -163zM686 345
c0 95 -72 153 -213 161v-322c109 9 213 53 213 161z" />
    <glyph glyph-name="Omega" unicode="&#x3a9;" horiz-adv-x="721" 
d="M569 79l1 -3h113v-76h-264v80c101 26 130 132 130 272c0 139 -37 264 -184 264c-140 0 -191 -112 -191 -262c0 -148 28 -250 124 -273v-81h-262v76h108l2 2c-74 53 -86 163 -86 278c0 186 89 342 303 342c220 0 302 -158 302 -340c0 -113 -25 -223 -96 -279z" />
    <glyph glyph-name="Psi" unicode="&#x3a8;" horiz-adv-x="850" 
d="M480 611v-348c114 6 173 59 174 173v250h171v-75h-63v-178c-1 -148 -97 -243 -282 -248v-110h73v-75h-251v75h71v109c-190 9 -282 96 -282 259v168h-65v75h174v-253c0 -111 62 -164 173 -170v348h-56v75h220v-75h-57z" />
    <glyph glyph-name="sterling" unicode="&#xa3;" horiz-adv-x="575" 
d="M73 368h69l5 101c8 120 66 207 205 207c70 0 130 -16 171 -35v-140h-81v80c-25 7 -51 12 -85 12c-84 0 -107 -50 -112 -130l-5 -95h173v-61h-177l-4 -72c-3 -62 -15 -129 -50 -160h335v-75h-459l1 74c59 30 72 102 75 165l4 68h-65v61z" />
    <glyph glyph-name="pi" unicode="&#x3c0;" horiz-adv-x="612" 
d="M408 412h-211v-412h-105v412h-71v75h566v-75h-73v-336h72v-63c-28 -13 -70 -20 -97 -20c-71 0 -81 39 -81 84v335z" />
    <glyph glyph-name="lambda" unicode="&#x3bb;" horiz-adv-x="533" 
d="M268 396h-4l-143 -396h-103l171 464h58l-53 171l-104 14l-1 54c35 16 83 26 113 26c53 0 69 -21 83 -61l189 -598h44l4 -61c-23 -11 -59 -15 -79 -15c-38 0 -55 14 -66 50z" />
    <glyph glyph-name="kappa" unicode="&#x3ba;" horiz-adv-x="558" 
d="M303 416v72h212v-72h-45l-131 -112l142 -232l64 -9v-57c-25 -9 -59 -13 -80 -13c-27 0 -52 4 -72 37l-129 217c-23 -19 -43 -37 -65 -56v-120h62v-71h-236v71h68v345h-75v71h181v-198l148 127h-44z" />
    <glyph glyph-name="mu" unicode="&#xb5;" horiz-adv-x="578" 
d="M256 -7c-33 0 -55 1 -72 7v-134h72v-74h-248v74h68v546h-68v76h175v-320c0 -56 20 -94 89 -94c33 0 77 17 118 55v283h-62v77h169c0 -138 -1 -275 -1 -413h67c0 -22 2 -43 3 -63c-37 -14 -74 -19 -97 -19c-49 0 -71 15 -76 63c-55 -50 -104 -60 -137 -64z" />
    <glyph glyph-name="mu" unicode="&#x3bc;" horiz-adv-x="578" 
d="M256 -7c-33 0 -55 1 -72 7v-134h72v-74h-248v74h68v546h-68v76h175v-320c0 -56 20 -94 89 -94c33 0 77 17 118 55v283h-62v77h169c0 -138 -1 -275 -1 -413h67c0 -22 2 -43 3 -63c-37 -14 -74 -19 -97 -19c-49 0 -71 15 -76 63c-55 -50 -104 -60 -137 -64z" />
    <glyph glyph-name="phi" unicode="&#x3c6;" horiz-adv-x="699" 
d="M38 243c0 112 51 219 175 255l30 -66c-68 -36 -100 -102 -100 -189c0 -102 30 -171 155 -176v431h123c158 0 240 -105 240 -249s-75 -250 -263 -256v-200h-101v200c-212 8 -259 124 -259 250zM555 249c0 96 -33 171 -157 172l1 -354c115 3 156 76 156 182z" />
    <glyph glyph-name="chi" unicode="&#x3c7;" horiz-adv-x="548" 
d="M330 75l-76 115l-87 -115h56v-75h-211l1 75h45l145 192l-96 146h-82v75h147l107 -162l64 87h-49v75h217v-75h-58l-125 -161l118 -177h71v-75h-226v75h39z" />
    <glyph glyph-name="psi" unicode="&#x3c8;" horiz-adv-x="750" 
d="M427 -5v-129h77v-76h-253v76h72v129c-158 3 -250 87 -250 199v218h-58v76h163v-294c0 -52 46 -115 145 -119v426h-55v79h159v-505c108 4 145 62 145 135v278h163v-76h-58v-218c0 -112 -95 -196 -250 -199z" />
    <glyph glyph-name="sigma" unicode="&#x3c3;" horiz-adv-x="542" 
d="M439 412l-3 -4c41 -39 56 -107 56 -171c0 -139 -78 -242 -227 -242c-163 0 -229 96 -229 243c0 133 68 251 233 251h254v-77h-84zM267 412c-97 0 -123 -85 -123 -176c0 -108 35 -167 123 -167c80 0 118 73 118 169c0 83 -18 174 -118 174z" />
    <glyph glyph-name="tau" unicode="&#x3c4;" horiz-adv-x="419" 
d="M7 489h362v-76h-145v-259c0 -51 17 -79 73 -79c22 0 53 5 89 15l15 -69c-39 -17 -91 -27 -131 -27c-109 0 -150 51 -150 130v289h-113v76z" />
    <glyph glyph-name="iota" unicode="&#x3b9;" horiz-adv-x="303" 
d="M88 412h-56v77h161v-412h72v-64c-28 -13 -70 -20 -97 -20c-56 0 -79 21 -80 79v340z" />
    <glyph glyph-name="Alpha" unicode="&#x391;" horiz-adv-x="697" 
d="M444 76h66c-11 35 -25 81 -36 113h-257c-9 -28 -25 -76 -35 -113h68v-76h-230v76h56l207 610h137c65 -198 137 -413 202 -610h56v-76h-234v76zM451 265c-27 90 -55 179 -84 269c-5 20 -12 40 -18 60h-2l-19 -61c-23 -72 -64 -192 -85 -268h208z" />
    <glyph glyph-name="Beta" unicode="&#x392;" horiz-adv-x="648" 
d="M110 608h-66v77h314c152 0 227 -65 227 -178c0 -39 -12 -111 -92 -148v-1c87 -27 113 -103 113 -168c0 -116 -91 -190 -205 -190h-361v76h70v532zM493 196c0 63 -41 120 -127 120h-145v-240h145c91 0 127 56 127 120zM474 499c0 64 -37 109 -123 109h-130v-216h130
c79 0 123 43 123 107z" />
    <glyph glyph-name="Gamma" unicode="&#x393;" horiz-adv-x="578" 
d="M315 0h-273v75h68v536h-66v74h517v-173h-81v99h-260v-536h95v-75z" />
    <glyph glyph-name="Epsilon" unicode="&#x395;" horiz-adv-x="607" 
d="M577 0h-535v78h68v530h-66v77h519v-179h-81v102h-262v-215l243 5v-79l-243 4v-245h275v105h82v-183z" />
    <glyph glyph-name="Zeta" unicode="&#x396;" horiz-adv-x="565" 
d="M524 610l-368 -532h305v121h83v-199h-521v76l367 532h-261v-107h-82v185h477v-76z" />
    <glyph glyph-name="Eta" unicode="&#x397;" horiz-adv-x="739" 
d="M697 0h-240v77h62v244h-301v-244h63v-77h-240v77h67v531h-67v77h240v-77h-63v-213h301v213h-62v77h240v-77h-67v-531h67v-77z" />
    <glyph glyph-name="Theta" unicode="&#x398;" horiz-adv-x="705" 
d="M220 319v73l262 4v-80zM655 342c0 -200 -101 -351 -299 -351c-217 0 -306 138 -306 348c0 193 85 358 306 358c225 0 299 -166 299 -355zM539 339c0 132 -30 278 -183 278s-191 -137 -191 -279c0 -172 55 -266 191 -266c127 0 183 117 183 267z" />
    <glyph glyph-name="Iota" unicode="&#x399;" horiz-adv-x="381" 
d="M311 0h-241v77h65v531h-65v78h241v-78h-66v-531h66v-77z" />
    <glyph glyph-name="Kappa" unicode="&#x39a;" horiz-adv-x="681" 
d="M582 610l-207 -194l228 -339h58v-77h-245l-1 77h63l-182 272l-80 -76v-197h63v-76h-237v76h66v535h-66v74h238v-74h-64v-239l250 238h-63v75h237v-75h-58z" />
    <glyph glyph-name="Lambda" unicode="&#x39b;" horiz-adv-x="693" 
d="M316 503c-46 -143 -91 -286 -136 -428h68v-75h-232v75h56c66 197 141 413 208 611h138c67 -204 135 -408 203 -611h55v-75h-234v75h66c-49 153 -92 298 -140 450l-21 69h-2z" />
    <glyph glyph-name="Mu" unicode="&#x39c;" horiz-adv-x="910" 
d="M453 200h5c16 35 31 74 46 108l107 246l57 131h206v-77h-62v-532h62v-76h-234v76h61v453h-2l-40 -94c-21 -49 -42 -99 -64 -148c-30 -66 -59 -133 -88 -200h-104c-31 68 -63 136 -93 203l-67 151l-38 88h-3c0 -151 -1 -302 -1 -453h65v-76h-235v76h66v532h-66v77h209
c19 -39 41 -89 65 -144c31 -68 64 -145 94 -215c21 -46 39 -91 54 -126z" />
    <glyph glyph-name="Nu" unicode="&#x39d;" horiz-adv-x="770" 
d="M553 169h5v439h-69v77h238v-77h-66v-608h-106l-160 246c-40 61 -81 124 -121 187c-20 32 -40 65 -61 97c-1 0 -1 -1 -2 -1v-453h68c0 -25 1 -51 1 -76h-240c0 25 -1 51 -1 76h69c0 178 1 354 1 532h-69v77h186c63 -100 110 -174 148 -232l111 -175c23 -36 46 -72 68 -109
z" />
    <glyph glyph-name="Xi" unicode="&#x39e;" horiz-adv-x="587" 
d="M463 595h-342v-93h-80v183h502v-183h-80v93zM109 91h368v98h82v-189h-532v189h82v-98zM440 314l-294 3v74l294 4v-81z" />
    <glyph glyph-name="Omicron" unicode="&#x39f;" horiz-adv-x="705" 
d="M655 342c0 -200 -101 -351 -299 -351c-217 0 -306 138 -306 348c0 193 85 358 306 358c225 0 299 -166 299 -355zM539 339c0 132 -30 275 -183 275s-191 -134 -191 -276c0 -172 55 -264 191 -264c127 0 183 115 183 265z" />
    <glyph glyph-name="Pi" unicode="&#x3a0;" horiz-adv-x="739" 
d="M698 0h-241v76h62v533h-300v-533h63v-76h-240v76h66v533h-66v77h656v-77h-67v-533h67v-76z" />
    <glyph glyph-name="Rho" unicode="&#x3a1;" horiz-adv-x="598" 
d="M569 483c0 -90 -53 -208 -211 -208h-141v-198h87v-77h-262v77h65v531h-65v78h305c138 0 222 -73 222 -203zM330 608h-113v-257h116c63 0 122 32 122 128c0 89 -47 129 -125 129z" />
    <glyph glyph-name="Delta" unicode="&#x394;" horiz-adv-x="687" 
d="M644 67v-67h-604v49l237 637h133zM531 75l-142 395l-46 133h-2l-51 -141l-142 -387h383z" />
    <glyph glyph-name="Delta" unicode="&#x2206;" horiz-adv-x="687" 
d="M644 67v-67h-604v49l237 637h133zM531 75l-142 395l-46 133h-2l-51 -141l-142 -387h383z" />
    <glyph glyph-name="Sigma" unicode="&#x3a3;" horiz-adv-x="579" 
d="M335 371v-23c-59 -92 -115 -182 -174 -273h306v111h82v-186h-521v67l186 292c-61 86 -122 173 -184 259v67h508v-181h-80v106h-293z" />
    <glyph glyph-name="dagger" unicode="&#x2020;" horiz-adv-x="480" 
d="M440 410h-156v-473h-90v473h-154v78h154v199h90v-199h156v-78z" />
    <glyph glyph-name="ellipsis" unicode="&#x2026;" horiz-adv-x="689" 
d="M640 54c0 -35 -28 -64 -61 -64c-35 0 -64 29 -64 64c0 34 29 62 63 62c35 0 62 -28 62 -62zM402 54c0 -35 -28 -64 -62 -64c-35 0 -63 29 -63 64c0 34 27 62 62 62s63 -28 63 -62zM174 54c0 -35 -29 -64 -62 -64c-35 0 -64 29 -64 64c0 34 28 62 64 62
c34 0 62 -28 62 -62z" />
    <glyph glyph-name="registered" unicode="&#xae;" horiz-adv-x="593" 
d="M541 469c0 -136 -109 -246 -248 -246c-140 0 -250 110 -250 246c0 137 109 246 250 246c139 0 248 -109 248 -246zM501 469c0 114 -90 208 -208 208s-209 -94 -209 -208c0 -113 90 -207 209 -207c121 0 208 94 208 207zM302 450h-46v-85h31v-37h-111v37h27v216h-27v38
h134c61 0 94 -31 94 -84c0 -25 -15 -61 -52 -77l46 -93l31 -4v-32c-12 -3 -31 -5 -43 -5c-20 0 -31 12 -37 27zM351 535c0 34 -22 47 -48 47h-47v-95h46c26 0 49 9 49 48z" />
    <glyph glyph-name="trademark" unicode="&#x2122;" horiz-adv-x="800" 
d="M670 583h-2l-54 -112l-30 -63h-53l-31 65l-53 106h-1v-183h36v-46h-136v46h37v242h-37v47h115l42 -90l54 -117h1c18 39 36 78 55 117c14 30 29 60 42 90h115v-47h-35v-242h35v-46h-133v46h33v187zM274 584v54h-65v-242h43v-45h-153v45h42v242h-62v-54h-48v101h291v-101
h-48z" />
    <glyph glyph-name="copyright" unicode="&#xa9;" horiz-adv-x="845" 
d="M795 332c0 -204 -169 -370 -373 -370c-206 0 -373 166 -373 370c0 203 167 369 373 369c204 0 373 -166 373 -369zM744 332c0 176 -143 319 -322 319c-177 0 -323 -143 -323 -319s146 -319 323 -319c179 0 322 143 322 319zM293 325c0 -112 36 -184 152 -184
c26 0 80 5 115 15l12 -55c-35 -14 -96 -23 -143 -23c-163 0 -217 103 -217 246c0 107 45 254 225 254c54 0 95 -10 125 -20v-122h-57v72c-23 5 -43 7 -65 7c-101 0 -147 -73 -147 -190z" />
    <glyph glyph-name="sigma1" unicode="&#x3c2;" horiz-adv-x="456" 
d="M273 500c63 0 113 -12 154 -27c0 -45 -1 -90 -1 -135h-74v74c-17 6 -39 10 -71 10c-94 0 -136 -74 -136 -170c0 -84 26 -124 150 -181c87 -40 115 -67 115 -103c0 -27 -37 -86 -98 -146l-55 45l24 35c11 17 20 33 20 47c0 19 -19 30 -68 51c-158 69 -196 128 -196 249
c0 144 75 251 236 251z" />
    <glyph glyph-name="yen" unicode="&#xa5;" horiz-adv-x="575" 
d="M503 294h-435v44h124c-42 85 -85 167 -126 250h-51v77h214v-77h-59c38 -82 76 -161 115 -242h4l115 242h-61v77h211v-77h-49c-43 -83 -86 -165 -129 -250h127v-44zM68 247h435v-47h-168v-125h79v-75h-261v75h78v125h-163v47z" />
    <glyph glyph-name="section" unicode="&#xa7;" horiz-adv-x="495" 
d="M436 286c0 -48 -20 -88 -68 -131c59 -37 76 -84 76 -122c0 -106 -89 -161 -213 -161c-67 0 -118 15 -159 28v129h75c0 -24 -1 -48 -1 -73c28 -7 57 -13 87 -13c73 0 114 37 114 81c0 48 -43 74 -110 102c-86 35 -178 69 -178 163c0 50 23 96 73 131
c-42 29 -63 60 -63 106c0 105 87 157 198 157c69 0 118 -14 155 -27v-132h-76v77c-26 7 -47 12 -81 12c-49 0 -103 -26 -103 -80c0 -49 76 -77 132 -101c72 -30 142 -65 142 -146zM351 268c0 66 -84 86 -156 121c-31 -25 -47 -51 -47 -81c0 -75 82 -80 159 -122
c28 27 44 60 44 82z" />
    <glyph glyph-name="guillemotright" unicode="&#xbb;" horiz-adv-x="459" 
d="M410 211v-38l-155 -167l-43 32l101 154l-101 155l44 32zM246 211v-38l-155 -167l-43 32l102 154l-102 155l43 32z" />
    <glyph glyph-name="degree" unicode="&#xb0;" horiz-adv-x="358" 
d="M322 538c0 -78 -61 -140 -139 -140c-85 0 -141 59 -141 140c0 76 64 141 141 141c78 0 139 -53 139 -141zM264 535c0 48 -30 89 -83 89c-47 0 -82 -41 -82 -89c0 -46 35 -82 82 -82c46 0 83 36 83 82z" />
    <glyph glyph-name="germandbls" unicode="&#xdf;" horiz-adv-x="619" 
d="M481 120c0 63 -49 93 -90 130c-49 45 -104 94 -104 152c0 78 102 115 102 175c0 18 -8 71 -90 71c-71 0 -98 -50 -98 -109v-539h-179v73h73v308h-69v64h69v74c0 47 5 207 205 207c149 0 188 -84 188 -134c0 -99 -104 -135 -104 -186c0 -32 34 -64 79 -97
c64 -47 122 -88 122 -181c0 -75 -55 -141 -178 -141c-50 0 -106 10 -145 24v126h67v-66c34 -10 60 -13 77 -13c46 0 75 26 75 62z" />
    <glyph glyph-name="guillemotleft" unicode="&#xab;" horiz-adv-x="459" 
d="M55 173v38l155 168l43 -32l-102 -155l102 -154l-43 -32zM218 173v38l156 168l43 -32l-102 -155l102 -154l-43 -32z" />
    <glyph glyph-name="divide" unicode="&#xf7;" horiz-adv-x="575" 
d="M345 464c0 -31 -26 -57 -56 -57c-32 0 -58 27 -58 57c0 32 25 57 57 57s57 -25 57 -57zM488 266h-401v69h401v-69zM345 136c0 -31 -26 -57 -56 -57c-32 0 -58 27 -58 57c0 32 25 56 57 56s57 -24 57 -56z" />
    <glyph glyph-name="circumflex" unicode="&#x2c6;" horiz-adv-x="526" 
d="M450 565l-29 -34l-159 100l-158 -100l-28 33l152 146h69z" />
    <glyph glyph-name="perthousand" unicode="&#x2030;" horiz-adv-x="1234" 
d="M356 464c0 -100 -40 -202 -168 -202c-138 0 -170 98 -170 201c0 96 32 207 172 207c142 0 166 -115 166 -206zM273 463c0 57 -6 145 -83 145c-80 0 -90 -84 -90 -146c0 -78 14 -140 90 -140c69 0 83 73 83 141zM610 704l-302 -725h-67l303 725h66zM831 199
c0 -100 -40 -202 -168 -202c-138 0 -170 98 -170 201c0 96 32 207 172 207c142 0 166 -115 166 -206zM748 198c0 57 -6 145 -83 145c-80 0 -90 -84 -90 -146c0 -78 14 -140 90 -140c69 0 83 73 83 141zM1215 199c0 -100 -40 -202 -168 -202c-138 0 -170 98 -170 201
c0 96 32 207 172 207c142 0 166 -115 166 -206zM1132 198c0 57 -6 145 -83 145c-80 0 -90 -84 -90 -146c0 -78 14 -140 90 -140c69 0 83 73 83 141z" />
    <glyph glyph-name="dieresis" unicode="&#xa8;" horiz-adv-x="463" 
d="M383 605c0 -28 -23 -50 -54 -50c-28 0 -49 22 -49 50s23 50 49 50c31 0 54 -21 54 -50zM190 605c0 -28 -22 -50 -52 -50c-29 0 -51 22 -51 50s24 50 50 50c31 0 53 -21 53 -50z" />
    <glyph glyph-name="florin" unicode="&#x192;" horiz-adv-x="575" 
d="M158 328v69h96c11 120 26 280 187 280c32 0 69 -4 104 -16l-19 -70c-31 7 -44 8 -66 8c-84 0 -90 -68 -107 -202h102v-69h-108c-37 -219 -11 -447 -211 -447c-30 0 -69 4 -103 18l21 70c28 -8 42 -9 60 -9c63 0 85 36 101 123c12 64 23 186 31 245h-88z" />
    <glyph glyph-name="daggerdbl" unicode="&#x2021;" horiz-adv-x="480" 
d="M40 197h154v213h-154v78h154v199h90v-199h156v-78h-156v-213h156v-78h-156v-182h-90v182h-154v78z" />
    <glyph glyph-name="logicalnot" unicode="&#xac;" horiz-adv-x="575" 
d="M492 335v-238h-72v169h-326v69h398z" />
    <glyph glyph-name="multiply" unicode="&#xd7;" horiz-adv-x="575" 
d="M419 115l-127 128l-130 -130l-50 51l130 129l-128 128l49 49l127 -129l125 127l51 -51l-125 -126l127 -126z" />
    <glyph glyph-name="plusminus" unicode="&#xb1;" horiz-adv-x="575" 
d="M491 272h-162v-158h-72v158h-163v69h163v154h72v-154h162v-69zM94 64h397v-64h-397v64z" />
    <glyph glyph-name="brokenbar" unicode="&#xa6;" horiz-adv-x="272" 
d="M170 359h-73v344h73v-344zM97 229h73v-371h-73v371z" />
    <glyph glyph-name="guilsinglright" unicode="&#x203a;" horiz-adv-x="328" 
d="M257 211v-38l-154 -167l-43 32l101 154l-102 155l44 32z" />
    <glyph glyph-name="guilsinglleft" unicode="&#x2039;" horiz-adv-x="328" 
d="M59 173v38l154 168l44 -32l-102 -155l102 -154l-44 -32z" />
    <glyph glyph-name="currency" unicode="&#xa4;" horiz-adv-x="575" 
d="M160 306c0 -70 56 -126 126 -126c69 0 126 56 126 126c0 69 -56 126 -126 126s-126 -57 -126 -126zM128 418l-64 64l46 47l64 -64c32 23 72 36 113 36s79 -13 113 -37l63 65l48 -48l-66 -62c25 -35 36 -72 36 -112c0 -41 -13 -80 -36 -113l66 -61l-48 -48l-64 63
c-35 -27 -74 -36 -112 -36c-39 0 -76 9 -112 36l-65 -64l-47 48l65 62c-28 37 -37 77 -37 111c0 39 11 80 37 113z" />
    <glyph glyph-name="exclamdown" unicode="&#xa1;" horiz-adv-x="249" 
d="M176 -213h-102l4 284l11 236h74l11 -236zM125 378c-36 0 -63 27 -63 60s26 61 63 61c35 0 62 -28 62 -61s-26 -60 -62 -60z" />
    <glyph glyph-name="questiondown" unicode="&#xbf;" horiz-adv-x="464" 
d="M125 74c82 68 128 110 128 168c0 19 -4 37 -7 63c29 2 56 4 86 7c7 -36 10 -63 10 -83c0 -86 -55 -136 -128 -203c-34 -31 -57 -54 -57 -91c0 -51 41 -72 100 -72c31 0 65 4 100 14v87h80v-149c-70 -26 -142 -35 -194 -35c-126 0 -198 53 -198 139c0 70 30 112 80 155z
M211 436c0 34 28 61 61 61c35 0 63 -28 63 -61c0 -31 -28 -59 -62 -59s-62 26 -62 59z" />
    <glyph glyph-name="sfthyphen" unicode="&#xad;" horiz-adv-x="377" 
d="M321 225h-265v82h265v-82z" />
    <glyph glyph-name="periodcentered" unicode="&#xb7;" horiz-adv-x="228" 
d="M179 284c0 -35 -29 -63 -63 -63s-63 29 -63 63c0 35 28 63 63 63s63 -28 63 -63z" />
    <glyph glyph-name="cedilla" unicode="&#xb8;" horiz-adv-x="460" 
d="M299 17c-19 -24 -41 -51 -60 -78c65 -3 108 -30 108 -84c-2 -55 -59 -102 -184 -102v41c71 7 116 25 116 57c0 35 -52 39 -98 39l-14 21c33 43 65 86 98 127c11 -8 23 -13 34 -21z" />
    <glyph glyph-name="acute" unicode="&#xb4;" horiz-adv-x="505" 
d="M390 673l-157 -139l-40 37l133 165z" />
    <glyph glyph-name="primemod" unicode="&#x2b9;" horiz-adv-x="234" 
d="M260 653l-176 -269l-44 26l146 285z" />
    <glyph glyph-name="caron" unicode="&#x2c7;" horiz-adv-x="526" 
d="M422 723l28 -34l-153 -144h-69l-152 146l28 33l158 -100z" />
    <glyph glyph-name="breve" unicode="&#x2d8;" horiz-adv-x="544" 
d="M266 551c-73 0 -128 57 -171 119l52 39c38 -54 85 -85 122 -85c25 0 69 2 147 78l32 -31c-60 -90 -126 -120 -182 -120z" />
    <glyph glyph-name="dotaccent" unicode="&#x2d9;" horiz-adv-x="527" 
d="M337 627c0 -38 -32 -68 -69 -68c-38 0 -68 30 -68 68s30 69 68 69c37 0 69 -31 69 -69z" />
    <glyph glyph-name="ring" unicode="&#x2da;" horiz-adv-x="527" 
d="M267 550c-65 0 -116 50 -116 111c0 59 51 111 116 111c64 0 112 -51 112 -111c0 -63 -50 -111 -112 -111zM267 717c-33 0 -59 -27 -59 -59c0 -29 24 -56 59 -56c31 0 55 27 55 56c0 31 -23 59 -55 59z" />
    <glyph glyph-name="ogonek" unicode="&#x2db;" horiz-adv-x="546" 
d="M411 30l20 -16c-34 -38 -60 -93 -60 -128c0 -38 22 -50 57 -50c27 0 55 7 74 12l8 -37c-34 -18 -75 -28 -113 -28c-65 0 -100 29 -100 76c0 41 20 110 114 171z" />
    <glyph glyph-name="hungarumlaut" unicode="&#x2dd;" horiz-adv-x="527" 
d="M321 684l-150 -151l-43 33l123 175zM461 684l-149 -151l-43 33l122 175z" />
    <glyph glyph-name="tonos" unicode="&#x384;" horiz-adv-x="505" 
d="M387 688l-145 -155l-45 30l113 177z" />
    <glyph glyph-name="dieresistonos" unicode="&#x385;" horiz-adv-x="497" 
d="M420 607c0 -28 -25 -49 -53 -49c-29 0 -49 21 -49 49c0 29 24 51 50 51c29 0 52 -21 52 -51zM173 607c0 -28 -23 -49 -52 -49s-51 21 -51 49c0 29 23 51 49 51c31 0 54 -21 54 -51zM342 711l-113 -178l-48 21l79 196z" />
    <glyph glyph-name="anoteleia" unicode="&#x387;" horiz-adv-x="228" 
d="M179 360c0 -37 -30 -66 -64 -66c-36 0 -66 29 -66 66c0 35 30 64 65 64c36 0 65 -29 65 -64z" />
    <glyph glyph-name="Alphatonos" unicode="&#x386;" horiz-adv-x="697" 
d="M444 76h66c-11 35 -25 81 -36 113h-257c-9 -28 -25 -76 -35 -113h68v-76h-230v76h56l207 610h137c65 -198 137 -413 202 -610h56v-76h-234v76zM451 265c-27 90 -55 179 -84 269c-5 20 -12 40 -18 60h-2l-19 -61c-23 -72 -64 -192 -85 -268h208zM172 675l-145 -155l-45 30
l113 177z" />
    <glyph glyph-name="Epsilontonos" unicode="&#x388;" horiz-adv-x="607" 
d="M577 0h-535v78h68v530h-66v77h519v-179h-81v102h-262v-215l243 5v-79l-243 4v-245h275v105h82v-183zM-13 676l-145 -155l-45 30l113 177z" />
    <glyph glyph-name="Etatonos" unicode="&#x389;" horiz-adv-x="739" 
d="M697 0h-240v77h62v244h-301v-244h63v-77h-240v77h67v531h-67v77h240v-77h-63v-213h301v213h-62v77h240v-77h-67v-531h67v-77zM-15 674l-145 -155l-45 30l113 177z" />
    <glyph glyph-name="Iotatonos" unicode="&#x38a;" horiz-adv-x="381" 
d="M311 0h-241v77h65v531h-65v78h241v-78h-66v-531h66v-77zM15 674l-145 -155l-45 30l113 177z" />
    <glyph glyph-name="Omicrontonos" unicode="&#x38c;" horiz-adv-x="705" 
d="M655 342c0 -200 -101 -351 -299 -351c-217 0 -306 138 -306 348c0 193 85 358 306 358c225 0 299 -166 299 -355zM539 339c0 132 -30 275 -183 275s-191 -134 -191 -276c0 -172 55 -264 191 -264c127 0 183 115 183 265zM52 677l-145 -155l-45 30l113 177z" />
    <glyph glyph-name="Upsilontonos" unicode="&#x38e;" horiz-adv-x="621" 
d="M313 366l132 241h-59v79h224v-79h-56l-189 -320v-210h80v-77h-273v77h80v207l-185 323h-55v79h227v-79h-58l128 -241h4zM-35 677l-145 -155l-45 30l113 177z" />
    <glyph glyph-name="Omegatonos" unicode="&#x38f;" horiz-adv-x="721" 
d="M569 79l1 -3h113v-76h-264v80c101 26 130 132 130 272c0 139 -37 264 -184 264c-140 0 -191 -112 -191 -262c0 -148 28 -250 124 -273v-81h-262v76h108l2 2c-74 53 -86 163 -86 278c0 186 89 342 303 342c220 0 302 -158 302 -340c0 -113 -25 -223 -96 -279zM68 677
l-145 -155l-45 30l113 177z" />
    <glyph glyph-name="Tau" unicode="&#x3a4;" horiz-adv-x="587" 
d="M431 0h-273v77h82v531h-145v-109h-80v187h558v-187h-81v109h-143v-531h82v-77z" />
    <glyph glyph-name="Upsilon" unicode="&#x3a5;" horiz-adv-x="621" 
d="M313 366l132 241h-59v79h224v-79h-56l-189 -320v-210h80v-77h-273v77h80v207l-185 323h-55v79h227v-79h-58l128 -241h4z" />
    <glyph glyph-name="Chi" unicode="&#x3a7;" horiz-adv-x="667" 
d="M408 607v79h228v-79h-63l-172 -255l177 -274h66l1 -78h-259v78h63l-131 210l-134 -210h66v-78h-232v78h61l183 278l-157 251h-72l1 79h254v-79h-58l117 -190l121 190h-60z" />
    <glyph glyph-name="iotadieresistonos" unicode="&#x390;" horiz-adv-x="303" 
d="M88 412h-56v77h161v-412h72v-64c-28 -13 -70 -20 -97 -20c-56 0 -79 21 -80 79v340zM313 607c0 -28 -25 -49 -53 -49c-29 0 -49 21 -49 49c0 29 24 51 50 51c29 0 52 -21 52 -51zM66 607c0 -28 -23 -49 -52 -49s-51 21 -51 49c0 29 23 51 49 51c31 0 54 -21 54 -51z
M235 711l-113 -178l-48 21l79 196z" />
    <glyph glyph-name="Dieresis" unicode="&#xf6cb;" horiz-adv-x="697" 
d="M501 781c0 -30 -24 -51 -56 -51c-28 0 -49 21 -49 51c0 29 22 52 49 52c32 0 56 -22 56 -52zM310 781c0 -30 -24 -51 -53 -51c-31 0 -53 21 -53 51c0 29 24 52 51 52c31 0 55 -22 55 -52z" />
    <glyph glyph-name="Iotadieresis" unicode="&#x3aa;" horiz-adv-x="381" 
d="M311 0h-241v77h65v531h-65v78h241v-78h-66v-531h66v-77zM338 781c0 -30 -24 -51 -56 -51c-28 0 -49 21 -49 51c0 29 22 52 49 52c32 0 56 -22 56 -52zM147 781c0 -30 -24 -51 -53 -51c-31 0 -53 21 -53 51c0 29 24 52 51 52c31 0 55 -22 55 -52z" />
    <glyph glyph-name="Upsilondieresis" unicode="&#x3ab;" horiz-adv-x="621" 
d="M313 366l132 241h-59v79h224v-79h-56l-189 -320v-210h80v-77h-273v77h80v207l-185 323h-55v79h227v-79h-58l128 -241h4zM464 781c0 -30 -24 -51 -56 -51c-28 0 -49 21 -49 51c0 29 22 52 49 52c32 0 56 -22 56 -52zM273 781c0 -30 -24 -51 -53 -51c-31 0 -53 21 -53 51
c0 29 24 52 51 52c31 0 55 -22 55 -52z" />
    <glyph glyph-name="tilde" unicode="&#x2dc;" horiz-adv-x="526" 
d="M343 568c-63 0 -118 39 -157 39l-57 -39l-33 26c19 53 53 82 94 82c51 0 115 -38 156 -38l56 40l33 -26c-17 -51 -50 -84 -92 -84z" />
    <glyph glyph-name="macron" unicode="&#xaf;" horiz-adv-x="526" 
d="M89 588v76h344v-76h-344z" />
    <glyph glyph-name="iotadieresis" unicode="&#x3ca;" horiz-adv-x="303" 
d="M88 412h-56v77h161v-412h72v-64c-28 -13 -70 -20 -97 -20c-56 0 -79 21 -80 79v340zM271 605c0 -28 -23 -50 -54 -50c-28 0 -49 22 -49 50s23 50 49 50c31 0 54 -21 54 -50zM78 605c0 -28 -22 -50 -52 -50c-29 0 -51 22 -51 50s24 50 50 50c31 0 53 -21 53 -50z" />
    <glyph glyph-name="upsilondieresis" unicode="&#x3cb;" horiz-adv-x="571" 
d="M395 489h108v-291c0 -125 -83 -205 -214 -205c-139 0 -209 76 -209 189v230h-61v77h168v-308c0 -64 26 -108 102 -108c68 0 106 47 106 116v300zM434 605c0 -28 -23 -50 -54 -50c-28 0 -49 22 -49 50s23 50 49 50c31 0 54 -21 54 -50zM241 605c0 -28 -22 -50 -52 -50
c-29 0 -51 22 -51 50s24 50 50 50c31 0 53 -21 53 -50z" />
    <glyph glyph-name="etatonos" unicode="&#x3ae;" horiz-adv-x="611" 
d="M365 500c141 0 149 -106 149 -163v-261h74v-63c-28 -13 -72 -19 -99 -19c-79 0 -81 59 -81 79v244c0 66 -11 97 -79 97c-41 0 -95 -22 -132 -45v-369h-106v413h-70v76h176v-43l5 -1c56 36 114 55 163 55zM394 688l-145 -155l-45 30l113 177z" />
    <glyph glyph-name="iotatonos" unicode="&#x3af;" horiz-adv-x="303" 
d="M88 412h-56v77h161v-412h72v-64c-28 -13 -70 -20 -97 -20c-56 0 -79 21 -80 79v340zM247 688l-145 -155l-45 30l113 177z" />
    <glyph glyph-name="upsilondieresistonos" unicode="&#x3b0;" horiz-adv-x="571" 
d="M395 489h108v-291c0 -125 -83 -205 -214 -205c-139 0 -209 76 -209 189v230h-61v77h168v-308c0 -64 26 -108 102 -108c68 0 106 47 106 116v300zM465 607c0 -28 -25 -49 -53 -49c-29 0 -49 21 -49 49c0 29 24 51 50 51c29 0 52 -21 52 -51zM218 607
c0 -28 -23 -49 -52 -49s-51 21 -51 49c0 29 23 51 49 51c31 0 54 -21 54 -51zM387 711l-113 -178l-48 21l79 196z" />
    <glyph glyph-name="omegatonos" unicode="&#x3ce;" horiz-adv-x="755" 
d="M334 335h93l1 -171c1 -48 26 -92 79 -92c74 0 105 61 105 167c0 81 -21 157 -93 190l20 69c131 -26 178 -137 178 -258c0 -131 -56 -247 -202 -247c-62 0 -113 27 -135 75h-4c-27 -49 -80 -75 -139 -75c-160 0 -199 116 -199 247c0 118 46 232 178 258l20 -69
c-72 -33 -92 -109 -92 -190c0 -86 16 -167 103 -167c60 0 87 44 87 92v171zM515 688l-145 -155l-45 30l113 177z" />
    <glyph glyph-name="epsilontonos" unicode="&#x3ad;" horiz-adv-x="442" 
d="M232 502c66 0 134 -13 169 -29v-124h-73v72c-27 8 -57 10 -83 10c-70 0 -98 -34 -98 -72c0 -56 41 -64 85 -64h70v-66h-70c-42 0 -93 -16 -93 -79c0 -60 51 -84 120 -84c49 0 94 12 146 33l22 -63c-41 -22 -112 -44 -188 -44c-118 0 -209 43 -209 145c0 58 38 105 89 121
l1 3c-44 13 -81 46 -81 97c0 87 77 144 193 144zM349 688l-145 -155l-45 30l113 177z" />
    <glyph glyph-name="OE" unicode="&#x152;" horiz-adv-x="846" 
d="M353 697c36 0 69 -5 98 -13h350v-173h-80v97h-234v-215c72 1 145 2 217 4v-78c-72 1 -145 2 -217 2v-245h247v101h82v-177h-386c-24 -4 -50 -7 -77 -7c-218 0 -307 135 -307 346c0 192 85 358 307 358zM353 71c7 0 15 0 23 1v543c-7 0 -15 1 -25 1
c-152 -1 -190 -137 -190 -279c0 -172 55 -266 192 -266z" />
    <glyph glyph-name="paragraph" unicode="&#xb6;" horiz-adv-x="564" 
d="M252 312h-19c-109 0 -190 80 -190 190c0 106 78 195 190 195h300v-73h-67v-823h-74v823h-65l1 -823h-159v70h83v441z" />
    <glyph glyph-name="oe" unicode="&#x153;" horiz-adv-x="853" 
d="M782 106l24 -65c-60 -32 -124 -46 -189 -46c-91 0 -145 31 -176 82c-35 -50 -90 -85 -178 -85c-166 0 -225 115 -225 250c0 134 67 257 232 257c86 0 139 -36 171 -89c31 51 84 91 174 91c190 0 204 -163 204 -234v-38h-321c0 -86 30 -156 132 -156c54 0 99 11 152 33z
M387 242c0 83 -19 179 -117 179s-122 -93 -122 -179c0 -91 19 -173 122 -173c97 0 117 89 117 173zM500 281h221c-1 86 -25 144 -105 144c-83 0 -111 -68 -116 -144z" />
    <glyph glyph-name="ae" unicode="&#xe6;" horiz-adv-x="809" 
d="M575 500c189 0 201 -163 201 -235v-39h-318c-1 -87 29 -154 131 -154c54 0 99 11 152 32l22 -65c-59 -32 -123 -46 -187 -46c-94 0 -146 27 -179 75c-95 -75 -174 -77 -214 -77c-122 0 -151 86 -151 141c0 78 54 148 177 148h144v36c0 76 -33 101 -109 101
c-53 0 -108 -10 -154 -26l-20 68c56 25 132 40 196 40c65 0 126 -21 150 -74c32 44 82 75 159 75zM227 63c32 0 101 20 142 56c-11 32 -16 67 -17 106h-112c-63 0 -97 -31 -97 -80c0 -54 27 -82 84 -82zM575 423c-83 0 -110 -68 -115 -143h219c0 85 -24 143 -104 143z" />
    <glyph glyph-name="AE" unicode="&#xc6;" horiz-adv-x="985" 
d="M509 75v130h-250l-80 -130h68v-75h-241v75h59l334 534h-55v76h587v-173h-81v99h-231v-218l217 5v-79l-217 4v-248h244v102h82v-177h-505v75h69zM504 605l-202 -325h207v325h-5z" />
    <glyph glyph-name="space" unicode=" " horiz-adv-x="283" 
 />
    <glyph glyph-name="Circumflex" unicode="&#xf6c0;" horiz-adv-x="697" 
d="M537 767l-30 -34l-159 99l-158 -100l-27 33l151 142h69z" />
    <glyph glyph-name="commaaccent" unicode="&#xf6c3;" horiz-adv-x="697" 
d="M290 -96c0 30 26 56 61 56c40 0 63 -31 62 -68c-1 -55 -39 -107 -94 -134l-25 31c23 20 35 41 36 64c-26 6 -40 25 -40 51z" />
    <glyph glyph-name="Acute" unicode="&#xf6c9;" horiz-adv-x="697" 
d="M521 871l-158 -139l-40 38l134 164z" />
    <glyph glyph-name="Caron" unicode="&#xf6ca;" horiz-adv-x="697" 
d="M509 912l29 -35l-154 -139h-68l-152 141l27 32l159 -100z" />
    <glyph glyph-name="DieresisAcute" unicode="&#xf6cc;" horiz-adv-x="697" 
d="M537 803c0 -28 -23 -50 -54 -50c-28 0 -49 22 -49 50s23 50 49 50c31 0 54 -21 54 -50zM294 803c0 -28 -22 -50 -52 -50c-29 0 -51 22 -51 50s24 50 50 50c31 0 53 -21 53 -50zM475 894l-133 -162l-46 30l106 184z" />
    <glyph glyph-name="DieresisGrave" unicode="&#xf6cd;" horiz-adv-x="697" 
d="M499 803c0 -28 -23 -50 -54 -50c-28 0 -49 22 -49 50s23 50 49 50c31 0 54 -21 54 -50zM256 803c0 -28 -22 -50 -52 -50c-29 0 -51 22 -51 50s24 50 50 50c31 0 53 -21 53 -50zM350 732l-133 162l73 52l106 -184z" />
    <glyph glyph-name="Grave" unicode="&#xf6ce;" horiz-adv-x="697" 
d="M341 732l-156 139l62 63l134 -165z" />
    <glyph glyph-name="Hungarumlaut" unicode="&#xf6cf;" horiz-adv-x="697" 
d="M456 886l-148 -152l-44 34l123 174zM594 886l-149 -152l-43 34l122 174z" />
    <glyph glyph-name="Macron" unicode="&#xf6d0;" horiz-adv-x="697" 
d="M185 747v76h338v-76h-338z" />
    <glyph glyph-name="cyrBreve" unicode="&#xf6d1;" horiz-adv-x="697" 
d="M347 733c-74 0 -128 57 -171 119l52 38c38 -52 85 -85 123 -85c24 0 68 4 146 79l32 -31c-60 -89 -127 -120 -182 -120z" />
    <glyph glyph-name="cyrbreve" unicode="&#xf6d4;" horiz-adv-x="527" 
d="M266 540c-73 0 -128 57 -171 119l52 38c38 -52 85 -85 122 -85c25 0 69 3 147 78l32 -31c-60 -89 -126 -119 -182 -119z" />
    <glyph glyph-name="Scaron" unicode="&#x160;" horiz-adv-x="575" 
d="M37 187h80l1 -82c49 -23 102 -30 146 -30c104 0 154 57 154 113c0 82 -65 94 -152 119c-122 28 -221 73 -221 188c4 131 106 200 242 200c60 0 142 -9 201 -42l1 -143h-81l-1 83c-30 13 -83 18 -119 18c-69 0 -129 -36 -129 -103c0 -63 73 -91 152 -111
c111 -27 226 -63 226 -204s-109 -202 -266 -202c-77 0 -163 13 -233 50c0 48 -1 97 -1 146zM457 912l29 -35l-154 -139h-68l-152 141l27 32l159 -100z" />
    <glyph glyph-name="Zcaron" unicode="&#x17d;" horiz-adv-x="565" 
d="M524 610l-368 -532h305v121h83v-199h-521v76l367 532h-261v-107h-82v185h477v-76zM457 912l29 -35l-154 -139h-68l-152 141l27 32l159 -100z" />
    <glyph glyph-name="scaron" unicode="&#x161;" horiz-adv-x="464" 
d="M30 149h77l3 -62c26 -14 68 -20 99 -20c60 0 108 17 108 65s-43 62 -95 77c-90 26 -184 48 -184 146c0 101 81 144 193 144c57 0 117 -11 161 -37c0 -39 1 -78 2 -118h-79l-2 65c-22 9 -49 14 -75 14c-50 0 -91 -18 -91 -64c0 -39 58 -55 94 -65c81 -23 186 -43 186 -162
c0 -96 -84 -140 -210 -140c-57 0 -132 8 -185 38zM391 723l28 -34l-153 -144h-69l-152 146l28 33l158 -100z" />
    <glyph glyph-name="Ydieresis" unicode="&#x178;" horiz-adv-x="621" 
d="M313 366l132 241h-59v79h224v-79h-56l-189 -320v-210h80v-77h-273v77h80v207l-185 323h-55v79h227v-79h-58l128 -241h4zM458 781c0 -30 -24 -51 -56 -51c-28 0 -49 21 -49 51c0 29 22 52 49 52c32 0 56 -22 56 -52zM267 781c0 -30 -24 -51 -53 -51c-31 0 -53 21 -53 51
c0 29 24 52 51 52c31 0 55 -22 55 -52z" />
    <glyph glyph-name="cent" unicode="&#xa2;" horiz-adv-x="575" 
d="M285 -85v79c-152 11 -196 115 -196 245c0 101 35 241 196 259v92h51v-90c48 -2 96 -11 134 -26v-137h-76v71c-12 3 -31 5 -43 5c-5 0 -10 -1 -15 -1v-339c46 1 88 11 132 28l23 -70c-40 -23 -97 -36 -155 -38v-78h-51zM196 241c0 -94 30 -147 89 -163v326
c-62 -19 -89 -70 -89 -163z" />
    <glyph glyph-name="ordfeminine" unicode="&#xaa;" horiz-adv-x="364" 
d="M307 485v-160h43l5 -48c-20 -8 -51 -14 -71 -14c-25 0 -47 9 -51 38c-46 -38 -87 -39 -107 -39c-84 0 -106 56 -106 95c0 94 101 98 210 103v15c0 45 -14 62 -63 62c-31 0 -70 -7 -104 -18c-5 16 -10 33 -16 50c41 17 93 27 138 27c76 0 122 -28 122 -111zM230 415
c-69 -2 -127 -3 -127 -54c0 -31 16 -45 52 -45c22 0 53 13 75 30v69z" />
    <glyph glyph-name="ordmasculine" unicode="&#xba;" horiz-adv-x="372" 
d="M346 429c0 -85 -42 -166 -164 -166c-115 0 -156 77 -156 166c0 88 46 168 162 168c118 0 158 -80 158 -168zM264 429c0 51 -12 112 -76 112s-80 -60 -80 -113c0 -56 11 -107 80 -107c63 0 76 56 76 108z" />
    <glyph glyph-name="onequarter" unicode="&#xbc;" horiz-adv-x="850" 
d="M84 265v62h90v264c-26 -3 -69 -9 -95 -13l-11 53l119 35h72v-339h86v-62h-261zM626 704l-302 -725h-67l303 725h66zM639 401h79v-232h62v-57h-62v-55h45v-57h-166v57h41v55h-199v49c113 137 171 206 200 240zM639 314c-41 -53 -83 -99 -118 -145h118v145z" />
    <glyph glyph-name="threequarters" unicode="&#xbe;" horiz-adv-x="850" 
d="M656 401h79v-232h62v-57h-62v-55h45v-57h-166v57h41v55h-199v49c113 137 171 206 200 240zM360 622l-119 -110c71 -7 127 -44 127 -115c0 -88 -79 -136 -170 -136c-52 0 -101 6 -144 27l21 58c56 -17 92 -18 116 -18c55 0 93 26 93 69c0 37 -31 62 -95 62
c-17 0 -31 -2 -48 -4l-13 40c40 37 83 74 122 109h-111v-49h-66v111h275c4 -15 7 -30 12 -44zM629 704l-302 -725h-67l303 725h66zM656 314c-41 -53 -83 -99 -118 -145h118v145z" />
    <glyph glyph-name="Agrave" unicode="&#xc0;" horiz-adv-x="697" 
d="M444 76h66c-11 35 -25 81 -36 113h-257c-9 -28 -25 -76 -35 -113h68v-76h-230v76h56l207 610h137c65 -198 137 -413 202 -610h56v-76h-234v76zM451 265c-27 90 -55 179 -84 269c-5 20 -12 40 -18 60h-2l-19 -61c-23 -72 -64 -192 -85 -268h208zM342 732l-156 139l62 63
l134 -165z" />
    <glyph glyph-name="Aacute" unicode="&#xc1;" horiz-adv-x="697" 
d="M444 76h66c-11 35 -25 81 -36 113h-257c-9 -28 -25 -76 -35 -113h68v-76h-230v76h56l207 610h137c65 -198 137 -413 202 -610h56v-76h-234v76zM451 265c-27 90 -55 179 -84 269c-5 20 -12 40 -18 60h-2l-19 -61c-23 -72 -64 -192 -85 -268h208zM518 871l-158 -139l-40 38
l134 164z" />
    <glyph glyph-name="Acircumflex" unicode="&#xc2;" horiz-adv-x="697" 
d="M444 76h66c-11 35 -25 81 -36 113h-257c-9 -28 -25 -76 -35 -113h68v-76h-230v76h56l207 610h137c65 -198 137 -413 202 -610h56v-76h-234v76zM451 265c-27 90 -55 179 -84 269c-5 20 -12 40 -18 60h-2l-19 -61c-23 -72 -64 -192 -85 -268h208zM535 767l-30 -34l-159 99
l-158 -100l-27 33l151 142h69z" />
    <glyph glyph-name="Atilde" unicode="&#xc3;" horiz-adv-x="697" 
d="M444 76h66c-11 35 -25 81 -36 113h-257c-9 -28 -25 -76 -35 -113h68v-76h-230v76h56l207 610h137c65 -198 137 -413 202 -610h56v-76h-234v76zM451 265c-27 90 -55 179 -84 269c-5 20 -12 40 -18 60h-2l-19 -61c-23 -72 -64 -192 -85 -268h208zM424 760
c-63 0 -118 39 -157 39l-57 -39l-33 26c19 53 53 82 94 82c51 0 115 -38 156 -38l56 40l33 -26c-17 -51 -50 -84 -92 -84z" />
    <glyph glyph-name="Adieresis" unicode="&#xc4;" horiz-adv-x="697" 
d="M444 76h66c-11 35 -25 81 -36 113h-257c-9 -28 -25 -76 -35 -113h68v-76h-230v76h56l207 610h137c65 -198 137 -413 202 -610h56v-76h-234v76zM451 265c-27 90 -55 179 -84 269c-5 20 -12 40 -18 60h-2l-19 -61c-23 -72 -64 -192 -85 -268h208zM310 781
c0 -30 -24 -51 -53 -51c-31 0 -53 21 -53 51c0 29 24 52 51 52c31 0 55 -22 55 -52zM501 781c0 -30 -24 -51 -56 -51c-28 0 -49 21 -49 51c0 29 22 52 49 52c32 0 56 -22 56 -52z" />
    <glyph glyph-name="Aring" unicode="&#xc5;" horiz-adv-x="697" 
d="M444 76h66c-11 35 -25 81 -36 113h-257c-9 -28 -25 -76 -35 -113h68v-76h-230v76h56l207 610h137c65 -198 137 -413 202 -610h56v-76h-234v76zM344 742c-65 0 -116 50 -116 111c0 59 51 111 116 111c64 0 112 -51 112 -111c0 -63 -50 -111 -112 -111zM451 265
c-27 90 -55 179 -84 269c-5 20 -12 40 -18 60h-2l-19 -61c-23 -72 -64 -192 -85 -268h208zM344 909c-33 0 -59 -27 -59 -59c0 -29 24 -56 59 -56c31 0 55 27 55 56c0 31 -23 59 -55 59z" />
    <glyph glyph-name="Ccedilla" unicode="&#xc7;" horiz-adv-x="593" 
d="M165 341c0 -160 47 -260 215 -260c35 0 109 6 162 22l18 -78c-45 -17 -114 -30 -175 -33c-17 -22 -36 -46 -53 -70c65 -3 108 -30 108 -84c-2 -55 -59 -102 -184 -102v41c71 7 116 25 116 57c0 35 -52 39 -98 39l-14 21c25 33 49 66 74 98c-214 9 -284 153 -284 348
c0 153 61 358 314 358c74 0 133 -12 178 -28v-174h-80v105c-31 8 -66 11 -95 11c-143 0 -202 -108 -202 -271z" />
    <glyph glyph-name="Egrave" unicode="&#xc8;" horiz-adv-x="607" 
d="M577 0h-535v78h68v530h-66v77h519v-179h-81v102h-262v-215l243 5v-79l-243 4v-245h275v105h82v-183zM342 732l-156 139l62 63l134 -165z" />
    <glyph glyph-name="Eacute" unicode="&#xc9;" horiz-adv-x="607" 
d="M577 0h-535v78h68v530h-66v77h519v-179h-81v102h-262v-215l243 5v-79l-243 4v-245h275v105h82v-183zM472 871l-158 -139l-40 38l134 164z" />
    <glyph glyph-name="Ecircumflex" unicode="&#xca;" horiz-adv-x="607" 
d="M577 0h-535v78h68v530h-66v77h519v-179h-81v102h-262v-215l243 5v-79l-243 4v-245h275v105h82v-183zM513 767l-30 -34l-159 99l-158 -100l-27 33l151 142h69z" />
    <glyph glyph-name="Edieresis" unicode="&#xcb;" horiz-adv-x="607" 
d="M577 0h-535v78h68v530h-66v77h519v-179h-81v102h-262v-215l243 5v-79l-243 4v-245h275v105h82v-183zM474 781c0 -30 -24 -51 -56 -51c-28 0 -49 21 -49 51c0 29 22 52 49 52c32 0 56 -22 56 -52zM283 781c0 -30 -24 -51 -53 -51c-31 0 -53 21 -53 51c0 29 24 52 51 52
c31 0 55 -22 55 -52z" />
    <glyph glyph-name="Igrave" unicode="&#xcc;" horiz-adv-x="381" 
d="M311 0h-241v77h65v531h-65v78h241v-78h-66v-531h66v-77zM193 732l-156 139l62 63l134 -165z" />
    <glyph glyph-name="Iacute" unicode="&#xcd;" horiz-adv-x="381" 
d="M311 0h-241v77h65v531h-65v78h241v-78h-66v-531h66v-77zM354 871l-158 -139l-40 38l134 164z" />
    <glyph glyph-name="Icircumflex" unicode="&#xce;" horiz-adv-x="381" 
d="M311 0h-241v77h65v531h-65v78h241v-78h-66v-531h66v-77zM379 767l-30 -34l-159 99l-158 -100l-27 33l151 142h69z" />
    <glyph glyph-name="Idieresis" unicode="&#xcf;" horiz-adv-x="381" 
d="M311 0h-241v77h65v531h-65v78h241v-78h-66v-531h66v-77zM339 781c0 -30 -24 -51 -56 -51c-28 0 -49 21 -49 51c0 29 22 52 49 52c32 0 56 -22 56 -52zM148 781c0 -30 -24 -51 -53 -51c-31 0 -53 21 -53 51c0 29 24 52 51 52c31 0 55 -22 55 -52z" />
    <glyph glyph-name="Ntilde" unicode="&#xd1;" horiz-adv-x="770" 
d="M553 169h5v439h-69v77h238v-77h-66v-608h-106l-160 246c-40 61 -81 124 -121 187c-20 32 -40 65 -61 97c-1 0 -1 -1 -2 -1v-453h68c0 -25 1 -51 1 -76h-240c0 25 -1 51 -1 76h69c0 178 1 354 1 532h-69v77h186c63 -100 110 -174 148 -232l111 -175c23 -36 46 -72 68 -109
zM469 763c-63 0 -118 39 -157 39l-57 -39l-33 26c19 53 53 82 94 82c51 0 115 -38 156 -38l56 40l33 -26c-17 -51 -50 -84 -92 -84z" />
    <glyph glyph-name="Ograve" unicode="&#xd2;" horiz-adv-x="705" 
d="M655 342c0 -200 -101 -351 -299 -351c-217 0 -306 138 -306 348c0 193 85 358 306 358c225 0 299 -166 299 -355zM539 339c0 132 -30 275 -183 275s-191 -134 -191 -276c0 -172 55 -264 191 -264c127 0 183 115 183 265zM352 732l-156 139l62 63l134 -165z" />
    <glyph glyph-name="Oacute" unicode="&#xd3;" horiz-adv-x="705" 
d="M655 342c0 -200 -101 -351 -299 -351c-217 0 -306 138 -306 348c0 193 85 358 306 358c225 0 299 -166 299 -355zM539 339c0 132 -30 275 -183 275s-191 -134 -191 -276c0 -172 55 -264 191 -264c127 0 183 115 183 265zM512 871l-158 -139l-40 38l134 164z" />
    <glyph glyph-name="Ocircumflex" unicode="&#xd4;" horiz-adv-x="705" 
d="M655 342c0 -200 -101 -351 -299 -351c-217 0 -306 138 -306 348c0 193 85 358 306 358c225 0 299 -166 299 -355zM539 339c0 132 -30 275 -183 275s-191 -134 -191 -276c0 -172 55 -264 191 -264c127 0 183 115 183 265zM544 767l-30 -34l-159 99l-158 -100l-27 33
l151 142h69z" />
    <glyph glyph-name="Otilde" unicode="&#xd5;" horiz-adv-x="705" 
d="M655 342c0 -200 -101 -351 -299 -351c-217 0 -306 138 -306 348c0 193 85 358 306 358c225 0 299 -166 299 -355zM539 339c0 132 -30 275 -183 275s-191 -134 -191 -276c0 -172 55 -264 191 -264c127 0 183 115 183 265zM443 765c-63 0 -118 39 -157 39l-57 -39l-33 26
c19 53 53 82 94 82c51 0 115 -38 156 -38l56 40l33 -26c-17 -51 -50 -84 -92 -84z" />
    <glyph glyph-name="Odieresis" unicode="&#xd6;" horiz-adv-x="705" 
d="M655 342c0 -200 -101 -351 -299 -351c-217 0 -306 138 -306 348c0 193 85 358 306 358c225 0 299 -166 299 -355zM539 339c0 132 -30 275 -183 275s-191 -134 -191 -276c0 -172 55 -264 191 -264c127 0 183 115 183 265zM501 781c0 -30 -24 -51 -56 -51
c-28 0 -49 21 -49 51c0 29 22 52 49 52c32 0 56 -22 56 -52zM310 781c0 -30 -24 -51 -53 -51c-31 0 -53 21 -53 51c0 29 24 52 51 52c31 0 55 -22 55 -52z" />
    <glyph glyph-name="Oslash" unicode="&#xd8;" horiz-adv-x="705" 
d="M655 342c0 -200 -101 -351 -299 -351c-90 0 -157 23 -205 66l-50 -64h-54l74 94c-49 61 -71 147 -71 252c0 193 85 358 306 358c85 0 147 -23 194 -64l50 66h58l-77 -96c53 -67 74 -162 74 -261zM539 339c0 60 -8 125 -32 175l-293 -381c32 -41 77 -61 142 -61
c127 0 183 117 183 267zM165 338c0 -69 9 -122 29 -162l292 380c-28 37 -69 61 -130 61c-153 0 -191 -137 -191 -279z" />
    <glyph glyph-name="Ugrave" unicode="&#xd9;" horiz-adv-x="728" 
d="M635 608v-359c0 -157 -86 -257 -272 -257c-193 0 -272 96 -272 257v359h-59v78h235v-78h-68v-358c0 -117 59 -174 165 -174c103 0 164 55 164 174v358h-67v78h235v-78h-61zM366 732l-156 139l62 63l134 -165z" />
    <glyph glyph-name="Uacute" unicode="&#xda;" horiz-adv-x="728" 
d="M635 608v-359c0 -157 -86 -257 -272 -257c-193 0 -272 96 -272 257v359h-59v78h235v-78h-68v-358c0 -117 59 -174 165 -174c103 0 164 55 164 174v358h-67v78h235v-78h-61zM530 871l-158 -139l-40 38l134 164z" />
    <glyph glyph-name="Ucircumflex" unicode="&#xdb;" horiz-adv-x="728" 
d="M635 608v-359c0 -157 -86 -257 -272 -257c-193 0 -272 96 -272 257v359h-59v78h235v-78h-68v-358c0 -117 59 -174 165 -174c103 0 164 55 164 174v358h-67v78h235v-78h-61zM563 767l-32 -34l-165 97l-164 -98l-28 33l157 139h72z" />
    <glyph glyph-name="Udieresis" unicode="&#xdc;" horiz-adv-x="728" 
d="M635 608v-359c0 -157 -86 -257 -272 -257c-193 0 -272 96 -272 257v359h-59v78h235v-78h-68v-358c0 -117 59 -174 165 -174c103 0 164 55 164 174v358h-67v78h235v-78h-61zM515 781c0 -30 -24 -51 -56 -51c-28 0 -49 21 -49 51c0 29 22 52 49 52c32 0 56 -22 56 -52z
M324 781c0 -30 -24 -51 -53 -51c-31 0 -53 21 -53 51c0 29 24 52 51 52c31 0 55 -22 55 -52z" />
    <glyph glyph-name="Yacute" unicode="&#xdd;" horiz-adv-x="621" 
d="M313 366l132 241h-59v79h224v-79h-56l-189 -320v-210h80v-77h-273v77h80v207l-185 323h-55v79h227v-79h-58l128 -241h4zM475 870l-158 -139l-40 38l134 164z" />
    <glyph glyph-name="Thorn" unicode="&#xde;" horiz-adv-x="598" 
d="M218 612v-67h130c139 0 223 -65 223 -189c0 -87 -53 -198 -213 -196h-140v-89h78v-71h-256v71h68v541h-68v74h256v-74h-78zM332 478h-114v-251h118c64 0 121 33 121 126c0 86 -53 125 -125 125z" />
    <glyph glyph-name="agrave" unicode="&#xe0;" horiz-adv-x="537" 
d="M339 228l-109 -8c-56 -4 -86 -36 -86 -77c0 -52 24 -76 81 -76c36 0 82 21 114 51v110zM442 332v-257h76l6 -60c-27 -15 -85 -21 -112 -21c-39 0 -66 9 -67 61c-1 0 -1 1 -2 1c-71 -64 -136 -65 -165 -65c-117 0 -145 84 -145 141c0 79 54 137 190 146l118 8v29
c0 73 -23 101 -98 101c-48 0 -103 -10 -150 -26c-7 22 -14 45 -20 68c56 25 131 39 195 39c109 0 174 -42 174 -165zM294 534l-158 139l63 63l134 -165z" />
    <glyph glyph-name="aacute" unicode="&#xe1;" horiz-adv-x="537" 
d="M339 228l-109 -8c-56 -4 -86 -36 -86 -77c0 -52 24 -76 81 -76c36 0 82 21 114 51v110zM442 332v-257h76l6 -60c-27 -15 -85 -21 -112 -21c-39 0 -66 9 -67 61c-1 0 -1 1 -2 1c-71 -64 -136 -65 -165 -65c-117 0 -145 84 -145 141c0 79 54 137 190 146l118 8v29
c0 73 -23 101 -98 101c-48 0 -103 -10 -150 -26c-7 22 -14 45 -20 68c56 25 131 39 195 39c109 0 174 -42 174 -165zM397 673l-157 -139l-40 37l133 165z" />
    <glyph glyph-name="acircumflex" unicode="&#xe2;" horiz-adv-x="537" 
d="M339 228l-109 -8c-56 -4 -86 -36 -86 -77c0 -52 24 -76 81 -76c36 0 82 21 114 51v110zM442 332v-257h76l6 -60c-27 -15 -85 -21 -112 -21c-39 0 -66 9 -67 61c-1 0 -1 1 -2 1c-71 -64 -136 -65 -165 -65c-117 0 -145 84 -145 141c0 79 54 137 190 146l118 8v29
c0 73 -23 101 -98 101c-48 0 -103 -10 -150 -26c-7 22 -14 45 -20 68c56 25 131 39 195 39c109 0 174 -42 174 -165zM450 565l-29 -34l-159 100l-158 -100l-28 33l152 146h69z" />
    <glyph glyph-name="atilde" unicode="&#xe3;" horiz-adv-x="537" 
d="M339 228l-109 -8c-56 -4 -86 -36 -86 -77c0 -52 24 -76 81 -76c36 0 82 21 114 51v110zM442 332v-257h76l6 -60c-27 -15 -85 -21 -112 -21c-39 0 -66 9 -67 61c-1 0 -1 1 -2 1c-71 -64 -136 -65 -165 -65c-117 0 -145 84 -145 141c0 79 54 137 190 146l118 8v29
c0 73 -23 101 -98 101c-48 0 -103 -10 -150 -26c-7 22 -14 45 -20 68c56 25 131 39 195 39c109 0 174 -42 174 -165zM343 570c-63 0 -118 39 -157 39l-57 -39l-33 26c19 53 53 82 94 82c51 0 115 -38 156 -38l56 40l33 -26c-17 -51 -50 -84 -92 -84z" />
    <glyph glyph-name="adieresis" unicode="&#xe4;" horiz-adv-x="537" 
d="M339 228l-109 -8c-56 -4 -86 -36 -86 -77c0 -52 24 -76 81 -76c36 0 82 21 114 51v110zM442 332v-257h76l6 -60c-27 -15 -85 -21 -112 -21c-39 0 -66 9 -67 61c-1 0 -1 1 -2 1c-71 -64 -136 -65 -165 -65c-117 0 -145 84 -145 141c0 79 54 137 190 146l118 8v29
c0 73 -23 101 -98 101c-48 0 -103 -10 -150 -26c-7 22 -14 45 -20 68c56 25 131 39 195 39c109 0 174 -42 174 -165zM423 605c0 -28 -23 -50 -54 -50c-28 0 -49 22 -49 50s23 50 49 50c31 0 54 -21 54 -50zM230 605c0 -28 -22 -50 -52 -50c-29 0 -51 22 -51 50s24 50 50 50
c31 0 53 -21 53 -50z" />
    <glyph glyph-name="aring" unicode="&#xe5;" horiz-adv-x="537" 
d="M339 228l-109 -8c-56 -4 -86 -36 -86 -77c0 -52 24 -76 81 -76c36 0 82 21 114 51v110zM442 332v-257h76l6 -60c-27 -15 -85 -21 -112 -21c-39 0 -66 9 -67 61c-1 0 -1 1 -2 1c-71 -64 -136 -65 -165 -65c-117 0 -145 84 -145 141c0 79 54 137 190 146l118 8v29
c0 73 -23 101 -98 101c-48 0 -103 -10 -150 -26c-7 22 -14 45 -20 68c56 25 131 39 195 39c109 0 174 -42 174 -165zM264 550c-65 0 -116 50 -116 111c0 59 51 111 116 111c64 0 112 -51 112 -111c0 -63 -50 -111 -112 -111zM264 717c-33 0 -59 -27 -59 -59
c0 -29 24 -56 59 -56c31 0 55 27 55 56c0 31 -23 59 -55 59z" />
    <glyph glyph-name="ccedilla" unicode="&#xe7;" horiz-adv-x="471" 
d="M272 500c54 0 107 -9 149 -26v-137h-76v71c-12 3 -31 5 -43 5c-109 0 -155 -51 -155 -172c0 -114 46 -168 132 -168c49 0 94 10 140 28l23 -70c-42 -23 -102 -37 -162 -39c-13 -17 -27 -35 -39 -53c65 -3 108 -30 108 -84c-2 -55 -59 -102 -184 -102v41
c71 7 116 25 116 57c0 35 -52 39 -98 39l-14 21l63 83c-149 13 -192 116 -192 245c0 108 40 261 232 261z" />
    <glyph glyph-name="egrave" unicode="&#xe8;" horiz-adv-x="505" 
d="M264 422c-77 0 -110 -67 -114 -131h218c-2 71 -24 131 -104 131zM265 500c189 0 203 -163 203 -235v-48h-320c-1 -88 29 -146 131 -146c55 0 99 11 152 33l27 -67c-61 -32 -127 -46 -192 -46c-183 0 -226 122 -226 252c0 96 40 257 225 257zM274 534l-158 139l63 63
l134 -165z" />
    <glyph glyph-name="eacute" unicode="&#xe9;" horiz-adv-x="505" 
d="M264 422c-77 0 -110 -67 -114 -131h218c-2 71 -24 131 -104 131zM265 500c189 0 203 -163 203 -235v-48h-320c-1 -88 29 -146 131 -146c55 0 99 11 152 33l27 -67c-61 -32 -127 -46 -192 -46c-183 0 -226 122 -226 252c0 96 40 257 225 257zM404 673l-157 -139l-40 37
l133 165z" />
    <glyph glyph-name="ecircumflex" unicode="&#xea;" horiz-adv-x="505" 
d="M264 422c-77 0 -110 -67 -114 -131h218c-2 71 -24 131 -104 131zM265 500c189 0 203 -163 203 -235v-48h-320c-1 -88 29 -146 131 -146c55 0 99 11 152 33l27 -67c-61 -32 -127 -46 -192 -46c-183 0 -226 122 -226 252c0 96 40 257 225 257zM453 565l-29 -34l-159 100
l-158 -100l-28 33l152 146h69z" />
    <glyph glyph-name="edieresis" unicode="&#xeb;" horiz-adv-x="505" 
d="M264 422c-77 0 -110 -67 -114 -131h218c-2 71 -24 131 -104 131zM265 500c189 0 203 -163 203 -235v-48h-320c-1 -88 29 -146 131 -146c55 0 99 11 152 33l27 -67c-61 -32 -127 -46 -192 -46c-183 0 -226 122 -226 252c0 96 40 257 225 257zM412 605
c0 -28 -23 -50 -54 -50c-28 0 -49 22 -49 50s23 50 49 50c31 0 54 -21 54 -50zM219 605c0 -28 -22 -50 -52 -50c-29 0 -51 22 -51 50s24 50 50 50c31 0 53 -21 53 -50z" />
    <glyph glyph-name="igrave" unicode="&#xec;" horiz-adv-x="315" 
d="M105 417h-56v72h161v-412h72v-64c-28 -13 -70 -20 -96 -20c-57 0 -80 21 -81 79v345zM160 534l-158 139l63 63l134 -165z" />
    <glyph glyph-name="iacute" unicode="&#xed;" horiz-adv-x="315" 
d="M105 417h-56v72h161v-412h72v-64c-28 -13 -70 -20 -96 -20c-57 0 -80 21 -81 79v345zM286 673l-157 -139l-40 37l133 165z" />
    <glyph glyph-name="icircumflex" unicode="&#xee;" horiz-adv-x="334" 
d="M115 417h-56v72h161v-412h72v-64c-28 -13 -70 -20 -96 -20c-57 0 -80 21 -81 79v345zM354 565l-29 -34l-159 100l-158 -100l-28 33l152 146h69z" />
    <glyph glyph-name="idieresis" unicode="&#xef;" horiz-adv-x="315" 
d="M105 417h-56v72h161v-412h72v-64c-28 -13 -70 -20 -96 -20c-57 0 -80 21 -81 79v345zM301 605c0 -28 -23 -50 -54 -50c-28 0 -49 22 -49 50s23 50 49 50c31 0 54 -21 54 -50zM108 605c0 -28 -22 -50 -52 -50c-29 0 -51 22 -51 50s24 50 50 50c31 0 53 -21 53 -50z" />
    <glyph glyph-name="ntilde" unicode="&#xf1;" horiz-adv-x="611" 
d="M365 500c141 0 149 -106 149 -163v-261h74v-63c-28 -13 -72 -19 -99 -19c-79 0 -81 59 -81 79v244c0 66 -11 97 -79 97c-41 0 -95 -22 -132 -45v-369h-106v413h-70v76h176v-43l5 -1c56 36 114 55 163 55zM361 581c-63 0 -118 39 -157 39l-57 -39l-33 26
c19 53 53 82 94 82c51 0 115 -38 156 -38l56 40l33 -26c-17 -51 -50 -84 -92 -84z" />
    <glyph glyph-name="ograve" unicode="&#xf2;" horiz-adv-x="538" 
d="M498 244c0 -130 -59 -252 -234 -252c-165 0 -224 115 -224 250c0 134 66 257 232 257c169 0 226 -123 226 -255zM389 242c0 82 -19 177 -115 177c-99 0 -124 -90 -124 -177c0 -91 18 -171 121 -171c96 0 118 87 118 171zM278 534l-158 139l63 63l134 -165z" />
    <glyph glyph-name="oacute" unicode="&#xf3;" horiz-adv-x="538" 
d="M498 244c0 -130 -59 -252 -234 -252c-165 0 -224 115 -224 250c0 134 66 257 232 257c169 0 226 -123 226 -255zM389 242c0 82 -19 177 -115 177c-99 0 -124 -90 -124 -177c0 -91 18 -171 121 -171c96 0 118 87 118 171zM411 673l-157 -139l-40 37l133 165z" />
    <glyph glyph-name="ocircumflex" unicode="&#xf4;" horiz-adv-x="538" 
d="M498 244c0 -130 -59 -252 -234 -252c-165 0 -224 115 -224 250c0 134 66 257 232 257c169 0 226 -123 226 -255zM389 242c0 82 -19 177 -115 177c-99 0 -124 -90 -124 -177c0 -91 18 -171 121 -171c96 0 118 87 118 171zM459 565l-29 -34l-159 100l-158 -100l-28 33
l152 146h69z" />
    <glyph glyph-name="otilde" unicode="&#xf5;" horiz-adv-x="538" 
d="M498 244c0 -130 -59 -252 -234 -252c-165 0 -224 115 -224 250c0 134 66 257 232 257c169 0 226 -123 226 -255zM389 242c0 82 -19 177 -115 177c-99 0 -124 -90 -124 -177c0 -91 18 -171 121 -171c96 0 118 87 118 171zM357 568c-63 0 -118 39 -157 39l-57 -39l-33 26
c19 53 53 82 94 82c51 0 115 -38 156 -38l56 40l33 -26c-17 -51 -50 -84 -92 -84z" />
    <glyph glyph-name="odieresis" unicode="&#xf6;" horiz-adv-x="538" 
d="M498 244c0 -130 -59 -252 -234 -252c-165 0 -224 115 -224 250c0 134 66 257 232 257c169 0 226 -123 226 -255zM389 242c0 82 -19 177 -115 177c-99 0 -124 -90 -124 -177c0 -91 18 -171 121 -171c96 0 118 87 118 171zM420 605c0 -28 -23 -50 -54 -50
c-28 0 -49 22 -49 50s23 50 49 50c31 0 54 -21 54 -50zM227 605c0 -28 -22 -50 -52 -50c-29 0 -51 22 -51 50s24 50 50 50c31 0 53 -21 53 -50z" />
    <glyph glyph-name="oslash" unicode="&#xf8;" horiz-adv-x="538" 
d="M271 499c63 0 110 -18 145 -47c12 16 25 30 37 46c15 0 31 1 47 1l-58 -71c40 -48 56 -115 56 -185c0 -130 -59 -250 -235 -250c-62 0 -110 14 -144 42l-34 -41c-17 0 -33 -1 -49 -1l56 67c-38 46 -52 112 -52 182c0 133 66 257 231 257zM387 242c0 34 -4 74 -18 105
c-63 -81 -124 -162 -187 -243c19 -21 47 -35 89 -35c97 0 116 88 116 173zM271 420c-94 0 -122 -88 -122 -172c0 -36 3 -76 17 -106c62 80 124 160 187 240c-18 23 -43 38 -82 38z" />
    <glyph glyph-name="ugrave" unicode="&#xf9;" horiz-adv-x="601" 
d="M238 -11c-124 0 -146 76 -146 156v267h-70v77h177v-326c0 -55 7 -86 71 -86c32 0 86 14 130 55v280h-63v77h170v-413h69v-63c-37 -14 -74 -19 -97 -19c-49 0 -71 15 -76 63c-59 -54 -123 -68 -165 -68zM301 534l-158 139l63 63l134 -165z" />
    <glyph glyph-name="uacute" unicode="&#xfa;" horiz-adv-x="601" 
d="M238 -11c-124 0 -146 76 -146 156v267h-70v77h177v-326c0 -55 7 -86 71 -86c32 0 86 14 130 55v280h-63v77h170v-413h69v-63c-37 -14 -74 -19 -97 -19c-49 0 -71 15 -76 63c-59 -54 -123 -68 -165 -68zM420 673l-157 -139l-40 37l133 165z" />
    <glyph glyph-name="ucircumflex" unicode="&#xfb;" horiz-adv-x="601" 
d="M238 -11c-124 0 -146 76 -146 156v267h-70v77h177v-326c0 -55 7 -86 71 -86c32 0 86 14 130 55v280h-63v77h170v-413h69v-63c-37 -14 -74 -19 -97 -19c-49 0 -71 15 -76 63c-59 -54 -123 -68 -165 -68zM478 565l-29 -34l-159 100l-158 -100l-28 33l152 146h69z" />
    <glyph glyph-name="udieresis" unicode="&#xfc;" horiz-adv-x="601" 
d="M238 -11c-124 0 -146 76 -146 156v267h-70v77h177v-326c0 -55 7 -86 71 -86c32 0 86 14 130 55v280h-63v77h170v-413h69v-63c-37 -14 -74 -19 -97 -19c-49 0 -71 15 -76 63c-59 -54 -123 -68 -165 -68zM437 605c0 -28 -23 -50 -54 -50c-28 0 -49 22 -49 50s23 50 49 50
c31 0 54 -21 54 -50zM244 605c0 -28 -22 -50 -52 -50c-29 0 -51 22 -51 50s24 50 50 50c31 0 53 -21 53 -50z" />
    <glyph glyph-name="yacute" unicode="&#xfd;" horiz-adv-x="561" 
d="M277 70c9 29 98 301 112 342h-59v77h208v-77h-49l-178 -518c-27 -68 -56 -108 -143 -108c-15 0 -60 1 -114 18l16 84c29 -6 56 -10 79 -10c64 0 62 28 102 128h-53c-44 134 -87 269 -131 404h-50v79h129c15 -47 119 -392 126 -419h5zM423 673l-157 -139l-40 37l133 165z
" />
    <glyph glyph-name="thorn" unicode="&#xfe;" horiz-adv-x="568" 
d="M11 -208v71h73v750h-75v73h180v-242s0 -1 1 -1c40 32 99 52 147 52c145 0 191 -110 191 -242c0 -151 -54 -263 -203 -263c-36 0 -95 10 -134 33v-160h78v-71h-258zM191 371v-270c22 -15 73 -32 113 -32c61 0 116 41 116 185c0 127 -47 162 -112 162
c-36 0 -94 -23 -117 -45z" />
    <glyph glyph-name="ydieresis" unicode="&#xff;" horiz-adv-x="561" 
d="M277 70c9 29 98 301 112 342h-59v77h208v-77h-49l-178 -518c-27 -68 -56 -108 -143 -108c-15 0 -60 1 -114 18l16 84c29 -6 56 -10 79 -10c64 0 62 28 102 128h-53c-44 134 -87 269 -131 404h-50v79h129c15 -47 119 -392 126 -419h5zM419 605c0 -28 -23 -50 -54 -50
c-28 0 -49 22 -49 50s23 50 49 50c31 0 54 -21 54 -50zM226 605c0 -28 -22 -50 -52 -50c-29 0 -51 22 -51 50s24 50 50 50c31 0 53 -21 53 -50z" />
    <glyph glyph-name="Amacron" unicode="&#x100;" horiz-adv-x="697" 
d="M444 76h66c-11 35 -25 81 -36 113h-257c-9 -28 -25 -76 -35 -113h68v-76h-230v76h56l207 610h137c65 -198 137 -413 202 -610h56v-76h-234v76zM451 265c-27 90 -55 179 -84 269c-5 20 -12 40 -18 60h-2l-19 -61c-23 -72 -64 -192 -85 -268h208zM186 747v76h338v-76h-338z
" />
    <glyph glyph-name="amacron" unicode="&#x101;" horiz-adv-x="537" 
d="M339 228l-109 -8c-56 -4 -86 -36 -86 -77c0 -52 24 -76 81 -76c36 0 82 21 114 51v110zM442 332v-257h76l6 -60c-27 -15 -85 -21 -112 -21c-39 0 -66 9 -67 61c-1 0 -1 1 -2 1c-71 -64 -136 -65 -165 -65c-117 0 -145 84 -145 141c0 79 54 137 190 146l118 8v29
c0 73 -23 101 -98 101c-48 0 -103 -10 -150 -26c-7 22 -14 45 -20 68c56 25 131 39 195 39c109 0 174 -42 174 -165zM84 588v76h344v-76h-344z" />
    <glyph glyph-name="Abreve" unicode="&#x102;" horiz-adv-x="697" 
d="M444 76h66c-11 35 -25 81 -36 113h-257c-9 -28 -25 -76 -35 -113h68v-76h-230v76h56l207 610h137c65 -198 137 -413 202 -610h56v-76h-234v76zM451 265c-27 90 -55 179 -84 269c-5 20 -12 40 -18 60h-2l-19 -61c-23 -72 -64 -192 -85 -268h208zM347 733
c-74 0 -128 57 -171 119l52 38c38 -52 85 -85 123 -85c24 0 68 4 146 79l32 -31c-60 -89 -127 -120 -182 -120z" />
    <glyph glyph-name="abreve" unicode="&#x103;" horiz-adv-x="537" 
d="M339 228l-109 -8c-56 -4 -86 -36 -86 -77c0 -52 24 -76 81 -76c36 0 82 21 114 51v110zM442 332v-257h76l6 -60c-27 -15 -85 -21 -112 -21c-39 0 -66 9 -67 61c-1 0 -1 1 -2 1c-71 -64 -136 -65 -165 -65c-117 0 -145 84 -145 141c0 79 54 137 190 146l118 8v29
c0 73 -23 101 -98 101c-48 0 -103 -10 -150 -26c-7 22 -14 45 -20 68c56 25 131 39 195 39c109 0 174 -42 174 -165zM261 551c-73 0 -128 57 -171 119l52 39c38 -54 85 -85 122 -85c25 0 69 2 147 78l32 -31c-60 -90 -126 -120 -182 -120z" />
    <glyph glyph-name="Aogonek" unicode="&#x104;" horiz-adv-x="697" 
d="M444 76h66c-11 35 -25 81 -36 113h-257c-9 -28 -25 -76 -35 -113h68v-76h-230v76h56l207 610h137c65 -198 137 -413 202 -610h56v-76h-69c-28 -36 -47 -81 -47 -112c0 -38 22 -50 57 -50c27 0 55 7 74 12l8 -37c-34 -18 -75 -28 -113 -28c-65 0 -100 29 -100 76
c0 34 13 87 71 139h-115v76zM451 265c-27 90 -55 179 -84 269c-5 20 -12 40 -18 60h-2l-19 -61c-23 -72 -64 -192 -85 -268h208z" />
    <glyph glyph-name="aogonek" unicode="&#x105;" horiz-adv-x="537" 
d="M442 332v-257h76l6 -60c-20 -11 -55 -17 -84 -19c-24 -35 -40 -76 -40 -104c0 -38 22 -50 57 -50c27 0 55 7 74 12l8 -37c-34 -18 -75 -28 -113 -28c-65 0 -100 29 -100 76c0 32 12 82 62 131c-26 4 -42 18 -43 59c-1 0 -1 1 -2 1c-71 -64 -136 -65 -165 -65
c-117 0 -145 84 -145 141c0 79 54 137 190 146l118 8v29c0 73 -23 101 -98 101c-48 0 -103 -10 -150 -26c-7 22 -14 45 -20 68c56 25 131 39 195 39c109 0 174 -42 174 -165zM339 228l-109 -8c-56 -4 -86 -36 -86 -77c0 -52 24 -76 81 -76c36 0 82 21 114 51v110z" />
    <glyph glyph-name="Cacute" unicode="&#x106;" horiz-adv-x="593" 
d="M165 341c0 -160 47 -260 215 -260c35 0 109 6 162 22l18 -78c-52 -20 -137 -34 -203 -34c-232 0 -307 148 -307 349c0 153 61 358 314 358c74 0 133 -12 178 -28v-174h-80v105c-31 8 -66 11 -95 11c-143 0 -202 -108 -202 -271zM509 871l-158 -139l-40 38l134 164z" />
    <glyph glyph-name="cacute" unicode="&#x107;" horiz-adv-x="471" 
d="M272 500c54 0 107 -9 149 -26v-137h-76v71c-12 3 -31 5 -43 5c-109 0 -155 -51 -155 -172c0 -114 46 -168 132 -168c49 0 94 10 140 28l23 -70c-45 -25 -111 -39 -176 -39c-176 0 -226 109 -226 247c0 108 40 261 232 261zM390 673l-157 -139l-40 37l133 165z" />
    <glyph glyph-name="Ccircumflex" unicode="&#x108;" horiz-adv-x="593" 
d="M165 341c0 -160 47 -260 215 -260c35 0 109 6 162 22l18 -78c-52 -20 -137 -34 -203 -34c-232 0 -307 148 -307 349c0 153 61 358 314 358c74 0 133 -12 178 -28v-174h-80v105c-31 8 -66 11 -95 11c-143 0 -202 -108 -202 -271zM535 767l-30 -34l-159 99l-158 -100
l-27 33l151 142h69z" />
    <glyph glyph-name="ccircumflex" unicode="&#x109;" horiz-adv-x="471" 
d="M272 500c54 0 107 -9 149 -26v-137h-76v71c-12 3 -31 5 -43 5c-109 0 -155 -51 -155 -172c0 -114 46 -168 132 -168c49 0 94 10 140 28l23 -70c-45 -25 -111 -39 -176 -39c-176 0 -226 109 -226 247c0 108 40 261 232 261zM449 565l-29 -34l-159 100l-158 -100l-28 33
l152 146h69z" />
    <glyph glyph-name="Cdotaccent" unicode="&#x10a;" horiz-adv-x="593" 
d="M165 341c0 -160 47 -260 215 -260c35 0 109 6 162 22l18 -78c-52 -20 -137 -34 -203 -34c-232 0 -307 148 -307 349c0 153 61 358 314 358c74 0 133 -12 178 -28v-174h-80v105c-31 8 -66 11 -95 11c-143 0 -202 -108 -202 -271zM417 827c0 -38 -32 -68 -69 -68
c-38 0 -68 30 -68 68s30 69 68 69c37 0 69 -31 69 -69z" />
    <glyph glyph-name="cdotaccent" unicode="&#x10b;" horiz-adv-x="471" 
d="M272 500c54 0 107 -9 149 -26v-137h-76v71c-12 3 -31 5 -43 5c-109 0 -155 -51 -155 -172c0 -114 46 -168 132 -168c49 0 94 10 140 28l23 -70c-45 -25 -111 -39 -176 -39c-176 0 -226 109 -226 247c0 108 40 261 232 261zM331 628c0 -37 -28 -66 -61 -66
c-34 0 -61 29 -61 66s27 66 61 66c33 0 61 -29 61 -66z" />
    <glyph glyph-name="Ccaron" unicode="&#x10c;" horiz-adv-x="593" 
d="M165 341c0 -160 47 -260 215 -260c35 0 109 6 162 22l18 -78c-52 -20 -137 -34 -203 -34c-232 0 -307 148 -307 349c0 153 61 358 314 358c74 0 133 -12 178 -28v-174h-80v105c-31 8 -66 11 -95 11c-143 0 -202 -108 -202 -271zM506 912l29 -35l-154 -139h-68l-152 141
l27 32l159 -100z" />
    <glyph glyph-name="ccaron" unicode="&#x10d;" horiz-adv-x="471" 
d="M272 500c54 0 107 -9 149 -26v-137h-76v71c-12 3 -31 5 -43 5c-109 0 -155 -51 -155 -172c0 -114 46 -168 132 -168c49 0 94 10 140 28l23 -70c-45 -25 -111 -39 -176 -39c-176 0 -226 109 -226 247c0 108 40 261 232 261zM431 723l28 -34l-153 -144h-69l-152 146l28 33
l158 -100z" />
    <glyph glyph-name="Dcaron" unicode="&#x10e;" horiz-adv-x="692" 
d="M343 0h-301v77h70v530h-66v79h304c231 0 292 -158 292 -341c0 -186 -70 -345 -299 -345zM334 607h-110v-530h106c67 0 197 25 197 262c0 241 -117 268 -193 268zM463 912l29 -35l-154 -139h-68l-152 141l27 32l159 -100z" />
    <glyph glyph-name="dcaron" unicode="&#x10f;" horiz-adv-x="697" 
d="M558 686c0 30 26 56 61 56c40 0 63 -31 62 -68c-1 -55 -39 -107 -94 -134l-25 31c23 20 35 41 36 64c-26 6 -40 25 -40 51zM383 44l-2 1c-41 -33 -102 -53 -150 -53c-145 0 -191 111 -191 243c0 151 54 266 203 266c36 0 89 -7 134 -31v167h-78v76h185v-638h73v-75h-174
v44zM264 419c-61 0 -116 -36 -116 -183c0 -128 47 -163 112 -163c42 0 93 24 117 45v269c-22 15 -73 32 -113 32z" />
    <glyph glyph-name="dcroat" unicode="&#x111;" horiz-adv-x="572" 
d="M381 43l-2 3c-40 -33 -100 -54 -148 -54c-145 0 -191 108 -191 240c0 147 54 253 203 253c36 0 95 -11 134 -35v80h-141v49h141v65h-78v69h185v-134h71v-49h-71v-458h73v-72h-176v43zM264 406c-61 0 -117 -35 -116 -173c1 -129 47 -161 112 -161c36 0 93 23 117 44v257
c-22 16 -73 33 -113 33z" />
    <glyph glyph-name="Emacron" unicode="&#x112;" horiz-adv-x="607" 
d="M577 0h-535v78h68v530h-66v77h519v-179h-81v102h-262v-215l243 5v-79l-243 4v-245h275v105h82v-183zM164 747v76h338v-76h-338z" />
    <glyph glyph-name="emacron" unicode="&#x113;" horiz-adv-x="505" 
d="M264 422c-77 0 -110 -67 -114 -131h218c-2 71 -24 131 -104 131zM265 500c189 0 203 -163 203 -235v-48h-320c-1 -88 29 -146 131 -146c55 0 99 11 152 33l27 -67c-61 -32 -127 -46 -192 -46c-183 0 -226 122 -226 252c0 96 40 257 225 257zM96 588v76h344v-76h-344z" />
    <glyph glyph-name="Ebreve" unicode="&#x114;" horiz-adv-x="607" 
d="M577 0h-535v78h68v530h-66v77h519v-179h-81v102h-262v-215l243 5v-79l-243 4v-245h275v105h82v-183zM325 733c-74 0 -128 57 -171 119l52 38c38 -52 85 -85 123 -85c24 0 68 4 146 79l32 -31c-60 -89 -127 -120 -182 -120z" />
    <glyph glyph-name="ebreve" unicode="&#x115;" horiz-adv-x="505" 
d="M264 422c-77 0 -110 -67 -114 -131h218c-2 71 -24 131 -104 131zM265 500c189 0 203 -163 203 -235v-48h-320c-1 -88 29 -146 131 -146c55 0 99 11 152 33l27 -67c-61 -32 -127 -46 -192 -46c-183 0 -226 122 -226 252c0 96 40 257 225 257zM261 551
c-73 0 -128 57 -171 119l52 39c38 -54 85 -85 122 -85c25 0 69 2 147 78l32 -31c-60 -90 -126 -120 -182 -120z" />
    <glyph glyph-name="Edotaccent" unicode="&#x116;" horiz-adv-x="607" 
d="M577 0h-535v78h68v530h-66v77h519v-179h-81v102h-262v-215l243 5v-79l-243 4v-245h275v105h82v-183zM393 821c0 -38 -32 -68 -69 -68c-38 0 -68 30 -68 68s30 69 68 69c37 0 69 -31 69 -69z" />
    <glyph glyph-name="edotaccent" unicode="&#x117;" horiz-adv-x="505" 
d="M264 422c-77 0 -110 -67 -114 -131h218c-2 71 -24 131 -104 131zM265 500c189 0 203 -163 203 -235v-48h-320c-1 -88 29 -146 131 -146c55 0 99 11 152 33l27 -67c-61 -32 -127 -46 -192 -46c-183 0 -226 122 -226 252c0 96 40 257 225 257zM337 627
c0 -38 -32 -68 -69 -68c-38 0 -68 30 -68 68s30 69 68 69c37 0 69 -31 69 -69z" />
    <glyph glyph-name="Eogonek" unicode="&#x118;" horiz-adv-x="607" 
d="M577 0h-56c-26 -36 -45 -80 -45 -110c0 -38 22 -50 57 -50c27 0 55 7 74 12l8 -37c-34 -18 -75 -28 -113 -28c-65 0 -100 29 -100 76c0 34 13 86 69 137h-429v78h68v530h-66v77h519v-179h-81v102h-262v-215l243 5v-79l-243 4v-245h275v105h82v-183z" />
    <glyph glyph-name="eogonek" unicode="&#x119;" horiz-adv-x="505" 
d="M265 500c189 0 203 -163 203 -235v-48h-320c-1 -88 29 -146 131 -146c55 0 99 11 152 33l27 -67c-18 -9 -35 -17 -53 -23c-21 -32 -35 -69 -35 -95c0 -38 22 -50 57 -50c27 0 55 7 74 12l8 -37c-34 -18 -75 -28 -113 -28c-65 0 -100 29 -100 76c0 27 8 65 39 105
c-23 -4 -46 -6 -69 -6c-183 0 -226 122 -226 252c0 96 40 257 225 257zM264 422c-77 0 -110 -67 -114 -131h218c-2 71 -24 131 -104 131z" />
    <glyph glyph-name="Ecaron" unicode="&#x11a;" horiz-adv-x="607" 
d="M577 0h-535v78h68v530h-66v77h519v-179h-81v102h-262v-215l243 5v-79l-243 4v-245h275v105h82v-183zM494 912l29 -35l-154 -139h-68l-152 141l27 32l159 -100z" />
    <glyph glyph-name="ecaron" unicode="&#x11b;" horiz-adv-x="505" 
d="M264 422c-77 0 -110 -67 -114 -131h218c-2 71 -24 131 -104 131zM265 500c189 0 203 -163 203 -235v-48h-320c-1 -88 29 -146 131 -146c55 0 99 11 152 33l27 -67c-61 -32 -127 -46 -192 -46c-183 0 -226 122 -226 252c0 96 40 257 225 257zM419 723l28 -34l-153 -144
h-69l-152 146l28 33l158 -100z" />
    <glyph glyph-name="Gcircumflex" unicode="&#x11c;" horiz-adv-x="657" 
d="M377 698c74 0 139 -12 184 -28v-171h-80v100c-26 7 -65 12 -100 12c-151 0 -216 -107 -216 -270c0 -153 44 -261 198 -261c32 0 81 5 110 14v192h-99v75h250v-75h-50v-261c-71 -23 -149 -34 -218 -34c-230 0 -306 149 -306 349c0 152 60 358 327 358zM555 767l-30 -34
l-159 99l-158 -100l-27 33l151 142h69z" />
    <glyph glyph-name="gcircumflex" unicode="&#x11d;" horiz-adv-x="540" 
d="M444 430l-3 -2c21 -24 33 -65 33 -102c0 -108 -92 -168 -214 -169h-55c-46 0 -71 -7 -71 -34c0 -20 17 -31 46 -31h132c121 0 193 -49 193 -146c0 -92 -83 -163 -259 -163c-168 0 -216 65 -216 137c0 56 33 98 64 115c-39 8 -59 36 -59 75c0 55 47 76 83 85
c-36 16 -69 56 -69 127c0 129 106 179 208 179c35 0 70 -5 97 -12h165v-59h-75zM293 21h-106c-25 -9 -52 -45 -52 -77c0 -41 24 -81 127 -81c87 0 133 33 133 81c0 37 -25 77 -102 77zM366 327c0 39 -24 97 -106 97c-67 0 -103 -39 -103 -98c0 -58 35 -94 95 -94
c65 0 114 32 114 95zM449 565l-29 -34l-159 100l-158 -100l-28 33l152 146h69z" />
    <glyph glyph-name="Gbreve" unicode="&#x11e;" horiz-adv-x="657" 
d="M377 698c74 0 139 -12 184 -28v-171h-80v100c-26 7 -65 12 -100 12c-151 0 -216 -107 -216 -270c0 -153 44 -261 198 -261c32 0 81 5 110 14v192h-99v75h250v-75h-50v-261c-71 -23 -149 -34 -218 -34c-230 0 -306 149 -306 349c0 152 60 358 327 358zM356 733
c-74 0 -128 57 -171 119l52 38c38 -52 85 -85 123 -85c24 0 68 4 146 79l32 -31c-60 -89 -127 -120 -182 -120z" />
    <glyph glyph-name="gbreve" unicode="&#x11f;" horiz-adv-x="540" 
d="M444 430l-3 -2c21 -24 33 -65 33 -102c0 -108 -92 -168 -214 -169h-55c-46 0 -71 -7 -71 -34c0 -20 17 -31 46 -31h132c121 0 193 -49 193 -146c0 -92 -83 -163 -259 -163c-168 0 -216 65 -216 137c0 56 33 98 64 115c-39 8 -59 36 -59 75c0 55 47 76 83 85
c-36 16 -69 56 -69 127c0 129 106 179 208 179c35 0 70 -5 97 -12h165v-59h-75zM293 21h-106c-25 -9 -52 -45 -52 -77c0 -41 24 -81 127 -81c87 0 133 33 133 81c0 37 -25 77 -102 77zM366 327c0 39 -24 97 -106 97c-67 0 -103 -39 -103 -98c0 -58 35 -94 95 -94
c65 0 114 32 114 95zM255 551c-73 0 -128 57 -171 119l52 39c38 -54 85 -85 122 -85c25 0 69 2 147 78l32 -31c-60 -90 -126 -120 -182 -120z" />
    <glyph glyph-name="Gdotaccent" unicode="&#x120;" horiz-adv-x="657" 
d="M377 698c74 0 139 -12 184 -28v-171h-80v100c-26 7 -65 12 -100 12c-151 0 -216 -107 -216 -270c0 -153 44 -261 198 -261c32 0 81 5 110 14v192h-99v75h250v-75h-50v-261c-71 -23 -149 -34 -218 -34c-230 0 -306 149 -306 349c0 152 60 358 327 358zM449 821
c0 -38 -32 -68 -69 -68c-38 0 -68 30 -68 68s30 69 68 69c37 0 69 -31 69 -69z" />
    <glyph glyph-name="gdotaccent" unicode="&#x121;" horiz-adv-x="540" 
d="M444 430l-3 -2c21 -24 33 -65 33 -102c0 -108 -92 -168 -214 -169h-55c-46 0 -71 -7 -71 -34c0 -20 17 -31 46 -31h132c121 0 193 -49 193 -146c0 -92 -83 -163 -259 -163c-168 0 -216 65 -216 137c0 56 33 98 64 115c-39 8 -59 36 -59 75c0 55 47 76 83 85
c-36 16 -69 56 -69 127c0 129 106 179 208 179c35 0 70 -5 97 -12h165v-59h-75zM293 21h-106c-25 -9 -52 -45 -52 -77c0 -41 24 -81 127 -81c87 0 133 33 133 81c0 37 -25 77 -102 77zM366 327c0 39 -24 97 -106 97c-67 0 -103 -39 -103 -98c0 -58 35 -94 95 -94
c65 0 114 32 114 95zM344 627c0 -38 -32 -68 -69 -68c-38 0 -68 30 -68 68s30 69 68 69c37 0 69 -31 69 -69z" />
    <glyph glyph-name="Gcommaaccent" unicode="&#x122;" horiz-adv-x="657" 
d="M377 698c74 0 139 -12 184 -28v-171h-80v100c-26 7 -65 12 -100 12c-151 0 -216 -107 -216 -270c0 -153 44 -261 198 -261c32 0 81 5 110 14v192h-99v75h250v-75h-50v-261c-71 -23 -149 -34 -218 -34c-230 0 -306 149 -306 349c0 152 60 358 327 358zM300 -96
c0 30 26 56 61 56c40 0 63 -31 62 -68c-1 -55 -39 -107 -94 -134l-25 31c23 20 35 41 36 64c-26 6 -40 25 -40 51z" />
    <glyph glyph-name="gcommaaccent" unicode="&#x123;" horiz-adv-x="540" 
d="M340 602c0 -30 -27 -56 -64 -56c-41 0 -65 30 -65 67v2c2 57 42 107 98 135c9 -11 17 -22 26 -32c-23 -21 -35 -39 -36 -62c26 -6 41 -26 41 -54zM444 430l-3 -2c21 -24 33 -65 33 -102c0 -108 -92 -168 -214 -169h-55c-46 0 -71 -7 -71 -34c0 -20 17 -31 46 -31h132
c121 0 193 -49 193 -146c0 -92 -83 -163 -259 -163c-168 0 -216 65 -216 137c0 56 33 98 64 115c-39 8 -59 36 -59 75c0 55 47 76 83 85c-36 16 -69 56 -69 127c0 129 106 179 208 179c35 0 70 -5 97 -12h165v-59h-75zM293 21h-106c-25 -9 -52 -45 -52 -77
c0 -41 24 -81 127 -81c87 0 133 33 133 81c0 37 -25 77 -102 77zM366 327c0 39 -24 97 -106 97c-67 0 -103 -39 -103 -98c0 -58 35 -94 95 -94c65 0 114 32 114 95z" />
    <glyph glyph-name="Hcircumflex" unicode="&#x124;" horiz-adv-x="739" 
d="M697 0h-240v77h62v244h-301v-244h63v-77h-240v77h67v531h-67v77h240v-77h-63v-213h301v213h-62v77h240v-77h-67v-531h67v-77zM549 767l-30 -34l-159 99l-158 -100l-27 33l151 142h69z" />
    <glyph glyph-name="hcircumflex" unicode="&#x125;" horiz-adv-x="608" 
d="M196 0h-106v637h-70v76h176v-268c55 35 118 55 168 55c141 0 149 -106 149 -163v-261h74v-63c-28 -13 -72 -19 -99 -19c-79 0 -81 69 -81 89v234c0 66 -11 97 -79 97c-41 0 -95 -22 -132 -45v-369zM323 798l-30 -34l-159 99l-158 -100l-27 33l151 142h69z" />
    <glyph glyph-name="Hbar" unicode="&#x126;" horiz-adv-x="739" 
d="M697 0h-240v76h62v242h-301v-242h63v-76h-240v76h67v393h-68v51h68v91h-67v74h240v-74h-63v-91h301v91h-62v74h240v-74h-67v-91h67v-51h-67v-393h67v-76zM218 384h301v85h-301v-85z" />
    <glyph glyph-name="hbar" unicode="&#x127;" horiz-adv-x="608" 
d="M90 513h-68v52h68v81h-70v67h177v-148h175v-52h-175v-105c54 36 119 56 168 56c131 0 150 -82 150 -162v-225h69v-64c-30 -13 -68 -20 -95 -20c-56 0 -80 21 -80 79v206c0 63 -10 100 -80 100c-40 0 -95 -21 -132 -43v-335h-107v513z" />
    <glyph glyph-name="Itilde" unicode="&#x128;" horiz-adv-x="381" 
d="M311 0h-241v77h65v531h-65v78h241v-78h-66v-531h66v-77zM271 752c-63 0 -118 39 -157 39l-57 -39l-33 26c19 53 53 82 94 82c51 0 115 -38 156 -38l56 40l33 -26c-17 -51 -50 -84 -92 -84z" />
    <glyph glyph-name="itilde" unicode="&#x129;" horiz-adv-x="315" 
d="M105 417h-56v72h161v-412h72v-64c-28 -13 -70 -20 -96 -20c-57 0 -80 21 -81 79v345zM219 574c-63 0 -118 39 -157 39l-57 -39l-33 26c19 53 53 82 94 82c51 0 115 -38 156 -38l56 40l33 -26c-17 -51 -50 -84 -92 -84z" />
    <glyph glyph-name="Imacron" unicode="&#x12a;" horiz-adv-x="381" 
d="M311 0h-241v77h65v531h-65v78h241v-78h-66v-531h66v-77zM23 747v76h338v-76h-338z" />
    <glyph glyph-name="imacron" unicode="&#x12b;" horiz-adv-x="326" 
d="M105 417h-56v72h161v-412h72v-64c-28 -13 -70 -20 -96 -20c-57 0 -80 21 -81 79v345zM-28 588v76h344v-76h-344z" />
    <glyph glyph-name="Ibreve" unicode="&#x12c;" horiz-adv-x="381" 
d="M188 736c-74 0 -128 57 -171 119l52 38c38 -52 85 -85 123 -85c24 0 68 4 146 79l32 -31c-60 -89 -127 -120 -182 -120zM311 0h-241v77h65v531h-65v78h241v-78h-66v-531h66v-77z" />
    <glyph glyph-name="ibreve" unicode="&#x12d;" horiz-adv-x="325" 
d="M105 417h-56v72h161v-412h72v-64c-28 -13 -70 -20 -96 -20c-57 0 -80 21 -81 79v345zM143 551c-73 0 -128 57 -171 119l52 39c38 -54 85 -85 122 -85c25 0 69 2 147 78l32 -31c-60 -90 -126 -120 -182 -120z" />
    <glyph glyph-name="Iogonek" unicode="&#x12e;" horiz-adv-x="381" 
d="M311 0h-98c-26 -36 -44 -79 -44 -109c0 -38 22 -50 57 -50c27 0 55 7 74 12l8 -37c-34 -18 -75 -28 -113 -28c-65 0 -100 29 -100 76c0 34 13 85 68 136h-93v77h65v531h-65v78h241v-78h-66v-531h66v-77z" />
    <glyph glyph-name="iogonek" unicode="&#x12f;" horiz-adv-x="315" 
d="M104 412h-51v76h157v-411h72v-64c-16 -8 -37 -13 -57 -16c-23 -34 -38 -73 -38 -100c0 -38 22 -50 57 -50c27 0 55 7 74 12l8 -37c-34 -18 -75 -28 -113 -28c-65 0 -100 29 -100 76c0 31 11 77 55 124c-44 4 -63 26 -64 78v340zM220 625c0 -36 -30 -66 -67 -66
c-36 0 -65 30 -65 66c0 37 29 66 65 66c37 0 67 -29 67 -66z" />
    <glyph glyph-name="Idotaccent" unicode="&#x130;" horiz-adv-x="381" 
d="M311 0h-241v77h65v531h-65v78h241v-78h-66v-531h66v-77zM271 819c0 -38 -32 -68 -69 -68c-38 0 -68 30 -68 68s30 69 68 69c37 0 69 -31 69 -69z" />
    <glyph glyph-name="dotlessi" unicode="&#x131;" horiz-adv-x="315" 
d="M105 417h-56v72h161v-412h72v-64c-28 -13 -70 -20 -96 -20c-57 0 -80 21 -81 79v345z" />
    <glyph glyph-name="IJ" unicode="&#x132;" horiz-adv-x="762" 
d="M311 0h-241v77h65v531h-65v78h241v-78h-66v-531h66v-77zM434 608v78h275v-78h-77l-1 -463c0 -179 -90 -274 -257 -323l-29 71c145 78 176 134 176 255v460h-87z" />
    <glyph glyph-name="ij" unicode="&#x133;" horiz-adv-x="606" 
d="M104 412h-51v76h157v-411h72v-64c-28 -13 -70 -20 -96 -20c-57 0 -81 21 -82 79v340zM220 625c0 -36 -30 -66 -67 -66c-36 0 -65 30 -65 66c0 37 29 66 65 66c37 0 67 -29 67 -66zM343 412v76h172v-447c0 -147 -49 -219 -198 -271l-32 68c107 63 124 107 124 196v378h-66
zM525 625c0 -36 -31 -66 -66 -66c-37 0 -66 30 -66 66c0 37 29 66 66 66c35 0 66 -29 66 -66z" />
    <glyph glyph-name="Jcircumflex" unicode="&#x134;" horiz-adv-x="393" 
d="M65 609v78h275v-78h-77l-1 -463c0 -179 -90 -274 -257 -323l-29 71c145 78 176 134 176 255v460h-87zM395 767l-30 -34l-159 99l-158 -100l-27 33l151 142h69z" />
    <glyph glyph-name="jcircumflex" unicode="&#x135;" horiz-adv-x="300" 
d="M37 417v72h172v-453c0 -147 -48 -210 -198 -257l-27 66c101 57 119 89 119 182v390h-66zM320 568l-28 -35l-160 101l-158 -100l-28 33l152 145h69z" />
    <glyph glyph-name="Kcommaaccent" unicode="&#x136;" horiz-adv-x="681" 
d="M582 610l-207 -194l228 -339h58v-77h-245l-1 77h63l-182 272l-80 -76v-197h63v-76h-237v76h66v535h-66v74h238v-74h-64v-239l250 238h-63v75h237v-75h-58zM285 -96c0 30 26 56 61 56c40 0 63 -31 62 -68c-1 -55 -39 -107 -94 -134l-25 31c23 20 35 41 36 64
c-26 6 -40 25 -40 51z" />
    <glyph glyph-name="kcommaaccent" unicode="&#x137;" horiz-adv-x="555" 
d="M303 416v72h212v-72h-45l-131 -112l142 -232l64 -9v-57c-25 -9 -59 -13 -80 -13c-27 0 -52 4 -72 37l-129 217c-23 -19 -43 -37 -65 -56v-120h62v-71h-236v71h68v569h-75v71h181v-422l148 127h-44zM255 -96c0 30 26 56 61 56c40 0 63 -31 62 -68
c-1 -55 -39 -107 -94 -134l-25 31c23 20 35 41 36 64c-26 6 -40 25 -40 51z" />
    <glyph glyph-name="kgreenlandic" unicode="&#x138;" horiz-adv-x="555" 
d="M303 416v72h212v-72h-45l-131 -112l142 -232l64 -9v-57c-25 -9 -59 -13 -80 -13c-27 0 -52 4 -72 37l-129 217c-23 -19 -43 -37 -65 -56v-120h62v-71h-236v71h68v345h-75v71h181v-198l148 127h-44z" />
    <glyph glyph-name="Lacute" unicode="&#x139;" horiz-adv-x="591" 
d="M582 0h-540v77h68v531h-66v77h249v-77h-72v-531h279v122h82v-199zM333 871l-158 -139l-40 38l134 164z" />
    <glyph glyph-name="lacute" unicode="&#x13a;" horiz-adv-x="320" 
d="M218 713v-638h69v-75h-243v75h68v562h-75v76h181zM314 881l-158 -139l-40 38l134 164z" />
    <glyph glyph-name="Lcommaaccent" unicode="&#x13b;" horiz-adv-x="591" 
d="M582 0h-540v77h68v531h-66v77h249v-77h-72v-531h279v122h82v-199zM239 -96c0 30 26 56 61 56c40 0 63 -31 62 -68c-1 -55 -39 -107 -94 -134l-25 31c23 20 35 41 36 64c-26 6 -40 25 -40 51z" />
    <glyph glyph-name="lcommaaccent" unicode="&#x13c;" horiz-adv-x="320" 
d="M218 713v-638h69v-75h-243v75h68v562h-75v76h181zM109 -96c0 30 26 56 61 56c40 0 63 -31 62 -68c-1 -55 -39 -107 -94 -134l-25 31c23 20 35 41 36 64c-26 6 -40 25 -40 51z" />
    <glyph glyph-name="Lcaron" unicode="&#x13d;" horiz-adv-x="591" 
d="M582 0h-540v77h68v531h-66v77h249v-77h-72v-531h279v122h82v-199zM410 625c0 30 26 56 61 56c40 0 63 -31 62 -68c-1 -55 -39 -107 -94 -134l-25 31c23 20 35 41 36 64c-26 6 -40 25 -40 51z" />
    <glyph glyph-name="lcaron" unicode="&#x13e;" horiz-adv-x="437" 
d="M295 662c0 30 26 56 61 56c40 0 63 -31 62 -68c-1 -55 -39 -107 -94 -134l-25 31c23 20 35 41 36 64c-26 6 -40 25 -40 51zM218 713v-638h69v-75h-243v75h68v562h-75v76h181z" />
    <glyph glyph-name="Ldot" unicode="&#x13f;" horiz-adv-x="591" 
d="M582 0h-540v77h68v531h-66v77h249v-77h-72v-531h279v122h82v-199zM504 398c0 -38 -32 -68 -69 -68c-38 0 -68 30 -68 68s30 69 68 69c37 0 69 -31 69 -69z" />
    <glyph glyph-name="ldot" unicode="&#x140;" horiz-adv-x="437" 
d="M426 359c0 -38 -32 -68 -69 -68c-38 0 -68 30 -68 68s30 69 68 69c37 0 69 -31 69 -69zM218 713v-638h69v-75h-243v75h68v562h-75v76h181z" />
    <glyph glyph-name="Lslash" unicode="&#x141;" horiz-adv-x="584" 
d="M571 0h-529v75h68v158l-65 -38l-31 48l96 56v312h-66v74h249v-74h-72v-249l115 66l30 -47l-145 -83v-223h268v124h82v-199z" />
    <glyph glyph-name="lslash" unicode="&#x142;" horiz-adv-x="320" 
d="M217 347v-276h69v-71h-242v71h68v215l-83 -48l-29 48c37 21 74 43 112 64v290h-77v73h182v-301l88 50c10 -16 19 -32 29 -47c-39 -23 -78 -46 -117 -68z" />
    <glyph glyph-name="Nacute" unicode="&#x143;" horiz-adv-x="770" 
d="M553 169h5v439h-69v77h238v-77h-66v-608h-106l-160 246c-40 61 -81 124 -121 187c-20 32 -40 65 -61 97c-1 0 -1 -1 -2 -1v-453h68c0 -25 1 -51 1 -76h-240c0 25 -1 51 -1 76h69c0 178 1 354 1 532h-69v77h186c63 -100 110 -174 148 -232l111 -175c23 -36 46 -72 68 -109
zM541 871l-158 -139l-40 38l134 164z" />
    <glyph glyph-name="nacute" unicode="&#x144;" horiz-adv-x="611" 
d="M365 500c141 0 149 -106 149 -163v-261h74v-63c-28 -13 -72 -19 -99 -19c-79 0 -81 59 -81 79v244c0 66 -11 97 -79 97c-41 0 -95 -22 -132 -45v-369h-106v413h-70v76h176v-43l5 -1c56 36 114 55 163 55zM407 673l-157 -139l-40 37l133 165z" />
    <glyph glyph-name="Ncommaaccent" unicode="&#x145;" horiz-adv-x="770" 
d="M553 169h5v439h-69v77h238v-77h-66v-608h-106l-160 246c-40 61 -81 124 -121 187c-20 32 -40 65 -61 97c-1 0 -1 -1 -2 -1v-453h68c0 -25 1 -51 1 -76h-240c0 25 -1 51 -1 76h69c0 178 1 354 1 532h-69v77h186c63 -100 110 -174 148 -232l111 -175c23 -36 46 -72 68 -109
zM329 -96c0 30 26 56 61 56c40 0 63 -31 62 -68c-1 -55 -39 -107 -94 -134l-25 31c23 20 35 41 36 64c-26 6 -40 25 -40 51z" />
    <glyph glyph-name="ncommaaccent" unicode="&#x146;" horiz-adv-x="611" 
d="M365 500c141 0 149 -106 149 -163v-261h74v-63c-28 -13 -72 -19 -99 -19c-79 0 -81 59 -81 79v244c0 66 -11 97 -79 97c-41 0 -95 -22 -132 -45v-369h-106v413h-70v76h176v-43l5 -1c56 36 114 55 163 55zM256 -96c0 30 26 56 61 56c40 0 63 -31 62 -68
c-1 -55 -39 -107 -94 -134l-25 31c23 20 35 41 36 64c-26 6 -40 25 -40 51z" />
    <glyph glyph-name="Ncaron" unicode="&#x147;" horiz-adv-x="770" 
d="M553 169h5v439h-69v77h238v-77h-66v-608h-106l-160 246c-40 61 -81 124 -121 187c-20 32 -40 65 -61 97c-1 0 -1 -1 -2 -1v-453h68c0 -25 1 -51 1 -76h-240c0 25 -1 51 -1 76h69c0 178 1 354 1 532h-69v77h186c63 -100 110 -174 148 -232l111 -175c23 -36 46 -72 68 -109
zM533 912l29 -35l-154 -139h-68l-152 141l27 32l159 -100z" />
    <glyph glyph-name="ncaron" unicode="&#x148;" horiz-adv-x="611" 
d="M365 500c141 0 149 -106 149 -163v-261h74v-63c-28 -13 -72 -19 -99 -19c-79 0 -81 59 -81 79v244c0 66 -11 97 -79 97c-41 0 -95 -22 -132 -45v-369h-106v413h-70v76h176v-43l5 -1c56 36 114 55 163 55zM434 723l28 -34l-153 -144h-69l-152 146l28 33l158 -100z" />
    <glyph glyph-name="napostrophe" unicode="&#x149;" horiz-adv-x="749" 
d="M503 500c141 0 149 -106 149 -163v-261h74v-63c-28 -13 -72 -19 -99 -19c-79 0 -81 59 -81 79v244c0 66 -11 97 -79 97c-41 0 -95 -22 -132 -45v-369h-106v413h-70v76h176v-43l5 -1c56 36 114 55 163 55zM10 619c0 30 26 56 61 56c40 0 63 -31 62 -68
c-1 -55 -39 -107 -94 -134l-25 31c23 20 35 41 36 64c-26 6 -40 25 -40 51z" />
    <glyph glyph-name="Eng" unicode="&#x14a;" horiz-adv-x="770" 
d="M403 -111c23 -2 48 -5 69 -5c45 0 89 18 89 74v42c-54 83 -230 360 -348 537h-2v-462h69v-75h-240v75h69v535h-69v75h182c52 -78 290 -445 331 -516h5v441h-69v75h238v-75h-66v-549c0 -39 0 -75 -2 -114c-4 -93 -62 -145 -171 -145c-28 0 -67 4 -96 11z" />
    <glyph glyph-name="eng" unicode="&#x14b;" horiz-adv-x="577" 
d="M366 500c132 0 151 -81 151 -162v-284c0 -136 -15 -221 -175 -221c-27 0 -68 3 -97 10l11 79c21 -1 44 -4 66 -4c48 0 89 13 89 80v316c0 66 -16 102 -80 102c-41 0 -95 -22 -132 -44v-372h-107v417h-70v72h176v-42l3 -2c54 35 118 55 165 55z" />
    <glyph glyph-name="Omacron" unicode="&#x14c;" horiz-adv-x="705" 
d="M655 342c0 -200 -101 -351 -299 -351c-217 0 -306 138 -306 348c0 193 85 358 306 358c225 0 299 -166 299 -355zM539 339c0 132 -30 275 -183 275s-191 -134 -191 -276c0 -172 55 -264 191 -264c127 0 183 115 183 265zM192 747v76h338v-76h-338z" />
    <glyph glyph-name="omacron" unicode="&#x14d;" horiz-adv-x="538" 
d="M498 244c0 -130 -59 -252 -234 -252c-165 0 -224 115 -224 250c0 134 66 257 232 257c169 0 226 -123 226 -255zM389 242c0 82 -19 177 -115 177c-99 0 -124 -90 -124 -177c0 -91 18 -171 121 -171c96 0 118 87 118 171zM97 588v76h344v-76h-344z" />
    <glyph glyph-name="Obreve" unicode="&#x14e;" horiz-adv-x="705" 
d="M655 342c0 -200 -101 -351 -299 -351c-217 0 -306 138 -306 348c0 193 85 358 306 358c225 0 299 -166 299 -355zM539 339c0 132 -30 275 -183 275s-191 -134 -191 -276c0 -172 55 -264 191 -264c127 0 183 115 183 265zM346 733c-74 0 -128 57 -171 119l52 38
c38 -52 85 -85 123 -85c24 0 68 4 146 79l32 -31c-60 -89 -127 -120 -182 -120z" />
    <glyph glyph-name="obreve" unicode="&#x14f;" horiz-adv-x="538" 
d="M498 244c0 -130 -59 -252 -234 -252c-165 0 -224 115 -224 250c0 134 66 257 232 257c169 0 226 -123 226 -255zM389 242c0 82 -19 177 -115 177c-99 0 -124 -90 -124 -177c0 -91 18 -171 121 -171c96 0 118 87 118 171zM267 551c-73 0 -128 57 -171 119l52 39
c38 -54 85 -85 122 -85c25 0 69 2 147 78l32 -31c-60 -90 -126 -120 -182 -120z" />
    <glyph glyph-name="Ohungarumlaut" unicode="&#x150;" horiz-adv-x="705" 
d="M655 342c0 -200 -101 -351 -299 -351c-217 0 -306 138 -306 348c0 193 85 358 306 358c225 0 299 -166 299 -355zM539 339c0 132 -30 275 -183 275s-191 -134 -191 -276c0 -172 55 -264 191 -264c127 0 183 115 183 265zM449 886l-148 -152l-44 34l123 174zM587 886
l-149 -152l-43 34l122 174z" />
    <glyph glyph-name="ohungarumlaut" unicode="&#x151;" horiz-adv-x="538" 
d="M498 244c0 -130 -59 -252 -234 -252c-165 0 -224 115 -224 250c0 134 66 257 232 257c169 0 226 -123 226 -255zM389 242c0 82 -19 177 -115 177c-99 0 -124 -90 -124 -177c0 -91 18 -171 121 -171c96 0 118 87 118 171zM337 684l-150 -151l-43 33l123 175zM477 684
l-149 -151l-43 33l122 175z" />
    <glyph glyph-name="Racute" unicode="&#x154;" horiz-adv-x="648" 
d="M460 491c0 86 -57 117 -122 117h-121v-239h121c54 0 122 22 122 122zM352 294h-135v-216h77v-78h-251v78h64v530h-64v78h313c139 0 219 -69 219 -194c0 -64 -30 -152 -124 -181l108 -236l74 -10v-60c-27 -11 -67 -16 -90 -16c-48 0 -66 22 -84 62zM436 871l-158 -139
l-40 38l134 164z" />
    <glyph glyph-name="racute" unicode="&#x155;" horiz-adv-x="416" 
d="M205 420l3 -1c40 34 116 82 178 82c19 0 28 -9 28 -34c0 -26 -11 -70 -33 -94l-174 -1v-297h73v-75h-248v75h68v338h-66v76h171v-69zM345 673l-157 -139l-40 37l133 165z" />
    <glyph glyph-name="Rcommaaccent" unicode="&#x156;" horiz-adv-x="648" 
d="M460 491c0 86 -57 117 -122 117h-121v-239h121c54 0 122 22 122 122zM352 294h-135v-216h77v-78h-251v78h64v530h-64v78h313c139 0 219 -69 219 -194c0 -64 -30 -152 -124 -181l108 -236l74 -10v-60c-27 -11 -67 -16 -90 -16c-48 0 -66 22 -84 62zM264 -96
c0 30 26 56 61 56c40 0 63 -31 62 -68c-1 -55 -39 -107 -94 -134l-25 31c23 20 35 41 36 64c-26 6 -40 25 -40 51z" />
    <glyph glyph-name="rcommaaccent" unicode="&#x157;" horiz-adv-x="416" 
d="M205 420l3 -1c40 34 116 82 178 82c19 0 28 -9 28 -34c0 -26 -11 -70 -33 -94l-174 -1v-297h73v-75h-248v75h68v338h-66v76h171v-69zM99 -96c0 30 26 56 61 56c40 0 63 -31 62 -68c-1 -55 -39 -107 -94 -134l-25 31c23 20 35 41 36 64c-26 6 -40 25 -40 51z" />
    <glyph glyph-name="Rcaron" unicode="&#x158;" horiz-adv-x="648" 
d="M460 491c0 86 -57 117 -122 117h-121v-239h121c54 0 122 22 122 122zM352 294h-135v-216h77v-78h-251v78h64v530h-64v78h313c139 0 219 -69 219 -194c0 -64 -30 -152 -124 -181l108 -236l74 -10v-60c-27 -11 -67 -16 -90 -16c-48 0 -66 22 -84 62zM467 912l29 -35
l-154 -139h-68l-152 141l27 32l159 -100z" />
    <glyph glyph-name="rcaron" unicode="&#x159;" horiz-adv-x="416" 
d="M205 420l3 -1c40 34 116 82 178 82c19 0 28 -9 28 -34c0 -26 -11 -70 -33 -94l-174 -1v-297h73v-75h-248v75h68v338h-66v76h171v-69zM356 723l28 -34l-153 -144h-69l-152 146l28 33l158 -100z" />
    <glyph glyph-name="Sacute" unicode="&#x15a;" horiz-adv-x="575" 
d="M37 187h80l1 -82c49 -23 102 -30 146 -30c104 0 154 57 154 113c0 82 -65 94 -152 119c-122 28 -221 73 -221 188c4 131 106 200 242 200c60 0 142 -9 201 -42l1 -143h-81l-1 83c-30 13 -83 18 -119 18c-69 0 -129 -36 -129 -103c0 -63 73 -91 152 -111
c111 -27 226 -63 226 -204s-109 -202 -266 -202c-77 0 -163 13 -233 50c0 48 -1 97 -1 146zM440 869l-158 -139l-40 38l134 164z" />
    <glyph glyph-name="sacute" unicode="&#x15b;" horiz-adv-x="464" 
d="M30 149h77l3 -62c26 -14 68 -20 99 -20c60 0 108 17 108 65s-43 62 -95 77c-90 26 -184 48 -184 146c0 101 81 144 193 144c57 0 117 -11 161 -37c0 -39 1 -78 2 -118h-79l-2 65c-22 9 -49 14 -75 14c-50 0 -91 -18 -91 -64c0 -39 58 -55 94 -65c81 -23 186 -43 186 -162
c0 -96 -84 -140 -210 -140c-57 0 -132 8 -185 38zM354 673l-157 -139l-40 37l133 165z" />
    <glyph glyph-name="Scircumflex" unicode="&#x15c;" horiz-adv-x="575" 
d="M37 187h80l1 -82c49 -23 102 -30 146 -30c104 0 154 57 154 113c0 82 -65 94 -152 119c-122 28 -221 73 -221 188c4 131 106 200 242 200c60 0 142 -9 201 -42l1 -143h-81l-1 83c-30 13 -83 18 -119 18c-69 0 -129 -36 -129 -103c0 -63 73 -91 152 -111
c111 -27 226 -63 226 -204s-109 -202 -266 -202c-77 0 -163 13 -233 50c0 48 -1 97 -1 146zM481 767l-30 -34l-159 99l-158 -100l-27 33l151 142h69z" />
    <glyph glyph-name="scircumflex" unicode="&#x15d;" horiz-adv-x="464" 
d="M30 149h77l3 -62c26 -14 68 -20 99 -20c60 0 108 17 108 65s-43 62 -95 77c-90 26 -184 48 -184 146c0 101 81 144 193 144c57 0 117 -11 161 -37c0 -39 1 -78 2 -118h-79l-2 65c-22 9 -49 14 -75 14c-50 0 -91 -18 -91 -64c0 -39 58 -55 94 -65c81 -23 186 -43 186 -162
c0 -96 -84 -140 -210 -140c-57 0 -132 8 -185 38zM411 565l-29 -34l-159 100l-158 -100l-28 33l152 146h69z" />
    <glyph glyph-name="Scedilla" unicode="&#x15e;" horiz-adv-x="575" 
d="M37 187h80l1 -82c49 -23 102 -30 146 -30c104 0 154 57 154 113c0 82 -65 94 -152 119c-122 28 -221 73 -221 188c4 131 106 200 242 200c60 0 142 -9 201 -42l1 -143h-81l-1 83c-30 13 -83 18 -119 18c-69 0 -129 -36 -129 -103c0 -63 73 -91 152 -111
c111 -27 226 -63 226 -204c0 -133 -97 -194 -239 -201c-13 -17 -27 -35 -39 -53c65 -3 108 -30 108 -84c-2 -55 -59 -102 -184 -102v41c71 7 116 25 116 57c0 35 -52 39 -98 39l-14 21c20 27 40 54 61 80c-71 3 -147 16 -210 50c0 48 -1 97 -1 146z" />
    <glyph glyph-name="scedilla" unicode="&#x15f;" horiz-adv-x="464" 
d="M30 149h77l3 -62c26 -14 68 -20 99 -20c60 0 108 17 108 65s-43 62 -95 77c-90 26 -184 48 -184 146c0 101 81 144 193 144c57 0 117 -11 161 -37c0 -39 1 -78 2 -118h-79l-2 65c-22 9 -49 14 -75 14c-50 0 -91 -18 -91 -64c0 -39 58 -55 94 -65c81 -23 186 -43 186 -162
c0 -86 -67 -130 -171 -138c-14 -18 -28 -36 -41 -55c65 -3 108 -30 108 -84c-2 -55 -59 -102 -184 -102v41c71 7 116 25 116 57c0 35 -52 39 -98 39l-14 21c21 27 41 55 61 81c-55 1 -123 10 -172 38z" />
    <glyph glyph-name="Tcommaaccent" unicode="&#x162;" horiz-adv-x="587" 
d="M431 0h-273v77h82v531h-145v-109h-80v187h558v-187h-81v109h-143v-531h82v-77zM238 -96c0 30 26 56 61 56c40 0 63 -31 62 -68c-1 -55 -39 -107 -94 -134l-25 31c23 20 35 41 36 64c-26 6 -40 25 -40 51z" />
    <glyph glyph-name="tcommaaccent" unicode="&#x163;" horiz-adv-x="391" 
d="M123 609l71 9v-129h145v-76h-146v-255c0 -50 9 -79 67 -79c22 0 53 4 90 14l16 -72c-38 -17 -90 -27 -131 -27c-113 0 -147 51 -147 130v289h-70v60l75 23zM154 -96c0 30 26 56 61 56c40 0 63 -31 62 -68c-1 -55 -39 -107 -94 -134l-25 31c23 20 35 41 36 64
c-26 6 -40 25 -40 51z" />
    <glyph glyph-name="Tcaron" unicode="&#x164;" horiz-adv-x="587" 
d="M431 0h-273v77h82v531h-145v-109h-80v187h558v-187h-81v109h-143v-531h82v-77zM456 912l29 -35l-154 -139h-68l-152 141l27 32l159 -100z" />
    <glyph glyph-name="tcaron" unicode="&#x165;" horiz-adv-x="483" 
d="M341 651c0 30 26 56 61 56c40 0 63 -31 62 -68c-1 -55 -39 -107 -94 -134l-25 31c23 20 35 41 36 64c-26 6 -40 25 -40 51zM123 609l71 9v-129h145v-76h-146v-255c0 -50 9 -79 67 -79c22 0 53 4 90 14l16 -72c-38 -17 -90 -27 -131 -27c-113 0 -147 51 -147 130v289h-70
v60l75 23z" />
    <glyph glyph-name="Tbar" unicode="&#x166;" horiz-adv-x="587" 
d="M431 0h-273v75h82v255h-152v58h152v223h-143v-106h-80v181h553v-181h-80v106h-141v-223h147v-58h-147v-255h82v-75z" />
    <glyph glyph-name="tbar" unicode="&#x167;" horiz-adv-x="391" 
d="M123 609l71 9v-129h145v-76h-146v-73h140v-57h-140v-125c0 -50 9 -79 67 -79c22 0 53 4 90 14l16 -72c-38 -17 -90 -27 -131 -27c-113 0 -147 51 -147 130v159h-68v57h68v73h-70v60l75 23z" />
    <glyph glyph-name="Utilde" unicode="&#x168;" horiz-adv-x="728" 
d="M635 608v-359c0 -157 -86 -257 -272 -257c-193 0 -272 96 -272 257v359h-59v78h235v-78h-68v-358c0 -117 59 -174 165 -174c103 0 164 55 164 174v358h-67v78h235v-78h-61zM439 757c-63 0 -118 39 -157 39l-57 -39l-33 26c19 53 53 82 94 82c51 0 115 -38 156 -38l56 40
l33 -26c-17 -51 -50 -84 -92 -84z" />
    <glyph glyph-name="utilde" unicode="&#x169;" horiz-adv-x="601" 
d="M238 -11c-124 0 -146 76 -146 156v267h-70v77h177v-326c0 -55 7 -86 71 -86c32 0 86 14 130 55v280h-63v77h170v-413h69v-63c-37 -14 -74 -19 -97 -19c-49 0 -71 15 -76 63c-59 -54 -123 -68 -165 -68zM378 568c-63 0 -118 39 -157 39l-57 -39l-33 26c19 53 53 82 94 82
c51 0 115 -38 156 -38l56 40l33 -26c-17 -51 -50 -84 -92 -84z" />
    <glyph glyph-name="Umacron" unicode="&#x16a;" horiz-adv-x="728" 
d="M635 608v-359c0 -157 -86 -257 -272 -257c-193 0 -272 96 -272 257v359h-59v78h235v-78h-68v-358c0 -117 59 -174 165 -174c103 0 164 55 164 174v358h-67v78h235v-78h-61zM200 747v76h338v-76h-338z" />
    <glyph glyph-name="umacron" unicode="&#x16b;" horiz-adv-x="601" 
d="M238 -11c-124 0 -146 76 -146 156v267h-70v77h177v-326c0 -55 7 -86 71 -86c32 0 86 14 130 55v280h-63v77h170v-413h69v-63c-37 -14 -74 -19 -97 -19c-49 0 -71 15 -76 63c-59 -54 -123 -68 -165 -68zM121 588v76h344v-76h-344z" />
    <glyph glyph-name="Ubreve" unicode="&#x16c;" horiz-adv-x="728" 
d="M635 608v-359c0 -157 -86 -257 -272 -257c-193 0 -272 96 -272 257v359h-59v78h235v-78h-68v-358c0 -117 59 -174 165 -174c103 0 164 55 164 174v358h-67v78h235v-78h-61zM358 728c-73 0 -128 57 -171 119l52 39c38 -54 85 -85 122 -85c25 0 69 2 147 78l32 -31
c-60 -90 -126 -120 -182 -120z" />
    <glyph glyph-name="ubreve" unicode="&#x16d;" horiz-adv-x="601" 
d="M238 -11c-124 0 -146 76 -146 156v267h-70v77h177v-326c0 -55 7 -86 71 -86c32 0 86 14 130 55v280h-63v77h170v-413h69v-63c-37 -14 -74 -19 -97 -19c-49 0 -71 15 -76 63c-59 -54 -123 -68 -165 -68zM283 551c-73 0 -128 57 -171 119l52 39c38 -54 85 -85 122 -85
c25 0 69 2 147 78l32 -31c-60 -90 -126 -120 -182 -120z" />
    <glyph glyph-name="Uring" unicode="&#x16e;" horiz-adv-x="728" 
d="M635 608v-359c0 -157 -86 -257 -272 -257c-193 0 -272 96 -272 257v359h-59v78h235v-78h-68v-358c0 -117 59 -174 165 -174c103 0 164 55 164 174v358h-67v78h235v-78h-61zM366 712c-65 0 -116 50 -116 111c0 59 51 111 116 111c64 0 112 -51 112 -111
c0 -63 -50 -111 -112 -111zM366 879c-33 0 -59 -27 -59 -59c0 -29 24 -56 59 -56c31 0 55 27 55 56c0 31 -23 59 -55 59z" />
    <glyph glyph-name="uring" unicode="&#x16f;" horiz-adv-x="601" 
d="M238 -11c-124 0 -146 76 -146 156v267h-70v77h177v-326c0 -55 7 -86 71 -86c32 0 86 14 130 55v280h-63v77h170v-413h69v-63c-37 -14 -74 -19 -97 -19c-49 0 -71 15 -76 63c-59 -54 -123 -68 -165 -68zM286 550c-65 0 -116 50 -116 111c0 59 51 111 116 111
c64 0 112 -51 112 -111c0 -63 -50 -111 -112 -111zM286 717c-33 0 -59 -27 -59 -59c0 -29 24 -56 59 -56c31 0 55 27 55 56c0 31 -23 59 -55 59z" />
    <glyph glyph-name="Uhungarumlaut" unicode="&#x170;" horiz-adv-x="728" 
d="M635 608v-359c0 -157 -86 -257 -272 -257c-193 0 -272 96 -272 257v359h-59v78h235v-78h-68v-358c0 -117 59 -174 165 -174c103 0 164 55 164 174v358h-67v78h235v-78h-61zM456 886l-148 -152l-44 34l123 174zM594 886l-149 -152l-43 34l122 174z" />
    <glyph glyph-name="uhungarumlaut" unicode="&#x171;" horiz-adv-x="601" 
d="M238 -11c-124 0 -146 76 -146 156v267h-70v77h177v-326c0 -55 7 -86 71 -86c32 0 86 14 130 55v280h-63v77h170v-413h69v-63c-37 -14 -74 -19 -97 -19c-49 0 -71 15 -76 63c-59 -54 -123 -68 -165 -68zM352 684l-150 -151l-43 33l123 175zM492 684l-149 -151l-43 33
l122 175z" />
    <glyph glyph-name="Uogonek" unicode="&#x172;" horiz-adv-x="728" 
d="M635 608v-359c0 -151 -80 -250 -252 -257c-24 -34 -40 -75 -40 -103c0 -38 22 -50 57 -50c27 0 55 7 74 12l8 -37c-34 -18 -75 -28 -113 -28c-65 0 -100 29 -100 76c0 32 12 82 63 131c-171 9 -241 104 -241 256v359h-59v78h235v-78h-68v-358c0 -117 59 -174 165 -174
c103 0 164 55 164 174v358h-67v78h235v-78h-61z" />
    <glyph glyph-name="uogonek" unicode="&#x173;" horiz-adv-x="601" 
d="M238 -11c-124 0 -146 76 -146 156v267h-70v77h177v-326c0 -55 7 -86 71 -86c32 0 86 14 130 55v280h-63v77h170v-413h69v-63c-28 -11 -56 -16 -78 -18c-21 -33 -35 -70 -35 -96c0 -38 22 -50 57 -50c27 0 55 7 74 12l8 -37c-34 -18 -75 -28 -113 -28
c-65 0 -100 29 -100 76c0 31 11 78 57 125c-27 6 -40 24 -43 60c-59 -54 -123 -68 -165 -68z" />
    <glyph glyph-name="Wcircumflex" unicode="&#x174;" horiz-adv-x="980" 
d="M493 436h-2l-30 -103l-99 -333h-134l-159 607h-59v79h240v-79h-65l89 -366l31 -133h2l36 133l97 333l-12 33h-66l-1 79h247l1 -79h-69l113 -372l35 -119h2l29 130l83 361h-64v79h236v-79h-62c-35 -145 -122 -464 -157 -607h-133l-100 337zM679 767l-30 -34l-159 99
l-158 -100l-27 33l151 142h69z" />
    <glyph glyph-name="wcircumflex" unicode="&#x175;" horiz-adv-x="860" 
d="M606 79h4l36 137l56 197h-60v76h205v-76l-47 -1l-122 -412h-142l-56 151l-46 129h-5l-43 -129l-53 -151h-146l-120 409h-53v80h134l73 -260l41 -152h5l44 130l64 183l-9 22h-73v77h248v-77h-55l72 -202zM621 565l-29 -34l-159 100l-158 -100l-28 33l152 146h69z" />
    <glyph glyph-name="Ycircumflex" unicode="&#x176;" horiz-adv-x="621" 
d="M313 366l132 241h-59v79h224v-79h-56l-189 -320v-210h80v-77h-273v77h80v207l-185 323h-55v79h227v-79h-58l128 -241h4zM508 767l-30 -34l-159 99l-158 -100l-27 33l151 142h69z" />
    <glyph glyph-name="ycircumflex" unicode="&#x177;" horiz-adv-x="561" 
d="M277 70c9 29 98 301 112 342h-59v77h208v-77h-49l-178 -518c-27 -68 -56 -108 -143 -108c-15 0 -60 1 -114 18l16 84c29 -6 56 -10 79 -10c64 0 62 28 102 128h-53c-44 134 -87 269 -131 404h-50v79h129c15 -47 119 -392 126 -419h5zM462 565l-29 -34l-159 100l-158 -100
l-28 33l152 146h69z" />
    <glyph glyph-name="Zacute" unicode="&#x179;" horiz-adv-x="565" 
d="M524 610l-368 -532h305v121h83v-199h-521v76l367 532h-261v-107h-82v185h477v-76zM448 871l-158 -139l-40 38l134 164z" />
    <glyph glyph-name="zacute" unicode="&#x17a;" horiz-adv-x="475" 
d="M437 423l-280 -350h212v75h77v-148h-420v67l280 348h-185v-77h-76v151h392v-66zM357 673l-157 -139l-40 37l133 165z" />
    <glyph glyph-name="Zdotaccent" unicode="&#x17b;" horiz-adv-x="565" 
d="M524 610l-368 -532h305v121h83v-199h-521v76l367 532h-261v-107h-82v185h477v-76zM369 819c0 -38 -32 -68 -69 -68c-38 0 -68 30 -68 68s30 69 68 69c37 0 69 -31 69 -69z" />
    <glyph glyph-name="zdotaccent" unicode="&#x17c;" horiz-adv-x="475" 
d="M437 423l-280 -350h212v75h77v-148h-420v67l280 348h-185v-77h-76v151h392v-66zM320 627c0 -38 -32 -68 -69 -68c-38 0 -68 30 -68 68s30 69 68 69c37 0 69 -31 69 -69z" />
    <glyph glyph-name="Ohorn" unicode="&#x1a0;" horiz-adv-x="731" 
d="M655 342c0 -200 -101 -351 -299 -351c-217 0 -306 138 -306 348c0 193 85 358 306 358c107 0 179 -38 225 -98h13c49 0 72 29 72 82v73h65v-82c0 -65 -22 -127 -110 -135c24 -57 34 -125 34 -195zM539 339c0 132 -30 278 -183 278s-191 -137 -191 -279
c0 -172 55 -266 191 -266c127 0 183 117 183 267z" />
    <glyph glyph-name="ohorn" unicode="&#x1a1;" horiz-adv-x="578" 
d="M498 244c0 -130 -59 -252 -234 -252c-165 0 -224 115 -224 250c0 134 66 257 232 257c85 0 142 -31 178 -80c43 3 62 33 62 82v73h66v-82c0 -61 -20 -120 -96 -133c11 -35 16 -76 16 -115zM389 242c0 83 -19 179 -117 179s-122 -93 -122 -179c0 -91 19 -173 122 -173
c96 0 117 89 117 173z" />
    <glyph glyph-name="Uhorn" unicode="&#x1af;" horiz-adv-x="808" 
d="M635 614v-41h34c49 0 72 20 72 72v107h65v-112c0 -64 -26 -130 -130 -130h-41v-261c0 -157 -86 -257 -272 -257c-193 0 -272 96 -272 257v365h-59v72h235v-72h-68v-368c0 -117 59 -174 165 -174c103 0 164 55 164 174v368h-67v72h221v-72h-47z" />
    <glyph glyph-name="uhorn" unicode="&#x1b0;" horiz-adv-x="650" 
d="M238 -11c-124 0 -146 76 -146 156v271h-70v73h177v-316c0 -62 11 -98 67 -98c32 0 88 12 134 54v287h-63v73c57 0 113 1 169 1l1 -1c0 -24 -1 -46 -1 -69h4c49 0 70 24 70 76v80h66v-83c0 -69 -25 -136 -130 -136h-10v-281h67c0 -22 2 -43 3 -63c-37 -14 -74 -19 -97 -19
c-49 0 -71 15 -76 63c-59 -54 -123 -68 -165 -68z" />
    <glyph glyph-name="AEacute" unicode="&#x1fc;" horiz-adv-x="985" 
d="M509 75v130h-250l-80 -130h68v-75h-241v75h59l334 534h-55v76h587v-173h-81v99h-231v-218l217 5v-79l-217 4v-248h244v102h82v-177h-505v75h69zM504 605l-202 -325h207v325h-5zM748 871l-158 -139l-40 38l134 164z" />
    <glyph glyph-name="aeacute" unicode="&#x1fd;" horiz-adv-x="809" 
d="M575 500c189 0 201 -163 201 -235v-39h-318c-1 -87 29 -154 131 -154c54 0 99 11 152 32l22 -65c-59 -32 -123 -46 -187 -46c-94 0 -146 27 -179 75c-95 -75 -174 -77 -214 -77c-122 0 -151 86 -151 141c0 78 54 148 177 148h144v36c0 76 -33 101 -109 101
c-53 0 -108 -10 -154 -26l-20 68c56 25 132 40 196 40c65 0 126 -21 150 -74c32 44 82 75 159 75zM227 63c32 0 101 20 142 56c-11 32 -16 67 -17 106h-112c-63 0 -97 -31 -97 -80c0 -54 27 -82 84 -82zM575 423c-83 0 -110 -68 -115 -143h219c0 85 -24 143 -104 143z
M568 673l-157 -139l-40 37l133 165z" />
    <glyph glyph-name="Oslashacute" unicode="&#x1fe;" horiz-adv-x="705" 
d="M655 342c0 -200 -101 -351 -299 -351c-90 0 -157 23 -205 66l-50 -64h-54l74 94c-49 61 -71 147 -71 252c0 193 85 358 306 358c85 0 147 -23 194 -64l50 66h58l-77 -96c53 -67 74 -162 74 -261zM539 339c0 60 -8 125 -32 175l-293 -381c32 -41 77 -61 142 -61
c127 0 183 117 183 267zM165 338c0 -69 9 -122 29 -162l292 380c-28 37 -69 61 -130 61c-153 0 -191 -137 -191 -279zM521 871l-158 -139l-40 38l134 164z" />
    <glyph glyph-name="oslashacute" unicode="&#x1ff;" horiz-adv-x="538" 
d="M271 499c63 0 110 -18 145 -47c12 16 25 30 37 46c15 0 31 1 47 1l-58 -71c40 -48 56 -115 56 -185c0 -130 -59 -250 -235 -250c-62 0 -110 14 -144 42l-34 -41c-17 0 -33 -1 -49 -1l56 67c-38 46 -52 112 -52 182c0 133 66 257 231 257zM387 242c0 34 -4 74 -18 105
c-63 -81 -124 -162 -187 -243c19 -21 47 -35 89 -35c97 0 116 88 116 173zM271 420c-94 0 -122 -88 -122 -172c0 -36 3 -76 17 -106c62 80 124 160 187 240c-18 23 -43 38 -82 38zM417 673l-157 -139l-40 37l133 165z" />
    <glyph glyph-name="Scommaaccent" unicode="&#x218;" horiz-adv-x="575" 
d="M37 187h80l1 -82c49 -23 102 -30 146 -30c104 0 154 57 154 113c0 82 -65 94 -152 119c-122 28 -221 73 -221 188c4 131 106 200 242 200c60 0 142 -9 201 -42l1 -143h-81l-1 83c-30 13 -83 18 -119 18c-69 0 -129 -36 -129 -103c0 -63 73 -91 152 -111
c111 -27 226 -63 226 -204s-109 -202 -266 -202c-77 0 -163 13 -233 50c0 48 -1 97 -1 146zM221 -96c0 30 26 56 61 56c40 0 63 -31 62 -68c-1 -55 -39 -107 -94 -134l-25 31c23 20 35 41 36 64c-26 6 -40 25 -40 51z" />
    <glyph glyph-name="scommaaccent" unicode="&#x219;" horiz-adv-x="464" 
d="M30 149h77l3 -62c26 -14 68 -20 99 -20c60 0 108 17 108 65s-43 62 -95 77c-90 26 -184 48 -184 146c0 101 81 144 193 144c57 0 117 -11 161 -37c0 -39 1 -78 2 -118h-79l-2 65c-22 9 -49 14 -75 14c-50 0 -91 -18 -91 -64c0 -39 58 -55 94 -65c81 -23 186 -43 186 -162
c0 -96 -84 -140 -210 -140c-57 0 -132 8 -185 38zM164 -96c0 30 26 56 61 56c40 0 63 -31 62 -68c-1 -55 -39 -107 -94 -134l-25 31c23 20 35 41 36 64c-26 6 -40 25 -40 51z" />
    <glyph glyph-name="schwa" unicode="&#x259;" horiz-adv-x="505" 
d="M247 70c83 0 111 68 116 143h-220c0 -85 24 -143 104 -143zM247 -7c-189 0 -203 164 -203 236v36h321c0 87 -30 157 -132 157c-54 0 -99 -12 -152 -33l-24 64c60 34 124 47 189 47c183 0 226 -115 226 -250c0 -96 -37 -257 -225 -257z" />
    <glyph glyph-name="afii10023" unicode="&#x401;" horiz-adv-x="607" 
d="M471 781c0 -30 -24 -51 -56 -51c-28 0 -49 21 -49 51c0 29 22 52 49 52c32 0 56 -22 56 -52zM280 781c0 -30 -24 -51 -53 -51c-31 0 -53 21 -53 51c0 29 24 52 51 52c31 0 55 -22 55 -52zM577 0h-535v78h68v530h-66v77h519v-179h-81v102h-262v-215l243 5v-79l-243 4v-245
h275v105h82v-183z" />
    <glyph glyph-name="afii10051" unicode="&#x402;" horiz-adv-x="795" 
d="M754 213c0 -154 -102 -265 -200 -325l-44 57c76 60 130 141 130 249c0 104 -53 146 -136 146c-42 0 -97 -10 -148 -30v-235h76v-75h-257v75h72v536h-142v-89h-81v163h622v-163h-81v89h-209v-225c63 25 129 36 181 36c136 0 217 -80 217 -209z" />
    <glyph glyph-name="afii10052" unicode="&#x403;" horiz-adv-x="578" 
d="M461 872l-158 -139l-40 38l134 164zM315 0h-273v75h68v536h-66v74h517v-173h-81v99h-260v-536h95v-75z" />
    <glyph glyph-name="afii10053" unicode="&#x404;" horiz-adv-x="596" 
d="M543 102l18 -78c-51 -20 -139 -31 -205 -31c-232 0 -306 145 -306 346c0 153 59 358 314 358c73 0 134 -12 180 -27v-167h-82v97c-25 7 -62 12 -96 12c-127 0 -198 -91 -200 -219c83 1 167 2 250 4v-78c-84 1 -167 2 -251 2c-3 -141 48 -241 213 -241c36 0 111 8 165 22z
" />
    <glyph glyph-name="afii10054" unicode="&#x405;" horiz-adv-x="575" 
d="M37 187h80l1 -82c49 -23 102 -30 146 -30c104 0 154 57 154 113c0 82 -65 94 -152 119c-122 28 -221 73 -221 188c4 131 106 200 242 200c60 0 142 -9 201 -42l1 -143h-81l-1 83c-30 13 -83 18 -119 18c-69 0 -129 -36 -129 -103c0 -63 73 -91 152 -111
c111 -27 226 -63 226 -204s-109 -202 -266 -202c-77 0 -163 13 -233 50c0 48 -1 97 -1 146z" />
    <glyph glyph-name="afii10055" unicode="&#x406;" horiz-adv-x="381" 
d="M311 0h-241v77h65v531h-65v78h241v-78h-66v-531h66v-77z" />
    <glyph glyph-name="afii10056" unicode="&#x407;" horiz-adv-x="381" 
d="M340 781c0 -30 -24 -51 -56 -51c-28 0 -49 21 -49 51c0 29 22 52 49 52c32 0 56 -22 56 -52zM149 781c0 -30 -24 -51 -53 -51c-31 0 -53 21 -53 51c0 29 24 52 51 52c31 0 55 -22 55 -52zM311 0h-241v77h65v531h-65v78h241v-78h-66v-531h66v-77z" />
    <glyph glyph-name="afii10057" unicode="&#x408;" horiz-adv-x="393" 
d="M65 608v78h275v-78h-77l-1 -463c0 -179 -90 -274 -257 -323l-29 71c145 78 176 134 176 255v460h-87z" />
    <glyph glyph-name="afii10058" unicode="&#x409;" horiz-adv-x="995" 
d="M641 686v-75h-72v-202h152c145 0 234 -84 234 -206c0 -138 -92 -203 -216 -203h-346v75h66v536l-174 -1v-66c0 -294 -24 -523 -247 -566l-25 78c150 53 170 192 170 467v87h-88v76h546zM708 334h-139v-259h148c69 0 124 44 124 129c0 90 -65 130 -133 130z" />
    <glyph glyph-name="afii10059" unicode="&#x40a;" horiz-adv-x="1020" 
d="M666 686v-75h-72v-205h152c146 0 234 -82 234 -204c0 -135 -91 -202 -216 -202h-345v75h65v257h-264v-257h62v-75h-239v75h67v536h-67v74h239v-74h-62v-207h264v207h-66v75h248zM733 332h-139v-257h148c70 0 124 42 124 128c0 90 -65 129 -133 129z" />
    <glyph glyph-name="afii10060" unicode="&#x40b;" horiz-adv-x="852" 
d="M747 75h65v-75h-238v75h63v164c0 78 -51 103 -125 103c-53 0 -112 -15 -152 -33v-234h70v-75h-252v75h73v536h-144v-89h-80v163h620v-163h-81v89h-206v-223c61 22 126 34 182 34c115 0 205 -48 205 -163v-184z" />
    <glyph glyph-name="afii10061" unicode="&#x40c;" horiz-adv-x="669" 
d="M217 611v-536h65v-75h-240v75h65v536h-65v74h240v-74h-65zM351 363l208 -282l92 -9v-63c-29 -11 -70 -17 -93 -17c-41 -2 -67 9 -90 41l-218 306v33l199 273c25 37 49 49 82 48c33 0 65 -8 94 -22l-7 -63l-87 -8zM500 874l-158 -139l-40 38l134 164z" />
    <glyph glyph-name="afii10062" unicode="&#x40e;" horiz-adv-x="622" 
d="M9 686h223v-76h-62l84 -209l61 -161h5l58 162l78 208h-64v76h219v-76h-51l-202 -514c-30 -76 -69 -105 -135 -105c-24 0 -62 0 -125 19l17 72c35 -7 61 -11 82 -11c31 0 51 14 68 57l17 44h-34l-187 438h-52v76zM310 733c-74 0 -128 57 -171 119l52 38
c38 -52 85 -85 123 -85c24 0 68 4 146 79l32 -31c-60 -89 -127 -120 -182 -120z" />
    <glyph glyph-name="afii10145" unicode="&#x40f;" horiz-adv-x="739" 
d="M457 685h240v-75h-67v-535h67v-75h-284v-180h-86v180h-286v75h67v535h-67v75h240v-75h-63v-535h301v535h-62v75z" />
    <glyph glyph-name="afii10017" unicode="&#x410;" horiz-adv-x="697" 
d="M444 76h66c-11 35 -25 81 -36 113h-257c-9 -28 -25 -76 -35 -113h68v-76h-230v76h56l207 610h137c65 -198 137 -413 202 -610h56v-76h-234v76zM451 265c-27 90 -55 179 -84 269c-5 20 -12 40 -18 60h-2l-19 -61c-23 -72 -64 -192 -85 -268h208z" />
    <glyph glyph-name="afii10018" unicode="&#x411;" horiz-adv-x="643" 
d="M536 685v-156h-80v82h-238v-202h153c150 0 232 -77 232 -198c0 -138 -89 -211 -215 -211h-346v75h66v536h-66v74h494zM358 334h-140v-259h150c69 0 123 50 123 133c0 90 -60 126 -133 126z" />
    <glyph glyph-name="afii10019" unicode="&#x412;" horiz-adv-x="648" 
d="M110 608h-66v77h314c152 0 227 -65 227 -178c0 -39 -12 -111 -92 -148v-1c87 -27 113 -103 113 -168c0 -116 -91 -190 -205 -190h-361v76h70v532zM493 196c0 63 -41 120 -127 120h-145v-240h145c91 0 127 56 127 120zM474 499c0 64 -37 109 -123 109h-130v-216h130
c79 0 123 43 123 107z" />
    <glyph glyph-name="afii10020" unicode="&#x413;" horiz-adv-x="578" 
d="M315 0h-273v75h68v536h-66v74h517v-173h-81v99h-260v-536h95v-75z" />
    <glyph glyph-name="afii10021" unicode="&#x414;" horiz-adv-x="739" 
d="M603 0h-494v-171h-84v243l55 3c101 108 125 281 125 489v47h-72v74h551v-74h-66v-536l69 -3v-243h-84v171zM301 611v-53c0 -229 -21 -359 -107 -483h314v536h-207z" />
    <glyph glyph-name="afii10022" unicode="&#x415;" horiz-adv-x="607" 
d="M577 0h-535v78h68v530h-66v77h519v-179h-81v102h-262v-215l243 5v-79l-243 4v-245h275v105h82v-183z" />
    <glyph glyph-name="afii10024" unicode="&#x416;" horiz-adv-x="973" 
d="M541 610v-535h65v-75h-237v75h64v535h-64v75h237v-75h-65zM671 361l190 -280l95 -9v-63c-30 -11 -70 -17 -94 -17c-35 0 -63 5 -83 34l-209 312v32l207 283c23 32 47 40 76 40c33 0 65 -8 94 -23l-6 -63l-89 -8zM18 72l94 9l190 280l-180 238l-89 8l-7 63
c29 15 61 23 94 23c28 0 47 -8 69 -37l214 -286v-32l-211 -308c-23 -34 -50 -38 -81 -38c-30 0 -66 7 -93 17v63z" />
    <glyph glyph-name="afii10025" unicode="&#x417;" horiz-adv-x="588" 
d="M142 594v-103h-83v162c61 29 150 44 218 44c129 0 243 -41 243 -171c0 -53 -39 -121 -111 -148v-1c79 -25 129 -84 129 -165c0 -146 -127 -217 -277 -217c-68 0 -163 10 -229 40l24 74c69 -18 129 -30 168 -30c132 0 200 46 200 133c0 77 -66 121 -157 121h-85v72h80
c94 0 144 56 144 112c0 74 -58 100 -141 100c-43 0 -88 -9 -123 -23z" />
    <glyph glyph-name="afii10026" unicode="&#x418;" horiz-adv-x="756" 
d="M463 610v74h255v-74h-70v-535h70v-75h-246v75h69v402h-2c-107 -124 -214 -249 -321 -372v-30h67v-75h-246v75h71v535h-69v74h246v-74h-69v-398h2c108 123 215 247 322 370v28h-79z" />
    <glyph glyph-name="afii10027" unicode="&#x419;" horiz-adv-x="756" 
d="M463 610v74h255v-74h-70v-535h70v-75h-246v75h69v402h-2c-107 -124 -214 -249 -321 -372v-30h67v-75h-246v75h71v535h-69v74h246v-74h-69v-398h2c108 123 215 247 322 370v28h-79zM375 747c-73 0 -128 57 -171 119l52 39c38 -54 85 -85 122 -85c25 0 69 2 147 78l32 -31
c-60 -90 -126 -120 -182 -120z" />
    <glyph glyph-name="afii10028" unicode="&#x41a;" horiz-adv-x="669" 
d="M217 611v-536h65v-75h-240v75h65v536h-65v74h240v-74h-65zM351 363l208 -282l92 -9v-63c-29 -11 -70 -17 -93 -17c-41 -2 -67 9 -90 41l-218 306v33l199 273c25 37 49 49 82 48c33 0 65 -8 94 -22l-7 -63l-87 -8z" />
    <glyph glyph-name="afii10029" unicode="&#x41b;" horiz-adv-x="714" 
d="M664 0h-240v76h62v534h-201v-66c0 -294 -24 -523 -247 -566l-25 78c150 53 170 192 170 467v87h-88v76h569v-75h-67v-535h67v-76z" />
    <glyph glyph-name="afii10030" unicode="&#x41c;" horiz-adv-x="910" 
d="M453 200h5c16 35 31 74 46 108l107 246l57 131h206v-77h-62v-532h62v-76h-234v76h61v453h-2l-40 -94c-21 -49 -42 -99 -64 -148c-30 -66 -59 -133 -88 -200h-104c-31 68 -63 136 -93 203l-67 151l-38 88h-3c0 -151 -1 -302 -1 -453h65v-76h-235v76h66v532h-66v77h209
c19 -39 41 -89 65 -144c31 -68 64 -145 94 -215c21 -46 39 -91 54 -126z" />
    <glyph glyph-name="afii10031" unicode="&#x41d;" horiz-adv-x="739" 
d="M697 0h-240v77h62v244h-301v-244h63v-77h-240v77h67v531h-67v77h240v-77h-63v-213h301v213h-62v77h240v-77h-67v-531h67v-77z" />
    <glyph glyph-name="afii10032" unicode="&#x41e;" horiz-adv-x="705" 
d="M655 342c0 -200 -101 -351 -299 -351c-217 0 -306 138 -306 348c0 193 85 358 306 358c225 0 299 -166 299 -355zM539 339c0 132 -30 275 -183 275s-191 -134 -191 -276c0 -172 55 -264 191 -264c127 0 183 115 183 265z" />
    <glyph glyph-name="afii10033" unicode="&#x41f;" horiz-adv-x="739" 
d="M698 0h-241v76h62v533h-300v-533h63v-76h-240v76h66v533h-66v77h656v-77h-67v-533h67v-76z" />
    <glyph glyph-name="afii10034" unicode="&#x420;" horiz-adv-x="598" 
d="M569 483c0 -90 -53 -208 -211 -208h-141v-198h87v-77h-262v77h65v531h-65v78h305c138 0 222 -73 222 -203zM330 608h-113v-257h116c63 0 122 32 122 128c0 89 -47 129 -125 129z" />
    <glyph glyph-name="afii10035" unicode="&#x421;" horiz-adv-x="593" 
d="M165 341c0 -160 47 -260 215 -260c35 0 109 6 162 22l18 -78c-52 -20 -137 -34 -203 -34c-232 0 -307 148 -307 349c0 153 61 358 314 358c74 0 133 -12 178 -28v-174h-80v105c-31 8 -66 11 -95 11c-143 0 -202 -108 -202 -271z" />
    <glyph glyph-name="afii10036" unicode="&#x422;" horiz-adv-x="587" 
d="M431 0h-273v77h82v531h-145v-109h-80v187h558v-187h-81v109h-143v-531h82v-77z" />
    <glyph glyph-name="afii10037" unicode="&#x423;" horiz-adv-x="622" 
d="M9 686h223v-76h-62l84 -209l61 -161h5l58 162l78 208h-64v76h219v-76h-51l-202 -514c-30 -76 -69 -105 -135 -105c-24 0 -62 0 -125 19l17 72c35 -7 61 -11 82 -11c31 0 51 14 68 57l17 44h-34l-187 438h-52v76z" />
    <glyph glyph-name="afii10038" unicode="&#x424;" horiz-adv-x="831" 
d="M791 348c0 -154 -137 -231 -318 -241v-34h61v-73h-230v73h61v34c-197 9 -325 78 -325 238c0 142 135 232 325 242v25h-61v73h230v-73h-61v-26c185 -9 318 -97 318 -238zM143 343c0 -115 108 -149 222 -159v322c-123 -8 -222 -59 -222 -163zM686 345
c0 95 -72 153 -213 161v-322c109 9 213 53 213 161z" />
    <glyph glyph-name="afii10039" unicode="&#x425;" horiz-adv-x="667" 
d="M408 607v79h228v-79h-63l-172 -255l177 -274h66l1 -78h-259v78h63l-131 210l-134 -210h66v-78h-232v78h61l183 278l-157 251h-72l1 79h254v-79h-58l117 -190l121 190h-60z" />
    <glyph glyph-name="afii10040" unicode="&#x426;" horiz-adv-x="739" 
d="M624 -170v170h-584v75h67v535h-67v75h240v-75h-63v-535h301v535h-62v75h240v-75h-67v-535h79v-245h-84z" />
    <glyph glyph-name="afii10041" unicode="&#x427;" horiz-adv-x="697" 
d="M653 75v-75h-241v75h66v221c-60 -18 -119 -29 -174 -29c-118 1 -213 46 -213 166v176h-65v75h238v-75h-63v-153c0 -80 49 -107 125 -108c52 0 107 13 152 30v231h-62v75h237v-75h-67v-534h67z" />
    <glyph glyph-name="afii10042" unicode="&#x428;" horiz-adv-x="1008" 
d="M450 75v535h-59v75h228v-75h-60v-535h232v535h-60v75h235v-75h-66v-535h66v-75h-924v75h66v535h-66v75h236v-75h-62v-535h234z" />
    <glyph glyph-name="afii10043" unicode="&#x429;" horiz-adv-x="1008" 
d="M450 75v535h-59v75h228v-75h-60v-535h232v535h-60v75h235v-75h-66v-535h77v-246h-84v171h-851v75h66v535h-66v75h236v-75h-62v-535h234z" />
    <glyph glyph-name="afii10044" unicode="&#x42a;" horiz-adv-x="798" 
d="M373 611l-1 -202h152c146 0 234 -84 234 -206c0 -138 -92 -203 -216 -203h-350v75h70v536h-165v-97h-80v171h421v-74h-65zM511 334h-139v-259h148c69 0 124 44 124 129c0 90 -65 130 -133 130z" />
    <glyph glyph-name="afii10045" unicode="&#x42b;" horiz-adv-x="940" 
d="M360 334h-138v-259h148c69 0 124 44 124 129c0 90 -66 130 -134 130zM293 686v-75h-71v-202h152c146 0 234 -84 234 -206c0 -138 -92 -203 -216 -203h-350v75h70v536h-70v75h251zM895 0h-242v75h65v536h-65v74h242v-74h-67v-536h67v-75z" />
    <glyph glyph-name="afii10046" unicode="&#x42c;" horiz-adv-x="653" 
d="M365 334h-138v-259h148c69 0 124 44 124 129c0 90 -66 130 -134 130zM298 686v-75h-71v-202h152c146 0 234 -84 234 -206c0 -138 -92 -203 -216 -203h-350v75h70v536h-70v75h251z" />
    <glyph glyph-name="afii10047" unicode="&#x42d;" horiz-adv-x="593" 
d="M433 322l-249 -4v79l249 -5c-3 133 -58 220 -189 220c-35 0 -83 -7 -108 -14v-97h-81v167c46 16 115 29 189 29c251 0 304 -172 304 -342c0 -193 -88 -362 -322 -362c-66 0 -147 10 -197 31l19 78c53 -14 124 -23 160 -23c158 0 227 104 225 243z" />
    <glyph glyph-name="afii10048" unicode="&#x42e;" horiz-adv-x="986" 
d="M936 341c0 -200 -90 -349 -288 -349c-204 0 -291 127 -295 329h-135v-245h63v-76h-240v76h67v535h-67v74h240v-74h-63v-216h136c16 168 94 302 294 302c225 0 288 -167 288 -356zM824 339c0 131 -23 277 -176 277c-152 0 -184 -136 -184 -279c0 -172 47 -266 184 -266
c128 0 176 117 176 268z" />
    <glyph glyph-name="afii10049" unicode="&#x42f;" horiz-adv-x="666" 
d="M189 483c0 -99 75 -118 131 -118h114v246h-121c-69 0 -124 -43 -124 -128zM434 292h-128l-118 -240c-18 -40 -34 -61 -83 -61c-21 0 -64 5 -92 14v61l76 10l118 233c-105 24 -131 108 -131 172c0 124 81 205 218 205h314v-75h-65v-536h68v-75h-247v75h70v217z" />
    <glyph glyph-name="afii10065" unicode="&#x430;" horiz-adv-x="537" 
d="M339 228l-109 -8c-56 -4 -86 -36 -86 -77c0 -52 24 -76 81 -76c36 0 82 21 114 51v110zM442 332v-257h76l6 -60c-27 -15 -85 -21 -112 -21c-39 0 -66 9 -67 61c-1 0 -1 1 -2 1c-71 -64 -136 -65 -165 -65c-117 0 -145 84 -145 141c0 79 54 137 190 146l118 8v29
c0 73 -23 101 -98 101c-48 0 -103 -10 -150 -26c-7 22 -14 45 -20 68c56 25 131 39 195 39c109 0 174 -42 174 -165z" />
    <glyph glyph-name="afii10066" unicode="&#x431;" horiz-adv-x="537" 
d="M263 678c43 18 128 50 168 69l31 -64c-46 -26 -91 -43 -115 -53c-130 -51 -200 -93 -217 -232c1 0 2 0 3 -1c33 52 93 85 163 85c147 0 200 -105 200 -243c0 -121 -57 -247 -234 -247c-169 0 -218 121 -222 233v95c2 77 7 112 13 136c24 104 96 177 210 222zM275 407
c-93 0 -127 -100 -127 -177s17 -161 121 -161c95 0 117 84 117 167c0 86 -18 171 -111 171z" />
    <glyph glyph-name="afii10067" unicode="&#x432;" horiz-adv-x="521" 
d="M312 489c110 0 164 -51 164 -128c0 -33 -13 -75 -58 -102c59 -25 73 -79 73 -120c0 -85 -72 -139 -161 -139h-298v73h52v345h-51v71h279zM296 217h-108v-146h108c66 0 91 39 91 78c0 38 -29 68 -91 68zM284 420h-96v-133h102c52 0 82 26 82 65s-25 68 -88 68z" />
    <glyph glyph-name="afii10068" unicode="&#x433;" horiz-adv-x="464" 
d="M266 0h-232v72h53v346h-50v71h409v-154h-74v83h-180v-346h74v-72z" />
    <glyph glyph-name="afii10069" unicode="&#x434;" horiz-adv-x="597" 
d="M505 489v-416l49 -2v-212h-81v141h-370v-141h-83v212l50 2c76 68 80 204 81 315v30h-61v71h415zM399 418h-150v-35c0 -96 -2 -233 -63 -310h213v345z" />
    <glyph glyph-name="afii10070" unicode="&#x435;" horiz-adv-x="505" 
d="M264 422c-77 0 -110 -67 -114 -131h218c-2 71 -24 131 -104 131zM265 500c189 0 203 -163 203 -235v-48h-320c-1 -88 29 -146 131 -146c55 0 99 11 152 33l27 -67c-61 -32 -127 -46 -192 -46c-183 0 -226 122 -226 252c0 96 40 257 225 257z" />
    <glyph glyph-name="afii10072" unicode="&#x436;" horiz-adv-x="809" 
d="M456 71h61v-71h-223v71h56v345h-57v72h223v-72h-60v-345zM576 260l141 -189l68 -9v-54c-21 -10 -59 -16 -81 -17c-33 0 -53 7 -72 33l-158 219v22l150 196c20 29 40 37 70 37c26 0 57 -8 76 -19l-5 -56l-60 -4zM94 71l135 189l-123 159l-60 4l-5 56c19 11 50 19 76 19
c30 0 50 -8 70 -37l144 -196v-22l-152 -219c-19 -26 -39 -33 -72 -33c-22 1 -60 7 -81 17v54z" />
    <glyph glyph-name="afii10073" unicode="&#x437;" horiz-adv-x="466" 
d="M204 -8c-71 0 -144 17 -182 34l21 66c52 -17 95 -26 140 -26c83 0 133 26 133 89c0 60 -57 74 -99 74h-71v64h59c44 1 98 13 98 69c0 39 -28 65 -90 65c-31 0 -64 -3 -97 -14v-73h-74v125c49 22 122 36 184 36c118 0 185 -49 185 -126c0 -53 -35 -91 -79 -107v-3
c54 -15 91 -60 91 -116c0 -103 -92 -157 -219 -157z" />
    <glyph glyph-name="afii10074" unicode="&#x438;" horiz-adv-x="619" 
d="M420 332h-4c-4 -6 -29 -46 -61 -93c-57 -85 -138 -203 -163 -239h-101v417h-69v71h174v-332h4c-7 -12 22 34 62 93c58 84 137 201 162 239h102c0 -137 1 -274 1 -412h69v-63c-30 -13 -68 -19 -94 -19c-63 0 -82 48 -82 83v255z" />
    <glyph glyph-name="afii10075" unicode="&#x439;" horiz-adv-x="619" 
d="M420 332h-4c-4 -6 -29 -46 -61 -93c-57 -85 -138 -203 -163 -239h-101v417h-69v71h174v-332h4c-7 -12 22 34 62 93c58 84 137 201 162 239h102c0 -137 1 -274 1 -412h69v-63c-30 -13 -68 -19 -94 -19c-63 0 -82 48 -82 83v255zM300 547c-73 0 -128 57 -171 119l52 39
c38 -54 85 -85 122 -85c25 0 69 2 147 78l32 -31c-60 -90 -126 -120 -182 -120z" />
    <glyph glyph-name="afii10076" unicode="&#x43a;" horiz-adv-x="553" 
d="M30 0v72h64v346h-73v71h180v-417h61v-72h-232zM320 260l144 -189l68 -9v-54c-21 -10 -59 -16 -81 -17c-33 0 -53 7 -72 33l-161 219v22l153 196c20 29 40 37 70 37c26 0 57 -8 76 -19l-5 -56l-60 -4z" />
    <glyph glyph-name="afii10077" unicode="&#x43b;" horiz-adv-x="577" 
d="M547 0h-226v72h59v346h-149v-35c0 -203 -21 -367 -184 -402l-30 77c106 53 115 127 115 309v51h-75v71h429v-417h61v-72z" />
    <glyph glyph-name="afii10078" unicode="&#x43c;" horiz-adv-x="759" 
d="M552 312h-4c-16 -31 -31 -63 -47 -91c-29 -53 -59 -103 -88 -167h-67c-8 17 -52 94 -90 161c-26 46 -49 89 -56 103h-4v-318h-102v417h-70v71h187c13 -23 64 -114 106 -191l61 -115h3c6 12 30 61 58 114l101 192h178v-71h-65v-341h71v-63c-29 -13 -66 -19 -93 -19
c-76 0 -77 52 -79 104v214z" />
    <glyph glyph-name="afii10079" unicode="&#x43d;" horiz-adv-x="593" 
d="M404 489h106v-412h69v-64c-29 -13 -67 -20 -94 -20c-57 0 -81 21 -81 79v151h-217v-223h-106v418h-64v71h171v-199h216v199z" />
    <glyph glyph-name="afii10080" unicode="&#x43e;" horiz-adv-x="538" 
d="M498 244c0 -130 -59 -252 -234 -252c-165 0 -224 115 -224 250c0 134 66 257 232 257c169 0 226 -123 226 -255zM389 242c0 82 -19 177 -115 177c-99 0 -124 -90 -124 -177c0 -91 18 -171 121 -171c96 0 118 87 118 171z" />
    <glyph glyph-name="afii10081" unicode="&#x43f;" horiz-adv-x="612" 
d="M408 412h-211v-412h-105v412h-71v75h566v-75h-73v-336h72v-63c-28 -13 -70 -20 -97 -20c-71 0 -81 39 -81 84v335z" />
    <glyph glyph-name="afii10082" unicode="&#x440;" horiz-adv-x="568" 
d="M16 -210v76h73v546h-73v76h173v-45l2 -1c40 33 102 54 150 54c146 0 192 -111 192 -243c0 -151 -54 -263 -204 -263c-35 0 -88 8 -134 32v-156h78v-76h-257zM309 74c60 0 115 33 115 178c0 128 -47 158 -111 158c-42 0 -94 -24 -118 -45v-258c23 -16 73 -33 114 -33z" />
    <glyph glyph-name="afii10083" unicode="&#x441;" horiz-adv-x="471" 
d="M272 500c54 0 107 -9 149 -26v-137h-76v71c-12 3 -31 5 -43 5c-109 0 -155 -51 -155 -172c0 -114 46 -168 132 -168c49 0 94 10 140 28l23 -70c-45 -25 -111 -39 -176 -39c-176 0 -226 109 -226 247c0 108 40 261 232 261z" />
    <glyph glyph-name="afii10084" unicode="&#x442;" horiz-adv-x="498" 
d="M132 0v72h64v346h-102v-70h-74v141h458v-141h-75v70h-101v-346h67v-72h-237z" />
    <glyph glyph-name="afii10085" unicode="&#x443;" horiz-adv-x="561" 
d="M279 68l49 152l65 195h-61v74h209v-74h-49l-175 -499c-24 -70 -55 -130 -154 -130c-18 0 -52 1 -109 18l14 71c30 -6 56 -10 79 -10c46 0 70 35 87 88l17 53h-51l-133 405h-52v78h131l81 -265l47 -156h5z" />
    <glyph glyph-name="afii10086" unicode="&#x444;" horiz-adv-x="707" 
d="M229 -210v72h73v131c-192 7 -262 120 -262 250c0 144 94 250 262 255v144h-74v71h176v-215c172 -2 263 -101 263 -247c0 -142 -87 -255 -263 -258v-131h81v-72h-256zM404 422v-356c104 4 160 76 160 180c0 97 -40 174 -160 176zM302 422c-113 -5 -159 -81 -159 -178
c0 -105 46 -176 159 -178v356z" />
    <glyph glyph-name="afii10087" unicode="&#x445;" horiz-adv-x="548" 
d="M330 75l-76 115l-87 -115h56v-75h-211l1 75h45l145 192l-96 146h-82v75h147l107 -162l64 87h-49v75h217v-75h-58l-125 -161l118 -177h71v-75h-226v75h39z" />
    <glyph glyph-name="afii10050" unicode="&#x490;" horiz-adv-x="578" 
d="M315 0h-273v75h68v536h-66v74h436v130h81v-204h-341v-536h95v-75z" />
    <glyph glyph-name="afii10098" unicode="&#x491;" horiz-adv-x="462" 
d="M265 0h-231v72h53v345h-51v72h332v109h75v-181h-251v-345h73v-72z" />
    <glyph glyph-name="Wgrave" unicode="&#x1e80;" horiz-adv-x="980" 
d="M493 436h-2l-30 -103l-99 -333h-134l-159 607h-59v79h240v-79h-65l89 -366l31 -133h2l36 133l97 333l-12 33h-66l-1 79h247l1 -79h-69l113 -372l35 -119h2l29 130l83 361h-64v79h236v-79h-62c-35 -145 -122 -464 -157 -607h-133l-100 337zM481 732l-156 139l62 63
l134 -165z" />
    <glyph glyph-name="wgrave" unicode="&#x1e81;" horiz-adv-x="860" 
d="M606 79h4l36 137l56 197h-60v76h205v-76l-47 -1l-122 -412h-142l-56 151l-46 129h-5l-43 -129l-53 -151h-146l-120 409h-53v80h134l73 -260l41 -152h5l44 130l64 183l-9 22h-73v77h248v-77h-55l72 -202zM430 534l-158 139l63 63l134 -165z" />
    <glyph glyph-name="Wacute" unicode="&#x1e82;" horiz-adv-x="980" 
d="M493 436h-2l-30 -103l-99 -333h-134l-159 607h-59v79h240v-79h-65l89 -366l31 -133h2l36 133l97 333l-12 33h-66l-1 79h247l1 -79h-69l113 -372l35 -119h2l29 130l83 361h-64v79h236v-79h-62c-35 -145 -122 -464 -157 -607h-133l-100 337zM659 872l-158 -139l-40 38
l134 164z" />
    <glyph glyph-name="wacute" unicode="&#x1e83;" horiz-adv-x="860" 
d="M606 79h4l36 137l56 197h-60v76h205v-76l-47 -1l-122 -412h-142l-56 151l-46 129h-5l-43 -129l-53 -151h-146l-120 409h-53v80h134l73 -260l41 -152h5l44 130l64 183l-9 22h-73v77h248v-77h-55l72 -202zM570 673l-157 -139l-40 37l133 165z" />
    <glyph glyph-name="Wdieresis" unicode="&#x1e84;" horiz-adv-x="980" 
d="M493 436h-2l-30 -103l-99 -333h-134l-159 607h-59v79h240v-79h-65l89 -366l31 -133h2l36 133l97 333l-12 33h-66l-1 79h247l1 -79h-69l113 -372l35 -119h2l29 130l83 361h-64v79h236v-79h-62c-35 -145 -122 -464 -157 -607h-133l-100 337zM639 781c0 -30 -24 -51 -56 -51
c-28 0 -49 21 -49 51c0 29 22 52 49 52c32 0 56 -22 56 -52zM448 781c0 -30 -24 -51 -53 -51c-31 0 -53 21 -53 51c0 29 24 52 51 52c31 0 55 -22 55 -52z" />
    <glyph glyph-name="wdieresis" unicode="&#x1e85;" horiz-adv-x="860" 
d="M606 79h4l36 137l56 197h-60v76h205v-76l-47 -1l-122 -412h-142l-56 151l-46 129h-5l-43 -129l-53 -151h-146l-120 409h-53v80h134l73 -260l41 -152h5l44 130l64 183l-9 22h-73v77h248v-77h-55l72 -202zM580 588c0 -28 -23 -50 -54 -50c-28 0 -49 22 -49 50s23 50 49 50
c31 0 54 -21 54 -50zM387 588c0 -28 -22 -50 -52 -50c-29 0 -51 22 -51 50s24 50 50 50c31 0 53 -21 53 -50z" />
    <glyph glyph-name="Ygrave" unicode="&#x1ef2;" horiz-adv-x="621" 
d="M313 366l132 241h-59v79h224v-79h-56l-189 -320v-210h80v-77h-273v77h80v207l-185 323h-55v79h227v-79h-58l128 -241h4zM315 732l-156 139l62 63l134 -165z" />
    <glyph glyph-name="ygrave" unicode="&#x1ef3;" horiz-adv-x="561" 
d="M277 70c9 29 98 301 112 342h-59v77h208v-77h-49l-178 -518c-27 -68 -56 -108 -143 -108c-15 0 -60 1 -114 18l16 84c29 -6 56 -10 79 -10c64 0 62 28 102 128h-53c-44 134 -87 269 -131 404h-50v79h129c15 -47 119 -392 126 -419h5zM278 534l-158 139l63 63l134 -165z
" />
    <glyph glyph-name="afii00208" unicode="&#x2015;" horiz-adv-x="1000" 
d="M956 221h-915v71h915v-71z" />
    <glyph glyph-name="fraction" unicode="&#x2044;" horiz-adv-x="107" 
d="M249 704l-302 -725h-67l303 725h66z" />
    <glyph glyph-name="fraction" unicode="&#x2215;" horiz-adv-x="107" 
d="M249 704l-302 -725h-67l303 725h66z" />
    <glyph glyph-name="dong" unicode="&#x20ab;" horiz-adv-x="575" 
d="M359 137l-3 1c-34 -27 -83 -45 -125 -45c-122 0 -162 83 -162 191c0 125 47 212 173 212c29 0 80 -10 113 -30v69h-120v43h120v51h-67v57h153v-108h61v-43h-61v-378h63v-57h-145v37zM259 430c-54 0 -102 -26 -102 -147c0 -101 41 -125 97 -125c32 0 82 20 101 39v206
c-19 13 -62 27 -96 27zM506 0h-424v58h424v-58z" />
    <glyph glyph-name="centigrade" unicode="&#x2103;" horiz-adv-x="905" 
d="M477 341c0 -160 47 -260 215 -260c35 0 109 6 162 22l18 -78c-52 -20 -137 -34 -203 -34c-232 0 -307 148 -307 349c0 153 61 358 314 358c74 0 133 -12 178 -28v-174h-80v105c-31 8 -66 11 -95 11c-143 0 -202 -108 -202 -271zM320 582c0 -78 -61 -140 -139 -140
c-85 0 -141 59 -141 140c0 76 64 141 141 141c78 0 139 -53 139 -141zM262 579c0 48 -30 89 -83 89c-47 0 -82 -41 -82 -89c0 -46 35 -82 82 -82c46 0 83 36 83 82z" />
    <glyph glyph-name="fahrenheit" unicode="&#x2109;" horiz-adv-x="918" 
d="M320 582c0 -78 -61 -140 -139 -140c-85 0 -141 59 -141 140c0 76 64 141 141 141c78 0 139 -53 139 -141zM262 579c0 48 -30 89 -83 89c-47 0 -82 -41 -82 -89c0 -46 35 -82 82 -82c46 0 83 36 83 82zM646 0h-273v77h68v531h-66v77h520v-179h-82v102h-262v-215l243 5v-79
l-243 4v-246h95v-77z" />
    <glyph glyph-name="afii61352" unicode="&#x2116;" horiz-adv-x="1117" 
d="M545 171h4v439h-69v75h238v-75h-65v-610h-106c-96 150 -177 290 -276 443c-18 31 -39 61 -58 92c-1 0 -1 -1 -2 -1v-459h69v-75h-240v75h69v535h-69v75h186l250 -403c23 -38 46 -74 69 -111zM1082 513c0 -85 -42 -166 -164 -166c-115 0 -156 77 -156 166
c0 88 46 168 162 168c118 0 158 -80 158 -168zM1000 513c0 51 -12 112 -76 112s-80 -60 -80 -113c0 -56 11 -107 80 -107c63 0 76 56 76 108zM1078 247h-309v71h309v-71z" />
    <glyph glyph-name="published" unicode="&#x2117;" horiz-adv-x="845" 
d="M647 427c0 -64 -36 -151 -151 -151h-103v-140h62v-53h-186v53h48v385h-48v52h219c98 0 159 -52 159 -146zM479 521h-86v-194h89c45 0 87 26 87 97c0 65 -38 97 -90 97zM795 332c0 -204 -169 -370 -373 -370c-206 0 -373 166 -373 370c0 203 167 369 373 369
c204 0 373 -166 373 -369zM744 332c0 176 -143 319 -322 319c-177 0 -323 -143 -323 -319s146 -319 323 -319c179 0 322 143 322 319z" />
    <glyph glyph-name="Ohm" unicode="&#x2126;" horiz-adv-x="721" 
d="M569 79l1 -3h113v-76h-264v80c101 26 130 132 130 272c0 139 -37 264 -184 264c-140 0 -191 -112 -191 -262c0 -148 28 -250 124 -273v-81h-262v76h108l2 2c-74 53 -86 163 -86 278c0 186 89 342 303 342c220 0 302 -158 302 -340c0 -113 -25 -223 -96 -279z" />
    <glyph glyph-name="angstrom" unicode="&#x212b;" horiz-adv-x="697" 
d="M444 76h66c-11 35 -25 81 -36 113h-257c-9 -28 -25 -76 -35 -113h68v-76h-230v76h56l207 610h137c65 -198 137 -413 202 -610h56v-76h-234v76zM348 716c-65 0 -116 50 -116 111c0 59 51 111 116 111c64 0 112 -51 112 -111c0 -63 -50 -111 -112 -111zM451 265
c-27 90 -55 179 -84 269c-5 20 -12 40 -18 60h-2l-19 -61c-23 -72 -64 -192 -85 -268h208zM348 883c-33 0 -59 -27 -59 -59c0 -29 24 -56 59 -56c31 0 55 27 55 56c0 31 -23 59 -55 59z" />
    <glyph glyph-name="gradient" unicode="&#x2207;" horiz-adv-x="687" 
d="M644 686v-67l-234 -619h-133l-237 637v49h604zM395 216l142 395h-383l142 -387l51 -141h2z" />
    <glyph glyph-name="product" unicode="&#x220f;" horiz-adv-x="739" 
d="M698 -99h-241v76h62v632h-300v-632h63v-76h-240v76h66v632h-66v77h656v-77h-67v-632h67v-76z" />
    <glyph glyph-name="summation" unicode="&#x2211;" horiz-adv-x="579" 
d="M166 611l169 -296v-24l-173 -315h306v111h82v-187h-522v68l187 335l-183 317v66h506v-181h-79v106h-293z" />
    <glyph glyph-name="minus" unicode="&#x2212;" horiz-adv-x="575" 
d="M492 266h-398v69h398v-69z" />
    <glyph glyph-name="radical" unicode="&#x221a;" horiz-adv-x="549" 
d="M69 252c-8 21 -16 42 -23 63c38 19 76 39 114 59l97 -318h4l202 691h75l-241 -801h-80c-35 108 -69 218 -104 327c-16 -7 -32 -15 -44 -21z" />
    <glyph glyph-name="infinity" unicode="&#x221e;" horiz-adv-x="776" 
d="M209 414c69 0 129 -47 180 -97c52 52 104 97 185 97c91 0 155 -62 155 -150s-71 -156 -165 -156c-59 0 -113 36 -176 99c-50 -49 -105 -99 -185 -99c-88 0 -156 67 -156 153c0 85 67 153 162 153zM206 346c-46 0 -76 -39 -76 -85c0 -48 35 -85 82 -85c49 0 95 46 130 83
c-38 43 -83 87 -136 87zM567 346c-47 0 -96 -46 -132 -83c50 -51 84 -87 131 -87c49 0 81 42 81 87c0 53 -36 83 -80 83z" />
    <glyph glyph-name="logicaland" unicode="&#x2227;" horiz-adv-x="569" 
d="M135 1h-88c54 138 147 356 201 494h63c59 -138 158 -356 216 -494h-89c-46 106 -113 263 -158 369c-12 -32 -128 -326 -145 -369z" />
    <glyph glyph-name="logicalor" unicode="&#x2228;" horiz-adv-x="575" 
d="M47 495h88c41 -107 104 -267 145 -373c21 47 139 329 158 373h89l-216 -495h-63z" />
    <glyph glyph-name="intersection" unicode="&#x2229;" horiz-adv-x="588" 
d="M292 422c-91 0 -122 -58 -122 -126v-295h-86l-1 298c0 116 76 201 210 201c139 0 216 -93 216 -216v-283h-89v289c0 67 -34 132 -128 132z" />
    <glyph glyph-name="union" unicode="&#x222a;" horiz-adv-x="588" 
d="M292 75c94 0 128 66 128 133v286h89v-281c0 -122 -77 -216 -216 -216c-134 0 -210 86 -210 201l1 296h86v-294c0 -67 31 -125 122 -125z" />
    <glyph glyph-name="integral" unicode="&#x222b;" horiz-adv-x="325" 
d="M134 3c0 214 -28 363 -28 580c0 102 54 168 146 168c28 0 45 -2 78 -10l-9 -62c-22 3 -32 4 -52 4c-67 0 -84 -36 -84 -103c0 -218 30 -342 30 -579c0 -102 -60 -168 -147 -168c-28 0 -46 3 -79 12l10 62c23 -3 33 -4 53 -4c67 0 82 36 82 100z" />
    <glyph glyph-name="approxequal" unicode="&#x2248;" horiz-adv-x="575" 
d="M377 325c-77 0 -148 44 -200 44l-69 -44l-36 27c23 57 63 88 113 88c62 0 150 -44 203 -44l65 46l36 -27c-21 -55 -60 -90 -112 -90zM377 192c-77 0 -148 44 -200 44l-69 -45l-36 30c23 56 63 84 113 84c62 0 150 -44 203 -44l65 46l36 -26c-21 -55 -60 -89 -112 -89z
" />
    <glyph glyph-name="notequal" unicode="&#x2260;" horiz-adv-x="575" 
d="M497 502l-76 -91h72v-68h-129l-73 -85h202v-67h-256l-97 -113h-72l97 113h-84v67h139l73 85h-212v68h268l79 91h69z" />
    <glyph glyph-name="lessequal" unicode="&#x2264;" horiz-adv-x="575" 
d="M493 198v-82l-430 168v59l430 162v-82l-335 -108c31 -11 304 -108 335 -117zM492 0h-430v69h430v-69z" />
    <glyph glyph-name="greaterequal" unicode="&#x2265;" horiz-adv-x="575" 
d="M503 1h-431v69h431v-69zM71 117v82l336 116c-30 8 -305 100 -336 108v83l432 -162v-59z" />
    <glyph glyph-name="lozenge" unicode="&#x25ca;" horiz-adv-x="530" 
d="M469 317l-173 -336h-75l-174 336c36 71 138 266 174 337h76zM368 317l-110 222c-26 -54 -83 -168 -109 -221c26 -51 87 -170 111 -221c27 53 82 167 108 220z" />
    <glyph glyph-name="zero.text" unicode="&#xe000;" horiz-adv-x="575" 
d="M542 330c0 -167 -62 -337 -253 -337c-211 0 -258 164 -258 335c0 158 49 346 259 346c213 0 252 -195 252 -344zM435 328c0 104 -11 266 -145 266c-135 0 -152 -156 -152 -268c0 -142 25 -254 152 -254c118 0 145 130 145 256z" />
    <glyph glyph-name="one.text" unicode="&#xe001;" horiz-adv-x="495" 
d="M68 0v75h143v493c-7 -1 -148 -22 -154 -22l-13 60l177 59h95v-590h138v-75h-386z" />
    <glyph glyph-name="two.text" unicode="&#xe002;" horiz-adv-x="543" 
d="M462 486c0 -158 -193 -314 -297 -411l241 -1v85h84v-159h-465v68c121 109 329 279 329 411c0 76 -48 110 -127 110c-33 0 -93 -8 -168 -53l-35 65c82 58 163 73 220 73c129 0 218 -63 218 -188z" />
    <glyph glyph-name="three.text" unicode="&#xe003;" horiz-adv-x="575" 
d="M73 665h408l15 -59l-205 -204c122 -4 220 -56 220 -190c0 -149 -118 -221 -255 -221c-69 0 -147 11 -209 42l25 73c73 -22 123 -30 165 -30c102 0 166 43 166 135c0 79 -58 122 -175 122c-17 0 -32 -1 -51 -4l-16 57c59 61 143 144 203 203h-208v-88h-83v164z" />
    <glyph glyph-name="four.text" unicode="&#xe004;" horiz-adv-x="575" 
d="M346 665h101v-403h97v-74h-97v-113h70v-75h-239v75h68v113h-315v68c88 117 227 292 315 409zM346 534h-5c-68 -90 -146 -183 -213 -272h219z" />
    <glyph glyph-name="five.text" unicode="&#xe005;" horiz-adv-x="552" 
d="M235 346c-35 0 -74 -10 -110 -26l-57 34l22 311h372v-149h-83v74h-203l-13 -185c23 9 50 18 103 18c119 0 228 -64 228 -209c0 -150 -117 -223 -251 -223c-68 0 -150 10 -214 43l25 74c74 -22 125 -30 167 -30c100 0 166 41 166 136c0 89 -70 132 -152 132z" />
    <glyph glyph-name="six.text" unicode="&#xe006;" horiz-adv-x="575" 
d="M154 375l5 -4c50 27 101 46 163 46c106 0 203 -61 203 -206c0 -138 -97 -218 -234 -218c-186 0 -242 137 -242 309c0 213 83 372 277 372c70 0 122 -14 148 -26l-20 -74c-49 18 -92 21 -123 21c-137 0 -172 -147 -177 -220zM299 341c-87 0 -136 -43 -144 -47v-20
c0 -80 17 -202 137 -202c85 0 130 56 130 136c0 77 -29 133 -123 133z" />
    <glyph glyph-name="seven.text" unicode="&#xe007;" horiz-adv-x="495" 
d="M124 491h-85v174h421v-71l-269 -594h-101c88 197 177 393 266 590h-232v-99z" />
    <glyph glyph-name="eight.text" unicode="&#xe008;" horiz-adv-x="575" 
d="M181 504c0 -61 63 -82 143 -119c61 44 82 78 82 115c0 42 -32 97 -116 97c-80 0 -109 -60 -109 -93zM284 71c86 0 135 52 135 115c0 68 -64 98 -178 145c-70 -45 -89 -103 -89 -150c0 -60 44 -110 132 -110zM505 510c0 -47 -17 -103 -95 -161c63 -32 114 -88 114 -170
c0 -106 -94 -187 -242 -187c-152 0 -238 72 -238 178c0 64 28 147 120 199c-60 36 -88 72 -88 136c0 98 90 172 217 172c97 0 212 -46 212 -167z" />
    <glyph glyph-name="nine.text" unicode="&#xe009;" horiz-adv-x="575" 
d="M413 292l-5 3c-49 -29 -102 -47 -163 -47c-109 0 -203 62 -203 206c0 139 97 220 234 220c185 0 241 -138 241 -310c0 -213 -83 -370 -277 -370c-71 0 -122 13 -156 24l20 72c54 -15 100 -19 131 -19c137 0 173 148 178 221zM268 324c86 0 136 43 143 47v21
c0 77 -16 199 -137 199c-85 0 -130 -54 -130 -133c0 -77 30 -134 124 -134z" />
    <glyph glyph-name="numbersign.text" unicode="&#xe00a;" horiz-adv-x="556" 
d="M507 404h-77l-34 -153h77l-7 -55h-82l-43 -196h-63l43 196h-132l-44 -196h-63l44 196h-75l8 55h79l34 153h-81l8 54h86l40 174h62l-40 -174h133l40 174h62l-39 -174h71zM235 404l-34 -153h133l33 153h-132z" />
    <glyph glyph-name="dollar.text" unicode="&#xe00b;" horiz-adv-x="575" 
d="M300 -75v810h40v-66c43 -3 90 -14 128 -36v-135h-69v81c-18 8 -37 12 -59 15v-221c86 -31 174 -67 174 -179c0 -109 -71 -169 -174 -185v-84h-40zM267 735v-810h-39v81c-54 5 -104 16 -156 46v137h69v-81c36 -16 58 -20 87 -24v237c-85 28 -155 69 -155 167
c0 100 62 162 155 179v68h39zM426 192c0 51 -36 76 -86 95v-199c49 10 86 42 86 104zM159 497c0 -52 29 -72 69 -89v181c-39 -11 -69 -39 -69 -92z" />
    <glyph glyph-name="euro.text" unicode="&#xe00c;" horiz-adv-x="575" 
d="M367 674c68 0 123 -12 164 -26v-141h-76v73c-24 7 -54 12 -86 12c-112 0 -168 -73 -183 -189h266v-46h-421v46h49c14 130 90 271 287 271zM31 266v45h421v-45h-267c12 -110 59 -190 190 -190c22 0 57 3 92 11v76h76v-144c-45 -16 -124 -27 -183 -27
c-189 0 -271 113 -281 274h-48z" />
    <glyph glyph-name="florin.text" unicode="&#xe00d;" horiz-adv-x="533" 
d="M128 328v69h96c11 120 26 280 187 280c32 0 69 -4 104 -16l-19 -70c-31 7 -44 8 -66 8c-84 0 -90 -68 -107 -202h102v-69h-108c-37 -219 -11 -447 -211 -447c-30 0 -69 4 -103 18l21 70c28 -8 42 -9 60 -9c63 0 85 36 101 123c12 64 23 186 31 245h-88z" />
    <glyph glyph-name="sterling.text" unicode="&#xe00e;" horiz-adv-x="575" 
d="M73 368h69l5 101c8 120 66 207 205 207c70 0 130 -16 171 -35v-140h-81v80c-25 7 -51 12 -85 12c-84 0 -107 -50 -112 -130l-5 -95h173v-61h-177l-4 -72c-3 -62 -15 -129 -50 -160h335v-75h-459l1 74c59 30 72 102 75 165l4 68h-65v61z" />
    <glyph glyph-name="cent.text" unicode="&#xe00f;" horiz-adv-x="575" 
d="M285 -57v79c-152 11 -196 115 -196 245c0 101 35 241 196 259v92h51v-90c48 -2 96 -11 134 -26v-137h-76v71c-12 3 -31 5 -43 5c-5 0 -10 -1 -15 -1v-339c46 1 88 11 132 28l23 -70c-40 -23 -97 -36 -155 -38v-78h-51zM196 269c0 -94 30 -147 89 -163v326
c-62 -19 -89 -70 -89 -163z" />
    <glyph glyph-name="yen.text" unicode="&#xe010;" horiz-adv-x="575" 
d="M503 294h-435v44h124c-42 85 -85 167 -126 250h-51v77h214v-77h-59c38 -82 76 -161 115 -242h4l115 242h-61v77h211v-77h-49c-43 -83 -86 -165 -129 -250h127v-44zM68 247h435v-47h-168v-125h79v-75h-261v75h78v125h-163v47z" />
    <glyph glyph-name="slashedzero" unicode="&#xe23f;" horiz-adv-x="575" 
d="M541 330c0 -167 -61 -337 -251 -337c-210 0 -257 164 -257 335c0 158 48 347 258 347c212 0 250 -195 250 -345zM183 116l178 460c-19 12 -42 19 -70 19c-137 0 -155 -155 -155 -268c0 -89 9 -165 47 -211zM437 328c0 67 -4 155 -41 212c-51 -131 -123 -316 -175 -454
c19 -10 42 -15 70 -15c119 0 146 130 146 257z" />
    <glyph glyph-name="schwacyrillic" unicode="&#x4d9;" horiz-adv-x="505" 
d="M247 70c83 0 111 68 116 143h-220c0 -85 24 -143 104 -143zM247 -7c-189 0 -203 164 -203 236v36h321c0 87 -30 157 -132 157c-54 0 -99 -12 -152 -33l-24 64c60 34 124 47 189 47c183 0 226 -115 226 -250c0 -96 -37 -257 -225 -257z" />
    <glyph glyph-name="onehalf" unicode="&#xbd;" horiz-adv-x="850" 
d="M72 265v62h90v264c-26 -3 -69 -9 -95 -13l-11 53l119 35h72v-339h86v-62h-261zM605 704l-302 -725h-67l303 725h66zM773 292c0 -86 -108 -175 -179 -229h129v46h68v-109h-309v54c93 70 206 171 206 232c0 38 -28 54 -72 54c-21 0 -57 -4 -109 -33l-30 52
c56 38 110 48 149 48c89 0 147 -39 147 -115z" />
    <glyph glyph-name="j" unicode="j" horiz-adv-x="300" 
d="M37 412v76h172v-447c0 -147 -49 -219 -198 -271l-32 68c107 63 124 107 124 196v378h-66zM219 625c0 -36 -31 -66 -66 -66c-37 0 -66 30 -66 66c0 37 29 66 66 66c35 0 66 -29 66 -66z" />
    <glyph glyph-name="Dcroat" unicode="&#x110;" horiz-adv-x="692" 
d="M343 0h-301v75h70v262h-66v55h66v219h-66v75h304c231 0 292 -158 292 -341c0 -186 -70 -345 -299 -345zM334 611h-110v-219h133v-55h-133v-261h106c67 0 197 26 197 263c0 241 -117 272 -193 272z" />
    <glyph glyph-name="partialdiff" unicode="&#x2202;" horiz-adv-x="537" 
d="M251 -10c-119 0 -209 78 -209 227c0 139 90 226 205 226c47 0 106 -12 152 -63c-5 182 -85 274 -210 274c-18 0 -34 0 -54 -3l-2 64c26 5 50 6 71 6c204 0 282 -171 282 -373c0 -239 -97 -358 -235 -358zM254 64c105 0 148 119 148 228c-48 63 -96 84 -149 84
c-88 0 -127 -81 -127 -157c0 -112 59 -155 128 -155z" />
    <glyph glyph-name="Eth" unicode="&#xd0;" horiz-adv-x="692" 
d="M343 0h-301v75h70v262h-66v55h66v219h-66v75h304c231 0 292 -158 292 -341c0 -186 -70 -345 -299 -345zM334 611h-110v-219h133v-55h-133v-261h106c67 0 197 26 197 263c0 241 -117 272 -193 272z" />
    <glyph glyph-name="afii10088" unicode="&#x446;" horiz-adv-x="612" 
d="M496 -140v140h-462v73h59v343h-60v73h165v-416h214v343h-48v73h207v-73h-52v-343h60v-213h-83z" />
    <glyph glyph-name="afii10089" unicode="&#x447;" horiz-adv-x="592" 
d="M14 489h177v-134c0 -66 15 -99 79 -99c41 0 85 9 122 28v206h107v-417h67c0 -13 0 -49 1 -63c-35 -14 -73 -19 -96 -19c-56 0 -79 36 -79 83v135c-47 -25 -107 -35 -155 -35c-125 0 -152 74 -152 158v85h-71v72z" />
    <glyph glyph-name="afii10090" unicode="&#x448;" horiz-adv-x="829" 
d="M585 416v72h204v-72h-53v-343h59v-73h-763v73h59v343h-60v72h166v-415h161v343h-45v72h197v-72h-46v-343h165v343h-44z" />
    <glyph glyph-name="afii10091" unicode="&#x449;" horiz-adv-x="831" 
d="M713 -140v140h-681v73h59v343h-60v72h166v-415h161v343h-45v72h197v-72h-46v-343h165v343h-44v72h204v-72h-53v-343h60v-213h-83z" />
    <glyph glyph-name="afii10092" unicode="&#x44a;" horiz-adv-x="650" 
d="M319 489v-190h129c111 0 174 -62 174 -149c0 -96 -70 -150 -165 -150h-244v418h-124v-83h-75v154h305zM424 232h-105v-162h113c52 0 86 28 86 80c0 57 -39 82 -94 82z" />
    <glyph glyph-name="afii10093" unicode="&#x44b;" horiz-adv-x="769" 
d="M564 417h-54v72h161v-412h72v-64c-29 -13 -70 -19 -97 -19c-61 0 -82 32 -82 96v327zM198 489v-191h129c112 0 174 -62 174 -148c0 -96 -71 -150 -164 -150h-243v418h-72v71h176zM303 232h-105v-163h113c53 0 86 29 86 81c0 57 -40 82 -94 82z" />
    <glyph glyph-name="afii10094" unicode="&#x44c;" horiz-adv-x="530" 
d="M198 489v-191h129c112 0 174 -62 174 -148c0 -96 -71 -150 -164 -150h-243v418h-72v71h176zM303 232h-105v-163h113c53 0 86 29 86 81c0 57 -40 82 -94 82z" />
    <glyph glyph-name="afii10095" unicode="&#x44d;" horiz-adv-x="486" 
d="M211 500c186 0 227 -128 227 -243c1 -138 -62 -264 -238 -264c-64 0 -127 16 -172 40l23 65c46 -17 88 -28 137 -28c93 0 139 68 140 156l-185 -5v66l186 -4c-6 86 -44 142 -123 142c-26 0 -51 -3 -78 -10v-71h-73l-1 128c43 18 103 28 157 28z" />
    <glyph glyph-name="afii10096" unicode="&#x44e;" horiz-adv-x="769" 
d="M198 0h-105v417h-70v72h175v-200h90c13 114 79 211 222 211c161 0 219 -124 219 -256c0 -130 -59 -252 -227 -252c-153 0 -210 105 -216 232h-88v-224zM621 243c0 82 -18 178 -111 178c-92 0 -117 -92 -117 -179c0 -91 15 -173 117 -173c91 0 111 89 111 174z" />
    <glyph glyph-name="afii10097" unicode="&#x44f;" horiz-adv-x="549" 
d="M226 489h273v-72h-50v-340h68v-64c-28 -13 -67 -20 -94 -20c-57 0 -80 21 -81 79v128h-90l-86 -161c-16 -29 -36 -49 -76 -49c-20 0 -50 4 -76 13v60l65 8c24 43 58 98 81 141c-74 16 -100 74 -100 128c0 101 76 149 166 149zM256 266h86v153h-93c-51 0 -85 -28 -85 -81
c0 -59 51 -72 92 -72z" />
    <glyph glyph-name="afii10071" unicode="&#x451;" horiz-adv-x="505" 
d="M264 422c-77 0 -110 -67 -114 -131h218c-2 71 -24 131 -104 131zM265 500c189 0 203 -163 203 -235v-48h-320c-1 -88 29 -146 131 -146c55 0 99 11 152 33l27 -67c-61 -32 -127 -46 -192 -46c-183 0 -226 122 -226 252c0 96 40 257 225 257zM395 612
c0 -28 -23 -50 -54 -50c-28 0 -49 22 -49 50s23 50 49 50c31 0 54 -21 54 -50zM202 612c0 -28 -22 -50 -52 -50c-29 0 -51 22 -51 50s24 50 50 50c31 0 53 -21 53 -50z" />
    <glyph glyph-name="afii10099" unicode="&#x452;" horiz-adv-x="568" 
d="M34 525v48h52v69h-79v71h187v-140h202v-48h-202v-107c54 26 104 39 149 39c125 0 184 -76 184 -249c0 -134 -47 -241 -217 -241c-9 0 -14 0 -22 1l1 73c91 3 133 35 133 169c0 135 -45 167 -107 167c-36 0 -84 -15 -121 -33v-344h-108v525h-52z" />
    <glyph glyph-name="afii10101" unicode="&#x454;" horiz-adv-x="471" 
d="M334 217l-185 3c5 -87 38 -151 130 -151c49 0 95 12 141 29l22 -65c-45 -24 -111 -40 -176 -40c-176 0 -226 108 -226 246c0 108 40 261 232 261c54 0 109 -11 152 -28c0 -42 -1 -85 -1 -128h-74v68c-23 7 -43 9 -64 9c-80 0 -129 -46 -136 -144l185 6v-66z" />
    <glyph glyph-name="afii10102" unicode="&#x455;" horiz-adv-x="464" 
d="M30 149h77l3 -62c26 -14 68 -20 99 -20c60 0 108 17 108 65s-43 62 -95 77c-90 26 -184 48 -184 146c0 101 81 144 193 144c57 0 117 -11 161 -37c0 -39 1 -78 2 -118h-79l-2 65c-22 9 -49 14 -75 14c-50 0 -91 -18 -91 -64c0 -39 58 -55 94 -65c81 -23 186 -43 186 -162
c0 -96 -84 -140 -210 -140c-57 0 -132 8 -185 38z" />
    <glyph glyph-name="afii10103" unicode="&#x456;" horiz-adv-x="315" 
d="M104 412h-51v76h157v-411h72v-64c-28 -13 -70 -20 -96 -20c-57 0 -81 21 -82 79v340zM220 625c0 -36 -30 -66 -67 -66c-36 0 -65 30 -65 66c0 37 29 66 65 66c37 0 67 -29 67 -66z" />
    <glyph glyph-name="afii10105" unicode="&#x458;" horiz-adv-x="300" 
d="M37 412v76h172v-447c0 -147 -49 -219 -198 -271l-32 68c107 63 124 107 124 196v378h-66zM219 625c0 -36 -31 -66 -66 -66c-37 0 -66 30 -66 66c0 37 29 66 66 66c35 0 66 -29 66 -66z" />
    <glyph glyph-name="afii10106" unicode="&#x459;" horiz-adv-x="796" 
d="M465 489v-190h130c110 0 173 -62 173 -149c0 -96 -70 -150 -165 -150h-243v418h-128v-44c0 -203 -23 -362 -184 -402l-30 77c100 49 115 127 115 309v60h-75v71h407zM571 232h-106v-162h113c52 0 86 28 86 80c0 57 -39 82 -93 82z" />
    <glyph glyph-name="afii10107" unicode="&#x45a;" horiz-adv-x="816" 
d="M485 489v-193h129c111 0 174 -59 174 -146c0 -96 -70 -150 -165 -150h-243v227h-187v-227h-105v418h-65v71h170v-198h187v127h-68v71h173zM592 229h-107v-159h115c50 0 84 27 84 79c0 57 -39 80 -92 80z" />
    <glyph glyph-name="afii10108" unicode="&#x45b;" horiz-adv-x="608" 
d="M90 529h-52v48h52v69h-70v67h177v-136h205v-48h-205v-122c54 35 119 55 168 55c131 0 150 -81 150 -161v-224h69v-64c-30 -13 -68 -20 -95 -20c-56 0 -80 21 -80 79v204c0 63 -10 102 -80 102c-40 0 -95 -22 -132 -44v-334h-107v529z" />
    <glyph glyph-name="afii10193" unicode="&#x45f;" horiz-adv-x="612" 
d="M579 0h-231v-150h-85v150h-229v72h59v345h-60v72h165v-417h214v345h-48v72h206v-72h-51v-344c16 0 43 -1 60 -1v-72z" />
    <glyph glyph-name="zcaron" unicode="&#x17e;" horiz-adv-x="475" 
d="M437 423l-280 -350h212v75h77v-148h-420v67l280 348h-185v-77h-76v151h392v-66zM398 723l28 -34l-153 -144h-69l-152 146l28 33l158 -100z" />
    <glyph glyph-name="zero.taboldstyle" unicode="&#xe024;" horiz-adv-x="575" 
d="M537 244c0 -116 -66 -251 -249 -251c-190 0 -252 127 -252 250c0 111 56 255 254 255c196 0 247 -147 247 -254zM431 243c0 61 -16 174 -141 174c-122 0 -148 -108 -148 -174c0 -93 36 -171 148 -171c104 0 141 92 141 171z" />
    <glyph glyph-name="one.taboldstyle" unicode="&#xe025;" horiz-adv-x="575" 
d="M250 394l-152 -22c-3 21 -7 41 -11 62l190 57h80v-419h133v-72h-382v72h142v322z" />
    <glyph glyph-name="two.taboldstyle" unicode="&#xe026;" horiz-adv-x="575" 
d="M223 75v-2h206v75h78v-148h-450v67c116 60 307 173 307 269c0 40 -37 77 -108 77c-33 0 -96 -9 -168 -51l-36 64c80 55 161 70 217 70c135 0 203 -65 203 -148c0 -117 -152 -221 -249 -273z" />
    <glyph glyph-name="three.taboldstyle" unicode="&#xe027;" horiz-adv-x="575" 
d="M64 488h399l14 -59c-57 -56 -138 -132 -196 -188c112 -2 210 -59 210 -179c0 -140 -113 -208 -247 -208c-67 0 -146 11 -205 40l24 68c70 -21 121 -28 163 -28c95 0 159 41 159 128c0 68 -51 115 -154 115c-23 0 -42 0 -65 -3c-5 12 -12 41 -16 54c57 56 136 131 193 186
h-200v-83c-19 0 -61 -1 -79 -1v158z" />
    <glyph glyph-name="four.taboldstyle" unicode="&#xe028;" horiz-adv-x="575" 
d="M326 491h110v-417h93v-74h-93v-74h68v-67h-234v67h62v74h-308v69zM332 371h-5l-208 -297h213v297z" />
    <glyph glyph-name="five.taboldstyle" unicode="&#xe029;" horiz-adv-x="575" 
d="M258 187c-36 0 -74 -7 -108 -22l-55 30l22 294h364v-142h-78v68h-202l-12 -168c26 6 54 13 101 13c118 0 222 -61 222 -198c0 -140 -111 -208 -244 -208c-69 0 -152 13 -211 40l25 68c70 -21 119 -29 162 -29c98 0 162 41 162 130c0 85 -67 124 -148 124z" />
    <glyph glyph-name="six.taboldstyle" unicode="&#xe02a;" horiz-adv-x="575" 
d="M322 393c104 0 199 -57 199 -194c0 -130 -93 -206 -229 -206c-186 0 -241 129 -241 291c0 202 82 350 275 350c69 0 122 -17 147 -28l-20 -69c-48 17 -90 21 -121 21c-135 0 -170 -134 -174 -206c53 27 108 41 164 41zM417 194c0 70 -31 124 -121 124
c-80 0 -131 -40 -138 -43v-20c0 -70 13 -185 132 -185c85 0 127 53 127 124z" />
    <glyph glyph-name="seven.taboldstyle" unicode="&#xe02b;" horiz-adv-x="575" 
d="M163 325h-80v165h410v-68l-262 -562h-102l261 556h-227v-91z" />
    <glyph glyph-name="eight.taboldstyle" unicode="&#xe02c;" horiz-adv-x="575" 
d="M190 473c-3 -55 72 -80 136 -108c57 39 79 71 79 104c0 39 -31 89 -111 89c-77 0 -104 -55 -104 -85zM288 70c83 0 129 47 129 105c0 60 -63 96 -170 135c-64 -43 -85 -97 -85 -139c0 -55 43 -101 126 -101zM503 479c0 -44 -16 -96 -89 -150c61 -31 108 -83 108 -160
c0 -99 -91 -177 -236 -177c-148 0 -231 68 -231 168c0 60 28 137 113 187c-57 34 -82 67 -82 127c0 93 88 162 210 162c96 0 207 -43 207 -157z" />
    <glyph glyph-name="nine.taboldstyle" unicode="&#xe02d;" horiz-adv-x="575" 
d="M251 97c-104 0 -199 56 -199 194c0 130 94 206 230 206c186 0 240 -130 240 -291c0 -202 -82 -351 -275 -351c-69 0 -125 15 -151 26l22 70c52 -16 92 -20 123 -20c135 0 170 135 174 207c-53 -28 -108 -41 -164 -41zM156 296c0 -70 31 -124 121 -124c80 0 131 39 138 43
v19c0 71 -13 186 -132 186c-85 0 -127 -54 -127 -124z" />
    <glyph glyph-name="numbersign.taboldstyle" unicode="&#xe02e;" horiz-adv-x="575" 
d="M495 343h-69l-30 -130h69l-6 -46h-75l-39 -167h-56l39 167h-119l-39 -167h-56l39 167h-68l7 46h72l31 130h-73l6 47h78l36 146h55l-35 -146h120l36 146h55l-35 -146h64zM251 343l-30 -130h119l31 130h-120z" />
    <glyph glyph-name="dollar.taboldstyle" unicode="&#xe02f;" horiz-adv-x="575" 
d="M268 624v-688h-39v69c-49 5 -93 14 -140 40v119h64v-68c29 -13 53 -18 76 -21v195c-70 25 -139 65 -139 145c0 84 58 138 139 153v56h39zM295 -64v688h40v-54c38 -3 79 -13 113 -31v-118h-62v68c-14 7 -33 11 -51 13v-182c75 -27 154 -59 154 -154
c0 -93 -64 -145 -154 -159v-71h-40zM171 423c0 -44 25 -60 58 -74v150c-33 -10 -58 -33 -58 -76zM407 164c0 42 -31 64 -72 80v-167c45 9 72 34 72 87z" />
    <glyph glyph-name="euro.taboldstyle" unicode="&#xe030;" horiz-adv-x="575" 
d="M56 266h378v-40h-237c11 -93 67 -159 171 -159c18 0 50 2 81 8v54h68v-112c-41 -14 -113 -23 -164 -23c-170 0 -245 96 -254 232h-43v40zM435 301h-379v43h44c12 110 81 229 258 229c62 0 113 -10 150 -23v-123h-72v64c-21 7 -51 9 -80 9c-93 0 -145 -65 -158 -156h237
v-43z" />
    <glyph glyph-name="florin.taboldstyle" unicode="&#xe031;" horiz-adv-x="575" 
d="M161 273v63h91c14 122 31 262 191 262c30 -1 61 -6 89 -15l-17 -68c-25 5 -40 7 -57 7c-93 0 -93 -57 -113 -186h102v-63h-108c-35 -271 -21 -418 -221 -418c-25 1 -52 6 -76 16l18 66c26 -7 40 -10 57 -10c62 0 85 34 97 113c14 70 24 172 31 233h-84z" />
    <glyph glyph-name="sterling.taboldstyle" unicode="&#xe032;" horiz-adv-x="575" 
d="M491 0h-415c0 21 1 44 1 66c49 21 64 81 67 129l4 64h-59v55h63c1 33 3 66 6 96c11 93 62 165 183 165c63 0 117 -14 155 -32v-120h-73v68c-24 5 -48 10 -77 10c-72 0 -95 -41 -99 -105l-4 -82h155v-55h-159c-1 -22 -3 -44 -5 -66c-4 -47 -13 -99 -40 -126h297v-67z" />
    <glyph glyph-name="cent.taboldstyle" unicode="&#xe033;" horiz-adv-x="575" 
d="M270 -35v67c-130 10 -169 98 -169 208c0 85 33 201 169 219v77h50v-77c41 -2 81 -8 115 -21v-119h-70v61c-15 3 -30 4 -45 3v-280c39 1 75 10 112 25l23 -64c-36 -19 -84 -31 -135 -33v-66h-50zM199 241c0 -69 13 -126 71 -136v274c-51 -15 -71 -59 -71 -138z" />
    <glyph glyph-name="yen.taboldstyle" unicode="&#xe034;" horiz-adv-x="575" 
d="M484 248h-393v42h110l-112 208h-46v69h196v-69h-51c34 -66 67 -134 100 -201h1l101 201h-52v69h192v-69h-45l-113 -208h112v-42zM91 213h393v-45h-150v-102h70v-66h-237v66h69v102h-145v45z" />
    <glyph glyph-name="ampersandsmall" unicode="&#xe0fb;" horiz-adv-x="617" 
d="M412 245v62h198v-62h-56c-9 -64 -45 -117 -96 -162c31 -24 73 -51 117 -73l-38 -58c-34 18 -97 52 -139 87c-53 -33 -116 -48 -178 -48c-105 0 -189 49 -189 147c0 64 45 116 131 160c-30 35 -39 68 -39 96c0 64 43 111 126 111c97 0 127 -56 127 -101
c0 -55 -46 -94 -110 -128c34 -45 82 -100 139 -147c33 30 59 69 68 116h-61zM118 142c0 -56 44 -87 101 -87c36 0 87 3 126 32c-58 48 -110 109 -142 155c-48 -25 -85 -57 -85 -100zM249 446c-34 0 -47 -29 -47 -48c0 -20 12 -43 31 -69c38 18 71 39 71 73
c0 27 -21 44 -55 44z" />
    <glyph glyph-name="exclamsmall" unicode="&#xe0fc;" horiz-adv-x="204" 
d="M55 521h95l-2 -206l-9 -178h-70l-10 178zM102 90c34 0 55 -22 55 -49s-23 -50 -54 -50c-34 0 -55 23 -55 50c0 26 21 49 54 49z" />
    <glyph glyph-name="questionsmall" unicode="&#xe0fd;" horiz-adv-x="380" 
d="M194 525c107 0 164 -40 167 -106c0 -75 -64 -106 -105 -144c-42 -32 -65 -58 -65 -88c0 -9 2 -22 7 -50c-18 -1 -62 -4 -80 -6c-6 26 -10 52 -10 66c0 51 32 83 95 129c35 26 58 48 58 78c0 34 -32 50 -79 50c-22 0 -50 -2 -78 -9v-66h-72v120c58 20 119 26 162 26z
M170 88c30 0 55 -22 55 -48c0 -27 -25 -48 -55 -48s-55 21 -55 48c0 26 24 48 55 48z" />
    <glyph glyph-name="Asmall" unicode="&#xe0fe;" horiz-adv-x="594" 
d="M568 0h-202v72h50l-25 70h-194l-24 -70h51v-72h-200v72h47l165 439h123l164 -439h45v-72zM371 207l-44 130l-30 95h-4l-31 -96l-43 -129h152z" />
    <glyph glyph-name="Bsmall" unicode="&#xe0ff;" horiz-adv-x="552" 
d="M494 376c0 -31 -12 -81 -67 -108c62 -21 85 -75 85 -123c0 -88 -77 -145 -172 -145h-299v72h57v367h-54v72h278c115 0 172 -57 172 -135zM312 228h-111v-156h111c67 0 94 36 94 79c0 42 -31 77 -94 77zM299 439h-98v-140h98c59 0 91 27 91 71c0 42 -27 69 -91 69z" />
    <glyph glyph-name="Csmall" unicode="&#xe100;" horiz-adv-x="507" 
d="M455 90l18 -70c-45 -17 -117 -25 -172 -25c-192 0 -254 108 -254 257c0 114 50 267 260 267c62 0 112 -9 151 -22v-137h-80v75c-19 4 -44 6 -69 6c-109 0 -155 -72 -155 -188c0 -120 43 -181 165 -181c29 0 90 6 136 18z" />
    <glyph glyph-name="Dsmall" unicode="&#xe101;" horiz-adv-x="588" 
d="M292 0h-251v72h58v367h-55v72h253c192 0 243 -118 243 -254c0 -139 -59 -257 -248 -257zM284 439h-80v-367h78c50 0 152 13 152 180c0 171 -93 187 -150 187z" />
    <glyph glyph-name="Esmall" unicode="&#xe102;" horiz-adv-x="520" 
d="M485 0h-444v72h55v367h-52v72h429v-136h-79v64h-194v-140l190 5v-74l-190 4v-162h204v66h81v-138z" />
    <glyph glyph-name="Fsmall" unicode="&#xe103;" horiz-adv-x="502" 
d="M276 0h-235v72h56v367h-53v72h429v-136h-79v64h-194v-140l190 5v-73l-190 3v-162h76v-72z" />
    <glyph glyph-name="Gsmall" unicode="&#xe104;" horiz-adv-x="560" 
d="M320 520c61 0 114 -10 154 -21v-131h-81v67c-18 5 -46 8 -70 8c-117 0 -167 -73 -167 -190c0 -106 33 -181 153 -181c23 0 58 4 79 9v127h-69v62h205v-62h-40v-188c-59 -19 -125 -26 -181 -26c-192 0 -254 111 -254 259c0 113 49 267 271 267z" />
    <glyph glyph-name="Hsmall" unicode="&#xe105;" horiz-adv-x="627" 
d="M585 0h-204v72h46v161h-229v-161h48v-72h-204v72h54v367h-54v71h204v-71h-48v-140h229v140h-46v71h204v-71h-55v-367h55v-72z" />
    <glyph glyph-name="Ismall" unicode="&#xe106;" horiz-adv-x="333" 
d="M271 0h-208v72h51v367h-51v72h208v-72h-53v-367h53v-72z" />
    <glyph glyph-name="Jsmall" unicode="&#xe107;" horiz-adv-x="342" 
d="M58 439v72h235v-72h-61c0 -88 -1 -242 -1 -330c0 -134 -79 -206 -221 -244l-22 63c105 49 139 88 139 173l1 338h-70z" />
    <glyph glyph-name="Ksmall" unicode="&#xe108;" horiz-adv-x="571" 
d="M489 443l-161 -135l179 -240h50v-68h-210l-1 68h44l-135 184l-58 -49v-136h47v-67h-202v67h53v376h-53v68h201v-68h-46v-156l181 156h-42v68h203v-68h-50z" />
    <glyph glyph-name="Lsmall" unicode="&#xe109;" horiz-adv-x="500" 
d="M482 0h-441v72h56v367h-53v72h215v-72h-59v-367h201v85h81v-157z" />
    <glyph glyph-name="Msmall" unicode="&#xe10a;" horiz-adv-x="768" 
d="M382 170h4l44 94l119 246h175v-72h-51v-366h51v-72h-199v72h47v288h-4l-44 -91l-101 -204h-78l-103 204l-45 93h-3v-290h46v-72h-198v72h54v366h-54v72h173l118 -238z" />
    <glyph glyph-name="Nsmall" unicode="&#xe10b;" horiz-adv-x="652" 
d="M454 157h4v281h-52v72h202v-72h-52v-438h-97l-198 281l-62 89h-5v-298h52v-72h-204v72h54v366h-54v72h161l189 -265z" />
    <glyph glyph-name="Osmall" unicode="&#xe10c;" horiz-adv-x="599" 
d="M550 254c0 -149 -82 -260 -247 -260c-181 0 -254 103 -254 259c0 143 69 267 254 267c186 0 247 -125 247 -266zM443 253c0 93 -24 195 -140 195c-117 0 -147 -96 -147 -197c0 -120 43 -187 147 -187c96 0 140 84 140 189z" />
    <glyph glyph-name="Psmall" unicode="&#xe10d;" horiz-adv-x="511" 
d="M481 358c0 -68 -44 -159 -178 -159h-106v-127h70v-72h-226v72h53v367h-53v72h253c116 0 187 -56 187 -153zM285 439h-88v-172h92c46 0 88 22 88 87c0 61 -39 85 -92 85z" />
    <glyph glyph-name="Qsmall" unicode="&#xe10e;" horiz-adv-x="600" 
d="M550 254c0 -101 -38 -184 -112 -226c37 -8 83 -19 117 -26c-7 -18 -21 -62 -29 -81l-244 75h1c-168 8 -235 106 -235 256c0 144 71 268 255 268c186 0 247 -125 247 -266zM443 252c0 93 -24 196 -140 196c-118 0 -147 -97 -147 -197c0 -121 43 -187 147 -187
c96 0 140 83 140 188z" />
    <glyph glyph-name="Rsmall" unicode="&#xe10f;" horiz-adv-x="557" 
d="M297 214h-99v-142h59v-72h-213v72h51v367h-51v72h260c117 0 184 -52 184 -147c0 -47 -26 -110 -99 -135c23 -43 62 -116 84 -160l62 -9v-55c-24 -10 -60 -13 -80 -13c-43 0 -57 17 -73 49zM380 364c0 52 -38 75 -90 75h-92v-157h91c47 0 91 18 91 82z" />
    <glyph glyph-name="Ssmall" unicode="&#xe110;" horiz-adv-x="493" 
d="M248 447c-58 0 -97 -25 -97 -75c0 -44 54 -58 117 -74c88 -21 186 -48 186 -152c0 -103 -87 -153 -220 -153c-62 0 -132 11 -193 40v111h79v-57c36 -15 77 -21 107 -21c79 0 118 21 118 78c0 50 -47 64 -111 79c-102 22 -189 54 -189 144c0 93 79 152 202 152
c48 0 115 -9 167 -35v-109h-80v61c-26 9 -60 11 -86 11z" />
    <glyph glyph-name="Tsmall" unicode="&#xe111;" horiz-adv-x="502" 
d="M370 0h-236v72h66v367h-101v-72h-80v144h464v-144h-80v72h-100v-367h67v-72z" />
    <glyph glyph-name="Usmall" unicode="&#xe112;" horiz-adv-x="618" 
d="M535 439v-251c0 -117 -72 -193 -226 -193c-162 0 -226 72 -226 193v251h-49v72h202v-72h-52v-252c0 -82 45 -123 125 -123c78 0 125 41 125 123v252h-52v72h202v-72h-49z" />
    <glyph glyph-name="Vsmall" unicode="&#xe113;" horiz-adv-x="571" 
d="M289 101h3l27 84c28 80 60 173 86 254h-46v71h197v-71h-47c-45 -127 -117 -312 -161 -439h-120c-46 127 -117 311 -163 439h-48v71h202v-71h-48c28 -85 61 -171 93 -263c7 -22 16 -51 25 -75z" />
    <glyph glyph-name="Wsmall" unicode="&#xe114;" horiz-adv-x="824" 
d="M416 307h-5l-27 -83l-68 -224h-119l-125 439h-53v71h207v-71h-50l64 -234l24 -96h4l28 93l69 215l-9 22h-50v71h206v-71h-52l83 -245l24 -80h5l19 78l64 247h-51v71h203v-71h-53l-124 -439h-118l-70 226z" />
    <glyph glyph-name="Xsmall" unicode="&#xe115;" horiz-adv-x="568" 
d="M343 439v72h193v-72h-47l-141 -180l139 -186h54v-73h-225v73h53l-101 138l-99 -138h51v-73h-199v73h51l146 196l-125 170h-59v72h218v-72h-46l92 -124l92 124h-47z" />
    <glyph glyph-name="Ysmall" unicode="&#xe116;" horiz-adv-x="530" 
d="M263 284h8l35 59c19 31 39 65 59 96h-45v71h193v-71h-45c-41 -66 -108 -161 -150 -226v-141h64v-72h-237v72h64v140c-41 65 -107 161 -148 227h-45v71h197v-71h-42c13 -24 32 -54 58 -98z" />
    <glyph glyph-name="Zsmall" unicode="&#xe117;" horiz-adv-x="484" 
d="M443 448l-286 -376h220v73h81v-145h-432v62l287 377h-188v-62h-80v134h398v-63z" />
    <glyph glyph-name="Alphasmall" unicode="&#xe183;" horiz-adv-x="594" 
d="M568 0h-202v72h50l-25 70h-194l-24 -70h51v-72h-200v72h47l165 439h123l164 -439h45v-72zM371 207l-44 130l-30 95h-4l-31 -96l-43 -129h152z" />
    <glyph glyph-name="Betasmall" unicode="&#xe184;" horiz-adv-x="552" 
d="M494 376c0 -31 -12 -81 -67 -108c62 -21 85 -75 85 -123c0 -88 -77 -145 -172 -145h-299v72h57v367h-54v72h278c115 0 172 -57 172 -135zM312 228h-111v-156h111c67 0 94 36 94 79c0 42 -31 77 -94 77zM299 439h-98v-140h98c59 0 91 27 91 71c0 42 -27 69 -91 69z" />
    <glyph glyph-name="Gammasmall" unicode="&#xe185;" horiz-adv-x="496" 
d="M276 0h-235v72h56v367h-53v72h429v-140h-79v68h-194v-367h76v-72z" />
    <glyph glyph-name="Deltasmall" unicode="&#xe186;" horiz-adv-x="585" 
d="M541 57v-57h-507v44l199 467h117zM293 421h-6c-13 -31 -26 -65 -38 -96c-36 -84 -70 -169 -106 -253h291c-34 85 -72 170 -105 256z" />
    <glyph glyph-name="Epsilonsmall" unicode="&#xe187;" horiz-adv-x="520" 
d="M485 0h-444v72h55v367h-52v72h429v-136h-79v64h-194v-140l190 5v-74l-190 4v-162h204v66h81v-138z" />
    <glyph glyph-name="Zetasmall" unicode="&#xe188;" horiz-adv-x="484" 
d="M443 448l-286 -376h220v73h81v-145h-432v62l287 377h-188v-62h-80v134h398v-63z" />
    <glyph glyph-name="Etasmall" unicode="&#xe189;" horiz-adv-x="627" 
d="M585 0h-204v72h46v161h-229v-161h48v-72h-204v72h54v367h-54v71h204v-71h-48v-140h229v140h-46v71h204v-71h-55v-367h55v-72z" />
    <glyph glyph-name="Thetasmall" unicode="&#xe18a;" horiz-adv-x="599" 
d="M193 234v59l211 4v-65zM550 254c0 -149 -82 -260 -247 -260c-181 0 -254 103 -254 259c0 143 69 267 254 267c186 0 247 -125 247 -266zM443 253c0 93 -24 195 -140 195c-117 0 -147 -96 -147 -197c0 -120 43 -187 147 -187c96 0 140 84 140 189z" />
    <glyph glyph-name="Iotasmall" unicode="&#xe18b;" horiz-adv-x="333" 
d="M271 0h-208v72h51v367h-51v72h208v-72h-53v-367h53v-72z" />
    <glyph glyph-name="Kappasmall" unicode="&#xe18c;" horiz-adv-x="571" 
d="M489 443l-161 -135l179 -240h50v-68h-210l-1 68h44l-135 184l-58 -49v-136h47v-67h-202v67h53v376h-53v68h201v-68h-46v-156l181 156h-42v68h203v-68h-50z" />
    <glyph glyph-name="Lambdasmall" unicode="&#xe18d;" horiz-adv-x="590" 
d="M296 412c-1 0 -3 -1 -4 -1l-50 -140l-71 -199h51v-72h-201v72h48c55 148 111 291 166 439h122l164 -439h46v-72h-202v72h50c-25 73 -51 144 -76 215z" />
    <glyph glyph-name="Musmall" unicode="&#xe18e;" horiz-adv-x="768" 
d="M382 170h4l44 94l119 246h175v-72h-51v-366h51v-72h-199v72h47v288h-4l-44 -91l-101 -204h-78l-103 204l-45 93h-3v-290h46v-72h-198v72h54v366h-54v72h173l118 -238z" />
    <glyph glyph-name="Nusmall" unicode="&#xe18f;" horiz-adv-x="652" 
d="M454 157h4v281h-52v72h202v-72h-52v-438h-97l-198 281l-62 89h-5v-298h52v-72h-204v72h54v366h-54v72h161l189 -265z" />
    <glyph glyph-name="Xismall" unicode="&#xe190;" horiz-adv-x="502" 
d="M111 81h279v65h82v-146h-443v146h82v-65zM379 431h-257v-61h-81v141h419v-141h-81v61zM366 230l-231 2v63l231 3v-68z" />
    <glyph glyph-name="Omicronsmall" unicode="&#xe191;" horiz-adv-x="599" 
d="M550 254c0 -149 -82 -260 -247 -260c-181 0 -254 103 -254 259c0 143 69 267 254 267c186 0 247 -125 247 -266zM443 253c0 93 -24 195 -140 195c-117 0 -147 -96 -147 -197c0 -120 43 -187 147 -187c96 0 140 84 140 189z" />
    <glyph glyph-name="Pismall" unicode="&#xe192;" horiz-adv-x="627" 
d="M585 0h-204v72h46v367h-228v-367h48v-72h-205v72h54v367h-54v72h543v-72h-54v-367h54v-72z" />
    <glyph glyph-name="Rhosmall" unicode="&#xe193;" horiz-adv-x="511" 
d="M481 358c0 -68 -44 -159 -178 -159h-106v-127h70v-72h-226v72h53v367h-53v72h253c116 0 187 -56 187 -153zM285 439h-88v-172h92c46 0 88 22 88 87c0 61 -39 85 -92 85z" />
    <glyph glyph-name="Sigmasmall" unicode="&#xe194;" horiz-adv-x="490" 
d="M291 278v-22l-133 -184h226v70h80v-142h-433v61c49 70 98 136 148 205c-49 62 -98 121 -146 182v62h422v-139h-79v68h-214c43 -55 86 -106 129 -161z" />
    <glyph glyph-name="Tausmall" unicode="&#xe195;" horiz-adv-x="502" 
d="M370 0h-236v72h66v367h-101v-72h-80v144h464v-144h-80v72h-100v-367h67v-72z" />
    <glyph glyph-name="Upsilonsmall" unicode="&#xe196;" horiz-adv-x="530" 
d="M263 284h8l35 59c19 31 39 65 59 96h-45v71h193v-71h-45c-41 -66 -108 -161 -150 -226v-141h64v-72h-237v72h64v140c-41 65 -107 161 -148 227h-45v71h197v-71h-42c13 -24 32 -54 58 -98z" />
    <glyph glyph-name="Phismall" unicode="&#xe197;" horiz-adv-x="696" 
d="M656 265c0 -108 -98 -189 -256 -197v-68h-100v68c-170 8 -261 79 -261 193c0 99 100 187 261 195v54h100v-54c173 -8 256 -92 256 -191zM136 261c0 -78 62 -119 164 -126v255c-108 -10 -164 -63 -164 -129zM558 263c0 59 -43 120 -158 127v-255c95 8 158 55 158 128z" />
    <glyph glyph-name="Chismall" unicode="&#xe198;" horiz-adv-x="568" 
d="M343 439v72h193v-72h-47l-141 -180l139 -186h54v-73h-225v73h53l-101 138l-99 -138h51v-73h-199v73h51l146 196l-125 170h-59v72h218v-72h-46l92 -124l92 124h-47z" />
    <glyph glyph-name="Psismall" unicode="&#xe199;" horiz-adv-x="718" 
d="M412 439v-233c89 8 126 46 126 120v185h149v-72h-50v-118c0 -110 -79 -182 -225 -189v-60h57v-72h-216v72h57v61c-153 8 -227 75 -227 195v111h-53v72h153v-188c0 -73 44 -111 127 -117v233h-41v72h185v-72h-42z" />
    <glyph glyph-name="Omegasmall" unicode="&#xe19a;" horiz-adv-x="612" 
d="M487 74l1 -2h85v-72h-223v74c79 19 102 88 102 187c0 100 -30 186 -143 186c-107 0 -148 -80 -148 -185c0 -104 23 -171 99 -188v-74h-223v72h79v2c-43 39 -60 107 -60 185c0 139 73 261 252 261c182 0 251 -118 251 -255c0 -77 -21 -149 -72 -191z" />
    <glyph glyph-name="Alphatonossmall" unicode="&#xe19b;" horiz-adv-x="594" 
d="M568 0h-202v72h50l-25 70h-194l-24 -70h51v-72h-200v72h47l165 439h123l164 -439h45v-72zM371 207l-44 130l-30 95h-4l-31 -96l-43 -129h152zM431 708l-145 -155l-45 30l113 177z" />
    <glyph glyph-name="Epsilontonossmall" unicode="&#xe19c;" horiz-adv-x="520" 
d="M485 0h-444v72h55v367h-52v72h429v-136h-79v64h-194v-140l190 5v-74l-190 4v-162h204v66h81v-138zM386 708l-145 -155l-45 30l113 177z" />
    <glyph glyph-name="Etatonossmall" unicode="&#xe19d;" horiz-adv-x="627" 
d="M585 0h-204v72h46v161h-229v-161h48v-72h-204v72h54v367h-54v71h204v-71h-48v-140h229v140h-46v71h204v-71h-55v-367h55v-72zM440 708l-145 -155l-45 30l113 177z" />
    <glyph glyph-name="Iotatonossmall" unicode="&#xe19e;" horiz-adv-x="333" 
d="M271 0h-208v72h51v367h-51v72h208v-72h-53v-367h53v-72zM290 708l-145 -155l-45 30l113 177z" />
    <glyph glyph-name="Omicrontonossmall" unicode="&#xe19f;" horiz-adv-x="599" 
d="M550 254c0 -149 -82 -260 -247 -260c-181 0 -254 103 -254 259c0 143 69 267 254 267c186 0 247 -125 247 -266zM443 253c0 93 -24 195 -140 195c-117 0 -147 -96 -147 -197c0 -120 43 -187 147 -187c96 0 140 84 140 189zM430 708l-145 -155l-45 30l113 177z" />
    <glyph glyph-name="Ypsilontonossmall" unicode="&#xe1a0;" horiz-adv-x="530" 
d="M263 284h8l35 59c19 31 39 65 59 96h-45v71h193v-71h-45c-41 -66 -108 -161 -150 -226v-141h64v-72h-237v72h64v140c-41 65 -107 161 -148 227h-45v71h197v-71h-42c13 -24 32 -54 58 -98zM408 708l-145 -155l-45 30l113 177z" />
    <glyph glyph-name="Omegatonossmall" unicode="&#xe1a1;" horiz-adv-x="612" 
d="M487 74l1 -2h85v-72h-223v74c79 19 102 88 102 187c0 100 -30 186 -143 186c-107 0 -148 -80 -148 -185c0 -104 23 -171 99 -188v-74h-223v72h79v2c-43 39 -60 107 -60 185c0 139 73 261 252 261c182 0 251 -118 251 -255c0 -77 -21 -149 -72 -191zM448 708l-145 -155
l-45 30l113 177z" />
    <glyph glyph-name="Iotadieresissmall" unicode="&#xe1a2;" horiz-adv-x="333" 
d="M271 0h-208v72h51v367h-51v72h208v-72h-53v-367h53v-72zM314 625c0 -28 -23 -50 -54 -50c-28 0 -49 22 -49 50s23 50 49 50c31 0 54 -21 54 -50zM121 625c0 -28 -22 -50 -52 -50c-29 0 -51 22 -51 50s24 50 50 50c31 0 53 -21 53 -50z" />
    <glyph glyph-name="Ypsilondieresissmall" unicode="&#xe1a3;" horiz-adv-x="530" 
d="M263 284h8l35 59c19 31 39 65 59 96h-45v71h193v-71h-45c-41 -66 -108 -161 -150 -226v-141h64v-72h-237v72h64v140c-41 65 -107 161 -148 227h-45v71h197v-71h-42c13 -24 32 -54 58 -98zM223 625c0 -28 -22 -50 -52 -50c-29 0 -51 22 -51 50s24 50 50 50
c31 0 53 -21 53 -50zM416 625c0 -28 -23 -50 -54 -50c-28 0 -49 22 -49 50s23 50 49 50c31 0 54 -21 54 -50z" />
    <glyph glyph-name="Scaronsmall" unicode="&#xe118;" horiz-adv-x="493" 
d="M248 447c-58 0 -97 -25 -97 -75c0 -44 54 -58 117 -74c88 -21 186 -48 186 -152c0 -103 -87 -153 -220 -153c-62 0 -132 11 -193 40v111h79v-57c36 -15 77 -21 107 -21c79 0 118 21 118 78c0 50 -47 64 -111 79c-102 22 -189 54 -189 144c0 93 79 152 202 152
c48 0 115 -9 167 -35v-109h-80v61c-26 9 -60 11 -86 11zM395 743l28 -34l-153 -144h-69l-152 146l28 33l158 -100z" />
    <glyph glyph-name="OEsmall" unicode="&#xe119;" horiz-adv-x="717" 
d="M416 443v-145c56 0 115 2 170 3v-69c-57 0 -113 0 -170 1v-167h185v71h80v-137h-314c-19 -3 -43 -5 -64 -5c-181 0 -255 100 -255 256c0 144 70 268 255 268c27 0 57 -5 80 -9h286v-135h-79v68h-174zM155 251c0 -114 41 -182 131 -185c8 0 17 0 26 1v381h-11
c-116 -2 -146 -97 -146 -197z" />
    <glyph glyph-name="Zcaronsmall" unicode="&#xe11a;" horiz-adv-x="484" 
d="M443 448l-286 -376h220v73h81v-145h-432v62l287 377h-188v-62h-80v134h398v-63zM401 743l28 -34l-153 -144h-69l-152 146l28 33l158 -100z" />
    <glyph glyph-name="Ydieresissmall" unicode="&#xe11b;" horiz-adv-x="530" 
d="M263 284h8l35 59c19 31 39 65 59 96h-45v71h193v-71h-45c-41 -66 -108 -161 -150 -226v-141h64v-72h-237v72h64v140c-41 65 -107 161 -148 227h-45v71h197v-71h-42c13 -24 32 -54 58 -98zM200 625c0 -28 -22 -50 -52 -50c-29 0 -51 22 -51 50s24 50 50 50
c31 0 53 -21 53 -50zM393 625c0 -28 -23 -50 -54 -50c-28 0 -49 22 -49 50s23 50 49 50c31 0 54 -21 54 -50z" />
    <glyph glyph-name="Agravesmall" unicode="&#xe11c;" horiz-adv-x="594" 
d="M568 0h-202v72h50l-25 70h-194l-24 -70h51v-72h-200v72h47l165 439h123l164 -439h45v-72zM371 207l-44 130l-30 95h-4l-31 -96l-43 -129h152zM303 554l-158 139l63 63l134 -165z" />
    <glyph glyph-name="Aacutesmall" unicode="&#xe11d;" horiz-adv-x="594" 
d="M568 0h-202v72h50l-25 70h-194l-24 -70h51v-72h-200v72h47l165 439h123l164 -439h45v-72zM371 207l-44 130l-30 95h-4l-31 -96l-43 -129h152zM416 684l-157 -139l-40 37l133 165z" />
    <glyph glyph-name="Acircumflexsmall" unicode="&#xe11e;" horiz-adv-x="594" 
d="M568 0h-202v72h50l-25 70h-194l-24 -70h51v-72h-200v72h47l165 439h123l164 -439h45v-72zM371 207l-44 130l-30 95h-4l-31 -96l-43 -129h152zM482 576l-29 -34l-159 100l-158 -100l-28 33l152 146h69z" />
    <glyph glyph-name="Atildesmall" unicode="&#xe11f;" horiz-adv-x="594" 
d="M568 0h-202v72h50l-25 70h-194l-24 -70h51v-72h-200v72h47l165 439h123l164 -439h45v-72zM371 207l-44 130l-30 95h-4l-31 -96l-43 -129h152zM378 588c-63 0 -118 39 -157 39l-57 -39l-33 26c19 53 53 82 94 82c51 0 115 -38 156 -38l56 40l33 -26
c-17 -51 -50 -84 -92 -84z" />
    <glyph glyph-name="Adieresissmall" unicode="&#xe120;" horiz-adv-x="594" 
d="M568 0h-202v72h50l-25 70h-194l-24 -70h51v-72h-200v72h47l165 439h123l164 -439h45v-72zM371 207l-44 130l-30 95h-4l-31 -96l-43 -129h152zM443 645c0 -28 -23 -50 -54 -50c-28 0 -49 22 -49 50s23 50 49 50c31 0 54 -21 54 -50zM250 645c0 -28 -22 -50 -52 -50
c-29 0 -51 22 -51 50s24 50 50 50c31 0 53 -21 53 -50z" />
    <glyph glyph-name="Aringsmall" unicode="&#xe121;" horiz-adv-x="594" 
d="M568 0h-202v72h50l-25 70h-194l-24 -70h51v-72h-200v72h47l165 439h123l164 -439h45v-72zM371 207l-44 130l-30 95h-4l-31 -96l-43 -129h152zM291 550c-65 0 -116 50 -116 111c0 59 51 111 116 111c64 0 112 -51 112 -111c0 -63 -50 -111 -112 -111zM291 717
c-33 0 -59 -27 -59 -59c0 -29 24 -56 59 -56c31 0 55 27 55 56c0 31 -23 59 -55 59z" />
    <glyph glyph-name="AEsmall" unicode="&#xe122;" horiz-adv-x="831" 
d="M11 0v71h51l256 368h-39v71h498v-139h-80v68h-172v-140c53 0 116 1 168 2v-68h-168v-162h183v66h81v-137h-423v71h54v81h-193l-56 -81h50v-71h-210zM421 433h-4c-30 -45 -115 -171 -148 -218h152v218z" />
    <glyph glyph-name="Ccedillasmall" unicode="&#xe123;" horiz-adv-x="507" 
d="M455 90l18 -70c-45 -17 -117 -25 -172 -25c-14 -18 -29 -37 -42 -56c65 -3 108 -30 108 -84c-2 -55 -59 -102 -184 -102v41c71 7 116 25 116 57c0 35 -52 39 -98 39l-14 21l66 87c-155 16 -206 118 -206 254c0 114 50 267 260 267c62 0 112 -9 151 -22v-137h-80v75
c-19 4 -44 6 -69 6c-109 0 -155 -72 -155 -188c0 -120 43 -181 165 -181c29 0 90 6 136 18z" />
    <glyph glyph-name="Egravesmall" unicode="&#xe124;" horiz-adv-x="520" 
d="M485 0h-444v72h55v367h-52v72h429v-136h-79v64h-194v-140l190 5v-74l-190 4v-162h204v66h81v-138zM275 555l-158 139l63 63l134 -165z" />
    <glyph glyph-name="Eacutesmall" unicode="&#xe125;" horiz-adv-x="520" 
d="M485 0h-444v72h55v367h-52v72h429v-136h-79v64h-194v-140l190 5v-74l-190 4v-162h204v66h81v-138zM369 703l-157 -139l-40 37l133 165z" />
    <glyph glyph-name="Ecircumflexsmall" unicode="&#xe126;" horiz-adv-x="520" 
d="M485 0h-444v72h55v367h-52v72h429v-136h-79v64h-194v-140l190 5v-74l-190 4v-162h204v66h81v-138zM448 585l-29 -34l-159 100l-158 -100l-28 33l152 146h69z" />
    <glyph glyph-name="Edieresissmall" unicode="&#xe127;" horiz-adv-x="520" 
d="M485 0h-444v72h55v367h-52v72h429v-136h-79v64h-194v-140l190 5v-74l-190 4v-162h204v66h81v-138zM422 635c0 -28 -23 -50 -54 -50c-28 0 -49 22 -49 50s23 50 49 50c31 0 54 -21 54 -50zM229 635c0 -28 -22 -50 -52 -50c-29 0 -51 22 -51 50s24 50 50 50
c31 0 53 -21 53 -50z" />
    <glyph glyph-name="Igravesmall" unicode="&#xe128;" horiz-adv-x="333" 
d="M271 0h-208v72h51v367h-51v72h208v-72h-53v-367h53v-72zM182 554l-158 139l63 63l134 -165z" />
    <glyph glyph-name="Iacutesmall" unicode="&#xe129;" horiz-adv-x="333" 
d="M271 0h-208v72h51v367h-51v72h208v-72h-53v-367h53v-72zM281 693l-157 -139l-40 37l133 165z" />
    <glyph glyph-name="Icircumflexsmall" unicode="&#xe12a;" horiz-adv-x="333" 
d="M271 0h-208v72h51v367h-51v72h208v-72h-53v-367h53v-72zM357 585l-29 -34l-159 100l-158 -100l-28 33l152 146h69z" />
    <glyph glyph-name="Idieresissmall" unicode="&#xe12b;" horiz-adv-x="333" 
d="M271 0h-208v72h51v367h-51v72h208v-72h-53v-367h53v-72zM318 630c0 -28 -23 -50 -54 -50c-28 0 -49 22 -49 50s23 50 49 50c31 0 54 -21 54 -50zM125 630c0 -28 -22 -50 -52 -50c-29 0 -51 22 -51 50s24 50 50 50c31 0 53 -21 53 -50z" />
    <glyph glyph-name="Ethsmall" unicode="&#xe12c;" horiz-adv-x="581" 
d="M290 0h-250v71h58v175h-54v49h54v145h-55v71h252c191 0 242 -118 242 -254c0 -139 -58 -257 -247 -257zM282 440h-82v-145h105v-49h-105v-175h80c51 0 153 13 153 181c0 171 -93 188 -151 188z" />
    <glyph glyph-name="Ntildesmall" unicode="&#xe12d;" horiz-adv-x="652" 
d="M454 157h4v281h-52v72h202v-72h-52v-438h-97l-198 281l-62 89h-5v-298h52v-72h-204v72h54v366h-54v72h161l189 -265zM398 588c-63 0 -118 39 -157 39l-57 -39l-33 26c19 53 53 82 94 82c51 0 115 -38 156 -38l56 40l33 -26c-17 -51 -50 -84 -92 -84z" />
    <glyph glyph-name="Ogravesmall" unicode="&#xe12e;" horiz-adv-x="599" 
d="M550 254c0 -149 -82 -260 -247 -260c-181 0 -254 103 -254 259c0 143 69 267 254 267c186 0 247 -125 247 -266zM443 253c0 93 -24 195 -140 195c-117 0 -147 -96 -147 -197c0 -120 43 -187 147 -187c96 0 140 84 140 189zM337 554l-158 139l63 63l134 -165z" />
    <glyph glyph-name="Oacutesmall" unicode="&#xe12f;" horiz-adv-x="599" 
d="M550 254c0 -149 -82 -260 -247 -260c-181 0 -254 103 -254 259c0 143 69 267 254 267c186 0 247 -125 247 -266zM443 253c0 93 -24 195 -140 195c-117 0 -147 -96 -147 -197c0 -120 43 -187 147 -187c96 0 140 84 140 189zM438 684l-157 -139l-40 37l133 165z" />
    <glyph glyph-name="Ocircumflexsmall" unicode="&#xe130;" horiz-adv-x="599" 
d="M550 254c0 -149 -82 -260 -247 -260c-181 0 -254 103 -254 259c0 143 69 267 254 267c186 0 247 -125 247 -266zM443 253c0 93 -24 195 -140 195c-117 0 -147 -96 -147 -197c0 -120 43 -187 147 -187c96 0 140 84 140 189zM491 585l-29 -34l-159 100l-158 -100l-28 33
l152 146h69z" />
    </font>
</defs>
</svg>
