<?xml version="1.0" standalone="no"?>
<!DOCTYPE svg PUBLIC "-//W3C//DTD SVG 1.1//EN" "http://www.w3.org/Graphics/SVG/1.1/DTD/svg11.dtd" >
<svg xmlns="http://www.w3.org/2000/svg" xmlns:xlink="http://www.w3.org/1999/xlink" version="1.1">
<metadata>
Created by FontForge 20161116 at Wed Apr 17 14:03:19 2013
 By Jimmy Warting
Copyright (c) 2006 Parachute\u00AE , www.parachute.gr. All rights reserved. Sapient Centro Slab is exclusively licensed to Sapient.
</metadata>
<defs>
<font id="SapientCentroSlab-ThinItalic" horiz-adv-x="1818" >
  <font-face 
    font-family="Sapient Centro Slab Thin"
    font-weight="250"
    font-style="italic"
    font-stretch="normal"
    units-per-em="1000"
    panose-1="2 0 5 6 3 0 0 9 0 4"
    ascent="750"
    descent="-250"
    x-height="487"
    cap-height="682"
    bbox="-239 -252 1760 917"
    underline-thickness="30"
    underline-position="-100"
    slope="-12"
    stemh="39"
    stemv="42"
    unicode-range="U+0020-FB05"
  />
<missing-glyph horiz-adv-x="416" 
d="M0 0v684h416v-684h-416zM209 364l159 294h-320zM225 342l167 -304v610zM48 26h320l-159 293zM24 645v-605l167 302z" />
    <glyph glyph-name="fj" unicode="fj" horiz-adv-x="471" 
d="M428 498l-47 -417c-15 -142 -53 -260 -180 -297l-7 22c110 48 133 157 144 260l42 391h-228c1 5 -41 -339 -41 -334c-20 -154 -33 -333 -181 -333c-22 0 -50 4 -77 11l10 31c29 -6 48 -7 66 -7c72 0 108 58 126 187c55 445 57 447 56 445h-79l2 19l81 18l13 85
c17 120 102 142 178 142c44 0 84 -6 116 -14l-7 -33c-36 6 -78 12 -113 12c-87 0 -124 -35 -135 -128l-9 -69h116c28 0 87 6 140 16z" />
    <glyph glyph-name="ffj" unicode="ffj" horiz-adv-x="735" 
d="M331 712c41 0 82 -6 110 -15c39 41 84 47 133 47c44 0 88 -7 123 -14l-8 -35c-37 7 -79 13 -113 13c-87 0 -126 -28 -138 -128l-11 -92h110c28 0 87 6 140 16l14 -7c-14 -123 -31 -247 -45 -370c-15 -142 -53 -260 -180 -297l-7 23c111 48 132 156 144 258
c14 116 26 230 40 345h-221l-37 -313c-20 -154 -34 -332 -180 -332c-22 0 -52 4 -81 11l10 31c35 -7 50 -7 68 -7c82 0 111 74 127 181c29 194 52 423 52 429c0 1 -1 1 -1 1v-1h-221c-13 -111 -27 -221 -41 -333c-20 -153 -33 -332 -177 -332c-22 0 -52 4 -80 11l10 31
c29 -6 48 -7 66 -7c81 0 108 75 125 182c21 131 56 448 56 448h-79c0 7 1 13 2 20c27 5 53 11 80 17l2 19c15 138 67 200 208 200zM164 488h222c7 51 7 66 13 105c4 24 5 52 17 70c-40 8 -76 10 -89 10c-82 0 -144 -14 -159 -148z" />
    <glyph glyph-name="ff" unicode="ff" horiz-adv-x="559" 
d="M337 711c35 0 78 -6 117 -19c27 32 54 45 106 45c21 0 49 -4 74 -11l-9 -36c-22 6 -50 8 -68 8c-77 0 -103 -42 -127 -210h135l-3 -32h-136c-13 -105 -25 -211 -39 -317c-19 -153 -32 -331 -181 -331c-23 0 -52 4 -80 11l8 29c30 -7 52 -8 70 -8c71 0 112 60 130 189
c17 144 35 284 53 427h-230l-41 -333c-19 -153 -34 -332 -177 -332c-22 0 -52 4 -80 11l10 31c29 -6 48 -7 66 -7c75 0 107 60 127 182c52 421 56 448 56 448h-81c0 7 1 13 2 20c29 5 56 11 85 17c3 14 7 55 7 50c17 130 106 168 206 168zM397 523c6 49 17 103 36 139
c-33 8 -78 13 -99 13c-136 0 -156 -61 -172 -187h230z" />
    <glyph glyph-name="fi" unicode="fi" horiz-adv-x="477" 
d="M379 456h-226c-13 -111 -27 -223 -41 -334c-19 -154 -30 -333 -178 -333c-22 0 -51 4 -79 12c4 10 7 20 10 30c29 -6 48 -7 66 -7c70 0 109 59 126 186c31 232 56 449 55 446h-79l2 20c27 5 56 11 82 17c4 34 10 88 22 120c22 59 68 106 173 106c21 0 83 -4 109 -11
l-9 -36c-22 6 -71 10 -88 10c-84 0 -123 -19 -143 -72c-11 -28 -17 -81 -22 -122h114c29 0 87 6 139 16l14 -7h-1c-18 -146 -36 -308 -55 -462c29 2 59 17 89 34l13 -13c-38 -42 -70 -65 -101 -65s-40 15 -40 40c0 10 1 19 2 29z" />
    <glyph glyph-name="fl" unicode="fl" horiz-adv-x="477" 
d="M400 717l46 11l7 -8c-27 -233 -54 -447 -81 -678c29 2 51 10 86 27l14 -13c-39 -44 -76 -65 -105 -65c-14 0 -36 3 -36 40c0 43 64 559 74 645c-35 6 -72 9 -103 9c-87 0 -123 -26 -136 -125l-9 -72h152c-2 -10 -4 -21 -5 -32h-152c-14 -111 -29 -222 -41 -333
c-19 -172 -38 -333 -184 -333c-23 0 -45 4 -74 12l11 30c28 -6 48 -7 65 -7c78 0 109 68 126 182l57 449h-81l2 20c27 5 55 11 82 17l10 78c16 126 96 152 172 152c14 0 72 -2 103 -6z" />
    <glyph glyph-name="ffi" unicode="ffi" horiz-adv-x="740" 
d="M580 741c44 0 84 -7 115 -13l-6 -33c-38 7 -80 12 -116 12c-80 0 -123 -28 -135 -127l-11 -92h110c29 0 88 6 140 16l14 -7h-1l-55 -455c29 2 58 10 87 27l14 -13c-39 -43 -70 -65 -103 -65c-31 0 -39 18 -39 43c-1 -5 27 224 49 422h-221l-39 -320
c-25 -197 -32 -330 -180 -330c-23 0 -52 4 -80 11c3 11 6 20 10 31c30 -7 50 -8 68 -8c90 0 114 82 126 180c46 370 53 426 53 436h-221c-13 -111 -27 -221 -41 -333c-20 -153 -33 -332 -177 -332c-22 0 -52 4 -80 11c3 11 7 20 10 31c29 -6 48 -7 66 -7
c76 0 111 70 125 182c57 448 55 448 56 448h-79c0 7 1 13 2 20c27 5 53 11 80 17c16 135 54 219 207 219c41 0 85 -6 115 -16c36 35 86 45 137 45zM400 600c3 24 10 47 18 64c-32 8 -78 12 -91 12c-96 0 -150 -35 -163 -188h222z" />
    <glyph glyph-name="ffl" unicode="ffl" horiz-adv-x="739" 
d="M329 711c41 0 80 -6 114 -15c36 36 82 46 128 46c14 0 61 0 92 -4l44 8l12 -6c-29 -241 -56 -459 -86 -698c29 2 57 10 87 27l13 -13c-39 -44 -76 -65 -105 -65c-27 0 -38 10 -38 38c0 11 3 20 4 31c0 -2 49 409 75 638c-35 6 -62 8 -93 8c-124 -5 -127 -47 -149 -218
h152l-6 -32h-151l-42 -349c-19 -152 -28 -304 -176 -304c-23 0 -53 4 -81 12c4 10 7 21 11 32c30 -7 49 -9 68 -9c69 0 110 38 127 184c46 371 52 427 52 434l-1 1v-1h-221c-13 -111 -27 -221 -41 -333c-20 -153 -33 -332 -177 -332c-22 0 -52 4 -80 11l9 31
c29 -6 49 -7 67 -7c74 0 105 60 125 182c52 421 56 448 56 448h-79c0 7 1 13 2 20c27 5 53 11 80 17c16 121 58 218 208 218zM400 600c3 24 10 45 18 62c-31 5 -65 10 -97 10c-87 0 -139 -33 -157 -184h222z" />
    <glyph glyph-name="ft" unicode="ft" horiz-adv-x="587" 
d="M417 594l23 7l-14 -115h147l-3 -32h-146c-4 -33 -46 -336 -46 -362c0 -35 14 -57 57 -57c22 0 55 4 95 16l11 -28c-30 -14 -71 -26 -110 -26c-79 0 -103 40 -94 123l45 334h-231c-13 -111 -27 -221 -41 -332c-19 -154 -30 -333 -178 -333c-22 0 -51 4 -79 12
c4 10 7 20 10 30c29 -6 48 -7 66 -7c70 0 109 59 126 186c31 232 56 447 55 444h-79l2 22c27 5 54 7 80 13c13 132 43 241 168 241c21 0 52 -4 78 -11l-9 -36c-22 6 -51 8 -68 8c-73 0 -111 -40 -127 -206h229z" />
    <glyph glyph-name=".notdef" horiz-adv-x="416" 
d="M0 0v684h416v-684h-416zM209 364l159 294h-320zM225 342l167 -304v610zM48 26h320l-159 293zM24 645v-605l167 302z" />
    <glyph glyph-name="numbersign" unicode="#" horiz-adv-x="482" 
d="M243 0l61 194h-164l-61 -194h-34l62 194h-73l16 32h68l64 194h-76l15 33h72l56 169h34l-57 -169h164l56 169h34l-56 -169h65l-15 -33h-60l-65 -194h69l-17 -32h-63l-62 -194h-33zM216 420l-65 -194h164l65 194h-164z" />
    <glyph glyph-name="dollar" unicode="$" horiz-adv-x="516" 
d="M235 -74l99 799h33l-8 -62c30 -1 79 -12 110 -35l-14 -114h-38l11 91c-20 11 -47 17 -73 20l-34 -274c74 -26 136 -75 136 -148c0 -120 -76 -183 -179 -197l-10 -80h-33zM301 725l-99 -799h-33l10 77c-45 5 -95 20 -133 49c4 37 8 74 13 112h38l-10 -90
c35 -19 67 -25 97 -29c13 99 24 198 37 297c-68 27 -113 60 -113 140c0 108 70 159 152 177l8 66h33zM316 310l-33 -264c76 13 132 59 132 149c0 62 -40 92 -99 115zM150 484c0 -59 33 -80 76 -100c9 78 20 157 29 236c-54 -15 -105 -54 -105 -136z" />
    <glyph glyph-name="percent" unicode="%" horiz-adv-x="760" 
d="M207 669c105 0 126 -80 126 -149c0 -96 -27 -258 -170 -258c-104 0 -132 69 -132 143c0 59 14 264 176 264zM208 631c-131 0 -135 -195 -135 -229c0 -59 23 -102 94 -102c100 0 124 129 124 208c0 57 -13 123 -83 123zM613 696l-364 -719h-38l367 719h35zM639 403
c105 0 126 -80 126 -150c0 -95 -27 -257 -170 -257c-104 0 -132 69 -132 143c0 58 14 264 176 264zM640 365c-131 0 -135 -195 -135 -229c0 -59 23 -102 94 -102c100 0 124 129 124 207c0 58 -13 124 -83 124z" />
    <glyph glyph-name="ampersand" unicode="&#x26;" horiz-adv-x="807" 
d="M366 295v-1c42 10 76 14 114 14c43 0 90 -6 144 -17c9 32 13 68 13 100c0 125 -60 241 -244 241c-183 0 -288 -143 -317 -313l-36 3c25 176 135 347 360 347c196 0 277 -123 277 -273c0 -36 -6 -78 -15 -113c14 -3 26 -5 36 -5c58 0 87 24 114 66l32 -10
c-27 -53 -69 -89 -137 -89c-8 0 -30 1 -55 7c-50 -136 -164 -251 -321 -257c-145 0 -194 96 -194 190c0 183 102 277 185 277c62 0 87 -46 87 -86c0 -26 -10 -53 -43 -81zM322 248l-8 2l-15 26c42 31 74 68 74 100c0 36 -23 53 -51 53c-64 0 -149 -72 -149 -239
c0 -112 63 -162 157 -162c113 0 236 97 284 231c-48 10 -97 15 -138 15c-50 0 -100 -8 -154 -26z" />
    <glyph glyph-name="quoteright" unicode="&#x2019;" horiz-adv-x="181" 
d="M119 663c2 20 23 39 43 39c23 0 40 -19 36 -50c-5 -44 -45 -104 -98 -130l-8 14c26 23 42 51 48 85c-15 7 -24 22 -21 42z" />
    <glyph glyph-name="parenleft" unicode="(" horiz-adv-x="245" 
d="M161 -158l-21 -14c-13 31 -81 142 -81 341c0 312 153 495 191 544l15 -10c-38 -51 -164 -248 -164 -556c0 -169 42 -266 60 -305z" />
    <glyph glyph-name="parenright" unicode=")" horiz-adv-x="247" 
d="M-3 -172l-15 14c34 50 168 238 168 560c0 162 -45 267 -62 301l18 10c18 -34 86 -145 86 -330c0 -323 -168 -519 -195 -555z" />
    <glyph glyph-name="asterisk" unicode="*" horiz-adv-x="356" 
d="M350 563l-112 -13l68 -77c-14 -22 -31 -34 -55 -40l-35 104c-19 -35 -38 -68 -58 -103c-22 5 -36 15 -47 39c29 26 58 53 88 78l-105 14c3 29 11 47 29 65c30 -18 58 -36 88 -55l-8 111c12 4 26 7 37 7s22 -3 30 -7l-36 -111l102 51c13 -12 17 -24 17 -38
c0 -7 -1 -16 -3 -25z" />
    <glyph glyph-name="plus" unicode="+" horiz-adv-x="516" 
d="M444 276h-157l-20 -167h-41l20 167h-159l5 42h159l20 159h42l-20 -159h157z" />
    <glyph glyph-name="comma" unicode="," horiz-adv-x="169" 
d="M66 67c20 0 36 -14 36 -40c0 -42 -42 -100 -95 -125l-8 14c23 21 40 41 46 74c-14 5 -21 17 -21 32c0 24 18 45 42 45z" />
    <glyph glyph-name="hyphen" unicode="-" horiz-adv-x="337" 
d="M292 237h-241l6 47h241z" />
    <glyph glyph-name="period" unicode="." horiz-adv-x="167" 
d="M61 66c21 0 33 -15 33 -33c0 -23 -22 -43 -42 -43c-19 0 -32 15 -32 34c0 23 17 42 41 42z" />
    <glyph glyph-name="slash" unicode="/" horiz-adv-x="298" 
d="M352 704l-338 -735h-32l339 735h31z" />
    <glyph glyph-name="zero" unicode="0" horiz-adv-x="516" 
d="M304 673c169 0 192 -151 192 -273c0 -162 -50 -407 -252 -407c-155 0 -194 114 -198 234c0 99 16 446 258 446zM307 634c-216 0 -217 -352 -217 -412c3 -109 39 -192 160 -192c162 0 205 229 205 370c0 104 -25 234 -148 234z" />
    <glyph glyph-name="one" unicode="1" horiz-adv-x="516" 
d="M291 602l-163 -27l-3 31l174 56h42l-77 -622h132l-4 -40h-318l5 40h142z" />
    <glyph glyph-name="two" unicode="2" horiz-adv-x="516" 
d="M408 0h-400l4 37c143 121 390 319 390 479c0 80 -56 114 -133 114c-29 0 -87 -6 -172 -57l-20 31c86 61 160 70 199 70c97 0 173 -46 173 -147c0 -185 -249 -382 -378 -486h300l12 102h42z" />
    <glyph glyph-name="three" unicode="3" horiz-adv-x="516" 
d="M185 -9c-87 0 -142 15 -183 37l14 30c83 -29 129 -29 167 -29c110 0 206 68 206 171c0 91 -74 146 -169 146c-17 0 -34 -1 -49 -3l-7 36c184 48 228 101 228 160c0 52 -37 99 -130 99c-44 0 -95 -11 -167 -43l-15 29c54 35 129 55 184 55c123 0 174 -63 174 -131
s-41 -135 -160 -170c81 -9 154 -73 156 -170c-1 -114 -100 -217 -249 -217z" />
    <glyph glyph-name="four" unicode="4" horiz-adv-x="516" 
d="M400 662h46l-52 -431h93l-5 -41h-94c-6 -50 -12 -100 -19 -150h74l-5 -40h-185l5 40h69c6 50 12 100 19 150h-318l6 45zM82 231h270l45 366h-7c-16 -21 -273 -325 -308 -366z" />
    <glyph glyph-name="five" unicode="5" horiz-adv-x="516" 
d="M274 408c85 0 177 -46 177 -174c0 -169 -131 -243 -245 -243c-79 0 -132 12 -183 37l16 37c79 -29 118 -31 156 -31c120 0 211 61 211 197c0 92 -68 135 -150 135c-38 0 -81 -10 -121 -30l-31 30l38 296h329l-16 -129h-39l10 85h-245l-32 -233c17 5 57 23 125 23z" />
    <glyph glyph-name="six" unicode="6" horiz-adv-x="516" 
d="M116 366l5 -4c33 20 92 49 173 49c93 0 172 -46 172 -173c0 -147 -94 -244 -225 -244c-144 0 -185 95 -185 221c0 259 111 458 286 458c70 0 119 -22 137 -34c-6 -11 -13 -23 -18 -35c-47 22 -91 27 -123 27c-153 0 -209 -194 -222 -265zM288 367
c-84 0 -154 -35 -182 -59c-6 -32 -6 -70 -6 -92c0 -84 23 -183 139 -183c120 0 179 90 179 200c0 81 -32 134 -130 134z" />
    <glyph glyph-name="seven" unicode="7" horiz-adv-x="516" 
d="M494 621l-347 -621h-48l348 618h-283l-13 -104h-42l19 148h371z" />
    <glyph glyph-name="eight" unicode="8" horiz-adv-x="516" 
d="M317 638c-123 0 -157 -101 -157 -137c0 -74 83 -106 169 -141c95 61 122 118 122 166c0 53 -28 112 -134 112zM238 27c129 0 183 90 183 158c0 101 -70 129 -190 176c-112 -56 -150 -138 -150 -204c0 -67 39 -130 157 -130zM324 673c84 0 167 -41 167 -141
c0 -67 -40 -130 -129 -188c66 -35 99 -85 99 -157c0 -94 -78 -194 -228 -194c-137 0 -193 74 -193 159c0 88 53 174 161 226c-53 31 -80 71 -80 121c0 89 83 174 203 174z" />
    <glyph glyph-name="nine" unicode="9" horiz-adv-x="516" 
d="M417 301l-3 4c-27 -16 -64 -35 -110 -45c-18 -3 -40 -6 -64 -6c-94 0 -171 46 -171 172c0 147 98 247 233 247s177 -96 177 -223c0 -259 -111 -455 -288 -455c-69 0 -129 21 -146 33c6 11 11 23 17 35c48 -22 101 -27 134 -27c154 0 210 195 221 265zM247 298
c114 0 183 58 181 57c4 41 6 62 6 97c0 83 -24 178 -139 178c-119 0 -181 -87 -181 -201c0 -79 36 -131 133 -131z" />
    <glyph glyph-name="colon" unicode=":" horiz-adv-x="162" 
d="M66 70c20 0 33 -14 33 -32c0 -24 -16 -45 -41 -45c-20 0 -32 15 -32 34c0 23 18 43 40 43zM107 394c19 0 33 -13 33 -31c0 -23 -20 -45 -42 -45c-20 0 -33 17 -33 36c0 22 21 40 42 40z" />
    <glyph glyph-name="less" unicode="&#x3c;" horiz-adv-x="516" 
d="M425 87l-333 191l5 36l379 189l-7 -50l-329 -158c-7 3 297 -166 290 -163z" />
    <glyph glyph-name="equal" unicode="=" horiz-adv-x="516" 
d="M463 348h-377l6 42h376zM446 214h-376l5 41h376z" />
    <glyph glyph-name="greater" unicode="&#x3e;" horiz-adv-x="516" 
d="M447 278l-377 -191l5 50l332 162c7 -4 -300 162 -293 159l6 45l332 -189z" />
    <glyph glyph-name="question" unicode="?" horiz-adv-x="391" 
d="M258 700c105 0 156 -39 156 -109c0 -78 -54 -124 -115 -168c-115 -83 -146 -133 -146 -204c0 -16 1 -34 1 -56l-35 -9c-3 24 -4 45 -4 63c0 81 28 137 152 226c64 47 106 83 106 145c-4 53 -49 72 -110 72c-38 0 -88 -7 -135 -22l-11 -97h-38l16 131c54 18 117 28 163 28
zM143 68c20 0 32 -16 32 -35c0 -24 -21 -42 -41 -42c-19 0 -33 14 -33 33c0 24 20 44 42 44z" />
    <glyph glyph-name="at" unicode="@" horiz-adv-x="877" 
d="M472 572c31 0 58 -6 95 -18l22 22l14 -4l-26 -146c-9 -51 -21 -109 -21 -150c0 -52 17 -84 69 -84c51 0 163 62 163 233c0 165 -107 260 -279 260c-224 0 -396 -171 -396 -380c0 -176 117 -300 283 -300c27 0 73 2 119 17l8 -26c-30 -12 -85 -20 -128 -20
c-193 0 -316 138 -316 327c0 232 196 413 427 413c197 0 316 -113 316 -287c0 -185 -117 -266 -206 -266c-75 0 -92 53 -92 104c0 12 2 25 3 35h-3c-16 -39 -34 -68 -52 -90c-35 -39 -70 -52 -102 -52c-56 0 -97 45 -97 140c0 146 67 272 199 272zM379 194
c47 0 109 50 161 210c7 38 13 78 21 116c-38 16 -72 20 -94 20c-124 0 -156 -147 -156 -236c0 -74 28 -110 68 -110z" />
    <glyph glyph-name="A" unicode="A" horiz-adv-x="602" 
d="M558 0h-170l4 39h70l-26 150h-273l-63 -150h73l-4 -39h-175l4 39h57c94 218 182 426 278 644h53l123 -644h53zM428 232l-60 334l-13 71h-2c-2 -4 -2 -9 -29 -72c-25 -57 -67 -153 -141 -333h245z" />
    <glyph glyph-name="B" unicode="B" horiz-adv-x="555" 
d="M417 356c76 -22 100 -86 100 -150c0 -140 -109 -206 -201 -206h-303c2 13 3 26 4 39h66c24 202 50 402 75 604h-62c2 13 3 26 4 39h264c117 0 169 -62 169 -149c0 -67 -28 -136 -116 -177zM340 334h-179c-12 -99 -23 -196 -36 -295h179c118 0 170 74 170 169
c0 68 -43 126 -134 126zM358 643h-158c-12 -89 -22 -179 -33 -268h158c106 0 168 65 168 154c0 66 -40 114 -135 114z" />
    <glyph glyph-name="C" unicode="C" horiz-adv-x="518" 
d="M472 57l9 -34c-42 -17 -121 -30 -177 -30c-164 0 -243 93 -243 269c0 142 44 430 317 430c74 0 126 -13 158 -27l-16 -137h-39l13 108c-29 10 -75 17 -119 17c-177 0 -271 -164 -271 -395c0 -124 52 -226 208 -226c38 0 102 6 160 25z" />
    <glyph glyph-name="D" unicode="D" horiz-adv-x="600" 
d="M340 682c177 0 232 -119 232 -271c0 -218 -83 -411 -311 -411h-247l4 39h65l75 604h-62l4 39h240zM329 643h-127l-74 -603h122c54 0 279 -3 279 360c0 245 -142 243 -200 243z" />
    <glyph glyph-name="E" unicode="E" horiz-adv-x="508" 
d="M14 0l4 39h63l75 604h-59l4 38h419l-14 -124h-39l11 86h-280l-33 -264l281 7l-5 -48l-280 4l-37 -303h301l10 86h42l-15 -125h-448z" />
    <glyph glyph-name="F" unicode="F" horiz-adv-x="481" 
d="M218 39l-4 -39h-200l4 39h63l75 604h-59l4 38h414l-15 -124h-38l11 86h-275l-33 -264l276 7l-5 -48l-275 4l-37 -303h94z" />
    <glyph glyph-name="G" unicode="G" horiz-adv-x="576" 
d="M394 692c72 0 124 -13 155 -27l-16 -137h-38l13 108c-29 9 -75 17 -119 17c-187 0 -285 -167 -285 -385c0 -130 45 -234 205 -234c39 0 91 5 126 18l32 255h-103l4 39h196l-4 -39h-51l-36 -286c-61 -19 -115 -28 -176 -28c-163 0 -236 100 -236 268c0 151 58 431 333 431
z" />
    <glyph glyph-name="H" unicode="H" horiz-adv-x="626" 
d="M562 0h-164l4 40h60l37 300h-341l-38 -300h61l-4 -40h-163l4 40h59l74 603h-59l5 39h163l-4 -39h-61l-32 -261h342l32 261h-60l4 39h164l-4 -39h-60l-75 -603h61z" />
    <glyph glyph-name="I" unicode="I" horiz-adv-x="297" 
d="M204 0h-161l4 39h58l75 604h-58l4 39h161l-4 -39h-61l-74 -604h60z" />
    <glyph glyph-name="J" unicode="J" horiz-adv-x="294" 
d="M185 643h-101l4 39h234l-4 -39h-90l-67 -527c-19 -159 -77 -240 -220 -289l-12 32c130 56 173 120 188 240z" />
    <glyph glyph-name="K" unicode="K" horiz-adv-x="574" 
d="M543 645l-258 -232l208 -374h59l-4 -39h-168l3 39h63l-192 346l-101 -91l-32 -256h63l-4 -38h-166l4 38h60l75 607h-60l4 38h164l-4 -38h-61l-37 -296l328 296h-67l4 38h175l-4 -38h-52z" />
    <glyph glyph-name="L" unicode="L" horiz-adv-x="489" 
d="M273 681l-4 -38h-71l-75 -604h295l15 118h42l-19 -157h-442l4 39h63l75 604h-59l4 38h172z" />
    <glyph glyph-name="M" unicode="M" horiz-adv-x="780" 
d="M373 111h6c25 45 49 92 74 137c18 32 134 241 151 273l88 161h106c-1 -13 -2 -26 -4 -39h-59c-25 -202 -51 -403 -75 -605h60c-2 -12 -3 -26 -4 -38h-165c2 12 3 26 4 38h63c23 185 46 369 68 554h-1l-64 -119c-39 -69 -76 -137 -115 -207l-114 -205h-44l-55 177l-75 243
l-33 111h-2c-22 -185 -45 -369 -66 -554h63c-2 -12 -3 -26 -4 -38h-163c2 12 3 26 4 38h58l75 605h-58c2 13 2 26 4 39h102c17 -54 34 -107 50 -160z" />
    <glyph glyph-name="N" unicode="N" horiz-adv-x="661" 
d="M498 88h5l69 555h-69l4 39h173l-4 -39h-63c-26 -214 -52 -429 -79 -643h-38l-133 266l-109 218l-59 121c-1 0 -2 -1 -3 -1l-68 -565h68l-4 -39h-175l4 39h65l75 604h-65l4 39h110c38 -75 74 -150 112 -225c26 -52 161 -328 180 -369z" />
    <glyph glyph-name="O" unicode="O" horiz-adv-x="616" 
d="M367 692c175 0 220 -125 220 -271c0 -234 -100 -428 -294 -428c-170 0 -233 96 -233 257c0 207 80 442 307 442zM369 653c-206 0 -268 -223 -268 -404c0 -144 58 -217 191 -217c181 0 253 193 253 388c0 118 -31 233 -176 233z" />
    <glyph glyph-name="P" unicode="P" horiz-adv-x="513" 
d="M198 0h-184l4 39h60l75 604h-61l5 39h253c94 0 170 -50 170 -168c0 -87 -46 -223 -211 -223h-157l-32 -252h82zM157 331h156c69 0 163 39 163 180c0 89 -51 132 -124 132h-157z" />
    <glyph glyph-name="Q" unicode="Q" horiz-adv-x="614" 
d="M367 692c175 0 220 -125 220 -271c0 -190 -67 -354 -197 -409l145 -38l-26 -50l-210 69c-174 -2 -239 94 -239 257c0 207 80 442 307 442zM369 653c-206 0 -268 -223 -268 -404c0 -144 58 -217 191 -217c181 0 253 193 253 388c0 118 -31 233 -176 233z" />
    <glyph glyph-name="R" unicode="R" horiz-adv-x="552" 
d="M200 0h-187l4 39h61l75 604h-61l4 39h252c95 0 171 -41 171 -162c0 -84 -39 -180 -155 -204l86 -276l71 -9l1 -26c-18 -6 -54 -11 -71 -11c-30 0 -34 16 -42 40l-88 277h-167l-33 -272h83zM159 351h159c71 0 159 31 159 164c0 94 -51 128 -126 128h-156z" />
    <glyph glyph-name="S" unicode="S" horiz-adv-x="483" 
d="M27 163h39l-12 -93c46 -25 100 -35 151 -35c117 0 207 50 207 161c0 89 -63 111 -142 134c-101 28 -188 54 -188 167c0 131 106 195 210 195c49 0 119 -8 169 -38l-16 -120h-39l13 97c-46 17 -83 21 -127 21c-87 0 -169 -47 -169 -152c0 -77 74 -103 140 -124
c87 -28 190 -44 190 -176c0 -153 -130 -206 -250 -206c-69 0 -137 14 -190 52z" />
    <glyph glyph-name="T" unicode="T" horiz-adv-x="486" 
d="M529 682l-15 -136h-40l11 97h-167l-74 -604h82l-4 -39h-203l4 39h79l75 604h-170l-12 -97h-38l16 136h456z" />
    <glyph glyph-name="U" unicode="U" horiz-adv-x="651" 
d="M572 643h-71l4 39h174l-4 -39h-61l-50 -401c-18 -147 -98 -249 -257 -249c-174 0 -233 100 -214 254l49 396h-60l5 39h174l-4 -39h-71l-50 -399c-17 -139 36 -211 166 -211c127 0 204 72 220 211z" />
    <glyph glyph-name="V" unicode="V" horiz-adv-x="569" 
d="M269 57h4l51 128l192 459h-61l4 38h163l-4 -38h-60l-273 -644h-46l-116 644h-60l5 38h164l-4 -38h-63l83 -462z" />
    <glyph glyph-name="W" unicode="W" horiz-adv-x="831" 
d="M780 644h-70l4 38h171l-4 -38h-60l-230 -644h-44l-70 432l-15 101h-2l-41 -106l-175 -427h-46l-75 644h-59l4 38h173l-4 -38h-73l53 -489l10 -92h2l37 95l182 453l-4 33h-71l4 38h183l-4 -38h-73l82 -500l11 -83h2l33 95z" />
    <glyph glyph-name="X" unicode="X" horiz-adv-x="571" 
d="M281 355l-136 289h-56l4 38h170l-4 -38h-70l117 -253l180 253h-71l4 38h182l-4 -38h-59l-211 -292l145 -312h61l-4 -40h-181l4 40h78l-129 276l-193 -276h80l-4 -40h-190l4 40h60z" />
    <glyph glyph-name="Y" unicode="Y" horiz-adv-x="517" 
d="M271 354h4l190 290h-66l4 38h162l-4 -38h-51l-218 -328l-34 -277h79l-4 -39h-202l4 39h81l33 274l-133 331h-53l5 38h157l-4 -38h-64z" />
    <glyph glyph-name="Z" unicode="Z" horiz-adv-x="465" 
d="M421 0h-428l4 39l439 604h-302l-11 -97h-39l16 136h387l-4 -39l-438 -603h339l14 105h41z" />
    <glyph glyph-name="bracketleft" unicode="[" horiz-adv-x="217" 
d="M137 -160h-135l105 855h135c-1 -12 -2 -24 -4 -36h-95c-33 -260 -64 -524 -97 -782h96z" />
    <glyph glyph-name="backslash" unicode="\" horiz-adv-x="298" 
d="M238 -49l-170 769h31l171 -769h-32z" />
    <glyph glyph-name="bracketright" unicode="]" horiz-adv-x="217" 
d="M119 -160h-136l5 34h94l96 785h-95l4 36h137z" />
    <glyph glyph-name="asciicircum" unicode="^" horiz-adv-x="401" 
d="M400 398h-38l-108 248l-170 -248h-39l197 285h34z" />
    <glyph glyph-name="underscore" unicode="_" horiz-adv-x="485" 
d="M444 -123h-484l4 31h484z" />
    <glyph glyph-name="quoteleft" unicode="&#x2018;" horiz-adv-x="181" 
d="M177 561c-3 -20 -25 -39 -44 -39c-23 0 -42 19 -37 50c6 44 46 104 98 130l9 -14c-25 -23 -42 -51 -48 -85c14 -7 24 -22 22 -42z" />
    <glyph glyph-name="a" unicode="a" horiz-adv-x="503" 
d="M279 492c36 0 73 -9 116 -24l26 26l15 -2c-24 -155 -52 -346 -60 -450c28 2 64 18 93 36c5 -5 8 -11 12 -16c-35 -38 -84 -71 -111 -71c-46 0 -41 43 -36 79c3 28 9 67 15 94h-4c-57 -137 -130 -171 -187 -171c-69 0 -118 54 -118 169c0 177 80 330 239 330zM167 32
c57 0 132 61 196 255c7 47 15 94 23 141c-46 19 -86 25 -113 25c-150 0 -189 -179 -189 -286c0 -92 33 -135 83 -135z" />
    <glyph glyph-name="b" unicode="b" horiz-adv-x="461" 
d="M302 495c69 0 119 -54 119 -170c0 -177 -81 -329 -238 -329c-46 0 -90 10 -147 36l-3 6c30 212 54 407 78 630l-102 15l2 22c39 9 80 15 115 15c20 0 29 -12 29 -27c0 -21 -30 -302 -44 -371h4c57 139 130 173 187 173zM294 456c-57 0 -132 -61 -197 -255l-20 -142
c45 -19 84 -24 111 -24c150 0 189 178 189 286c0 91 -33 135 -83 135z" />
    <glyph glyph-name="c" unicode="c" horiz-adv-x="418" 
d="M198 31c48 0 102 12 146 34l14 -27c-40 -23 -99 -44 -160 -44c-115 0 -158 72 -158 178c0 101 34 324 242 324c43 0 80 -11 98 -18c17 -7 27 -14 23 -35c-1 -10 -17 -67 -31 -101l-22 1l7 102c-22 8 -54 13 -84 13c-127 0 -193 -135 -193 -289c0 -78 27 -138 118 -138z
" />
    <glyph glyph-name="d" unicode="d" horiz-adv-x="506" 
d="M279 492c32 0 72 -9 110 -21l22 196l-102 15c0 7 1 16 2 23c39 9 80 14 115 14c22 0 32 -10 32 -27c0 -10 -4 -40 -8 -66l-71 -584c29 2 64 17 93 35l13 -15c-35 -37 -84 -71 -111 -71c-31 0 -44 13 -40 53c3 31 10 80 17 120h-4c-57 -137 -132 -171 -189 -171
c-69 0 -118 54 -118 169c0 177 80 330 239 330zM167 32c57 0 135 61 199 255l19 141c-45 19 -85 25 -112 25c-150 0 -189 -179 -189 -286c0 -92 33 -135 83 -135z" />
    <glyph glyph-name="e" unicode="e" horiz-adv-x="431" 
d="M194 -6c-123 0 -154 86 -154 187c0 121 47 316 242 316c89 0 119 -58 119 -113c0 -138 -156 -172 -318 -183c-1 -8 -1 -19 -1 -28c0 -63 20 -142 118 -142c51 0 97 13 148 37l13 -28c-34 -23 -100 -46 -167 -46zM87 242c174 9 270 50 270 137c0 46 -22 79 -80 79
c-109 0 -174 -84 -190 -216z" />
    <glyph glyph-name="f" unicode="f" horiz-adv-x="284" 
d="M281 730c21 0 52 -4 78 -11l-9 -36c-22 6 -51 8 -68 8c-73 0 -112 -38 -125 -203h134l-4 -32h-136c-13 -111 -27 -223 -41 -334c-19 -154 -30 -333 -178 -333c-22 0 -51 4 -79 12c4 10 7 20 10 30c29 -6 48 -7 66 -7c70 0 109 59 126 186c31 232 56 449 55 446h-79l2 20
c27 5 54 11 80 17l3 20c14 126 51 217 165 217z" />
    <glyph glyph-name="g" unicode="g" horiz-adv-x="468" 
d="M277 492c46 0 89 -11 147 -37l3 -6c-17 -136 -33 -267 -53 -404c-16 -108 -19 -262 -221 -262c-53 0 -104 17 -130 31l16 35c34 -17 78 -27 119 -27c146 0 162 105 176 219l17 125c-1 0 -3 0 -4 -1c-57 -138 -132 -173 -189 -173c-69 0 -119 54 -119 169
c0 177 81 331 238 331zM166 31c57 0 132 61 196 254c8 48 14 96 21 143c-45 19 -84 25 -111 25c-149 0 -188 -180 -188 -287c0 -92 33 -135 82 -135z" />
    <glyph glyph-name="h" unicode="h" horiz-adv-x="525" 
d="M347 495c67 0 88 -42 88 -97c0 -26 -5 -85 -36 -356c29 2 56 10 86 28l13 -14c-39 -42 -75 -65 -105 -65c-25 0 -36 14 -36 40c0 8 1 17 2 27c33 282 34 314 34 334c0 36 -13 65 -48 65c-58 0 -147 -68 -208 -257l-28 -200h-42c21 151 66 547 79 667l-100 15l3 22
c38 9 79 15 115 15c18 0 29 -4 29 -19c0 -30 -34 -317 -43 -377h4c59 133 150 172 193 172z" />
    <glyph glyph-name="i" unicode="i" horiz-adv-x="249" 
d="M148 496c21 0 30 -4 30 -20c0 4 -55 -442 -54 -434c28 2 57 10 87 28l13 -14c-40 -44 -75 -65 -105 -65c-28 0 -36 18 -36 41c0 8 1 17 2 26l48 386l-89 15l1 23c39 8 76 14 103 14zM168 636c16 0 29 -12 29 -29c0 -19 -15 -37 -35 -37c-15 0 -29 13 -29 28
c0 20 17 38 35 38z" />
    <glyph glyph-name="j" unicode="j" horiz-adv-x="236" 
d="M149 496c20 0 30 -6 29 -23c-2 -37 -33 -290 -44 -386c-17 -145 -50 -264 -178 -302l-8 25c107 47 131 153 142 257c14 130 30 251 42 377l-90 15l1 22c39 9 79 15 106 15zM163 636c16 0 30 -13 30 -29c0 -19 -16 -38 -36 -38c-14 0 -28 13 -28 29c0 19 16 38 34 38z" />
    <glyph glyph-name="k" unicode="k" horiz-adv-x="418" 
d="M354 497c36 0 58 -20 58 -51c-8 -7 -15 -12 -23 -18c-17 13 -33 18 -52 18c-70 0 -114 -64 -162 -126c48 -102 136 -263 156 -281c39 8 63 30 82 45l13 -14c-41 -63 -76 -79 -97 -79c-37 0 -89 100 -184 289c-32 -44 -41 -60 -60 -104l-23 -176h-44c34 228 59 428 88 669
l-88 11c1 7 0 15 1 22c31 8 77 20 111 20c16 0 25 -8 22 -27c-6 -40 -38 -275 -58 -431h3c59 108 167 233 257 233z" />
    <glyph glyph-name="l" unicode="l" horiz-adv-x="245" 
d="M164 720c19 0 30 -5 30 -20c0 -36 -61 -506 -79 -658c28 2 56 10 86 28l13 -14c-40 -44 -76 -65 -105 -65c-25 0 -36 11 -36 40c0 8 1 17 2 27l73 610l-100 15l2 22c38 9 87 15 114 15z" />
    <glyph glyph-name="m" unicode="m" horiz-adv-x="767" 
d="M416 319l2 -2c50 126 134 180 177 180c68 0 88 -41 88 -96c0 -27 -5 -86 -35 -357c28 2 56 10 86 28l13 -14c-40 -42 -76 -65 -105 -65c-26 0 -37 14 -37 41c0 8 1 17 2 26c36 306 34 318 34 337c0 35 -15 62 -49 62c-56 0 -127 -71 -188 -257c-6 -35 -5 -43 -24 -202
h-42c-1 -5 13 110 12 108c30 254 28 268 28 287c0 35 -15 62 -48 62c-57 0 -126 -66 -187 -256l-28 -201h-42c21 151 42 335 55 444l-101 15l3 23c38 8 81 14 116 14c19 0 31 -4 31 -19c0 -31 -10 -86 -20 -152h4c58 131 128 170 171 170c70 0 90 -43 89 -101
c0 -12 -2 -33 -5 -75z" />
    <glyph glyph-name="n" unicode="n" horiz-adv-x="525" 
d="M352 495c68 0 89 -41 89 -96c0 -30 -5 -83 -36 -357c28 2 56 10 86 27l13 -13c-36 -42 -73 -65 -101 -65c-29 0 -41 13 -41 40c0 8 1 17 2 27c33 275 34 312 34 331c0 38 -12 67 -48 67c-57 0 -147 -66 -208 -255c-8 -68 -19 -134 -27 -201h-43c21 151 44 334 56 444
l-100 15c1 7 0 15 1 22c39 9 81 15 117 15c22 0 31 -6 31 -24c-2 -28 -10 -83 -20 -148h4c58 131 148 171 191 171z" />
    <glyph glyph-name="o" unicode="o" horiz-adv-x="455" 
d="M265 457c-152 0 -184 -191 -184 -292c0 -69 26 -134 125 -134c148 0 177 185 177 272c0 79 -24 154 -118 154zM265 496c122 0 160 -92 160 -191c0 -119 -39 -312 -226 -312c-124 0 -159 84 -159 183c0 136 54 320 225 320z" />
    <glyph glyph-name="p" unicode="p" horiz-adv-x="492" 
d="M-42 -207c2 13 2 25 4 38h77c25 204 47 406 72 613l-100 15c1 7 0 15 1 22c41 9 82 15 116 15c21 0 32 -6 32 -23c0 -18 -5 -65 -20 -153h4c56 137 131 171 188 171c70 0 119 -55 119 -170c0 -177 -81 -329 -240 -329c-32 0 -71 8 -109 19c-8 -59 -16 -120 -23 -180h96
c-2 -13 -3 -25 -4 -38h-213zM324 452c-57 0 -135 -62 -200 -255l-19 -143c45 -19 86 -24 113 -24c150 0 189 179 189 287c0 92 -33 135 -83 135z" />
    <glyph glyph-name="q" unicode="q" horiz-adv-x="475" 
d="M210 -207l5 38h92c20 186 34 294 42 335c-1 0 -3 0 -4 -1c-57 -138 -130 -172 -187 -172c-69 0 -118 54 -118 169c0 177 80 330 234 330c44 0 91 -11 150 -37c1 -2 2 -4 2 -6c-25 -206 -50 -412 -76 -618h79c-2 -13 -3 -25 -4 -38h-215zM167 32c57 0 131 61 196 254
l20 142c-45 19 -84 25 -111 25c-149 0 -188 -179 -188 -286c0 -92 33 -135 83 -135z" />
    <glyph glyph-name="r" unicode="r" horiz-adv-x="379" 
d="M145 496c21 0 32 -5 32 -22c0 -25 -9 -73 -18 -135h3c50 136 112 158 155 158c38 0 54 -21 54 -46l-15 -13c-21 10 -37 11 -51 11c-59 0 -116 -75 -163 -242l-28 -207h-39c17 144 36 291 55 444l-89 15l2 22c38 9 67 15 102 15z" />
    <glyph glyph-name="s" unicode="s" horiz-adv-x="382" 
d="M152 -6c-109 0 -125 28 -125 57c0 28 16 74 31 109l19 -1l-7 -112c24 -9 52 -14 83 -14c73 0 147 29 147 102c0 55 -50 74 -101 97c-86 40 -144 74 -144 135c0 94 90 129 165 129c66 0 117 -24 117 -53c0 -27 -15 -78 -31 -114l-19 1l7 108c-19 10 -44 18 -77 18
c-59 0 -119 -22 -119 -90c0 -44 60 -71 99 -89c69 -31 140 -65 140 -140c0 -99 -97 -143 -185 -143z" />
    <glyph glyph-name="t" unicode="t" horiz-adv-x="322" 
d="M155 594l23 7l-14 -115h144l-3 -32h-143c-4 -33 -46 -336 -46 -362c0 -35 14 -57 57 -57c22 0 55 4 95 16l11 -28c-30 -14 -71 -26 -110 -26c-79 0 -103 40 -94 123l45 334h-70l2 21l72 17z" />
    <glyph glyph-name="u" unicode="u" horiz-adv-x="525" 
d="M420 487h40c-20 -144 -36 -285 -55 -445c31 2 58 11 85 27c5 -4 9 -8 13 -13c-37 -43 -74 -65 -101 -65c-31 0 -43 14 -43 46c2 28 12 92 18 127h-4c-58 -133 -150 -171 -188 -171c-71 0 -92 39 -92 97c0 25 3 74 35 354l-101 15l2 22c38 9 79 15 114 15
c21 0 31 -5 31 -21c0 -46 -39 -334 -39 -384c0 -41 15 -61 48 -61c57 0 147 67 208 255z" />
    <glyph glyph-name="v" unicode="v" horiz-adv-x="444" 
d="M99 499c25 0 33 -10 35 -46c2 -29 37 -370 40 -404h4c98 111 196 272 197 397c-25 -7 -50 -14 -75 -22c-3 5 -6 12 -8 17c36 40 71 58 90 58c23 0 32 -11 32 -48c0 -159 -142 -364 -236 -454h-33c-18 149 -36 301 -55 451l-72 -22c-3 5 -6 12 -8 17c33 36 69 56 89 56z
" />
    <glyph glyph-name="w" unicode="w" horiz-adv-x="647" 
d="M336 246c-1 0 -1 1 -2 1c-48 -104 -129 -208 -172 -250h-32c-13 149 -27 301 -41 451l-71 -24c-3 5 -6 12 -8 17c30 33 60 56 85 59c24 0 36 -10 38 -47c3 -49 26 -345 29 -395h4c60 72 130 189 164 277c-3 38 -5 75 -9 113c-25 -9 -50 -16 -75 -24c-3 5 -7 11 -9 16
c35 38 73 59 93 59c21 0 33 -10 35 -45l26 -398h4c98 111 181 266 182 390l-77 -24l-9 16c37 40 75 61 93 61c22 0 33 -12 33 -50c0 -151 -134 -364 -225 -452h-35z" />
    <glyph glyph-name="x" unicode="x" horiz-adv-x="419" 
d="M58 -9l-7 -1l-33 20v5l168 223c-27 71 -55 140 -83 210c-26 -10 -51 -20 -77 -29l-9 19c35 34 67 55 87 55c25 0 35 -14 48 -48c20 -54 41 -107 62 -160c44 67 87 136 131 204h6l37 -23v-5c-55 -69 -107 -141 -161 -210l84 -212c30 3 61 15 90 31l9 -14
c-35 -41 -69 -66 -94 -66c-31 0 -38 18 -48 42c-5 14 -62 156 -68 169c-47 -70 -97 -138 -142 -210z" />
    <glyph glyph-name="y" unicode="y" horiz-adv-x="458" 
d="M97 495c23 0 33 -11 40 -45c29 -133 61 -323 82 -461c88 118 164 349 164 454l-77 -23l-8 17c37 39 64 58 86 58c23 0 39 -8 39 -42c0 -230 -221 -683 -463 -683c-47 0 -76 22 -76 54c0 3 1 5 1 8l21 14c24 -19 48 -26 72 -26c63 0 127 39 208 129
c-24 150 -67 400 -91 495l-74 -22l-8 17c34 36 64 56 84 56z" />
    <glyph glyph-name="z" unicode="z" horiz-adv-x="419" 
d="M337 0h-321l-9 34l342 414h-231l-40 -109l-22 2l12 115c3 28 24 31 38 31h278l13 -40l-338 -409h270l36 106l20 -1l-12 -112c-3 -28 -21 -31 -36 -31z" />
    <glyph glyph-name="braceleft" unicode="{" horiz-adv-x="217" 
d="M148 -171h-29c-61 0 -68 54 -63 96l31 247c6 50 10 100 -48 111l4 32c61 12 69 62 75 112l22 180c5 42 27 95 86 95h29l-6 -36h-21c-31 0 -48 -27 -53 -66l-21 -177c-6 -50 -21 -108 -69 -123c46 -30 46 -65 39 -124l-30 -246c-5 -37 -2 -65 33 -65h25z" />
    <glyph glyph-name="bar" unicode="|" horiz-adv-x="190" 
d="M127 -134h-33v829h33v-829z" />
    <glyph glyph-name="braceright" unicode="}" horiz-adv-x="217" 
d="M86 703h29c61 0 68 -54 63 -96l-25 -183c-6 -50 -10 -100 48 -111l-4 -32c-61 -12 -69 -62 -75 -112l-28 -244c-5 -42 -27 -95 -86 -95h-29l6 36h21c31 0 48 27 53 66l27 241c6 50 21 108 69 123c-46 30 -46 65 -39 124l24 182c5 37 2 65 -33 65h-25z" />
    <glyph glyph-name="asciitilde" unicode="~" horiz-adv-x="516" 
d="M195 350c55 0 138 -49 182 -49l73 48l20 -19c-23 -38 -64 -71 -110 -71c-72 0 -123 47 -175 47l-78 -47l-20 21c22 37 63 70 108 70z" />
    <glyph glyph-name="sterling" unicode="&#xa3;" horiz-adv-x="516" 
d="M450 0h-414l5 39c66 21 91 113 103 181l17 103h-69l6 35h69l19 117c16 101 64 191 187 191c49 0 114 -12 147 -31l-15 -115h-37l11 90c-27 10 -61 19 -108 19c-103 0 -130 -70 -146 -157l-19 -114h199l-6 -35h-199l-16 -102c-11 -68 -34 -151 -74 -181h344z" />
    <glyph glyph-name="yen" unicode="&#xa5;" horiz-adv-x="516" 
d="M445 278h-365l4 33h152c-38 104 -78 208 -117 312h-53l6 39h160c-2 -13 -4 -27 -5 -39h-65c35 -96 68 -192 102 -288h4c59 96 118 192 176 288h-66c1 12 3 26 5 39h164c-1 -13 -3 -27 -5 -39h-50l-198 -312h155zM74 228h365l-5 -36h-163c-1 -13 -2 -27 -4 -40l-15 -113
h84c-2 -13 -3 -27 -4 -39h-207c2 12 2 26 4 39h82l14 113l5 40h-161z" />
    <glyph glyph-name="section" unicode="&#xa7;" horiz-adv-x="423" 
d="M350 526l10 79c-22 7 -49 15 -93 15c-60 0 -123 -23 -123 -98c0 -54 56 -82 118 -115c58 -31 115 -66 115 -135c0 -24 -11 -86 -81 -147c45 -28 58 -79 58 -104c0 -112 -90 -167 -175 -167c-51 0 -114 11 -151 25c5 38 10 76 14 114h38l-10 -83c31 -10 72 -16 103 -16
c71 0 138 34 138 123c0 47 -36 75 -78 99c-72 40 -170 70 -170 163c0 43 23 103 81 144c-33 30 -50 55 -50 95c0 96 80 147 178 147c66 0 98 -12 132 -22l-16 -117h-38zM178 399c-43 -33 -70 -76 -70 -120c0 -70 90 -91 156 -130c46 42 68 87 68 116c0 79 -92 96 -154 134z
" />
    <glyph glyph-name="quotesingle" unicode="'" horiz-adv-x="156" 
d="M128 506h-22l10 176h45z" />
    <glyph glyph-name="quotedblleft" unicode="&#x201c;" horiz-adv-x="280" 
d="M177 561c-3 -20 -25 -39 -44 -39c-23 0 -41 19 -37 50c6 44 46 104 99 130l8 -14c-24 -23 -42 -51 -47 -85c14 -7 23 -22 21 -42zM280 561c-4 -20 -24 -39 -44 -39c-23 0 -41 19 -36 50c6 44 46 104 97 130l10 -14c-25 -23 -42 -51 -49 -85c15 -7 24 -22 22 -42z" />
    <glyph glyph-name="guillemotleft" unicode="&#xab;" horiz-adv-x="380" 
d="M227 332l-114 -150l79 -149l-19 -14l-113 144l5 39l146 146zM345 332l-114 -150l79 -149l-19 -14l-113 144l5 39l146 146z" />
    <glyph glyph-name="endash" unicode="&#x2013;" horiz-adv-x="485" 
d="M467 235h-439l5 41h440z" />
    <glyph glyph-name="dagger" unicode="&#x2020;" horiz-adv-x="438" 
d="M428 432h-161l-59 -486h-40l60 486h-162l6 46h161l25 204h40l-25 -204h160z" />
    <glyph glyph-name="periodcentered" unicode="&#xb7;" horiz-adv-x="162" 
d="M98 326c20 0 33 -13 33 -31c0 -24 -20 -45 -41 -45c-19 0 -32 16 -32 35c0 22 19 41 40 41z" />
    <glyph glyph-name="bullet" unicode="&#x2022;" horiz-adv-x="288" 
d="M241 276c0 -53 -45 -98 -98 -98c-52 0 -97 45 -97 98c0 54 45 99 97 99c53 0 98 -45 98 -99z" />
    <glyph glyph-name="quotedblright" unicode="&#x201d;" horiz-adv-x="280" 
d="M226 663c3 20 23 39 42 39c23 0 42 -19 37 -50c-5 -44 -45 -104 -97 -130l-9 14c25 23 42 51 48 85c-15 7 -24 22 -21 42zM104 663c3 20 23 39 43 39c23 0 41 -19 36 -50c-5 -44 -45 -104 -97 -130l-9 14c26 23 42 51 48 85c-14 7 -24 22 -21 42z" />
    <glyph glyph-name="guillemotright" unicode="&#xbb;" horiz-adv-x="360" 
d="M262 182l-77 150l20 16l111 -146l-5 -39l-150 -144l-14 14zM130 182l-77 150l20 16l112 -146l-5 -39l-150 -144l-15 14z" />
    <glyph glyph-name="ellipsis" unicode="&#x2026;" horiz-adv-x="540" 
d="M298 29c-3 -21 -22 -39 -42 -39s-35 18 -31 40c2 20 20 36 40 36c22 0 35 -17 33 -37zM498 29c-3 -21 -24 -39 -42 -39c-20 0 -36 18 -32 40c2 20 21 36 41 36c21 0 35 -17 33 -37zM112 29c-3 -21 -22 -39 -41 -39c-21 0 -35 18 -32 40c2 20 20 36 41 36s35 -17 32 -37z
" />
    <glyph glyph-name="perthousand" unicode="&#x2030;" horiz-adv-x="1118" 
d="M207 669c105 0 126 -80 126 -149c0 -96 -27 -258 -170 -258c-104 0 -132 69 -132 143c0 59 14 264 176 264zM208 631c-131 0 -135 -195 -135 -229c0 -59 23 -102 94 -102c100 0 124 129 124 208c0 57 -13 123 -83 123zM613 696l-364 -719h-38l367 719h35zM639 403
c105 0 126 -80 126 -150c0 -95 -27 -257 -170 -257c-104 0 -132 69 -132 143c0 58 14 264 176 264zM640 365c-131 0 -135 -195 -135 -229c0 -59 23 -102 94 -102c100 0 124 129 124 207c0 58 -13 124 -83 124zM997 403c105 0 126 -80 126 -150c0 -95 -27 -257 -170 -257
c-104 0 -132 69 -132 143c0 58 14 264 176 264zM998 365c-131 0 -135 -195 -135 -229c0 -59 23 -102 94 -102c100 0 124 129 124 207c0 58 -13 124 -83 124z" />
    <glyph glyph-name="grave" unicode="`" horiz-adv-x="446" 
d="M307 552l-29 -17l-103 137l49 35z" />
    <glyph glyph-name="dieresis" unicode="&#xa8;" horiz-adv-x="452" 
d="M382 631c20 0 33 -9 34 -27c0 -23 -17 -39 -42 -39c-17 0 -27 11 -28 28c0 21 19 38 36 38zM179 631c21 0 33 -9 34 -27c0 -23 -16 -39 -40 -39c-18 0 -30 11 -30 28c-1 21 20 38 36 38z" />
    <glyph glyph-name="emdash" unicode="&#x2014;" horiz-adv-x="970" 
d="M945 235h-919l5 41h920z" />
    <glyph glyph-name="oe" unicode="&#x153;" horiz-adv-x="767" 
d="M529 -6c-90 0 -131 48 -148 109c-35 -61 -90 -110 -182 -110c-130 0 -159 84 -159 183c0 136 54 320 225 320c90 0 135 -47 154 -113c35 65 97 114 198 114c89 0 122 -58 122 -113c0 -138 -158 -180 -320 -183c-1 -8 -1 -19 -1 -28c0 -63 19 -142 117 -142
c51 0 97 13 148 37l13 -28c-34 -23 -100 -46 -167 -46zM265 457c-152 0 -184 -191 -184 -292c0 -69 26 -134 125 -134c148 0 177 185 177 272c0 79 -24 154 -118 154zM424 239c171 7 276 53 276 140c0 46 -28 79 -86 79c-114 0 -174 -87 -190 -219z" />
    <glyph glyph-name="trademark" unicode="&#x2122;" horiz-adv-x="668" 
d="M462 454c8 16 15 32 22 48c19 37 36 76 55 113l32 67h65v-31h-34v-256h34v-27h-101v27h34v213h-2l-58 -120c-11 -23 -24 -47 -35 -71h-26c-10 23 -21 45 -32 68l-58 117h-1v-207h35v-27h-101v27h34v256h-34v31h67c14 -31 27 -61 42 -91c20 -46 42 -91 62 -137zM204 369
h-116v26h40c0 86 1 171 1 257h-70v-48h-27v78h230v-78h-26v48h-73v-257h41v-26z" />
    <glyph glyph-name="divide" unicode="&#xf7;" horiz-adv-x="516" 
d="M445 276h-357l6 40h356zM293 485c19 0 34 -14 34 -33c1 -26 -22 -47 -43 -47c-19 0 -34 16 -34 35c-1 24 21 45 43 45zM256 184c19 0 34 -13 34 -32c0 -25 -21 -47 -42 -47c-19 0 -35 17 -35 36c-1 25 21 43 43 43z" />
    <glyph glyph-name="degree" unicode="&#xb0;" horiz-adv-x="329" 
d="M168 432c-75 0 -118 51 -119 115c-1 60 51 117 116 117c64 0 115 -56 116 -117c0 -64 -50 -115 -113 -115zM163 631c-47 0 -83 -40 -83 -88c0 -45 37 -82 84 -82c45 0 85 38 84 82c0 48 -40 88 -85 88z" />
    <glyph glyph-name="registered" unicode="&#xae;" horiz-adv-x="543" 
d="M282 329h-87v25h24v243h-24v25h109c46 0 85 -22 85 -80c0 -25 -16 -63 -56 -79l52 -108c10 -1 17 -3 28 -4v-20c-8 -2 -20 -4 -31 -4c-12 0 -21 12 -24 19l-55 114h-56v-106h35v-25zM247 485h60c27 0 55 11 55 56c0 42 -27 56 -56 56h-59v-112zM295 247
c-130 0 -224 101 -224 227c0 127 95 230 224 230c131 0 226 -103 226 -230c0 -126 -95 -227 -226 -227zM295 677c-114 0 -197 -90 -197 -203c0 -109 83 -201 197 -201c121 0 198 92 198 201c0 113 -82 203 -198 203z" />
    <glyph glyph-name="copyright" unicode="&#xa9;" horiz-adv-x="792" 
d="M522 125l7 -30c-28 -12 -84 -22 -128 -22c-140 0 -197 97 -197 254c0 100 38 262 199 262c57 0 96 -10 119 -20v-104h-31v80c-29 10 -57 11 -87 11c-112 0 -165 -93 -165 -231c0 -113 25 -218 164 -218c28 0 81 5 119 18zM395 -19c-223 0 -346 158 -346 354
c0 194 148 352 346 352c208 0 348 -158 348 -352c0 -196 -158 -354 -348 -354zM395 656c-179 0 -316 -143 -316 -321s111 -324 316 -324c176 0 315 146 315 324s-127 321 -315 321z" />
    <glyph glyph-name="dieresistonos" unicode="&#x385;" horiz-adv-x="452" 
d="M356 695c-38 -53 -75 -106 -113 -158l-27 12l95 172zM212 603c0 -24 -18 -40 -40 -40c-20 0 -32 12 -33 29c0 21 23 39 39 39c20 0 34 -11 34 -28zM394 603c0 -24 -20 -40 -42 -40c-17 0 -28 11 -28 29c0 21 21 39 39 39c17 0 31 -10 31 -28z" />
    <glyph glyph-name="tonos" unicode="&#x384;" horiz-adv-x="452" 
d="M253 535l-23 18l123 155l39 -36z" />
    <glyph glyph-name="sfthyphen" unicode="&#xad;" horiz-adv-x="337" 
d="M292 237h-241l6 47h241z" />
    <glyph glyph-name="Gamma" unicode="&#x393;" horiz-adv-x="482" 
d="M218 39l-4 -39h-200l4 39h63l75 604h-59l4 38h419l-15 -124h-38l11 86h-280l-74 -604h94z" />
    <glyph glyph-name="Delta" unicode="&#x394;" horiz-adv-x="605" 
d="M534 35l-4 -35h-506l4 34l303 649h55zM493 39l-102 455l-33 151h-1l-71 -152l-214 -454h421z" />
    <glyph glyph-name="Delta" unicode="&#x2206;" horiz-adv-x="605" 
d="M534 35l-4 -35h-506l4 34l303 649h55zM493 39l-102 455l-33 151h-1l-71 -152l-214 -454h421z" />
    <glyph glyph-name="Theta" unicode="&#x398;" horiz-adv-x="616" 
d="M172 336l5 41l300 7l-6 -52zM367 692c175 0 220 -125 220 -271c0 -234 -100 -428 -294 -428c-170 0 -233 96 -233 257c0 207 80 442 307 442zM369 653c-206 0 -268 -223 -268 -404c0 -144 58 -217 191 -217c181 0 253 193 253 388c0 118 -31 233 -176 233z" />
    <glyph glyph-name="Lambda" unicode="&#x39b;" horiz-adv-x="604" 
d="M325 566l-224 -527h73l-4 -39h-175l4 39h57c93 218 182 426 277 644h54l123 -644h53l-4 -39h-170l4 39h70l-94 529l-13 69h-2c-2 -4 -1 -7 -29 -71z" />
    <glyph glyph-name="Xi" unicode="&#x39e;" horiz-adv-x="489" 
d="M451 0h-457l16 144h42l-12 -95h376l12 95h40zM127 634l-13 -100h-37l18 147h414l-18 -147h-38l12 100h-338zM116 331l6 43l287 6l-8 -53z" />
    <glyph glyph-name="Pi" unicode="&#x3a0;" horiz-adv-x="626" 
d="M562 0h-164l4 40h60l74 602h-342l-74 -602h61l-4 -40h-163l4 40h59l73 602h-59l6 40h548l-5 -40h-60l-74 -602h61z" />
    <glyph glyph-name="Sigma" unicode="&#x3a3;" horiz-adv-x="480" 
d="M274 373l-2 -18l-218 -315h355l14 107h41l-18 -147h-442l5 41l219 325l-146 275l4 41h412l-15 -136h-40l12 97h-327z" />
    <glyph glyph-name="Iotadieresis" unicode="&#x3aa;" horiz-adv-x="297" 
d="M204 0h-161l4 39h58l75 604h-58l4 39h161l-4 -39h-61l-74 -604h60zM308 726c-17 0 -27 11 -28 28c0 21 18 39 36 39c21 0 34 -10 35 -27c0 -24 -17 -40 -43 -40zM109 726c-19 0 -32 12 -32 29c-1 21 22 38 38 38c20 0 33 -10 34 -27c0 -24 -18 -40 -40 -40z" />
    <glyph glyph-name="Alpha" unicode="&#x391;" horiz-adv-x="602" 
d="M558 0h-170l4 39h70l-26 150h-273l-63 -150h73l-4 -39h-175l4 39h57c94 218 182 426 278 644h53l123 -644h53zM428 232l-60 334l-13 71h-2c-2 -4 -2 -9 -29 -72c-25 -57 -67 -153 -141 -333h245z" />
    <glyph glyph-name="Beta" unicode="&#x392;" horiz-adv-x="555" 
d="M417 356c76 -22 100 -86 100 -150c0 -140 -109 -206 -201 -206h-303c2 13 3 26 4 39h66c24 202 50 402 75 604h-62c2 13 3 26 4 39h264c117 0 169 -62 169 -149c0 -67 -28 -136 -116 -177zM340 334h-179c-12 -99 -23 -196 -36 -295h179c118 0 170 74 170 169
c0 68 -43 126 -134 126zM358 643h-158c-12 -89 -22 -179 -33 -268h158c106 0 168 65 168 154c0 66 -40 114 -135 114z" />
    <glyph glyph-name="Epsilon" unicode="&#x395;" horiz-adv-x="508" 
d="M14 0l4 39h63l75 604h-59l4 38h419l-14 -124h-39l11 86h-280l-33 -264l281 7l-5 -48l-280 4l-37 -303h301l10 86h42l-15 -125h-448z" />
    <glyph glyph-name="Zeta" unicode="&#x396;" horiz-adv-x="465" 
d="M421 0h-428l4 39l439 604h-302l-11 -97h-39l16 136h387l-4 -39l-438 -603h339l14 105h41z" />
    <glyph glyph-name="Eta" unicode="&#x397;" horiz-adv-x="626" 
d="M562 0h-164l4 40h60l37 300h-341l-38 -300h61l-4 -40h-163l4 40h59l74 603h-59l5 39h163l-4 -39h-61l-32 -261h342l32 261h-60l4 39h164l-4 -39h-60l-75 -603h61z" />
    <glyph glyph-name="Iota" unicode="&#x399;" horiz-adv-x="297" 
d="M204 0h-161l4 39h58l75 604h-58l4 39h161l-4 -39h-61l-74 -604h60z" />
    <glyph glyph-name="Kappa" unicode="&#x39a;" horiz-adv-x="574" 
d="M543 645l-258 -232l208 -374h59l-4 -39h-168l3 39h63l-192 346l-101 -91l-32 -256h63l-4 -38h-166l4 38h60l75 607h-60l4 38h164l-4 -38h-61l-37 -296l328 296h-67l4 38h175l-4 -38h-52z" />
    <glyph glyph-name="Mu" unicode="&#x39c;" horiz-adv-x="780" 
d="M373 111h6c25 45 49 92 74 137c18 32 134 241 151 273l88 161h106c-1 -13 -2 -26 -4 -39h-59c-25 -202 -51 -403 -75 -605h60c-2 -12 -3 -26 -4 -38h-165c2 12 3 26 4 38h63c23 185 46 369 68 554h-1l-64 -119c-39 -69 -76 -137 -115 -207l-114 -205h-44l-55 177l-75 243
l-33 111h-2c-22 -185 -45 -369 -66 -554h63c-2 -12 -3 -26 -4 -38h-163c2 12 3 26 4 38h58l75 605h-58c2 13 2 26 4 39h102c17 -54 34 -107 50 -160z" />
    <glyph glyph-name="Phi" unicode="&#x3a6;" horiz-adv-x="725" 
d="M425 0h-161l4 39h60l6 45c-186 8 -281 88 -281 217c0 139 97 294 345 306l5 36h-60l4 39h161l-4 -39h-61l-5 -36c195 -7 268 -111 268 -222c0 -160 -125 -292 -331 -301h-1l-5 -45h60zM338 118l57 456c-219 -11 -306 -140 -306 -268c0 -120 91 -181 249 -188zM668 378
c0 91 -48 188 -236 196l-55 -456c188 10 291 124 291 260z" />
    <glyph glyph-name="Upsilondieresis" unicode="&#x3ab;" horiz-adv-x="517" 
d="M271 354h4l190 290h-66l4 38h162l-4 -38h-51l-218 -328l-34 -277h79l-4 -39h-202l4 39h81l33 274l-133 331h-53l5 38h157l-4 -38h-64zM426 726c-17 0 -27 11 -28 28c0 21 18 39 36 39c21 0 34 -10 35 -27c0 -24 -17 -40 -43 -40zM227 726c-19 0 -32 12 -32 29
c-1 21 22 38 38 38c20 0 33 -10 34 -27c0 -24 -18 -40 -40 -40z" />
    <glyph glyph-name="Psi" unicode="&#x3a8;" horiz-adv-x="732" 
d="M756 643h-64l-30 -234c-17 -133 -117 -222 -276 -228l-18 -142h69l-4 -39h-180l4 39h68l18 141c-142 9 -220 72 -220 202c0 13 0 27 2 42l28 219h-69l4 39h112l-32 -258c-1 -13 -2 -25 -2 -37c0 -107 65 -159 182 -166l52 422h-59l4 39h163l-4 -39h-61l-52 -422
c145 9 214 77 230 208l32 253h107z" />
    <glyph glyph-name="Omega" unicode="&#x3a9;" horiz-adv-x="633" 
d="M450 40l122 -1l-4 -39h-210l5 43c144 35 192 227 192 390c0 111 -44 219 -178 219c-202 0 -266 -205 -266 -403c0 -104 24 -183 114 -205l-5 -44h-205l4 39c38 0 80 1 118 1c-51 40 -72 113 -72 196c0 203 67 455 308 455c176 0 225 -122 225 -263
c0 -155 -44 -317 -148 -388z" />
    <glyph glyph-name="alphatonos" unicode="&#x3ac;" horiz-adv-x="503" 
d="M279 492c36 0 73 -9 116 -24l26 26l15 -2c-24 -155 -52 -346 -60 -450c28 2 64 18 93 36c5 -5 8 -11 12 -16c-35 -38 -84 -71 -111 -71c-46 0 -41 43 -36 79c3 28 9 67 15 94h-4c-57 -137 -130 -171 -187 -171c-69 0 -118 54 -118 169c0 177 80 330 239 330zM167 32
c57 0 132 61 196 255c7 47 15 94 23 141c-46 19 -86 25 -113 25c-150 0 -189 -179 -189 -286c0 -92 33 -135 83 -135zM253 535l-23 18l123 155l39 -36z" />
    <glyph glyph-name="Nu" unicode="&#x39d;" horiz-adv-x="661" 
d="M498 88h5l69 555h-69l4 39h173l-4 -39h-63c-26 -214 -52 -429 -79 -643h-38l-133 266l-109 218l-59 121c-1 0 -2 -1 -3 -1l-68 -565h68l-4 -39h-175l4 39h65l75 604h-65l4 39h110c38 -75 74 -150 112 -225c26 -52 161 -328 180 -369z" />
    <glyph glyph-name="Omicron" unicode="&#x39f;" horiz-adv-x="616" 
d="M367 692c175 0 220 -125 220 -271c0 -234 -100 -428 -294 -428c-170 0 -233 96 -233 257c0 207 80 442 307 442zM369 653c-206 0 -268 -223 -268 -404c0 -144 58 -217 191 -217c181 0 253 193 253 388c0 118 -31 233 -176 233z" />
    <glyph glyph-name="Rho" unicode="&#x3a1;" horiz-adv-x="513" 
d="M198 0h-184l4 39h60l75 604h-61l5 39h253c94 0 170 -50 170 -168c0 -87 -46 -223 -211 -223h-157l-32 -252h82zM157 331h156c69 0 163 39 163 180c0 89 -51 132 -124 132h-157z" />
    <glyph glyph-name="Tau" unicode="&#x3a4;" horiz-adv-x="486" 
d="M529 682l-15 -136h-40l11 97h-167l-74 -604h82l-4 -39h-203l4 39h79l75 604h-170l-12 -97h-38l16 136h456z" />
    <glyph glyph-name="Upsilon" unicode="&#x3a5;" horiz-adv-x="517" 
d="M271 354h4l190 290h-66l4 38h162l-4 -38h-51l-218 -328l-34 -277h79l-4 -39h-202l4 39h81l33 274l-133 331h-53l5 38h157l-4 -38h-64z" />
    <glyph glyph-name="Chi" unicode="&#x3a7;" horiz-adv-x="571" 
d="M281 355l-136 289h-56l4 38h170l-4 -38h-70l117 -253l180 253h-71l4 38h182l-4 -38h-59l-211 -292l145 -312h61l-4 -40h-181l4 40h78l-129 276l-193 -276h80l-4 -40h-190l4 40h60z" />
    <glyph glyph-name="Alphatonos" unicode="&#x386;" horiz-adv-x="602" 
d="M558 0h-170l4 39h70l-26 150h-273l-63 -150h73l-4 -39h-175l4 39h57c94 218 182 426 278 644h53l123 -644h53zM428 232l-60 334l-13 71h-2c-2 -4 -2 -9 -29 -72c-25 -57 -67 -153 -141 -333h245zM90 538l-23 18l123 155l39 -36z" />
    <glyph glyph-name="Epsilontonos" unicode="&#x388;" horiz-adv-x="508" 
d="M14 0l4 39h63l75 604h-59l4 38h419l-14 -124h-39l11 86h-280l-33 -264l281 7l-5 -48l-280 4l-37 -303h301l10 86h42l-15 -125h-448zM-75 538l-23 18l123 155l39 -36z" />
    <glyph glyph-name="afii00208" unicode="&#x2015;" horiz-adv-x="1002" 
d="M945 235h-919l5 41h920z" />
    <glyph glyph-name="Etatonos" unicode="&#x389;" horiz-adv-x="626" 
d="M562 0h-164l4 40h60l37 300h-341l-38 -300h61l-4 -40h-163l4 40h59l74 603h-59l5 39h163l-4 -39h-61l-32 -261h342l32 261h-60l4 39h164l-4 -39h-60l-75 -603h61zM-80 538l-23 18l123 155l39 -36z" />
    <glyph glyph-name="Iotatonos" unicode="&#x38a;" horiz-adv-x="297" 
d="M204 0h-161l4 39h58l75 604h-58l4 39h161l-4 -39h-61l-74 -604h60zM-50 538l-23 18l123 155l39 -36z" />
    <glyph glyph-name="Omicrontonos" unicode="&#x38c;" horiz-adv-x="616" 
d="M367 692c175 0 220 -125 220 -271c0 -234 -100 -428 -294 -428c-170 0 -233 96 -233 257c0 207 80 442 307 442zM369 653c-206 0 -268 -223 -268 -404c0 -144 58 -217 191 -217c181 0 253 193 253 388c0 118 -31 233 -176 233zM-25 537l-23 18l123 155l39 -36z" />
    <glyph glyph-name="Upsilontonos" unicode="&#x38e;" horiz-adv-x="517" 
d="M271 354h4l190 290h-66l4 38h162l-4 -38h-51l-218 -328l-34 -277h79l-4 -39h-202l4 39h81l33 274l-133 331h-53l5 38h157l-4 -38h-64zM-95 537l-23 18l123 155l39 -36z" />
    <glyph glyph-name="epsilontonos" unicode="&#x3ad;" horiz-adv-x="406" 
d="M239 458c-70 0 -129 -34 -129 -101c0 -66 69 -69 118 -69h62l-5 -40h-62c-50 0 -146 -24 -146 -122c0 -67 56 -94 129 -94c56 0 90 10 146 34l14 -27c-38 -22 -103 -43 -163 -43c-81 0 -169 24 -168 123c0 87 56 130 105 144l2 3c-35 9 -73 41 -73 89
c0 100 89 140 176 140c41 1 85 -7 121 -20c17 -7 27 -13 24 -34c0 -12 -15 -68 -29 -102l-21 1l3 103c-37 11 -72 15 -104 15zM232 535l-23 18l123 155l39 -36z" />
    <glyph glyph-name="etatonos" unicode="&#x3ae;" horiz-adv-x="503" 
d="M352 495c68 0 89 -41 89 -96c0 -30 -17 -188 -48 -462c28 2 56 10 86 27l13 -13c-36 -42 -73 -65 -101 -65c-29 0 -41 13 -41 40c0 8 1 17 2 27c33 275 46 417 46 436c0 38 -12 67 -48 67c-57 0 -147 -66 -208 -255c-8 -68 -19 -134 -27 -201h-43c21 151 44 334 56 444
l-100 15c1 7 0 15 1 22c39 9 81 15 117 15c22 0 31 -6 31 -24c-2 -28 -10 -83 -20 -148h4c58 131 148 171 191 171zM245 535l-23 18l123 155l39 -36z" />
    <glyph glyph-name="iotatonos" unicode="&#x3af;" horiz-adv-x="249" 
d="M149 496c21 0 30 -4 30 -20c0 4 -55 -442 -54 -434c28 2 56 10 86 28l13 -14c-40 -44 -75 -65 -105 -65c-28 0 -36 18 -36 41c0 8 1 17 2 26l48 386l-89 15l1 23c39 8 77 14 104 14zM125 535l-23 18l123 155l39 -36z" />
    <glyph glyph-name="omicrontonos" unicode="&#x3cc;" horiz-adv-x="455" 
d="M265 457c-152 0 -184 -191 -184 -292c0 -69 26 -134 125 -134c148 0 177 185 177 272c0 79 -24 154 -118 154zM265 496c122 0 160 -92 160 -191c0 -119 -39 -312 -226 -312c-124 0 -159 84 -159 183c0 136 54 320 225 320zM276 535l-23 18l123 155l39 -36z" />
    <glyph glyph-name="Omegatonos" unicode="&#x38f;" horiz-adv-x="633" 
d="M450 40l122 -1l-4 -39h-210l5 43c144 35 192 227 192 390c0 111 -44 219 -178 219c-202 0 -266 -205 -266 -403c0 -104 24 -183 114 -205l-5 -44h-205l4 39c38 0 80 1 118 1c-51 40 -72 113 -72 196c0 203 67 455 308 455c176 0 225 -122 225 -263
c0 -155 -44 -317 -148 -388zM-25 537l-23 18l123 155l39 -36z" />
    <glyph glyph-name="upsilontonos" unicode="&#x3cd;" horiz-adv-x="500" 
d="M427 503c21 0 32 -9 32 -41c1 -180 -101 -469 -274 -470c-75 0 -92 41 -92 95c0 25 5 82 36 357l-101 15l2 23c38 8 79 14 114 14c20 0 31 -4 31 -19c0 -32 -39 -331 -39 -384c0 -41 12 -61 55 -61c120 0 220 229 226 419l-74 -22l-8 16c35 38 72 58 92 58zM274 535
l-23 18l123 155l39 -36z" />
    <glyph glyph-name="alpha" unicode="&#x3b1;" horiz-adv-x="503" 
d="M279 492c36 0 73 -9 116 -24l26 26l15 -2c-24 -155 -52 -346 -60 -450c28 2 64 18 93 36c5 -5 8 -11 12 -16c-35 -38 -84 -71 -111 -71c-46 0 -41 43 -36 79c3 28 9 67 15 94h-4c-57 -137 -130 -171 -187 -171c-69 0 -118 54 -118 169c0 177 80 330 239 330zM167 32
c57 0 132 61 196 255c7 47 15 94 23 141c-46 19 -86 25 -113 25c-150 0 -189 -179 -189 -286c0 -92 33 -135 83 -135z" />
    <glyph glyph-name="beta" unicode="&#x3b2;" horiz-adv-x="449" 
d="M314 402c91 -14 96 -109 96 -137c0 -169 -104 -275 -225 -275c-52 0 -98 10 -122 24c-9 -72 -17 -146 -27 -223h-38c12 100 82 682 88 738c14 130 101 181 179 181c94 0 154 -44 154 -133c0 -77 -52 -150 -105 -175zM265 672c-71 0 -125 -42 -137 -132l-59 -487
c48 -24 93 -26 126 -26c95 0 172 100 172 228c0 84 -41 125 -131 125h-60l4 37h59c62 0 139 57 139 155c-3 54 -29 100 -113 100z" />
    <glyph glyph-name="psi" unicode="&#x3c8;" horiz-adv-x="606" 
d="M148 -206c1 12 2 24 4 36h78c7 55 14 110 20 166c-117 9 -157 81 -157 173c0 59 27 224 32 275l-102 15l2 23c39 8 80 14 116 14c20 0 31 -4 31 -21c0 -22 -38 -228 -38 -306c0 -80 39 -128 120 -137l69 565l-101 15l2 22c39 9 88 15 115 15c20 0 31 -6 31 -23
c0 -24 -46 -360 -75 -595c168 16 225 241 231 424l-75 -23c-3 5 -5 12 -8 17c35 37 68 58 89 58c24 0 36 -6 36 -42c0 -175 -57 -458 -276 -470c-7 -55 -14 -110 -20 -165h82l-5 -36h-201zM291 -6c0 1 0 1 1 1h-1v-1z" />
    <glyph glyph-name="delta" unicode="&#x3b4;" horiz-adv-x="454" 
d="M290 658c-55 0 -119 -17 -119 -85c0 -44 64 -74 106 -93c84 -41 144 -88 144 -206c0 -86 -36 -281 -215 -281c-125 0 -166 84 -166 184c0 114 52 255 176 285c-54 29 -88 60 -88 107c0 93 90 129 165 129c66 0 118 -25 118 -53s-16 -80 -32 -114l-18 1l7 109
c-20 11 -53 17 -78 17zM268 439c-154 -17 -186 -172 -186 -274c0 -69 26 -134 124 -134c142 0 175 154 175 242c0 106 -62 142 -113 166z" />
    <glyph glyph-name="epsilon" unicode="&#x3b5;" horiz-adv-x="406" 
d="M239 458c-70 0 -129 -34 -129 -101c0 -66 69 -69 118 -69h62l-5 -40h-62c-50 0 -146 -24 -146 -122c0 -67 56 -94 129 -94c56 0 90 10 146 34l14 -27c-38 -22 -103 -43 -163 -43c-81 0 -169 24 -168 123c0 87 56 130 105 144l2 3c-35 9 -73 41 -73 89
c0 100 89 140 176 140c41 1 85 -7 121 -20c17 -7 27 -13 24 -34c0 -12 -15 -68 -29 -102l-21 1l3 103c-37 11 -72 15 -104 15z" />
    <glyph glyph-name="phi" unicode="&#x3c6;" horiz-adv-x="588" 
d="M425 493c70 0 123 -66 123 -190c0 -127 -61 -301 -271 -309l-25 -201h-37l25 201c-146 4 -200 81 -200 187c0 134 56 266 185 308c3 -12 4 -24 7 -36c-105 -38 -151 -148 -151 -266c0 -91 35 -153 163 -157c12 88 23 173 33 259c18 156 90 204 148 204zM424 454
c-35 0 -89 -17 -109 -166c-4 -32 -28 -226 -33 -258c182 4 224 172 224 266c0 101 -39 158 -82 158z" />
    <glyph glyph-name="gamma" unicode="&#x3b3;" horiz-adv-x="459" 
d="M170 119l4 -1c60 192 151 377 247 377c22 0 37 -16 43 -39l-16 -21c-13 6 -21 7 -28 7c-83 0 -183 -219 -245 -425c-4 -74 -6 -148 -17 -218l-8 -11c-15 -1 -36 2 -55 14c13 85 24 126 47 210l-54 436l-73 -21l-9 16c36 37 70 57 90 57c21 0 29 -9 33 -40z" />
    <glyph glyph-name="eta" unicode="&#x3b7;" horiz-adv-x="503" 
d="M352 495c68 0 89 -41 89 -96c0 -30 -17 -188 -48 -462c28 2 56 10 86 27l13 -13c-36 -42 -73 -65 -101 -65c-29 0 -41 13 -41 40c0 8 1 17 2 27c33 275 46 417 46 436c0 38 -12 67 -48 67c-57 0 -147 -66 -208 -255c-8 -68 -19 -134 -27 -201h-43c21 151 44 334 56 444
l-100 15c1 7 0 15 1 22c39 9 81 15 117 15c22 0 31 -6 31 -24c-2 -28 -10 -83 -20 -148h4c58 131 148 171 191 171z" />
    <glyph glyph-name="iota" unicode="&#x3b9;" horiz-adv-x="249" 
d="M149 496c21 0 30 -4 30 -20c0 4 -55 -442 -54 -434c28 2 56 10 86 28l13 -14c-40 -44 -75 -65 -105 -65c-28 0 -36 18 -36 41c0 8 1 17 2 26l48 386l-89 15l1 23c39 8 77 14 104 14z" />
    <glyph glyph-name="xi" unicode="&#x3be;" horiz-adv-x="396" 
d="M298 712c34 0 105 -7 143 -30c-6 -12 -9 -22 -14 -33c-50 20 -95 25 -133 25c-107 0 -157 -66 -157 -145c0 -75 57 -116 147 -116h82c-1 -12 -3 -26 -5 -38h-91c-134 0 -197 -99 -197 -193c0 -69 41 -109 144 -147c131 -48 150 -67 150 -92c0 -37 -44 -88 -91 -125
c-8 6 -16 14 -23 21c48 54 65 75 65 92c0 69 -286 59 -286 250c0 78 44 178 152 215c-72 25 -93 86 -93 137c0 99 84 179 207 179z" />
    <glyph glyph-name="kappa" unicode="&#x3ba;" horiz-adv-x="457" 
d="M141 495c16 0 26 -12 23 -26c-5 -38 -17 -127 -31 -205h3c54 111 178 235 251 235c31 0 55 -19 62 -49l-16 -17c-19 7 -37 11 -52 11c-71 0 -121 -64 -167 -124c48 -102 136 -263 156 -281c39 8 63 30 82 45l13 -14c-40 -61 -75 -79 -97 -79c-37 0 -89 100 -184 289
c-32 -45 -41 -60 -60 -104c-8 -59 -15 -117 -24 -176h-43c20 143 40 295 60 443l-88 11c1 7 1 14 1 21c31 9 77 20 111 20z" />
    <glyph glyph-name="lambda" unicode="&#x3bb;" horiz-adv-x="408" 
d="M185 721c28 0 35 -11 40 -44l109 -633c25 1 53 7 78 19l11 -15c-28 -33 -67 -54 -87 -54c-19 0 -32 2 -38 33l-74 416h-4l-191 -443h-41l202 469h29l-34 200l-97 10l-1 23c19 10 69 19 98 19z" />
    <glyph glyph-name="nu" unicode="&#x3bd;" horiz-adv-x="444" 
d="M99 499c25 0 33 -10 35 -46c2 -29 37 -370 40 -404h4c98 111 196 272 197 397c-25 -7 -50 -14 -75 -22c-3 5 -6 12 -8 17c36 40 71 58 90 58c23 0 32 -11 32 -48c0 -159 -142 -364 -236 -454h-33c-18 149 -36 301 -55 451l-72 -22c-3 5 -6 12 -8 17c33 36 69 56 89 56z
" />
    <glyph glyph-name="omicron" unicode="&#x3bf;" horiz-adv-x="455" 
d="M265 457c-152 0 -184 -191 -184 -292c0 -69 26 -134 125 -134c148 0 177 185 177 272c0 79 -24 154 -118 154zM265 496c122 0 160 -92 160 -191c0 -119 -39 -312 -226 -312c-124 0 -159 84 -159 183c0 136 54 320 225 320z" />
    <glyph glyph-name="pi" unicode="&#x3c0;" horiz-adv-x="551" 
d="M148 448l-54 -448h-41l55 448h-81l4 39h478l-4 -39h-80c-27 -268 -32 -320 -42 -406c29 2 56 10 86 28l13 -14c-40 -43 -76 -65 -105 -65c-25 0 -36 14 -36 40c0 8 1 17 2 27l44 390h-239z" />
    <glyph glyph-name="omegatonos" unicode="&#x3ce;" horiz-adv-x="677" 
d="M433 -6c-64 0 -103 33 -111 79h-3c-24 -47 -72 -79 -132 -79c-120 0 -147 87 -147 187c0 121 42 271 169 312l9 -30c-108 -52 -138 -183 -138 -285c0 -73 22 -145 112 -145c77 0 111 61 118 115l24 189h40l-22 -189c0 -5 -1 -10 -1 -15c0 -50 26 -100 86 -100
c103 0 161 110 161 261c0 69 -19 129 -84 169l17 30c83 -38 105 -115 105 -201c0 -141 -62 -298 -203 -298zM358 535l-23 18l123 155l39 -36z" />
    <glyph glyph-name="rho" unicode="&#x3c1;" horiz-adv-x="470" 
d="M203 -11c-39 0 -98 5 -135 24l-29 -220h-41l61 495c14 110 74 208 206 208c126 0 176 -89 161 -248c-15 -161 -89 -259 -223 -259zM261 456c-102 0 -150 -73 -162 -178l-27 -227c25 -14 75 -26 126 -26c89 0 168 44 184 225c14 162 -39 206 -121 206z" />
    <glyph glyph-name="sigma" unicode="&#x3c3;" horiz-adv-x="494" 
d="M266 486h210l-4 -38h-87l-4 -4c34 -34 45 -88 45 -147c0 -162 -83 -301 -221 -301c-119 0 -165 65 -165 173c0 149 58 317 226 317zM263 448c-137 0 -180 -144 -180 -269c0 -96 39 -146 129 -146c117 0 171 131 171 269c0 77 -24 146 -120 146z" />
    <glyph glyph-name="tau" unicode="&#x3c4;" horiz-adv-x="349" 
d="M331 449h-141c-14 -102 -43 -339 -43 -357c0 -35 14 -57 57 -57c22 0 55 4 95 16l11 -28c-30 -14 -71 -26 -110 -26c-68 0 -96 30 -96 91c0 15 31 252 46 361h-115l5 37h295z" />
    <glyph glyph-name="theta" unicode="&#x3b8;" horiz-adv-x="474" 
d="M199 -4c-130 0 -159 85 -159 210c0 180 24 505 248 505c128 0 155 -107 155 -227c0 -205 -40 -488 -244 -488zM286 670c-132 0 -172 -143 -192 -275h305c3 29 5 60 5 91c0 96 -24 184 -118 184zM397 360h-310c-7 -58 -8 -116 -8 -159c0 -108 30 -166 128 -166
c124 0 174 157 190 325z" />
    <glyph glyph-name="omega" unicode="&#x3c9;" horiz-adv-x="677" 
d="M433 -6c-64 0 -103 33 -111 79h-3c-24 -47 -72 -79 -132 -79c-120 0 -147 87 -147 187c0 121 42 271 169 312l9 -30c-108 -52 -138 -183 -138 -285c0 -73 22 -145 112 -145c77 0 111 61 118 115l24 189h40l-22 -189c0 -5 -1 -10 -1 -15c0 -50 26 -100 86 -100
c103 0 161 110 161 261c0 69 -19 129 -84 169l17 30c83 -38 105 -115 105 -201c0 -141 -62 -298 -203 -298z" />
    <glyph glyph-name="sigma1" unicode="&#x3c2;" horiz-adv-x="437" 
d="M273 458c-125 0 -188 -106 -188 -232c0 -79 36 -129 143 -180c75 -36 98 -58 98 -86c-1 -7 8 -33 -70 -112l-23 21c51 60 51 72 51 83c0 16 -17 30 -78 58c-132 60 -163 126 -163 207c0 169 88 279 233 279c48 0 96 -10 113 -17c18 -7 28 -14 24 -34
c-1 -11 -17 -69 -31 -103l-21 1l6 102c-21 8 -65 13 -94 13z" />
    <glyph glyph-name="chi" unicode="&#x3c7;" horiz-adv-x="419" 
d="M58 -9l-7 -1l-33 20v5l168 223c-27 71 -55 140 -83 210c-26 -10 -51 -20 -77 -29l-9 19c35 34 67 55 87 55c25 0 35 -14 48 -48c20 -54 41 -107 62 -160c44 67 87 136 131 204h6l37 -23v-5c-55 -69 -107 -141 -161 -210l84 -212c30 3 61 15 90 31l9 -14
c-35 -41 -69 -66 -94 -66c-31 0 -38 18 -48 42c-5 14 -62 156 -68 169c-47 -70 -97 -138 -142 -210z" />
    <glyph glyph-name="upsilon" unicode="&#x3c5;" horiz-adv-x="500" 
d="M427 503c21 0 32 -9 32 -41c1 -180 -101 -469 -274 -470c-75 0 -92 41 -92 95c0 25 5 82 36 357l-101 15l2 23c38 8 79 14 114 14c20 0 31 -4 31 -19c0 -32 -39 -331 -39 -384c0 -41 12 -61 55 -61c120 0 220 229 226 419l-74 -22l-8 16c35 38 72 58 92 58z" />
    <glyph glyph-name="zeta" unicode="&#x3b6;" horiz-adv-x="338" 
d="M136 576l-26 2l10 97c3 28 24 30 38 30h273l11 -38c-215 -167 -369 -376 -369 -486c0 -61 51 -84 198 -146c49 -21 61 -41 61 -64c0 -30 -28 -68 -82 -126l-25 20c61 69 63 87 63 97c0 16 -20 28 -46 39c-150 68 -209 86 -209 180c0 76 82 273 349 482v3h-217z" />
    <glyph glyph-name="iotadieresis" unicode="&#x3ca;" horiz-adv-x="249" 
d="M149 496c21 0 30 -4 30 -20c0 4 -55 -442 -54 -434c28 2 56 10 86 28l13 -14c-40 -44 -75 -65 -105 -65c-28 0 -36 18 -36 41c0 8 1 17 2 26l48 386l-89 15l1 23c39 8 77 14 104 14zM240 631c20 0 33 -9 34 -27c0 -23 -17 -39 -42 -39c-17 0 -27 11 -28 28
c0 21 19 38 36 38zM37 631c21 0 33 -9 34 -27c0 -23 -16 -39 -40 -39c-18 0 -30 11 -30 28c-1 21 20 38 36 38z" />
    <glyph glyph-name="upsilondieresis" unicode="&#x3cb;" horiz-adv-x="500" 
d="M427 503c21 0 32 -9 32 -41c1 -180 -101 -469 -274 -470c-75 0 -92 41 -92 95c0 25 5 82 36 357l-101 15l2 23c38 8 79 14 114 14c20 0 31 -4 31 -19c0 -32 -39 -331 -39 -384c0 -41 12 -61 55 -61c120 0 220 229 226 419l-74 -22l-8 16c35 38 72 58 92 58zM399 631
c20 0 33 -9 34 -27c0 -23 -17 -39 -42 -39c-17 0 -27 11 -28 28c0 21 19 38 36 38zM196 631c21 0 33 -9 34 -27c0 -23 -16 -39 -40 -39c-18 0 -30 11 -30 28c-1 21 20 38 36 38z" />
    <glyph glyph-name="iotadieresistonos" unicode="&#x390;" horiz-adv-x="249" 
d="M149 496c21 0 30 -4 30 -20c0 4 -55 -442 -54 -434c28 2 56 10 86 28l13 -14c-40 -44 -75 -65 -105 -65c-28 0 -36 18 -36 41c0 8 1 17 2 26l48 386l-89 15l1 23c39 8 77 14 104 14zM236 695c-38 -53 -75 -106 -113 -158l-27 12l95 172zM92 603c0 -24 -18 -40 -40 -40
c-20 0 -32 12 -33 29c0 21 23 39 39 39c20 0 34 -11 34 -28zM274 603c0 -24 -20 -40 -42 -40c-17 0 -28 11 -28 29c0 21 21 39 39 39c17 0 31 -10 31 -28z" />
    <glyph glyph-name="upsilondieresistonos" unicode="&#x3b0;" horiz-adv-x="500" 
d="M427 503c21 0 32 -9 32 -41c1 -180 -101 -469 -274 -470c-75 0 -92 41 -92 95c0 25 5 82 36 357l-101 15l2 23c38 8 79 14 114 14c20 0 31 -4 31 -19c0 -32 -39 -331 -39 -384c0 -41 12 -61 55 -61c120 0 220 229 226 419l-74 -22l-8 16c35 38 72 58 92 58zM382 695
c-38 -53 -75 -106 -113 -158l-27 12l95 172zM238 603c0 -24 -18 -40 -40 -40c-20 0 -32 12 -33 29c0 21 23 39 39 39c20 0 34 -11 34 -28zM420 603c0 -24 -20 -40 -42 -40c-17 0 -28 11 -28 29c0 21 21 39 39 39c17 0 31 -10 31 -28z" />
    <glyph glyph-name="Euro" unicode="&#x20ac;" horiz-adv-x="516" 
d="M47 310h398l-5 -36h-314c-8 -133 38 -243 202 -243c28 0 78 4 121 15l9 74h36l-12 -98c-41 -18 -105 -29 -160 -29c-164 0 -247 100 -236 281h-44zM451 359h-398l3 35h47c20 129 110 275 280 275c69 0 123 -13 153 -26l-14 -114h-37l10 86c-27 9 -70 17 -110 17
c-140 0 -208 -93 -241 -238h310z" />
    <glyph glyph-name="semicolon" unicode=";" horiz-adv-x="162" 
d="M107 394c19 0 33 -13 33 -31c0 -23 -20 -45 -42 -45c-20 0 -33 17 -33 36c0 22 21 40 42 40zM65 67c20 0 36 -14 36 -40c0 -42 -41 -100 -94 -125l-9 14c24 21 40 41 47 74c-15 5 -22 17 -22 32c0 24 19 45 42 45z" />
    <glyph glyph-name="exclam" unicode="!" horiz-adv-x="180" 
d="M127 690h44l-41 -315l-34 -221h-22l19 223zM73 68c19 0 32 -16 32 -34c0 -24 -23 -43 -42 -43c-18 0 -33 15 -33 35c0 22 21 42 43 42z" />
    <glyph glyph-name="acute" unicode="&#xb4;" horiz-adv-x="452" 
d="M253 535l-23 18l123 155l39 -36z" />
    <glyph glyph-name="circumflex" unicode="&#x2c6;" horiz-adv-x="452" 
d="M411 533l-132 99l-156 -100l-15 19l160 137h31l129 -135z" />
    <glyph glyph-name="tilde" unicode="&#x2dc;" horiz-adv-x="452" 
d="M223 657c40 0 88 -41 116 -41l65 33l10 -9c-14 -33 -47 -61 -82 -61c-52 0 -85 39 -118 39l-64 -38l-12 10c17 33 50 67 85 67z" />
    <glyph glyph-name="cedilla" unicode="&#xb8;" horiz-adv-x="411" 
d="M239 16c-25 -26 -49 -55 -73 -82c57 -2 96 -21 96 -65c0 -62 -63 -107 -177 -107l5 28c72 7 123 25 123 65c0 34 -53 39 -97 41l-8 15l107 121c8 -6 16 -10 24 -16z" />
    <glyph glyph-name="approxequal" unicode="&#x2248;" horiz-adv-x="516" 
d="M196 419c55 0 140 -49 185 -49l73 49l21 -18c-23 -39 -64 -72 -111 -72c-74 0 -126 47 -178 47l-80 -47l-21 18c22 38 64 72 111 72zM182 293c55 0 140 -49 186 -49l73 49l21 -17c-23 -39 -64 -72 -112 -72c-73 0 -125 47 -177 47l-80 -47l-21 21c23 39 64 68 110 68z
" />
    <glyph glyph-name="mu" unicode="&#xb5;" horiz-adv-x="512" 
d="M407 487h40c-20 -144 -36 -285 -55 -445c32 2 58 11 85 27l14 -13c-40 -43 -77 -65 -106 -65s-40 15 -40 43v4c2 29 13 92 19 127h-4c-61 -135 -153 -175 -198 -175c-23 0 -39 5 -53 10l-19 -170h65l-5 -37h-163c2 13 2 24 4 37h59l65 614l-100 15c0 7 0 15 1 22
c39 9 79 15 115 15c20 0 31 -5 31 -21c0 -3 -1 -12 -3 -29c-8 -86 -37 -311 -37 -355c0 -41 15 -61 48 -61c57 0 147 67 208 255z" />
    <glyph glyph-name="mu" unicode="&#x3bc;" horiz-adv-x="512" 
d="M407 487h40c-20 -144 -36 -285 -55 -445c32 2 58 11 85 27l14 -13c-40 -43 -77 -65 -106 -65s-40 15 -40 43v4c2 29 13 92 19 127h-4c-61 -135 -153 -175 -198 -175c-23 0 -39 5 -53 10l-19 -170h65l-5 -37h-163c2 13 2 24 4 37h59l65 614l-100 15c0 7 0 15 1 22
c39 9 79 15 115 15c20 0 31 -5 31 -21c0 -3 -1 -12 -3 -29c-8 -86 -37 -311 -37 -355c0 -41 15 -61 48 -61c57 0 147 67 208 255z" />
    <glyph glyph-name="germandbls" unicode="&#xdf;" horiz-adv-x="516" 
d="M116 390h-72l4 38h72c4 37 12 87 15 114c8 71 46 168 173 173c109 0 138 -60 138 -109c-5 -118 -134 -140 -134 -216c0 -91 162 -145 162 -260c0 -64 -38 -144 -163 -144c-46 0 -102 12 -131 27l15 31c45 -19 81 -24 119 -24c66 0 119 34 119 103c0 65 -45 94 -80 131
c-38 41 -85 87 -85 135c0 82 136 129 136 209c0 27 -12 78 -99 78c-68 0 -120 -57 -129 -128c-1 -13 -52 -413 -54 -426c-21 -176 -37 -334 -177 -333c-22 0 -52 4 -80 12l11 33c32 -9 47 -10 65 -10c129 0 121 145 175 566z" />
    <glyph glyph-name="space" unicode=" " horiz-adv-x="247" 
 />
    <glyph glyph-name="quotesinglbase" unicode="&#x201a;" horiz-adv-x="169" 
d="M24 30c2 20 22 37 42 37c22 0 39 -17 36 -47c-7 -42 -43 -93 -95 -118l-8 14c23 21 40 41 46 74c-16 6 -24 21 -21 40z" />
    <glyph glyph-name="quotedblbase" unicode="&#x201e;" horiz-adv-x="262" 
d="M24 30c2 20 22 37 42 37c22 0 39 -17 36 -47c-7 -42 -43 -93 -95 -118l-8 14c23 21 40 41 46 74c-16 6 -24 21 -21 40zM124 30c2 20 23 37 43 37c22 0 38 -17 35 -47c-7 -42 -43 -93 -94 -118l-9 14c24 21 40 41 46 74c-15 6 -24 21 -21 40z" />
    <glyph glyph-name="daggerdbl" unicode="&#x2021;" horiz-adv-x="438" 
d="M37 185h161l30 247h-162l6 46h161l25 204h40l-25 -204h160l-5 -46h-161l-29 -247h160l-6 -45h-161l-23 -194h-40l24 194h-162z" />
    <glyph glyph-name="guilsinglleft" unicode="&#x2039;" horiz-adv-x="284" 
d="M225 331l-114 -150l79 -149l-18 -13l-113 144l5 39l146 146z" />
    <glyph glyph-name="guilsinglright" unicode="&#x203a;" horiz-adv-x="284" 
d="M158 184l-77 150l18 14l111 -146l-5 -39l-150 -144l-12 16z" />
    <glyph glyph-name="logicalnot" unicode="&#xac;" horiz-adv-x="516" 
d="M450 318l-26 -209h-41l19 167h-315l5 42h358z" />
    <glyph glyph-name="exclamdown" unicode="&#xa1;" horiz-adv-x="180" 
d="M115 417c-20 0 -33 17 -33 38c3 22 25 40 42 40c18 0 33 -15 33 -35c0 -23 -19 -43 -42 -43zM61 -204h-44l41 313l34 222h22l-19 -222z" />
    <glyph glyph-name="questiondown" unicode="&#xbf;" horiz-adv-x="391" 
d="M153 -214c-105 0 -155 39 -155 109c0 78 53 123 114 167c116 84 146 133 146 204c0 16 0 33 -1 56l35 9c3 -24 4 -45 4 -63c0 -81 -28 -137 -152 -226c-63 -46 -105 -81 -105 -142c0 -54 48 -74 109 -74c38 0 89 7 135 22l11 97h38l-16 -131c-54 -18 -117 -28 -163 -28z
M268 417c-20 0 -32 16 -32 35c0 24 21 43 41 43c19 0 33 -15 33 -34c0 -24 -19 -44 -42 -44z" />
    <glyph glyph-name="OE" unicode="&#x152;" horiz-adv-x="735" 
d="M688 0h-335c-19 -3 -39 -6 -60 -6c-169 0 -233 94 -233 255c0 25 1 50 3 75c18 183 104 367 304 367c30 0 56 -3 79 -10h300l-15 -125h-38l11 87h-268c-12 -88 -22 -176 -34 -264l270 6c-2 -16 -4 -32 -5 -48l-269 4l-37 -303h290l11 86h41zM292 32c9 0 17 0 26 1
c26 206 51 412 76 618c-8 1 -16 2 -25 2c-206 0 -268 -222 -268 -404c0 -144 59 -217 191 -217z" />
    <glyph glyph-name="plusminus" unicode="&#xb1;" horiz-adv-x="516" 
d="M54 0l4 35h356l-4 -35h-356zM442 262h-157l-22 -169h-41l21 169h-158l6 42h158l19 161h41l-19 -161h157z" />
    <glyph glyph-name="multiply" unicode="&#xd7;" horiz-adv-x="516" 
d="M375 125l-109 129l-146 -132l-25 31l145 132l-110 130l33 29l109 -129l138 127l27 -30l-139 -128l109 -129z" />
    <glyph glyph-name="ae" unicode="&#xe6;" horiz-adv-x="717" 
d="M480 -6c-83 0 -124 38 -142 92c-83 -77 -152 -95 -211 -95c-85 0 -105 61 -105 112c0 98 66 162 311 163c3 27 10 65 10 85c0 83 -29 105 -100 105c-31 0 -97 -13 -149 -32l-12 31c55 25 112 39 167 39c42 0 111 -7 132 -93c36 54 95 96 187 96c89 0 119 -58 119 -113
c0 -131 -161 -151 -319 -152c-1 -16 -2 -34 -2 -51c0 -72 19 -150 120 -150c51 0 97 13 148 37l13 -28c-34 -23 -100 -46 -167 -46zM67 109c0 -43 18 -76 74 -76c43 0 112 12 190 85c-4 20 -5 42 -5 64c0 15 0 30 2 50c-230 -5 -261 -68 -261 -123zM563 458
c-116 0 -181 -89 -192 -192c173 3 278 31 278 113c0 46 -29 79 -86 79z" />
    <glyph glyph-name="quotedbl" unicode="&#x22;" horiz-adv-x="203" 
d="M198 506h-23l10 176h43zM95 506h-22l11 176h44z" />
    <glyph glyph-name="primemod" unicode="&#x2b9;" horiz-adv-x="227" 
d="M98 403l-25 14l163 265l44 -29z" />
    <glyph glyph-name="caron" unicode="&#x2c7;" horiz-adv-x="452" 
d="M274 602l156 99l14 -20l-161 -135h-31l-127 137l17 19z" />
    <glyph glyph-name="breve" unicode="&#x2d8;" horiz-adv-x="477" 
d="M279 558c-63 0 -103 49 -133 98l36 22c27 -44 61 -80 100 -80c24 0 67 7 140 73l17 -16c-62 -74 -118 -97 -160 -97z" />
    <glyph glyph-name="dotaccent" unicode="&#x2d9;" horiz-adv-x="452" 
d="M281 644c18 0 31 -14 31 -32c1 -23 -17 -43 -41 -43c-18 0 -31 14 -32 33c0 23 22 42 42 42z" />
    <glyph glyph-name="ring" unicode="&#x2da;" horiz-adv-x="452" 
d="M266 552c-53 0 -90 43 -84 95c7 51 49 96 107 96c51 0 88 -44 82 -96c-6 -53 -51 -95 -105 -95zM286 713c-40 0 -68 -29 -73 -68c-4 -38 17 -66 57 -66c36 0 66 28 70 66c5 38 -18 68 -54 68z" />
    <glyph glyph-name="ogonek" unicode="&#x2db;" horiz-adv-x="479" 
d="M357 27c3 -4 6 -9 9 -12c-42 -37 -77 -109 -77 -137s25 -35 55 -35c26 0 56 7 73 11l3 -24c-30 -14 -69 -24 -103 -24c-53 0 -78 22 -78 59c0 36 26 104 118 162z" />
    <glyph glyph-name="hungarumlaut" unicode="&#x2dd;" horiz-adv-x="452" 
d="M199 535l-22 18l124 154l37 -36zM301 535l-22 18l123 154l39 -36z" />
    <glyph glyph-name="Dieresis" unicode="&#xf6cb;" horiz-adv-x="602" 
d="M465 726c-17 0 -27 11 -28 28c0 21 18 39 36 39c21 0 34 -10 35 -27c0 -24 -17 -40 -43 -40zM266 726c-19 0 -32 12 -32 29c-1 21 22 38 38 38c20 0 33 -10 34 -27c0 -24 -18 -40 -40 -40z" />
    <glyph glyph-name="paragraph" unicode="&#xb6;" horiz-adv-x="455" 
d="M417 650l-103 -835h-34l103 835h-70l-102 -835h-109l5 37h74l60 494h-13c-95 0 -156 71 -149 169c9 100 94 171 186 171h221l-4 -36h-65z" />
    <glyph glyph-name="AE" unicode="&#xc6;" horiz-adv-x="875" 
d="M479 38c2 57 5 115 8 172h-265l-110 -172h79c0 -12 1 -26 0 -38h-187c1 12 0 26 0 38h59c141 216 278 434 428 643h342l-5 -125h-38l5 87h-249c-4 -88 -9 -176 -12 -264l262 6v-48l-262 4c-4 -100 -8 -202 -13 -303h277c2 29 2 57 4 86h42l-5 -124h-424c1 12 1 26 0 38
h64zM496 637c-81 -128 -164 -256 -245 -384h237c4 128 10 256 14 384h-6z" />
    <glyph glyph-name="currency" unicode="&#xa4;" horiz-adv-x="518" 
d="M115 306c0 -80 64 -145 142 -145c76 0 140 65 140 145s-64 145 -140 145c-78 0 -142 -65 -142 -145zM121 424l-61 63l21 23l62 -62c31 26 71 42 115 42c42 0 79 -16 112 -42l62 62l24 -24l-63 -62c30 -37 40 -74 40 -117c0 -44 -14 -83 -39 -118l62 -59l-24 -26l-63 63
c-35 -33 -74 -43 -111 -43c-39 0 -76 10 -114 43l-62 -64l-23 25l62 61c-34 40 -42 82 -42 116c0 41 10 85 42 119z" />
    <glyph glyph-name="macron" unicode="&#xaf;" horiz-adv-x="452" 
d="M126 644h297l-5 -45h-297z" />
    <glyph glyph-name="anoteleia" unicode="&#x387;" horiz-adv-x="162" 
d="M107 394c19 0 32 -12 33 -30c0 -24 -19 -46 -42 -46c-19 0 -32 17 -33 35c0 23 21 41 42 41z" />
    <glyph glyph-name="florin" unicode="&#x192;" horiz-adv-x="516" 
d="M172 359l3 37h91l21 103c20 100 57 172 150 172c27 0 50 -5 73 -14l-12 -33c-30 7 -41 8 -64 8c-68 0 -91 -54 -107 -136l-20 -100h104l-3 -37h-108l-59 -302c-27 -124 -62 -180 -156 -180c-20 0 -49 5 -69 19l16 29c26 -11 40 -14 55 -14c68 0 95 60 113 147l60 301h-88
z" />
    <glyph glyph-name="brokenbar" unicode="&#xa6;" horiz-adv-x="190" 
d="M140 361h-33v334h33v-334zM107 256h33v-390h-33v390z" />
    <glyph glyph-name="slashedzero" unicode="&#xe23f;" horiz-adv-x="516" 
d="M314 672c158 0 185 -132 185 -248c0 -162 -52 -430 -264 -430c-155 0 -193 110 -193 231c0 76 22 447 272 447zM315 631c-209 0 -228 -332 -228 -408c0 -66 10 -120 43 -156c87 180 174 360 262 539c-20 16 -45 25 -77 25zM242 33c170 0 213 247 213 390
c0 60 -8 125 -40 167c-88 -179 -174 -357 -261 -536c22 -14 51 -21 88 -21z" />
    <glyph glyph-name="Circumflex" unicode="&#xf6c0;" horiz-adv-x="602" 
d="M499 698l-132 99l-156 -100l-15 19l160 137h31l128 -135z" />
    <glyph glyph-name="commaaccent" unicode="&#xf6c3;" horiz-adv-x="623" 
d="M329 -39c20 0 37 -15 37 -42c0 -44 -42 -90 -95 -115l-9 15c23 17 39 29 46 62c-14 5 -22 18 -22 33c0 25 19 47 43 47z" />
    <glyph glyph-name="Acute" unicode="&#xf6c9;" horiz-adv-x="602" 
d="M308 716l-13 24l171 101l22 -47z" />
    <glyph glyph-name="Caron" unicode="&#xf6ca;" horiz-adv-x="602" 
d="M368 779l154 88l14 -21l-159 -124h-32l-127 127l15 19z" />
    <glyph glyph-name="DieresisAcute" unicode="&#xf6cc;" horiz-adv-x="623" 
d="M492 859l-151 -143l-23 16l132 163zM285 802c21 0 33 -9 34 -27c0 -23 -16 -39 -40 -39c-18 0 -30 11 -30 28c-1 21 20 38 36 38zM488 802c20 0 33 -9 34 -27c0 -23 -17 -39 -42 -39c-17 0 -27 11 -28 28c0 21 19 38 36 38z" />
    <glyph glyph-name="DieresisGrave" unicode="&#xf6cd;" horiz-adv-x="623" 
d="M421 711l-138 155l45 32l117 -173zM488 802c20 0 33 -9 34 -27c0 -23 -17 -39 -42 -39c-17 0 -27 11 -28 28c0 21 19 38 36 38zM285 802c21 0 33 -9 34 -27c0 -23 -16 -39 -40 -39c-18 0 -30 11 -30 28c-1 21 20 38 36 38z" />
    <glyph glyph-name="Grave" unicode="&#xf6ce;" horiz-adv-x="602" 
d="M403 746l-16 -30l-183 80l30 50z" />
    <glyph glyph-name="Hungarumlaut" unicode="&#xf6cf;" horiz-adv-x="623" 
d="M278 716l-15 23l160 117l27 -46zM404 716l-15 23l160 117l27 -46z" />
    <glyph glyph-name="Macron" unicode="&#xf6d0;" horiz-adv-x="602" 
d="M215 792h308l-5 -45h-308z" />
    <glyph glyph-name="cyrBreve" unicode="&#xf6d1;" horiz-adv-x="514" 
d="M337 767c24 0 64 5 140 75l17 -16c-62 -74 -116 -98 -163 -98c-64 0 -103 51 -130 104l38 23c27 -44 60 -88 98 -88z" />
    <glyph glyph-name="cyrbreve" unicode="&#xf6d4;" horiz-adv-x="477" 
d="M273 563c-55 0 -97 43 -125 91l38 24c27 -42 59 -77 97 -77c23 0 65 6 134 70l17 -16c-60 -70 -116 -92 -161 -92z" />
    <glyph glyph-name="afii10051" unicode="&#x402;" horiz-adv-x="677" 
d="M610 681l-16 -139h-39l12 101h-237l-33 -269c70 30 135 42 182 42c113 0 161 -74 161 -168c0 -155 -113 -276 -219 -340l-11 23c105 74 186 174 186 301c0 98 -42 142 -130 142c-48 0 -113 -13 -174 -38l-36 -297h74l-4 -39h-183l4 39h67l75 604h-170l-13 -101h-39
l16 139h527z" />
    <glyph glyph-name="afii10053" unicode="&#x404;" horiz-adv-x="518" 
d="M378 691c73 0 125 -13 158 -27l-17 -138h-39c4 37 9 73 14 110c-30 9 -75 17 -119 17c-25 0 -47 -2 -70 -9c-104 -30 -169 -128 -193 -264l305 6l-6 -49l-304 5c-2 -27 -4 -54 -4 -85c0 -127 53 -225 208 -225c38 0 102 6 160 24c3 -11 7 -23 9 -34
c-42 -16 -120 -28 -177 -28c-163 0 -243 92 -243 267c0 143 45 430 318 430z" />
    <glyph glyph-name="afii10054" unicode="&#x405;" horiz-adv-x="483" 
d="M27 163h39l-12 -93c46 -25 100 -35 151 -35c117 0 207 50 207 161c0 89 -63 111 -142 134c-101 28 -188 54 -188 167c0 131 106 195 210 195c49 0 119 -8 169 -38l-16 -120h-39l13 97c-46 17 -83 21 -127 21c-87 0 -169 -47 -169 -152c0 -77 74 -103 140 -124
c87 -28 190 -44 190 -176c0 -153 -130 -206 -250 -206c-69 0 -137 14 -190 52z" />
    <glyph glyph-name="afii10055" unicode="&#x406;" horiz-adv-x="297" 
d="M204 0h-161l4 39h58l75 604h-58l4 39h161l-4 -39h-61l-74 -604h60z" />
    <glyph glyph-name="afii10057" unicode="&#x408;" horiz-adv-x="294" 
d="M185 643h-101l4 39h234l-4 -39h-90l-67 -527c-19 -159 -77 -240 -220 -289l-12 32c130 56 173 120 188 240z" />
    <glyph glyph-name="afii10058" unicode="&#x409;" horiz-adv-x="878" 
d="M481 643h-211l-9 -75c-37 -299 -77 -554 -273 -586l-7 32c152 45 196 208 237 544l11 85h-83l4 39h447l-4 -39h-69l-32 -251h162c137 0 184 -93 184 -175c0 -141 -106 -217 -213 -217h-289l4 39h67zM647 353h-160l-38 -314h183c90 0 166 57 166 179
c0 96 -70 135 -151 135z" />
    <glyph glyph-name="afii10059" unicode="&#x40a;" horiz-adv-x="883" 
d="M422 682h178l-4 -39h-69l-31 -251h161c138 0 184 -92 184 -175c0 -142 -106 -217 -213 -217h-289l4 39h67l38 313h-290l-38 -313h61l-4 -39h-164l4 39h59l75 604h-59l4 38h164l-4 -38h-61l-32 -253h290l31 253h-66zM649 353h-159l-38 -314h183c89 0 167 57 167 179
c0 96 -71 135 -153 135z" />
    <glyph glyph-name="afii10060" unicode="&#x40b;" horiz-adv-x="741" 
d="M644 269l-28 -230h60l-4 -39h-165l4 39h61l27 211c11 93 -20 126 -127 126c-57 0 -126 -20 -175 -42l-36 -295h73l-4 -39h-184l4 39h69l75 604h-171l-13 -101h-39l17 139h528l-16 -139h-39l12 101h-237l-34 -268c69 26 133 40 186 40c115 0 168 -50 156 -146z" />
    <glyph glyph-name="afii10061" unicode="&#x40c;" horiz-adv-x="552" 
d="M178 0h-164l4 37h60l75 609h-60l4 37h164l-4 -37h-61l-75 -609h61zM483 638l-247 -279l201 -318l80 -9l1 -28c-21 -9 -48 -12 -67 -12c-22 0 -37 7 -49 26l-208 335l1 14l259 292c19 23 34 31 53 30c21 0 41 -5 61 -15l-4 -27zM319 719l-13 24l171 101l22 -47z" />
    <glyph glyph-name="afii10062" unicode="&#x40e;" horiz-adv-x="525" 
d="M73 682h170l-4 -39h-69c22 -76 44 -152 65 -228l56 -185h4c21 44 158 365 179 413h-67l4 39h165l-4 -39h-56l-235 -547c-26 -64 -57 -105 -125 -105c-17 0 -48 1 -93 15l13 35c33 -10 57 -12 79 -12c47 0 60 21 90 86l37 80h-24l-133 448h-56zM343 767c24 0 64 5 140 75
l17 -16c-62 -74 -116 -98 -163 -98c-64 0 -103 51 -130 104l38 23c27 -44 60 -88 98 -88z" />
    <glyph glyph-name="afii10145" unicode="&#x40f;" horiz-adv-x="626" 
d="M480 681h165l-4 -38h-60l-75 -605h60l-4 -38h-254l-21 -160h-42l21 160h-253l4 38h59l75 605h-59l4 38h163l-4 -38h-61l-74 -605h341l75 605h-60z" />
    <glyph glyph-name="afii10017" unicode="&#x410;" horiz-adv-x="602" 
d="M558 0h-170l4 39h70l-26 150h-273l-63 -150h73l-4 -39h-175l4 39h57c94 218 182 426 278 644h53l123 -644h53zM428 232l-60 334l-13 71h-2c-2 -4 -2 -9 -29 -72c-25 -57 -67 -153 -141 -333h245z" />
    <glyph glyph-name="afii10018" unicode="&#x411;" horiz-adv-x="550" 
d="M78 39l75 604h-58l4 38h405l-15 -128h-39l11 90h-266l-31 -251h166c137 0 183 -93 183 -175c0 -141 -105 -217 -213 -217h-292l4 39h66zM318 353h-159l-39 -314h183c90 0 167 57 167 179c0 96 -71 135 -152 135z" />
    <glyph glyph-name="afii10019" unicode="&#x412;" horiz-adv-x="555" 
d="M417 356c76 -22 100 -86 100 -150c0 -140 -109 -206 -201 -206h-303c2 13 3 26 4 39h66c24 202 50 402 75 604h-62c2 13 3 26 4 39h264c117 0 169 -62 169 -149c0 -67 -28 -136 -116 -177zM340 334h-179c-12 -99 -23 -196 -36 -295h179c118 0 170 74 170 169
c0 68 -43 126 -134 126zM358 643h-158c-12 -89 -22 -179 -33 -268h158c106 0 168 65 168 154c0 66 -40 114 -135 114z" />
    <glyph glyph-name="afii10020" unicode="&#x413;" horiz-adv-x="482" 
d="M218 39l-4 -39h-200l4 39h63l75 604h-59l4 38h419l-15 -124h-38l11 86h-280l-74 -604h94z" />
    <glyph glyph-name="afii10021" unicode="&#x414;" horiz-adv-x="644" 
d="M43 0l-19 -160h-39l24 199h50c95 73 161 320 191 554l6 50h-62l4 38h449l-4 -38h-60l-75 -604h63l-24 -199h-41l20 160h-483zM111 39h355l75 604h-247l-7 -50c-33 -271 -84 -440 -176 -554z" />
    <glyph glyph-name="afii10022" unicode="&#x415;" horiz-adv-x="508" 
d="M14 0l4 39h63l75 604h-59l4 38h419l-14 -124h-39l11 86h-280l-33 -264l281 7l-5 -48l-280 4l-37 -303h301l10 86h42l-15 -125h-448z" />
    <glyph glyph-name="afii10024" unicode="&#x416;" horiz-adv-x="822" 
d="M487 646l-75 -609h62l-4 -37h-164l4 37h59l75 609h-59l4 37h164l-4 -37h-62zM336 358l-181 280l-77 9v27c21 9 47 16 66 16s32 -8 42 -25l196 -304l-2 -13l-274 -328c-19 -22 -37 -29 -57 -28c-19 0 -41 4 -61 12l2 28l81 9zM766 638l-245 -282l187 -315l79 -9l2 -28
c-21 -9 -48 -12 -67 -12c-22 0 -36 7 -49 26l-194 333l1 13l257 295c19 23 34 31 53 30c21 0 41 -5 61 -15l-4 -27z" />
    <glyph glyph-name="afii10025" unicode="&#x417;" horiz-adv-x="520" 
d="M90 509c6 46 10 93 16 140c47 24 120 42 197 42c114 0 192 -39 192 -139c0 -84 -57 -149 -143 -175c68 -20 120 -65 120 -151c0 -156 -137 -228 -266 -228c-77 0 -143 11 -195 36l17 34c69 -25 127 -30 164 -30c140 0 237 63 237 186c0 84 -76 132 -174 132h-79l5 40h78
c114 0 190 64 190 147c0 78 -61 108 -153 108c-55 0 -111 -13 -154 -32c-4 -36 -9 -74 -14 -110h-38z" />
    <glyph glyph-name="afii10026" unicode="&#x418;" horiz-adv-x="642" 
d="M583 0h-174l4 38h68l63 507h-4l-415 -477l-4 -30h65l-4 -38h-171l4 38h65l75 605h-62l4 38h171l-4 -38h-68l-63 -504h2l419 475l4 29h-83l4 38h187l-4 -38h-64l-75 -605h64z" />
    <glyph glyph-name="afii10027" unicode="&#x419;" horiz-adv-x="642" 
d="M583 0h-174l4 38h68l63 507h-4l-415 -477l-4 -30h65l-4 -38h-171l4 38h65l75 605h-62l4 38h171l-4 -38h-68l-63 -504h2l419 475l4 29h-83l4 38h187l-4 -38h-64l-75 -605h64zM396 750c-63 0 -103 49 -133 98l36 22c27 -44 61 -80 100 -80c24 0 67 7 140 73l17 -16
c-62 -74 -118 -97 -160 -97z" />
    <glyph glyph-name="afii10028" unicode="&#x41a;" horiz-adv-x="552" 
d="M178 0h-164l4 37h60l75 609h-60l4 37h164l-4 -37h-61l-75 -609h61zM483 638l-247 -279l201 -318l80 -9l1 -28c-21 -9 -48 -12 -67 -12c-22 0 -37 7 -49 26l-208 335l1 14l259 292c19 23 34 31 53 30c21 0 41 -5 61 -15l-4 -27z" />
    <glyph glyph-name="afii10029" unicode="&#x41b;" horiz-adv-x="612" 
d="M538 0h-162l4 40h59l74 602h-243l-9 -74c-37 -299 -77 -554 -273 -586l-7 32c152 45 196 208 237 544l11 84h-83l4 40h471l-4 -39h-60l-75 -603h60z" />
    <glyph glyph-name="afii10030" unicode="&#x41c;" horiz-adv-x="780" 
d="M373 111h6c25 45 49 92 74 137c18 32 134 241 151 273l88 161h106c-1 -13 -2 -26 -4 -39h-59c-25 -202 -51 -403 -75 -605h60c-2 -12 -3 -26 -4 -38h-165c2 12 3 26 4 38h63c23 185 46 369 68 554h-1l-64 -119c-39 -69 -76 -137 -115 -207l-114 -205h-44l-55 177l-75 243
l-33 111h-2c-22 -185 -45 -369 -66 -554h63c-2 -12 -3 -26 -4 -38h-163c2 12 3 26 4 38h58l75 605h-58c2 13 2 26 4 39h102c17 -54 34 -107 50 -160z" />
    <glyph glyph-name="afii10031" unicode="&#x41d;" horiz-adv-x="626" 
d="M562 0h-164l4 40h60l37 300h-341l-38 -300h61l-4 -40h-163l4 40h59l74 603h-59l5 39h163l-4 -39h-61l-32 -261h342l32 261h-60l4 39h164l-4 -39h-60l-75 -603h61z" />
    <glyph glyph-name="afii10032" unicode="&#x41e;" horiz-adv-x="616" 
d="M367 692c175 0 220 -125 220 -271c0 -234 -100 -428 -294 -428c-170 0 -233 96 -233 257c0 207 80 442 307 442zM369 653c-206 0 -268 -223 -268 -404c0 -144 58 -217 191 -217c181 0 253 193 253 388c0 118 -31 233 -176 233z" />
    <glyph glyph-name="afii10033" unicode="&#x41f;" horiz-adv-x="626" 
d="M562 0h-164l4 40h60l74 602h-342l-74 -602h61l-4 -40h-163l4 40h59l73 602h-59l6 40h548l-5 -40h-60l-74 -602h61z" />
    <glyph glyph-name="afii10034" unicode="&#x420;" horiz-adv-x="513" 
d="M198 0h-184l4 39h60l75 604h-61l5 39h253c94 0 170 -50 170 -168c0 -87 -46 -223 -211 -223h-157l-32 -252h82zM157 331h156c69 0 163 39 163 180c0 89 -51 132 -124 132h-157z" />
    <glyph glyph-name="afii10035" unicode="&#x421;" horiz-adv-x="518" 
d="M472 57l9 -34c-42 -17 -121 -30 -177 -30c-164 0 -243 93 -243 269c0 142 44 430 317 430c74 0 126 -13 158 -27l-16 -137h-39l13 108c-29 10 -75 17 -119 17c-177 0 -271 -164 -271 -395c0 -124 52 -226 208 -226c38 0 102 6 160 25z" />
    <glyph glyph-name="afii10036" unicode="&#x422;" horiz-adv-x="486" 
d="M529 682l-15 -136h-40l11 97h-167l-74 -604h82l-4 -39h-203l4 39h79l75 604h-170l-12 -97h-38l16 136h456z" />
    <glyph glyph-name="afii10037" unicode="&#x423;" horiz-adv-x="525" 
d="M73 682h170l-4 -39h-69c22 -76 44 -152 65 -228l56 -185h4c21 44 158 365 179 413h-67l4 39h165l-4 -39h-56l-235 -547c-26 -64 -57 -105 -125 -105c-17 0 -48 1 -93 15l13 35c33 -10 57 -12 79 -12c47 0 60 21 90 86l37 80h-24l-133 448h-56z" />
    <glyph glyph-name="afii10038" unicode="&#x424;" horiz-adv-x="725" 
d="M425 0h-161l4 39h60l6 45c-186 8 -281 88 -281 217c0 139 97 294 345 306l5 36h-60l4 39h161l-4 -39h-61l-5 -36c195 -7 268 -111 268 -222c0 -160 -125 -292 -331 -301h-1l-5 -45h60zM338 118l57 456c-219 -11 -306 -140 -306 -268c0 -120 91 -181 249 -188zM668 378
c0 91 -48 188 -236 196l-55 -456c188 10 291 124 291 260z" />
    <glyph glyph-name="afii10039" unicode="&#x425;" horiz-adv-x="571" 
d="M281 355l-136 289h-56l4 38h170l-4 -38h-70l117 -253l180 253h-71l4 38h182l-4 -38h-59l-211 -292l145 -312h61l-4 -40h-181l4 40h78l-129 276l-193 -276h80l-4 -40h-190l4 40h60z" />
    <glyph glyph-name="afii10040" unicode="&#x426;" horiz-adv-x="626" 
d="M493 -159l20 159h-501l4 38h59l75 605h-59l4 38h163l-4 -38h-61l-74 -605h341l75 605h-60l4 38h165l-4 -38h-60l-75 -605h56l-24 -197h-44z" />
    <glyph glyph-name="afii10041" unicode="&#x427;" horiz-adv-x="584" 
d="M525 38c-1 -12 -2 -26 -4 -38h-162l5 38h58c11 94 22 187 34 281c-69 -27 -132 -35 -185 -35c-105 0 -168 37 -168 118c0 7 0 14 1 22l27 218h-61c2 12 3 26 4 39h165c-2 -13 -2 -27 -4 -39h-62l-25 -200c-1 -8 -1 -16 -1 -24c0 -71 39 -97 138 -97c59 0 127 17 176 39
c11 94 24 188 35 282h-59l4 39h163c-2 -13 -2 -27 -4 -39h-62c-25 -202 -51 -402 -75 -604h62z" />
    <glyph glyph-name="afii10042" unicode="&#x428;" horiz-adv-x="854" 
d="M707 681h166l-4 -37h-60l-75 -605h60l-4 -39h-776l4 39h59l74 605h-59l5 37h164l-4 -37h-61l-75 -605h264l75 605h-61l4 37h169l-4 -37h-63l-75 -605h259l74 605h-60z" />
    <glyph glyph-name="afii10043" unicode="&#x429;" horiz-adv-x="854" 
d="M809 644l-75 -605h55l-24 -199h-47l20 160h-724l4 39h59l74 605h-59l5 37h164l-4 -37h-61l-75 -605h264l75 605h-61l4 37h169l-4 -37h-63l-75 -605h259l74 605h-60l4 37h166l-4 -37h-60z" />
    <glyph glyph-name="afii10044" unicode="&#x42a;" horiz-adv-x="692" 
d="M294 643h-187l-15 -116h-39l20 154h329l-4 -38h-60l-32 -251h166c137 0 184 -93 184 -175c0 -141 -106 -217 -213 -217h-292l4 39h66zM460 353h-159l-38 -314h183c89 0 166 57 166 179c0 96 -70 135 -152 135z" />
    <glyph glyph-name="afii10045" unicode="&#x42b;" horiz-adv-x="769" 
d="M701 0h-162l5 39h57l75 604h-58l4 38h162l-4 -38h-60l-75 -604h60zM97 682h176l-4 -39h-69l-31 -251h164c137 0 183 -93 183 -175c0 -141 -105 -217 -212 -217h-290l4 39h65l75 604h-66zM323 353h-159l-38 -314h182c90 0 167 57 167 179c0 96 -70 135 -152 135z" />
    <glyph glyph-name="afii10046" unicode="&#x42c;" horiz-adv-x="560" 
d="M102 682h176l-4 -39h-69l-31 -251h164c137 0 183 -93 183 -176c0 -140 -105 -216 -212 -216h-290l4 39h65l75 604h-66zM328 353h-159l-38 -314h182c90 0 167 57 167 179c0 96 -70 135 -152 135z" />
    <glyph glyph-name="afii10047" unicode="&#x42d;" horiz-adv-x="519" 
d="M454 340l-281 -2c1 16 4 30 6 46c93 -2 186 -4 280 -7c2 19 3 38 3 55c0 136 -61 220 -195 220c-44 0 -102 -9 -134 -19l-13 -109h-39l17 138c31 15 122 30 166 30c187 0 237 -121 237 -264c0 -247 -105 -434 -330 -434c-57 0 -127 11 -163 27l16 33
c51 -18 114 -24 151 -24c188 0 267 154 279 310z" />
    <glyph glyph-name="afii10048" unicode="&#x42e;" horiz-adv-x="832" 
d="M590 691c163 0 217 -121 217 -268c0 -239 -100 -429 -283 -429c-162 0 -229 93 -229 252c0 28 1 59 5 92c-47 0 -95 1 -143 1l-37 -300h61l-4 -39h-164l4 39h59l75 604h-59l4 38h163l-4 -38h-61c-10 -87 -21 -174 -32 -261h145c28 156 97 309 283 309zM589 653
c-199 0 -252 -226 -252 -408c0 -141 54 -213 186 -213c174 0 243 191 243 392c0 116 -41 229 -177 229z" />
    <glyph glyph-name="afii10049" unicode="&#x42f;" horiz-adv-x="573" 
d="M489 0h-181l4 39h72l34 269h-151l-172 -283c-14 -24 -30 -31 -51 -31c-19 0 -49 5 -65 11l3 29l76 9l165 270c-105 18 -133 88 -133 160c0 156 114 209 218 209h259l-4 -39h-60l-75 -604h65zM276 350h147l36 293h-162c-84 0 -162 -56 -162 -175c0 -101 82 -118 141 -118z
" />
    <glyph glyph-name="afii10065" unicode="&#x430;" horiz-adv-x="503" 
d="M279 492c36 0 73 -9 116 -24l26 26l15 -2c-24 -155 -52 -346 -60 -450c28 2 64 18 93 36c5 -5 8 -11 12 -16c-35 -38 -84 -71 -111 -71c-46 0 -41 43 -36 79c3 28 9 67 15 94h-4c-57 -137 -130 -171 -187 -171c-69 0 -118 54 -118 169c0 177 80 330 239 330zM167 32
c57 0 132 61 196 255c7 47 15 94 23 141c-46 19 -86 25 -113 25c-150 0 -189 -179 -189 -286c0 -92 33 -135 83 -135z" />
    <glyph glyph-name="afii10066" unicode="&#x431;" horiz-adv-x="468" 
d="M294 479c91 0 143 -62 143 -172c0 -123 -53 -315 -231 -315c-125 0 -164 79 -164 173c0 64 16 175 33 257c25 122 67 237 172 272c44 15 122 15 187 26l7 -34c-53 -9 -91 -11 -123 -14c-116 -10 -169 -78 -205 -249c-3 -13 -13 -56 -17 -83l4 -2c59 118 143 141 194 141z
M286 444c-70 0 -145 -59 -195 -181c-6 -41 -8 -68 -8 -94c-1 -79 23 -145 127 -145c119 0 185 130 185 282c0 86 -38 138 -109 138z" />
    <glyph glyph-name="afii10067" unicode="&#x432;" horiz-adv-x="453" 
d="M37 28l32 276c12 104 63 192 185 192c98 0 138 -60 138 -111c0 -55 -26 -89 -72 -109c0 -1 1 -2 1 -3c59 -11 85 -59 85 -102c0 -105 -74 -176 -191 -178c-55 0 -124 8 -174 29c-1 2 -2 4 -4 6zM109 307c-9 -87 -19 -173 -29 -259c39 -14 80 -22 133 -22
c73 0 151 39 151 140c0 55 -38 84 -106 84h-77c1 12 2 23 4 35h40c76 0 127 35 127 93c0 45 -32 81 -99 81c-104 0 -137 -84 -144 -152z" />
    <glyph glyph-name="afii10068" unicode="&#x433;" horiz-adv-x="376" 
d="M24 105c2 87 78 137 157 172c55 25 138 64 138 120c0 53 -49 65 -90 65c-47 0 -91 -17 -140 -40l-15 30c39 25 100 47 162 47c66 0 121 -31 121 -94c0 -76 -69 -118 -176 -166c-63 -28 -117 -72 -117 -134c0 -57 48 -76 106 -76c55 0 107 18 155 43l16 -26
c-51 -35 -120 -52 -175 -52c-79 0 -142 30 -142 111z" />
    <glyph glyph-name="afii10069" unicode="&#x434;" horiz-adv-x="484" 
d="M130 663l-9 31c49 19 96 28 138 28c110 0 192 -74 192 -266c0 -65 -9 -164 -35 -260c-25 -91 -84 -203 -211 -203c-133 0 -165 90 -165 192c0 126 71 299 230 299c50 0 99 -15 140 -39c0 1 2 2 2 2c-2 134 -34 238 -152 238c-34 0 -69 -3 -130 -22zM270 448
c-124 0 -187 -135 -187 -274c0 -71 23 -147 125 -147c155 0 191 227 202 380c-49 30 -94 41 -140 41z" />
    <glyph glyph-name="afii10070" unicode="&#x435;" horiz-adv-x="431" 
d="M194 -6c-123 0 -154 86 -154 187c0 121 47 316 242 316c89 0 119 -58 119 -113c0 -138 -156 -172 -318 -183c-1 -8 -1 -19 -1 -28c0 -63 20 -142 118 -142c51 0 97 13 148 37l13 -28c-34 -23 -100 -46 -167 -46zM87 242c174 9 270 50 270 137c0 46 -22 79 -80 79
c-109 0 -174 -84 -190 -216z" />
    <glyph glyph-name="afii10072" unicode="&#x436;" horiz-adv-x="720" 
d="M121 494c84 0 187 -134 214 -219l-3 -9c-40 -56 -88 -126 -140 -190c-50 -61 -79 -89 -104 -89c-23 0 -51 15 -78 78c6 4 10 9 16 13c17 -14 35 -36 72 -44c20 13 127 138 202 241c-28 76 -110 167 -180 167c-16 0 -32 -2 -56 -12l-11 16c12 31 35 48 68 48zM653 497
c34 0 57 -17 57 -48c-5 -4 -10 -10 -16 -14c-22 10 -38 11 -54 11c-65 0 -133 -89 -188 -168c49 -102 123 -224 141 -240c40 8 63 30 82 44c5 -4 10 -8 14 -13c-32 -47 -56 -67 -75 -74c-7 -4 -14 -4 -19 -4c-50 0 -162 238 -180 278v8c60 110 154 220 238 220zM359 0h-43
c20 145 39 295 60 443l-80 11c1 7 1 14 1 21c31 9 67 20 101 20c17 0 28 -12 25 -30l-20 -139z" />
    <glyph glyph-name="afii10073" unicode="&#x437;" horiz-adv-x="403" 
d="M211 496c62 0 152 -25 152 -110c0 -44 -27 -94 -92 -115v-3c46 -11 84 -48 84 -106c0 -117 -110 -167 -209 -167c-50 0 -100 10 -141 35l16 26c39 -18 84 -28 132 -28c81 0 163 39 163 132c0 68 -69 87 -117 87h-65l6 37h54c52 0 131 29 131 97c0 57 -55 81 -118 81
c-31 0 -72 -6 -99 -19l-13 -109l-26 -1l-10 95c-1 17 1 65 152 68z" />
    <glyph glyph-name="afii10074" unicode="&#x438;" horiz-adv-x="525" 
d="M420 487h40c-20 -144 -36 -285 -55 -445c31 2 58 11 85 27c5 -4 9 -8 13 -13c-37 -43 -74 -65 -101 -65c-31 0 -43 14 -43 46c2 28 12 92 18 127h-4c-58 -133 -150 -171 -188 -171c-71 0 -92 39 -92 97c0 25 3 74 35 354l-101 15l2 22c38 9 79 15 114 15
c21 0 31 -5 31 -21c0 -46 -39 -334 -39 -384c0 -41 15 -61 48 -61c57 0 147 67 208 255z" />
    <glyph glyph-name="afii10076" unicode="&#x43a;" horiz-adv-x="456" 
d="M407 497c34 0 56 -17 57 -48c-5 -4 -10 -10 -16 -14c-21 10 -37 12 -53 12c-57 0 -146 -78 -200 -170c50 -102 145 -223 163 -239c40 8 63 30 82 44l14 -13c-29 -48 -71 -78 -95 -78c-20 0 -40 17 -88 85c-47 66 -96 152 -113 190l1 11c59 110 163 220 248 220zM106 0
h-42c20 145 38 299 58 447c-26 4 -58 7 -84 11l2 24c34 8 75 13 103 13c13 0 24 -6 24 -21v-4z" />
    <glyph glyph-name="afii10077" unicode="&#x43b;" horiz-adv-x="462" 
d="M9 0l-2 7c89 157 169 309 256 475l31 7l7 -7c15 -157 33 -316 52 -434c24 4 51 14 77 31l14 -12c-22 -32 -62 -70 -95 -70c-21 0 -34 6 -39 42c-20 122 -34 242 -44 371h-4c-72 -145 -136 -271 -214 -410h-39z" />
    <glyph glyph-name="afii10078" unicode="&#x43c;" horiz-adv-x="607" 
d="M282 94h3c17 42 34 80 48 117c43 106 78 187 117 269l34 11l8 -5c1 -170 1 -326 14 -438c23 3 51 13 76 31l14 -13c-21 -31 -60 -68 -94 -68c-22 0 -38 5 -40 44c-6 85 -6 137 -7 195c0 53 1 112 4 178h-4c-57 -135 -86 -205 -162 -383l-28 -8l-6 4
c-19 98 -46 241 -59 385h-4c-45 -125 -81 -216 -143 -413h-34l-7 4c78 211 126 353 181 476l27 11l6 -4c16 -157 37 -293 56 -393z" />
    <glyph glyph-name="afii10079" unicode="&#x43d;" horiz-adv-x="518" 
d="M412 487h40c-21 -148 -36 -283 -56 -445c32 2 58 11 86 27l13 -13c-38 -42 -72 -65 -101 -65c-28 0 -40 11 -40 40s9 88 25 211h-232c-13 -109 -28 -219 -31 -242h-40c3 29 23 175 53 444l-100 15c1 7 1 15 1 22c39 9 79 15 115 15c20 0 31 -6 31 -23l-25 -200h232z" />
    <glyph glyph-name="afii10080" unicode="&#x43e;" horiz-adv-x="455" 
d="M265 457c-152 0 -184 -191 -184 -292c0 -69 26 -134 125 -134c148 0 177 185 177 272c0 79 -24 154 -118 154zM265 496c122 0 160 -92 160 -191c0 -119 -39 -312 -226 -312c-124 0 -159 84 -159 183c0 136 54 320 225 320z" />
    <glyph glyph-name="afii10081" unicode="&#x43f;" horiz-adv-x="525" 
d="M352 495c68 0 89 -41 89 -96c0 -30 -5 -83 -36 -357c28 2 56 10 86 27l13 -13c-36 -42 -73 -65 -101 -65c-29 0 -41 13 -41 40c0 8 1 17 2 27c33 275 34 312 34 331c0 38 -12 67 -48 67c-57 0 -147 -66 -208 -255c-8 -68 -19 -134 -27 -201h-43c21 151 44 334 56 444
l-100 15c1 7 0 15 1 22c39 9 81 15 117 15c22 0 31 -6 31 -24c-2 -28 -10 -83 -20 -148h4c58 131 148 171 191 171z" />
    <glyph glyph-name="afii10082" unicode="&#x440;" horiz-adv-x="492" 
d="M-42 -207c2 13 2 25 4 38h77c25 204 47 406 72 613l-100 15c1 7 0 15 1 22c41 9 82 15 116 15c21 0 32 -6 32 -23c0 -18 -5 -65 -20 -153h4c56 137 131 171 188 171c70 0 119 -55 119 -170c0 -177 -81 -329 -240 -329c-32 0 -71 8 -109 19c-8 -59 -16 -120 -23 -180h96
c-2 -13 -3 -25 -4 -38h-213zM324 452c-57 0 -135 -62 -200 -255l-19 -143c45 -19 86 -24 113 -24c150 0 189 179 189 287c0 92 -33 135 -83 135z" />
    <glyph glyph-name="afii10083" unicode="&#x441;" horiz-adv-x="418" 
d="M198 31c48 0 102 12 146 34l14 -27c-40 -23 -99 -44 -160 -44c-115 0 -158 72 -158 178c0 101 34 324 242 324c43 0 80 -11 98 -18c17 -7 27 -14 23 -35c-1 -10 -17 -67 -31 -101l-22 1l7 102c-22 8 -54 13 -84 13c-127 0 -193 -135 -193 -289c0 -78 27 -138 118 -138z
" />
    <glyph glyph-name="afii10084" unicode="&#x442;" horiz-adv-x="767" 
d="M416 319l2 -2c50 126 134 180 177 180c68 0 88 -41 88 -96c0 -27 -5 -86 -35 -357c28 2 56 10 86 28l13 -14c-40 -42 -76 -65 -105 -65c-26 0 -37 14 -37 41c0 8 1 17 2 26c36 306 34 318 34 337c0 35 -15 62 -49 62c-56 0 -127 -71 -188 -257c-6 -35 -5 -43 -24 -202
h-42c-1 -5 13 110 12 108c30 254 28 268 28 287c0 35 -15 62 -48 62c-57 0 -126 -66 -187 -256l-28 -201h-42c21 151 42 335 55 444l-101 15l3 23c38 8 81 14 116 14c19 0 31 -4 31 -19c0 -31 -10 -86 -20 -152h4c58 131 128 170 171 170c70 0 90 -43 89 -101
c0 -12 -2 -33 -5 -75z" />
    <glyph glyph-name="afii10085" unicode="&#x443;" horiz-adv-x="458" 
d="M97 495c23 0 33 -11 40 -45c29 -133 61 -323 82 -461c88 118 164 349 164 454l-77 -23l-8 17c37 39 64 58 86 58c23 0 39 -8 39 -42c0 -230 -221 -683 -463 -683c-47 0 -76 22 -76 54c0 3 1 5 1 8l21 14c24 -19 48 -26 72 -26c63 0 127 39 208 129
c-24 150 -67 400 -91 495l-74 -22l-8 17c34 36 64 56 84 56z" />
    <glyph glyph-name="afii10086" unicode="&#x444;" horiz-adv-x="602" 
d="M347 716c20 0 30 -5 30 -21c0 -15 -16 -140 -24 -202c155 -7 218 -88 218 -205c0 -154 -77 -282 -279 -294l-19 -164h82c-1 -11 -2 -24 -4 -36h-199c2 12 3 25 4 36h79c6 54 13 110 20 164c-165 7 -215 96 -215 204c0 163 91 287 274 295c7 57 13 114 19 171l-99 15l2 23
c39 8 84 14 111 14zM348 455c-18 -142 -34 -283 -52 -424c178 8 236 119 236 250c0 98 -46 171 -184 174zM310 455c-171 -10 -232 -121 -232 -258c0 -96 46 -162 181 -166z" />
    <glyph glyph-name="afii10087" unicode="&#x445;" horiz-adv-x="419" 
d="M58 -9l-7 -1l-33 20v5l168 223c-27 71 -55 140 -83 210c-26 -10 -51 -20 -77 -29l-9 19c35 34 67 55 87 55c25 0 35 -14 48 -48c20 -54 41 -107 62 -160c44 67 87 136 131 204h6l37 -23v-5c-55 -69 -107 -141 -161 -210l84 -212c30 3 61 15 90 31l9 -14
c-35 -41 -69 -66 -94 -66c-31 0 -38 18 -48 42c-5 14 -62 156 -68 169c-47 -70 -97 -138 -142 -210z" />
    <glyph glyph-name="afii10088" unicode="&#x446;" horiz-adv-x="521" 
d="M464 16l-2 2c-19 -17 -47 -27 -60 -27c-31 0 -43 13 -43 43c0 26 12 94 18 130h-4c-58 -132 -149 -171 -192 -171c-70 0 -88 39 -88 97c0 30 4 78 35 354l-101 15l2 22c38 9 79 15 114 15c23 0 32 -6 32 -24c-7 -53 -40 -335 -40 -381c0 -41 15 -61 48 -61
c57 0 147 67 208 255l29 202h40c-20 -144 -36 -285 -55 -445c32 1 58 11 88 30l19 -15c-23 -71 -45 -143 -68 -215h-37l-6 11c21 65 39 115 63 163z" />
    <glyph glyph-name="afii10089" unicode="&#x447;" horiz-adv-x="521" 
d="M411 486h40c-20 -166 -36 -287 -54 -444c28 2 55 12 85 29l13 -15c-38 -42 -71 -65 -100 -65c-31 0 -43 14 -43 45c0 15 29 209 40 290h-4c-45 -105 -136 -158 -193 -158c-68 0 -88 43 -88 99c0 29 12 130 18 177l-102 15l2 22c38 9 80 15 115 15c20 0 31 -5 31 -21
c0 -32 -22 -178 -22 -208c0 -35 14 -61 48 -61c55 0 152 59 205 217z" />
    <glyph glyph-name="afii10090" unicode="&#x448;" horiz-adv-x="767" 
d="M640 -9c-26 0 -37 14 -37 40s11 96 17 131h-4c-58 -131 -128 -169 -170 -169c-61 0 -90 35 -90 96c0 12 1 32 5 79h-2c-50 -126 -134 -177 -176 -177c-71 0 -90 42 -90 99c4 100 26 237 36 355l-100 15c1 7 0 15 1 22c39 9 79 15 115 15c23 0 32 -6 32 -24
c0 -43 -41 -315 -41 -383c0 -35 15 -62 49 -62c56 0 127 71 189 257l23 202h42c-3 -34 -8 -72 -12 -108c-26 -224 -28 -261 -28 -280c0 -38 12 -69 48 -69c59 0 124 64 187 253l30 204h40c-22 -155 -39 -293 -57 -446c32 2 52 11 86 28l13 -14c-40 -42 -76 -64 -106 -64z
" />
    <glyph glyph-name="afii10091" unicode="&#x449;" horiz-adv-x="764" 
d="M664 487h40c-22 -155 -39 -293 -57 -445c24 1 61 13 88 30l19 -15l-68 -215h-37l-6 11c22 65 40 115 63 163l-2 2c-14 -13 -42 -27 -60 -27c-26 0 -41 14 -41 40s11 96 17 131h-4c-58 -131 -128 -169 -170 -169c-61 0 -90 35 -90 96c0 12 1 32 5 79h-2
c-50 -126 -134 -177 -176 -177c-71 0 -90 42 -90 99c4 100 26 237 36 355l-100 15c1 7 0 15 1 22c39 9 79 15 115 15c23 0 32 -6 32 -24c0 -43 -41 -315 -41 -383c0 -35 15 -62 49 -62c56 0 127 71 189 257l23 202h42c-3 -34 -8 -72 -12 -108c-26 -224 -28 -261 -28 -280
c0 -38 12 -69 48 -69c59 0 124 64 187 253z" />
    <glyph glyph-name="afii10092" unicode="&#x44a;" horiz-adv-x="501" 
d="M268 484l12 -28c-40 -34 -113 -154 -123 -207h4c68 98 143 127 188 127c72 0 112 -50 112 -132c0 -76 -49 -251 -229 -251c-101 0 -135 57 -135 118c0 124 58 247 120 335l-138 -9l-46 -75l-23 5c6 28 13 55 18 72c16 50 33 50 69 50c11 0 106 -6 171 -5zM340 338
c-37 0 -122 -31 -191 -165c-5 -21 -7 -39 -7 -55c0 -83 81 -87 104 -87c116 0 173 122 173 216c0 58 -26 91 -79 91z" />
    <glyph glyph-name="afii10093" unicode="&#x44b;" horiz-adv-x="664" 
d="M339 376c72 0 112 -51 112 -133c0 -76 -49 -247 -223 -247c-37 0 -99 8 -145 31l-3 6c28 223 43 354 49 412l-100 15v22c39 9 80 15 115 15c18 0 30 -10 30 -24c0 -28 -16 -152 -27 -224h4c69 98 143 127 188 127zM330 338c-35 0 -120 -29 -189 -163l-17 -123
c39 -15 83 -19 110 -19c118 0 174 121 174 214c0 58 -25 91 -78 91zM559 487h40c1 3 -57 -449 -56 -445c28 2 58 10 87 28l13 -14c-39 -44 -75 -65 -104 -65s-36 18 -36 41c0 8 1 17 2 26z" />
    <glyph glyph-name="afii10094" unicode="&#x44c;" horiz-adv-x="481" 
d="M334 376c72 0 111 -51 111 -133c0 -76 -49 -247 -222 -247c-37 0 -100 8 -146 31l-2 6c27 223 43 354 49 412l-100 15v22c38 9 79 15 115 15c17 0 29 -10 29 -24c0 -28 -15 -152 -27 -224h4c69 98 143 127 189 127zM324 338c-35 0 -119 -29 -189 -163l-16 -123
c38 -15 82 -19 109 -19c119 0 175 121 175 214c0 58 -25 91 -79 91z" />
    <glyph glyph-name="afii10095" unicode="&#x44d;" horiz-adv-x="403" 
d="M143 -6c-55 0 -106 11 -131 22l12 30c38 -11 77 -18 117 -18c121 0 176 96 186 211l-226 -3c1 15 3 28 5 43l224 -5c0 6 1 12 1 18c0 121 -59 169 -161 169c-16 0 -33 -2 -50 -6l-25 -115h-25c-4 36 -6 80 -6 102c0 25 9 55 110 55c144 0 199 -83 199 -198
c0 -152 -63 -305 -230 -305z" />
    <glyph glyph-name="afii10096" unicode="&#x44e;" horiz-adv-x="638" 
d="M133 496c22 0 31 -5 31 -19v-4l-24 -189h101c23 108 84 212 209 212c120 0 158 -92 158 -192c0 -114 -34 -310 -218 -310c-122 0 -161 77 -161 183c0 22 2 45 5 67h-100l-29 -244h-41c19 148 37 296 55 444l-90 15l1 22c39 9 76 15 103 15zM450 457
c-149 0 -179 -191 -179 -292c0 -69 25 -135 122 -135c146 0 173 185 173 273c0 78 -23 154 -116 154z" />
    <glyph glyph-name="afii10097" unicode="&#x44f;" horiz-adv-x="449" 
d="M238 498c43 0 95 -8 138 -21l-49 -435c29 2 58 10 88 28l13 -14c-40 -44 -76 -65 -106 -65c-28 0 -35 18 -35 41c0 8 1 17 2 26l46 388c-29 10 -76 15 -103 15c-65 0 -132 -28 -132 -115c0 -70 61 -92 157 -102l4 -11l-189 -233l-52 -5l-5 9l184 212
c-92 12 -140 60 -140 127c0 109 84 155 179 155z" />
    <glyph glyph-name="afii10071" unicode="&#x451;" horiz-adv-x="431" 
d="M194 -6c-123 0 -154 86 -154 187c0 121 47 316 242 316c89 0 119 -58 119 -113c0 -138 -156 -172 -318 -183c-1 -8 -1 -19 -1 -28c0 -63 20 -142 118 -142c51 0 97 13 148 37l13 -28c-34 -23 -100 -46 -167 -46zM87 242c174 9 270 50 270 137c0 46 -22 79 -80 79
c-109 0 -174 -84 -190 -216zM350 638c20 0 33 -9 34 -27c0 -23 -17 -39 -42 -39c-17 0 -27 11 -28 28c0 21 19 38 36 38zM147 638c21 0 33 -9 34 -27c0 -23 -16 -39 -40 -39c-18 0 -30 11 -30 28c-1 21 20 38 36 38z" />
    <glyph glyph-name="afii10099" unicode="&#x452;" horiz-adv-x="486" 
d="M39 552l2 35h81l9 80l-100 15l3 22c38 9 79 15 115 15c18 0 29 -5 29 -20c0 -11 -5 -59 -11 -112h185l-2 -35h-186c-11 -93 -23 -191 -28 -227h3c60 134 151 173 194 173c76 0 108 -84 108 -186c0 -225 -93 -363 -175 -363c-28 0 -58 13 -87 51l22 20
c25 -23 49 -34 71 -34c79 0 128 194 128 326c0 83 -21 147 -71 147c-56 0 -146 -67 -207 -255l-28 -204h-42c15 116 48 388 67 552h-80z" />
    <glyph glyph-name="afii10101" unicode="&#x454;" horiz-adv-x="404" 
d="M282 496c80 0 122 -23 122 -46c0 -20 -16 -71 -33 -110c-7 0 -15 1 -21 1l6 103c-21 7 -54 13 -84 13c-98 0 -157 -68 -183 -190l225 5l-6 -43l-225 2c-2 -21 -4 -41 -4 -61c0 -76 24 -139 119 -139c52 0 92 10 146 33c4 -10 9 -17 14 -27c-40 -24 -102 -42 -159 -42
c-117 0 -159 71 -159 177c0 101 34 324 242 324z" />
    <glyph glyph-name="afii10102" unicode="&#x455;" horiz-adv-x="382" 
d="M152 -6c-109 0 -125 28 -125 57c0 28 16 74 31 109l19 -1l-7 -112c24 -9 52 -14 83 -14c73 0 147 29 147 102c0 55 -50 74 -101 97c-86 40 -144 74 -144 135c0 94 90 129 165 129c66 0 117 -24 117 -53c0 -27 -15 -78 -31 -114l-19 1l7 108c-19 10 -44 18 -77 18
c-59 0 -119 -22 -119 -90c0 -44 60 -71 99 -89c69 -31 140 -65 140 -140c0 -99 -97 -143 -185 -143z" />
    <glyph glyph-name="afii10103" unicode="&#x456;" horiz-adv-x="249" 
d="M148 496c21 0 30 -4 30 -20c0 4 -55 -442 -54 -434c28 2 57 10 87 28l13 -14c-40 -44 -75 -65 -105 -65c-28 0 -36 18 -36 41c0 8 1 17 2 26l48 386l-89 15l1 23c39 8 76 14 103 14zM168 636c16 0 29 -12 29 -29c0 -19 -15 -37 -35 -37c-15 0 -29 13 -29 28
c0 20 17 38 35 38z" />
    <glyph glyph-name="afii10105" unicode="&#x458;" horiz-adv-x="236" 
d="M149 496c20 0 30 -6 29 -23c-2 -37 -33 -290 -44 -386c-17 -145 -50 -264 -178 -302l-8 25c107 47 131 153 142 257c14 130 30 251 42 377l-90 15l1 22c39 9 79 15 106 15zM163 636c16 0 30 -13 30 -29c0 -19 -16 -38 -36 -38c-14 0 -28 13 -28 29c0 19 16 38 34 38z" />
    <glyph glyph-name="afii10106" unicode="&#x459;" horiz-adv-x="652" 
d="M506 375c59 0 105 -46 105 -133c0 -91 -58 -249 -227 -249c-59 0 -93 6 -96 46l-25 370h-4c-72 -145 -119 -245 -203 -409h-41c0 1 -1 3 -2 5c77 140 158 304 246 475l27 11l7 -3c5 -81 11 -157 18 -227c52 58 120 114 195 114zM498 338c-67 0 -126 -53 -184 -118
c5 -63 8 -118 13 -183c18 -6 45 -8 67 -8c103 0 176 88 176 214c0 58 -27 95 -72 95z" />
    <glyph glyph-name="afii10107" unicode="&#x45a;" horiz-adv-x="755" 
d="M403 487h43c-5 -49 -22 -187 -31 -238h4c69 98 144 127 189 127c72 0 112 -51 112 -133c0 -76 -50 -247 -223 -247c-37 0 -99 8 -145 31l-3 6l26 209h-227c-13 -109 -29 -219 -32 -242h-39c4 38 22 167 53 444l-101 15l2 23c38 8 79 14 114 14c19 0 30 -4 30 -20
c0 -14 -11 -104 -23 -203h226c12 98 21 175 25 214zM599 338c-36 0 -120 -29 -189 -163l-17 -123c39 -15 83 -19 110 -19c118 0 174 121 174 214c0 58 -25 91 -78 91z" />
    <glyph glyph-name="afii10108" unicode="&#x45b;" horiz-adv-x="525" 
d="M45 550l4 30h87c3 34 8 65 10 87l-100 15l3 22c38 9 79 15 115 15c18 0 29 -4 29 -19c0 -11 -5 -61 -12 -120h177l-3 -30h-177c-10 -89 -22 -190 -27 -224h4c59 134 150 173 192 173c67 0 89 -42 89 -97c0 -27 -6 -89 -37 -360c29 2 56 10 86 28l13 -14
c-39 -42 -75 -65 -105 -65c-25 0 -36 14 -36 40c0 8 1 17 2 27c35 298 34 320 34 341c0 34 -14 61 -48 61c-57 0 -147 -67 -208 -256l-28 -204h-42c16 117 48 383 66 550h-88z" />
    <glyph glyph-name="afii10193" unicode="&#x45f;" horiz-adv-x="525" 
d="M420 487h40c-20 -144 -36 -285 -55 -445c31 2 58 11 85 27c5 -4 9 -8 13 -13c-37 -43 -74 -65 -101 -65c-31 0 -43 14 -43 46c2 28 12 92 18 127h-4c-58 -133 -150 -171 -188 -171c-71 0 -92 39 -92 97c0 25 3 74 35 354l-101 15l2 22c38 9 79 15 114 15
c21 0 31 -5 31 -21c0 -46 -39 -334 -39 -384c0 -41 15 -61 48 -61c57 0 147 67 208 255zM310 15l25 -11c-16 -60 -31 -124 -47 -186l-36 -2l-6 10c17 64 40 139 64 189z" />
    <glyph glyph-name="afii10050" unicode="&#x490;" horiz-adv-x="482" 
d="M218 39l-4 -39h-200l4 39h63l75 604h-59l4 38h382l14 111h39l-19 -149h-319l-74 -604h94z" />
    <glyph glyph-name="afii10098" unicode="&#x491;" horiz-adv-x="379" 
d="M343 449h-196l-54 -449h-40c20 150 38 299 57 449h-46c1 12 2 24 4 37h276c8 38 14 74 22 112h22c2 -34 7 -65 7 -102c0 -34 -15 -47 -52 -47z" />
    <glyph glyph-name="schwacyrillic" unicode="&#x4d9;" horiz-adv-x="431" 
d="M242 497c123 0 154 -84 154 -186c0 -121 -47 -317 -242 -317c-89 0 -119 59 -119 114c0 138 156 172 318 183c1 8 1 18 1 28c0 63 -20 142 -118 142c-51 0 -97 -13 -148 -37l-13 28c34 23 100 45 167 45zM348 250c-173 -9 -270 -50 -270 -138c0 -46 23 -78 81 -78
c109 0 174 83 189 216z" />
    <glyph glyph-name="Wgrave" unicode="&#x1e80;" horiz-adv-x="831" 
d="M780 644h-70l4 38h171l-4 -38h-60l-230 -644h-44l-70 432l-15 101h-2l-41 -106l-175 -427h-46l-75 644h-59l4 38h173l-4 -38h-73l53 -489l10 -92h2l37 95l182 453l-4 33h-71l4 38h183l-4 -38h-73l82 -500l11 -83h2l33 95zM533 746l-16 -30l-183 80l30 50z" />
    <glyph glyph-name="wgrave" unicode="&#x1e81;" horiz-adv-x="647" 
d="M336 246c-1 0 -1 1 -2 1c-48 -104 -129 -208 -172 -250h-32c-13 149 -27 301 -41 451l-71 -24c-3 5 -6 12 -8 17c30 33 60 56 85 59c24 0 36 -10 38 -47c3 -49 26 -345 29 -395h4c60 72 130 189 164 277c-3 38 -5 75 -9 113c-25 -9 -50 -16 -75 -24c-3 5 -7 11 -9 16
c35 38 73 59 93 59c21 0 33 -10 35 -45l26 -398h4c98 111 181 266 182 390l-77 -24l-9 16c37 40 75 61 93 61c22 0 33 -12 33 -50c0 -151 -134 -364 -225 -452h-35zM391 552l-29 -17l-103 137l49 35z" />
    <glyph glyph-name="Wacute" unicode="&#x1e82;" horiz-adv-x="831" 
d="M780 644h-70l4 38h171l-4 -38h-60l-230 -644h-44l-70 432l-15 101h-2l-41 -106l-175 -427h-46l-75 644h-59l4 38h173l-4 -38h-73l53 -489l10 -92h2l37 95l182 453l-4 33h-71l4 38h183l-4 -38h-73l82 -500l11 -83h2l33 95zM444 717l-13 24l171 101l22 -47z" />
    <glyph glyph-name="wacute" unicode="&#x1e83;" horiz-adv-x="647" 
d="M336 246c-1 0 -1 1 -2 1c-48 -104 -129 -208 -172 -250h-32c-13 149 -27 301 -41 451l-71 -24c-3 5 -6 12 -8 17c30 33 60 56 85 59c24 0 36 -10 38 -47c3 -49 26 -345 29 -395h4c60 72 130 189 164 277c-3 38 -5 75 -9 113c-25 -9 -50 -16 -75 -24c-3 5 -7 11 -9 16
c35 38 73 59 93 59c21 0 33 -10 35 -45l26 -398h4c98 111 181 266 182 390l-77 -24l-9 16c37 40 75 61 93 61c22 0 33 -12 33 -50c0 -151 -134 -364 -225 -452h-35zM352 535l-23 18l123 155l39 -36z" />
    <glyph glyph-name="Wdieresis" unicode="&#x1e84;" horiz-adv-x="831" 
d="M780 644h-70l4 38h171l-4 -38h-60l-230 -644h-44l-70 432l-15 101h-2l-41 -106l-175 -427h-46l-75 644h-59l4 38h173l-4 -38h-73l53 -489l10 -92h2l37 95l182 453l-4 33h-71l4 38h183l-4 -38h-73l82 -500l11 -83h2l33 95zM377 726c-19 0 -32 12 -32 29c-1 21 22 38 38 38
c20 0 33 -10 34 -27c0 -24 -18 -40 -40 -40zM576 726c-17 0 -27 11 -28 28c0 21 18 39 36 39c21 0 34 -10 35 -27c0 -24 -17 -40 -43 -40z" />
    <glyph glyph-name="wdieresis" unicode="&#x1e85;" horiz-adv-x="647" 
d="M336 246c-1 0 -1 1 -2 1c-48 -104 -129 -208 -172 -250h-32c-13 149 -27 301 -41 451l-71 -24c-3 5 -6 12 -8 17c30 33 60 56 85 59c24 0 36 -10 38 -47c3 -49 26 -345 29 -395h4c60 72 130 189 164 277c-3 38 -5 75 -9 113c-25 -9 -50 -16 -75 -24c-3 5 -7 11 -9 16
c35 38 73 59 93 59c21 0 33 -10 35 -45l26 -398h4c98 111 181 266 182 390l-77 -24l-9 16c37 40 75 61 93 61c22 0 33 -12 33 -50c0 -151 -134 -364 -225 -452h-35zM247 614c21 0 33 -9 34 -27c0 -23 -16 -39 -40 -39c-18 0 -30 11 -30 28c-1 21 20 38 36 38zM450 614
c20 0 33 -9 34 -27c0 -23 -17 -39 -42 -39c-17 0 -27 11 -28 28c0 21 19 38 36 38z" />
    <glyph glyph-name="Ygrave" unicode="&#x1ef2;" horiz-adv-x="517" 
d="M271 354h4l190 290h-66l4 38h162l-4 -38h-51l-218 -328l-34 -277h79l-4 -39h-202l4 39h81l33 274l-133 331h-53l5 38h157l-4 -38h-64zM357 746l-16 -30l-183 80l30 50z" />
    <glyph glyph-name="ygrave" unicode="&#x1ef3;" horiz-adv-x="458" 
d="M97 495c23 0 33 -11 40 -45c29 -133 61 -323 82 -461c88 118 164 349 164 454l-77 -23l-8 17c37 39 64 58 86 58c23 0 39 -8 39 -42c0 -230 -221 -683 -463 -683c-47 0 -76 22 -76 54c0 3 1 5 1 8l21 14c24 -19 48 -26 72 -26c63 0 127 39 208 129
c-24 150 -67 400 -91 495l-74 -22l-8 17c34 36 64 56 84 56zM269 552l-29 -17l-103 137l49 35z" />
    <glyph glyph-name="fraction" unicode="&#x2044;" horiz-adv-x="107" 
d="M277 696l-364 -719h-38l367 719h35z" />
    <glyph glyph-name="fraction" unicode="&#x2215;" horiz-adv-x="107" 
d="M277 696l-364 -719h-38l367 719h35z" />
    <glyph glyph-name="dong" unicode="&#x20ab;" horiz-adv-x="516" 
d="M282 478c29 0 61 -7 96 -17l9 67h-135l4 35h134l7 57l-91 13l3 21c34 9 67 13 100 13c10 0 27 -3 27 -21v-5l-10 -78h69l-4 -35h-68c-20 -158 -47 -346 -54 -409c25 2 55 13 81 29l13 -14c-30 -32 -71 -61 -97 -61c-28 0 -37 18 -37 43c0 27 9 65 13 96c-1 0 -2 1 -3 1
c-51 -108 -116 -139 -165 -139c-62 0 -106 46 -106 144c0 150 73 260 214 260zM182 111c50 0 121 56 178 212l14 99c-38 14 -75 20 -98 20c-130 0 -165 -131 -165 -221c0 -74 29 -110 71 -110zM429 0h-377l4 35h376z" />
    <glyph glyph-name="centigrade" unicode="&#x2103;" horiz-adv-x="735" 
d="M689 57l9 -34c-42 -17 -121 -30 -177 -30c-164 0 -243 93 -243 269c0 142 44 430 317 430c74 0 126 -13 158 -27l-16 -137h-39l13 108c-29 10 -75 17 -119 17c-177 0 -271 -164 -271 -395c0 -124 52 -226 208 -226c38 0 102 6 160 25zM170 496c-75 0 -118 51 -119 115
c-1 60 51 117 116 117c64 0 115 -56 116 -117c0 -64 -50 -115 -113 -115zM165 695c-47 0 -83 -40 -83 -88c0 -45 37 -82 84 -82c45 0 85 38 84 82c0 48 -40 88 -85 88z" />
    <glyph glyph-name="fahrenheit" unicode="&#x2109;" horiz-adv-x="721" 
d="M170 472c-75 0 -118 51 -119 115c-1 60 51 117 116 117c64 0 115 -56 116 -117c0 -64 -50 -115 -113 -115zM165 671c-47 0 -83 -40 -83 -88c0 -45 37 -82 84 -82c45 0 85 38 84 82c0 48 -40 88 -85 88zM458 39l-4 -39h-200l4 39h63l75 604h-59l4 38h414l-15 -124h-38
l11 86h-275l-33 -264l276 7l-5 -48l-275 4l-37 -303h94z" />
    <glyph glyph-name="afii61352" unicode="&#x2116;" horiz-adv-x="998" 
d="M500 87h5l69 556h-69c2 13 3 26 4 39h173c-2 -13 -2 -26 -4 -39h-63c-26 -214 -52 -429 -79 -643h-38c-54 105 -107 212 -161 319l-82 165l-60 121c-1 0 -2 -1 -3 -1l-68 -565h68c-2 -13 -2 -26 -4 -39h-175c2 13 3 26 4 39h65l75 604h-65c2 13 2 26 4 39h110l141 -280
l86 -175zM858 679c87 0 113 -61 114 -126c1 -78 -28 -205 -154 -205c-88 0 -113 56 -114 122c-1 89 35 209 154 209zM858 648c-101 0 -119 -121 -118 -185c1 -42 18 -83 82 -83c97 0 115 116 114 172c-1 48 -18 96 -78 96zM934 259h-260l5 36h259z" />
    <glyph glyph-name="published" unicode="&#x2117;" horiz-adv-x="819" 
d="M408 -19c-197 0 -357 158 -357 354c0 194 160 352 357 352s359 -158 359 -352c0 -196 -162 -354 -359 -354zM408 656c-178 0 -325 -143 -325 -321s147 -322 325 -322c182 0 326 144 326 322s-144 321 -326 321zM417 77h-146v30h48v449h-48v31h201c79 0 150 -45 150 -146
c0 -56 -26 -153 -145 -153h-123v-181h63v-30zM354 319h124c53 0 109 27 109 120c0 79 -49 117 -112 117h-121v-237z" />
    <glyph glyph-name="Ohm" unicode="&#x2126;" horiz-adv-x="633" 
d="M450 40l122 -1l-4 -39h-210l5 43c144 35 192 227 192 390c0 111 -44 219 -178 219c-202 0 -266 -205 -266 -403c0 -104 24 -183 114 -205l-5 -44h-205l4 39c38 0 80 1 118 1c-51 40 -72 113 -72 196c0 203 67 455 308 455c176 0 225 -122 225 -263
c0 -155 -44 -317 -148 -388z" />
    <glyph glyph-name="angstrom" unicode="&#x212b;" horiz-adv-x="602" 
d="M558 0h-170l4 39h70l-26 150h-273l-63 -150h73l-4 -39h-175l4 39h57c94 218 182 426 278 644h53l123 -644h53zM428 232l-60 334l-13 71h-2c-2 -4 -2 -9 -29 -72c-25 -57 -67 -153 -141 -333h245zM353 720c-53 0 -90 43 -84 95c7 51 49 96 107 96c51 0 88 -44 82 -96
c-6 -53 -51 -95 -105 -95zM373 881c-40 0 -68 -29 -73 -68c-4 -38 17 -66 57 -66c36 0 66 28 70 66c5 38 -18 68 -54 68z" />
    <glyph glyph-name="gradient" unicode="&#x2207;" horiz-adv-x="605" 
d="M587 683l-4 -35c-101 -216 -204 -433 -305 -648h-54c-50 215 -94 429 -148 644l4 39h507zM324 190l216 454h-422c37 -151 65 -301 101 -452l34 -154h1z" />
    <glyph glyph-name="product" unicode="&#x220f;" horiz-adv-x="626" 
d="M551 -90h-165l4 39h60l86 691h-342l-86 -691h61l-4 -39h-163l4 39h59l85 691h-59l6 42h548l-5 -42h-60l-85 -691h60z" />
    <glyph glyph-name="summation" unicode="&#x2211;" horiz-adv-x="480" 
d="M272 324l-1 -18l-229 -357h356l14 108h40l-18 -147h-441l4 40l230 366l-145 325l4 41h412l-15 -136h-40l12 97h-327z" />
    <glyph glyph-name="minus" unicode="&#x2212;" horiz-adv-x="516" 
d="M444 276h-357l5 42h358z" />
    <glyph glyph-name="radical" unicode="&#x221a;" horiz-adv-x="522" 
d="M44 272c-3 11 -6 21 -10 32c33 16 65 32 98 47l63 -366h5c104 255 209 509 313 765h41l-335 -807h-54c-22 117 -43 236 -66 354c-17 -8 -37 -16 -55 -25z" />
    <glyph glyph-name="infinity" unicode="&#x221e;" horiz-adv-x="756" 
d="M555 113c-55 0 -106 32 -180 104c-50 -49 -106 -104 -186 -104c-76 0 -136 61 -136 134c0 78 60 138 143 138c71 0 127 -50 180 -106c57 54 108 106 189 106c80 0 135 -54 135 -132c0 -83 -67 -140 -145 -140zM201 152c56 0 112 55 151 93c-44 47 -97 101 -161 101
c-56 0 -91 -46 -91 -98c0 -54 42 -96 101 -96zM556 152c60 0 97 47 97 100c0 61 -43 94 -96 94c-58 0 -115 -57 -153 -95c58 -60 95 -99 152 -99z" />
    <glyph glyph-name="logicaland" unicode="&#x2227;" horiz-adv-x="517" 
d="M31 0l232 486h36l134 -486h-45l-112 417l-201 -417h-44z" />
    <glyph glyph-name="logicalor" unicode="&#x2228;" horiz-adv-x="516" 
d="M204 0l-113 486h44l97 -421l216 421h45l-253 -486h-36z" />
    <glyph glyph-name="intersection" unicode="&#x2229;" horiz-adv-x="513" 
d="M400 0h-41l38 305c9 80 -25 145 -114 145c-91 0 -133 -57 -142 -136l-39 -314h-41l39 318c12 101 73 172 187 172c113 0 162 -84 150 -181z" />
    <glyph glyph-name="union" unicode="&#x222a;" horiz-adv-x="513" 
d="M418 488h41l-37 -307c-13 -97 -80 -181 -194 -181s-158 71 -147 172l40 316h41l-38 -314c-11 -79 18 -134 108 -134s139 65 149 145z" />
    <glyph glyph-name="integral" unicode="&#x222b;" horiz-adv-x="309" 
d="M115 -5c27 224 17 368 45 595c12 97 54 159 139 159c25 0 39 0 66 -7l-9 -37c-22 3 -27 4 -47 4c-74 0 -96 -46 -105 -115c-29 -227 -20 -342 -42 -590c-10 -110 -61 -169 -149 -169c-19 0 -35 3 -60 10l10 34c20 -3 27 -5 46 -5c80 0 98 51 106 121z" />
    <glyph glyph-name="notequal" unicode="&#x2260;" horiz-adv-x="516" 
d="M455 455l-66 -65h79l-5 -42h-116l-93 -93h197l-5 -41h-235l-117 -115l-27 27l87 88h-84l5 41h122l92 93h-203l6 42h239l96 95z" />
    <glyph glyph-name="lessequal" unicode="&#x2264;" horiz-adv-x="516" 
d="M421 0h-372l4 40h372zM432 99l-353 150l4 37l391 149l-6 -47l-335 -122c-7 2 312 -123 305 -120z" />
    <glyph glyph-name="greaterequal" unicode="&#x2265;" horiz-adv-x="516" 
d="M419 0h-372l5 40h372zM451 250l-394 -150l6 47l333 123c8 -2 -311 121 -304 119l7 47l356 -149z" />
    <glyph glyph-name="lozenge" unicode="&#x25ca;" horiz-adv-x="460" 
d="M437 263c-61 -115 -123 -229 -185 -342h-44l-188 342c62 112 126 231 188 343h44zM387 263l-157 291h-1c-52 -97 -105 -194 -158 -291c53 -95 107 -195 158 -290h2z" />
    <glyph glyph-name="zero.text" unicode="&#xe000;" horiz-adv-x="516" 
d="M304 673c169 0 192 -151 192 -273c0 -162 -50 -407 -252 -407c-155 0 -194 114 -198 234c0 99 16 446 258 446zM307 634c-216 0 -217 -352 -217 -412c3 -109 39 -192 160 -192c162 0 205 229 205 370c0 104 -25 234 -148 234z" />
    <glyph glyph-name="one.text" unicode="&#xe001;" horiz-adv-x="463" 
d="M261 602l-163 -27l-3 31l174 56h42l-77 -622h132l-4 -40h-318l5 40h142z" />
    <glyph glyph-name="two.text" unicode="&#xe002;" horiz-adv-x="516" 
d="M408 0h-400l4 37c143 121 390 319 390 479c0 80 -56 114 -133 114c-29 0 -87 -6 -172 -57l-20 31c86 61 160 70 199 70c97 0 173 -46 173 -147c0 -185 -249 -382 -378 -486h300l12 102h42z" />
    <glyph glyph-name="three.text" unicode="&#xe003;" horiz-adv-x="494" 
d="M165 -9c-87 0 -142 15 -183 37l14 30c83 -29 129 -29 167 -29c110 0 206 68 206 171c0 91 -74 146 -169 146c-17 0 -34 -1 -49 -3l-7 36c184 48 228 101 228 160c0 52 -37 99 -130 99c-44 0 -95 -11 -167 -43l-15 29c54 35 129 55 184 55c123 0 174 -63 174 -131
s-41 -135 -160 -170c81 -9 154 -73 156 -170c-1 -114 -100 -217 -249 -217z" />
    <glyph glyph-name="four.text" unicode="&#xe004;" horiz-adv-x="516" 
d="M400 662h46l-52 -431h93l-5 -41h-94c-6 -50 -12 -100 -19 -150h74l-5 -40h-185l5 40h69c6 50 12 100 19 150h-318l6 45zM82 231h270l45 366h-7c-16 -21 -273 -325 -308 -366z" />
    <glyph glyph-name="five.text" unicode="&#xe005;" horiz-adv-x="500" 
d="M254 408c85 0 177 -46 177 -174c0 -169 -131 -243 -245 -243c-79 0 -132 12 -183 37l16 37c79 -29 118 -31 156 -31c120 0 211 61 211 197c0 92 -68 135 -150 135c-38 0 -81 -10 -121 -30l-31 30l38 296h329l-16 -129h-39l10 85h-245l-32 -233c17 5 57 23 125 23z" />
    <glyph glyph-name="six.text" unicode="&#xe006;" horiz-adv-x="516" 
d="M116 366l5 -4c33 20 92 49 173 49c93 0 172 -46 172 -173c0 -147 -94 -244 -225 -244c-144 0 -185 95 -185 221c0 259 111 458 286 458c70 0 119 -22 137 -34c-6 -11 -13 -23 -18 -35c-47 22 -91 27 -123 27c-153 0 -209 -194 -222 -265zM288 367
c-84 0 -154 -35 -182 -59c-6 -32 -6 -70 -6 -92c0 -84 23 -183 139 -183c120 0 179 90 179 200c0 81 -32 134 -130 134z" />
    <glyph glyph-name="seven.text" unicode="&#xe007;" horiz-adv-x="482" 
d="M464 621l-347 -621h-48l348 618h-283l-13 -104h-42l19 148h371z" />
    <glyph glyph-name="eight.text" unicode="&#xe008;" horiz-adv-x="516" 
d="M317 638c-123 0 -157 -101 -157 -137c0 -74 83 -106 169 -141c95 61 122 118 122 166c0 53 -28 112 -134 112zM238 27c129 0 183 90 183 158c0 101 -70 129 -190 176c-112 -56 -150 -138 -150 -204c0 -67 39 -130 157 -130zM324 673c84 0 167 -41 167 -141
c0 -67 -40 -130 -129 -188c66 -35 99 -85 99 -157c0 -94 -78 -194 -228 -194c-137 0 -193 74 -193 159c0 88 53 174 161 226c-53 31 -80 71 -80 121c0 89 83 174 203 174z" />
    <glyph glyph-name="nine.text" unicode="&#xe009;" horiz-adv-x="516" 
d="M417 301l-3 4c-27 -16 -64 -35 -110 -45c-18 -3 -40 -6 -64 -6c-94 0 -171 46 -171 172c0 147 98 247 233 247s177 -96 177 -223c0 -259 -111 -455 -288 -455c-69 0 -129 21 -146 33c6 11 11 23 17 35c48 -22 101 -27 134 -27c154 0 210 195 221 265zM247 298
c114 0 183 58 181 57c4 41 6 62 6 97c0 83 -24 178 -139 178c-119 0 -181 -87 -181 -201c0 -79 36 -131 133 -131z" />
    <glyph glyph-name="numbersign.text" unicode="&#xe00a;" horiz-adv-x="482" 
d="M243 0l61 194h-164l-61 -194h-34l62 194h-73l16 32h68l64 194h-76l15 33h72l56 169h34l-57 -169h164l56 169h34l-56 -169h65l-15 -33h-60l-65 -194h69l-17 -32h-63l-62 -194h-33zM216 420l-65 -194h164l65 194h-164z" />
    <glyph glyph-name="dollar.text" unicode="&#xe00b;" horiz-adv-x="516" 
d="M235 -74l99 799h33l-8 -62c30 -1 79 -12 110 -35l-14 -114h-38l11 91c-20 11 -47 17 -73 20l-34 -274c74 -26 136 -75 136 -148c0 -120 -76 -183 -179 -197l-10 -80h-33zM301 725l-99 -799h-33l10 77c-45 5 -95 20 -133 49c4 37 8 74 13 112h38l-10 -90
c35 -19 67 -25 97 -29c13 99 24 198 37 297c-68 27 -113 60 -113 140c0 108 70 159 152 177l8 66h33zM316 310l-33 -264c76 13 132 59 132 149c0 62 -40 92 -99 115zM150 484c0 -59 33 -80 76 -100c9 78 20 157 29 236c-54 -15 -105 -54 -105 -136z" />
    <glyph glyph-name="euro.text" unicode="&#xe00c;" horiz-adv-x="516" 
d="M47 310h398l-5 -36h-314c-8 -133 38 -243 202 -243c28 0 78 4 121 15l9 74h36l-12 -98c-41 -18 -105 -29 -160 -29c-164 0 -247 100 -236 281h-44zM451 359h-398l3 35h47c20 129 110 275 280 275c69 0 123 -13 153 -26l-14 -114h-37l10 86c-27 9 -70 17 -110 17
c-140 0 -208 -93 -241 -238h310z" />
    <glyph glyph-name="florin.text" unicode="&#xe00d;" horiz-adv-x="475" 
d="M132 359l3 37h91l21 103c20 100 57 172 150 172c27 0 50 -5 73 -14l-12 -33c-30 7 -41 8 -64 8c-68 0 -91 -54 -107 -136l-20 -100h104l-3 -37h-108l-59 -302c-27 -124 -62 -180 -156 -180c-20 0 -49 5 -69 19l16 29c26 -11 40 -14 55 -14c68 0 95 60 113 147l60 301h-88
z" />
    <glyph glyph-name="sterling.text" unicode="&#xe00e;" horiz-adv-x="516" 
d="M450 0h-414l5 39c66 21 91 113 103 181l17 103h-69l6 35h69l19 117c16 101 64 191 187 191c49 0 114 -12 147 -31l-15 -115h-37l11 90c-27 10 -61 19 -108 19c-103 0 -130 -70 -146 -157l-19 -114h199l-6 -35h-199l-16 -102c-11 -68 -34 -151 -74 -181h344z" />
    <glyph glyph-name="cent.text" unicode="&#xe00f;" horiz-adv-x="469" 
d="M213 -40l9 76c-107 5 -147 75 -147 178c0 95 30 300 209 322l13 99h35l-12 -97c41 -1 77 -11 95 -18c17 -7 27 -14 23 -35c-1 -10 -17 -67 -31 -101l-22 1l7 102c-20 7 -49 12 -77 13l-52 -426c39 4 81 15 116 33l14 -27c-35 -20 -83 -38 -135 -42l-9 -78h-36zM115 211
c0 -76 26 -136 112 -138l53 425c-109 -19 -165 -145 -165 -287z" />
    <glyph glyph-name="yen.text" unicode="&#xe010;" horiz-adv-x="516" 
d="M445 278h-365l4 33h152c-38 104 -78 208 -117 312h-53l6 39h160c-2 -13 -4 -27 -5 -39h-65c35 -96 68 -192 102 -288h4c59 96 118 192 176 288h-66c1 12 3 26 5 39h164c-1 -13 -3 -27 -5 -39h-50l-198 -312h155zM74 228h365l-5 -36h-163c-1 -13 -2 -27 -4 -40l-15 -113
h84c-2 -13 -3 -27 -4 -39h-207c2 12 2 26 4 39h82l14 113l5 40h-161z" />
    <glyph glyph-name="Scaron" unicode="&#x160;" horiz-adv-x="483" 
d="M27 163h39l-12 -93c46 -25 100 -35 151 -35c117 0 207 50 207 161c0 89 -63 111 -142 134c-101 28 -188 54 -188 167c0 131 106 195 210 195c49 0 119 -8 169 -38l-16 -120h-39l13 97c-46 17 -83 21 -127 21c-87 0 -169 -47 -169 -152c0 -77 74 -103 140 -124
c87 -28 190 -44 190 -176c0 -153 -130 -206 -250 -206c-69 0 -137 14 -190 52zM323 779l154 88l14 -21l-159 -124h-32l-127 127l15 19z" />
    <glyph glyph-name="Zcaron" unicode="&#x17d;" horiz-adv-x="465" 
d="M421 0h-428l4 39l439 604h-302l-11 -97h-39l16 136h387l-4 -39l-438 -603h339l14 105h41zM316 779l154 88l14 -21l-159 -124h-32l-127 127l15 19z" />
    <glyph glyph-name="scaron" unicode="&#x161;" horiz-adv-x="382" 
d="M152 -6c-109 0 -125 28 -125 57c0 28 16 74 31 109l19 -1l-7 -112c24 -9 52 -14 83 -14c73 0 147 29 147 102c0 55 -50 74 -101 97c-86 40 -144 74 -144 135c0 94 90 129 165 129c66 0 117 -24 117 -53c0 -27 -15 -78 -31 -114l-19 1l7 108c-19 10 -44 18 -77 18
c-59 0 -119 -22 -119 -90c0 -44 60 -71 99 -89c69 -31 140 -65 140 -140c0 -99 -97 -143 -185 -143zM220 602l156 99l14 -20l-161 -135h-31l-127 137l17 19z" />
    <glyph glyph-name="zcaron" unicode="&#x17e;" horiz-adv-x="419" 
d="M337 0h-321l-9 34l342 414h-231l-40 -109l-22 2l12 115c3 28 24 31 38 31h278l13 -40l-338 -409h270l36 106l20 -1l-12 -112c-3 -28 -21 -31 -36 -31zM242 602l156 99l14 -20l-161 -135h-31l-127 137l17 19z" />
    <glyph glyph-name="Ydieresis" unicode="&#x178;" horiz-adv-x="517" 
d="M271 354h4l190 290h-66l4 38h162l-4 -38h-51l-218 -328l-34 -277h79l-4 -39h-202l4 39h81l33 274l-133 331h-53l5 38h157l-4 -38h-64zM422 726c-17 0 -27 11 -28 28c0 21 18 39 36 39c21 0 34 -10 35 -27c0 -24 -17 -40 -43 -40zM223 726c-19 0 -32 12 -32 29
c-1 21 22 38 38 38c20 0 33 -10 34 -27c0 -24 -18 -40 -40 -40z" />
    <glyph glyph-name="cent" unicode="&#xa2;" horiz-adv-x="516" 
d="M233 -82l9 76c-107 5 -147 75 -147 178c0 95 30 300 209 322l13 99h35l-12 -97c41 -1 77 -11 95 -18c17 -7 27 -14 23 -35c-1 -10 -17 -67 -31 -101l-22 1l7 102c-20 7 -49 12 -77 13l-52 -426c39 4 81 15 116 33l14 -27c-35 -20 -83 -38 -135 -42l-9 -78h-36zM135 169
c0 -76 26 -136 112 -138l53 425c-109 -19 -165 -145 -165 -287z" />
    <glyph glyph-name="Agrave" unicode="&#xc0;" horiz-adv-x="602" 
d="M558 0h-170l4 39h70l-26 150h-273l-63 -150h73l-4 -39h-175l4 39h57c94 218 182 426 278 644h53l123 -644h53zM428 232l-60 334l-13 71h-2c-2 -4 -2 -9 -29 -72c-25 -57 -67 -153 -141 -333h245zM404 746l-16 -30l-183 80l30 50z" />
    <glyph glyph-name="Aacute" unicode="&#xc1;" horiz-adv-x="602" 
d="M558 0h-170l4 39h70l-26 150h-273l-63 -150h73l-4 -39h-175l4 39h57c94 218 182 426 278 644h53l123 -644h53zM428 232l-60 334l-13 71h-2c-2 -4 -2 -9 -29 -72c-25 -57 -67 -153 -141 -333h245zM326 716l-13 24l171 101l22 -47z" />
    <glyph glyph-name="Acircumflex" unicode="&#xc2;" horiz-adv-x="602" 
d="M558 0h-170l4 39h70l-26 150h-273l-63 -150h73l-4 -39h-175l4 39h57c94 218 182 426 278 644h53l123 -644h53zM428 232l-60 334l-13 71h-2c-2 -4 -2 -9 -29 -72c-25 -57 -67 -153 -141 -333h245zM499 698l-132 99l-156 -100l-15 19l160 137h31l128 -135z" />
    <glyph glyph-name="Atilde" unicode="&#xc3;" horiz-adv-x="602" 
d="M558 0h-170l4 39h70l-26 150h-273l-63 -150h73l-4 -39h-175l4 39h57c94 218 182 426 278 644h53l123 -644h53zM428 232l-60 334l-13 71h-2c-2 -4 -2 -9 -29 -72c-25 -57 -67 -153 -141 -333h245zM311 804c40 0 88 -41 116 -41l65 33l10 -9c-14 -33 -47 -61 -82 -61
c-52 0 -85 39 -118 39l-64 -38l-12 10c17 33 50 67 85 67z" />
    <glyph glyph-name="Adieresis" unicode="&#xc4;" horiz-adv-x="602" 
d="M558 0h-170l4 39h70l-26 150h-273l-63 -150h73l-4 -39h-175l4 39h57c94 218 182 426 278 644h53l123 -644h53zM428 232l-60 334l-13 71h-2c-2 -4 -2 -9 -29 -72c-25 -57 -67 -153 -141 -333h245zM457 726c-17 0 -27 11 -28 28c0 21 18 39 36 39c21 0 34 -10 35 -27
c0 -24 -17 -40 -43 -40zM258 726c-19 0 -32 12 -32 29c-1 21 22 38 38 38c20 0 33 -10 34 -27c0 -24 -18 -40 -40 -40z" />
    <glyph glyph-name="Aring" unicode="&#xc5;" horiz-adv-x="602" 
d="M558 0h-170l4 39h70l-26 150h-273l-63 -150h73l-4 -39h-175l4 39h57c94 218 182 426 278 644h53l123 -644h53zM428 232l-60 334l-13 71h-2c-2 -4 -2 -9 -29 -72c-25 -57 -67 -153 -141 -333h245zM357 695c-53 0 -90 43 -84 95c7 51 49 96 107 96c51 0 88 -44 82 -96
c-6 -53 -51 -95 -105 -95zM377 856c-40 0 -68 -29 -73 -68c-4 -38 17 -66 57 -66c36 0 66 28 70 66c5 38 -18 68 -54 68z" />
    <glyph glyph-name="Ccedilla" unicode="&#xc7;" horiz-adv-x="518" 
d="M472 57l9 -34c-37 -15 -104 -27 -157 -29c-22 -24 -44 -50 -65 -74c57 -2 96 -21 96 -65c0 -62 -63 -107 -177 -107l5 28c72 7 123 25 123 65c0 34 -53 39 -97 41l-8 15c28 33 57 64 85 96c-152 7 -225 99 -225 269c0 142 44 430 317 430c74 0 126 -13 158 -27l-16 -137
h-39l13 108c-29 10 -75 17 -119 17c-177 0 -271 -164 -271 -395c0 -124 52 -226 208 -226c38 0 102 6 160 25z" />
    <glyph glyph-name="Egrave" unicode="&#xc8;" horiz-adv-x="508" 
d="M14 0l4 39h63l75 604h-59l4 38h419l-14 -124h-39l11 86h-280l-33 -264l281 7l-5 -48l-280 4l-37 -303h301l10 86h42l-15 -125h-448zM394 746l-16 -30l-183 80l30 50z" />
    <glyph glyph-name="Eacute" unicode="&#xc9;" horiz-adv-x="508" 
d="M14 0l4 39h63l75 604h-59l4 38h419l-14 -124h-39l11 86h-280l-33 -264l281 7l-5 -48l-280 4l-37 -303h301l10 86h42l-15 -125h-448zM273 716l-13 24l171 101l22 -47z" />
    <glyph glyph-name="Ecircumflex" unicode="&#xca;" horiz-adv-x="508" 
d="M14 0l4 39h63l75 604h-59l4 38h419l-14 -124h-39l11 86h-280l-33 -264l281 7l-5 -48l-280 4l-37 -303h301l10 86h42l-15 -125h-448zM474 698l-132 99l-156 -100l-15 19l160 137h31l128 -135z" />
    <glyph glyph-name="Edieresis" unicode="&#xcb;" horiz-adv-x="508" 
d="M14 0l4 39h63l75 604h-59l4 38h419l-14 -124h-39l11 86h-280l-33 -264l281 7l-5 -48l-280 4l-37 -303h301l10 86h42l-15 -125h-448zM431 726c-17 0 -27 11 -28 28c0 21 18 39 36 39c21 0 34 -10 35 -27c0 -24 -17 -40 -43 -40zM232 726c-19 0 -32 12 -32 29
c-1 21 22 38 38 38c20 0 33 -10 34 -27c0 -24 -18 -40 -40 -40z" />
    <glyph glyph-name="Igrave" unicode="&#xcc;" horiz-adv-x="297" 
d="M204 0h-161l4 39h58l75 604h-58l4 39h161l-4 -39h-61l-74 -604h60zM268 746l-16 -30l-183 80l30 50z" />
    <glyph glyph-name="Iacute" unicode="&#xcd;" horiz-adv-x="297" 
d="M204 0h-161l4 39h58l75 604h-58l4 39h161l-4 -39h-61l-74 -604h60zM145 716l-13 24l171 101l22 -47z" />
    <glyph glyph-name="Icircumflex" unicode="&#xce;" horiz-adv-x="297" 
d="M204 0h-161l4 39h58l75 604h-58l4 39h161l-4 -39h-61l-74 -604h60zM351 698l-132 99l-156 -100l-15 19l160 137h31l128 -135z" />
    <glyph glyph-name="Idieresis" unicode="&#xcf;" horiz-adv-x="297" 
d="M204 0h-161l4 39h58l75 604h-58l4 39h161l-4 -39h-61l-74 -604h60zM304 726c-17 0 -27 11 -28 28c0 21 18 39 36 39c21 0 34 -10 35 -27c0 -24 -17 -40 -43 -40zM105 726c-19 0 -32 12 -32 29c-1 21 22 38 38 38c20 0 33 -10 34 -27c0 -24 -18 -40 -40 -40z" />
    <glyph glyph-name="Eth" unicode="&#xd0;" horiz-adv-x="600" 
d="M340 682c177 0 232 -119 232 -271c0 -218 -83 -411 -311 -411h-247l4 39h65l35 289h-60l4 36h61l35 279h-62l4 39h240zM329 643h-127l-35 -279h161l-4 -36h-161l-35 -288h122c54 0 279 -3 279 360c0 245 -142 243 -200 243z" />
    <glyph glyph-name="Ntilde" unicode="&#xd1;" horiz-adv-x="661" 
d="M498 88h5l69 555h-69l4 39h173l-4 -39h-63c-26 -214 -52 -429 -79 -643h-38l-133 266l-109 218l-59 121c-1 0 -2 -1 -3 -1l-68 -565h68l-4 -39h-175l4 39h65l75 604h-65l4 39h110c38 -75 74 -150 112 -225c26 -52 161 -328 180 -369zM338 846c40 0 88 -41 116 -41l65 33
l10 -9c-14 -33 -47 -61 -82 -61c-52 0 -85 39 -118 39l-64 -38l-12 10c17 33 50 67 85 67z" />
    <glyph glyph-name="Ograve" unicode="&#xd2;" horiz-adv-x="616" 
d="M367 692c175 0 220 -125 220 -271c0 -234 -100 -428 -294 -428c-170 0 -233 96 -233 257c0 207 80 442 307 442zM369 653c-206 0 -268 -223 -268 -404c0 -144 58 -217 191 -217c181 0 253 193 253 388c0 118 -31 233 -176 233zM426 746l-16 -30l-183 80l30 50z" />
    <glyph glyph-name="Oacute" unicode="&#xd3;" horiz-adv-x="616" 
d="M367 692c175 0 220 -125 220 -271c0 -234 -100 -428 -294 -428c-170 0 -233 96 -233 257c0 207 80 442 307 442zM369 653c-206 0 -268 -223 -268 -404c0 -144 58 -217 191 -217c181 0 253 193 253 388c0 118 -31 233 -176 233zM303 716l-13 24l171 101l22 -47z" />
    <glyph glyph-name="Ocircumflex" unicode="&#xd4;" horiz-adv-x="616" 
d="M367 692c175 0 220 -125 220 -271c0 -234 -100 -428 -294 -428c-170 0 -233 96 -233 257c0 207 80 442 307 442zM369 653c-206 0 -268 -223 -268 -404c0 -144 58 -217 191 -217c181 0 253 193 253 388c0 118 -31 233 -176 233zM527 698l-132 99l-156 -100l-15 19l160 137
h31l128 -135z" />
    <glyph glyph-name="Otilde" unicode="&#xd5;" horiz-adv-x="616" 
d="M367 692c175 0 220 -125 220 -271c0 -234 -100 -428 -294 -428c-170 0 -233 96 -233 257c0 207 80 442 307 442zM369 653c-206 0 -268 -223 -268 -404c0 -144 58 -217 191 -217c181 0 253 193 253 388c0 118 -31 233 -176 233zM340 848c40 0 88 -41 116 -41l65 33l10 -9
c-14 -33 -47 -61 -82 -61c-52 0 -85 39 -118 39l-64 -38l-12 10c17 33 50 67 85 67z" />
    <glyph glyph-name="Odieresis" unicode="&#xd6;" horiz-adv-x="616" 
d="M367 692c175 0 220 -125 220 -271c0 -234 -100 -428 -294 -428c-170 0 -233 96 -233 257c0 207 80 442 307 442zM369 653c-206 0 -268 -223 -268 -404c0 -144 58 -217 191 -217c181 0 253 193 253 388c0 118 -31 233 -176 233zM480 726c-17 0 -27 11 -28 28
c0 21 18 39 36 39c21 0 34 -10 35 -27c0 -24 -17 -40 -43 -40zM281 726c-19 0 -32 12 -32 29c-1 21 22 38 38 38c20 0 33 -10 34 -27c0 -24 -18 -40 -40 -40z" />
    <glyph glyph-name="Oslash" unicode="&#xd8;" horiz-adv-x="616" 
d="M366 691c80 0 133 -26 167 -68l58 71h36l-78 -96c28 -46 37 -107 37 -172c0 -236 -95 -432 -294 -432c-85 0 -144 23 -181 68c-19 -22 -37 -45 -56 -66h-37c26 30 50 60 75 91c-23 40 -34 94 -34 158c0 206 80 446 307 446zM545 419c0 51 -7 102 -24 143
c-127 -156 -256 -310 -384 -466c31 -43 81 -64 154 -64c182 0 254 193 254 387zM368 653c-207 0 -268 -225 -268 -408c2 -49 8 -88 22 -122l383 465c-26 39 -69 65 -137 65z" />
    <glyph glyph-name="Ugrave" unicode="&#xd9;" horiz-adv-x="651" 
d="M572 643h-71l4 39h174l-4 -39h-61l-50 -401c-18 -147 -98 -249 -257 -249c-174 0 -233 100 -214 254l49 396h-60l5 39h174l-4 -39h-71l-50 -399c-17 -139 36 -211 166 -211c127 0 204 72 220 211zM430 746l-16 -30l-183 80l30 50z" />
    <glyph glyph-name="Uacute" unicode="&#xda;" horiz-adv-x="651" 
d="M572 643h-71l4 39h174l-4 -39h-61l-50 -401c-18 -147 -98 -249 -257 -249c-174 0 -233 100 -214 254l49 396h-60l5 39h174l-4 -39h-71l-50 -399c-17 -139 36 -211 166 -211c127 0 204 72 220 211zM341 716l-13 24l171 101l22 -47z" />
    <glyph glyph-name="Ucircumflex" unicode="&#xdb;" horiz-adv-x="651" 
d="M572 643h-71l4 39h174l-4 -39h-61l-50 -401c-18 -147 -98 -249 -257 -249c-174 0 -233 100 -214 254l49 396h-60l5 39h174l-4 -39h-71l-50 -399c-17 -139 36 -211 166 -211c127 0 204 72 220 211zM535 699l-137 97l-162 -98l-15 19l166 134h32l133 -132z" />
    <glyph glyph-name="Udieresis" unicode="&#xdc;" horiz-adv-x="651" 
d="M572 643h-71l4 39h174l-4 -39h-61l-50 -401c-18 -147 -98 -249 -257 -249c-174 0 -233 100 -214 254l49 396h-60l5 39h174l-4 -39h-71l-50 -399c-17 -139 36 -211 166 -211c127 0 204 72 220 211zM494 726c-17 0 -27 11 -28 28c0 21 18 39 36 39c21 0 34 -10 35 -27
c0 -24 -17 -40 -43 -40zM295 726c-19 0 -32 12 -32 29c-1 21 22 38 38 38c20 0 33 -10 34 -27c0 -24 -18 -40 -40 -40z" />
    <glyph glyph-name="Yacute" unicode="&#xdd;" horiz-adv-x="517" 
d="M271 354h4l190 290h-66l4 38h162l-4 -38h-51l-218 -328l-34 -277h79l-4 -39h-202l4 39h81l33 274l-133 331h-53l5 38h157l-4 -38h-64zM275 715l-13 24l171 101l22 -47z" />
    <glyph glyph-name="Thorn" unicode="&#xde;" horiz-adv-x="513" 
d="M193 643l-12 -88h154c94 0 169 -53 169 -172c0 -91 -45 -225 -211 -225h-158l-15 -118h84l-4 -40h-186l4 40h60l72 603h-61l4 39h186l-4 -39h-82zM177 514l-38 -316h158c69 0 164 42 164 184c0 89 -51 132 -124 132h-160z" />
    <glyph glyph-name="agrave" unicode="&#xe0;" horiz-adv-x="503" 
d="M279 492c36 0 73 -9 116 -24l26 26l15 -2c-24 -155 -52 -346 -60 -450c28 2 64 18 93 36c5 -5 8 -11 12 -16c-35 -38 -84 -71 -111 -71c-46 0 -41 43 -36 79c3 28 9 67 15 94h-4c-57 -137 -130 -171 -187 -171c-69 0 -118 54 -118 169c0 177 80 330 239 330zM167 32
c57 0 132 61 196 255c7 47 15 94 23 141c-46 19 -86 25 -113 25c-150 0 -189 -179 -189 -286c0 -92 33 -135 83 -135zM309 552l-29 -17l-103 137l49 35z" />
    <glyph glyph-name="aacute" unicode="&#xe1;" horiz-adv-x="503" 
d="M279 492c36 0 73 -9 116 -24l26 26l15 -2c-24 -155 -52 -346 -60 -450c28 2 64 18 93 36c5 -5 8 -11 12 -16c-35 -38 -84 -71 -111 -71c-46 0 -41 43 -36 79c3 28 9 67 15 94h-4c-57 -137 -130 -171 -187 -171c-69 0 -118 54 -118 169c0 177 80 330 239 330zM167 32
c57 0 132 61 196 255c7 47 15 94 23 141c-46 19 -86 25 -113 25c-150 0 -189 -179 -189 -286c0 -92 33 -135 83 -135zM278 535l-23 18l123 155l39 -36z" />
    <glyph glyph-name="acircumflex" unicode="&#xe2;" horiz-adv-x="503" 
d="M279 492c36 0 73 -9 116 -24l26 26l15 -2c-24 -155 -52 -346 -60 -450c28 2 64 18 93 36c5 -5 8 -11 12 -16c-35 -38 -84 -71 -111 -71c-46 0 -41 43 -36 79c3 28 9 67 15 94h-4c-57 -137 -130 -171 -187 -171c-69 0 -118 54 -118 169c0 177 80 330 239 330zM167 32
c57 0 132 61 196 255c7 47 15 94 23 141c-46 19 -86 25 -113 25c-150 0 -189 -179 -189 -286c0 -92 33 -135 83 -135zM450 533l-132 99l-156 -100l-15 19l160 137h31l129 -135z" />
    <glyph glyph-name="atilde" unicode="&#xe3;" horiz-adv-x="503" 
d="M279 492c36 0 73 -9 116 -24l26 26l15 -2c-24 -155 -52 -346 -60 -450c28 2 64 18 93 36c5 -5 8 -11 12 -16c-35 -38 -84 -71 -111 -71c-46 0 -41 43 -36 79c3 28 9 67 15 94h-4c-57 -137 -130 -171 -187 -171c-69 0 -118 54 -118 169c0 177 80 330 239 330zM167 32
c57 0 132 61 196 255c7 47 15 94 23 141c-46 19 -86 25 -113 25c-150 0 -189 -179 -189 -286c0 -92 33 -135 83 -135zM258 657c40 0 88 -41 116 -41l65 33l10 -9c-14 -33 -47 -61 -82 -61c-52 0 -85 39 -118 39l-64 -38l-12 10c17 33 50 67 85 67z" />
    <glyph glyph-name="adieresis" unicode="&#xe4;" horiz-adv-x="503" 
d="M279 492c36 0 73 -9 116 -24l26 26l15 -2c-24 -155 -52 -346 -60 -450c28 2 64 18 93 36c5 -5 8 -11 12 -16c-35 -38 -84 -71 -111 -71c-46 0 -41 43 -36 79c3 28 9 67 15 94h-4c-57 -137 -130 -171 -187 -171c-69 0 -118 54 -118 169c0 177 80 330 239 330zM167 32
c57 0 132 61 196 255c7 47 15 94 23 141c-46 19 -86 25 -113 25c-150 0 -189 -179 -189 -286c0 -92 33 -135 83 -135zM209 631c21 0 33 -9 34 -27c0 -23 -16 -39 -40 -39c-18 0 -30 11 -30 28c-1 21 20 38 36 38zM412 631c20 0 33 -9 34 -27c0 -23 -17 -39 -42 -39
c-17 0 -27 11 -28 28c0 21 19 38 36 38z" />
    <glyph glyph-name="aring" unicode="&#xe5;" horiz-adv-x="503" 
d="M279 492c36 0 73 -9 116 -24l26 26l15 -2c-24 -155 -52 -346 -60 -450c28 2 64 18 93 36c5 -5 8 -11 12 -16c-35 -38 -84 -71 -111 -71c-46 0 -41 43 -36 79c3 28 9 67 15 94h-4c-57 -137 -130 -171 -187 -171c-69 0 -118 54 -118 169c0 177 80 330 239 330zM167 32
c57 0 132 61 196 255c7 47 15 94 23 141c-46 19 -86 25 -113 25c-150 0 -189 -179 -189 -286c0 -92 33 -135 83 -135zM301 552c-53 0 -90 43 -84 95c7 51 49 96 107 96c51 0 88 -44 82 -96c-6 -53 -51 -95 -105 -95zM321 713c-40 0 -68 -29 -73 -68c-4 -38 17 -66 57 -66
c36 0 66 28 70 66c5 38 -18 68 -54 68z" />
    <glyph glyph-name="ccedilla" unicode="&#xe7;" horiz-adv-x="418" 
d="M198 31c48 0 102 12 146 34l14 -27c-34 -20 -80 -37 -131 -42c-21 -23 -41 -47 -61 -70c57 -2 96 -21 96 -65c0 -62 -63 -107 -177 -107l5 28c72 7 123 25 123 65c0 34 -53 39 -97 41l-8 15l81 91c-108 4 -149 75 -149 178c0 101 34 324 242 324c43 0 80 -11 98 -18
c17 -7 27 -14 23 -35c-1 -10 -17 -67 -31 -101l-22 1l7 102c-22 8 -54 13 -84 13c-127 0 -193 -135 -193 -289c0 -78 27 -138 118 -138z" />
    <glyph glyph-name="egrave" unicode="&#xe8;" horiz-adv-x="431" 
d="M194 -6c-123 0 -154 86 -154 187c0 121 47 316 242 316c89 0 119 -58 119 -113c0 -138 -156 -172 -318 -183c-1 -8 -1 -19 -1 -28c0 -63 20 -142 118 -142c51 0 97 13 148 37l13 -28c-34 -23 -100 -46 -167 -46zM87 242c174 9 270 50 270 137c0 46 -22 79 -80 79
c-109 0 -174 -84 -190 -216zM283 552l-29 -17l-103 137l49 35z" />
    <glyph glyph-name="eacute" unicode="&#xe9;" horiz-adv-x="431" 
d="M194 -6c-123 0 -154 86 -154 187c0 121 47 316 242 316c89 0 119 -58 119 -113c0 -138 -156 -172 -318 -183c-1 -8 -1 -19 -1 -28c0 -63 20 -142 118 -142c51 0 97 13 148 37l13 -28c-34 -23 -100 -46 -167 -46zM87 242c174 9 270 50 270 137c0 46 -22 79 -80 79
c-109 0 -174 -84 -190 -216zM271 535l-23 18l123 155l39 -36z" />
    <glyph glyph-name="ecircumflex" unicode="&#xea;" horiz-adv-x="431" 
d="M194 -6c-123 0 -154 86 -154 187c0 121 47 316 242 316c89 0 119 -58 119 -113c0 -138 -156 -172 -318 -183c-1 -8 -1 -19 -1 -28c0 -63 20 -142 118 -142c51 0 97 13 148 37l13 -28c-34 -23 -100 -46 -167 -46zM87 242c174 9 270 50 270 137c0 46 -22 79 -80 79
c-109 0 -174 -84 -190 -216zM406 533l-132 99l-156 -100l-15 19l160 137h31l129 -135z" />
    <glyph glyph-name="edieresis" unicode="&#xeb;" horiz-adv-x="431" 
d="M194 -6c-123 0 -154 86 -154 187c0 121 47 316 242 316c89 0 119 -58 119 -113c0 -138 -156 -172 -318 -183c-1 -8 -1 -19 -1 -28c0 -63 20 -142 118 -142c51 0 97 13 148 37l13 -28c-34 -23 -100 -46 -167 -46zM87 242c174 9 270 50 270 137c0 46 -22 79 -80 79
c-109 0 -174 -84 -190 -216zM390 631c20 0 33 -9 34 -27c0 -23 -17 -39 -42 -39c-17 0 -27 11 -28 28c0 21 19 38 36 38zM187 631c21 0 33 -9 34 -27c0 -23 -16 -39 -40 -39c-18 0 -30 11 -30 28c-1 21 20 38 36 38z" />
    <glyph glyph-name="igrave" unicode="&#xec;" horiz-adv-x="249" 
d="M148 496c21 0 30 -4 30 -20c0 4 -55 -442 -54 -434c28 2 57 10 87 28l13 -14c-40 -44 -75 -65 -105 -65c-28 0 -36 18 -36 41c0 8 1 16 2 25l48 387l-89 15l1 23c39 8 76 14 103 14zM169 552l-29 -17l-103 137l49 35z" />
    <glyph glyph-name="iacute" unicode="&#xed;" horiz-adv-x="263" 
d="M148 496c21 0 30 -4 30 -20c0 4 -55 -442 -54 -434c28 2 57 10 87 28l13 -14c-40 -44 -75 -65 -105 -65c-28 0 -36 18 -36 41c0 8 1 16 2 25l48 387l-89 15l1 23c39 8 76 14 103 14zM129 535l-23 18l123 155l39 -36z" />
    <glyph glyph-name="icircumflex" unicode="&#xee;" horiz-adv-x="278" 
d="M148 496c21 0 30 -4 30 -20c0 4 -55 -442 -54 -434c28 2 57 10 87 28l13 -14c-40 -44 -75 -65 -105 -65c-28 0 -36 18 -36 41c0 8 1 16 2 25l48 387l-89 15l1 23c39 8 76 14 103 14zM281 533l-132 99l-156 -100l-15 19l160 137h31l129 -135z" />
    <glyph glyph-name="idieresis" unicode="&#xef;" horiz-adv-x="270" 
d="M148 496c21 0 30 -4 30 -20c0 4 -55 -442 -54 -434c28 2 57 10 87 28l13 -14c-40 -44 -75 -65 -105 -65c-28 0 -36 18 -36 41c0 8 1 16 2 25l48 387l-89 15l1 23c39 8 76 14 103 14zM246 631c20 0 33 -9 34 -27c0 -23 -17 -39 -42 -39c-17 0 -27 11 -28 28
c0 21 19 38 36 38zM43 631c21 0 33 -9 34 -27c0 -23 -16 -39 -40 -39c-18 0 -30 11 -30 28c-1 21 20 38 36 38z" />
    <glyph glyph-name="eth" unicode="&#xf0;" horiz-adv-x="453" 
d="M191 524l-18 26l108 70c-24 24 -53 47 -89 67l17 27c42 -20 76 -45 104 -73l103 67l18 -27l-99 -65c65 -81 87 -183 87 -273c0 -140 -44 -350 -228 -350c-91 0 -154 62 -154 164c0 175 102 286 213 286c58 0 107 -19 130 -35c-8 57 -28 126 -80 188zM249 405
c-121 0 -169 -151 -169 -241c0 -67 23 -134 124 -134c156 0 181 210 181 313v18c-48 36 -105 44 -136 44z" />
    <glyph glyph-name="ntilde" unicode="&#xf1;" horiz-adv-x="525" 
d="M352 495c68 0 89 -41 89 -96c0 -30 -5 -83 -36 -357c28 2 56 10 86 27l13 -13c-36 -42 -73 -65 -101 -65c-29 0 -41 13 -41 40c0 8 1 17 2 27c33 275 34 312 34 331c0 38 -12 67 -48 67c-57 0 -147 -66 -208 -255c-8 -68 -19 -134 -27 -201h-43c21 151 44 334 56 444
l-100 15c1 7 0 15 1 22c39 9 81 15 117 15c22 0 31 -6 31 -24c-2 -28 -10 -83 -20 -148h4c58 131 148 171 191 171zM211 662c40 0 88 -41 116 -41l65 33l10 -9c-14 -33 -47 -61 -82 -61c-52 0 -85 39 -118 39l-64 -38l-12 10c17 33 50 67 85 67z" />
    <glyph glyph-name="ograve" unicode="&#xf2;" horiz-adv-x="455" 
d="M265 457c-152 0 -184 -191 -184 -292c0 -69 26 -134 125 -134c148 0 177 185 177 272c0 79 -24 154 -118 154zM265 496c122 0 160 -92 160 -191c0 -119 -39 -312 -226 -312c-124 0 -159 84 -159 183c0 136 54 320 225 320zM309 552l-29 -17l-103 137l49 35z" />
    <glyph glyph-name="oacute" unicode="&#xf3;" horiz-adv-x="455" 
d="M265 457c-152 0 -184 -191 -184 -292c0 -69 26 -134 125 -134c148 0 177 185 177 272c0 79 -24 154 -118 154zM265 496c122 0 160 -92 160 -191c0 -119 -39 -312 -226 -312c-124 0 -159 84 -159 183c0 136 54 320 225 320zM279 535l-23 18l123 155l39 -36z" />
    <glyph glyph-name="ocircumflex" unicode="&#xf4;" horiz-adv-x="455" 
d="M265 457c-152 0 -184 -191 -184 -292c0 -69 26 -134 125 -134c148 0 177 185 177 272c0 79 -24 154 -118 154zM265 496c122 0 160 -92 160 -191c0 -119 -39 -312 -226 -312c-124 0 -159 84 -159 183c0 136 54 320 225 320zM417 533l-132 99l-156 -100l-15 19l160 137h31
l129 -135z" />
    <glyph glyph-name="otilde" unicode="&#xf5;" horiz-adv-x="455" 
d="M265 457c-152 0 -184 -191 -184 -292c0 -69 26 -134 125 -134c148 0 177 185 177 272c0 79 -24 154 -118 154zM265 496c122 0 160 -92 160 -191c0 -119 -39 -312 -226 -312c-124 0 -159 84 -159 183c0 136 54 320 225 320zM234 657c40 0 88 -41 116 -41l65 33l10 -9
c-14 -33 -47 -61 -82 -61c-52 0 -85 39 -118 39l-64 -38l-12 10c17 33 50 67 85 67z" />
    <glyph glyph-name="odieresis" unicode="&#xf6;" horiz-adv-x="455" 
d="M265 457c-152 0 -184 -191 -184 -292c0 -69 26 -134 125 -134c148 0 177 185 177 272c0 79 -24 154 -118 154zM265 496c122 0 160 -92 160 -191c0 -119 -39 -312 -226 -312c-124 0 -159 84 -159 183c0 136 54 320 225 320zM390 631c20 0 33 -9 34 -27
c0 -23 -17 -39 -42 -39c-17 0 -27 11 -28 28c0 21 19 38 36 38zM187 631c21 0 33 -9 34 -27c0 -23 -16 -39 -40 -39c-18 0 -30 11 -30 28c-1 21 20 38 36 38z" />
    <glyph glyph-name="oslash" unicode="&#xf8;" horiz-adv-x="454" 
d="M268 496c54 0 89 -19 114 -48l39 47h31c-7 -10 -27 -35 -55 -69c20 -34 28 -77 28 -121c0 -119 -39 -312 -226 -312c-57 0 -95 17 -120 46l-36 -44c-11 0 -22 -1 -33 -1l54 66c-18 32 -24 72 -24 116c0 136 57 320 228 320zM368 391c-77 -96 -189 -231 -262 -319
c19 -25 50 -41 100 -41c148 0 177 185 177 272c0 31 -4 62 -15 88zM265 457c-152 0 -184 -191 -184 -292c0 -25 3 -49 12 -70l262 320c-18 26 -46 42 -90 42z" />
    <glyph glyph-name="ugrave" unicode="&#xf9;" horiz-adv-x="525" 
d="M420 487h40c-20 -144 -36 -285 -55 -445c31 2 58 11 85 27c5 -4 9 -8 13 -13c-37 -43 -74 -65 -101 -65c-31 0 -43 14 -43 46c2 28 12 92 18 127h-4c-58 -133 -150 -171 -188 -171c-71 0 -92 39 -92 97c0 25 3 74 35 354l-101 15l2 22c38 9 79 15 114 15
c21 0 31 -5 31 -21c0 -46 -39 -334 -39 -384c0 -41 15 -61 48 -61c57 0 147 67 208 255zM319 552l-29 -17l-103 137l49 35z" />
    <glyph glyph-name="uacute" unicode="&#xfa;" horiz-adv-x="525" 
d="M420 487h40c-20 -144 -36 -285 -55 -445c31 2 58 11 85 27c5 -4 9 -8 13 -13c-37 -43 -74 -65 -101 -65c-31 0 -43 14 -43 46c2 28 12 92 18 127h-4c-58 -133 -150 -171 -188 -171c-71 0 -92 39 -92 97c0 25 3 74 35 354l-101 15l2 22c38 9 79 15 114 15
c21 0 31 -5 31 -21c0 -46 -39 -334 -39 -384c0 -41 15 -61 48 -61c57 0 147 67 208 255zM277 535l-23 18l123 155l39 -36z" />
    <glyph glyph-name="ucircumflex" unicode="&#xfb;" horiz-adv-x="525" 
d="M420 487h40c-20 -144 -36 -285 -55 -445c31 2 58 11 85 27c5 -4 9 -8 13 -13c-37 -43 -74 -65 -101 -65c-31 0 -43 14 -43 46c2 28 12 92 18 127h-4c-58 -133 -150 -171 -188 -171c-71 0 -92 39 -92 97c0 25 3 74 35 354l-101 15l2 22c38 9 79 15 114 15
c21 0 31 -5 31 -21c0 -46 -39 -334 -39 -384c0 -41 15 -61 48 -61c57 0 147 67 208 255zM422 533l-132 99l-156 -100l-15 19l160 137h31l129 -135z" />
    <glyph glyph-name="udieresis" unicode="&#xfc;" horiz-adv-x="525" 
d="M420 487h40c-20 -144 -36 -285 -55 -445c31 2 58 11 85 27c5 -4 9 -8 13 -13c-37 -43 -74 -65 -101 -65c-31 0 -43 14 -43 46c2 28 12 92 18 127h-4c-58 -133 -150 -171 -188 -171c-71 0 -92 39 -92 97c0 25 3 74 35 354l-101 15l2 22c38 9 79 15 114 15
c21 0 31 -5 31 -21c0 -46 -39 -334 -39 -384c0 -41 15 -61 48 -61c57 0 147 67 208 255zM196 631c21 0 33 -9 34 -27c0 -23 -16 -39 -40 -39c-18 0 -30 11 -30 28c-1 21 20 38 36 38zM399 631c20 0 33 -9 34 -27c0 -23 -17 -39 -42 -39c-17 0 -27 11 -28 28
c0 21 19 38 36 38z" />
    <glyph glyph-name="yacute" unicode="&#xfd;" horiz-adv-x="458" 
d="M97 495c23 0 33 -11 40 -45c29 -133 61 -323 82 -461c88 118 164 349 164 454l-77 -23l-8 17c37 39 64 58 86 58c23 0 39 -8 39 -42c0 -230 -221 -683 -463 -683c-47 0 -76 22 -76 54c0 3 1 5 1 8l21 14c24 -19 48 -26 72 -26c63 0 127 39 208 129
c-24 150 -67 400 -91 495l-74 -22l-8 17c34 36 64 56 84 56zM222 535l-23 18l123 155l39 -36z" />
    <glyph glyph-name="thorn" unicode="&#xfe;" horiz-adv-x="494" 
d="M-40 -207c2 13 2 25 4 38h77c33 284 62 548 96 835l-101 15l2 23c40 9 81 14 116 14c25 0 31 -11 31 -27c0 -35 -29 -255 -43 -371h4c56 137 131 171 187 171c70 0 120 -56 120 -171c0 -177 -81 -328 -241 -328c-32 0 -70 8 -109 19c-7 -59 -15 -120 -23 -180h96
c-1 -13 -2 -25 -4 -38h-212zM326 452c-57 0 -135 -62 -200 -255c-6 -48 -13 -95 -20 -143c46 -19 86 -24 113 -24c150 0 189 178 189 286c0 91 -33 136 -82 136z" />
    <glyph glyph-name="ydieresis" unicode="&#xff;" horiz-adv-x="458" 
d="M97 495c23 0 33 -11 40 -45c29 -133 61 -323 82 -461c88 118 164 349 164 454l-77 -23l-8 17c37 39 64 58 86 58c23 0 39 -8 39 -42c0 -230 -221 -683 -463 -683c-47 0 -76 22 -76 54c0 3 1 5 1 8l21 14c24 -19 48 -26 72 -26c63 0 127 39 208 129
c-24 150 -67 400 -91 495l-74 -22l-8 17c34 36 64 56 84 56zM156 631c21 0 33 -9 34 -27c0 -23 -16 -39 -40 -39c-18 0 -30 11 -30 28c-1 21 20 38 36 38zM359 631c20 0 33 -9 34 -27c0 -23 -17 -39 -42 -39c-17 0 -27 11 -28 28c0 21 19 38 36 38z" />
    <glyph glyph-name="Amacron" unicode="&#x100;" horiz-adv-x="602" 
d="M558 0h-170l4 39h70l-26 150h-273l-63 -150h73l-4 -39h-175l4 39h57c94 218 182 426 278 644h53l123 -644h53zM428 232l-60 334l-13 71h-2c-2 -4 -2 -9 -29 -72c-25 -57 -67 -153 -141 -333h245zM217 792h308l-5 -45h-308z" />
    <glyph glyph-name="amacron" unicode="&#x101;" horiz-adv-x="503" 
d="M279 492c36 0 73 -9 116 -24l26 26l15 -2c-24 -155 -52 -346 -60 -450c28 2 64 18 93 36c5 -5 8 -11 12 -16c-35 -38 -84 -71 -111 -71c-46 0 -41 43 -36 79c3 28 9 67 15 94h-4c-57 -137 -130 -171 -187 -171c-69 0 -118 54 -118 169c0 177 80 330 239 330zM167 32
c57 0 132 61 196 255c7 47 15 94 23 141c-46 19 -86 25 -113 25c-150 0 -189 -179 -189 -286c0 -92 33 -135 83 -135zM181 644h297l-5 -45h-297z" />
    <glyph glyph-name="Abreve" unicode="&#x102;" horiz-adv-x="602" 
d="M558 0h-170l4 39h70l-26 150h-273l-63 -150h73l-4 -39h-175l4 39h57c94 218 182 426 278 644h53l123 -644h53zM428 232l-60 334l-13 71h-2c-2 -4 -2 -9 -29 -72c-25 -57 -67 -153 -141 -333h245zM366 767c24 0 64 5 140 75l17 -16c-62 -74 -116 -98 -163 -98
c-64 0 -103 51 -130 104l38 23c27 -44 60 -88 98 -88z" />
    <glyph glyph-name="abreve" unicode="&#x103;" horiz-adv-x="503" 
d="M279 492c36 0 73 -9 116 -24l26 26l15 -2c-24 -155 -52 -346 -60 -450c28 2 64 18 93 36c5 -5 8 -11 12 -16c-35 -38 -84 -71 -111 -71c-46 0 -41 43 -36 79c3 28 9 67 15 94h-4c-57 -137 -130 -171 -187 -171c-69 0 -118 54 -118 169c0 177 80 330 239 330zM167 32
c57 0 132 61 196 255c7 47 15 94 23 141c-46 19 -86 25 -113 25c-150 0 -189 -179 -189 -286c0 -92 33 -135 83 -135zM284 558c-63 0 -103 49 -133 98l36 22c27 -44 61 -80 100 -80c24 0 67 7 140 73l17 -16c-62 -74 -118 -97 -160 -97z" />
    <glyph glyph-name="Aogonek" unicode="&#x104;" horiz-adv-x="602" 
d="M558 0h-72c-35 -39 -61 -97 -61 -122c0 -28 25 -35 55 -35c26 0 56 7 73 11l3 -24c-30 -14 -69 -24 -103 -24c-53 0 -78 22 -78 59c0 31 19 84 80 135h-67l4 39h70l-26 150h-273l-63 -150h73l-4 -39h-175l4 39h57c94 218 182 426 278 644h53l123 -644h53zM428 232
l-60 334l-13 71h-2c-2 -4 -2 -9 -29 -72c-25 -57 -67 -153 -141 -333h245z" />
    <glyph glyph-name="aogonek" unicode="&#x105;" horiz-adv-x="503" 
d="M279 492c36 0 73 -9 116 -24l26 26l15 -2c-24 -155 -52 -346 -60 -450c28 2 64 18 93 36c5 -5 8 -11 12 -16c-25 -27 -55 -51 -81 -63c-35 -39 -62 -97 -62 -122c0 -28 25 -35 55 -35c26 0 56 7 73 11l3 -24c-30 -14 -69 -24 -103 -24c-53 0 -78 22 -78 59
c0 29 17 79 71 128c-34 6 -30 45 -25 78c3 28 9 67 15 94h-4c-57 -137 -130 -171 -187 -171c-69 0 -118 54 -118 169c0 177 80 330 239 330zM167 32c57 0 132 61 196 255c7 47 15 94 23 141c-46 19 -86 25 -113 25c-150 0 -189 -179 -189 -286c0 -92 33 -135 83 -135z" />
    <glyph glyph-name="Cacute" unicode="&#x106;" horiz-adv-x="518" 
d="M472 57l9 -34c-42 -17 -121 -30 -177 -30c-164 0 -243 93 -243 269c0 142 44 430 317 430c74 0 126 -13 158 -27l-16 -137h-39l13 108c-29 10 -75 17 -119 17c-177 0 -271 -164 -271 -395c0 -124 52 -226 208 -226c38 0 102 6 160 25zM317 716l-13 24l171 101l22 -47z
" />
    <glyph glyph-name="cacute" unicode="&#x107;" horiz-adv-x="418" 
d="M198 31c48 0 102 12 146 34l14 -27c-40 -23 -99 -44 -160 -44c-115 0 -158 72 -158 178c0 101 34 324 242 324c43 0 80 -11 98 -18c17 -7 27 -14 23 -35c-1 -10 -17 -67 -31 -101l-22 1l7 102c-22 8 -54 13 -84 13c-127 0 -193 -135 -193 -289c0 -78 27 -138 118 -138z
M268 535l-23 18l123 155l39 -36z" />
    <glyph glyph-name="Ccircumflex" unicode="&#x108;" horiz-adv-x="518" 
d="M472 57l9 -34c-42 -17 -121 -30 -177 -30c-164 0 -243 93 -243 269c0 142 44 430 317 430c74 0 126 -13 158 -27l-16 -137h-39l13 108c-29 10 -75 17 -119 17c-177 0 -271 -164 -271 -395c0 -124 52 -226 208 -226c38 0 102 6 160 25zM500 698l-132 99l-156 -100l-15 19
l160 137h31l128 -135z" />
    <glyph glyph-name="ccircumflex" unicode="&#x109;" horiz-adv-x="418" 
d="M198 31c48 0 102 12 146 34l14 -27c-40 -23 -99 -44 -160 -44c-115 0 -158 72 -158 178c0 101 34 324 242 324c43 0 80 -11 98 -18c17 -7 27 -14 23 -35c-1 -10 -17 -67 -31 -101l-22 1l7 102c-22 8 -54 13 -84 13c-127 0 -193 -135 -193 -289c0 -78 27 -138 118 -138z
M416 533l-132 99l-156 -100l-15 19l160 137h31l129 -135z" />
    <glyph glyph-name="Cdotaccent" unicode="&#x10a;" horiz-adv-x="518" 
d="M472 57l9 -34c-42 -17 -121 -30 -177 -30c-164 0 -243 93 -243 269c0 142 44 430 317 430c74 0 126 -13 158 -27l-16 -137h-39l13 108c-29 10 -75 17 -119 17c-177 0 -271 -164 -271 -395c0 -124 52 -226 208 -226c38 0 102 6 160 25zM396 844c18 0 31 -14 31 -32
c1 -23 -17 -43 -41 -43c-18 0 -31 14 -32 33c0 23 22 42 42 42z" />
    <glyph glyph-name="cdotaccent" unicode="&#x10b;" horiz-adv-x="418" 
d="M198 31c48 0 102 12 146 34l14 -27c-40 -23 -99 -44 -160 -44c-115 0 -158 72 -158 178c0 101 34 324 242 324c43 0 80 -11 98 -18c17 -7 27 -14 23 -35c-1 -10 -17 -67 -31 -101l-22 1l7 102c-22 8 -54 13 -84 13c-127 0 -193 -135 -193 -289c0 -78 27 -138 118 -138z
M305 644c16 0 28 -13 28 -31c1 -22 -15 -41 -37 -41c-16 0 -27 13 -28 32c0 22 19 40 37 40z" />
    <glyph glyph-name="Ccaron" unicode="&#x10c;" horiz-adv-x="518" 
d="M472 57l9 -34c-42 -17 -121 -30 -177 -30c-164 0 -243 93 -243 269c0 142 44 430 317 430c74 0 126 -13 158 -27l-16 -137h-39l13 108c-29 10 -75 17 -119 17c-177 0 -271 -164 -271 -395c0 -124 52 -226 208 -226c38 0 102 6 160 25zM400 779l154 88l14 -21l-159 -124
h-32l-127 127l15 19z" />
    <glyph glyph-name="ccaron" unicode="&#x10d;" horiz-adv-x="418" 
d="M198 31c48 0 102 12 146 34l14 -27c-40 -23 -99 -44 -160 -44c-115 0 -158 72 -158 178c0 101 34 324 242 324c43 0 80 -11 98 -18c17 -7 27 -14 23 -35c-1 -10 -17 -67 -31 -101l-22 1l7 102c-22 8 -54 13 -84 13c-127 0 -193 -135 -193 -289c0 -78 27 -138 118 -138z
M293 602l156 99l14 -20l-161 -135h-31l-127 137l17 19z" />
    <glyph glyph-name="Dcaron" unicode="&#x10e;" horiz-adv-x="600" 
d="M340 682c177 0 232 -119 232 -271c0 -218 -83 -411 -311 -411h-247l4 39h65l75 604h-62l4 39h240zM329 643h-127l-74 -603h122c54 0 279 -3 279 360c0 245 -142 243 -200 243zM324 779l154 88l14 -21l-159 -124h-32l-127 127l15 19z" />
    <glyph glyph-name="dcaron" unicode="&#x10f;" horiz-adv-x="586" 
d="M279 492c32 0 72 -9 110 -21l22 196l-102 15c0 7 1 16 2 23c39 9 80 14 115 14c22 0 32 -10 32 -27c0 -10 -4 -40 -8 -66l-71 -584c29 2 64 17 93 35l13 -15c-35 -37 -84 -71 -111 -71c-31 0 -44 13 -40 53c3 31 10 80 17 120h-4c-57 -137 -132 -171 -189 -171
c-69 0 -118 54 -118 169c0 177 80 330 239 330zM167 32c57 0 135 61 199 255l19 141c-45 19 -85 25 -112 25c-150 0 -189 -179 -189 -286c0 -92 33 -135 83 -135zM561 736c20 0 37 -15 37 -42c0 -44 -42 -90 -95 -115l-9 15c23 17 39 29 46 62c-14 5 -22 18 -22 33
c0 25 19 47 43 47z" />
    <glyph glyph-name="dcroat" unicode="&#x111;" horiz-adv-x="506" 
d="M279 492c32 0 72 -9 110 -21l9 80h-156l5 36h155l9 80l-102 15c0 7 1 16 2 23c39 9 80 14 115 14c22 0 32 -10 32 -27c0 -10 -4 -40 -8 -66c-2 -13 -4 -26 -5 -39h73l-5 -36h-72l-62 -509c29 2 64 17 93 35l13 -15c-35 -37 -84 -71 -111 -71c-31 0 -44 13 -40 53
c3 31 10 80 17 120h-4c-57 -137 -132 -171 -189 -171c-69 0 -118 54 -118 169c0 177 80 330 239 330zM167 32c57 0 135 61 199 255l19 141c-45 19 -85 25 -112 25c-150 0 -189 -179 -189 -286c0 -92 33 -135 83 -135z" />
    <glyph glyph-name="Emacron" unicode="&#x112;" horiz-adv-x="508" 
d="M14 0l4 39h63l75 604h-59l4 38h419l-14 -124h-39l11 86h-280l-33 -264l281 7l-5 -48l-280 4l-37 -303h301l10 86h42l-15 -125h-448zM186 792h308l-5 -45h-308z" />
    <glyph glyph-name="emacron" unicode="&#x113;" horiz-adv-x="431" 
d="M194 -6c-123 0 -154 86 -154 187c0 121 47 316 242 316c89 0 119 -58 119 -113c0 -138 -156 -172 -318 -183c-1 -8 -1 -19 -1 -28c0 -63 20 -142 118 -142c51 0 97 13 148 37l13 -28c-34 -23 -100 -46 -167 -46zM87 242c174 9 270 50 270 137c0 46 -22 79 -80 79
c-109 0 -174 -84 -190 -216zM137 644h297l-5 -45h-297z" />
    <glyph glyph-name="Ebreve" unicode="&#x114;" horiz-adv-x="508" 
d="M14 0l4 39h63l75 604h-59l4 38h419l-14 -124h-39l11 86h-280l-33 -264l281 7l-5 -48l-280 4l-37 -303h301l10 86h42l-15 -125h-448zM326 767c24 0 64 5 140 75l17 -16c-62 -74 -116 -98 -163 -98c-64 0 -103 51 -130 104l38 23c27 -44 60 -88 98 -88z" />
    <glyph glyph-name="ebreve" unicode="&#x115;" horiz-adv-x="431" 
d="M194 -6c-123 0 -154 86 -154 187c0 121 47 316 242 316c89 0 119 -58 119 -113c0 -138 -156 -172 -318 -183c-1 -8 -1 -19 -1 -28c0 -63 20 -142 118 -142c51 0 97 13 148 37l13 -28c-34 -23 -100 -46 -167 -46zM87 242c174 9 270 50 270 137c0 46 -22 79 -80 79
c-109 0 -174 -84 -190 -216zM275 558c-63 0 -103 49 -133 98l36 22c27 -44 61 -80 100 -80c24 0 67 7 140 73l17 -16c-62 -74 -118 -97 -160 -97z" />
    <glyph glyph-name="Edotaccent" unicode="&#x116;" horiz-adv-x="508" 
d="M14 0l4 39h63l75 604h-59l4 38h419l-14 -124h-39l11 86h-280l-33 -264l281 7l-5 -48l-280 4l-37 -303h301l10 86h42l-15 -125h-448zM349 838c18 0 31 -14 31 -32c1 -23 -17 -43 -41 -43c-18 0 -31 14 -32 33c0 23 22 42 42 42z" />
    <glyph glyph-name="edotaccent" unicode="&#x117;" horiz-adv-x="431" 
d="M194 -6c-123 0 -154 86 -154 187c0 121 47 316 242 316c89 0 119 -58 119 -113c0 -138 -156 -172 -318 -183c-1 -8 -1 -19 -1 -28c0 -63 20 -142 118 -142c51 0 97 13 148 37l13 -28c-34 -23 -100 -46 -167 -46zM87 242c174 9 270 50 270 137c0 46 -22 79 -80 79
c-109 0 -174 -84 -190 -216zM289 644c18 0 31 -14 31 -32c1 -23 -17 -43 -41 -43c-18 0 -31 14 -32 33c0 23 22 42 42 42z" />
    <glyph glyph-name="Eogonek" unicode="&#x118;" horiz-adv-x="508" 
d="M14 0l4 39h63l75 604h-59l4 38h419l-14 -124h-39l11 86h-280l-33 -264l281 7l-5 -48l-280 4l-37 -303h301l10 86h42l-15 -125h-19c-35 -39 -62 -98 -62 -123c0 -28 25 -35 55 -35c26 0 56 7 73 11l3 -24c-30 -14 -69 -24 -103 -24c-53 0 -78 22 -78 59c0 31 19 85 81 136
h-398z" />
    <glyph glyph-name="eogonek" unicode="&#x119;" horiz-adv-x="431" 
d="M194 -6c-123 0 -154 86 -154 187c0 121 47 316 242 316c89 0 119 -58 119 -113c0 -138 -156 -172 -318 -183c-1 -8 -1 -19 -1 -28c0 -63 20 -142 118 -142c51 0 97 13 148 37l13 -28l-12 -8c-38 -38 -68 -102 -68 -128c0 -28 25 -35 55 -35c26 0 56 7 73 11l3 -24
c-30 -14 -69 -24 -103 -24c-53 0 -78 22 -78 59c0 27 15 73 61 118c-30 -9 -64 -15 -98 -15zM87 242c174 9 270 50 270 137c0 46 -22 79 -80 79c-109 0 -174 -84 -190 -216z" />
    <glyph glyph-name="Ecaron" unicode="&#x11a;" horiz-adv-x="508" 
d="M14 0l4 39h63l75 604h-59l4 38h419l-14 -124h-39l11 86h-280l-33 -264l281 7l-5 -48l-280 4l-37 -303h301l10 86h42l-15 -125h-448zM335 779l154 88l14 -21l-159 -124h-32l-127 127l15 19z" />
    <glyph glyph-name="ecaron" unicode="&#x11b;" horiz-adv-x="431" 
d="M194 -6c-123 0 -154 86 -154 187c0 121 47 316 242 316c89 0 119 -58 119 -113c0 -138 -156 -172 -318 -183c-1 -8 -1 -19 -1 -28c0 -63 20 -142 118 -142c51 0 97 13 148 37l13 -28c-34 -23 -100 -46 -167 -46zM87 242c174 9 270 50 270 137c0 46 -22 79 -80 79
c-109 0 -174 -84 -190 -216zM278 602l156 99l14 -20l-161 -135h-31l-127 137l17 19z" />
    <glyph glyph-name="Gcircumflex" unicode="&#x11c;" horiz-adv-x="576" 
d="M394 692c72 0 124 -13 155 -27l-16 -137h-38l13 108c-29 9 -75 17 -119 17c-187 0 -285 -167 -285 -385c0 -130 45 -234 205 -234c39 0 91 5 126 18l32 255h-103l4 39h196l-4 -39h-51l-36 -286c-61 -19 -115 -28 -176 -28c-163 0 -236 100 -236 268c0 151 58 431 333 431
zM522 698l-132 99l-156 -100l-15 19l160 137h31l128 -135z" />
    <glyph glyph-name="gcircumflex" unicode="&#x11d;" horiz-adv-x="468" 
d="M277 492c46 0 89 -11 147 -37l3 -6c-17 -136 -33 -267 -53 -404c-16 -108 -19 -262 -221 -262c-53 0 -104 17 -130 31l16 35c34 -17 78 -27 119 -27c146 0 162 105 176 219l17 125c-1 0 -3 0 -4 -1c-57 -138 -132 -173 -189 -173c-69 0 -119 54 -119 169
c0 177 81 331 238 331zM166 31c57 0 132 61 196 254c8 48 14 96 21 143c-45 19 -84 25 -111 25c-149 0 -188 -180 -188 -287c0 -92 33 -135 82 -135zM413 533l-132 99l-156 -100l-15 19l160 137h31l129 -135z" />
    <glyph glyph-name="Gbreve" unicode="&#x11e;" horiz-adv-x="576" 
d="M394 692c72 0 124 -13 155 -27l-16 -137h-38l13 108c-29 9 -75 17 -119 17c-187 0 -285 -167 -285 -385c0 -130 45 -234 205 -234c39 0 91 5 126 18l32 255h-103l4 39h196l-4 -39h-51l-36 -286c-61 -19 -115 -28 -176 -28c-163 0 -236 100 -236 268c0 151 58 431 333 431
zM389 767c24 0 64 5 140 75l17 -16c-62 -74 -116 -98 -163 -98c-64 0 -103 51 -130 104l38 23c27 -44 60 -88 98 -88z" />
    <glyph glyph-name="gbreve" unicode="&#x11f;" horiz-adv-x="468" 
d="M277 492c46 0 89 -11 147 -37l3 -6c-17 -136 -33 -267 -53 -404c-16 -108 -19 -262 -221 -262c-53 0 -104 17 -130 31l16 35c34 -17 78 -27 119 -27c146 0 162 105 176 219l17 125c-1 0 -3 0 -4 -1c-57 -138 -132 -173 -189 -173c-69 0 -119 54 -119 169
c0 177 81 331 238 331zM166 31c57 0 132 61 196 254c8 48 14 96 21 143c-45 19 -84 25 -111 25c-149 0 -188 -180 -188 -287c0 -92 33 -135 82 -135zM272 558c-63 0 -103 49 -133 98l36 22c27 -44 61 -80 100 -80c24 0 67 7 140 73l17 -16c-62 -74 -118 -97 -160 -97z" />
    <glyph glyph-name="Gdotaccent" unicode="&#x120;" horiz-adv-x="576" 
d="M394 692c72 0 124 -13 155 -27l-16 -137h-38l13 108c-29 9 -75 17 -119 17c-187 0 -285 -167 -285 -385c0 -130 45 -234 205 -234c39 0 91 5 126 18l32 255h-103l4 39h196l-4 -39h-51l-36 -286c-61 -19 -115 -28 -176 -28c-163 0 -236 100 -236 268c0 151 58 431 333 431
zM417 835c18 0 31 -14 31 -32c1 -23 -17 -43 -41 -43c-18 0 -31 14 -32 33c0 23 22 42 42 42z" />
    <glyph glyph-name="gdotaccent" unicode="&#x121;" horiz-adv-x="468" 
d="M277 492c46 0 89 -11 147 -37l3 -6c-17 -136 -33 -267 -53 -404c-16 -108 -19 -262 -221 -262c-53 0 -104 17 -130 31l16 35c34 -17 78 -27 119 -27c146 0 162 105 176 219l17 125c-1 0 -3 0 -4 -1c-57 -138 -132 -173 -189 -173c-69 0 -119 54 -119 169
c0 177 81 331 238 331zM166 31c57 0 132 61 196 254c8 48 14 96 21 143c-45 19 -84 25 -111 25c-149 0 -188 -180 -188 -287c0 -92 33 -135 82 -135zM304 644c18 0 31 -14 31 -32c1 -23 -17 -43 -41 -43c-18 0 -31 14 -32 33c0 23 22 42 42 42z" />
    <glyph glyph-name="Gcommaaccent" unicode="&#x122;" horiz-adv-x="576" 
d="M394 692c72 0 124 -13 155 -27l-16 -137h-38l13 108c-29 9 -75 17 -119 17c-187 0 -285 -167 -285 -385c0 -130 45 -234 205 -234c39 0 91 5 126 18l32 255h-103l4 39h196l-4 -39h-51l-36 -286c-61 -19 -115 -28 -176 -28c-163 0 -236 100 -236 268c0 151 58 431 333 431
zM307 -39c20 0 37 -15 37 -42c0 -44 -42 -90 -95 -115l-9 15c23 17 39 29 46 62c-14 5 -22 18 -22 33c0 25 19 47 43 47z" />
    <glyph glyph-name="gcommaaccent" unicode="&#x123;" horiz-adv-x="468" 
d="M277 492c46 0 89 -11 147 -37l3 -6c-17 -136 -33 -267 -53 -404c-16 -108 -19 -262 -221 -262c-53 0 -104 17 -130 31l16 35c34 -17 78 -27 119 -27c146 0 162 105 176 219l17 125c-1 0 -3 0 -4 -1c-57 -138 -132 -173 -189 -173c-69 0 -119 54 -119 169
c0 177 81 331 238 331zM166 31c57 0 132 61 196 254c8 48 14 96 21 143c-45 19 -84 25 -111 25c-149 0 -188 -180 -188 -287c0 -92 33 -135 82 -135zM346 607c0 -24 -18 -47 -42 -47c-19 0 -36 14 -36 41c0 44 40 89 93 115c4 -5 6 -10 9 -15c-23 -17 -39 -28 -46 -62
c14 -5 22 -16 22 -32z" />
    <glyph glyph-name="Hcircumflex" unicode="&#x124;" horiz-adv-x="626" 
d="M562 0h-164l4 40h60l37 300h-341l-38 -300h61l-4 -40h-163l4 40h59l74 603h-59l5 39h163l-4 -39h-61l-32 -261h342l32 261h-60l4 39h164l-4 -39h-60l-75 -603h61zM519 698l-132 99l-156 -100l-15 19l160 137h31l128 -135z" />
    <glyph glyph-name="hcircumflex" unicode="&#x125;" horiz-adv-x="525" 
d="M347 495c67 0 88 -42 88 -97c0 -26 -5 -85 -36 -356c29 2 56 10 86 28l13 -14c-39 -42 -75 -65 -105 -65c-25 0 -36 14 -36 40c0 8 1 17 2 27c33 282 34 314 34 334c0 36 -13 65 -48 65c-58 0 -147 -68 -208 -257l-28 -200h-42c21 151 66 547 79 667l-100 15l3 22
c38 9 79 15 115 15c18 0 29 -4 29 -19c0 -30 -34 -317 -43 -377h4c59 133 150 172 193 172zM298 729l-132 99l-156 -100l-15 19l160 137h31l128 -135z" />
    <glyph glyph-name="Hbar" unicode="&#x126;" horiz-adv-x="626" 
d="M562 0h-164l4 40h60l37 300h-341l-38 -300h61l-4 -40h-163l4 40h59l56 454h-63l5 37h63l13 112h-59l5 39h163l-4 -39h-61l-14 -112h342l14 112h-60l4 39h164l-4 -39h-60l-13 -112h57l-4 -37h-58l-57 -454h61zM163 385h342l13 109h-341z" />
    <glyph glyph-name="hbar" unicode="&#x127;" horiz-adv-x="525" 
d="M347 499c67 0 89 -42 89 -97c0 -27 -6 -89 -37 -360c29 2 56 10 86 28l13 -14c-39 -42 -75 -65 -105 -65c-25 0 -36 14 -36 40c0 8 1 17 2 27c35 298 34 320 34 341c0 34 -14 61 -48 61c-57 0 -147 -67 -208 -256l-28 -204h-42c16 119 49 394 68 562h-79l4 36h78
c4 27 6 50 8 69l-100 15l3 22c38 9 79 15 115 15c18 0 29 -4 29 -19c0 -10 -4 -51 -10 -102h180l-5 -36h-179c-10 -93 -23 -201 -28 -236h4c59 134 150 173 192 173z" />
    <glyph glyph-name="Itilde" unicode="&#x128;" horiz-adv-x="297" 
d="M204 0h-161l4 39h58l75 604h-58l4 39h161l-4 -39h-61l-74 -604h60zM158 835c40 0 88 -41 116 -41l65 33l10 -9c-14 -33 -47 -61 -82 -61c-52 0 -85 39 -118 39l-64 -38l-12 10c17 33 50 67 85 67z" />
    <glyph glyph-name="itilde" unicode="&#x129;" horiz-adv-x="249" 
d="M148 496c21 0 30 -4 30 -20c0 4 -55 -442 -54 -434c28 2 57 10 87 28l13 -14c-40 -44 -75 -65 -105 -65c-28 0 -36 18 -36 41c0 8 1 16 2 25l48 387l-89 15l1 23c39 8 76 14 103 14zM92 656c40 0 88 -41 116 -41l65 33l10 -9c-14 -33 -47 -61 -82 -61
c-52 0 -85 39 -118 39l-64 -38l-12 10c17 33 50 67 85 67z" />
    <glyph glyph-name="Imacron" unicode="&#x12a;" horiz-adv-x="330" 
d="M205 0h-161l4 39h58l75 604h-58l4 39h161l-4 -39h-61l-74 -604h60zM57 792h308l-5 -45h-308z" />
    <glyph glyph-name="imacron" unicode="&#x12b;" horiz-adv-x="264" 
d="M148 496c21 0 30 -4 30 -20c0 4 -55 -442 -54 -434c28 2 57 10 87 28l13 -14c-40 -44 -75 -65 -105 -65c-28 0 -36 18 -36 41c0 8 1 16 2 25l48 387l-89 15l1 23c39 8 76 14 103 14zM2 644h297l-5 -45h-297z" />
    <glyph glyph-name="Ibreve" unicode="&#x12c;" horiz-adv-x="297" 
d="M216 770c24 0 64 5 140 75l17 -16c-62 -74 -116 -98 -163 -98c-64 0 -103 51 -130 104l38 23c27 -44 60 -88 98 -88zM204 0h-161l4 39h58l75 604h-58l4 39h161l-4 -39h-61l-74 -604h60z" />
    <glyph glyph-name="ibreve" unicode="&#x12d;" horiz-adv-x="294" 
d="M148 496c21 0 30 -4 30 -20c0 4 -55 -442 -54 -434c28 2 57 10 87 28l13 -14c-40 -44 -75 -65 -105 -65c-28 0 -36 18 -36 41c0 8 1 16 2 25l48 387l-89 15l1 23c39 8 76 14 103 14zM154 558c-63 0 -103 49 -133 98l36 22c27 -44 61 -80 100 -80c24 0 67 7 140 73l17 -16
c-62 -74 -118 -97 -160 -97z" />
    <glyph glyph-name="Iogonek" unicode="&#x12e;" horiz-adv-x="297" 
d="M204 0h-72c-35 -39 -62 -98 -62 -123c0 -28 25 -35 55 -35c26 0 56 7 73 11l3 -24c-30 -14 -69 -24 -103 -24c-53 0 -78 22 -78 59c0 31 19 85 81 136h-58l4 39h58l75 604h-58l4 39h161l-4 -39h-61l-74 -604h60z" />
    <glyph glyph-name="iogonek" unicode="&#x12f;" horiz-adv-x="249" 
d="M148 496c21 0 30 -4 30 -20c0 4 -55 -442 -54 -434c28 2 57 10 87 28l13 -14c-16 -17 -31 -31 -45 -41c-40 -38 -73 -106 -73 -134s25 -35 55 -35c26 0 56 7 73 11l3 -24c-30 -14 -69 -24 -103 -24c-53 0 -78 22 -78 59c0 28 16 76 66 123h-3c-28 0 -36 18 -36 41
c0 8 1 17 2 26l48 386l-89 15l1 23c39 8 76 14 103 14zM168 636c16 0 29 -12 29 -29c0 -19 -15 -37 -35 -37c-15 0 -29 13 -29 28c0 20 17 38 35 38z" />
    <glyph glyph-name="Idotaccent" unicode="&#x130;" horiz-adv-x="297" 
d="M204 0h-161l4 39h58l75 604h-58l4 39h161l-4 -39h-61l-74 -604h60zM221 836c18 0 31 -14 31 -32c1 -23 -17 -43 -41 -43c-18 0 -31 14 -32 33c0 23 22 42 42 42z" />
    <glyph glyph-name="dotlessi" unicode="&#x131;" horiz-adv-x="249" 
d="M148 496c21 0 30 -4 30 -20c0 4 -55 -442 -54 -434c28 2 57 10 87 28l13 -14c-40 -44 -75 -65 -105 -65c-28 0 -36 18 -36 41c0 8 1 16 2 25l48 387l-89 15l1 23c39 8 76 14 103 14z" />
    <glyph glyph-name="IJ" unicode="&#x132;" horiz-adv-x="596" 
d="M204 0h-161l4 39h58l75 604h-58l4 39h161l-4 -39h-61l-74 -604h60zM487 643h-101l4 39h234l-4 -39h-90l-67 -527c-19 -159 -77 -240 -220 -289l-12 32c130 56 173 120 188 240z" />
    <glyph glyph-name="ij" unicode="&#x133;" horiz-adv-x="450" 
d="M363 496c20 0 30 -6 29 -23c-2 -37 -33 -290 -44 -386c-17 -145 -50 -264 -178 -302l-8 25c107 47 131 153 142 257c14 130 30 251 42 377l-90 15l1 22c39 9 79 15 106 15zM148 496c21 0 30 -4 30 -20c0 4 -55 -442 -54 -434c28 2 57 10 87 28l13 -14
c-40 -44 -75 -65 -105 -65c-28 0 -36 18 -36 41c0 8 1 17 2 26l48 386l-89 15l1 23c39 8 76 14 103 14zM377 636c16 0 30 -13 30 -29c0 -19 -16 -38 -36 -38c-14 0 -28 13 -28 29c0 19 16 38 34 38zM168 636c16 0 29 -12 29 -29c0 -19 -15 -37 -35 -37c-15 0 -29 13 -29 28
c0 20 17 38 35 38z" />
    <glyph glyph-name="Jcircumflex" unicode="&#x134;" horiz-adv-x="333" 
d="M185 644h-101l4 39h234l-4 -39h-90l-67 -527c-19 -159 -77 -240 -220 -289l-12 32c130 56 173 120 188 240zM347 698l-132 99l-156 -100l-15 19l160 137h31l128 -135z" />
    <glyph glyph-name="jcircumflex" unicode="&#x135;" horiz-adv-x="236" 
d="M149 496c20 0 30 -6 29 -23c-2 -37 -33 -290 -44 -386c-17 -145 -50 -264 -178 -302l-8 25c107 47 131 153 142 257c14 130 30 251 42 377l-90 15l1 22c39 9 79 15 106 15zM300 553c-5 -8 -12 -14 -17 -21c-44 33 -87 66 -132 99l-155 -100c-5 6 -9 13 -15 19
c53 46 105 92 159 138h31c43 -46 86 -90 129 -135z" />
    <glyph glyph-name="Kcommaaccent" unicode="&#x136;" horiz-adv-x="574" 
d="M543 645l-258 -232l208 -374h59l-4 -39h-168l3 39h63l-192 346l-101 -91l-32 -256h63l-4 -38h-166l4 38h60l75 607h-60l4 38h164l-4 -38h-61l-37 -296l328 296h-67l4 38h175l-4 -38h-52zM269 -39c20 0 37 -15 37 -42c0 -44 -42 -90 -95 -115l-9 15c23 17 39 29 46 62
c-14 5 -22 18 -22 33c0 25 19 47 43 47z" />
    <glyph glyph-name="kcommaaccent" unicode="&#x137;" horiz-adv-x="418" 
d="M354 497c36 0 58 -20 58 -51c-8 -7 -15 -12 -23 -18c-17 13 -33 18 -52 18c-70 0 -114 -64 -162 -126c48 -102 136 -263 156 -281c39 8 63 30 82 45l13 -14c-41 -63 -76 -79 -97 -79c-37 0 -89 100 -184 289c-32 -44 -41 -60 -60 -104l-23 -176h-44c34 228 59 428 88 669
l-88 11c1 7 0 15 1 22c31 8 77 20 111 20c16 0 25 -8 22 -27c-6 -40 -38 -275 -58 -431h3c59 108 167 233 257 233zM176 -39c20 0 37 -15 37 -42c0 -44 -42 -90 -95 -115l-9 15c23 17 39 29 46 62c-14 5 -22 18 -22 33c0 25 19 47 43 47z" />
    <glyph glyph-name="kgreenlandic" unicode="&#x138;" horiz-adv-x="457" 
d="M141 495c16 0 26 -12 23 -26c-5 -38 -17 -127 -31 -205h3c54 111 178 235 251 235c31 0 55 -19 62 -49l-16 -17c-19 7 -37 11 -52 11c-71 0 -121 -64 -167 -124c48 -102 136 -263 156 -281c39 8 63 30 82 45l13 -14c-40 -61 -75 -79 -97 -79c-37 0 -89 100 -184 289
c-32 -45 -41 -60 -60 -104c-8 -59 -15 -117 -24 -176h-43c20 143 40 295 60 443l-88 11c1 7 1 14 1 21c31 9 77 20 111 20z" />
    <glyph glyph-name="Lacute" unicode="&#x139;" horiz-adv-x="489" 
d="M273 681l-4 -38h-71l-75 -604h295l15 118h42l-19 -157h-442l4 39h63l75 604h-59l4 38h172zM181 716l-13 24l171 101l22 -47z" />
    <glyph glyph-name="lacute" unicode="&#x13a;" horiz-adv-x="245" 
d="M164 720c19 0 30 -5 30 -20c0 -36 -61 -506 -79 -658c28 2 56 10 86 28l13 -14c-40 -44 -76 -65 -105 -65c-25 0 -36 11 -36 40c0 8 1 17 2 27l73 610l-100 15l2 22c38 9 87 15 114 15zM127 747l-13 24l171 101l22 -47z" />
    <glyph glyph-name="Lcommaaccent" unicode="&#x13b;" horiz-adv-x="489" 
d="M273 681l-4 -38h-71l-75 -604h295l15 118h42l-19 -157h-442l4 39h63l75 604h-59l4 38h172zM246 -39c20 0 37 -15 37 -42c0 -44 -42 -90 -95 -115l-9 15c23 17 39 29 46 62c-14 5 -22 18 -22 33c0 25 19 47 43 47z" />
    <glyph glyph-name="lcommaaccent" unicode="&#x13c;" horiz-adv-x="245" 
d="M164 720c19 0 30 -5 30 -20c0 -36 -61 -506 -79 -658c28 2 56 10 86 28l13 -14c-40 -44 -76 -65 -105 -65c-25 0 -36 11 -36 40c0 8 1 17 2 27l73 610l-100 15l2 22c38 9 87 15 114 15zM104 -39c20 0 37 -15 37 -42c0 -44 -42 -90 -95 -115l-9 15c23 17 39 29 46 62
c-14 5 -22 18 -22 33c0 25 19 47 43 47z" />
    <glyph glyph-name="Lcaron" unicode="&#x13d;" horiz-adv-x="489" 
d="M273 681l-4 -38h-71l-75 -604h295l15 118h42l-19 -157h-442l4 39h63l75 604h-59l4 38h172zM425 664c20 0 37 -15 37 -42c0 -44 -42 -90 -95 -115l-9 15c23 17 39 29 46 62c-14 5 -22 18 -22 33c0 25 19 47 43 47z" />
    <glyph glyph-name="lcaron" unicode="&#x13e;" horiz-adv-x="315" 
d="M296 719c20 0 37 -15 37 -42c0 -44 -42 -90 -95 -115l-9 15c23 17 39 29 46 62c-14 5 -22 18 -22 33c0 25 19 47 43 47zM164 720c19 0 30 -5 30 -20c0 -36 -61 -506 -79 -658c28 2 56 10 86 28l13 -14c-40 -44 -76 -65 -105 -65c-25 0 -36 11 -36 40c0 8 1 17 2 27
l73 610l-100 15l2 22c38 9 87 15 114 15z" />
    <glyph glyph-name="Ldot" unicode="&#x13f;" horiz-adv-x="489" 
d="M273 681l-4 -38h-71l-75 -604h295l15 118h42l-19 -157h-442l4 39h63l75 604h-59l4 38h172zM352 403c18 0 31 -14 31 -32c1 -23 -17 -43 -41 -43c-18 0 -31 14 -32 33c0 23 22 42 42 42z" />
    <glyph glyph-name="ldot" unicode="&#x140;" horiz-adv-x="293" 
d="M276 374c18 0 31 -14 31 -32c1 -23 -17 -43 -41 -43c-18 0 -31 14 -32 33c0 23 22 42 42 42zM164 720c19 0 30 -5 30 -20c0 -36 -61 -506 -79 -658c28 2 56 10 86 28l13 -14c-40 -44 -76 -65 -105 -65c-25 0 -36 11 -36 40c0 8 1 17 2 27l73 610l-100 15l2 22
c38 9 87 15 114 15z" />
    <glyph glyph-name="Lslash" unicode="&#x141;" horiz-adv-x="489" 
d="M273 681l-4 -38h-71l-40 -321l144 80l17 -35l-166 -92l-30 -236h295l15 118h42l-19 -157h-442l4 39h63l25 210l-85 -48l-17 36l109 60l43 346h-59l4 38h172z" />
    <glyph glyph-name="lslash" unicode="&#x142;" horiz-adv-x="245" 
d="M164 720c19 0 30 -5 30 -20c0 -20 -18 -168 -38 -323l103 56l18 -34l-127 -71l-35 -286c28 2 56 10 86 28l13 -14c-40 -44 -76 -65 -105 -65c-25 0 -36 11 -36 40c0 8 1 17 2 27l29 244l-98 -54l-18 35l121 68l39 317l-100 15l2 22c38 9 87 15 114 15z" />
    <glyph glyph-name="Nacute" unicode="&#x143;" horiz-adv-x="661" 
d="M498 88h5l69 555h-69l4 39h173l-4 -39h-63c-26 -214 -52 -429 -79 -643h-38l-133 266l-109 218l-59 121c-1 0 -2 -1 -3 -1l-68 -565h68l-4 -39h-175l4 39h65l75 604h-65l4 39h110c38 -75 74 -150 112 -225c26 -52 161 -328 180 -369zM328 716l-13 24l171 101l22 -47z" />
    <glyph glyph-name="nacute" unicode="&#x144;" horiz-adv-x="525" 
d="M352 495c68 0 89 -41 89 -96c0 -30 -5 -83 -36 -357c28 2 56 10 86 27l13 -13c-36 -42 -73 -65 -101 -65c-29 0 -41 13 -41 40c0 8 1 17 2 27c33 275 34 312 34 331c0 38 -12 67 -48 67c-57 0 -147 -66 -208 -255c-8 -68 -19 -134 -27 -201h-43c21 151 44 334 56 444
l-100 15c1 7 0 15 1 22c39 9 81 15 117 15c22 0 31 -6 31 -24c-2 -28 -10 -83 -20 -148h4c58 131 148 171 191 171zM243 535l-23 18l123 155l39 -36z" />
    <glyph glyph-name="Ncommaaccent" unicode="&#x145;" horiz-adv-x="661" 
d="M498 88h5l69 555h-69l4 39h173l-4 -39h-63c-26 -214 -52 -429 -79 -643h-38l-133 266l-109 218l-59 121c-1 0 -2 -1 -3 -1l-68 -565h68l-4 -39h-175l4 39h65l75 604h-65l4 39h110c38 -75 74 -150 112 -225c26 -52 161 -328 180 -369zM336 -39c20 0 37 -15 37 -42
c0 -44 -42 -90 -95 -115l-9 15c23 17 39 29 46 62c-14 5 -22 18 -22 33c0 25 19 47 43 47z" />
    <glyph glyph-name="ncommaaccent" unicode="&#x146;" horiz-adv-x="525" 
d="M352 495c68 0 89 -41 89 -96c0 -30 -5 -83 -36 -357c28 2 56 10 86 27l13 -13c-36 -42 -73 -65 -101 -65c-29 0 -41 13 -41 40c0 8 1 17 2 27c33 275 34 312 34 331c0 38 -12 67 -48 67c-57 0 -147 -66 -208 -255c-8 -68 -19 -134 -27 -201h-43c21 151 44 334 56 444
l-100 15c1 7 0 15 1 22c39 9 81 15 117 15c22 0 31 -6 31 -24c-2 -28 -10 -83 -20 -148h4c58 131 148 171 191 171zM241 -39c20 0 37 -15 37 -42c0 -44 -42 -90 -95 -115l-9 15c23 17 39 29 46 62c-14 5 -22 18 -22 33c0 25 19 47 43 47z" />
    <glyph glyph-name="Ncaron" unicode="&#x147;" horiz-adv-x="661" 
d="M498 88h5l69 555h-69l4 39h173l-4 -39h-63c-26 -214 -52 -429 -79 -643h-38l-133 266l-109 218l-59 121c-1 0 -2 -1 -3 -1l-68 -565h68l-4 -39h-175l4 39h65l75 604h-65l4 39h110c38 -75 74 -150 112 -225c26 -52 161 -328 180 -369zM380 779l154 88l14 -21l-159 -124
h-32l-127 127l15 19z" />
    <glyph glyph-name="ncaron" unicode="&#x148;" horiz-adv-x="525" 
d="M352 495c68 0 89 -41 89 -96c0 -30 -5 -83 -36 -357c28 2 56 10 86 27l13 -13c-36 -42 -73 -65 -101 -65c-29 0 -41 13 -41 40c0 8 1 17 2 27c33 275 34 312 34 331c0 38 -12 67 -48 67c-57 0 -147 -66 -208 -255c-8 -68 -19 -134 -27 -201h-43c21 151 44 334 56 444
l-100 15c1 7 0 15 1 22c39 9 81 15 117 15c22 0 31 -6 31 -24c-2 -28 -10 -83 -20 -148h4c58 131 148 171 191 171zM266 602l156 99l14 -20l-161 -135h-31l-127 137l17 19z" />
    <glyph glyph-name="napostrophe" unicode="&#x149;" horiz-adv-x="606" 
d="M433 495c68 0 89 -41 89 -96c0 -30 -5 -83 -36 -357c28 2 56 10 86 27l13 -13c-36 -42 -73 -65 -101 -65c-29 0 -41 13 -41 40c0 8 1 17 2 27c33 275 34 312 34 331c0 38 -12 67 -48 67c-57 0 -147 -66 -208 -255c-8 -68 -19 -134 -27 -201h-43c21 151 44 334 56 444
l-100 15c1 7 0 15 1 22c39 9 81 15 117 15c22 0 31 -6 31 -24c-2 -28 -10 -83 -20 -148h4c58 131 148 171 191 171zM83 644c20 0 37 -15 37 -42c0 -44 -42 -90 -95 -115l-9 15c23 17 39 29 46 62c-14 5 -22 18 -22 33c0 25 19 47 43 47z" />
    <glyph glyph-name="Eng" unicode="&#x14a;" horiz-adv-x="661" 
d="M498 87h4c22 186 45 370 66 556h-67c1 13 3 26 3 39h174c-2 -13 -3 -26 -4 -39h-63c-10 -86 -75 -641 -79 -685c-9 -99 -65 -128 -141 -128c-25 0 -64 3 -91 10l11 36c29 -6 58 -9 77 -9c100 0 99 55 107 132c-103 203 -197 396 -302 606c-1 0 -2 -1 -3 -1
c-22 -188 -45 -377 -66 -565h68c-2 -13 -2 -26 -4 -39h-175c2 13 3 26 4 39h65l72 604h-65c2 13 2 26 4 39h111z" />
    <glyph glyph-name="eng" unicode="&#x14b;" horiz-adv-x="490" 
d="M352 495c69 0 89 -42 89 -97c0 -25 -5 -81 -40 -399c-11 -97 -85 -137 -155 -137c-25 0 -54 3 -81 10l7 35c23 -4 53 -6 73 -6c66 0 104 33 112 103c44 373 41 371 41 391c0 35 -14 62 -48 62c-56 0 -146 -67 -207 -256l-28 -201h-42c21 151 43 335 56 444l-101 15l2 23
c38 8 81 14 116 14c19 0 31 -4 31 -19c0 -31 -10 -86 -20 -152h4c58 131 149 170 191 170z" />
    <glyph glyph-name="Omacron" unicode="&#x14c;" horiz-adv-x="616" 
d="M367 692c175 0 220 -125 220 -271c0 -234 -100 -428 -294 -428c-170 0 -233 96 -233 257c0 207 80 442 307 442zM369 653c-206 0 -268 -223 -268 -404c0 -144 58 -217 191 -217c181 0 253 193 253 388c0 118 -31 233 -176 233zM233 792h308l-5 -45h-308z" />
    <glyph glyph-name="omacron" unicode="&#x14d;" horiz-adv-x="455" 
d="M265 457c-152 0 -184 -191 -184 -292c0 -69 26 -134 125 -134c148 0 177 185 177 272c0 79 -24 154 -118 154zM265 496c122 0 160 -92 160 -191c0 -119 -39 -312 -226 -312c-124 0 -159 84 -159 183c0 136 54 320 225 320zM138 644h297l-5 -45h-297z" />
    <glyph glyph-name="Obreve" unicode="&#x14e;" horiz-adv-x="616" 
d="M367 692c175 0 220 -125 220 -271c0 -234 -100 -428 -294 -428c-170 0 -233 96 -233 257c0 207 80 442 307 442zM369 653c-206 0 -268 -223 -268 -404c0 -144 58 -217 191 -217c181 0 253 193 253 388c0 118 -31 233 -176 233zM394 767c24 0 64 5 140 75l17 -16
c-62 -74 -116 -98 -163 -98c-64 0 -103 51 -130 104l38 23c27 -44 60 -88 98 -88z" />
    <glyph glyph-name="obreve" unicode="&#x14f;" horiz-adv-x="455" 
d="M265 457c-152 0 -184 -191 -184 -292c0 -69 26 -134 125 -134c148 0 177 185 177 272c0 79 -24 154 -118 154zM265 496c122 0 160 -92 160 -191c0 -119 -39 -312 -226 -312c-124 0 -159 84 -159 183c0 136 54 320 225 320zM283 558c-63 0 -103 49 -133 98l36 22
c27 -44 61 -80 100 -80c24 0 67 7 140 73l17 -16c-62 -74 -118 -97 -160 -97z" />
    <glyph glyph-name="Ohungarumlaut" unicode="&#x150;" horiz-adv-x="616" 
d="M367 692c175 0 220 -125 220 -271c0 -234 -100 -428 -294 -428c-170 0 -233 96 -233 257c0 207 80 442 307 442zM369 653c-206 0 -268 -223 -268 -404c0 -144 58 -217 191 -217c181 0 253 193 253 388c0 118 -31 233 -176 233zM279 716l-15 23l160 117l27 -46zM405 716
l-15 23l160 117l27 -46z" />
    <glyph glyph-name="ohungarumlaut" unicode="&#x151;" horiz-adv-x="455" 
d="M265 457c-152 0 -184 -191 -184 -292c0 -69 26 -134 125 -134c148 0 177 185 177 272c0 79 -24 154 -118 154zM265 496c122 0 160 -92 160 -191c0 -119 -39 -312 -226 -312c-124 0 -159 84 -159 183c0 136 54 320 225 320zM204 535l-22 18l124 154l37 -36zM306 535
l-22 18l123 154l39 -36z" />
    <glyph glyph-name="Racute" unicode="&#x154;" horiz-adv-x="552" 
d="M200 0h-187l4 39h61l75 604h-61l4 39h252c95 0 171 -41 171 -162c0 -84 -39 -180 -155 -204l86 -276l71 -9l1 -26c-18 -6 -54 -11 -71 -11c-30 0 -34 16 -42 40l-88 277h-167l-33 -272h83zM159 351h159c71 0 159 31 159 164c0 94 -51 128 -126 128h-156zM284 716l-13 24
l171 101l22 -47z" />
    <glyph glyph-name="racute" unicode="&#x155;" horiz-adv-x="379" 
d="M145 496c21 0 32 -5 32 -22c0 -25 -9 -73 -18 -135h3c50 136 112 158 155 158c38 0 54 -21 54 -46l-15 -13c-21 10 -37 11 -51 11c-59 0 -116 -75 -163 -242l-28 -207h-39c17 144 36 291 55 444l-89 15l2 22c38 9 67 15 102 15zM216 535l-23 18l123 155l39 -36z" />
    <glyph glyph-name="Rcommaaccent" unicode="&#x156;" horiz-adv-x="552" 
d="M200 0h-187l4 39h61l75 604h-61l4 39h252c95 0 171 -41 171 -162c0 -84 -39 -180 -155 -204l86 -276l71 -9l1 -26c-18 -6 -54 -11 -71 -11c-30 0 -34 16 -42 40l-88 277h-167l-33 -272h83zM159 351h159c71 0 159 31 159 164c0 94 -51 128 -126 128h-156zM285 -39
c20 0 37 -15 37 -42c0 -44 -42 -90 -95 -115l-9 15c23 17 39 29 46 62c-14 5 -22 18 -22 33c0 25 19 47 43 47z" />
    <glyph glyph-name="rcommaaccent" unicode="&#x157;" horiz-adv-x="379" 
d="M145 496c21 0 32 -5 32 -22c0 -25 -9 -73 -18 -135h3c50 136 112 158 155 158c38 0 54 -21 54 -46l-15 -13c-21 10 -37 11 -51 11c-59 0 -116 -75 -163 -242l-28 -207h-39c17 144 36 291 55 444l-89 15l2 22c38 9 67 15 102 15zM92 -39c20 0 37 -15 37 -42
c0 -44 -42 -90 -95 -115l-9 15c23 17 39 29 46 62c-14 5 -22 18 -22 33c0 25 19 47 43 47z" />
    <glyph glyph-name="Rcaron" unicode="&#x158;" horiz-adv-x="552" 
d="M200 0h-187l4 39h61l75 604h-61l4 39h252c95 0 171 -41 171 -162c0 -84 -39 -180 -155 -204l86 -276l71 -9l1 -26c-18 -6 -54 -11 -71 -11c-30 0 -34 16 -42 40l-88 277h-167l-33 -272h83zM159 351h159c71 0 159 31 159 164c0 94 -51 128 -126 128h-156zM314 779l154 88
l14 -21l-159 -124h-32l-127 127l15 19z" />
    <glyph glyph-name="rcaron" unicode="&#x159;" horiz-adv-x="379" 
d="M145 496c21 0 32 -5 32 -22c0 -25 -9 -73 -18 -135h3c50 136 112 158 155 158c38 0 54 -21 54 -46l-15 -13c-21 10 -37 11 -51 11c-59 0 -116 -75 -163 -242l-28 -207h-39c17 144 36 291 55 444l-89 15l2 22c38 9 67 15 102 15zM210 602l156 99l14 -20l-161 -135h-31
l-127 137l17 19z" />
    <glyph glyph-name="Sacute" unicode="&#x15a;" horiz-adv-x="483" 
d="M27 163h39l-12 -93c46 -25 100 -35 151 -35c117 0 207 50 207 161c0 89 -63 111 -142 134c-101 28 -188 54 -188 167c0 131 106 195 210 195c49 0 119 -8 169 -38l-16 -120h-39l13 97c-46 17 -83 21 -127 21c-87 0 -169 -47 -169 -152c0 -77 74 -103 140 -124
c87 -28 190 -44 190 -176c0 -153 -130 -206 -250 -206c-69 0 -137 14 -190 52zM249 714l-13 24l171 101l22 -47z" />
    <glyph glyph-name="sacute" unicode="&#x15b;" horiz-adv-x="382" 
d="M152 -6c-109 0 -125 28 -125 57c0 28 16 74 31 109l19 -1l-7 -112c24 -9 52 -14 83 -14c73 0 147 29 147 102c0 55 -50 74 -101 97c-86 40 -144 74 -144 135c0 94 90 129 165 129c66 0 117 -24 117 -53c0 -27 -15 -78 -31 -114l-19 1l7 108c-19 10 -44 18 -77 18
c-59 0 -119 -22 -119 -90c0 -44 60 -71 99 -89c69 -31 140 -65 140 -140c0 -99 -97 -143 -185 -143zM195 535l-23 18l123 155l39 -36z" />
    <glyph glyph-name="Scircumflex" unicode="&#x15c;" horiz-adv-x="483" 
d="M27 163h39l-12 -93c46 -25 100 -35 151 -35c117 0 207 50 207 161c0 89 -63 111 -142 134c-101 28 -188 54 -188 167c0 131 106 195 210 195c49 0 119 -8 169 -38l-16 -120h-39l13 97c-46 17 -83 21 -127 21c-87 0 -169 -47 -169 -152c0 -77 74 -103 140 -124
c87 -28 190 -44 190 -176c0 -153 -130 -206 -250 -206c-69 0 -137 14 -190 52zM444 705l-132 99l-156 -100l-15 19l160 137h31l128 -135z" />
    <glyph glyph-name="scircumflex" unicode="&#x15d;" horiz-adv-x="382" 
d="M152 -6c-109 0 -125 28 -125 57c0 28 16 74 31 109l19 -1l-7 -112c24 -9 52 -14 83 -14c73 0 147 29 147 102c0 55 -50 74 -101 97c-86 40 -144 74 -144 135c0 94 90 129 165 129c66 0 117 -24 117 -53c0 -27 -15 -78 -31 -114l-19 1l7 108c-19 10 -44 18 -77 18
c-59 0 -119 -22 -119 -90c0 -44 60 -71 99 -89c69 -31 140 -65 140 -140c0 -99 -97 -143 -185 -143zM356 533l-132 99l-156 -100l-15 19l160 137h31l129 -135z" />
    <glyph glyph-name="Scedilla" unicode="&#x15e;" horiz-adv-x="483" 
d="M27 163h39l-12 -93c46 -25 100 -35 151 -35c117 0 207 50 207 161c0 89 -63 111 -142 134c-101 28 -188 54 -188 167c0 131 106 195 210 195c49 0 119 -8 169 -38l-16 -120h-39l13 97c-46 17 -83 21 -127 21c-87 0 -169 -47 -169 -152c0 -77 74 -103 140 -124
c87 -28 190 -44 190 -176s-97 -190 -201 -203c-19 -20 -37 -42 -55 -63c57 -2 96 -21 96 -65c0 -62 -63 -107 -177 -107l5 28c72 7 123 25 123 65c0 34 -53 39 -97 41l-8 15c24 28 49 56 74 83h-10c-69 0 -137 14 -190 52z" />
    <glyph glyph-name="scedilla" unicode="&#x15f;" horiz-adv-x="382" 
d="M337 137c0 -85 -72 -130 -148 -140c-19 -21 -37 -42 -55 -63c57 -2 96 -21 96 -65c0 -62 -63 -107 -177 -107l5 28c72 7 123 25 123 65c0 34 -53 39 -97 41l-8 15l73 83c-106 1 -122 28 -122 57c0 28 16 74 31 109l19 -1l-7 -112c24 -9 52 -14 83 -14
c73 0 147 29 147 102c0 55 -50 74 -101 97c-86 40 -144 74 -144 135c0 94 90 129 165 129c66 0 117 -24 117 -53c0 -27 -15 -78 -31 -114l-19 1l7 108c-19 10 -44 18 -77 18c-59 0 -119 -22 -119 -90c0 -44 60 -71 99 -89c69 -31 140 -65 140 -140z" />
    <glyph glyph-name="Tcommaaccent" unicode="&#x162;" horiz-adv-x="486" 
d="M529 682l-15 -136h-40l11 97h-167l-74 -604h82l-4 -39h-203l4 39h79l75 604h-170l-12 -97h-38l16 136h456zM214 -39c20 0 37 -15 37 -42c0 -44 -42 -90 -95 -115l-9 15c23 17 39 29 46 62c-14 5 -22 18 -22 33c0 25 19 47 43 47z" />
    <glyph glyph-name="tcommaaccent" unicode="&#x163;" horiz-adv-x="322" 
d="M155 594l23 7l-14 -115h144l-3 -32h-143c-4 -33 -46 -336 -46 -362c0 -35 14 -57 57 -57c22 0 55 4 95 16l11 -28c-30 -14 -71 -26 -110 -26c-79 0 -103 40 -94 123l45 334h-70l2 21l72 17zM132 -39c20 0 37 -15 37 -42c0 -44 -42 -90 -95 -115l-9 15c23 17 39 29 46 62
c-14 5 -22 18 -22 33c0 25 19 47 43 47z" />
    <glyph glyph-name="Tcaron" unicode="&#x164;" horiz-adv-x="486" 
d="M529 682l-15 -136h-40l11 97h-167l-74 -604h82l-4 -39h-203l4 39h79l75 604h-170l-12 -97h-38l16 136h456zM310 779l154 88l14 -21l-159 -124h-32l-127 127l15 19z" />
    <glyph glyph-name="tcaron" unicode="&#x165;" horiz-adv-x="399" 
d="M155 594l23 7l-14 -115h144l-3 -32h-143c-4 -33 -46 -336 -46 -362c0 -35 14 -57 57 -57c22 0 55 4 95 16l11 -28c-30 -14 -71 -26 -110 -26c-79 0 -103 40 -94 123l45 334h-70l2 21l72 17zM367 692c20 0 37 -15 37 -42c0 -44 -42 -90 -95 -115l-9 15c23 17 39 29 46 62
c-14 5 -22 18 -22 33c0 25 19 47 43 47z" />
    <glyph glyph-name="Tbar" unicode="&#x166;" horiz-adv-x="486" 
d="M529 682l-15 -139h-41l12 100h-167l-30 -246h163l-4 -35h-164l-39 -323h82l-4 -39h-203l4 39h79l40 323h-160l4 35h160l31 246h-170l-12 -100h-39l17 139h456z" />
    <glyph glyph-name="tbar" unicode="&#x167;" horiz-adv-x="322" 
d="M155 594c8 2 15 4 23 7l-14 -115h144l-3 -32h-143l-14 -99h142c-1 -14 -2 -18 -4 -32h-142c-13 -98 -28 -215 -28 -231c0 -35 14 -57 57 -57c22 0 55 4 95 16l11 -28c-30 -14 -71 -26 -110 -26c-79 0 -103 40 -94 123l27 203h-72l5 32h71c6 40 10 75 14 99h-70l2 21
l72 17c10 34 21 67 31 102z" />
    <glyph glyph-name="Utilde" unicode="&#x168;" horiz-adv-x="651" 
d="M572 643h-71l4 39h174l-4 -39h-61l-50 -401c-18 -147 -98 -249 -257 -249c-174 0 -233 100 -214 254l49 396h-60l5 39h174l-4 -39h-71l-50 -399c-17 -139 36 -211 166 -211c127 0 204 72 220 211zM352 843c40 0 88 -41 116 -41l65 33l10 -9c-14 -33 -47 -61 -82 -61
c-52 0 -85 39 -118 39l-64 -38l-12 10c17 33 50 67 85 67z" />
    <glyph glyph-name="utilde" unicode="&#x169;" horiz-adv-x="525" 
d="M420 487h40c-20 -144 -36 -285 -55 -445c31 2 58 11 85 27c5 -4 9 -8 13 -13c-37 -43 -74 -65 -101 -65c-31 0 -43 14 -43 46c2 28 12 92 18 127h-4c-58 -133 -150 -171 -188 -171c-71 0 -92 39 -92 97c0 25 3 74 35 354l-101 15l2 22c38 9 79 15 114 15
c21 0 31 -5 31 -21c0 -46 -39 -334 -39 -384c0 -41 15 -61 48 -61c57 0 147 67 208 255zM249 657c40 0 88 -41 116 -41l65 33l10 -9c-14 -33 -47 -61 -82 -61c-52 0 -85 39 -118 39l-64 -38l-12 10c17 33 50 67 85 67z" />
    <glyph glyph-name="Umacron" unicode="&#x16a;" horiz-adv-x="651" 
d="M572 643h-71l4 39h174l-4 -39h-61l-50 -401c-18 -147 -98 -249 -257 -249c-174 0 -233 100 -214 254l49 396h-60l5 39h174l-4 -39h-71l-50 -399c-17 -139 36 -211 166 -211c127 0 204 72 220 211zM240 792h308l-5 -45h-308z" />
    <glyph glyph-name="umacron" unicode="&#x16b;" horiz-adv-x="525" 
d="M420 487h40c-20 -144 -36 -285 -55 -445c31 2 58 11 85 27c5 -4 9 -8 13 -13c-37 -43 -74 -65 -101 -65c-31 0 -43 14 -43 46c2 28 12 92 18 127h-4c-58 -133 -150 -171 -188 -171c-71 0 -92 39 -92 97c0 25 3 74 35 354l-101 15l2 22c38 9 79 15 114 15
c21 0 31 -5 31 -21c0 -46 -39 -334 -39 -384c0 -41 15 -61 48 -61c57 0 147 67 208 255zM148 644h297l-5 -45h-297z" />
    <glyph glyph-name="Ubreve" unicode="&#x16c;" horiz-adv-x="651" 
d="M572 643h-71l4 39h174l-4 -39h-61l-50 -401c-18 -147 -98 -249 -257 -249c-174 0 -233 100 -214 254l49 396h-60l5 39h174l-4 -39h-71l-50 -399c-17 -139 36 -211 166 -211c127 0 204 72 220 211zM387 727c-63 0 -103 49 -133 98l36 22c27 -44 61 -80 100 -80
c24 0 67 7 140 73l17 -16c-62 -74 -118 -97 -160 -97z" />
    <glyph glyph-name="ubreve" unicode="&#x16d;" horiz-adv-x="525" 
d="M420 487h40c-20 -144 -36 -285 -55 -445c31 2 58 11 85 27c5 -4 9 -8 13 -13c-37 -43 -74 -65 -101 -65c-31 0 -43 14 -43 46c2 28 12 92 18 127h-4c-58 -133 -150 -171 -188 -171c-71 0 -92 39 -92 97c0 25 3 74 35 354l-101 15l2 22c38 9 79 15 114 15
c21 0 31 -5 31 -21c0 -46 -39 -334 -39 -384c0 -41 15 -61 48 -61c57 0 147 67 208 255zM302 558c-63 0 -103 49 -133 98l36 22c27 -44 61 -80 100 -80c24 0 67 7 140 73l17 -16c-62 -74 -118 -97 -160 -97z" />
    <glyph glyph-name="Uring" unicode="&#x16e;" horiz-adv-x="651" 
d="M572 643h-71l4 39h174l-4 -39h-61l-50 -401c-18 -147 -98 -249 -257 -249c-174 0 -233 100 -214 254l49 396h-60l5 39h174l-4 -39h-71l-50 -399c-17 -139 36 -211 166 -211c127 0 204 72 220 211zM380 713c-53 0 -90 43 -84 95c7 51 49 96 107 96c51 0 88 -44 82 -96
c-6 -53 -51 -95 -105 -95zM400 874c-40 0 -68 -29 -73 -68c-4 -38 17 -66 57 -66c36 0 66 28 70 66c5 38 -18 68 -54 68z" />
    <glyph glyph-name="uring" unicode="&#x16f;" horiz-adv-x="525" 
d="M420 487h40c-20 -144 -36 -285 -55 -445c31 2 58 11 85 27c5 -4 9 -8 13 -13c-37 -43 -74 -65 -101 -65c-31 0 -43 14 -43 46c2 28 12 92 18 127h-4c-58 -133 -150 -171 -188 -171c-71 0 -92 39 -92 97c0 25 3 74 35 354l-101 15l2 22c38 9 79 15 114 15
c21 0 31 -5 31 -21c0 -46 -39 -334 -39 -384c0 -41 15 -61 48 -61c57 0 147 67 208 255zM287 552c-53 0 -90 43 -84 95c7 51 49 96 107 96c51 0 88 -44 82 -96c-6 -53 -51 -95 -105 -95zM307 713c-40 0 -68 -29 -73 -68c-4 -38 17 -66 57 -66c36 0 66 28 70 66
c5 38 -18 68 -54 68z" />
    <glyph glyph-name="Uhungarumlaut" unicode="&#x170;" horiz-adv-x="651" 
d="M572 643h-71l4 39h174l-4 -39h-61l-50 -401c-18 -147 -98 -249 -257 -249c-174 0 -233 100 -214 254l49 396h-60l5 39h174l-4 -39h-71l-50 -399c-17 -139 36 -211 166 -211c127 0 204 72 220 211zM302 716l-15 23l160 117l27 -46zM428 716l-15 23l160 117l27 -46z" />
    <glyph glyph-name="uhungarumlaut" unicode="&#x171;" horiz-adv-x="525" 
d="M420 487h40c-20 -144 -36 -285 -55 -445c31 2 58 11 85 27c5 -4 9 -8 13 -13c-37 -43 -74 -65 -101 -65c-31 0 -43 14 -43 46c2 28 12 92 18 127h-4c-58 -133 -150 -171 -188 -171c-71 0 -92 39 -92 97c0 25 3 74 35 354l-101 15l2 22c38 9 79 15 114 15
c21 0 31 -5 31 -21c0 -46 -39 -334 -39 -384c0 -41 15 -61 48 -61c57 0 147 67 208 255zM341 535l-22 18l123 154l39 -36zM239 535l-22 18l124 154l37 -36z" />
    <glyph glyph-name="Uogonek" unicode="&#x172;" horiz-adv-x="651" 
d="M572 643h-71l4 39h174l-4 -39h-61l-50 -401c-17 -140 -90 -239 -234 -248c-32 -39 -56 -93 -56 -116c0 -28 25 -35 55 -35c26 0 56 7 73 11l3 -24c-30 -14 -69 -24 -103 -24c-53 0 -78 22 -78 59c0 29 17 80 72 128c-166 4 -222 103 -203 254l49 396h-60l5 39h174l-4 -39
h-71l-50 -399c-17 -139 36 -211 166 -211c127 0 204 72 220 211z" />
    <glyph glyph-name="uogonek" unicode="&#x173;" horiz-adv-x="525" 
d="M420 487h40c-20 -144 -36 -285 -55 -445c31 2 58 11 85 27c5 -4 9 -8 13 -13c-15 -18 -30 -32 -44 -42c-39 -38 -70 -103 -70 -130c0 -28 25 -35 55 -35c26 0 56 7 73 11l3 -24c-30 -14 -69 -24 -103 -24c-53 0 -78 22 -78 59c0 28 15 74 63 120c-31 0 -43 14 -43 46
c2 28 12 92 18 127h-4c-58 -133 -150 -171 -188 -171c-71 0 -92 39 -92 97c0 25 3 74 35 354l-101 15l2 22c38 9 79 15 114 15c21 0 31 -5 31 -21c0 -46 -39 -334 -39 -384c0 -41 15 -61 48 -61c57 0 147 67 208 255z" />
    <glyph glyph-name="Wcircumflex" unicode="&#x174;" horiz-adv-x="831" 
d="M780 644h-70l4 38h171l-4 -38h-60l-230 -644h-44l-70 432l-15 101h-2l-41 -106l-175 -427h-46l-75 644h-59l4 38h173l-4 -38h-73l53 -489l10 -92h2l37 95l182 453l-4 33h-71l4 38h183l-4 -38h-73l82 -500l11 -83h2l33 95zM611 698l-132 99l-156 -100l-15 19l160 137h31
l128 -135z" />
    <glyph glyph-name="wcircumflex" unicode="&#x175;" horiz-adv-x="647" 
d="M336 246c-1 0 -1 1 -2 1c-48 -104 -129 -208 -172 -250h-32c-13 149 -27 301 -41 451l-71 -24c-3 5 -6 12 -8 17c30 33 60 56 85 59c24 0 36 -10 38 -47c3 -49 26 -345 29 -395h4c60 72 130 189 164 277c-3 38 -5 75 -9 113c-25 -9 -50 -16 -75 -24c-3 5 -7 11 -9 16
c35 38 73 59 93 59c21 0 33 -10 35 -45l26 -398h4c98 111 181 266 182 390l-77 -24l-9 16c37 40 75 61 93 61c22 0 33 -12 33 -50c0 -151 -134 -364 -225 -452h-35zM505 533l-132 99l-156 -100l-15 19l160 137h31l129 -135z" />
    <glyph glyph-name="Ycircumflex" unicode="&#x176;" horiz-adv-x="517" 
d="M271 354h4l190 290h-66l4 38h162l-4 -38h-51l-218 -328l-34 -277h79l-4 -39h-202l4 39h81l33 274l-133 331h-53l5 38h157l-4 -38h-64zM450 698l-132 99l-156 -100l-15 19l160 137h31l128 -135z" />
    <glyph glyph-name="ycircumflex" unicode="&#x177;" horiz-adv-x="458" 
d="M97 495c23 0 33 -11 40 -45c29 -133 61 -323 82 -461c88 118 164 349 164 454l-77 -23l-8 17c37 39 64 58 86 58c23 0 39 -8 39 -42c0 -230 -221 -683 -463 -683c-47 0 -76 22 -76 54c0 3 1 5 1 8l21 14c24 -19 48 -26 72 -26c63 0 127 39 208 129
c-24 150 -67 400 -91 495l-74 -22l-8 17c34 36 64 56 84 56zM402 533l-132 99l-156 -100l-15 19l160 137h31l129 -135z" />
    <glyph glyph-name="Zacute" unicode="&#x179;" horiz-adv-x="465" 
d="M421 0h-428l4 39l439 604h-302l-11 -97h-39l16 136h387l-4 -39l-438 -603h339l14 105h41zM235 716l-13 24l171 101l22 -47z" />
    <glyph glyph-name="zacute" unicode="&#x17a;" horiz-adv-x="419" 
d="M337 0h-321l-9 34l342 414h-231l-40 -109l-22 2l12 115c3 28 24 31 38 31h278l13 -40l-338 -409h270l36 106l20 -1l-12 -112c-3 -28 -21 -31 -36 -31zM224 535l-23 18l123 155l39 -36z" />
    <glyph glyph-name="Zdotaccent" unicode="&#x17b;" horiz-adv-x="465" 
d="M421 0h-428l4 39l439 604h-302l-11 -97h-39l16 136h387l-4 -39l-438 -603h339l14 105h41zM308 836c18 0 31 -14 31 -32c1 -23 -17 -43 -41 -43c-18 0 -31 14 -32 33c0 23 22 42 42 42z" />
    <glyph glyph-name="zdotaccent" unicode="&#x17c;" horiz-adv-x="419" 
d="M337 0h-321l-9 34l342 414h-231l-40 -109l-22 2l12 115c3 28 24 31 38 31h278l13 -40l-338 -409h270l36 106l20 -1l-12 -112c-3 -28 -21 -31 -36 -31zM251 644c18 0 31 -14 31 -32c1 -23 -17 -43 -41 -43c-18 0 -31 14 -32 33c0 23 22 42 42 42z" />
    <glyph glyph-name="Ohorn" unicode="&#x1a0;" horiz-adv-x="674" 
d="M367 692c102 0 160 -43 191 -108h8c91 0 85 90 94 162h38l-9 -78c-7 -61 -35 -117 -118 -121c11 -38 16 -81 16 -126c0 -234 -100 -428 -294 -428c-170 0 -233 96 -233 257c0 207 80 442 307 442zM369 653c-206 0 -268 -223 -268 -404c0 -144 58 -217 191 -217
c181 0 253 193 253 388c0 118 -31 233 -176 233z" />
    <glyph glyph-name="ohorn" unicode="&#x1a1;" horiz-adv-x="509" 
d="M265 496c74 0 117 -34 139 -83c80 6 76 93 85 163h38c-10 -84 -7 -183 -111 -197c6 -23 9 -49 9 -74c0 -119 -39 -312 -226 -312c-124 0 -159 84 -159 183c0 136 54 320 225 320zM373 377v2c-14 45 -46 78 -108 78c-152 0 -184 -191 -184 -292c0 -69 26 -134 125 -134
c148 0 177 185 177 272c0 26 -2 51 -9 74h-1z" />
    <glyph glyph-name="Uhorn" unicode="&#x1af;" horiz-adv-x="713" 
d="M611 643l-6 -49h30c88 0 84 72 94 158h38c-10 -67 1 -194 -137 -194h-29l-39 -317c-16 -147 -107 -247 -266 -247c-145 0 -209 73 -209 197c0 15 1 32 3 49l49 403h-59l4 39h174l-4 -39h-72l-48 -400c-2 -15 -3 -30 -3 -44c0 -112 58 -166 171 -166c127 0 203 72 218 210
c17 133 33 267 49 400h-71l5 39h164l-4 -39h-52z" />
    <glyph glyph-name="uhorn" unicode="&#x1b0;" horiz-adv-x="565" 
d="M420 487h40c-4 -25 -7 -50 -10 -74h1c86 0 85 79 94 162h38c-7 -83 -6 -199 -138 -199c-14 -107 -26 -215 -40 -334c31 2 58 11 85 27c5 -4 9 -8 13 -13c-37 -43 -74 -65 -101 -65c-31 0 -43 14 -43 46c2 28 12 92 18 127h-4c-58 -133 -150 -171 -188 -171
c-71 0 -92 39 -92 97c0 25 3 74 35 354l-101 15l2 22c38 9 79 15 114 15c21 0 31 -5 31 -21c0 -46 -39 -334 -39 -384c0 -41 15 -61 48 -61c57 0 147 67 208 255z" />
    <glyph glyph-name="AEacute" unicode="&#x1fc;" horiz-adv-x="875" 
d="M479 38c2 57 5 115 8 172h-265l-110 -172h79c0 -12 1 -26 0 -38h-187c1 12 0 26 0 38h59c141 216 278 434 428 643h342l-5 -125h-38l5 87h-249c-4 -88 -9 -176 -12 -264l262 6v-48l-262 4c-4 -100 -8 -202 -13 -303h277c2 29 2 57 4 86h42l-5 -124h-424c1 12 1 26 0 38
h64zM496 637c-81 -128 -164 -256 -245 -384h237c4 128 10 256 14 384h-6zM589 716l-13 24l171 101l22 -47z" />
    <glyph glyph-name="aeacute" unicode="&#x1fd;" horiz-adv-x="717" 
d="M480 -6c-83 0 -124 38 -142 92c-83 -77 -152 -95 -211 -95c-85 0 -105 61 -105 112c0 98 66 162 311 163c3 27 10 65 10 85c0 83 -29 105 -100 105c-31 0 -97 -13 -149 -32l-12 31c55 25 112 39 167 39c42 0 111 -7 132 -93c36 54 95 96 187 96c89 0 119 -58 119 -113
c0 -131 -161 -151 -319 -152c-1 -16 -2 -34 -2 -51c0 -72 19 -150 120 -150c51 0 97 13 148 37l13 -28c-34 -23 -100 -46 -167 -46zM67 109c0 -43 18 -76 74 -76c43 0 112 12 190 85c-4 20 -5 42 -5 64c0 15 0 30 2 50c-230 -5 -261 -68 -261 -123zM563 458
c-116 0 -181 -89 -192 -192c173 3 278 31 278 113c0 46 -29 79 -86 79zM395 535l-23 18l123 155l39 -36z" />
    <glyph glyph-name="Oslashacute" unicode="&#x1fe;" horiz-adv-x="616" 
d="M366 691c80 0 133 -26 167 -68l58 71h36l-78 -96c28 -46 37 -107 37 -172c0 -236 -95 -432 -294 -432c-85 0 -144 23 -181 68c-19 -22 -37 -45 -56 -66h-37c26 30 50 60 75 91c-23 40 -34 94 -34 158c0 206 80 446 307 446zM545 419c0 51 -7 102 -24 143
c-127 -156 -256 -310 -384 -466c31 -43 81 -64 154 -64c182 0 254 193 254 387zM368 653c-207 0 -268 -225 -268 -408c2 -49 8 -88 22 -122l383 465c-26 39 -69 65 -137 65zM336 716l-13 24l171 101l22 -47z" />
    <glyph glyph-name="oslashacute" unicode="&#x1ff;" horiz-adv-x="454" 
d="M268 496c54 0 89 -19 114 -48l39 47h31c-7 -10 -27 -35 -55 -69c20 -34 28 -77 28 -121c0 -119 -39 -312 -226 -312c-57 0 -95 17 -120 46l-36 -44c-11 0 -22 -1 -33 -1l54 66c-18 32 -24 72 -24 116c0 136 57 320 228 320zM368 391c-77 -96 -189 -231 -262 -319
c19 -25 50 -41 100 -41c148 0 177 185 177 272c0 31 -4 62 -15 88zM265 457c-152 0 -184 -191 -184 -292c0 -25 3 -49 12 -70l262 320c-18 26 -46 42 -90 42zM270 535l-23 18l123 155l39 -36z" />
    <glyph glyph-name="Scommaaccent" unicode="&#x218;" horiz-adv-x="483" 
d="M27 163h39l-12 -93c46 -25 100 -35 151 -35c117 0 207 50 207 161c0 89 -63 111 -142 134c-101 28 -188 54 -188 167c0 131 106 195 210 195c49 0 119 -8 169 -38l-16 -120h-39l13 97c-46 17 -83 21 -127 21c-87 0 -169 -47 -169 -152c0 -77 74 -103 140 -124
c87 -28 190 -44 190 -176c0 -153 -130 -206 -250 -206c-69 0 -137 14 -190 52zM231 -39c20 0 37 -15 37 -42c0 -44 -42 -90 -95 -115l-9 15c23 17 39 29 46 62c-14 5 -22 18 -22 33c0 25 19 47 43 47z" />
    <glyph glyph-name="scommaaccent" unicode="&#x219;" horiz-adv-x="382" 
d="M152 -6c-109 0 -125 28 -125 57c0 28 16 74 31 109l19 -1l-7 -112c24 -9 52 -14 83 -14c73 0 147 29 147 102c0 55 -50 74 -101 97c-86 40 -144 74 -144 135c0 94 90 129 165 129c66 0 117 -24 117 -53c0 -27 -15 -78 -31 -114l-19 1l7 108c-19 10 -44 18 -77 18
c-59 0 -119 -22 -119 -90c0 -44 60 -71 99 -89c69 -31 140 -65 140 -140c0 -99 -97 -143 -185 -143zM178 -39c20 0 37 -15 37 -42c0 -44 -42 -90 -95 -115l-9 15c23 17 39 29 46 62c-14 5 -22 18 -22 33c0 25 19 47 43 47z" />
    <glyph glyph-name="schwa" unicode="&#x259;" horiz-adv-x="431" 
d="M242 497c123 0 154 -84 154 -186c0 -121 -47 -317 -242 -317c-89 0 -119 59 -119 114c0 138 156 172 318 183c1 8 1 18 1 28c0 63 -20 142 -118 142c-51 0 -97 -13 -148 -37l-13 28c34 23 100 45 167 45zM348 250c-173 -9 -270 -50 -270 -138c0 -46 23 -78 81 -78
c109 0 174 83 189 216z" />
    <glyph glyph-name="partialdiff" unicode="&#x2202;" horiz-adv-x="525" 
d="M223 -10c-99 0 -170 61 -170 179c0 161 105 262 221 262c53 0 127 -23 170 -86c3 32 5 65 5 93c0 172 -78 243 -205 243c-11 0 -20 -1 -33 -2l-2 39c14 2 30 3 43 3c160 0 239 -110 239 -280c0 -304 -128 -451 -268 -451zM231 27c111 0 192 144 206 265
c-40 66 -98 100 -163 100c-119 0 -175 -120 -175 -218c0 -101 52 -147 132 -147z" />
    <glyph glyph-name="Dcroat" unicode="&#x110;" horiz-adv-x="600" 
d="M340 682c177 0 232 -119 232 -271c0 -218 -83 -411 -311 -411h-247l4 39h65l35 289h-60l4 36h61l35 279h-62l4 39h240zM329 643h-127l-35 -279h161l-4 -36h-161l-35 -288h122c54 0 279 -3 279 360c0 245 -142 243 -200 243z" />
    <glyph glyph-name="zero.taboldstyle" unicode="&#xe024;" horiz-adv-x="516" 
d="M476 289c0 -125 -70 -296 -243 -296c-145 0 -190 101 -190 201c0 118 58 298 251 298c147 0 182 -112 182 -203zM289 452c-163 0 -201 -164 -201 -258c0 -93 41 -163 152 -163c135 0 192 143 192 255c0 71 -23 166 -143 166z" />
    <glyph glyph-name="one.taboldstyle" unicode="&#xe025;" horiz-adv-x="516" 
d="M278 434l-156 -25l-3 30l168 52h42l-55 -453h126l-3 -38h-307l4 38h136z" />
    <glyph glyph-name="two.taboldstyle" unicode="&#xe026;" horiz-adv-x="516" 
d="M123 41v-3c43 0 92 1 258 1l13 97h44l-17 -136h-389c2 11 3 23 4 35c147 77 353 212 353 324c0 49 -41 90 -123 90c-27 0 -84 -4 -167 -53c-6 10 -12 18 -17 28c83 58 155 65 193 65c105 0 158 -56 158 -122c0 -133 -183 -256 -310 -326z" />
    <glyph glyph-name="three.taboldstyle" unicode="&#xe027;" horiz-adv-x="499" 
d="M155 -146c-66 0 -120 11 -169 36l15 31c77 -29 122 -31 159 -31c110 0 189 66 189 167c0 84 -78 124 -174 124c-14 0 -28 -1 -43 -3l-7 36c168 29 224 93 224 153c0 49 -37 82 -122 82c-39 0 -101 -12 -170 -39l-14 32c62 30 137 48 191 48c115 0 158 -54 158 -115
c0 -79 -72 -149 -145 -165v-2c89 -14 146 -67 146 -154c0 -115 -97 -200 -238 -200z" />
    <glyph glyph-name="four.taboldstyle" unicode="&#xe028;" horiz-adv-x="516" 
d="M451 0h-89l-12 -98h70l-4 -41h-181l6 41h67l12 98h-307l4 40l358 449h45l-54 -450h89zM370 420h-3l-303 -381h262z" />
    <glyph glyph-name="five.taboldstyle" unicode="&#xe029;" horiz-adv-x="516" 
d="M263 247c80 0 173 -41 173 -161c0 -150 -108 -232 -237 -232c-74 0 -128 11 -177 36l16 33c73 -27 113 -28 150 -28c119 0 203 62 203 184c0 85 -56 127 -146 127c-39 0 -80 -10 -117 -27l-30 27l48 280h312l-14 -123h-38l9 81h-233l-38 -218c27 9 58 21 119 21z" />
    <glyph glyph-name="six.taboldstyle" unicode="&#xe02a;" horiz-adv-x="516" 
d="M121 344l4 -2c34 20 92 46 167 46c90 0 167 -41 167 -156c0 -138 -88 -238 -224 -238c-133 0 -171 87 -171 204c0 29 1 55 5 87c24 208 119 348 271 348c65 0 110 -22 128 -33l-16 -34c-46 21 -88 26 -120 26c-147 0 -198 -177 -211 -248zM285 345
c-105 0 -173 -54 -171 -53c-5 -39 -7 -64 -7 -88c0 -80 23 -171 135 -171c115 0 173 88 173 190c0 73 -36 122 -130 122z" />
    <glyph glyph-name="seven.taboldstyle" unicode="&#xe02b;" horiz-adv-x="516" 
d="M473 448l-331 -585h-46l330 582h-273l-11 -99h-42l17 142h359z" />
    <glyph glyph-name="eight.taboldstyle" unicode="&#xe02c;" horiz-adv-x="516" 
d="M310 597c-119 0 -147 -88 -147 -121c0 -75 87 -106 158 -136c96 52 118 108 118 152c0 52 -32 105 -129 105zM237 28c121 0 175 81 175 147c0 90 -87 125 -183 164c-108 -52 -143 -123 -143 -189c0 -62 41 -122 151 -122zM317 633c78 0 164 -43 164 -134
c0 -56 -27 -120 -126 -176c63 -32 98 -81 98 -146c0 -92 -76 -184 -222 -184c-131 0 -185 74 -185 155c0 69 35 154 150 208c-49 31 -75 70 -75 117c0 88 80 160 196 160z" />
    <glyph glyph-name="nine.taboldstyle" unicode="&#xe02d;" horiz-adv-x="516" 
d="M398 143l-4 2c-34 -20 -97 -46 -174 -46c-89 0 -167 43 -167 157c0 138 95 237 226 237c135 0 174 -100 174 -220c0 -235 -110 -419 -279 -419c-66 0 -125 22 -142 34l19 34c45 -21 98 -27 130 -27c146 0 203 179 217 248zM272 450c-115 0 -173 -84 -173 -186
c0 -74 33 -123 129 -123c106 0 180 55 178 54c2 23 5 49 5 75c0 88 -24 180 -139 180z" />
    <glyph glyph-name="numbersign.taboldstyle" unicode="&#xe02e;" horiz-adv-x="516" 
d="M235 0l56 164h-142l-56 -164h-35l56 164h-66l16 31h61l56 160h-68l15 32h63l51 142h36l-51 -142h141l50 142h36l-50 -142h58l-14 -32h-55l-56 -160h61l-16 -31h-56l-55 -164h-36zM217 355l-56 -160h140l57 160h-141z" />
    <glyph glyph-name="dollar.taboldstyle" unicode="&#xe02f;" horiz-adv-x="516" 
d="M226 -63c30 225 59 453 89 679h33l-7 -51c34 -4 74 -15 98 -31c-3 -33 -8 -67 -12 -100h-39l10 78c-16 8 -40 14 -61 16c-11 -76 -20 -152 -30 -228c60 -27 121 -55 121 -130c0 -100 -70 -153 -159 -165l-9 -68h-34zM289 616c-30 -226 -59 -454 -89 -679h-33l9 65
c-42 5 -85 17 -120 43c4 32 9 65 12 97h39l-9 -75c31 -15 58 -22 82 -25l33 246c-59 20 -101 66 -101 121c0 93 65 137 137 152l7 55h33zM303 261l-30 -217c66 10 114 47 114 122c0 50 -35 75 -84 95zM217 330c9 64 17 129 25 192c-47 -11 -88 -43 -88 -110
c0 -47 27 -65 63 -82z" />
    </font>
</defs>
</svg>
