<?xml version="1.0" standalone="no"?>
<!DOCTYPE svg PUBLIC "-//W3C//DTD SVG 1.1//EN" "http://www.w3.org/Graphics/SVG/1.1/DTD/svg11.dtd" >
<svg xmlns="http://www.w3.org/2000/svg" xmlns:xlink="http://www.w3.org/1999/xlink" version="1.1">
<metadata>
Created by FontForge 20161116 at Wed Apr 17 14:03:11 2013
 By Jimmy Wärting
Copyright (c) 2006 Parachute\u00AE , www.parachute.gr. All rights reserved. Sapient Centro Slab is exclusively licensed to Sapient.
</metadata>
<defs>
<font id="SapientCentroSlab-Light" horiz-adv-x="1818" >
  <font-face 
    font-family="Sapient Centro Slab Light"
    font-weight="300"
    font-stretch="normal"
    units-per-em="1000"
    panose-1="2 0 5 3 4 0 0 2 0 4"
    ascent="750"
    descent="-250"
    x-height="487"
    cap-height="683"
    bbox="-340 -258.131 1760 925"
    underline-thickness="40"
    underline-position="-100"
    stemh="46"
    stemv="57"
    unicode-range="U+0020-FB05"
  />
<missing-glyph horiz-adv-x="440" 
d="M0 0v682h440v-682h-440zM251 342l140 -248v497zM49 589v-493l140 246zM81 49h278l-139 247zM220 389l139 245h-278z" />
    <glyph glyph-name="fj" unicode="fj" horiz-adv-x="513" 
d="M405 708l-9 -46c-40 7 -89 13 -125 13c-88 0 -125 -25 -125 -119v-69h287v-481c0 -119 -30 -167 -153 -219l-17 37c95 53 117 89 117 170v448h-234v-398h87v-44h-213v44h73v398h-67v30l68 17v87c0 118 83 147 172 147c45 0 101 -7 139 -15z" />
    <glyph glyph-name="ffj" unicode="ffj" horiz-adv-x="790" 
d="M676 721l-9 -45c-40 7 -83 12 -119 12c-88 0 -125 -25 -125 -119v-82h277v-481c0 -119 -30 -167 -153 -219l-17 37c95 53 117 89 117 170v448h-224v-398h87v-44h-201v44h61v398h-224v-398h71v-44h-197v44h73v398h-67v30l68 17v63c0 118 83 162 189 162
c42 0 80 -6 126 -19c33 31 82 41 134 41c45 0 95 -7 133 -15zM371 589c0 25 3 47 10 64c-36 10 -69 13 -93 13c-111 0 -142 -40 -142 -134v-44l225 -1v102z" />
    <glyph glyph-name="ff" unicode="ff" horiz-adv-x="597" 
d="M567 487v-45h-144v-398h87v-44h-199v44h59v398h-224v-398h68v-44h-194v44h73v398h-67v30l68 17v63c0 118 83 162 189 162c41 0 79 -5 123 -18c26 27 64 40 109 40c26 0 58 -3 87 -10l-8 -43c-23 3 -49 6 -69 6c-67 0 -102 -24 -102 -93v-109h144zM371 594c0 22 3 42 9 59
c-35 9 -68 13 -92 13c-111 0 -142 -40 -142 -134v-44l225 -1v107z" />
    <glyph glyph-name="fi" unicode="fi" horiz-adv-x="523" 
d="M420 487l-1 -441h74v-33c-22 -11 -54 -17 -73 -17c-33 0 -53 5 -53 48v398h-221v-398h68v-44h-194v44h73v398h-67v30l68 17v87c0 118 83 147 172 147c45 0 101 -7 139 -15l-9 -46c-40 7 -89 13 -125 13c-88 0 -125 -25 -125 -119v-69h274z" />
    <glyph glyph-name="fl" unicode="fl" horiz-adv-x="536" 
d="M298 487v-45h-152v-398h65v-44h-191v44h73v398h-67v30l68 17v77c0 118 83 147 172 147c40 0 89 -6 126 -13l41 9v-665h73v-44h-193v44h67v610c-37 6 -78 11 -109 11c-88 0 -125 -25 -125 -119v-59h152z" />
    <glyph glyph-name="ffi" unicode="ffi" horiz-adv-x="801" 
d="M371 487v101c0 26 4 47 11 65c-36 10 -70 13 -94 13c-111 0 -142 -40 -142 -134v-44zM645 442h-222v-398h80v-44h-202v44h69v398h-224v-398h66v-44h-192v44h73v398h-67v30l68 17v63c0 118 83 162 189 162c42 0 81 -6 127 -19c32 30 82 40 133 40c45 0 101 -7 139 -15
l-9 -46c-40 7 -89 13 -125 13c-88 0 -125 -25 -125 -119v-81h275l-1 -441h74v-33c-22 -11 -54 -17 -73 -17c-33 0 -53 5 -53 48v398z" />
    <glyph glyph-name="ffl" unicode="ffl" horiz-adv-x="814" 
d="M424 568l-1 -81h153v-45h-153v-398h80v-44h-202v44h69v398h-224v-398h66v-44h-192v44h73v398h-67v30l68 17v63c0 118 83 162 189 162c42 0 81 -6 127 -19c34 30 81 40 134 40c40 0 89 -6 126 -13l41 9v-687h73v-44h-193v44h67v632c-37 6 -78 11 -109 11
c-88 0 -125 -25 -125 -119zM371 487l1 101c0 25 4 46 10 63v2c-36 10 -70 13 -94 13c-111 0 -142 -40 -142 -134v-44z" />
    <glyph glyph-name="ft" unicode="ft" horiz-adv-x="632" 
d="M433 443v-319c0 -44 12 -81 67 -81c26 0 57 6 96 18l11 -38c-33 -16 -75 -27 -114 -27c-65 0 -113 27 -113 108v338h-234v-398h87v-44h-213v44h73v398h-67v30l68 17v87c0 98 61 142 144 142c26 0 73 -3 102 -10l-8 -43c-23 3 -64 6 -84 6c-67 0 -102 -24 -102 -93v-90
h234l22 109l32 8v-118h149v-44h-150z" />
    <glyph glyph-name=".notdef" horiz-adv-x="440" 
d="M0 0v682h440v-682h-440zM251 342l140 -248v497zM49 589v-493l140 246zM81 49h278l-139 247zM220 389l139 245h-278z" />
    <glyph glyph-name="exclam" unicode="!" horiz-adv-x="198" 
d="M118 159h-33l-9 221l-5 312h57l-3 -312zM142 34c0 -24 -20 -44 -42 -44c-24 0 -44 20 -44 44c0 23 19 42 43 42s43 -19 43 -42z" />
    <glyph glyph-name="quotedbl" unicode="&#x22;" horiz-adv-x="229" 
d="M179 498h-31l-12 185h54zM85 498h-30l-12 185h55z" />
    <glyph glyph-name="numbersign" unicode="#" horiz-adv-x="508" 
d="M276 0l41 194h-162l-41 -194h-40l41 194h-75l11 37h72l40 186h-79l11 37h76l37 170h40l-37 -170h162l37 170h40l-37 -170h68l-11 -37h-65l-40 -186h72l-11 -37h-69l-41 -194h-40zM203 417l-40 -186h162l40 186h-162z" />
    <glyph glyph-name="dollar" unicode="$" horiz-adv-x="540" 
d="M283 -75v802h36v-62c39 -3 83 -13 119 -36v-118h-44v89c-22 11 -49 16 -75 19v-263c83 -34 162 -66 162 -174c0 -107 -70 -160 -162 -175v-82h-36zM249 727v-802h-35v79c-52 5 -96 16 -146 48v117h44v-87c44 -21 72 -25 102 -29v285c-78 28 -139 66 -139 158
c0 94 60 148 139 165v66h35zM430 186c0 65 -48 96 -111 120v-251c70 12 111 51 111 131zM127 501c0 -68 38 -92 87 -112v225c-48 -13 -87 -47 -87 -113z" />
    <glyph glyph-name="percent" unicode="%" horiz-adv-x="785" 
d="M331 463c0 -92 -34 -201 -154 -201c-136 0 -158 103 -158 199c0 85 23 207 160 207c140 0 152 -129 152 -205zM280 461c0 58 -4 165 -101 165c-98 0 -109 -101 -109 -166c0 -86 17 -157 109 -157c83 0 101 85 101 158zM554 698l-282 -721h-43l284 721h41zM766 198
c0 -92 -34 -201 -154 -201c-136 0 -158 103 -158 199c0 85 23 207 160 207c140 0 152 -129 152 -205zM715 196c0 58 -4 165 -101 165c-98 0 -109 -101 -109 -166c0 -86 17 -157 109 -157c83 0 101 85 101 158z" />
    <glyph glyph-name="ampersand" unicode="&#x26;" horiz-adv-x="696" 
d="M271 627c-58 0 -76 -54 -76 -88c0 -37 20 -72 51 -117c62 32 111 65 111 125c0 47 -32 80 -86 80zM328 215c-38 49 -77 100 -106 142c-82 -44 -144 -96 -144 -175c0 -100 70 -148 153 -148c62 0 131 24 193 67c-37 38 -68 78 -96 114zM487 358v45h214v-45h-73
c-8 -105 -61 -192 -132 -258c49 -48 101 -84 152 -105l-23 -44c-42 18 -118 68 -169 117c-66 -50 -147 -78 -220 -78c-116 0 -209 63 -209 190c0 92 65 159 170 218c-43 58 -57 96 -57 136c0 78 50 139 135 139c88 0 134 -57 134 -126c0 -73 -51 -116 -139 -168
c32 -49 74 -104 117 -157c24 -30 49 -60 76 -89c60 57 107 131 119 225h-95z" />
    <glyph glyph-name="quotesingle" unicode="'" horiz-adv-x="171" 
d="M102 498h-30l-12 185h55z" />
    <glyph glyph-name="parenleft" unicode="(" horiz-adv-x="263" 
d="M222 -154l-24 -18c-30 44 -139 195 -139 459c0 234 106 380 139 426l23 -14c-28 -43 -108 -188 -108 -412c0 -252 80 -391 109 -441z" />
    <glyph glyph-name="parenright" unicode=")" horiz-adv-x="265" 
d="M53 -172l-24 18c29 50 109 189 109 441c0 224 -80 369 -108 412l23 14c33 -46 139 -192 139 -426c0 -264 -109 -415 -139 -459z" />
    <glyph glyph-name="asterisk" unicode="*" horiz-adv-x="374" 
d="M202 576l99 52c23 -21 24 -41 24 -68l-116 -13l82 -78c-14 -22 -31 -35 -56 -43l-49 105l-48 -104c-25 7 -41 18 -58 42l82 79l-111 14c1 30 7 50 23 70l99 -56l-22 112c12 4 25 6 38 6c12 0 25 -2 36 -6z" />
    <glyph glyph-name="plus" unicode="+" horiz-adv-x="540" 
d="M458 274h-162v-167h-49v167h-163v47h163v160h49v-160h162v-47z" />
    <glyph glyph-name="comma" unicode="," horiz-adv-x="186" 
d="M47 34c0 23 20 43 44 43c26 0 47 -20 47 -52c0 -46 -35 -101 -87 -127l-14 18c23 22 38 42 40 76c-18 6 -30 22 -30 42z" />
    <glyph glyph-name="hyphen" unicode="-" horiz-adv-x="354" 
d="M302 235h-251v53h251v-53z" />
    <glyph glyph-name="period" unicode="." horiz-adv-x="183" 
d="M130 34c0 -24 -20 -44 -42 -44c-24 0 -44 20 -44 44c0 23 19 42 43 42s43 -19 43 -42z" />
    <glyph glyph-name="slash" unicode="/" horiz-adv-x="315" 
d="M306 698l-254 -724h-34l255 724h33z" />
    <glyph glyph-name="zero" unicode="0" horiz-adv-x="540" 
d="M503 328c0 -154 -52 -335 -230 -335c-205 0 -237 172 -237 332c0 142 34 348 239 348c209 0 228 -216 228 -345zM445 325c0 103 -7 299 -170 299c-165 0 -181 -184 -181 -301c0 -155 28 -282 181 -282c140 0 170 153 170 284z" />
    <glyph glyph-name="one" unicode="1" horiz-adv-x="540" 
d="M248 596l-161 -26l-9 36l173 57h53v-617h136v-46h-338v46h146v550z" />
    <glyph glyph-name="two" unicode="2" horiz-adv-x="540" 
d="M458 0h-422v43c101 101 339 297 339 446c0 94 -63 133 -147 133c-31 0 -90 -4 -170 -54l-23 35c81 60 158 70 201 70c113 0 198 -54 198 -177c0 -170 -222 -348 -323 -449h296v99h51v-146z" />
    <glyph glyph-name="three" unicode="3" horiz-adv-x="540" 
d="M453 627l-229 -230h17c121 0 229 -58 229 -190c0 -146 -112 -216 -229 -216c-78 0 -140 12 -197 38l15 42c74 -21 125 -29 164 -29c116 0 189 51 189 165c0 91 -70 141 -186 141c-25 0 -44 -2 -68 -6l-18 38l229 232v1h-249v-102l-51 -1v153h373z" />
    <glyph glyph-name="four" unicode="4" horiz-adv-x="540" 
d="M508 190h-97v-144h75v-46h-199v46h70v144h-325v47l321 426h58v-426h97v-47zM358 589h-6l-48 -66l-215 -286h269v352z" />
    <glyph glyph-name="five" unicode="5" horiz-adv-x="540" 
d="M263 411c98 0 210 -55 210 -204c0 -146 -112 -216 -229 -216c-78 0 -140 12 -197 38l15 42c74 -21 125 -29 164 -29c116 0 189 51 189 165c0 105 -79 155 -169 155c-39 0 -81 -10 -118 -29l-40 31l18 299h339v-133h-48v83h-241l-13 -224c17 5 53 22 120 22z" />
    <glyph glyph-name="six" unicode="6" horiz-adv-x="540" 
d="M110 367l6 -3c36 22 94 49 171 49c105 0 201 -56 201 -206c0 -131 -88 -214 -217 -214c-176 0 -219 143 -219 312c0 218 85 369 251 369c71 0 124 -21 145 -33l-17 -42c-51 21 -96 26 -129 26c-155 0 -188 -185 -192 -258zM281 363c-112 0 -172 -55 -172 -55v-23
c0 -86 15 -244 164 -244c105 0 157 69 157 162c0 94 -38 160 -149 160z" />
    <glyph glyph-name="seven" unicode="7" horiz-adv-x="540" 
d="M465 616l-277 -616h-54l276 613h-284v-103h-51v153h390v-47z" />
    <glyph glyph-name="eight" unicode="8" horiz-adv-x="540" 
d="M133 512c0 -78 90 -108 178 -145c76 52 101 100 101 142c0 52 -38 119 -143 119c-103 0 -136 -76 -136 -116zM264 37c109 0 162 68 162 138c0 99 -89 129 -211 179c-85 -53 -116 -125 -116 -187c0 -65 46 -130 165 -130zM466 518c0 -52 -24 -114 -105 -172
c70 -35 120 -90 120 -172c0 -97 -79 -181 -220 -181c-149 0 -219 77 -219 167c0 76 37 161 130 215c-65 36 -97 75 -97 137c0 88 79 162 197 162c89 0 194 -44 194 -156z" />
    <glyph glyph-name="nine" unicode="9" horiz-adv-x="540" 
d="M419 301l-5 3c-36 -22 -94 -50 -172 -50c-105 0 -200 56 -200 206c0 131 87 214 216 214c176 0 219 -143 219 -312c0 -218 -85 -368 -251 -368c-71 0 -134 21 -155 33l17 42c51 -21 106 -26 139 -26c155 0 188 186 192 258zM248 304c112 0 172 55 172 55v23
c0 86 -15 241 -164 241c-105 0 -157 -66 -157 -159c0 -94 38 -160 149 -160z" />
    <glyph glyph-name="colon" unicode=":" horiz-adv-x="179" 
d="M135 37c0 -24 -16 -44 -42 -44s-44 20 -44 44c0 23 19 42 43 42s43 -19 43 -42zM135 358c0 -24 -20 -44 -42 -44c-24 0 -44 21 -44 44c0 24 19 42 43 42s43 -18 43 -42z" />
    <glyph glyph-name="semicolon" unicode=";" horiz-adv-x="179" 
d="M135 358c0 -24 -20 -44 -42 -44c-24 0 -44 21 -44 44c0 24 19 42 43 42s43 -18 43 -42zM47 34c0 23 20 43 44 43c26 0 47 -20 47 -52c0 -46 -35 -101 -87 -127l-14 18c23 22 38 42 40 76c-18 6 -30 22 -30 42z" />
    <glyph glyph-name="less" unicode="&#x3c;" horiz-adv-x="540" 
d="M462 82l-376 194v41l376 192v-54l-321 -158l321 -161v-54z" />
    <glyph glyph-name="equal" unicode="=" horiz-adv-x="540" 
d="M466 347h-393v47h393v-47zM466 210h-393v46h393v-46z" />
    <glyph glyph-name="greater" unicode="&#x3e;" horiz-adv-x="540" 
d="M462 276l-376 -194v54l321 161l-321 158v54l376 -192v-41z" />
    <glyph glyph-name="question" unicode="?" horiz-adv-x="415" 
d="M248 444c53 41 84 72 84 123c0 62 -49 86 -117 86c-37 0 -85 -6 -128 -20v-95h-47v134c57 20 122 30 170 30c120 0 180 -49 180 -131c0 -65 -45 -112 -94 -150c-92 -72 -128 -114 -128 -170c0 -25 5 -49 10 -83l-44 -10c-10 43 -14 76 -14 98c0 63 35 116 128 188z
M217 34c0 -25 -20 -44 -42 -44c-24 0 -44 20 -44 44c0 23 19 42 43 42s43 -19 43 -42z" />
    <glyph glyph-name="at" unicode="@" horiz-adv-x="857" 
d="M512 349l-102 -8c-46 -3 -82 -28 -82 -70c0 -45 22 -70 74 -70c35 0 72 15 110 49v99zM446 684c212 0 341 -130 341 -324c-2 -134 -86 -199 -164 -199c-41 0 -84 13 -101 55c-29 -28 -80 -55 -137 -55c-85 0 -105 65 -105 107c0 68 54 104 111 108l121 10v28
c0 68 -21 90 -82 90c-35 0 -74 -7 -116 -22l-12 34c41 20 92 31 138 31c72 0 115 -33 115 -122v-158c0 -44 24 -69 73 -69c54 0 120 49 120 161c0 183 -120 290 -302 290c-183 0 -338 -136 -338 -315c0 -181 135 -316 310 -316c38 0 75 4 119 19l9 -32
c-31 -13 -78 -23 -125 -23c-204 0 -351 148 -351 351s172 351 376 351z" />
    <glyph glyph-name="A" unicode="A" horiz-adv-x="636" 
d="M617 0h-187v46h71l-44 143h-277l-44 -143h74v-46h-190v46h58c64 204 140 434 205 638h72l207 -638h55v-46zM441 239l-99 316l-22 74h-2c-1 -4 -4 -16 -23 -75c-17 -53 -47 -147 -98 -315h244z" />
    <glyph glyph-name="B" unicode="B" horiz-adv-x="587" 
d="M108 637h-64v46h285c131 0 197 -72 197 -172c0 -49 -16 -118 -98 -154c87 -23 119 -109 119 -172c0 -112 -89 -185 -184 -185h-323v47h68v590zM491 190c0 73 -50 141 -150 141h-176v-284h176c110 0 150 68 150 143zM470 506c0 74 -44 131 -148 131h-157v-259h157
c96 0 148 53 148 128z" />
    <glyph glyph-name="C" unicode="C" horiz-adv-x="545" 
d="M503 66l12 -43c-43 -17 -124 -30 -184 -30c-202 0 -281 134 -281 344c0 140 57 356 285 356c75 0 132 -13 169 -27v-144h-48v107c-30 9 -76 16 -119 16c-158 0 -229 -124 -229 -310c0 -156 38 -293 230 -293c38 0 109 6 165 24z" />
    <glyph glyph-name="D" unicode="D" horiz-adv-x="633" 
d="M583 343c0 -188 -62 -343 -279 -343h-264v46h68v591h-64v46h270c213 0 269 -158 269 -340zM526 335c0 297 -156 302 -222 302h-137v-590h129c57 0 230 -4 230 288z" />
    <glyph glyph-name="E" unicode="E" horiz-adv-x="540" 
d="M40 0v46h66v591h-62v45h449v-134h-48v89h-282v-255l279 6v-54l-279 4v-292h297v89h50v-135h-470z" />
    <glyph glyph-name="F" unicode="F" horiz-adv-x="513" 
d="M260 46v-46h-220v46h66v591h-62v45h449v-134h-48v89h-282v-255l279 6v-54l-279 4v-292h97z" />
    <glyph glyph-name="G" unicode="G" horiz-adv-x="606" 
d="M350 693c75 0 132 -13 169 -27v-144h-48v107c-30 9 -76 16 -119 16c-169 0 -244 -124 -244 -310c0 -156 42 -292 228 -292c38 0 100 5 133 17v243h-103v45h210v-45h-52v-281c-63 -20 -131 -29 -195 -29c-199 0 -279 134 -279 344c0 140 56 356 300 356z" />
    <glyph glyph-name="H" unicode="H" horiz-adv-x="664" 
d="M624 0h-182v47h62v289h-345v-289h63v-47h-182v47h62v590h-62v46h182v-46h-63v-252h345v252h-62v46h182v-46h-63v-590h63v-47z" />
    <glyph glyph-name="I" unicode="I" horiz-adv-x="321" 
d="M251 0h-181v46h61v591h-61v46h181v-46h-63v-591h63v-46z" />
    <glyph glyph-name="J" unicode="J" horiz-adv-x="321" 
d="M138 637h-82v46h215v-46h-75l-1 -515c0 -163 -72 -240 -205 -296l-16 38c114 64 163 123 163 242z" />
    <glyph glyph-name="K" unicode="K" horiz-adv-x="608" 
d="M517 636l-228 -223l245 -365h59v-48h-194l-1 48h69l-219 326l-89 -87v-240h65v-47h-184v47h62v590h-62v46h182v-46h-63v-286l290 285h-69v47h191v-47h-54z" />
    <glyph glyph-name="L" unicode="L" horiz-adv-x="520" 
d="M236 682v-45h-73v-591h297v119h50v-165h-470v46h66v591h-62v45h192z" />
    <glyph glyph-name="M" unicode="M" horiz-adv-x="825" 
d="M410 130h6l57 130l186 423h126v-46h-62v-591h62v-46h-182v46h64v534h-2l-49 -114l-177 -399h-55l-182 407l-46 106h-2l2 -534h65v-46h-181v46h61v591h-61v46h126l188 -425z" />
    <glyph glyph-name="N" unicode="N" horiz-adv-x="699" 
d="M534 104h5v533h-70v46h190v-46h-65v-637h-53l-304 475l-73 117l-3 -1l1 -544h70v-47h-192v47h67v590h-67v46h128l282 -445z" />
    <glyph glyph-name="O" unicode="O" horiz-adv-x="648" 
d="M598 338c0 -196 -90 -345 -268 -345c-206 0 -280 131 -280 342c0 187 68 358 280 358c215 0 268 -173 268 -355zM540 335c0 138 -31 311 -210 311s-222 -156 -222 -313c0 -193 66 -293 222 -293c143 0 210 134 210 295z" />
    <glyph glyph-name="P" unicode="P" horiz-adv-x="542" 
d="M244 0h-204v46h63v591h-63v46h270c110 0 202 -61 202 -193c0 -76 -38 -202 -194 -202h-158v-242h84v-46zM160 334h155c68 0 140 35 140 153c0 101 -63 150 -143 150h-152v-303z" />
    <glyph glyph-name="Q" unicode="Q" horiz-adv-x="647" 
d="M598 338c0 -151 -54 -274 -160 -323l158 -38l-24 -58l-231 74h-11c-206 0 -280 131 -280 342c0 187 68 358 280 358c215 0 268 -173 268 -355zM540 335c0 138 -31 311 -210 311s-222 -156 -222 -313c0 -193 66 -293 222 -293c143 0 210 134 210 295z" />
    <glyph glyph-name="R" unicode="R" horiz-adv-x="585" 
d="M244 0h-204v46h63v591h-63v46h270c110 0 202 -51 202 -183c0 -65 -28 -158 -133 -185l127 -268l70 -9v-33c-20 -7 -50 -12 -69 -12c-34 0 -43 17 -55 44l-127 271h-165v-262h84v-46zM160 354h155c68 0 140 25 140 143c0 101 -63 140 -143 140h-152v-283z" />
    <glyph glyph-name="S" unicode="S" horiz-adv-x="513" 
d="M35 168h48v-88c54 -28 103 -37 156 -37c115 0 183 33 183 143c0 93 -71 116 -162 140c-112 30 -214 60 -214 180c0 122 98 187 212 187c51 0 120 -7 174 -40v-124h-49v94c-37 17 -86 22 -129 22c-88 0 -151 -46 -151 -140c0 -83 82 -106 159 -126
c101 -26 216 -49 216 -194c0 -139 -108 -192 -235 -192c-71 0 -146 14 -208 52v123z" />
    <glyph glyph-name="T" unicode="T" horiz-adv-x="518" 
d="M502 683l1 -145h-49v99h-166v-591h74v-46h-202v46h72v591h-169v-99h-48v145h487z" />
    <glyph glyph-name="U" unicode="U" horiz-adv-x="682" 
d="M533 637h-72v46h191v-46h-63v-394c0 -149 -82 -250 -250 -250c-173 0 -248 94 -248 250v394h-61v46h191v-46h-73v-393c0 -134 70 -203 191 -203c126 0 194 69 194 203v393z" />
    <glyph glyph-name="V" unicode="V" horiz-adv-x="603" 
d="M304 66h4l38 132l134 439h-62v46h180v-46h-61l-201 -637h-64l-201 637h-61v46h182v-46h-64l138 -442z" />
    <glyph glyph-name="W" unicode="W" horiz-adv-x="881" 
d="M761 637h-71v46h186v-46h-62c-48 -202 -106 -434 -155 -637h-62l-122 413l-28 100h-2l-30 -105l-120 -408h-65l-159 637h-61v46h191v-46h-73l112 -466l23 -99h2l28 102l124 429l-10 34h-71v46h201v-46h-74l141 -476l25 -89h2l23 101z" />
    <glyph glyph-name="X" unicode="X" horiz-adv-x="604" 
d="M269 356l-174 281h-60v46h191v-46h-70l147 -242l149 242h-73v46h194v-46h-60l-180 -286l188 -304h63v-47h-200v47h77l-163 265l-158 -265h81v-47h-201v47h60z" />
    <glyph glyph-name="Y" unicode="Y" horiz-adv-x="550" 
d="M273 360h4l155 277h-67v46h175v-46h-52l-185 -327v-264h82v-46h-222v46h82v261l-181 330h-54v46h179v-46h-65z" />
    <glyph glyph-name="Z" unicode="Z" horiz-adv-x="496" 
d="M476 0h-456v46l373 591h-301v-99h-48v145h415v-46l-373 -590h340v108h50v-155z" />
    <glyph glyph-name="bracketleft" unicode="[" horiz-adv-x="235" 
d="M200 -160h-150v856h150v-42h-98v-769h98v-45z" />
    <glyph glyph-name="backslash" unicode="\" horiz-adv-x="315" 
d="M272 -26l-254 724h33l255 -724h-34z" />
    <glyph glyph-name="bracketright" unicode="]" horiz-adv-x="235" 
d="M180 -160h-150v45h98v769h-98v42h150v-856z" />
    <glyph glyph-name="asciicircum" unicode="^" horiz-adv-x="423" 
d="M397 393h-47l-140 244l-141 -244h-47l170 290h39z" />
    <glyph glyph-name="underscore" unicode="_" horiz-adv-x="500" 
d="M500 -126h-500v36h500v-36z" />
    <glyph glyph-name="grave" unicode="`" horiz-adv-x="478" 
d="M283 557l-29 -21l-131 139l49 40z" />
    <glyph glyph-name="a" unicode="a" horiz-adv-x="478" 
d="M341 239l-137 -7c-73 -4 -110 -40 -110 -96c0 -62 30 -96 100 -96c47 0 96 20 147 66v133zM394 336v-290h70l4 -33c-22 -11 -54 -17 -73 -17c-34 0 -53 10 -54 59l-2 1c-78 -64 -136 -63 -167 -63c-109 0 -137 84 -137 139c0 91 74 138 176 143l130 7v40
c0 93 -26 122 -110 122c-48 0 -99 -10 -150 -28l-15 40c54 25 119 39 177 39c96 0 151 -42 151 -159z" />
    <glyph glyph-name="b" unicode="b" horiz-adv-x="509" 
d="M280 498c140 0 179 -110 179 -257c0 -137 -49 -247 -197 -247c-72 0 -133 17 -185 40v631h-84v44h138v-257c59 33 105 46 149 46zM277 450c-52 0 -107 -22 -146 -44v-340c44 -19 89 -24 127 -24c91 0 144 52 144 197c0 164 -49 211 -125 211z" />
    <glyph glyph-name="c" unicode="c" horiz-adv-x="433" 
d="M249 498c53 0 105 -11 142 -28v-118h-44v86c-35 11 -62 14 -95 14c-110 0 -156 -92 -156 -215c0 -108 32 -198 146 -198c53 0 95 12 148 34l16 -36c-39 -23 -100 -42 -163 -42c-151 0 -203 101 -203 242c0 99 36 261 209 261z" />
    <glyph glyph-name="d" unicode="d" horiz-adv-x="512" 
d="M368 45l-2 3c-37 -29 -92 -54 -148 -54c-134 0 -178 112 -178 241c0 148 52 263 192 263c39 0 98 -11 136 -38v205h-86v44h141v-666h79v-43h-134v45zM368 97v314c-21 17 -84 39 -133 39c-77 0 -138 -54 -138 -217c0 -143 51 -191 132 -191c44 0 115 30 139 55z" />
    <glyph glyph-name="e" unicode="e" horiz-adv-x="462" 
d="M242 497c189 0 184 -183 184 -230v-38h-330c-1 -97 28 -189 146 -189c59 0 98 11 155 36l16 -37c-55 -30 -106 -44 -170 -44c-164 0 -203 110 -203 247c0 77 21 255 202 255zM242 450c-104 0 -138 -84 -145 -175h275c0 104 -31 175 -130 175z" />
    <glyph glyph-name="f" unicode="f" horiz-adv-x="320" 
d="M317 665c-23 3 -49 6 -69 6c-67 0 -102 -24 -102 -93v-90h144v-46h-144v-398h87v-44h-213v44h73v398h-67v30l68 17v87c0 98 61 142 144 142c26 0 58 -3 87 -10z" />
    <glyph glyph-name="g" unicode="g" horiz-adv-x="482" 
d="M387 443l-2 -5c25 -25 37 -64 37 -109c0 -104 -79 -165 -195 -165h-53c-17 0 -32 0 -45 -2c-26 -5 -41 -15 -41 -36c0 -24 23 -37 56 -37h120c117 0 181 -56 181 -150c0 -99 -97 -154 -218 -154c-153 0 -199 68 -199 145c0 58 38 103 65 117c-40 7 -61 31 -62 70
c-2 66 54 80 83 83c-32 16 -68 52 -68 126c0 128 102 176 188 173c28 -1 55 -4 81 -12h150v-44h-78zM233 450c-84 0 -129 -42 -129 -121c0 -72 47 -119 117 -119c84 0 144 38 144 119c0 53 -28 121 -132 121zM260 39h-112c-29 -9 -66 -57 -66 -100c0 -57 35 -108 154 -108
c87 0 155 43 155 108c0 45 -29 100 -131 100z" />
    <glyph glyph-name="h" unicode="h" horiz-adv-x="556" 
d="M150 0h-54v665h-76v44h130v-266c57 35 126 55 174 55c135 0 136 -88 136 -152v-300h74v-33c-22 -11 -54 -17 -73 -17c-34 0 -53 10 -54 59v276c0 72 -6 119 -91 119c-52 0 -120 -27 -166 -52v-398z" />
    <glyph glyph-name="i" unicode="i" horiz-adv-x="267" 
d="M95 607c0 22 18 40 39 40c22 0 40 -18 40 -40c0 -21 -18 -39 -40 -39c-21 0 -39 18 -39 39zM111 443h-58v44h111v-441h74v-33c-22 -11 -54 -17 -73 -17c-34 0 -53 10 -54 59v388z" />
    <glyph glyph-name="k" unicode="k" horiz-adv-x="492" 
d="M222 270l-74 -68v-158h73v-44h-198v44h72v621h-83v44h136v-448l194 182h-66v44h180v-44h-51l-147 -139l163 -259l67 -9v-30c-19 -9 -42 -13 -60 -13c-33 0 -41 11 -57 35z" />
    <glyph glyph-name="l" unicode="l" horiz-adv-x="274" 
d="M171 709v-665h73v-44h-198v44h72v621h-83v44h136z" />
    <glyph glyph-name="m" unicode="m" horiz-adv-x="850" 
d="M318 496c48 0 90 -17 115 -56c47 30 119 57 177 57c141 0 144 -96 144 -159v-292h74v-33c-22 -11 -54 -17 -73 -17c-34 0 -53 10 -54 59v273c0 76 -15 121 -100 121c-48 0 -115 -21 -156 -47c6 -22 7 -50 7 -66v-336h-54v347c0 77 -41 102 -93 102
c-51 0 -112 -26 -156 -52v-397h-53v442h-76v45h129v-41l4 -3c55 33 114 53 165 53z" />
    <glyph glyph-name="n" unicode="n" horiz-adv-x="556" 
d="M324 498c135 0 136 -88 136 -152v-300h74v-33c-22 -11 -54 -17 -73 -17c-34 0 -53 10 -54 59v276c0 72 -6 119 -91 119c-52 0 -120 -27 -166 -52v-398h-54v443h-76v44h130v-40l3 -2c56 34 124 53 171 53z" />
    <glyph glyph-name="o" unicode="o" horiz-adv-x="481" 
d="M385 240c0 91 -21 210 -140 210s-148 -111 -148 -211c0 -103 21 -199 148 -199c117 0 140 108 140 200zM245 497c156 0 196 -131 196 -255c0 -120 -42 -249 -207 -249c-152 0 -194 119 -194 247c0 126 53 257 205 257z" />
    <glyph glyph-name="p" unicode="p" horiz-adv-x="507" 
d="M5 -208v44h79v607h-82v44h137v-50c37 30 93 56 150 56c134 0 178 -112 178 -241c0 -148 -52 -263 -192 -263c-39 0 -98 11 -136 38v-191h86v-44h-220zM139 390v-314c21 -17 84 -39 133 -39c77 0 138 54 138 217c0 143 -51 191 -132 191c-44 0 -115 -30 -139 -55z" />
    <glyph glyph-name="q" unicode="q" horiz-adv-x="510" 
d="M287 -208v45h92v198c-59 -33 -105 -46 -149 -46c-140 0 -182 107 -179 254c3 137 54 250 200 250c72 0 130 -17 182 -40v-616h82v-45h-228zM233 37c52 0 107 22 146 44v340c-44 19 -86 24 -124 24c-89 0 -144 -59 -147 -204c-3 -156 49 -204 125 -204z" />
    <glyph glyph-name="r" unicode="r" horiz-adv-x="349" 
d="M157 421h1c38 32 113 78 172 78c11 0 21 -4 21 -22c0 -17 -9 -46 -21 -61l-171 -19v-353h81v-44h-211v44h75v399h-74v44h127v-66z" />
    <glyph glyph-name="s" unicode="s" horiz-adv-x="408" 
d="M30 140h43l3 -77c32 -16 78 -24 113 -24c72 0 130 18 130 91c0 58 -56 79 -116 96c-79 22 -163 44 -163 140c0 97 80 131 165 131c45 0 95 -10 134 -35l3 -110h-44l-3 82c-25 11 -60 17 -91 17c-61 0 -110 -20 -110 -87c0 -58 73 -74 113 -85c81 -22 164 -43 164 -150
c0 -96 -85 -135 -179 -135c-58 0 -119 11 -159 39z" />
    <glyph glyph-name="t" unicode="t" horiz-adv-x="344" 
d="M145 443v-319c0 -44 12 -81 67 -81c26 0 57 6 96 18l11 -38c-33 -16 -75 -27 -114 -27c-65 0 -113 27 -113 108v339h-72v28l73 22l21 104l32 8v-118h149v-44h-150z" />
    <glyph glyph-name="u" unicode="u" horiz-adv-x="547" 
d="M232 -11c-135 0 -136 88 -136 152v302h-76v44h129v-331c0 -72 6 -119 91 -119c41 0 107 23 158 69v337h-72v44l125 1v-1h1l-1 -441h70l4 -33c-22 -11 -54 -17 -73 -17c-34 0 -53 10 -54 59l-2 1c-65 -59 -133 -67 -164 -67z" />
    <glyph glyph-name="v" unicode="v" horiz-adv-x="480" 
d="M7 442v45h101l88 -286l46 -146h4l41 136l78 251h-49v45h154v-45h-51l-146 -442h-63l-144 442h-59z" />
    <glyph glyph-name="w" unicode="w" horiz-adv-x="738" 
d="M368 333h-6l-42 -126l-71 -207h-61l-130 442h-55v45h95l80 -280l42 -149h4l47 145l68 198l-13 41h-76v45h187v-45h-54l91 -255l44 -129h4l34 132l68 252h-68v45h172v-45h-51l-124 -442h-62l-79 212z" />
    <glyph glyph-name="x" unicode="x" horiz-adv-x="464" 
d="M124 487l114 -197l88 153h-42v44h162v-44h-64l-117 -197l125 -202h65v-44h-165v44h41l-102 170l-99 -170h54v-44h-174v44h63l127 212l-108 187h-76v44h108z" />
    <glyph glyph-name="y" unicode="y" horiz-adv-x="503" 
d="M250 43l36 109l95 290h-66v45h169v-45h-51l-184 -557c-23 -71 -54 -99 -112 -99c-11 0 -41 -2 -104 16l10 41c32 -6 60 -12 83 -12c35 0 60 15 78 70l32 99h-27l-143 442h-50v45h92l104 -333l33 -111h5z" />
    <glyph glyph-name="z" unicode="z" horiz-adv-x="416" 
d="M345 46v82h46v-128h-371v39l299 403h-238v-84h-45v129h345v-43l-296 -398h260z" />
    <glyph glyph-name="braceleft" unicode="{" horiz-adv-x="237" 
d="M212 -171h-44c-47 0 -76 54 -76 96v247c0 50 -2 100 -63 111v32c61 12 63 62 63 112v180c0 42 28 95 76 95h44v-43h-21c-32 0 -47 -27 -47 -66v-170c0 -50 -8 -108 -55 -123c50 -30 55 -65 55 -124v-238c0 -37 7 -65 43 -65h25v-44z" />
    <glyph glyph-name="bar" unicode="|" horiz-adv-x="211" 
d="M121 -136h-40v833h40v-833z" />
    <glyph glyph-name="braceright" unicode="}" horiz-adv-x="237" 
d="M69 -171h-44v44h25c36 0 43 28 43 65v238c0 59 5 94 55 124c-47 15 -55 73 -55 123v170c0 39 -15 66 -47 66h-21v43h44c48 0 76 -53 76 -95v-180c0 -50 2 -100 63 -112v-32c-61 -11 -63 -61 -63 -111v-247c0 -42 -29 -96 -76 -96z" />
    <glyph glyph-name="asciitilde" unicode="~" horiz-adv-x="540" 
d="M185 353c58 0 150 -48 198 -48l69 48l26 -22c-19 -42 -58 -76 -107 -76c-76 0 -138 47 -192 47l-74 -47l-27 23c20 42 59 75 107 75z" />
    <glyph glyph-name="endash" unicode="&#x2013;" horiz-adv-x="500" 
d="M476 232h-449v47h449v-47z" />
    <glyph glyph-name="emdash" unicode="&#x2014;" horiz-adv-x="1000" 
d="M968 232h-941v47h941v-47z" />
    <glyph glyph-name="quoteleft" unicode="&#x2018;" horiz-adv-x="196" 
d="M146 557c0 -23 -20 -44 -44 -44c-27 0 -49 21 -49 54c0 48 36 111 90 138l14 -18c-24 -23 -39 -51 -41 -86c18 -7 30 -23 30 -44z" />
    <glyph glyph-name="quoteright" unicode="&#x2019;" horiz-adv-x="196" 
d="M64 661c0 23 20 44 44 44c27 0 49 -21 49 -54c0 -48 -36 -111 -90 -138l-14 18c24 23 39 51 41 86c-18 7 -30 23 -30 44z" />
    <glyph glyph-name="quotedblleft" unicode="&#x201c;" horiz-adv-x="306" 
d="M146 557c0 -23 -20 -44 -44 -44c-27 0 -49 21 -49 54c0 48 36 111 90 138l14 -18c-24 -23 -39 -51 -41 -86c18 -7 30 -23 30 -44zM261 557c0 -23 -20 -44 -44 -44c-27 0 -49 21 -49 54c0 48 36 111 90 138l14 -18c-24 -23 -39 -51 -41 -86c18 -7 30 -23 30 -44z" />
    <glyph glyph-name="quotedblright" unicode="&#x201d;" horiz-adv-x="306" 
d="M180 661c0 23 20 44 44 44c27 0 49 -21 49 -54c0 -48 -36 -111 -90 -138l-14 18c24 23 39 51 41 86c-18 7 -30 23 -30 44zM65 661c0 23 20 44 44 44c27 0 49 -21 49 -54c0 -48 -36 -111 -90 -138l-14 18c24 23 39 51 41 86c-18 7 -30 23 -30 44z" />
    <glyph glyph-name="bullet" unicode="&#x2022;" horiz-adv-x="288" 
d="M241 276c0 -53 -45 -98 -98 -98c-52 0 -97 45 -97 98c0 54 45 99 97 99c53 0 98 -45 98 -99z" />
    <glyph glyph-name="quotesinglbase" unicode="&#x201a;" horiz-adv-x="186" 
d="M47 34c0 23 20 43 44 43c26 0 47 -20 47 -52c0 -46 -35 -101 -87 -127l-14 18c23 22 38 42 40 76c-18 6 -30 22 -30 42z" />
    <glyph glyph-name="quotedblbase" unicode="&#x201e;" horiz-adv-x="293" 
d="M47 34c0 23 20 43 44 43c26 0 47 -20 47 -52c0 -46 -35 -101 -87 -127l-14 18c23 22 38 42 40 76c-18 6 -30 22 -30 42zM161 34c0 23 20 43 44 43c26 0 47 -20 47 -52c0 -46 -35 -101 -87 -127l-14 18c23 22 38 42 40 76c-18 6 -30 22 -30 42z" />
    <glyph glyph-name="alpha" unicode="&#x3b1;" horiz-adv-x="514" 
d="M367 106l1 278c-25 25 -84 62 -128 62c-112 0 -143 -109 -143 -204c0 -164 53 -203 123 -203c41 0 96 21 147 67zM420 487v-441h70l4 -33c-22 -11 -54 -17 -73 -17c-34 0 -53 10 -54 59l-2 1c-78 -64 -136 -64 -167 -64c-109 0 -158 95 -158 248c0 119 51 254 193 254
c57 0 106 -28 137 -57l19 50h31z" />
    <glyph glyph-name="beta" unicode="&#x3b2;" horiz-adv-x="472" 
d="M229 375h-59v47h58c63 0 116 47 116 132c0 63 -47 112 -120 112c-72 0 -120 -43 -120 -130v-459c47 -33 110 -40 134 -40c90 0 138 69 138 178c0 102 -47 160 -147 160zM50 -207v739c0 127 83 180 169 180c113 0 182 -58 182 -163c0 -66 -43 -125 -87 -146
c91 -30 118 -98 118 -191c0 -149 -82 -223 -194 -223c-52 0 -109 18 -134 40v-236h-54z" />
    <glyph glyph-name="gamma" unicode="&#x3b3;" horiz-adv-x="460" 
d="M238 103h4l109 337h-54v47h165v-47h-58l-138 -412v-235h-53v235l-151 412h-57v47h98z" />
    <glyph glyph-name="delta" unicode="&#x3b4;" horiz-adv-x="481" 
d="M248 655c-61 0 -116 -24 -116 -79c0 -62 79 -85 119 -97c129 -38 190 -97 190 -251c0 -102 -42 -235 -207 -235c-152 0 -194 120 -194 233c0 95 34 192 127 227c-47 21 -89 54 -89 117c0 97 86 131 171 131c45 0 100 -10 139 -35l3 -110h-44l-3 82c-25 11 -65 17 -96 17z
M385 226c0 82 -5 176 -150 202c-112 -19 -138 -110 -138 -203c0 -89 21 -185 148 -185c117 0 140 112 140 186z" />
    <glyph glyph-name="epsilon" unicode="&#x3b5;" horiz-adv-x="414" 
d="M125 262l2 3c-42 11 -87 41 -87 95c0 92 82 138 173 138c53 0 116 -9 153 -25l2 -119h-44l-1 86c-36 10 -71 12 -106 12c-88 0 -120 -41 -120 -87c0 -72 71 -78 123 -76h61v-46l-62 -1c-50 -1 -132 -18 -132 -100c0 -73 62 -103 139 -103c55 0 97 14 151 37l17 -36
c-39 -22 -105 -45 -168 -45c-94 0 -196 30 -196 141c0 67 44 111 95 126z" />
    <glyph glyph-name="zeta" unicode="&#x3b6;" horiz-adv-x="361" 
d="M335 658l-1 3h-229v-70h-45v115h348v-43c-185 -152 -316 -340 -316 -457c0 -85 42 -106 215 -164c58 -19 78 -45 78 -74c0 -33 -35 -81 -80 -135l-33 25c16 20 26 34 35 47c24 36 24 49 23 56c-1 16 -25 29 -53 39c-158 54 -239 74 -239 206c0 90 89 281 297 452z" />
    <glyph glyph-name="eta" unicode="&#x3b7;" horiz-adv-x="556" 
d="M150 0h-54v443h-76v44h130v-44c57 35 126 55 174 55c135 0 136 -88 136 -152v-300h74v-33c-22 -11 -54 -17 -73 -17c-34 0 -53 10 -54 59v276c0 72 -6 119 -91 119c-52 0 -120 -27 -166 -52v-398z" />
    <glyph glyph-name="theta" unicode="&#x3b8;" horiz-adv-x="484" 
d="M240 -5c-182 0 -203 158 -203 353c0 172 25 364 209 364c182 0 201 -195 201 -362c0 -178 -35 -355 -207 -355zM246 664c-129 0 -148 -137 -152 -267h296c-3 121 -22 267 -144 267zM391 350h-298c0 -201 17 -308 151 -308c123 0 151 145 147 308z" />
    <glyph glyph-name="upsilon" unicode="&#x3c5;" horiz-adv-x="516" 
d="M391 487h55v-304c0 -102 -64 -188 -185 -188s-179 74 -179 178v269h-67v45h121v-312c0 -77 31 -132 124 -132s131 65 131 142v302z" />
    <glyph glyph-name="omega" unicode="&#x3c9;" horiz-adv-x="702" 
d="M480 -6c-65 0 -111 32 -125 78h-3c-22 -47 -69 -78 -130 -78c-150 0 -182 117 -182 246c0 105 38 222 146 254l15 -38c-85 -41 -107 -130 -107 -217c0 -91 18 -196 130 -196c74 0 104 55 104 108v186h54l1 -186c2 -53 29 -108 95 -108c92 0 130 77 130 196
c0 87 -22 176 -107 217l15 38c108 -32 146 -146 146 -254c0 -129 -52 -246 -182 -246z" />
    <glyph glyph-name="rho" unicode="&#x3c1;" horiz-adv-x="487" 
d="M237 -11c-39 0 -91 8 -132 39v-235h-55v487c0 122 64 217 201 217c134 0 196 -100 196 -247c0 -155 -70 -261 -210 -261zM244 449c-100 0 -139 -89 -139 -172v-200c21 -17 80 -40 129 -40c88 0 156 39 156 215c0 154 -65 197 -146 197z" />
    <glyph glyph-name="xi" unicode="&#x3be;" horiz-adv-x="418" 
d="M254 714c36 0 110 -7 153 -30l-14 -41c-55 20 -103 25 -141 25c-103 0 -141 -53 -141 -127c0 -81 67 -124 162 -124h87v-46h-95c-125 0 -176 -82 -176 -171c0 -77 37 -112 166 -157l77 -27c47 -17 76 -39 76 -74c0 -39 -38 -87 -76 -128l-32 25l24 31c22 31 31 45 31 58
c0 17 -16 31 -61 48c-115 42 -260 72 -260 225c0 59 25 157 131 195c-91 29 -110 94 -110 143c0 115 78 175 199 175z" />
    <glyph glyph-name="nu" unicode="&#x3bd;" horiz-adv-x="480" 
d="M7 442v45h101l88 -286l46 -146h4l41 136l78 251h-49v45h154v-45h-51l-146 -442h-63l-144 442h-59z" />
    <glyph glyph-name="omicron" unicode="&#x3bf;" horiz-adv-x="481" 
d="M385 240c0 91 -21 210 -140 210s-148 -111 -148 -211c0 -103 21 -199 148 -199c117 0 140 108 140 200zM245 497c156 0 196 -131 196 -255c0 -120 -42 -249 -207 -249c-152 0 -194 119 -194 247c0 126 53 257 205 257z" />
    <glyph glyph-name="Euro" unicode="&#x20ac;" horiz-adv-x="540" 
d="M34 310h412v-37h-312c9 -129 54 -233 215 -233c28 0 77 4 123 14v72h44v-104c-40 -16 -117 -29 -174 -29c-173 0 -256 110 -262 280h-46v37zM446 359h-412v37h49c11 123 84 274 263 274c70 0 124 -13 158 -26v-119h-45v83c-28 9 -71 16 -111 16
c-128 0 -195 -89 -211 -228h309v-37z" />
    <glyph glyph-name="Phi" unicode="&#x3a6;" horiz-adv-x="764" 
d="M724 346c0 -142 -118 -247 -308 -256v-43h72v-47h-200v47h71v43c-224 9 -319 100 -319 253c0 123 94 247 319 258v36h-71v46h200v-46h-72v-36c232 -8 308 -133 308 -255zM94 341c0 -134 93 -199 265 -207v422c-197 -10 -265 -110 -265 -215zM670 343
c0 100 -60 205 -254 213v-422c161 9 254 92 254 209z" />
    <glyph glyph-name="Omega" unicode="&#x3a9;" horiz-adv-x="666" 
d="M338 693c213 0 270 -166 270 -339c0 -126 -26 -247 -106 -306l2 -1h122v-47h-226v51c120 29 149 161 149 301c0 136 -33 293 -211 293c-166 0 -220 -133 -220 -291c0 -154 29 -277 144 -302v-52h-222v47h112l1 1c-83 57 -93 182 -93 306c0 178 72 339 278 339z" />
    <glyph glyph-name="Psi" unicode="&#x3a8;" horiz-adv-x="773" 
d="M743 637h-65v-222c-1 -136 -94 -227 -261 -233v-136h71v-46h-198v46h70v135c-168 10 -260 89 -260 248v208h-70v46h127v-257c0 -127 73 -189 203 -197v408h-60v46h178v-46h-61v-408c141 9 203 74 204 201l1 253h121v-46z" />
    <glyph glyph-name="sterling" unicode="&#xa3;" horiz-adv-x="540" 
d="M487 0h-424v46c64 22 78 111 81 178l5 91h-70v45h72l5 114c5 105 53 194 182 194c56 0 118 -12 155 -31v-121h-48v87c-29 9 -69 18 -105 18c-105 0 -128 -65 -133 -151l-5 -110h199v-45h-200l-5 -91c-3 -67 -15 -147 -52 -177h343v-47z" />
    <glyph glyph-name="pi" unicode="&#x3c0;" horiz-adv-x="561" 
d="M460 46h74v-33c-22 -11 -54 -17 -73 -17c-34 0 -53 10 -54 59v387h-257v-442h-54v442h-70v45h506v-45h-72v-396z" />
    <glyph glyph-name="lambda" unicode="&#x3bb;" horiz-adv-x="459" 
d="M217 468l-58 188l-93 10l-1 29c22 11 60 23 90 23c34 0 43 -12 53 -46l196 -633h39l4 -32c-12 -7 -36 -11 -51 -11c-23 0 -36 8 -43 31l-126 407h-4l-158 -434h-54l171 468h35z" />
    <glyph glyph-name="kappa" unicode="&#x3ba;" horiz-adv-x="492" 
d="M222 270l-74 -68v-158h73v-44h-198v44h72v399h-83v44h136v-226l194 182h-66v44h180v-44h-51l-147 -139l163 -259l67 -9v-30c-19 -9 -42 -13 -60 -13c-33 0 -41 11 -57 35z" />
    <glyph glyph-name="mu" unicode="&#xb5;" horiz-adv-x="525" 
d="M231 -10c-46 0 -78 11 -101 27v-181h66v-44h-183v44h63v606h-74v46h127v-331c0 -72 25 -119 110 -119c41 0 96 22 147 68v337h-72v44l125 1v-1h1l-1 -441h70l4 -33c-22 -11 -54 -17 -73 -17c-34 0 -53 10 -54 59l-2 1c-65 -59 -122 -66 -153 -66z" />
    <glyph glyph-name="mu" unicode="&#x3bc;" horiz-adv-x="525" 
d="M231 -10c-46 0 -78 11 -101 27v-181h66v-44h-183v44h63v606h-74v46h127v-331c0 -72 25 -119 110 -119c41 0 96 22 147 68v337h-72v44l125 1v-1h1l-1 -441h70l4 -33c-22 -11 -54 -17 -73 -17c-34 0 -53 10 -54 59l-2 1c-65 -59 -122 -66 -153 -66z" />
    <glyph glyph-name="phi" unicode="&#x3c6;" horiz-adv-x="621" 
d="M285 494h68c156 0 228 -105 228 -247c0 -138 -61 -246 -246 -254v-200h-50v200c-199 6 -245 115 -245 248c0 116 49 212 158 250l16 -42c-85 -32 -120 -113 -120 -208c0 -115 35 -198 191 -203v456zM336 447v-409c146 3 192 94 192 209c0 114 -39 200 -192 200z" />
    <glyph glyph-name="chi" unicode="&#x3c7;" horiz-adv-x="464" 
d="M124 487l114 -197l88 153h-42v44h162v-44h-64l-117 -197l125 -202h65v-44h-165v44h41l-102 170l-99 -170h54v-44h-174v44h63l127 212l-108 187h-76v44h108z" />
    <glyph glyph-name="psi" unicode="&#x3c8;" horiz-adv-x="677" 
d="M364 -6v-158h85v-43h-217v43h80v158c-144 0 -230 82 -230 186v261h-67v45h121v-304c0 -77 56 -139 176 -142v495h-64v48h116v-543c114 2 177 65 177 142v304h121v-45h-67v-261c0 -104 -91 -186 -231 -186z" />
    <glyph glyph-name="sigma" unicode="&#x3c3;" horiz-adv-x="485" 
d="M378 442l-3 -4c51 -43 66 -124 66 -200c0 -136 -69 -243 -199 -243c-149 0 -202 94 -202 241c0 130 52 251 204 251h224v-45h-90zM244 441c-118 0 -148 -101 -148 -207c0 -127 43 -193 148 -193c96 0 141 87 141 195c0 94 -18 205 -141 205z" />
    <glyph glyph-name="tau" unicode="&#x3c4;" horiz-adv-x="389" 
d="M190 443v-319c0 -44 12 -81 67 -81c26 0 57 6 96 18l11 -38c-33 -16 -75 -27 -114 -27c-65 0 -113 27 -113 108v339h-117v44h316v-44h-146z" />
    <glyph glyph-name="iota" unicode="&#x3b9;" horiz-adv-x="255" 
d="M88 443h-58v44h111v-441h74v-33c-22 -11 -54 -17 -73 -17c-34 0 -53 10 -54 59v388z" />
    <glyph glyph-name="Alpha" unicode="&#x391;" horiz-adv-x="636" 
d="M617 0h-187v46h71l-44 143h-277l-44 -143h74v-46h-190v46h58c64 204 140 434 205 638h72l207 -638h55v-46zM441 239l-99 316l-22 74h-2c-1 -4 -4 -16 -23 -75c-17 -53 -47 -147 -98 -315h244z" />
    <glyph glyph-name="Beta" unicode="&#x392;" horiz-adv-x="587" 
d="M108 637h-64v46h285c131 0 197 -72 197 -172c0 -49 -16 -118 -98 -154c87 -23 119 -109 119 -172c0 -112 -89 -185 -184 -185h-323v47h68v590zM491 190c0 73 -50 141 -150 141h-176v-284h176c110 0 150 68 150 143zM470 506c0 74 -44 131 -148 131h-157v-259h157
c96 0 148 53 148 128z" />
    <glyph glyph-name="Gamma" unicode="&#x393;" horiz-adv-x="513" 
d="M260 46v-46h-220v46h66v591h-62v45h449v-134h-48v89h-282v-591h97z" />
    <glyph glyph-name="Epsilon" unicode="&#x395;" horiz-adv-x="540" 
d="M40 0v46h66v591h-62v45h449v-134h-48v89h-282v-255l279 6v-54l-279 4v-292h297v89h50v-135h-470z" />
    <glyph glyph-name="Zeta" unicode="&#x396;" horiz-adv-x="496" 
d="M476 0h-456v46l373 591h-301v-99h-48v145h415v-46l-373 -590h340v108h50v-155z" />
    <glyph glyph-name="Eta" unicode="&#x397;" horiz-adv-x="664" 
d="M624 0h-182v47h62v289h-345v-289h63v-47h-182v47h62v590h-62v46h182v-46h-63v-252h345v252h-62v46h182v-46h-63v-590h63v-47z" />
    <glyph glyph-name="Theta" unicode="&#x398;" horiz-adv-x="648" 
d="M173 333v47l299 6v-57zM598 338c0 -196 -90 -345 -268 -345c-206 0 -280 131 -280 342c0 187 68 358 280 358c215 0 268 -173 268 -355zM540 335c0 138 -31 311 -210 311s-222 -156 -222 -313c0 -193 66 -293 222 -293c143 0 210 134 210 295z" />
    <glyph glyph-name="Iota" unicode="&#x399;" horiz-adv-x="321" 
d="M251 0h-181v46h61v591h-61v46h181v-46h-63v-591h63v-46z" />
    <glyph glyph-name="Kappa" unicode="&#x39a;" horiz-adv-x="608" 
d="M517 636l-228 -223l245 -365h59v-48h-194l-1 48h69l-219 326l-89 -87v-240h65v-47h-184v47h62v590h-62v46h182v-46h-63v-286l290 285h-69v47h191v-47h-54z" />
    <glyph glyph-name="Lambda" unicode="&#x39b;" horiz-adv-x="636" 
d="M295 554l-159 -508h74v-46h-190v46h58c64 204 140 434 205 638h72l207 -638h55v-46h-187v46h71l-159 509l-22 74h-2c-1 -4 -4 -16 -23 -75z" />
    <glyph glyph-name="Mu" unicode="&#x39c;" horiz-adv-x="825" 
d="M410 130h6l57 130l186 423h126v-46h-62v-591h62v-46h-182v46h64v534h-2l-49 -114l-177 -399h-55l-182 407l-46 106h-2l2 -534h65v-46h-181v46h61v591h-61v46h126l188 -425z" />
    <glyph glyph-name="Nu" unicode="&#x39d;" horiz-adv-x="699" 
d="M534 104h5v533h-70v46h190v-46h-65v-637h-53l-304 475l-73 117l-3 -1l1 -544h70v-47h-192v47h67v590h-67v46h128l282 -445z" />
    <glyph glyph-name="Xi" unicode="&#x39e;" horiz-adv-x="521" 
d="M498 0h-477v153h50v-96h377v96h50v-153zM86 626v-98h-47v154h441v-154h-47v98h-347zM112 328v49l295 6v-59z" />
    <glyph glyph-name="Omicron" unicode="&#x39f;" horiz-adv-x="648" 
d="M598 338c0 -196 -90 -345 -268 -345c-206 0 -280 131 -280 342c0 187 68 358 280 358c215 0 268 -173 268 -355zM540 335c0 138 -31 311 -210 311s-222 -156 -222 -313c0 -193 66 -293 222 -293c143 0 210 134 210 295z" />
    <glyph glyph-name="Pi" unicode="&#x3a0;" horiz-adv-x="664" 
d="M624 0h-184v47h62v587h-342v-587h63v-47h-183v47h62v587h-62v49h584v-49h-63v-587h63v-47z" />
    <glyph glyph-name="Rho" unicode="&#x3a1;" horiz-adv-x="542" 
d="M244 0h-204v46h63v591h-63v46h270c110 0 202 -61 202 -193c0 -76 -38 -202 -194 -202h-158v-242h84v-46zM160 334h155c68 0 140 35 140 153c0 101 -63 150 -143 150h-152v-303z" />
    <glyph glyph-name="Delta" unicode="&#x394;" horiz-adv-x="636" 
d="M587 41v-41h-539v41l233 643h72zM529 46l-158 440l-53 151h-2l-53 -152l-159 -439h425z" />
    <glyph glyph-name="Delta" unicode="&#x2206;" horiz-adv-x="636" 
d="M587 41v-41h-539v41l233 643h72zM529 46l-158 440l-53 151h-2l-53 -152l-159 -439h425z" />
    <glyph glyph-name="Sigma" unicode="&#x3a3;" horiz-adv-x="511" 
d="M276 371v-19l-182 -305h342v108h50v-155h-456v46l187 315l-187 276v46h445v-145h-48v99h-333z" />
    <glyph glyph-name="dagger" unicode="&#x2020;" horiz-adv-x="457" 
d="M419 428h-164v-484h-51v484h-164v52h164v203h51v-203h164v-52z" />
    <glyph glyph-name="ellipsis" unicode="&#x2026;" horiz-adv-x="582" 
d="M327 34c0 -24 -20 -44 -42 -44c-24 0 -44 20 -44 44c0 23 19 42 43 42s43 -19 43 -42zM539 34c0 -24 -20 -44 -42 -44c-24 0 -44 20 -44 44c0 23 19 42 43 42s43 -19 43 -42zM130 34c0 -24 -20 -44 -42 -44c-24 0 -44 20 -44 44c0 23 19 42 43 42s43 -19 43 -42z" />
    <glyph glyph-name="registered" unicode="&#xae;" horiz-adv-x="568" 
d="M266 329h-94v27h25v238h-25v27h117c50 0 89 -23 89 -80c0 -25 -16 -63 -56 -79l51 -105l30 -4v-22c-9 -3 -23 -5 -34 -5c-14 0 -24 12 -28 21l-54 111h-56v-102h35v-27zM231 485h59c28 0 55 11 55 55c0 40 -26 54 -55 54h-59v-109zM278 242c-130 0 -235 103 -235 231
c0 129 105 233 235 233c129 0 236 -104 236 -233c0 -128 -107 -231 -236 -231zM278 677c-112 0 -205 -91 -205 -204c0 -110 93 -202 205 -202c114 0 205 92 205 202c0 113 -91 204 -205 204z" />
    <glyph glyph-name="trademark" unicode="&#x2122;" horiz-adv-x="712" 
d="M607 604h-2l-94 -188h-32l-91 182h-1v-202h36v-31h-111v31h35v253h-35v34h79l105 -224l109 224h77v-34h-35v-253h35v-31h-110v31h35v208zM253 601v49h-74v-254h43v-30h-127v30h41v254h-69v-49h-32v82h249v-82h-31z" />
    <glyph glyph-name="copyright" unicode="&#xa9;" horiz-adv-x="824" 
d="M544 131l9 -35c-30 -12 -89 -22 -134 -22c-149 0 -207 98 -207 252c0 102 41 261 210 261c57 0 98 -10 123 -20v-108h-37v77c-22 6 -55 12 -85 12c-113 0 -165 -89 -165 -223c0 -113 28 -211 166 -211c28 0 82 5 120 17zM412 -23c-199 0 -360 160 -360 357
c0 196 161 356 360 356c198 0 362 -160 362 -356c0 -197 -164 -357 -362 -357zM412 655c-178 0 -325 -143 -325 -321c0 -177 147 -321 325 -321c181 0 325 144 325 321c0 178 -144 321 -325 321z" />
    <glyph glyph-name="sigma1" unicode="&#x3c2;" horiz-adv-x="426" 
d="M250 498c65 0 113 -14 148 -27v-116h-44v82c-23 9 -54 15 -98 15c-111 0 -160 -90 -160 -202c0 -99 30 -141 161 -199c88 -39 113 -63 113 -95c0 -12 -4 -31 -24 -59l-40 -54l-34 22l31 49c7 12 13 24 13 34c0 19 -18 31 -84 60c-167 69 -192 133 -192 243
c0 148 80 247 210 247z" />
    <glyph glyph-name="yen" unicode="&#xa5;" horiz-adv-x="540" 
d="M461 282h-388v35h151l-154 300h-54v46h179v-46h-65l136 -279h4l139 279h-67v46h175v-46h-52l-157 -300h153v-35zM73 232h388v-38h-168v-148h84v-46h-222v46h83v148h-165v38z" />
    <glyph glyph-name="section" unicode="&#xa7;" horiz-adv-x="447" 
d="M392 269c0 -46 -18 -85 -70 -134c69 -43 74 -98 74 -123c0 -109 -90 -155 -187 -155c-64 0 -107 15 -143 26l-1 117h46v-80c32 -9 69 -15 101 -15c68 0 130 29 130 102c0 138 -287 114 -287 278c0 48 22 96 75 133c-46 31 -63 60 -63 102c0 98 73 149 173 149
c68 0 106 -12 142 -23l-1 -120h-46v79c-24 7 -52 14 -95 14c-60 0 -120 -21 -120 -94c0 -117 271 -102 272 -256zM339 256c0 84 -102 103 -172 142c-35 -30 -57 -61 -57 -98c0 -90 100 -105 176 -143c33 33 53 74 53 99z" />
    <glyph glyph-name="guillemotright" unicode="&#xbb;" horiz-adv-x="405" 
d="M284 184l-99 151l23 19l137 -150v-39l-139 -149l-22 18zM154 184l-99 151l23 19l137 -150v-39l-139 -149l-22 18z" />
    <glyph glyph-name="degree" unicode="&#xb0;" horiz-adv-x="334" 
d="M175 412c-81 0 -129 55 -129 126c0 68 58 129 129 129s126 -61 126 -129c0 -71 -55 -126 -126 -126zM172 626c-49 0 -88 -41 -88 -91c0 -48 39 -88 88 -88c48 0 89 40 89 88c0 50 -41 91 -89 91z" />
    <glyph glyph-name="germandbls" unicode="&#xdf;" horiz-adv-x="549" 
d="M458 109c0 74 -55 104 -97 143c-48 44 -101 93 -101 146c0 73 108 118 108 185c0 16 -4 86 -107 86c-76 0 -110 -56 -110 -123v-546h-131v46h77v342h-73v43h73v114c0 60 30 171 172 171c121 0 156 -74 156 -122c0 -99 -104 -131 -104 -192c0 -39 30 -72 74 -108
c56 -44 120 -88 120 -176c0 -63 -39 -132 -154 -132c-48 0 -106 11 -139 27v108l44 -1v-70c45 -14 78 -17 98 -17c63 0 94 33 94 76z" />
    <glyph glyph-name="guillemotleft" unicode="&#xab;" horiz-adv-x="405" 
d="M225 335l-99 -151l100 -150l-22 -18l-139 149v39l137 150zM355 335l-99 -151l100 -150l-22 -18l-139 149v39l137 150z" />
    <glyph glyph-name="divide" unicode="&#xf7;" horiz-adv-x="540" 
d="M458 274h-375v46h375v-46zM314 449c0 -24 -20 -44 -42 -44c-24 0 -44 21 -44 44c0 24 19 43 43 43s43 -19 43 -43zM314 144c0 -24 -20 -44 -42 -44c-24 0 -44 21 -44 44c0 24 19 42 43 42s43 -18 43 -42z" />
    <glyph glyph-name="circumflex" unicode="&#x2c6;" horiz-adv-x="478" 
d="M388 533l-151 99l-150 -100l-18 22l149 139h39l150 -137z" />
    <glyph glyph-name="perthousand" unicode="&#x2030;" horiz-adv-x="1205" 
d="M353 463c0 -92 -34 -201 -154 -201c-136 0 -158 103 -158 199c0 85 23 207 160 207c140 0 152 -129 152 -205zM302 461c0 58 -4 165 -101 165c-98 0 -109 -101 -109 -166c0 -86 17 -157 109 -157c83 0 101 85 101 158zM576 698l-282 -721h-43l284 721h41zM788 198
c0 -92 -34 -201 -154 -201c-136 0 -158 103 -158 199c0 85 23 207 160 207c140 0 152 -129 152 -205zM737 196c0 58 -4 165 -101 165c-98 0 -109 -101 -109 -166c0 -86 17 -157 109 -157c83 0 101 85 101 158zM1151 198c0 -92 -34 -201 -154 -201c-136 0 -158 103 -158 199
c0 85 23 207 160 207c140 0 152 -129 152 -205zM1100 196c0 58 -4 165 -101 165c-98 0 -109 -101 -109 -166c0 -86 17 -157 109 -157c83 0 101 85 101 158z" />
    <glyph glyph-name="dieresis" unicode="&#xa8;" horiz-adv-x="478" 
d="M317 535c-21 0 -36 15 -36 37c0 21 17 38 36 38c25 0 43 -15 43 -38c0 -22 -18 -37 -43 -37zM139 535c-23 0 -40 15 -40 37c0 21 19 38 38 38c25 0 42 -15 42 -38c0 -22 -17 -37 -40 -37z" />
    <glyph glyph-name="florin" unicode="&#x192;" horiz-adv-x="540" 
d="M162 353v42h98l14 98c14 101 50 179 149 179c28 0 53 -5 78 -13l-11 -38c-31 7 -43 8 -66 8c-70 0 -89 -53 -101 -136c-4 -29 -10 -70 -13 -98h103v-42h-108c-8 -51 -31 -256 -38 -293c-19 -120 -64 -183 -152 -183c-25 0 -52 5 -76 17l15 37c26 -8 39 -9 56 -9
c68 0 89 47 107 139c14 69 28 223 38 292h-93z" />
    <glyph glyph-name="daggerdbl" unicode="&#x2021;" horiz-adv-x="457" 
d="M40 188h164v240h-164v52h164v203h51v-203h164v-52h-164v-240h164v-52h-164v-192h-51v192h-164v52z" />
    <glyph glyph-name="logicalnot" unicode="&#xac;" horiz-adv-x="540" 
d="M458 321v-214h-49v167h-325v47h374z" />
    <glyph glyph-name="multiply" unicode="&#xd7;" horiz-adv-x="540" 
d="M401 123l-128 129l-133 -132l-34 35l132 132l-130 129l34 33l129 -129l127 127l35 -34l-127 -128l128 -128z" />
    <glyph glyph-name="plusminus" unicode="&#xb1;" horiz-adv-x="540" 
d="M83 0v41h374v-41h-374zM457 264h-162v-167h-49v167h-163v47h163v160h49v-160h162v-47z" />
    <glyph glyph-name="brokenbar" unicode="&#xa6;" horiz-adv-x="211" 
d="M121 338h-40v359h40v-359zM81 245h40v-381h-40v381z" />
    <glyph glyph-name="guilsinglright" unicode="&#x203a;" horiz-adv-x="300" 
d="M164 184l-99 151l23 19l137 -150v-39l-139 -149l-22 18z" />
    <glyph glyph-name="guilsinglleft" unicode="&#x2039;" horiz-adv-x="300" 
d="M225 335l-99 -151l100 -150l-22 -18l-139 149v39l137 150z" />
    <glyph glyph-name="currency" unicode="&#xa4;" horiz-adv-x="540" 
d="M127 306c0 -78 64 -141 142 -141c76 0 141 63 141 141s-64 141 -141 141c-78 0 -142 -63 -142 -141zM125 423l-63 63l27 28l64 -63c32 26 73 41 117 41c43 0 82 -15 116 -41l63 63l29 -29l-65 -62c30 -37 41 -74 41 -116c0 -43 -15 -82 -40 -117l64 -59l-29 -31l-64 63
c-37 -32 -77 -41 -115 -41c-40 0 -78 9 -116 41l-64 -64l-29 30l64 61c-33 39 -42 81 -42 115c0 41 11 84 42 118z" />
    <glyph glyph-name="exclamdown" unicode="&#xa1;" horiz-adv-x="198" 
d="M85 326h33l10 -533h-57zM142 451c0 -23 -19 -42 -43 -42s-43 19 -43 42c0 24 20 44 44 44c22 0 42 -20 42 -44z" />
    <glyph glyph-name="questiondown" unicode="&#xbf;" horiz-adv-x="415" 
d="M182 41c-53 -41 -84 -72 -84 -123c0 -62 49 -86 117 -86c37 0 85 6 128 20v95h47v-134c-57 -20 -122 -30 -170 -30c-120 0 -180 49 -180 131c0 65 45 112 94 150c92 72 128 114 128 170c0 25 -5 49 -10 83l44 10c10 -43 14 -76 14 -98c0 -63 -35 -116 -128 -188zM213 451
c0 25 20 44 42 44c24 0 44 -20 44 -44c0 -23 -19 -42 -43 -42s-43 19 -43 42z" />
    <glyph glyph-name="sfthyphen" unicode="&#xad;" horiz-adv-x="354" 
d="M302 235h-251v53h251v-53z" />
    <glyph glyph-name="periodcentered" unicode="&#xb7;" horiz-adv-x="179" 
d="M135 288c0 -24 -20 -44 -42 -44c-24 0 -44 21 -44 44c0 24 19 42 43 42s43 -18 43 -42z" />
    <glyph glyph-name="cedilla" unicode="&#xb8;" horiz-adv-x="433" 
d="M276 17l-64 -82c64 -3 109 -26 109 -77c0 -53 -56 -102 -173 -99v31c71 7 120 25 120 61c0 37 -57 42 -104 43l-11 17l95 123z" />
    <glyph glyph-name="acute" unicode="&#xb4;" horiz-adv-x="478" 
d="M227 536l-29 21l111 158l49 -40z" />
    <glyph glyph-name="primemod" unicode="&#x2b9;" horiz-adv-x="234" 
d="M78 399l-32 17l137 269l54 -32z" />
    <glyph glyph-name="caron" unicode="&#x2c7;" horiz-adv-x="478" 
d="M238 596l151 99l19 -23l-150 -128h-39l-149 130l18 22z" />
    <glyph glyph-name="breve" unicode="&#x2d8;" horiz-adv-x="478" 
d="M243 541c-67 0 -114 53 -152 104l38 26c34 -46 78 -84 117 -84c25 0 69 6 138 74l22 -19c-56 -77 -113 -101 -163 -101z" />
    <glyph glyph-name="dotaccent" unicode="&#x2d9;" horiz-adv-x="478" 
d="M197 578c0 24 19 43 42 43c24 0 43 -19 43 -43c0 -23 -19 -42 -43 -42c-23 0 -42 19 -42 42z" />
    <glyph glyph-name="ring" unicode="&#x2da;" horiz-adv-x="478" 
d="M242 536c-57 0 -102 44 -102 98c0 53 45 99 102 99c55 0 99 -45 99 -99c0 -55 -44 -98 -99 -98zM242 699c-40 0 -66 -29 -66 -67c0 -37 26 -65 66 -65c37 0 63 28 63 65s-26 67 -63 67z" />
    <glyph glyph-name="ogonek" unicode="&#x2db;" horiz-adv-x="433" 
d="M287 27l12 -13c-38 -38 -62 -100 -62 -134c0 -58 97 -38 135 -29l5 -26c-30 -15 -67 -25 -103 -25c-59 0 -91 26 -91 68c0 39 18 102 104 159z" />
    <glyph glyph-name="hungarumlaut" unicode="&#x2dd;" horiz-adv-x="478" 
d="M167 536l-29 21l111 158l49 -40zM279 536l-29 21l111 158l49 -40z" />
    <glyph glyph-name="tonos" unicode="&#x384;" horiz-adv-x="478" 
d="M227 536l-29 21l111 158l49 -40z" />
    <glyph glyph-name="dieresistonos" unicode="&#x385;" horiz-adv-x="478" 
d="M216 538l-33 14l77 177l56 -29zM331 564c-21 0 -36 15 -36 37c0 21 20 38 39 38c22 0 40 -15 40 -38c0 -22 -21 -37 -43 -37zM133 564c-23 0 -40 15 -40 37c0 21 19 38 38 38c25 0 42 -15 42 -38c0 -22 -17 -37 -40 -37z" />
    <glyph glyph-name="anoteleia" unicode="&#x387;" horiz-adv-x="179" 
d="M135 358c0 -24 -20 -44 -42 -44c-24 0 -44 21 -44 44c0 24 19 42 43 42s43 -18 43 -42z" />
    <glyph glyph-name="Alphatonos" unicode="&#x386;" horiz-adv-x="636" 
d="M617 0h-187v46h71l-44 143h-277l-44 -143h74v-46h-190v46h58c64 204 140 434 205 638h72l207 -638h55v-46zM441 239l-99 316l-22 74h-2c-1 -4 -4 -16 -23 -75c-17 -53 -47 -147 -98 -315h244zM47 536l-29 21l111 158l49 -40z" />
    <glyph glyph-name="Epsilontonos" unicode="&#x388;" horiz-adv-x="540" 
d="M40 0v46h66v591h-62v45h449v-134h-48v89h-282v-255l279 6v-54l-279 4v-292h297v89h50v-135h-470zM-125 536l-29 21l111 158l49 -40z" />
    <glyph glyph-name="Etatonos" unicode="&#x389;" horiz-adv-x="664" 
d="M624 0h-182v47h62v289h-345v-289h63v-47h-182v47h62v590h-62v46h182v-46h-63v-252h345v252h-62v46h182v-46h-63v-590h63v-47zM-129 536l-29 21l111 158l49 -40z" />
    <glyph glyph-name="Iotatonos" unicode="&#x38a;" horiz-adv-x="321" 
d="M251 0h-181v46h61v591h-61v46h181v-46h-63v-591h63v-46zM-98 536l-29 21l111 158l49 -40z" />
    <glyph glyph-name="Omicrontonos" unicode="&#x38c;" horiz-adv-x="648" 
d="M598 338c0 -196 -90 -345 -268 -345c-206 0 -280 131 -280 342c0 187 68 358 280 358c215 0 268 -173 268 -355zM540 335c0 138 -31 311 -210 311s-222 -156 -222 -313c0 -193 66 -293 222 -293c143 0 210 134 210 295zM-70 536l-29 21l111 158l49 -40z" />
    <glyph glyph-name="Upsilontonos" unicode="&#x38e;" horiz-adv-x="550" 
d="M273 360h4l155 277h-67v46h175v-46h-52l-185 -327v-264h82v-46h-222v46h82v261l-181 330h-54v46h179v-46h-65zM-145 536l-29 21l111 158l49 -40z" />
    <glyph glyph-name="Omegatonos" unicode="&#x38f;" horiz-adv-x="666" 
d="M338 693c213 0 270 -166 270 -339c0 -126 -26 -247 -106 -306l2 -1h122v-47h-226v51c120 29 149 161 149 301c0 136 -33 293 -211 293c-166 0 -220 -133 -220 -291c0 -154 29 -277 144 -302v-52h-222v47h112l1 1c-83 57 -93 182 -93 306c0 178 72 339 278 339zM-56 536
l-29 21l111 158l49 -40z" />
    <glyph glyph-name="Tau" unicode="&#x3a4;" horiz-adv-x="518" 
d="M502 683l1 -145h-49v99h-166v-591h74v-46h-202v46h72v591h-169v-99h-48v145h487z" />
    <glyph glyph-name="Upsilon" unicode="&#x3a5;" horiz-adv-x="550" 
d="M273 360h4l155 277h-67v46h175v-46h-52l-185 -327v-264h82v-46h-222v46h82v261l-181 330h-54v46h179v-46h-65z" />
    <glyph glyph-name="Chi" unicode="&#x3a7;" horiz-adv-x="604" 
d="M269 356l-174 281h-60v46h191v-46h-70l147 -242l149 242h-73v46h194v-46h-60l-180 -286l188 -304h63v-47h-200v47h77l-163 265l-158 -265h81v-47h-201v47h60z" />
    <glyph glyph-name="iotadieresistonos" unicode="&#x390;" horiz-adv-x="255" 
d="M88 443h-58v44h111v-441h74v-33c-22 -11 -54 -17 -73 -17c-34 0 -53 10 -54 59v388zM81 538l-33 14l77 177l56 -29zM196 564c-21 0 -36 15 -36 37c0 21 20 38 39 38c22 0 40 -15 40 -38c0 -22 -21 -37 -43 -37zM-2 564c-23 0 -40 15 -40 37c0 21 19 38 38 38
c25 0 42 -15 42 -38c0 -22 -17 -37 -40 -37z" />
    <glyph glyph-name="Dieresis" unicode="&#xf6cb;" horiz-adv-x="636" 
d="M408 727c-21 0 -36 15 -36 37c0 21 17 38 36 38c25 0 43 -15 43 -38c0 -22 -18 -37 -43 -37zM230 727c-23 0 -40 15 -40 37c0 21 19 38 38 38c25 0 42 -15 42 -38c0 -22 -17 -37 -40 -37z" />
    <glyph glyph-name="Iotadieresis" unicode="&#x3aa;" horiz-adv-x="321" 
d="M251 0h-181v46h61v591h-61v46h181v-46h-63v-591h63v-46zM245 727c-21 0 -36 15 -36 37c0 21 17 38 36 38c25 0 43 -15 43 -38c0 -22 -18 -37 -43 -37zM67 727c-23 0 -40 15 -40 37c0 21 19 38 38 38c25 0 42 -15 42 -38c0 -22 -17 -37 -40 -37z" />
    <glyph glyph-name="Upsilondieresis" unicode="&#x3ab;" horiz-adv-x="550" 
d="M273 360h4l155 277h-67v46h175v-46h-52l-185 -327v-264h82v-46h-222v46h82v261l-181 330h-54v46h179v-46h-65zM368 727c-21 0 -36 15 -36 37c0 21 17 38 36 38c25 0 43 -15 43 -38c0 -22 -18 -37 -43 -37zM190 727c-23 0 -40 15 -40 37c0 21 19 38 38 38
c25 0 42 -15 42 -38c0 -22 -17 -37 -40 -37z" />
    <glyph glyph-name="tilde" unicode="&#x2dc;" horiz-adv-x="478" 
d="M163 621c43 0 101 -39 132 -39l57 39l22 -18c-13 -37 -43 -67 -79 -67c-56 0 -97 39 -132 39l-57 -39l-22 18c13 37 43 67 79 67z" />
    <glyph glyph-name="macron" unicode="&#xaf;" horiz-adv-x="478" 
d="M83 603h303v-48h-303v48z" />
    <glyph glyph-name="omicrontonos" unicode="&#x3cc;" horiz-adv-x="481" 
d="M385 240c0 91 -21 210 -140 210s-148 -111 -148 -211c0 -103 21 -199 148 -199c117 0 140 108 140 200zM245 497c156 0 196 -131 196 -255c0 -120 -42 -249 -207 -249c-152 0 -194 119 -194 247c0 126 53 257 205 257zM246 536l-29 21l111 158l49 -40z" />
    <glyph glyph-name="iotadieresis" unicode="&#x3ca;" horiz-adv-x="255" 
d="M88 443h-58v44h111v-441h74v-33c-22 -11 -54 -17 -73 -17c-34 0 -53 10 -54 59v388zM172 535c-21 0 -36 15 -36 37c0 21 17 38 36 38c25 0 43 -15 43 -38c0 -22 -18 -37 -43 -37zM-6 535c-23 0 -40 15 -40 37c0 21 19 38 38 38c25 0 42 -15 42 -38c0 -22 -17 -37 -40 -37
z" />
    <glyph glyph-name="upsilondieresis" unicode="&#x3cb;" horiz-adv-x="516" 
d="M391 487h55v-304c0 -102 -64 -188 -185 -188s-179 74 -179 178v269h-67v45h121v-312c0 -77 31 -132 124 -132s131 65 131 142v302zM342 535c-21 0 -36 15 -36 37c0 21 17 38 36 38c25 0 43 -15 43 -38c0 -22 -18 -37 -43 -37zM164 535c-23 0 -40 15 -40 37
c0 21 19 38 38 38c25 0 42 -15 42 -38c0 -22 -17 -37 -40 -37z" />
    <glyph glyph-name="etatonos" unicode="&#x3ae;" horiz-adv-x="556" 
d="M150 0h-54v443h-76v44h130v-44c57 35 126 55 174 55c135 0 136 -88 136 -152v-300h74v-33c-22 -11 -54 -17 -73 -17c-34 0 -53 10 -54 59v276c0 72 -6 119 -91 119c-52 0 -120 -27 -166 -52v-398zM228 536l-29 21l111 158l49 -40z" />
    <glyph glyph-name="iotatonos" unicode="&#x3af;" horiz-adv-x="255" 
d="M88 443h-58v44h111v-441h74v-33c-22 -11 -54 -17 -73 -17c-34 0 -53 10 -54 59v388zM93 536l-29 21l111 158l49 -40z" />
    <glyph glyph-name="upsilondieresistonos" unicode="&#x3b0;" horiz-adv-x="516" 
d="M391 487h55v-304c0 -102 -64 -188 -185 -188s-179 74 -179 178v269h-67v45h121v-312c0 -77 31 -132 124 -132s131 65 131 142v302zM246 538l-33 14l77 177l56 -29zM361 564c-21 0 -36 15 -36 37c0 21 20 38 39 38c22 0 40 -15 40 -38c0 -22 -21 -37 -43 -37zM163 564
c-23 0 -40 15 -40 37c0 21 19 38 38 38c25 0 42 -15 42 -38c0 -22 -17 -37 -40 -37z" />
    <glyph glyph-name="upsilontonos" unicode="&#x3cd;" horiz-adv-x="516" 
d="M391 487h55v-304c0 -102 -64 -188 -185 -188s-179 74 -179 178v269h-67v45h121v-312c0 -77 31 -132 124 -132s131 65 131 142v302zM242 536l-29 21l111 158l49 -40z" />
    <glyph glyph-name="omegatonos" unicode="&#x3ce;" horiz-adv-x="702" 
d="M480 -6c-65 0 -111 32 -125 78h-3c-22 -47 -69 -78 -130 -78c-150 0 -182 117 -182 246c0 105 38 222 146 254l15 -38c-85 -41 -107 -130 -107 -217c0 -91 18 -196 130 -196c74 0 104 55 104 108v186h54l1 -186c2 -53 29 -108 95 -108c92 0 130 77 130 196
c0 87 -22 176 -107 217l15 38c108 -32 146 -146 146 -254c0 -129 -52 -246 -182 -246zM345 536l-29 21l111 158l49 -40z" />
    <glyph glyph-name="alphatonos" unicode="&#x3ac;" horiz-adv-x="514" 
d="M231 536l-29 21l111 158l49 -40zM367 106l1 278c-25 25 -84 62 -128 62c-112 0 -143 -109 -143 -204c0 -164 53 -203 123 -203c41 0 96 21 147 67zM420 487v-441h70l4 -33c-22 -11 -54 -17 -73 -17c-34 0 -53 10 -54 59l-2 1c-78 -64 -136 -64 -167 -64
c-109 0 -158 95 -158 248c0 119 51 254 193 254c57 0 106 -28 137 -57l19 50h31z" />
    <glyph glyph-name="epsilontonos" unicode="&#x3ad;" horiz-adv-x="414" 
d="M125 262l2 3c-42 11 -87 41 -87 95c0 92 82 138 173 138c53 0 116 -9 153 -25l2 -119h-44l-1 86c-36 10 -71 12 -106 12c-88 0 -120 -41 -120 -87c0 -72 71 -78 123 -76h61v-46l-62 -1c-50 -1 -132 -18 -132 -100c0 -73 62 -103 139 -103c55 0 97 14 151 37l17 -36
c-39 -22 -105 -45 -168 -45c-94 0 -196 30 -196 141c0 67 44 111 95 126zM197 536l-29 21l111 158l49 -40z" />
    <glyph glyph-name="OE" unicode="&#x152;" horiz-adv-x="770" 
d="M330 693c32 0 61 -4 86 -11h307v-134h-48v89h-262v-255l259 6v-54l-259 4v-292h277v89h50v-135h-346c-20 -4 -42 -7 -64 -7c-206 0 -280 131 -280 342c0 187 68 358 280 358zM330 40c8 0 17 0 25 1v604c-8 0 -17 1 -25 1c-179 0 -222 -156 -222 -313
c0 -193 66 -293 222 -293z" />
    <glyph glyph-name="paragraph" unicode="&#xb6;" horiz-adv-x="488" 
d="M392 645v-833h-43v833h-71l1 -833h-121v44h77v483h-19c-99 0 -173 76 -173 172c0 97 75 177 173 177h243v-43h-67z" />
    <glyph glyph-name="oe" unicode="&#x153;" horiz-adv-x="809" 
d="M773 229h-330c-1 -97 28 -189 146 -189c59 0 98 11 155 36l16 -37c-55 -30 -106 -44 -170 -44c-98 0 -151 39 -178 99c-29 -59 -84 -101 -178 -101c-152 0 -194 119 -194 247c0 126 53 257 205 257c92 0 143 -46 170 -108c27 58 78 108 174 108c189 0 184 -183 184 -230
v-38zM385 240c0 91 -21 210 -140 210s-148 -111 -148 -211c0 -103 21 -199 148 -199c117 0 140 108 140 200zM589 450c-104 0 -138 -84 -145 -175h275c0 104 -31 175 -130 175z" />
    <glyph glyph-name="ae" unicode="&#xe6;" horiz-adv-x="774" 
d="M408 229c-1 -97 28 -189 146 -189c59 0 98 11 155 36l16 -37c-55 -30 -106 -44 -170 -44c-85 0 -136 29 -166 76c-109 -80 -187 -78 -217 -78c-109 0 -137 84 -137 139c0 91 74 142 176 143l142 1v46c0 93 -38 122 -122 122c-48 0 -99 -10 -150 -28l-15 40
c54 25 119 39 177 39c71 0 126 -23 150 -83c29 48 78 85 161 85c189 0 184 -183 184 -230v-38h-330zM194 40c40 0 126 24 177 68c-13 35 -18 76 -19 121h-148c-73 0 -110 -37 -110 -93c0 -62 30 -96 100 -96zM554 450c-104 0 -138 -84 -145 -175h275c0 104 -31 175 -130 175
z" />
    <glyph glyph-name="AE" unicode="&#xc6;" horiz-adv-x="919" 
d="M429 46h66v163h-268l-101 -163h79v-46h-205v46h63l370 591h-57v45h486v-134h-48v89h-262v-255l259 6v-54l-259 4v-292h277v89h50v-135h-450v46zM489 631l-231 -372h237v372h-6z" />
    <glyph glyph-name="space" unicode=" " horiz-adv-x="260" 
 />
    <glyph glyph-name="Circumflex" unicode="&#xf6c0;" horiz-adv-x="636" 
d="M469 727l-151 99l-150 -100l-18 22l149 133h39l150 -131z" />
    <glyph glyph-name="commaaccent" unicode="&#xf6c3;" horiz-adv-x="636" 
d="M279 -83c0 23 20 43 44 43c26 0 48 -20 47 -52c-2 -43 -24 -76 -71 -100l-14 18c17 17 25 32 24 49c-18 6 -30 22 -30 42z" />
    <glyph glyph-name="Acute" unicode="&#xf6c9;" horiz-adv-x="636" 
d="M335 726l-29 21l111 158l49 -40z" />
    <glyph glyph-name="Caron" unicode="&#xf6ca;" horiz-adv-x="636" 
d="M318 788l151 99l19 -23l-150 -130h-39l-149 132l18 22z" />
    <glyph glyph-name="DieresisAcute" unicode="&#xf6cc;" horiz-adv-x="636" 
d="M441 748c-21 0 -36 15 -36 37c0 21 20 38 39 38c22 0 40 -15 40 -38c0 -22 -21 -37 -43 -37zM243 748c-23 0 -40 15 -40 37c0 21 19 38 38 38c25 0 42 -15 42 -38c0 -22 -17 -37 -40 -37zM312 730l-29 21l111 158l49 -40z" />
    <glyph glyph-name="DieresisGrave" unicode="&#xf6cd;" horiz-adv-x="636" 
d="M381 748c-21 0 -36 15 -36 37c0 21 20 38 39 38c22 0 40 -15 40 -38c0 -22 -21 -37 -43 -37zM183 748c-23 0 -40 15 -40 37c0 21 19 38 38 38c25 0 42 -15 42 -38c0 -22 -17 -37 -40 -37zM342 750l-29 -21l-131 139l49 40z" />
    <glyph glyph-name="Grave" unicode="&#xf6ce;" horiz-adv-x="636" 
d="M326 747l-29 -21l-131 139l49 40z" />
    <glyph glyph-name="Hungarumlaut" unicode="&#xf6cf;" horiz-adv-x="636" 
d="M275 728l-29 21l111 158l49 -40zM387 728l-29 21l111 158l49 -40z" />
    <glyph glyph-name="Macron" unicode="&#xf6d0;" horiz-adv-x="636" 
d="M163 798h313v-51h-313v51z" />
    <glyph glyph-name="cyrBreve" unicode="&#xf6d1;" horiz-adv-x="636" 
d="M314 727c-67 0 -114 53 -152 104l41 28c34 -46 75 -81 114 -81c25 0 69 6 138 74l22 -19c-56 -77 -113 -106 -163 -106z" />
    <glyph glyph-name="cyrbreve" unicode="&#xf6d4;" horiz-adv-x="478" 
d="M243 536c-67 0 -114 53 -152 104l41 28c34 -46 75 -81 114 -81c25 0 69 6 138 74l22 -19c-56 -77 -113 -106 -163 -106z" />
    <glyph glyph-name="Scaron" unicode="&#x160;" horiz-adv-x="513" 
d="M35 168h48v-88c54 -28 103 -37 156 -37c115 0 183 33 183 143c0 93 -71 116 -162 140c-112 30 -214 60 -214 180c0 122 98 187 212 187c51 0 120 -7 174 -40v-124h-49v94c-37 17 -86 22 -129 22c-88 0 -151 -46 -151 -140c0 -83 82 -106 159 -126
c101 -26 216 -49 216 -194c0 -139 -108 -192 -235 -192c-71 0 -146 14 -208 52v123zM271 788l151 99l19 -23l-150 -130h-39l-149 132l18 22z" />
    <glyph glyph-name="Zcaron" unicode="&#x17d;" horiz-adv-x="496" 
d="M476 0h-456v46l373 591h-301v-99h-48v145h415v-46l-373 -590h340v108h50v-155zM266 788l151 99l19 -23l-150 -130h-39l-149 132l18 22z" />
    <glyph glyph-name="scaron" unicode="&#x161;" horiz-adv-x="408" 
d="M30 140h43l3 -77c32 -16 78 -24 113 -24c72 0 130 18 130 91c0 58 -56 79 -116 96c-79 22 -163 44 -163 140c0 97 80 131 165 131c45 0 95 -10 134 -35l3 -110h-44l-3 82c-25 11 -60 17 -91 17c-61 0 -110 -20 -110 -87c0 -58 73 -74 113 -85c81 -22 164 -43 164 -150
c0 -96 -85 -135 -179 -135c-58 0 -119 11 -159 39zM207 596l151 99l19 -23l-150 -128h-39l-149 130l18 22z" />
    <glyph glyph-name="Ydieresis" unicode="&#x178;" horiz-adv-x="550" 
d="M273 360h4l155 277h-67v46h175v-46h-52l-185 -327v-264h82v-46h-222v46h82v261l-181 330h-54v46h179v-46h-65zM365 727c-21 0 -36 15 -36 37c0 21 17 38 36 38c25 0 43 -15 43 -38c0 -22 -18 -37 -43 -37zM187 727c-23 0 -40 15 -40 37c0 21 19 38 38 38
c25 0 42 -15 42 -38c0 -22 -17 -37 -40 -37z" />
    <glyph glyph-name="cent" unicode="&#xa2;" horiz-adv-x="540" 
d="M314 590v-93c46 -2 91 -12 124 -27v-118h-44v86c-30 9 -54 13 -80 14v-412c42 3 78 14 123 33l16 -36c-34 -20 -85 -37 -139 -41v-81h-40v80c-139 7 -187 106 -187 242c0 94 33 247 187 260v93h40zM143 237c0 -104 27 -191 131 -198v411c-94 -12 -131 -99 -131 -213z" />
    <glyph glyph-name="ordfeminine" unicode="&#xaa;" horiz-adv-x="330" 
d="M275 487v-181h47l4 -29c-16 -8 -39 -12 -54 -12c-24 0 -39 8 -43 36c-52 -40 -89 -38 -109 -38c-78 0 -98 56 -98 94c0 61 52 93 124 96l84 4v22c0 57 -16 75 -71 75c-31 0 -67 -7 -104 -20l-12 33c39 17 85 27 125 27c68 0 107 -28 107 -107zM230 421l-89 -4
c-47 -3 -71 -24 -71 -58c0 -37 20 -57 64 -57c28 0 67 17 96 40v79z" />
    <glyph glyph-name="ordmasculine" unicode="&#xba;" horiz-adv-x="332" 
d="M261 426c0 57 -14 132 -92 132s-97 -71 -97 -133c0 -64 13 -123 97 -123c77 0 92 67 92 124zM169 595c110 0 137 -86 137 -168c0 -79 -29 -164 -145 -164c-106 0 -135 79 -135 163c0 83 36 169 143 169z" />
    <glyph glyph-name="onequarter" unicode="&#xbc;" horiz-adv-x="785" 
d="M168 610l-101 -16l-8 35l116 33h44v-356h86v-41h-230v41h93v304zM565 698l-282 -721h-43l284 721h41zM725 111h-62v-70h48v-41h-140v41h44v70h-207v38l207 248h48v-245h62v-41zM466 152h150v182z" />
    <glyph glyph-name="threequarters" unicode="&#xbe;" horiz-adv-x="785" 
d="M304 633l-135 -124c79 -1 145 -36 145 -116c0 -90 -74 -132 -153 -132c-53 0 -95 6 -134 23l11 37c51 -16 87 -17 111 -17c70 0 114 27 114 89c0 47 -42 74 -112 74c-18 0 -30 -1 -46 -3l-17 30l138 126h-136v-59h-46v101h251zM573 698l-282 -721h-43l284 721h41z
M757 111h-62v-70h48v-41h-140v41h44v70h-207v38l207 248h48v-245h62v-41zM498 152h150v182z" />
    <glyph glyph-name="Agrave" unicode="&#xc0;" horiz-adv-x="636" 
d="M617 0h-187v46h71l-44 143h-277l-44 -143h74v-46h-190v46h58c64 204 140 434 205 638h72l207 -638h55v-46zM441 239l-99 316l-22 74h-2c-1 -4 -4 -16 -23 -75c-17 -53 -47 -147 -98 -315h244zM327 747l-29 -21l-131 139l49 40z" />
    <glyph glyph-name="Aacute" unicode="&#xc1;" horiz-adv-x="636" 
d="M617 0h-187v46h71l-44 143h-277l-44 -143h74v-46h-190v46h58c64 204 140 434 205 638h72l207 -638h55v-46zM441 239l-99 316l-22 74h-2c-1 -4 -4 -16 -23 -75c-17 -53 -47 -147 -98 -315h244zM332 726l-29 21l111 158l49 -40z" />
    <glyph glyph-name="Acircumflex" unicode="&#xc2;" horiz-adv-x="636" 
d="M617 0h-187v46h71l-44 143h-277l-44 -143h74v-46h-190v46h58c64 204 140 434 205 638h72l207 -638h55v-46zM441 239l-99 316l-22 74h-2c-1 -4 -4 -16 -23 -75c-17 -53 -47 -147 -98 -315h244zM467 727l-151 99l-150 -100l-18 22l149 133h39l150 -131z" />
    <glyph glyph-name="Atilde" unicode="&#xc3;" horiz-adv-x="636" 
d="M617 0h-187v46h71l-44 143h-277l-44 -143h74v-46h-190v46h58c64 204 140 434 205 638h72l207 -638h55v-46zM441 239l-99 316l-22 74h-2c-1 -4 -4 -16 -23 -75c-17 -53 -47 -147 -98 -315h244zM257 809c43 0 101 -39 132 -39l57 39l22 -18c-13 -37 -43 -67 -79 -67
c-56 0 -97 39 -132 39l-57 -39l-22 18c13 37 43 67 79 67z" />
    <glyph glyph-name="Adieresis" unicode="&#xc4;" horiz-adv-x="636" 
d="M617 0h-187v46h71l-44 143h-277l-44 -143h74v-46h-190v46h58c64 204 140 434 205 638h72l207 -638h55v-46zM441 239l-99 316l-22 74h-2c-1 -4 -4 -16 -23 -75c-17 -53 -47 -147 -98 -315h244zM408 727c-21 0 -36 15 -36 37c0 21 17 38 36 38c25 0 43 -15 43 -38
c0 -22 -18 -37 -43 -37zM230 727c-23 0 -40 15 -40 37c0 21 19 38 38 38c25 0 42 -15 42 -38c0 -22 -17 -37 -40 -37z" />
    <glyph glyph-name="Aring" unicode="&#xc5;" horiz-adv-x="636" 
d="M617 0h-187v46h71l-44 143h-277l-44 -143h74v-46h-190v46h58c64 204 140 434 205 638h72l207 -638h55v-46zM441 239l-99 316l-22 74h-2c-1 -4 -4 -16 -23 -75c-17 -53 -47 -147 -98 -315h244zM317 728c-57 0 -102 44 -102 98c0 53 45 99 102 99c55 0 99 -45 99 -99
c0 -55 -44 -98 -99 -98zM317 891c-40 0 -66 -29 -66 -67c0 -37 26 -65 66 -65c37 0 63 28 63 65s-26 67 -63 67z" />
    <glyph glyph-name="Ccedilla" unicode="&#xc7;" horiz-adv-x="545" 
d="M503 66l12 -43c-36 -14 -97 -25 -151 -29l-59 -76c64 -3 109 -26 109 -77c0 -53 -56 -102 -173 -99v31c71 7 120 25 120 61c0 37 -57 42 -104 43l-11 17l76 100c-195 3 -272 136 -272 343c0 140 57 356 285 356c75 0 132 -13 169 -27v-144h-48v107c-30 9 -76 16 -119 16
c-158 0 -229 -124 -229 -310c0 -156 38 -293 230 -293c38 0 109 6 165 24z" />
    <glyph glyph-name="Egrave" unicode="&#xc8;" horiz-adv-x="540" 
d="M40 0v46h66v591h-62v45h449v-134h-48v89h-282v-255l279 6v-54l-279 4v-292h297v89h50v-135h-470zM327 747l-29 -21l-131 139l49 40z" />
    <glyph glyph-name="Eacute" unicode="&#xc9;" horiz-adv-x="540" 
d="M40 0v46h66v591h-62v45h449v-134h-48v89h-282v-255l279 6v-54l-279 4v-292h297v89h50v-135h-470zM288 726l-29 21l111 158l49 -40z" />
    <glyph glyph-name="Ecircumflex" unicode="&#xca;" horiz-adv-x="540" 
d="M40 0v46h66v591h-62v45h449v-134h-48v89h-282v-255l279 6v-54l-279 4v-292h297v89h50v-135h-470zM445 727l-151 99l-150 -100l-18 22l149 133h39l150 -131z" />
    <glyph glyph-name="Edieresis" unicode="&#xcb;" horiz-adv-x="540" 
d="M40 0v46h66v591h-62v45h449v-134h-48v89h-282v-255l279 6v-54l-279 4v-292h297v89h50v-135h-470zM381 727c-21 0 -36 15 -36 37c0 21 17 38 36 38c25 0 43 -15 43 -38c0 -22 -18 -37 -43 -37zM203 727c-23 0 -40 15 -40 37c0 21 19 38 38 38c25 0 42 -15 42 -38
c0 -22 -17 -37 -40 -37z" />
    <glyph glyph-name="Igrave" unicode="&#xcc;" horiz-adv-x="321" 
d="M251 0h-181v46h61v591h-61v46h181v-46h-63v-591h63v-46zM189 747l-29 -21l-131 139l49 40z" />
    <glyph glyph-name="Iacute" unicode="&#xcd;" horiz-adv-x="321" 
d="M251 0h-181v46h61v591h-61v46h181v-46h-63v-591h63v-46zM162 726l-29 21l111 158l49 -40z" />
    <glyph glyph-name="Icircumflex" unicode="&#xce;" horiz-adv-x="321" 
d="M251 0h-181v46h61v591h-61v46h181v-46h-63v-591h63v-46zM311 727l-151 99l-150 -100l-18 22l149 133h39l150 -131z" />
    <glyph glyph-name="Idieresis" unicode="&#xcf;" horiz-adv-x="321" 
d="M251 0h-181v46h61v591h-61v46h181v-46h-63v-591h63v-46zM248 727c-21 0 -36 15 -36 37c0 21 17 38 36 38c25 0 43 -15 43 -38c0 -22 -18 -37 -43 -37zM70 727c-23 0 -40 15 -40 37c0 21 19 38 38 38c25 0 42 -15 42 -38c0 -22 -17 -37 -40 -37z" />
    <glyph glyph-name="Ntilde" unicode="&#xd1;" horiz-adv-x="699" 
d="M534 104h5v533h-70v46h190v-46h-65v-637h-53l-304 475l-73 117l-3 -1l1 -544h70v-47h-192v47h67v590h-67v46h128l282 -445zM289 812c43 0 101 -39 132 -39l57 39l22 -18c-13 -37 -43 -67 -79 -67c-56 0 -97 39 -132 39l-57 -39l-22 18c13 37 43 67 79 67z" />
    <glyph glyph-name="Ograve" unicode="&#xd2;" horiz-adv-x="648" 
d="M598 338c0 -196 -90 -345 -268 -345c-206 0 -280 131 -280 342c0 187 68 358 280 358c215 0 268 -173 268 -355zM540 335c0 138 -31 311 -210 311s-222 -156 -222 -313c0 -193 66 -293 222 -293c143 0 210 134 210 295zM337 747l-29 -21l-131 139l49 40z" />
    <glyph glyph-name="Oacute" unicode="&#xd3;" horiz-adv-x="648" 
d="M598 338c0 -196 -90 -345 -268 -345c-206 0 -280 131 -280 342c0 187 68 358 280 358c215 0 268 -173 268 -355zM540 335c0 138 -31 311 -210 311s-222 -156 -222 -313c0 -193 66 -293 222 -293c143 0 210 134 210 295zM326 726l-29 21l111 158l49 -40z" />
    <glyph glyph-name="Ocircumflex" unicode="&#xd4;" horiz-adv-x="648" 
d="M598 338c0 -196 -90 -345 -268 -345c-206 0 -280 131 -280 342c0 187 68 358 280 358c215 0 268 -173 268 -355zM540 335c0 138 -31 311 -210 311s-222 -156 -222 -313c0 -193 66 -293 222 -293c143 0 210 134 210 295zM480 727l-151 99l-150 -100l-18 22l149 133h39
l150 -131z" />
    <glyph glyph-name="Otilde" unicode="&#xd5;" horiz-adv-x="648" 
d="M598 338c0 -196 -90 -345 -268 -345c-206 0 -280 131 -280 342c0 187 68 358 280 358c215 0 268 -173 268 -355zM540 335c0 138 -31 311 -210 311s-222 -156 -222 -313c0 -193 66 -293 222 -293c143 0 210 134 210 295zM269 814c43 0 101 -39 132 -39l57 39l22 -18
c-13 -37 -43 -67 -79 -67c-56 0 -97 39 -132 39l-57 -39l-22 18c13 37 43 67 79 67z" />
    <glyph glyph-name="Odieresis" unicode="&#xd6;" horiz-adv-x="648" 
d="M598 338c0 -196 -90 -345 -268 -345c-206 0 -280 131 -280 342c0 187 68 358 280 358c215 0 268 -173 268 -355zM540 335c0 138 -31 311 -210 311s-222 -156 -222 -313c0 -193 66 -293 222 -293c143 0 210 134 210 295zM412 727c-21 0 -36 15 -36 37c0 21 17 38 36 38
c25 0 43 -15 43 -38c0 -22 -18 -37 -43 -37zM234 727c-23 0 -40 15 -40 37c0 21 19 38 38 38c25 0 42 -15 42 -38c0 -22 -17 -37 -40 -37z" />
    <glyph glyph-name="Oslash" unicode="&#xd8;" horiz-adv-x="648" 
d="M598 338c0 -196 -90 -345 -268 -345c-87 0 -151 23 -195 66l-47 -64h-42l66 90c-44 59 -62 145 -62 250c0 187 68 358 280 358c81 0 139 -25 180 -66l50 68h42l-69 -94c49 -67 65 -164 65 -263zM540 335c0 73 -9 155 -43 217l-329 -448c36 -43 89 -64 162 -64
c143 0 210 134 210 295zM108 333c0 -85 12 -151 40 -199l329 447c-32 39 -79 65 -147 65c-179 0 -222 -156 -222 -313z" />
    <glyph glyph-name="Ugrave" unicode="&#xd9;" horiz-adv-x="682" 
d="M533 637h-72v46h191v-46h-63v-394c0 -149 -82 -250 -250 -250c-173 0 -248 94 -248 250v394h-61v46h191v-46h-73v-393c0 -134 70 -203 191 -203c126 0 194 69 194 203v393zM368 747l-29 -21l-131 139l49 40z" />
    <glyph glyph-name="Uacute" unicode="&#xda;" horiz-adv-x="682" 
d="M533 637h-72v46h191v-46h-63v-394c0 -149 -82 -250 -250 -250c-173 0 -248 94 -248 250v394h-61v46h191v-46h-73v-393c0 -134 70 -203 191 -203c126 0 194 69 194 203v393zM355 726l-29 21l111 158l49 -40z" />
    <glyph glyph-name="Ucircumflex" unicode="&#xdb;" horiz-adv-x="682" 
d="M533 637h-72v46h191v-46h-63v-394c0 -149 -82 -250 -250 -250c-173 0 -248 94 -248 250v394h-61v46h191v-46h-73v-393c0 -134 70 -203 191 -203c126 0 194 69 194 203v393zM504 727l-157 98l-156 -99l-18 22l154 131h41l156 -129z" />
    <glyph glyph-name="Udieresis" unicode="&#xdc;" horiz-adv-x="682" 
d="M533 637h-72v46h191v-46h-63v-394c0 -149 -82 -250 -250 -250c-173 0 -248 94 -248 250v394h-61v46h191v-46h-73v-393c0 -134 70 -203 191 -203c126 0 194 69 194 203v393zM434 727c-21 0 -36 15 -36 37c0 21 17 38 36 38c25 0 43 -15 43 -38c0 -22 -18 -37 -43 -37z
M256 727c-23 0 -40 15 -40 37c0 21 19 38 38 38c25 0 42 -15 42 -38c0 -22 -17 -37 -40 -37z" />
    <glyph glyph-name="Yacute" unicode="&#xdd;" horiz-adv-x="550" 
d="M273 360h4l155 277h-67v46h175v-46h-52l-185 -327v-264h82v-46h-222v46h82v261l-181 330h-54v46h179v-46h-65zM281 725l-29 21l111 158l49 -40z" />
    <glyph glyph-name="Thorn" unicode="&#xde;" horiz-adv-x="542" 
d="M160 204h155c68 0 140 35 140 153c0 101 -63 150 -143 150h-152v-303zM160 553h150c110 0 202 -61 202 -193c0 -76 -38 -202 -194 -202h-158v-112h84v-46h-204v46h63v591h-63v46h204v-46h-84v-84z" />
    <glyph glyph-name="agrave" unicode="&#xe0;" horiz-adv-x="478" 
d="M341 239l-137 -7c-73 -4 -110 -40 -110 -96c0 -62 30 -96 100 -96c47 0 96 20 147 66v133zM394 336v-290h70l4 -33c-22 -11 -54 -17 -73 -17c-34 0 -53 10 -54 59l-2 1c-78 -64 -136 -63 -167 -63c-109 0 -137 84 -137 139c0 91 74 138 176 143l130 7v40
c0 93 -26 122 -110 122c-48 0 -99 -10 -150 -28l-15 40c54 25 119 39 177 39c96 0 151 -42 151 -159zM286 557l-29 -21l-131 139l49 40z" />
    <glyph glyph-name="aacute" unicode="&#xe1;" horiz-adv-x="478" 
d="M341 239l-137 -7c-73 -4 -110 -40 -110 -96c0 -62 30 -96 100 -96c47 0 96 20 147 66v133zM394 336v-290h70l4 -33c-22 -11 -54 -17 -73 -17c-34 0 -53 10 -54 59l-2 1c-78 -64 -136 -63 -167 -63c-109 0 -137 84 -137 139c0 91 74 138 176 143l130 7v40
c0 93 -26 122 -110 122c-48 0 -99 -10 -150 -28l-15 40c54 25 119 39 177 39c96 0 151 -42 151 -159zM241 536l-29 21l111 158l49 -40z" />
    <glyph glyph-name="acircumflex" unicode="&#xe2;" horiz-adv-x="478" 
d="M341 239l-137 -7c-73 -4 -110 -40 -110 -96c0 -62 30 -96 100 -96c47 0 96 20 147 66v133zM394 336v-290h70l4 -33c-22 -11 -54 -17 -73 -17c-34 0 -53 10 -54 59l-2 1c-78 -64 -136 -63 -167 -63c-109 0 -137 84 -137 139c0 91 74 138 176 143l130 7v40
c0 93 -26 122 -110 122c-48 0 -99 -10 -150 -28l-15 40c54 25 119 39 177 39c96 0 151 -42 151 -159zM388 533l-151 99l-150 -100l-18 22l149 139h39l150 -137z" />
    <glyph glyph-name="atilde" unicode="&#xe3;" horiz-adv-x="478" 
d="M341 239l-137 -7c-73 -4 -110 -40 -110 -96c0 -62 30 -96 100 -96c47 0 96 20 147 66v133zM394 336v-290h70l4 -33c-22 -11 -54 -17 -73 -17c-34 0 -53 10 -54 59l-2 1c-78 -64 -136 -63 -167 -63c-109 0 -137 84 -137 139c0 91 74 138 176 143l130 7v40
c0 93 -26 122 -110 122c-48 0 -99 -10 -150 -28l-15 40c54 25 119 39 177 39c96 0 151 -42 151 -159zM166 621c43 0 101 -39 132 -39l57 39l22 -18c-13 -37 -43 -67 -79 -67c-56 0 -97 39 -132 39l-57 -39l-22 18c13 37 43 67 79 67z" />
    <glyph glyph-name="adieresis" unicode="&#xe4;" horiz-adv-x="478" 
d="M341 239l-137 -7c-73 -4 -110 -40 -110 -96c0 -62 30 -96 100 -96c47 0 96 20 147 66v133zM394 336v-290h70l4 -33c-22 -11 -54 -17 -73 -17c-34 0 -53 10 -54 59l-2 1c-78 -64 -136 -63 -167 -63c-109 0 -137 84 -137 139c0 91 74 138 176 143l130 7v40
c0 93 -26 122 -110 122c-48 0 -99 -10 -150 -28l-15 40c54 25 119 39 177 39c96 0 151 -42 151 -159zM306 535c-21 0 -36 15 -36 37c0 21 17 38 36 38c25 0 43 -15 43 -38c0 -22 -18 -37 -43 -37zM128 535c-23 0 -40 15 -40 37c0 21 19 38 38 38c25 0 42 -15 42 -38
c0 -22 -17 -37 -40 -37z" />
    <glyph glyph-name="aring" unicode="&#xe5;" horiz-adv-x="478" 
d="M341 239l-137 -7c-73 -4 -110 -40 -110 -96c0 -62 30 -96 100 -96c47 0 96 20 147 66v133zM394 336v-290h70l4 -33c-22 -11 -54 -17 -73 -17c-34 0 -53 10 -54 59l-2 1c-78 -64 -136 -63 -167 -63c-109 0 -137 84 -137 139c0 91 74 138 176 143l130 7v40
c0 93 -26 122 -110 122c-48 0 -99 -10 -150 -28l-15 40c54 25 119 39 177 39c96 0 151 -42 151 -159zM239 536c-57 0 -102 44 -102 98c0 53 45 99 102 99c55 0 99 -45 99 -99c0 -55 -44 -98 -99 -98zM239 699c-40 0 -66 -29 -66 -67c0 -37 26 -65 66 -65c37 0 63 28 63 65
s-26 67 -63 67z" />
    <glyph glyph-name="ccedilla" unicode="&#xe7;" horiz-adv-x="433" 
d="M249 498c53 0 105 -11 142 -28v-118h-44v86c-35 11 -62 14 -95 14c-110 0 -156 -92 -156 -215c0 -108 32 -198 146 -198c53 0 95 12 148 34l16 -36c-36 -21 -90 -38 -147 -41l-47 -61c64 -3 109 -26 109 -77c0 -53 -56 -102 -173 -99v31c71 7 120 25 120 61
c0 37 -57 42 -104 43l-11 17l65 85c-132 10 -178 108 -178 241c0 99 36 261 209 261z" />
    <glyph glyph-name="egrave" unicode="&#xe8;" horiz-adv-x="462" 
d="M242 497c189 0 184 -183 184 -230v-38h-330c-1 -97 28 -189 146 -189c59 0 98 11 155 36l16 -37c-55 -30 -106 -44 -170 -44c-164 0 -203 110 -203 247c0 77 21 255 202 255zM242 450c-104 0 -138 -84 -145 -175h275c0 104 -31 175 -130 175zM259 557l-29 -21l-131 139
l49 40z" />
    <glyph glyph-name="eacute" unicode="&#xe9;" horiz-adv-x="462" 
d="M242 497c189 0 184 -183 184 -230v-38h-330c-1 -97 28 -189 146 -189c59 0 98 11 155 36l16 -37c-55 -30 -106 -44 -170 -44c-164 0 -203 110 -203 247c0 77 21 255 202 255zM242 450c-104 0 -138 -84 -145 -175h275c0 104 -31 175 -130 175zM252 536l-29 21l111 158
l49 -40z" />
    <glyph glyph-name="ecircumflex" unicode="&#xea;" horiz-adv-x="462" 
d="M242 497c189 0 184 -183 184 -230v-38h-330c-1 -97 28 -189 146 -189c59 0 98 11 155 36l16 -37c-55 -30 -106 -44 -170 -44c-164 0 -203 110 -203 247c0 77 21 255 202 255zM242 450c-104 0 -138 -84 -145 -175h275c0 104 -31 175 -130 175zM391 533l-151 99l-150 -100
l-18 22l149 139h39l150 -137z" />
    <glyph glyph-name="edieresis" unicode="&#xeb;" horiz-adv-x="462" 
d="M242 497c189 0 184 -183 184 -230v-38h-330c-1 -97 28 -189 146 -189c59 0 98 11 155 36l16 -37c-55 -30 -106 -44 -170 -44c-164 0 -203 110 -203 247c0 77 21 255 202 255zM242 450c-104 0 -138 -84 -145 -175h275c0 104 -31 175 -130 175zM334 535
c-21 0 -36 15 -36 37c0 21 17 38 36 38c25 0 43 -15 43 -38c0 -22 -18 -37 -43 -37zM156 535c-23 0 -40 15 -40 37c0 21 19 38 38 38c25 0 42 -15 42 -38c0 -22 -17 -37 -40 -37z" />
    <glyph glyph-name="igrave" unicode="&#xec;" horiz-adv-x="267" 
d="M111 443h-58v44h111v-441h74v-33c-22 -11 -54 -17 -73 -17c-34 0 -53 10 -54 59v388zM145 557l-29 -21l-131 139l49 40z" />
    <glyph glyph-name="iacute" unicode="&#xed;" horiz-adv-x="267" 
d="M111 443h-58v44h111v-441h74v-33c-22 -11 -54 -17 -73 -17c-34 0 -53 10 -54 59v388zM129 536l-29 21l111 158l49 -40z" />
    <glyph glyph-name="icircumflex" unicode="&#xee;" horiz-adv-x="267" 
d="M111 443h-58v44h111v-441h74v-33c-22 -11 -54 -17 -73 -17c-34 0 -53 10 -54 59v388zM290 533l-151 99l-150 -100l-18 22l149 139h39l150 -137z" />
    <glyph glyph-name="idieresis" unicode="&#xef;" horiz-adv-x="260" 
d="M111 443h-58v44h111v-441h74v-33c-22 -11 -54 -17 -73 -17c-34 0 -53 10 -54 59v388zM216 535c-21 0 -36 15 -36 37c0 21 17 38 36 38c25 0 43 -15 43 -38c0 -22 -18 -37 -43 -37zM38 535c-23 0 -40 15 -40 37c0 21 19 38 38 38c25 0 42 -15 42 -38
c0 -22 -17 -37 -40 -37z" />
    <glyph glyph-name="ntilde" unicode="&#xf1;" horiz-adv-x="556" 
d="M324 498c135 0 136 -88 136 -152v-300h74v-33c-22 -11 -54 -17 -73 -17c-34 0 -53 10 -54 59v276c0 72 -6 119 -91 119c-52 0 -120 -27 -166 -52v-398h-54v443h-76v44h130v-40l3 -2c56 34 124 53 171 53zM187 634c43 0 101 -39 132 -39l57 39l22 -18
c-13 -37 -43 -67 -79 -67c-56 0 -97 39 -132 39l-57 -39l-22 18c13 37 43 67 79 67z" />
    <glyph glyph-name="ograve" unicode="&#xf2;" horiz-adv-x="481" 
d="M385 240c0 91 -21 210 -140 210s-148 -111 -148 -211c0 -103 21 -199 148 -199c117 0 140 108 140 200zM245 497c156 0 196 -131 196 -255c0 -120 -42 -249 -207 -249c-152 0 -194 119 -194 247c0 126 53 257 205 257zM263 557l-29 -21l-131 139l49 40z" />
    <glyph glyph-name="oacute" unicode="&#xf3;" horiz-adv-x="481" 
d="M385 240c0 91 -21 210 -140 210s-148 -111 -148 -211c0 -103 21 -199 148 -199c117 0 140 108 140 200zM245 497c156 0 196 -131 196 -255c0 -120 -42 -249 -207 -249c-152 0 -194 119 -194 247c0 126 53 257 205 257zM248 536l-29 21l111 158l49 -40z" />
    <glyph glyph-name="ocircumflex" unicode="&#xf4;" horiz-adv-x="481" 
d="M385 240c0 91 -21 210 -140 210s-148 -111 -148 -211c0 -103 21 -199 148 -199c117 0 140 108 140 200zM245 497c156 0 196 -131 196 -255c0 -120 -42 -249 -207 -249c-152 0 -194 119 -194 247c0 126 53 257 205 257zM395 533l-151 99l-150 -100l-18 22l149 139h39
l150 -137z" />
    <glyph glyph-name="otilde" unicode="&#xf5;" horiz-adv-x="481" 
d="M385 240c0 91 -21 210 -140 210s-148 -111 -148 -211c0 -103 21 -199 148 -199c117 0 140 108 140 200zM245 497c156 0 196 -131 196 -255c0 -120 -42 -249 -207 -249c-152 0 -194 119 -194 247c0 126 53 257 205 257zM180 621c43 0 101 -39 132 -39l57 39l22 -18
c-13 -37 -43 -67 -79 -67c-56 0 -97 39 -132 39l-57 -39l-22 18c13 37 43 67 79 67z" />
    <glyph glyph-name="odieresis" unicode="&#xf6;" horiz-adv-x="481" 
d="M385 240c0 91 -21 210 -140 210s-148 -111 -148 -211c0 -103 21 -199 148 -199c117 0 140 108 140 200zM245 497c156 0 196 -131 196 -255c0 -120 -42 -249 -207 -249c-152 0 -194 119 -194 247c0 126 53 257 205 257zM336 535c-21 0 -36 15 -36 37c0 21 17 38 36 38
c25 0 43 -15 43 -38c0 -22 -18 -37 -43 -37zM158 535c-23 0 -40 15 -40 37c0 21 19 38 38 38c25 0 42 -15 42 -38c0 -22 -17 -37 -40 -37z" />
    <glyph glyph-name="oslash" unicode="&#xf8;" horiz-adv-x="481" 
d="M245 497c59 0 101 -19 131 -49l35 48l33 1l-51 -69c36 -50 48 -119 48 -186c0 -120 -42 -249 -207 -249c-58 0 -100 17 -129 45l-33 -44l-36 -1l50 67c-34 46 -46 112 -46 180c0 126 53 257 205 257zM385 240c0 46 -6 99 -27 141l-221 -300c22 -25 56 -41 108 -41
c117 0 140 108 140 200zM245 450c-119 0 -148 -111 -148 -211c0 -49 5 -97 23 -133l223 299c-21 27 -52 45 -98 45z" />
    <glyph glyph-name="ugrave" unicode="&#xf9;" horiz-adv-x="547" 
d="M232 -11c-135 0 -136 88 -136 152v302h-76v44h129v-331c0 -72 6 -119 91 -119c41 0 107 23 158 69v337h-72v44l125 1v-1h1l-1 -441h70l4 -33c-22 -11 -54 -17 -73 -17c-34 0 -53 10 -54 59l-2 1c-65 -59 -133 -67 -164 -67zM286 557l-29 -21l-131 139l49 40z" />
    <glyph glyph-name="uacute" unicode="&#xfa;" horiz-adv-x="547" 
d="M232 -11c-135 0 -136 88 -136 152v302h-76v44h129v-331c0 -72 6 -119 91 -119c41 0 107 23 158 69v337h-72v44l125 1v-1h1l-1 -441h70l4 -33c-22 -11 -54 -17 -73 -17c-34 0 -53 10 -54 59l-2 1c-65 -59 -133 -67 -164 -67zM252 536l-29 21l111 158l49 -40z" />
    <glyph glyph-name="ucircumflex" unicode="&#xfb;" horiz-adv-x="547" 
d="M232 -11c-135 0 -136 88 -136 152v302h-76v44h129v-331c0 -72 6 -119 91 -119c41 0 107 23 158 69v337h-72v44l125 1v-1h1l-1 -441h70l4 -33c-22 -11 -54 -17 -73 -17c-34 0 -53 10 -54 59l-2 1c-65 -59 -133 -67 -164 -67zM411 533l-151 99l-150 -100l-18 22l149 139h39
l150 -137z" />
    <glyph glyph-name="udieresis" unicode="&#xfc;" horiz-adv-x="547" 
d="M232 -11c-135 0 -136 88 -136 152v302h-76v44h129v-331c0 -72 6 -119 91 -119c41 0 107 23 158 69v337h-72v44l125 1v-1h1l-1 -441h70l4 -33c-22 -11 -54 -17 -73 -17c-34 0 -53 10 -54 59l-2 1c-65 -59 -133 -67 -164 -67zM351 535c-21 0 -36 15 -36 37
c0 21 17 38 36 38c25 0 43 -15 43 -38c0 -22 -18 -37 -43 -37zM173 535c-23 0 -40 15 -40 37c0 21 19 38 38 38c25 0 42 -15 42 -38c0 -22 -17 -37 -40 -37z" />
    <glyph glyph-name="yacute" unicode="&#xfd;" horiz-adv-x="503" 
d="M250 43l36 109l95 290h-66v45h169v-45h-51l-184 -557c-23 -71 -54 -99 -112 -99c-11 0 -41 -2 -104 16l10 41c32 -6 60 -12 83 -12c35 0 60 15 78 70l32 99h-27l-143 442h-50v45h92l104 -333l33 -111h5zM227 536l-29 21l111 158l49 -40z" />
    <glyph glyph-name="thorn" unicode="&#xfe;" horiz-adv-x="507" 
d="M5 -208v44h79v804h-82v44h137v-247c37 30 93 56 150 56c134 0 178 -112 178 -241c0 -148 -52 -263 -192 -263c-39 0 -98 11 -136 38v-191h86v-44h-220zM139 390v-314c21 -17 84 -39 133 -39c77 0 138 54 138 217c0 143 -51 191 -132 191c-44 0 -115 -30 -139 -55z" />
    <glyph glyph-name="ydieresis" unicode="&#xff;" horiz-adv-x="503" 
d="M250 43l36 109l95 290h-66v45h169v-45h-51l-184 -557c-23 -71 -54 -99 -112 -99c-11 0 -41 -2 -104 16l10 41c32 -6 60 -12 83 -12c35 0 60 15 78 70l32 99h-27l-143 442h-50v45h92l104 -333l33 -111h5zM327 535c-21 0 -36 15 -36 37c0 21 17 38 36 38
c25 0 43 -15 43 -38c0 -22 -18 -37 -43 -37zM149 535c-23 0 -40 15 -40 37c0 21 19 38 38 38c25 0 42 -15 42 -38c0 -22 -17 -37 -40 -37z" />
    <glyph glyph-name="Amacron" unicode="&#x100;" horiz-adv-x="636" 
d="M617 0h-187v46h71l-44 143h-277l-44 -143h74v-46h-190v46h58c64 204 140 434 205 638h72l207 -638h55v-46zM441 239l-99 316l-22 74h-2c-1 -4 -4 -16 -23 -75c-17 -53 -47 -147 -98 -315h244zM164 798h313v-51h-313v51z" />
    <glyph glyph-name="amacron" unicode="&#x101;" horiz-adv-x="478" 
d="M341 239l-137 -7c-73 -4 -110 -40 -110 -96c0 -62 30 -96 100 -96c47 0 96 20 147 66v133zM394 336v-290h70l4 -33c-22 -11 -54 -17 -73 -17c-34 0 -53 10 -54 59l-2 1c-78 -64 -136 -63 -167 -63c-109 0 -137 84 -137 139c0 91 74 138 176 143l130 7v40
c0 93 -26 122 -110 122c-48 0 -99 -10 -150 -28l-15 40c54 25 119 39 177 39c96 0 151 -42 151 -159zM78 603h303v-48h-303v48z" />
    <glyph glyph-name="Abreve" unicode="&#x102;" horiz-adv-x="636" 
d="M617 0h-187v46h71l-44 143h-277l-44 -143h74v-46h-190v46h58c64 204 140 434 205 638h72l207 -638h55v-46zM441 239l-99 316l-22 74h-2c-1 -4 -4 -16 -23 -75c-17 -53 -47 -147 -98 -315h244zM314 727c-67 0 -114 53 -152 104l41 28c34 -46 75 -81 114 -81
c25 0 69 6 138 74l22 -19c-56 -77 -113 -106 -163 -106z" />
    <glyph glyph-name="abreve" unicode="&#x103;" horiz-adv-x="478" 
d="M341 239l-137 -7c-73 -4 -110 -40 -110 -96c0 -62 30 -96 100 -96c47 0 96 20 147 66v133zM394 336v-290h70l4 -33c-22 -11 -54 -17 -73 -17c-34 0 -53 10 -54 59l-2 1c-78 -64 -136 -63 -167 -63c-109 0 -137 84 -137 139c0 91 74 138 176 143l130 7v40
c0 93 -26 122 -110 122c-48 0 -99 -10 -150 -28l-15 40c54 25 119 39 177 39c96 0 151 -42 151 -159zM238 541c-67 0 -114 53 -152 104l38 26c34 -46 78 -84 117 -84c25 0 69 6 138 74l22 -19c-56 -77 -113 -101 -163 -101z" />
    <glyph glyph-name="Aogonek" unicode="&#x104;" horiz-adv-x="636" 
d="M617 0h-70c-30 -38 -49 -90 -49 -120c0 -58 97 -38 135 -29l5 -26c-30 -15 -67 -25 -103 -25c-59 0 -91 26 -91 68c0 33 12 83 68 132h-82v46h71l-44 143h-277l-44 -143h74v-46h-190v46h58c64 204 140 434 205 638h72l207 -638h55v-46zM441 239l-99 316l-22 74h-2
c-1 -4 -4 -16 -23 -75c-17 -53 -47 -147 -98 -315h244z" />
    <glyph glyph-name="aogonek" unicode="&#x105;" horiz-adv-x="478" 
d="M394 336v-290h70l4 -33c-11 -6 -24 -10 -37 -13c-31 -37 -50 -90 -50 -120c0 -58 97 -38 135 -29l5 -26c-30 -15 -67 -25 -103 -25c-59 0 -91 26 -91 68c0 32 12 80 64 128c-32 1 -49 12 -50 59l-2 1c-78 -64 -136 -63 -167 -63c-109 0 -137 84 -137 139
c0 91 74 138 176 143l130 7v40c0 93 -26 122 -110 122c-48 0 -99 -10 -150 -28l-15 40c54 25 119 39 177 39c96 0 151 -42 151 -159zM341 239l-137 -7c-73 -4 -110 -40 -110 -96c0 -62 30 -96 100 -96c47 0 96 20 147 66v133z" />
    <glyph glyph-name="Cacute" unicode="&#x106;" horiz-adv-x="545" 
d="M503 66l12 -43c-43 -17 -124 -30 -184 -30c-202 0 -281 134 -281 344c0 140 57 356 285 356c75 0 132 -13 169 -27v-144h-48v107c-30 9 -76 16 -119 16c-158 0 -229 -124 -229 -310c0 -156 38 -293 230 -293c38 0 109 6 165 24zM340 726l-29 21l111 158l49 -40z" />
    <glyph glyph-name="cacute" unicode="&#x107;" horiz-adv-x="433" 
d="M249 498c53 0 105 -11 142 -28v-118h-44v86c-35 11 -62 14 -95 14c-110 0 -156 -92 -156 -215c0 -108 32 -198 146 -198c53 0 95 12 148 34l16 -36c-39 -23 -100 -42 -163 -42c-151 0 -203 101 -203 242c0 99 36 261 209 261zM237 536l-29 21l111 158l49 -40z" />
    <glyph glyph-name="Ccircumflex" unicode="&#x108;" horiz-adv-x="545" 
d="M503 66l12 -43c-43 -17 -124 -30 -184 -30c-202 0 -281 134 -281 344c0 140 57 356 285 356c75 0 132 -13 169 -27v-144h-48v107c-30 9 -76 16 -119 16c-158 0 -229 -124 -229 -310c0 -156 38 -293 230 -293c38 0 109 6 165 24zM476 727l-151 99l-150 -100l-18 22
l149 133h39l150 -131z" />
    <glyph glyph-name="ccircumflex" unicode="&#x109;" horiz-adv-x="433" 
d="M249 498c53 0 105 -11 142 -28v-118h-44v86c-35 11 -62 14 -95 14c-110 0 -156 -92 -156 -215c0 -108 32 -198 146 -198c53 0 95 12 148 34l16 -36c-39 -23 -100 -42 -163 -42c-151 0 -203 101 -203 242c0 99 36 261 209 261zM397 533l-151 99l-150 -100l-18 22l149 139
h39l150 -137z" />
    <glyph glyph-name="Cdotaccent" unicode="&#x10a;" horiz-adv-x="545" 
d="M503 66l12 -43c-43 -17 -124 -30 -184 -30c-202 0 -281 134 -281 344c0 140 57 356 285 356c75 0 132 -13 169 -27v-144h-48v107c-30 9 -76 16 -119 16c-158 0 -229 -124 -229 -310c0 -156 38 -293 230 -293c38 0 109 6 165 24zM281 778c0 24 19 43 42 43
c24 0 43 -19 43 -43c0 -23 -19 -42 -43 -42c-23 0 -42 19 -42 42z" />
    <glyph glyph-name="cdotaccent" unicode="&#x10b;" horiz-adv-x="433" 
d="M249 498c53 0 105 -11 142 -28v-118h-44v86c-35 11 -62 14 -95 14c-110 0 -156 -92 -156 -215c0 -108 32 -198 146 -198c53 0 95 12 148 34l16 -36c-39 -23 -100 -42 -163 -42c-151 0 -203 101 -203 242c0 99 36 261 209 261zM209 581c0 23 17 41 38 41s38 -18 38 -41
s-17 -41 -38 -41s-38 18 -38 41z" />
    <glyph glyph-name="Ccaron" unicode="&#x10c;" horiz-adv-x="545" 
d="M503 66l12 -43c-43 -17 -124 -30 -184 -30c-202 0 -281 134 -281 344c0 140 57 356 285 356c75 0 132 -13 169 -27v-144h-48v107c-30 9 -76 16 -119 16c-158 0 -229 -124 -229 -310c0 -156 38 -293 230 -293c38 0 109 6 165 24zM326 788l151 99l19 -23l-150 -130h-39
l-149 132l18 22z" />
    <glyph glyph-name="ccaron" unicode="&#x10d;" horiz-adv-x="433" 
d="M249 498c53 0 105 -11 142 -28v-118h-44v86c-35 11 -62 14 -95 14c-110 0 -156 -92 -156 -215c0 -108 32 -198 146 -198c53 0 95 12 148 34l16 -36c-39 -23 -100 -42 -163 -42c-151 0 -203 101 -203 242c0 99 36 261 209 261zM256 596l151 99l19 -23l-150 -128h-39
l-149 130l18 22z" />
    <glyph glyph-name="Dcaron" unicode="&#x10e;" horiz-adv-x="633" 
d="M583 343c0 -188 -62 -343 -279 -343h-264v46h68v591h-64v46h270c213 0 269 -158 269 -340zM526 335c0 297 -156 302 -222 302h-137v-590h129c57 0 230 -4 230 288zM272 788l151 99l19 -23l-150 -130h-39l-149 132l18 22z" />
    <glyph glyph-name="dcaron" unicode="&#x10f;" horiz-adv-x="594" 
d="M497 694c0 23 20 43 44 43c26 0 48 -20 47 -52c-2 -43 -24 -76 -71 -100l-14 18c17 17 25 32 24 49c-18 6 -30 22 -30 42zM368 45l-2 3c-37 -29 -92 -54 -148 -54c-134 0 -178 112 -178 241c0 148 52 263 192 263c39 0 98 -11 136 -38v205h-86v44h141v-666h79v-43h-134
v45zM368 97v314c-21 17 -84 39 -133 39c-77 0 -138 -54 -138 -217c0 -143 51 -191 132 -191c44 0 115 30 139 55z" />
    <glyph glyph-name="dcroat" unicode="&#x111;" horiz-adv-x="512" 
d="M368 45l-2 3c-37 -29 -92 -54 -148 -54c-134 0 -178 112 -178 241c0 148 52 255 192 255c39 0 98 -11 136 -38v91h-156v42h156v80h-86v44h141v-124h79v-42h-79v-500h79v-43h-134v45zM368 97v306c-21 17 -84 39 -133 39c-77 0 -138 -46 -138 -209c0 -143 51 -191 132 -191
c44 0 115 30 139 55z" />
    <glyph glyph-name="Emacron" unicode="&#x112;" horiz-adv-x="540" 
d="M40 0v46h66v591h-62v45h449v-134h-48v89h-282v-255l279 6v-54l-279 4v-292h297v89h50v-135h-470zM142 798h313v-51h-313v51z" />
    <glyph glyph-name="emacron" unicode="&#x113;" horiz-adv-x="462" 
d="M242 497c189 0 184 -183 184 -230v-38h-330c-1 -97 28 -189 146 -189c59 0 98 11 155 36l16 -37c-55 -30 -106 -44 -170 -44c-164 0 -203 110 -203 247c0 77 21 255 202 255zM242 450c-104 0 -138 -84 -145 -175h275c0 104 -31 175 -130 175zM102 603h303v-48h-303v48z
" />
    <glyph glyph-name="Ebreve" unicode="&#x114;" horiz-adv-x="540" 
d="M40 0v46h66v591h-62v45h449v-134h-48v89h-282v-255l279 6v-54l-279 4v-292h297v89h50v-135h-470zM292 727c-67 0 -114 53 -152 104l41 28c34 -46 75 -81 114 -81c25 0 69 6 138 74l22 -19c-56 -77 -113 -106 -163 -106z" />
    <glyph glyph-name="ebreve" unicode="&#x115;" horiz-adv-x="462" 
d="M242 497c189 0 184 -183 184 -230v-38h-330c-1 -97 28 -189 146 -189c59 0 98 11 155 36l16 -37c-55 -30 -106 -44 -170 -44c-164 0 -203 110 -203 247c0 77 21 255 202 255zM242 450c-104 0 -138 -84 -145 -175h275c0 104 -31 175 -130 175zM238 541
c-67 0 -114 53 -152 104l38 26c34 -46 78 -84 117 -84c25 0 69 6 138 74l22 -19c-56 -77 -113 -101 -163 -101z" />
    <glyph glyph-name="Edotaccent" unicode="&#x116;" horiz-adv-x="540" 
d="M40 0v46h66v591h-62v45h449v-134h-48v89h-282v-255l279 6v-54l-279 4v-292h297v89h50v-135h-470zM253 772c0 24 19 43 42 43c24 0 43 -19 43 -43c0 -23 -19 -42 -43 -42c-23 0 -42 19 -42 42z" />
    <glyph glyph-name="edotaccent" unicode="&#x117;" horiz-adv-x="462" 
d="M242 497c189 0 184 -183 184 -230v-38h-330c-1 -97 28 -189 146 -189c59 0 98 11 155 36l16 -37c-55 -30 -106 -44 -170 -44c-164 0 -203 110 -203 247c0 77 21 255 202 255zM242 450c-104 0 -138 -84 -145 -175h275c0 104 -31 175 -130 175zM195 578c0 24 19 43 42 43
c24 0 43 -19 43 -43c0 -23 -19 -42 -43 -42c-23 0 -42 19 -42 42z" />
    <glyph glyph-name="Eogonek" unicode="&#x118;" horiz-adv-x="540" 
d="M40 0v46h66v591h-62v45h449v-134h-48v89h-282v-255l279 6v-54l-279 4v-292h297v89h50v-135h-54c-30 -38 -49 -90 -49 -120c0 -58 97 -38 135 -29l5 -26c-30 -15 -67 -25 -103 -25c-59 0 -91 26 -91 68c0 33 12 83 68 132h-381z" />
    <glyph glyph-name="eogonek" unicode="&#x119;" horiz-adv-x="462" 
d="M242 497c189 0 184 -183 184 -230v-38h-330c-1 -97 28 -189 146 -189c59 0 98 11 155 36l16 -37l-22 -11c-30 -38 -49 -90 -49 -120c0 -58 97 -38 135 -29l5 -26c-30 -15 -67 -25 -103 -25c-59 0 -91 26 -91 68c0 28 9 69 47 110c-29 -7 -59 -11 -92 -11
c-164 0 -203 110 -203 247c0 77 21 255 202 255zM242 450c-104 0 -138 -84 -145 -175h275c0 104 -31 175 -130 175z" />
    <glyph glyph-name="Ecaron" unicode="&#x11a;" horiz-adv-x="540" 
d="M40 0v46h66v591h-62v45h449v-134h-48v89h-282v-255l279 6v-54l-279 4v-292h297v89h50v-135h-470zM303 788l151 99l19 -23l-150 -130h-39l-149 132l18 22z" />
    <glyph glyph-name="ecaron" unicode="&#x11b;" horiz-adv-x="462" 
d="M242 497c189 0 184 -183 184 -230v-38h-330c-1 -97 28 -189 146 -189c59 0 98 11 155 36l16 -37c-55 -30 -106 -44 -170 -44c-164 0 -203 110 -203 247c0 77 21 255 202 255zM242 450c-104 0 -138 -84 -145 -175h275c0 104 -31 175 -130 175zM241 596l151 99l19 -23
l-150 -128h-39l-149 130l18 22z" />
    <glyph glyph-name="Gcircumflex" unicode="&#x11c;" horiz-adv-x="606" 
d="M350 693c75 0 132 -13 169 -27v-144h-48v107c-30 9 -76 16 -119 16c-169 0 -244 -124 -244 -310c0 -156 42 -292 228 -292c38 0 100 5 133 17v243h-103v45h210v-45h-52v-281c-63 -20 -131 -29 -195 -29c-199 0 -279 134 -279 344c0 140 56 356 300 356zM493 727l-151 99
l-150 -100l-18 22l149 133h39l150 -131z" />
    <glyph glyph-name="gcircumflex" unicode="&#x11d;" horiz-adv-x="482" 
d="M387 443l-2 -5c25 -25 37 -64 37 -109c0 -104 -79 -165 -195 -165h-53c-17 0 -32 0 -45 -2c-26 -5 -41 -15 -41 -36c0 -24 23 -37 56 -37h120c117 0 181 -56 181 -150c0 -99 -97 -154 -218 -154c-153 0 -199 68 -199 145c0 58 38 103 65 117c-40 7 -61 31 -62 70
c-2 66 54 80 83 83c-32 16 -68 52 -68 126c0 128 102 176 188 173c28 -1 55 -4 81 -12h150v-44h-78zM233 450c-84 0 -129 -42 -129 -121c0 -72 47 -119 117 -119c84 0 144 38 144 119c0 53 -28 121 -132 121zM260 39h-112c-29 -9 -66 -57 -66 -100c0 -57 35 -108 154 -108
c87 0 155 43 155 108c0 45 -29 100 -131 100zM387 533l-151 99l-150 -100l-18 22l149 139h39l150 -137z" />
    <glyph glyph-name="Gbreve" unicode="&#x11e;" horiz-adv-x="606" 
d="M350 693c75 0 132 -13 169 -27v-144h-48v107c-30 9 -76 16 -119 16c-169 0 -244 -124 -244 -310c0 -156 42 -292 228 -292c38 0 100 5 133 17v243h-103v45h210v-45h-52v-281c-63 -20 -131 -29 -195 -29c-199 0 -279 134 -279 344c0 140 56 356 300 356zM337 727
c-67 0 -114 53 -152 104l41 28c34 -46 75 -81 114 -81c25 0 69 6 138 74l22 -19c-56 -77 -113 -106 -163 -106z" />
    <glyph glyph-name="gbreve" unicode="&#x11f;" horiz-adv-x="482" 
d="M387 443l-2 -5c25 -25 37 -64 37 -109c0 -104 -79 -165 -195 -165h-53c-17 0 -32 0 -45 -2c-26 -5 -41 -15 -41 -36c0 -24 23 -37 56 -37h120c117 0 181 -56 181 -150c0 -99 -97 -154 -218 -154c-153 0 -199 68 -199 145c0 58 38 103 65 117c-40 7 -61 31 -62 70
c-2 66 54 80 83 83c-32 16 -68 52 -68 126c0 128 102 176 188 173c28 -1 55 -4 81 -12h150v-44h-78zM233 450c-84 0 -129 -42 -129 -121c0 -72 47 -119 117 -119c84 0 144 38 144 119c0 53 -28 121 -132 121zM260 39h-112c-29 -9 -66 -57 -66 -100c0 -57 35 -108 154 -108
c87 0 155 43 155 108c0 45 -29 100 -131 100zM226 541c-67 0 -114 53 -152 104l38 26c34 -46 78 -84 117 -84c25 0 69 6 138 74l22 -19c-56 -77 -113 -101 -163 -101z" />
    <glyph glyph-name="Gdotaccent" unicode="&#x120;" horiz-adv-x="606" 
d="M350 693c75 0 132 -13 169 -27v-144h-48v107c-30 9 -76 16 -119 16c-169 0 -244 -124 -244 -310c0 -156 42 -292 228 -292c38 0 100 5 133 17v243h-103v45h210v-45h-52v-281c-63 -20 -131 -29 -195 -29c-199 0 -279 134 -279 344c0 140 56 356 300 356zM313 770
c0 24 19 43 42 43c24 0 43 -19 43 -43c0 -23 -19 -42 -43 -42c-23 0 -42 19 -42 42z" />
    <glyph glyph-name="gdotaccent" unicode="&#x121;" horiz-adv-x="482" 
d="M387 443l-2 -5c25 -25 37 -64 37 -109c0 -104 -79 -165 -195 -165h-53c-17 0 -32 0 -45 -2c-26 -5 -41 -15 -41 -36c0 -24 23 -37 56 -37h120c117 0 181 -56 181 -150c0 -99 -97 -154 -218 -154c-153 0 -199 68 -199 145c0 58 38 103 65 117c-40 7 -61 31 -62 70
c-2 66 54 80 83 83c-32 16 -68 52 -68 126c0 128 102 176 188 173c28 -1 55 -4 81 -12h150v-44h-78zM233 450c-84 0 -129 -42 -129 -121c0 -72 47 -119 117 -119c84 0 144 38 144 119c0 53 -28 121 -132 121zM260 39h-112c-29 -9 -66 -57 -66 -100c0 -57 35 -108 154 -108
c87 0 155 43 155 108c0 45 -29 100 -131 100zM202 578c0 24 19 43 42 43c24 0 43 -19 43 -43c0 -23 -19 -42 -43 -42c-23 0 -42 19 -42 42z" />
    <glyph glyph-name="Gcommaaccent" unicode="&#x122;" horiz-adv-x="606" 
d="M350 693c75 0 132 -13 169 -27v-144h-48v107c-30 9 -76 16 -119 16c-169 0 -244 -124 -244 -310c0 -156 42 -292 228 -292c38 0 100 5 133 17v243h-103v45h210v-45h-52v-281c-63 -20 -131 -29 -195 -29c-199 0 -279 134 -279 344c0 140 56 356 300 356zM289 -83
c0 23 20 43 44 43c26 0 48 -20 47 -52c-2 -43 -24 -76 -71 -100l-14 18c17 17 25 32 24 49c-18 6 -30 22 -30 42z" />
    <glyph glyph-name="gcommaaccent" unicode="&#x123;" horiz-adv-x="482" 
d="M289 589c0 -23 -20 -43 -44 -43c-26 0 -48 20 -47 52c2 43 24 76 71 100l14 -18c-17 -17 -25 -32 -24 -49c18 -6 30 -22 30 -42zM387 443l-2 -5c25 -25 37 -64 37 -109c0 -104 -79 -165 -195 -165h-53c-17 0 -32 0 -45 -2c-26 -5 -41 -15 -41 -36c0 -24 23 -37 56 -37
h120c117 0 181 -56 181 -150c0 -99 -97 -154 -218 -154c-153 0 -199 68 -199 145c0 58 38 103 65 117c-40 7 -61 31 -62 70c-2 66 54 80 83 83c-32 16 -68 52 -68 126c0 128 102 176 188 173c28 -1 55 -4 81 -12h150v-44h-78zM233 450c-84 0 -129 -42 -129 -121
c0 -72 47 -119 117 -119c84 0 144 38 144 119c0 53 -28 121 -132 121zM260 39h-112c-29 -9 -66 -57 -66 -100c0 -57 35 -108 154 -108c87 0 155 43 155 108c0 45 -29 100 -131 100z" />
    <glyph glyph-name="Hcircumflex" unicode="&#x124;" horiz-adv-x="664" 
d="M624 0h-182v47h62v289h-345v-289h63v-47h-182v47h62v590h-62v46h182v-46h-63v-252h345v252h-62v46h182v-46h-63v-590h63v-47zM471 727l-151 99l-150 -100l-18 22l149 133h39l150 -131z" />
    <glyph glyph-name="hcircumflex" unicode="&#x125;" horiz-adv-x="556" 
d="M150 0h-54v665h-76v44h130v-266c57 35 126 55 174 55c135 0 136 -88 136 -152v-300h74v-33c-22 -11 -54 -17 -73 -17c-34 0 -53 10 -54 59v276c0 72 -6 119 -91 119c-52 0 -120 -27 -166 -52v-398zM268 758l-151 99l-150 -100l-18 22l149 133h39l150 -131z" />
    <glyph glyph-name="Hbar" unicode="&#x126;" horiz-adv-x="664" 
d="M624 0h-184v47h62v289h-342v-289h63v-47h-183v47h62v439h-63v43h63v108h-62v46h183v-46h-63v-108h342v108h-62v46h184v-46h-63v-108h63v-43h-63v-439h63v-47zM160 385h342v101h-342v-101z" />
    <glyph glyph-name="hbar" unicode="&#x127;" horiz-adv-x="556" 
d="M150 0h-54v523h-76v42h76v100h-76v44h130v-144h189v-42h-189v-110c57 35 126 55 174 55c135 0 136 -88 136 -152v-270h74v-33c-22 -11 -54 -17 -73 -17c-34 0 -53 10 -54 59v246c0 72 -6 119 -91 119c-52 0 -120 -27 -166 -52v-368z" />
    <glyph glyph-name="Itilde" unicode="&#x128;" horiz-adv-x="321" 
d="M251 0h-181v46h61v591h-61v46h181v-46h-63v-591h63v-46zM91 801c43 0 101 -39 132 -39l57 39l22 -18c-13 -37 -43 -67 -79 -67c-56 0 -97 39 -132 39l-57 -39l-22 18c13 37 43 67 79 67z" />
    <glyph glyph-name="itilde" unicode="&#x129;" horiz-adv-x="267" 
d="M111 443h-58v44h111v-441h74v-33c-22 -11 -54 -17 -73 -17c-34 0 -53 10 -54 59v388zM63 623c43 0 101 -39 132 -39l57 39l22 -18c-13 -37 -43 -67 -79 -67c-56 0 -97 39 -132 39l-57 -39l-22 18c13 37 43 67 79 67z" />
    <glyph glyph-name="Imacron" unicode="&#x12a;" horiz-adv-x="321" 
d="M251 0h-181v46h61v591h-61v46h181v-46h-63v-591h63v-46zM5 798h313v-51h-313v51z" />
    <glyph glyph-name="imacron" unicode="&#x12b;" horiz-adv-x="267" 
d="M111 443h-58v44h111v-441h74v-33c-22 -11 -54 -17 -73 -17c-34 0 -53 10 -54 59v388zM-23 603h303v-48h-303v48z" />
    <glyph glyph-name="Ibreve" unicode="&#x12c;" horiz-adv-x="350" 
d="M157 730c-67 0 -114 53 -152 104l41 28c34 -46 75 -81 114 -81c25 0 69 6 138 74l22 -19c-56 -77 -113 -106 -163 -106zM251 0h-181v46h61v591h-61v46h181v-46h-63v-591h63v-46z" />
    <glyph glyph-name="ibreve" unicode="&#x12d;" horiz-adv-x="281" 
d="M111 443h-58v44h111v-441h74v-33c-22 -11 -54 -17 -73 -17c-34 0 -53 10 -54 59v388zM133 541c-67 0 -114 53 -152 104l38 26c34 -46 78 -84 117 -84c25 0 69 6 138 74l22 -19c-56 -77 -113 -101 -163 -101z" />
    <glyph glyph-name="Iogonek" unicode="&#x12e;" horiz-adv-x="321" 
d="M251 0h-76c-30 -38 -49 -90 -49 -120c0 -58 97 -38 135 -29l5 -26c-30 -15 -67 -25 -103 -25c-59 0 -91 26 -91 68c0 33 12 83 68 132h-70v46h61v591h-61v46h181v-46h-63v-591h63v-46z" />
    <glyph glyph-name="iogonek" unicode="&#x12f;" horiz-adv-x="267" 
d="M111 443h-58v44h111v-441h74v-33c-6 -3 -13 -6 -21 -8c-30 -38 -49 -90 -49 -120c0 -58 97 -38 135 -29l5 -26c-30 -15 -67 -25 -103 -25c-59 0 -91 26 -91 68c0 31 11 77 58 123h-7c-34 0 -53 10 -54 59v388zM95 607c0 22 18 40 39 40c22 0 40 -18 40 -40
c0 -21 -18 -39 -40 -39c-21 0 -39 18 -39 39z" />
    <glyph glyph-name="Idotaccent" unicode="&#x130;" horiz-adv-x="321" 
d="M251 0h-181v46h61v591h-61v46h181v-46h-63v-591h63v-46zM120 770c0 24 19 43 42 43c24 0 43 -19 43 -43c0 -23 -19 -42 -43 -42c-23 0 -42 19 -42 42z" />
    <glyph glyph-name="dotlessi" unicode="&#x131;" horiz-adv-x="267" 
d="M111 443h-58v44h111v-441h74v-33c-22 -11 -54 -17 -73 -17c-34 0 -53 10 -54 59v388z" />
    <glyph glyph-name="IJ" unicode="&#x132;" horiz-adv-x="636" 
d="M251 0h-181v46h61v591h-61v46h181v-46h-63v-591h63v-46zM453 637h-82v46h215v-46h-75l-1 -515c0 -163 -72 -240 -205 -296l-16 38c114 64 163 123 163 242z" />
    <glyph glyph-name="ij" unicode="&#x133;" horiz-adv-x="501" 
d="M95 607c0 22 18 40 39 40c22 0 40 -18 40 -40c0 -21 -18 -39 -40 -39c-21 0 -39 18 -39 39zM111 443h-58v44h111v-441h74v-33c-22 -11 -54 -17 -73 -17c-34 0 -53 10 -54 59v388zM353 -6v449h-73v44h126v-481c0 -119 -30 -167 -153 -219l-17 37c95 53 117 89 117 170z
M337 607c0 22 18 40 39 40c22 0 40 -18 40 -40c0 -21 -18 -39 -40 -39c-21 0 -39 18 -39 39z" />
    <glyph glyph-name="Jcircumflex" unicode="&#x134;" horiz-adv-x="321" 
d="M138 638h-82v46h215v-46h-75l-1 -515c0 -163 -72 -240 -205 -296l-16 38c114 64 163 123 163 242zM317 727l-151 99l-150 -100l-18 22l149 133h39l150 -131z" />
    <glyph glyph-name="jcircumflex" unicode="&#x135;" horiz-adv-x="283" 
d="M127 -6v449h-73v44h126v-481c0 -119 -30 -167 -153 -219l-17 37c95 53 117 89 117 170zM279 533l-151 99l-150 -100l-18 22l149 139h39l150 -137z" />
    <glyph glyph-name="Kcommaaccent" unicode="&#x136;" horiz-adv-x="608" 
d="M517 636l-228 -223l245 -365h59v-48h-194l-1 48h69l-219 326l-89 -87v-240h65v-47h-184v47h62v590h-62v46h182v-46h-63v-286l290 285h-69v47h191v-47h-54zM254 -83c0 23 20 43 44 43c26 0 48 -20 47 -52c-2 -43 -24 -76 -71 -100l-14 18c17 17 25 32 24 49
c-18 6 -30 22 -30 42z" />
    <glyph glyph-name="kcommaaccent" unicode="&#x137;" horiz-adv-x="492" 
d="M222 270l-74 -68v-158h73v-44h-198v44h72v621h-83v44h136v-448l194 182h-66v44h180v-44h-51l-147 -139l163 -259l67 -9v-30c-19 -9 -42 -13 -60 -13c-33 0 -41 11 -57 35zM244 -83c0 23 20 43 44 43c26 0 48 -20 47 -52c-2 -43 -24 -76 -71 -100l-14 18
c17 17 25 32 24 49c-18 6 -30 22 -30 42z" />
    <glyph glyph-name="kgreenlandic" unicode="&#x138;" horiz-adv-x="492" 
d="M222 270l-74 -68v-158h73v-44h-198v44h72v399h-83v44h136v-226l194 182h-66v44h180v-44h-51l-147 -139l163 -259l67 -9v-30c-19 -9 -42 -13 -60 -13c-33 0 -41 11 -57 35z" />
    <glyph glyph-name="Lacute" unicode="&#x139;" horiz-adv-x="520" 
d="M236 682v-45h-73v-591h297v119h50v-165h-470v46h66v591h-62v45h192zM141 726l-29 21l111 158l49 -40z" />
    <glyph glyph-name="lacute" unicode="&#x13a;" horiz-adv-x="274" 
d="M171 709v-665h73v-44h-198v44h72v621h-83v44h136zM137 736l-29 21l111 158l49 -40z" />
    <glyph glyph-name="Lcommaaccent" unicode="&#x13b;" horiz-adv-x="520" 
d="M236 682v-45h-73v-591h297v119h50v-165h-470v46h66v591h-62v45h192zM228 -83c0 23 20 43 44 43c26 0 48 -20 47 -52c-2 -43 -24 -76 -71 -100l-14 18c17 17 25 32 24 49c-18 6 -30 22 -30 42z" />
    <glyph glyph-name="lcommaaccent" unicode="&#x13c;" horiz-adv-x="274" 
d="M171 709v-665h73v-44h-198v44h72v621h-83v44h136zM98 -83c0 23 20 43 44 43c26 0 48 -20 47 -52c-2 -43 -24 -76 -71 -100l-14 18c17 17 25 32 24 49c-18 6 -30 22 -30 42z" />
    <glyph glyph-name="Lcaron" unicode="&#x13d;" horiz-adv-x="520" 
d="M236 682v-45h-73v-591h297v119h50v-165h-470v46h66v591h-62v45h192zM340 624c0 23 20 43 44 43c26 0 48 -20 47 -52c-2 -43 -24 -76 -71 -100l-14 18c17 17 25 32 24 49c-18 6 -30 22 -30 42z" />
    <glyph glyph-name="lcaron" unicode="&#x13e;" horiz-adv-x="391" 
d="M281 665c0 23 20 43 44 43c26 0 48 -20 47 -52c-2 -43 -24 -76 -71 -100l-14 18c17 17 25 32 24 49c-18 6 -30 22 -30 42zM171 709v-665h73v-44h-198v44h72v621h-83v44h136z" />
    <glyph glyph-name="Ldot" unicode="&#x13f;" horiz-adv-x="520" 
d="M236 682v-45h-73v-591h297v119h50v-165h-470v46h66v591h-62v45h192zM320 339c0 24 19 43 42 43c24 0 43 -19 43 -43c0 -23 -19 -42 -43 -42c-23 0 -42 19 -42 42z" />
    <glyph glyph-name="ldot" unicode="&#x140;" horiz-adv-x="371" 
d="M264 308c0 24 19 43 42 43c24 0 43 -19 43 -43c0 -23 -19 -42 -43 -42c-23 0 -42 19 -42 42zM171 709v-665h73v-44h-198v44h72v621h-83v44h136z" />
    <glyph glyph-name="Lslash" unicode="&#x141;" horiz-adv-x="520" 
d="M236 682v-45h-73v-307l135 77l23 -37l-158 -91v-233h297v119h50v-165h-470v46h66v200l-78 -46l-24 38l102 60v339h-62v45h192z" />
    <glyph glyph-name="lslash" unicode="&#x142;" horiz-adv-x="274" 
d="M171 332v-288h73v-44h-198v44h72v257l-95 -55l-24 38l119 68v313h-83v44h136v-326l98 56l23 -37z" />
    <glyph glyph-name="Nacute" unicode="&#x143;" horiz-adv-x="699" 
d="M534 104h5v533h-70v46h190v-46h-65v-637h-53l-304 475l-73 117l-3 -1l1 -544h70v-47h-192v47h67v590h-67v46h128l282 -445zM355 726l-29 21l111 158l49 -40z" />
    <glyph glyph-name="nacute" unicode="&#x144;" horiz-adv-x="556" 
d="M324 498c135 0 136 -88 136 -152v-300h74v-33c-22 -11 -54 -17 -73 -17c-34 0 -53 10 -54 59v276c0 72 -6 119 -91 119c-52 0 -120 -27 -166 -52v-398h-54v443h-76v44h130v-40l3 -2c56 34 124 53 171 53zM248 536l-29 21l111 158l49 -40z" />
    <glyph glyph-name="Ncommaaccent" unicode="&#x145;" horiz-adv-x="699" 
d="M534 104h5v533h-70v46h190v-46h-65v-637h-53l-304 475l-73 117l-3 -1l1 -544h70v-47h-192v47h67v590h-67v46h128l282 -445zM301 -83c0 23 20 43 44 43c26 0 48 -20 47 -52c-2 -43 -24 -76 -71 -100l-14 18c17 17 25 32 24 49c-18 6 -30 22 -30 42z" />
    <glyph glyph-name="ncommaaccent" unicode="&#x146;" horiz-adv-x="556" 
d="M324 498c135 0 136 -88 136 -152v-300h74v-33c-22 -11 -54 -17 -73 -17c-34 0 -53 10 -54 59v276c0 72 -6 119 -91 119c-52 0 -120 -27 -166 -52v-398h-54v443h-76v44h130v-40l3 -2c56 34 124 53 171 53zM263 -83c0 23 20 43 44 43c26 0 48 -20 47 -52
c-2 -43 -24 -76 -71 -100l-14 18c17 17 25 32 24 49c-18 6 -30 22 -30 42z" />
    <glyph glyph-name="Ncaron" unicode="&#x147;" horiz-adv-x="699" 
d="M534 104h5v533h-70v46h190v-46h-65v-637h-53l-304 475l-73 117l-3 -1l1 -544h70v-47h-192v47h67v590h-67v46h128l282 -445zM337 788l151 99l19 -23l-150 -130h-39l-149 132l18 22z" />
    <glyph glyph-name="ncaron" unicode="&#x148;" horiz-adv-x="556" 
d="M324 498c135 0 136 -88 136 -152v-300h74v-33c-22 -11 -54 -17 -73 -17c-34 0 -53 10 -54 59v276c0 72 -6 119 -91 119c-52 0 -120 -27 -166 -52v-398h-54v443h-76v44h130v-40l3 -2c56 34 124 53 171 53zM242 596l151 99l19 -23l-150 -128h-39l-149 130l18 22z" />
    <glyph glyph-name="napostrophe" unicode="&#x149;" horiz-adv-x="692" 
d="M460 498c135 0 136 -88 136 -152v-300h74v-33c-22 -11 -54 -17 -73 -17c-34 0 -53 10 -54 59v276c0 72 -6 119 -91 119c-52 0 -120 -27 -166 -52v-398h-54v443h-76v44h130v-40l3 -2c56 34 124 53 171 53zM25 603c0 23 20 43 44 43c26 0 48 -20 47 -52
c-2 -43 -24 -76 -71 -100l-14 18c17 17 25 32 24 49c-18 6 -30 22 -30 42z" />
    <glyph glyph-name="Eng" unicode="&#x14a;" horiz-adv-x="699" 
d="M371 -123c23 -3 49 -6 69 -6c62 0 102 21 102 79v49l-305 476l-73 117l-3 -1l1 -544h70v-47h-192v47h67v590h-67v46h128l282 -445l84 -134h5v533h-70v46h190v-46h-65v-673c0 -96 -62 -140 -144 -140c-26 0 -58 3 -87 10z" />
    <glyph glyph-name="eng" unicode="&#x14b;" horiz-adv-x="520" 
d="M324 498c135 0 136 -88 136 -152v-348c0 -98 -62 -142 -145 -142c-26 0 -58 3 -87 10l8 43c23 -3 49 -6 69 -6c67 0 102 24 102 93v335c0 72 -6 119 -91 119c-52 0 -120 -27 -166 -52v-398h-54v443h-76v44h130v-40l3 -2c56 34 124 53 171 53z" />
    <glyph glyph-name="Omacron" unicode="&#x14c;" horiz-adv-x="648" 
d="M598 338c0 -196 -90 -345 -268 -345c-206 0 -280 131 -280 342c0 187 68 358 280 358c215 0 268 -173 268 -355zM540 335c0 138 -31 311 -210 311s-222 -156 -222 -313c0 -193 66 -293 222 -293c143 0 210 134 210 295zM179 798h313v-51h-313v51z" />
    <glyph glyph-name="omacron" unicode="&#x14d;" horiz-adv-x="481" 
d="M385 240c0 91 -21 210 -140 210s-148 -111 -148 -211c0 -103 21 -199 148 -199c117 0 140 108 140 200zM245 497c156 0 196 -131 196 -255c0 -120 -42 -249 -207 -249c-152 0 -194 119 -194 247c0 126 53 257 205 257zM91 603h303v-48h-303v48z" />
    <glyph glyph-name="Obreve" unicode="&#x14e;" horiz-adv-x="648" 
d="M598 338c0 -196 -90 -345 -268 -345c-206 0 -280 131 -280 342c0 187 68 358 280 358c215 0 268 -173 268 -355zM540 335c0 138 -31 311 -210 311s-222 -156 -222 -313c0 -193 66 -293 222 -293c143 0 210 134 210 295zM313 727c-67 0 -114 53 -152 104l41 28
c34 -46 75 -81 114 -81c25 0 69 6 138 74l22 -19c-56 -77 -113 -106 -163 -106z" />
    <glyph glyph-name="obreve" unicode="&#x14f;" horiz-adv-x="481" 
d="M385 240c0 91 -21 210 -140 210s-148 -111 -148 -211c0 -103 21 -199 148 -199c117 0 140 108 140 200zM245 497c156 0 196 -131 196 -255c0 -120 -42 -249 -207 -249c-152 0 -194 119 -194 247c0 126 53 257 205 257zM241 541c-67 0 -114 53 -152 104l38 26
c34 -46 78 -84 117 -84c25 0 69 6 138 74l22 -19c-56 -77 -113 -101 -163 -101z" />
    <glyph glyph-name="Ohungarumlaut" unicode="&#x150;" horiz-adv-x="648" 
d="M598 338c0 -196 -90 -345 -268 -345c-206 0 -280 131 -280 342c0 187 68 358 280 358c215 0 268 -173 268 -355zM540 335c0 138 -31 311 -210 311s-222 -156 -222 -313c0 -193 66 -293 222 -293c143 0 210 134 210 295zM268 728l-29 21l111 158l49 -40zM380 728l-29 21
l111 158l49 -40z" />
    <glyph glyph-name="ohungarumlaut" unicode="&#x151;" horiz-adv-x="481" 
d="M385 240c0 91 -21 210 -140 210s-148 -111 -148 -211c0 -103 21 -199 148 -199c117 0 140 108 140 200zM245 497c156 0 196 -131 196 -255c0 -120 -42 -249 -207 -249c-152 0 -194 119 -194 247c0 126 53 257 205 257zM183 536l-29 21l111 158l49 -40zM295 536l-29 21
l111 158l49 -40z" />
    <glyph glyph-name="Racute" unicode="&#x154;" horiz-adv-x="585" 
d="M244 0h-204v46h63v591h-63v46h270c110 0 202 -51 202 -183c0 -65 -28 -158 -133 -185l127 -268l70 -9v-33c-20 -7 -50 -12 -69 -12c-34 0 -43 17 -55 44l-127 271h-165v-262h84v-46zM160 354h155c68 0 140 25 140 143c0 101 -63 140 -143 140h-152v-283zM307 726l-29 21
l111 158l49 -40z" />
    <glyph glyph-name="racute" unicode="&#x155;" horiz-adv-x="349" 
d="M157 421h1c38 32 113 78 172 78c11 0 21 -4 21 -22c0 -17 -9 -46 -21 -61l-171 -19v-353h81v-44h-211v44h75v399h-74v44h127v-66zM190 536l-29 21l111 158l49 -40z" />
    <glyph glyph-name="Rcommaaccent" unicode="&#x156;" horiz-adv-x="585" 
d="M244 0h-204v46h63v591h-63v46h270c110 0 202 -51 202 -183c0 -65 -28 -158 -133 -185l127 -268l70 -9v-33c-20 -7 -50 -12 -69 -12c-34 0 -43 17 -55 44l-127 271h-165v-262h84v-46zM160 354h155c68 0 140 25 140 143c0 101 -63 140 -143 140h-152v-283zM253 -83
c0 23 20 43 44 43c26 0 48 -20 47 -52c-2 -43 -24 -76 -71 -100l-14 18c17 17 25 32 24 49c-18 6 -30 22 -30 42z" />
    <glyph glyph-name="rcommaaccent" unicode="&#x157;" horiz-adv-x="349" 
d="M157 421h1c38 32 113 78 172 78c11 0 21 -4 21 -22c0 -17 -9 -46 -21 -61l-171 -19v-353h81v-44h-211v44h75v399h-74v44h127v-66zM88 -83c0 23 20 43 44 43c26 0 48 -20 47 -52c-2 -43 -24 -76 -71 -100l-14 18c17 17 25 32 24 49c-18 6 -30 22 -30 42z" />
    <glyph glyph-name="Rcaron" unicode="&#x158;" horiz-adv-x="585" 
d="M244 0h-204v46h63v591h-63v46h270c110 0 202 -51 202 -183c0 -65 -28 -158 -133 -185l127 -268l70 -9v-33c-20 -7 -50 -12 -69 -12c-34 0 -43 17 -55 44l-127 271h-165v-262h84v-46zM160 354h155c68 0 140 25 140 143c0 101 -63 140 -143 140h-152v-283zM276 788l151 99
l19 -23l-150 -130h-39l-149 132l18 22z" />
    <glyph glyph-name="rcaron" unicode="&#x159;" horiz-adv-x="349" 
d="M157 421h1c38 32 113 78 172 78c11 0 21 -4 21 -22c0 -17 -9 -46 -21 -61l-171 -19v-353h81v-44h-211v44h75v399h-74v44h127v-66zM172 596l151 99l19 -23l-150 -128h-39l-149 130l18 22z" />
    <glyph glyph-name="Sacute" unicode="&#x15a;" horiz-adv-x="513" 
d="M35 168h48v-88c54 -28 103 -37 156 -37c115 0 183 33 183 143c0 93 -71 116 -162 140c-112 30 -214 60 -214 180c0 122 98 187 212 187c51 0 120 -7 174 -40v-124h-49v94c-37 17 -86 22 -129 22c-88 0 -151 -46 -151 -140c0 -83 82 -106 159 -126
c101 -26 216 -49 216 -194c0 -139 -108 -192 -235 -192c-71 0 -146 14 -208 52v123zM263 724l-29 21l111 158l49 -40z" />
    <glyph glyph-name="sacute" unicode="&#x15b;" horiz-adv-x="408" 
d="M30 140h43l3 -77c32 -16 78 -24 113 -24c72 0 130 18 130 91c0 58 -56 79 -116 96c-79 22 -163 44 -163 140c0 97 80 131 165 131c45 0 95 -10 134 -35l3 -110h-44l-3 82c-25 11 -60 17 -91 17c-61 0 -110 -20 -110 -87c0 -58 73 -74 113 -85c81 -22 164 -43 164 -150
c0 -96 -85 -135 -179 -135c-58 0 -119 11 -159 39zM196 536l-29 21l111 158l49 -40z" />
    <glyph glyph-name="Scircumflex" unicode="&#x15c;" horiz-adv-x="513" 
d="M35 168h48v-88c54 -28 103 -37 156 -37c115 0 183 33 183 143c0 93 -71 116 -162 140c-112 30 -214 60 -214 180c0 122 98 187 212 187c51 0 120 -7 174 -40v-124h-49v94c-37 17 -86 22 -129 22c-88 0 -151 -46 -151 -140c0 -83 82 -106 159 -126
c101 -26 216 -49 216 -194c0 -139 -108 -192 -235 -192c-71 0 -146 14 -208 52v123zM413 727l-151 99l-150 -100l-18 22l149 133h39l150 -131z" />
    <glyph glyph-name="scircumflex" unicode="&#x15d;" horiz-adv-x="408" 
d="M30 140h43l3 -77c32 -16 78 -24 113 -24c72 0 130 18 130 91c0 58 -56 79 -116 96c-79 22 -163 44 -163 140c0 97 80 131 165 131c45 0 95 -10 134 -35l3 -110h-44l-3 82c-25 11 -60 17 -91 17c-61 0 -110 -20 -110 -87c0 -58 73 -74 113 -85c81 -22 164 -43 164 -150
c0 -96 -85 -135 -179 -135c-58 0 -119 11 -159 39zM347 533l-151 99l-150 -100l-18 22l149 139h39l150 -137z" />
    <glyph glyph-name="Scedilla" unicode="&#x15e;" horiz-adv-x="513" 
d="M35 168h48v-88c54 -28 103 -37 156 -37c115 0 183 33 183 143c0 93 -71 116 -162 140c-112 30 -214 60 -214 180c0 122 98 187 212 187c51 0 120 -7 174 -40v-124h-49v94c-37 17 -86 22 -129 22c-88 0 -151 -46 -151 -140c0 -83 82 -106 159 -126
c101 -26 216 -49 216 -194c0 -133 -98 -187 -218 -191l-45 -59c64 -3 109 -26 109 -77c0 -53 -56 -102 -173 -99v31c71 7 120 25 120 61c0 37 -57 42 -104 43l-11 17l63 83c-64 3 -129 17 -184 51v123z" />
    <glyph glyph-name="scedilla" unicode="&#x15f;" horiz-adv-x="408" 
d="M30 140h43l3 -77c32 -16 78 -24 113 -24c72 0 130 18 130 91c0 58 -56 79 -116 96c-79 22 -163 44 -163 140c0 97 80 131 165 131c45 0 95 -10 134 -35l3 -110h-44l-3 82c-25 11 -60 17 -91 17c-61 0 -110 -20 -110 -87c0 -58 73 -74 113 -85c81 -22 164 -43 164 -150
c0 -83 -64 -124 -142 -133l-47 -61c64 -3 109 -26 109 -77c0 -53 -56 -102 -173 -99v31c71 7 120 25 120 61c0 37 -57 42 -104 43l-11 17l64 83c-57 1 -115 12 -154 39z" />
    <glyph glyph-name="Tcommaaccent" unicode="&#x162;" horiz-adv-x="518" 
d="M502 683l1 -145h-49v99h-166v-591h74v-46h-202v46h72v591h-169v-99h-48v145h487zM214 -83c0 23 20 43 44 43c26 0 48 -20 47 -52c-2 -43 -24 -76 -71 -100l-14 18c17 17 25 32 24 49c-18 6 -30 22 -30 42z" />
    <glyph glyph-name="tcommaaccent" unicode="&#x163;" horiz-adv-x="344" 
d="M145 443v-319c0 -44 12 -81 67 -81c26 0 57 6 96 18l11 -38c-33 -16 -75 -27 -114 -27c-65 0 -113 27 -113 108v339h-72v28l73 22l21 104l32 8v-118h149v-44h-150zM154 -83c0 23 20 43 44 43c26 0 48 -20 47 -52c-2 -43 -24 -76 -71 -100l-14 18c17 17 25 32 24 49
c-18 6 -30 22 -30 42z" />
    <glyph glyph-name="Tcaron" unicode="&#x164;" horiz-adv-x="518" 
d="M502 683l1 -145h-49v99h-166v-591h74v-46h-202v46h72v591h-169v-99h-48v145h487zM261 788l151 99l19 -23l-150 -130h-39l-149 132l18 22z" />
    <glyph glyph-name="tcaron" unicode="&#x165;" horiz-adv-x="344" 
d="M257 645c0 23 20 43 44 43c26 0 48 -20 47 -52c-2 -43 -24 -76 -71 -100l-14 18c17 17 25 32 24 49c-18 6 -30 22 -30 42zM145 443v-319c0 -44 12 -81 67 -81c26 0 57 6 96 18l11 -38c-33 -16 -75 -27 -114 -27c-65 0 -113 27 -113 108v339h-72v28l73 22l21 104l32 8
v-118h149v-44h-150z" />
    <glyph glyph-name="Tbar" unicode="&#x166;" horiz-adv-x="518" 
d="M502 683l1 -145h-49v99h-166v-240h162v-45h-162v-306h84v-46h-222v46h82v306h-165v45h165v240h-169v-99h-48v145h487z" />
    <glyph glyph-name="tbar" unicode="&#x167;" horiz-adv-x="344" 
d="M145 443v-90h148v-45h-148v-184c0 -44 12 -81 67 -81c26 0 57 6 96 18l11 -38c-33 -16 -75 -27 -114 -27c-65 0 -113 27 -113 108v204h-72v45h72v90h-72v28l73 22l21 104l32 8v-118h149v-44h-150z" />
    <glyph glyph-name="Utilde" unicode="&#x168;" horiz-adv-x="682" 
d="M533 637h-72v46h191v-46h-63v-394c0 -149 -82 -250 -250 -250c-173 0 -248 94 -248 250v394h-61v46h191v-46h-73v-393c0 -134 70 -203 191 -203c126 0 194 69 194 203v393zM291 808c43 0 101 -39 132 -39l57 39l22 -18c-13 -37 -43 -67 -79 -67c-56 0 -97 39 -132 39
l-57 -39l-22 18c13 37 43 67 79 67z" />
    <glyph glyph-name="utilde" unicode="&#x169;" horiz-adv-x="547" 
d="M232 -11c-135 0 -136 88 -136 152v302h-76v44h129v-331c0 -72 6 -119 91 -119c41 0 107 23 158 69v337h-72v44l125 1v-1h1l-1 -441h70l4 -33c-22 -11 -54 -17 -73 -17c-34 0 -53 10 -54 59l-2 1c-65 -59 -133 -67 -164 -67zM198 621c43 0 101 -39 132 -39l57 39l22 -18
c-13 -37 -43 -67 -79 -67c-56 0 -97 39 -132 39l-57 -39l-22 18c13 37 43 67 79 67z" />
    <glyph glyph-name="Umacron" unicode="&#x16a;" horiz-adv-x="682" 
d="M533 637h-72v46h191v-46h-63v-394c0 -149 -82 -250 -250 -250c-173 0 -248 94 -248 250v394h-61v46h191v-46h-73v-393c0 -134 70 -203 191 -203c126 0 194 69 194 203v393zM191 798h313v-51h-313v51z" />
    <glyph glyph-name="umacron" unicode="&#x16b;" horiz-adv-x="547" 
d="M232 -11c-135 0 -136 88 -136 152v302h-76v44h129v-331c0 -72 6 -119 91 -119c41 0 107 23 158 69v337h-72v44l125 1v-1h1l-1 -441h70l4 -33c-22 -11 -54 -17 -73 -17c-34 0 -53 10 -54 59l-2 1c-65 -59 -133 -67 -164 -67zM119 603h303v-48h-303v48z" />
    <glyph glyph-name="Ubreve" unicode="&#x16c;" horiz-adv-x="682" 
d="M533 637h-72v46h191v-46h-63v-394c0 -149 -82 -250 -250 -250c-173 0 -248 94 -248 250v394h-61v46h191v-46h-73v-393c0 -134 70 -203 191 -203c126 0 194 69 194 203v393zM333 712c-67 0 -114 53 -152 104l38 26c34 -46 78 -84 117 -84c25 0 69 6 138 74l22 -19
c-56 -77 -113 -101 -163 -101z" />
    <glyph glyph-name="ubreve" unicode="&#x16d;" horiz-adv-x="547" 
d="M232 -11c-135 0 -136 88 -136 152v302h-76v44h129v-331c0 -72 6 -119 91 -119c41 0 107 23 158 69v337h-72v44l125 1v-1h1l-1 -441h70l4 -33c-22 -11 -54 -17 -73 -17c-34 0 -53 10 -54 59l-2 1c-65 -59 -133 -67 -164 -67zM260 541c-67 0 -114 53 -152 104l38 26
c34 -46 78 -84 117 -84c25 0 69 6 138 74l22 -19c-56 -77 -113 -101 -163 -101z" />
    <glyph glyph-name="Uring" unicode="&#x16e;" horiz-adv-x="682" 
d="M533 637h-72v46h191v-46h-63v-394c0 -149 -82 -250 -250 -250c-173 0 -248 94 -248 250v394h-61v46h191v-46h-73v-393c0 -134 70 -203 191 -203c126 0 194 69 194 203v393zM349 698c-57 0 -102 44 -102 98c0 53 45 99 102 99c55 0 99 -45 99 -99c0 -55 -44 -98 -99 -98z
M349 861c-40 0 -66 -29 -66 -67c0 -37 26 -65 66 -65c37 0 63 28 63 65s-26 67 -63 67z" />
    <glyph glyph-name="uring" unicode="&#x16f;" horiz-adv-x="547" 
d="M232 -11c-135 0 -136 88 -136 152v302h-76v44h129v-331c0 -72 6 -119 91 -119c41 0 107 23 158 69v337h-72v44l125 1v-1h1l-1 -441h70l4 -33c-22 -11 -54 -17 -73 -17c-34 0 -53 10 -54 59l-2 1c-65 -59 -133 -67 -164 -67zM261 536c-57 0 -102 44 -102 98
c0 53 45 99 102 99c55 0 99 -45 99 -99c0 -55 -44 -98 -99 -98zM261 699c-40 0 -66 -29 -66 -67c0 -37 26 -65 66 -65c37 0 63 28 63 65s-26 67 -63 67z" />
    <glyph glyph-name="Uhungarumlaut" unicode="&#x170;" horiz-adv-x="682" 
d="M533 637h-72v46h191v-46h-63v-394c0 -149 -82 -250 -250 -250c-173 0 -248 94 -248 250v394h-61v46h191v-46h-73v-393c0 -134 70 -203 191 -203c126 0 194 69 194 203v393zM289 728l-29 21l111 158l49 -40zM401 728l-29 21l111 158l49 -40z" />
    <glyph glyph-name="uhungarumlaut" unicode="&#x171;" horiz-adv-x="547" 
d="M232 -11c-135 0 -136 88 -136 152v302h-76v44h129v-331c0 -72 6 -119 91 -119c41 0 107 23 158 69v337h-72v44l125 1v-1h1l-1 -441h70l4 -33c-22 -11 -54 -17 -73 -17c-34 0 -53 10 -54 59l-2 1c-65 -59 -133 -67 -164 -67zM198 536l-29 21l111 158l49 -40zM310 536
l-29 21l111 158l49 -40z" />
    <glyph glyph-name="Uogonek" unicode="&#x172;" horiz-adv-x="682" 
d="M533 637h-72v46h191v-46h-63v-394c0 -142 -74 -240 -225 -249c-28 -37 -44 -85 -44 -113c0 -58 97 -38 135 -29l5 -26c-30 -15 -67 -25 -103 -25c-59 0 -91 26 -91 68c0 31 11 78 59 124c-163 5 -234 98 -234 250v394h-61v46h191v-46h-73v-393c0 -134 70 -203 191 -203
c126 0 194 69 194 203v393z" />
    <glyph glyph-name="uogonek" unicode="&#x173;" horiz-adv-x="547" 
d="M232 -11c-135 0 -136 88 -136 152v302h-76v44h129v-331c0 -72 6 -119 91 -119c41 0 107 23 158 69v337h-72v44l125 1v-1h1l-1 -441h70l4 -33c-6 -3 -12 -6 -19 -8c-29 -37 -47 -87 -47 -117c0 -58 97 -38 135 -29l5 -26c-30 -15 -67 -25 -103 -25c-59 0 -91 26 -91 68
c0 30 10 75 55 120h-8c-34 0 -53 10 -54 59l-2 1c-65 -59 -133 -67 -164 -67z" />
    <glyph glyph-name="Wcircumflex" unicode="&#x174;" horiz-adv-x="881" 
d="M761 637h-71v46h186v-46h-62c-48 -202 -106 -434 -155 -637h-62l-122 413l-28 100h-2l-30 -105l-120 -408h-65l-159 637h-61v46h191v-46h-73l112 -466l23 -99h2l28 102l124 429l-10 34h-71v46h201v-46h-74l141 -476l25 -89h2l23 101zM596 727l-151 99l-150 -100l-18 22
l149 133h39l150 -131z" />
    <glyph glyph-name="wcircumflex" unicode="&#x175;" horiz-adv-x="738" 
d="M368 333h-6l-42 -126l-71 -207h-61l-130 442h-55v45h95l80 -280l42 -149h4l47 145l68 198l-13 41h-76v45h187v-45h-54l91 -255l44 -129h4l34 132l68 252h-68v45h172v-45h-51l-124 -442h-62l-79 212zM516 533l-151 99l-150 -100l-18 22l149 139h39l150 -137z" />
    <glyph glyph-name="Ycircumflex" unicode="&#x176;" horiz-adv-x="550" 
d="M273 360h4l155 277h-67v46h175v-46h-52l-185 -327v-264h82v-46h-222v46h82v261l-181 330h-54v46h179v-46h-65zM424 727l-151 99l-150 -100l-18 22l149 133h39l150 -131z" />
    <glyph glyph-name="ycircumflex" unicode="&#x177;" horiz-adv-x="503" 
d="M250 43l36 109l95 290h-66v45h169v-45h-51l-184 -557c-23 -71 -54 -99 -112 -99c-11 0 -41 -2 -104 16l10 41c32 -6 60 -12 83 -12c35 0 60 15 78 70l32 99h-27l-143 442h-50v45h92l104 -333l33 -111h5zM398 533l-151 99l-150 -100l-18 22l149 139h39l150 -137z" />
    <glyph glyph-name="Zacute" unicode="&#x179;" horiz-adv-x="496" 
d="M476 0h-456v46l373 591h-301v-99h-48v145h415v-46l-373 -590h340v108h50v-155zM262 726l-29 21l111 158l49 -40z" />
    <glyph glyph-name="zacute" unicode="&#x17a;" horiz-adv-x="416" 
d="M345 46v82h46v-128h-371v39l299 403h-238v-84h-45v129h345v-43l-296 -398h260zM184 536l-29 21l111 158l49 -40z" />
    <glyph glyph-name="Zdotaccent" unicode="&#x17b;" horiz-adv-x="496" 
d="M476 0h-456v46l373 591h-301v-99h-48v145h415v-46l-373 -590h340v108h50v-155zM218 770c0 24 19 43 42 43c24 0 43 -19 43 -43c0 -23 -19 -42 -43 -42c-23 0 -42 19 -42 42z" />
    <glyph glyph-name="zdotaccent" unicode="&#x17c;" horiz-adv-x="416" 
d="M345 46v82h46v-128h-371v39l299 403h-238v-84h-45v129h345v-43l-296 -398h260zM170 578c0 24 19 43 42 43c24 0 43 -19 43 -43c0 -23 -19 -42 -43 -42c-23 0 -42 19 -42 42z" />
    <glyph glyph-name="Ohorn" unicode="&#x1a0;" horiz-adv-x="670" 
d="M598 338c0 -196 -90 -345 -268 -345c-206 0 -280 131 -280 342c0 187 68 358 280 358c106 0 172 -42 212 -106h8c55 0 76 36 76 88v73h44v-79c0 -62 -22 -118 -106 -124c25 -60 34 -133 34 -207zM540 335c0 138 -31 311 -210 311s-222 -156 -222 -313
c0 -193 66 -293 222 -293c143 0 210 134 210 295z" />
    <glyph glyph-name="ohorn" unicode="&#x1a1;" horiz-adv-x="515" 
d="M245 497c78 0 127 -33 157 -82c50 3 69 38 69 88v73h44v-79c0 -59 -20 -112 -94 -123c14 -40 20 -87 20 -132c0 -120 -42 -249 -207 -249c-152 0 -194 119 -194 247c0 126 53 257 205 257zM385 240c0 91 -21 210 -140 210s-148 -111 -148 -211c0 -103 21 -199 148 -199
c117 0 140 108 140 200z" />
    <glyph glyph-name="Uhorn" unicode="&#x1af;" horiz-adv-x="742" 
d="M533 637h-72v46h181v-46h-53v-47h32c55 0 76 24 76 76v85h44v-86c0 -59 -24 -117 -122 -117h-30v-305c0 -149 -82 -250 -250 -250c-173 0 -248 94 -248 250v394h-61v46h191v-46h-73v-393c0 -134 70 -203 191 -203c126 0 194 69 194 203v393z" />
    <glyph glyph-name="uhorn" unicode="&#x1b0;" horiz-adv-x="576" 
d="M232 -11c-135 0 -136 88 -136 152v302h-76v44h129v-331c0 -72 6 -119 91 -119c41 0 107 23 158 69v337h-72v44l125 1v-1h1l-1 -72h5c55 0 76 29 76 81v80h44v-79c0 -65 -24 -124 -122 -124h-3v-327h70l4 -33c-22 -11 -54 -17 -73 -17c-34 0 -53 10 -54 59l-2 1
c-65 -59 -133 -67 -164 -67z" />
    <glyph glyph-name="AEacute" unicode="&#x1fc;" horiz-adv-x="919" 
d="M429 46h66v163h-268l-101 -163h79v-46h-205v46h63l370 591h-57v45h486v-134h-48v89h-262v-255l259 6v-54l-259 4v-292h277v89h50v-135h-450v46zM489 631l-231 -372h237v372h-6zM551 726l-29 21l111 158l49 -40z" />
    <glyph glyph-name="aeacute" unicode="&#x1fd;" horiz-adv-x="774" 
d="M408 229c-1 -97 28 -189 146 -189c59 0 98 11 155 36l16 -37c-55 -30 -106 -44 -170 -44c-85 0 -136 29 -166 76c-109 -80 -187 -78 -217 -78c-109 0 -137 84 -137 139c0 91 74 142 176 143l142 1v46c0 93 -38 122 -122 122c-48 0 -99 -10 -150 -28l-15 40
c54 25 119 39 177 39c71 0 126 -23 150 -83c29 48 78 85 161 85c189 0 184 -183 184 -230v-38h-330zM194 40c40 0 126 24 177 68c-13 35 -18 76 -19 121h-148c-73 0 -110 -37 -110 -93c0 -62 30 -96 100 -96zM554 450c-104 0 -138 -84 -145 -175h275c0 104 -31 175 -130 175
zM413 536l-29 21l111 158l49 -40z" />
    <glyph glyph-name="Oslashacute" unicode="&#x1fe;" horiz-adv-x="648" 
d="M341 726l-29 21l111 158l49 -40zM598 338c0 -196 -90 -345 -268 -345c-87 0 -151 23 -195 66l-47 -64h-42l66 90c-44 59 -62 145 -62 250c0 187 68 358 280 358c81 0 139 -25 180 -66l50 68h42l-69 -94c49 -67 65 -164 65 -263zM540 335c0 73 -9 155 -43 217l-329 -448
c36 -43 89 -64 162 -64c143 0 210 134 210 295zM108 333c0 -85 12 -151 40 -199l329 447c-32 39 -79 65 -147 65c-179 0 -222 -156 -222 -313z" />
    <glyph glyph-name="oslashacute" unicode="&#x1ff;" horiz-adv-x="481" 
d="M245 497c59 0 101 -19 131 -49l35 48l33 1l-51 -69c36 -50 48 -119 48 -186c0 -120 -42 -249 -207 -249c-58 0 -100 17 -129 45l-33 -44l-36 -1l50 67c-34 46 -46 112 -46 180c0 126 53 257 205 257zM385 240c0 46 -6 99 -27 141l-221 -300c22 -25 56 -41 108 -41
c117 0 140 108 140 200zM245 450c-119 0 -148 -111 -148 -211c0 -49 5 -97 23 -133l223 299c-21 27 -52 45 -98 45zM257 536l-29 21l111 158l49 -40z" />
    <glyph glyph-name="Scommaaccent" unicode="&#x218;" horiz-adv-x="513" 
d="M35 168h48v-88c54 -28 103 -37 156 -37c115 0 183 33 183 143c0 93 -71 116 -162 140c-112 30 -214 60 -214 180c0 122 98 187 212 187c51 0 120 -7 174 -40v-124h-49v94c-37 17 -86 22 -129 22c-88 0 -151 -46 -151 -140c0 -83 82 -106 159 -126
c101 -26 216 -49 216 -194c0 -139 -108 -192 -235 -192c-71 0 -146 14 -208 52v123zM198 -83c0 23 20 43 44 43c26 0 48 -20 47 -52c-2 -43 -24 -76 -71 -100l-14 18c17 17 25 32 24 49c-18 6 -30 22 -30 42z" />
    <glyph glyph-name="scommaaccent" unicode="&#x219;" horiz-adv-x="408" 
d="M30 140h43l3 -77c32 -16 78 -24 113 -24c72 0 130 18 130 91c0 58 -56 79 -116 96c-79 22 -163 44 -163 140c0 97 80 131 165 131c45 0 95 -10 134 -35l3 -110h-44l-3 82c-25 11 -60 17 -91 17c-61 0 -110 -20 -110 -87c0 -58 73 -74 113 -85c81 -22 164 -43 164 -150
c0 -96 -85 -135 -179 -135c-58 0 -119 11 -159 39zM153 -83c0 23 20 43 44 43c26 0 48 -20 47 -52c-2 -43 -24 -76 -71 -100l-14 18c17 17 25 32 24 49c-18 6 -30 22 -30 42z" />
    <glyph glyph-name="schwa" unicode="&#x259;" horiz-adv-x="462" 
d="M230 -5c-189 0 -184 183 -184 230v38h330c1 97 -28 189 -146 189c-59 0 -98 -11 -155 -36l-16 37c55 30 106 44 170 44c164 0 203 -110 203 -247c0 -77 -21 -255 -202 -255zM230 42c104 0 138 84 145 175h-275c0 -104 31 -175 130 -175z" />
    <glyph glyph-name="afii10023" unicode="&#x401;" horiz-adv-x="540" 
d="M377 727c-21 0 -36 15 -36 37c0 21 17 38 36 38c25 0 43 -15 43 -38c0 -22 -18 -37 -43 -37zM199 727c-23 0 -40 15 -40 37c0 21 19 38 38 38c25 0 42 -15 42 -38c0 -22 -17 -37 -40 -37zM40 0v46h66v591h-62v45h449v-134h-48v89h-282v-255l279 6v-54l-279 4v-292h297v89
h50v-135h-470z" />
    <glyph glyph-name="afii10051" unicode="&#x402;" horiz-adv-x="717" 
d="M585 682v-144h-49v99h-237v-261c68 29 135 41 184 41c135 0 193 -92 193 -202c0 -146 -89 -250 -188 -311l-20 30c89 66 151 156 151 272c0 111 -57 161 -151 161c-48 0 -111 -12 -169 -36v-285h74v-46h-202v46h72v591h-169v-99h-48v144h559z" />
    <glyph glyph-name="afii10052" unicode="&#x403;" horiz-adv-x="513" 
d="M275 727l-29 21l111 158l49 -40zM260 46v-46h-220v46h66v591h-62v45h449v-134h-48v89h-282v-591h97z" />
    <glyph glyph-name="afii10053" unicode="&#x404;" horiz-adv-x="545" 
d="M503 66l12 -43c-43 -17 -124 -30 -184 -30c-202 0 -281 134 -281 344c0 140 57 356 285 356c75 0 132 -13 169 -27v-144h-48v107c-30 9 -76 16 -119 16c-145 0 -216 -104 -228 -263l283 6v-54l-284 4v-3c0 -156 38 -293 230 -293c38 0 109 6 165 24z" />
    <glyph glyph-name="afii10054" unicode="&#x405;" horiz-adv-x="513" 
d="M35 168h48v-88c54 -28 103 -37 156 -37c115 0 183 33 183 143c0 93 -71 116 -162 140c-112 30 -214 60 -214 180c0 122 98 187 212 187c51 0 120 -7 174 -40v-124h-49v94c-37 17 -86 22 -129 22c-88 0 -151 -46 -151 -140c0 -83 82 -106 159 -126
c101 -26 216 -49 216 -194c0 -139 -108 -192 -235 -192c-71 0 -146 14 -208 52v123z" />
    <glyph glyph-name="afii10055" unicode="&#x406;" horiz-adv-x="321" 
d="M251 0h-181v46h61v591h-61v46h181v-46h-63v-591h63v-46z" />
    <glyph glyph-name="afii10056" unicode="&#x407;" horiz-adv-x="321" 
d="M247 727c-21 0 -36 15 -36 37c0 21 17 38 36 38c25 0 43 -15 43 -38c0 -22 -18 -37 -43 -37zM69 727c-23 0 -40 15 -40 37c0 21 19 38 38 38c25 0 42 -15 42 -38c0 -22 -17 -37 -40 -37zM251 0h-181v46h61v591h-61v46h181v-46h-63v-591h63v-46z" />
    <glyph glyph-name="afii10057" unicode="&#x408;" horiz-adv-x="321" 
d="M138 637h-82v46h215v-46h-75l-1 -515c0 -163 -72 -240 -205 -296l-16 38c114 64 163 123 163 242z" />
    <glyph glyph-name="afii10058" unicode="&#x409;" horiz-adv-x="923" 
d="M444 637l-209 -1v-74c0 -298 -17 -548 -216 -582l-9 43c153 49 171 224 171 527v86h-86v47h477v-46h-71v-242h171c152 0 211 -105 211 -200c0 -132 -89 -195 -199 -195h-308v46h68v591zM668 349h-167v-303h180c80 0 146 48 146 149c0 109 -82 154 -159 154z" />
    <glyph glyph-name="afii10059" unicode="&#x40a;" horiz-adv-x="932" 
d="M385 683h196v-46h-71v-242h171c152 0 211 -105 211 -200c0 -132 -89 -195 -199 -195h-308v46h68v302h-293v-302h63v-46h-183v46h62v591h-62v45h183v-45h-63v-244h293v244h-68v46zM677 349h-167v-303h180c80 0 146 48 146 149c0 109 -82 154 -159 154z" />
    <glyph glyph-name="afii10060" unicode="&#x40b;" horiz-adv-x="781" 
d="M674 267v-221h63v-46h-183v46h62v202c0 90 -55 119 -142 119c-58 0 -123 -17 -170 -38v-283h74v-46h-202v46h72v591h-170v-99h-48v144h560v-144h-49v99h-237v-259c66 25 131 38 186 38c108 0 184 -49 184 -149z" />
    <glyph glyph-name="afii10061" unicode="&#x40c;" horiz-adv-x="585" 
d="M221 0h-181v46h61v591h-61v46h181v-46h-63v-591h63v-46zM456 626l-206 -265l234 -309l91 -10v-36c-22 -8 -53 -14 -75 -14c-26 0 -46 9 -64 32l-242 327v15l219 285c22 29 39 39 63 38c25 0 49 -7 72 -17l-5 -36zM295 729l-29 21l111 158l49 -40z" />
    <glyph glyph-name="afii10062" unicode="&#x40e;" horiz-adv-x="550" 
d="M182 683v-46h-65l93 -247l68 -188h4l65 187l90 248h-67v46h174v-46h-52l-197 -541c-26 -70 -56 -99 -114 -99c-11 0 -41 -2 -104 16l10 41c32 -6 60 -12 83 -12c35 0 58 16 78 70l18 50h-26l-181 475h-54v46h177zM271 727c-67 0 -114 53 -152 104l41 28
c34 -46 75 -81 114 -81c25 0 69 6 138 74l22 -19c-56 -77 -113 -106 -163 -106z" />
    <glyph glyph-name="afii10145" unicode="&#x40f;" horiz-adv-x="664" 
d="M440 682h184v-45h-63v-591h63v-46h-268v-164h-48v164h-268v46h62v591h-62v45h183v-45h-63v-591h342v591h-62v45z" />
    <glyph glyph-name="afii10017" unicode="&#x410;" horiz-adv-x="636" 
d="M617 0h-187v46h71l-44 143h-277l-44 -143h74v-46h-190v46h58c64 204 140 434 205 638h72l207 -638h55v-46zM441 239l-99 316l-22 74h-2c-1 -4 -4 -16 -23 -75c-17 -53 -47 -147 -98 -315h244z" />
    <glyph glyph-name="afii10018" unicode="&#x411;" horiz-adv-x="582" 
d="M42 682h433v-134h-48v89h-267v-242h171c159 0 211 -95 211 -190c0 -132 -87 -205 -199 -205h-301v46h61v591h-61v45zM327 349h-167v-303h182c80 0 144 58 144 159c0 109 -76 144 -159 144z" />
    <glyph glyph-name="afii10019" unicode="&#x412;" horiz-adv-x="587" 
d="M108 637h-64v46h285c131 0 197 -72 197 -172c0 -49 -16 -118 -98 -154c87 -23 119 -109 119 -172c0 -112 -89 -185 -184 -185h-323v47h68v590zM491 190c0 73 -50 141 -150 141h-176v-284h176c110 0 150 68 150 143zM470 506c0 74 -44 131 -148 131h-157v-259h157
c96 0 148 53 148 128z" />
    <glyph glyph-name="afii10020" unicode="&#x413;" horiz-adv-x="513" 
d="M260 46v-46h-220v46h66v591h-62v45h449v-134h-48v89h-282v-591h97z" />
    <glyph glyph-name="afii10021" unicode="&#x414;" horiz-adv-x="677" 
d="M78 0v-162h-48v208h52c88 74 124 312 124 541v50h-66v45h481v-45h-63v-591h66v-208h-48v162h-498zM147 46h355v591h-245v-51c0 -263 -31 -428 -110 -540z" />
    <glyph glyph-name="afii10022" unicode="&#x415;" horiz-adv-x="540" 
d="M40 0v46h66v591h-62v45h449v-134h-48v89h-282v-255l279 6v-54l-279 4v-292h297v89h50v-135h-470z" />
    <glyph glyph-name="afii10024" unicode="&#x416;" horiz-adv-x="866" 
d="M463 637v-591h63v-46h-181v46h61v591h-61v46h181v-46h-63zM758 626l-206 -268l214 -306l90 -10v-36c-22 -8 -51 -14 -73 -14c-30 -1 -47 5 -67 34l-224 321v15l222 292c18 24 33 36 58 35c23 0 53 -8 74 -17l-5 -36zM314 356l-204 270l-84 10l-4 36c21 9 50 18 73 18
c25 1 41 -9 56 -29l225 -299v-15l-223 -320c-20 -29 -44 -36 -68 -35c-22 0 -51 6 -73 14v36l90 10z" />
    <glyph glyph-name="afii10025" unicode="&#x417;" horiz-adv-x="546" 
d="M108 615v-109h-48v144c48 25 124 43 201 43c124 0 217 -44 217 -159c0 -62 -41 -128 -119 -153c78 -23 137 -78 137 -173c0 -142 -119 -211 -254 -211c-78 0 -151 12 -208 38l15 42c74 -21 136 -29 175 -29c140 0 214 56 214 160c0 91 -84 144 -190 144h-81v46h80
c110 0 172 56 172 133c0 83 -67 114 -162 114c-54 0 -108 -12 -149 -30z" />
    <glyph glyph-name="afii10026" unicode="&#x418;" horiz-adv-x="680" 
d="M440 637v45h205v-45h-67v-591h67v-46h-192v46h70v486h-3l-359 -456v-30h67v-46h-190v46h68v591h-65v45h190v-45h-70v-483h2l362 454v29h-85z" />
    <glyph glyph-name="afii10027" unicode="&#x419;" horiz-adv-x="680" 
d="M440 637v45h205v-45h-67v-591h67v-46h-192v46h70v486h-3l-359 -456v-30h67v-46h-190v46h68v591h-65v45h190v-45h-70v-483h2l362 454v29h-85zM339 760c-67 0 -114 53 -152 104l38 26c34 -46 78 -84 117 -84c25 0 69 6 138 74l22 -19c-56 -77 -113 -101 -163 -101z" />
    <glyph glyph-name="afii10028" unicode="&#x41a;" horiz-adv-x="585" 
d="M221 0h-181v46h61v591h-61v46h181v-46h-63v-591h63v-46zM456 626l-206 -265l234 -309l91 -10v-36c-22 -8 -53 -14 -75 -14c-26 0 -46 9 -64 32l-242 327v15l219 285c22 29 39 39 63 38c25 0 49 -7 72 -17l-5 -36z" />
    <glyph glyph-name="afii10029" unicode="&#x41b;" horiz-adv-x="647" 
d="M597 0h-182v47h61v589h-241v-74c0 -298 -17 -548 -216 -582l-9 43c153 49 171 224 171 527v86h-86v47h502v-46h-63v-590h63v-47z" />
    <glyph glyph-name="afii10030" unicode="&#x41c;" horiz-adv-x="825" 
d="M410 130h6l57 130l186 423h126v-46h-62v-591h62v-46h-182v46h64v534h-2l-49 -114l-177 -399h-55l-182 407l-46 106h-2l2 -534h65v-46h-181v46h61v591h-61v46h126l188 -425z" />
    <glyph glyph-name="afii10031" unicode="&#x41d;" horiz-adv-x="664" 
d="M624 0h-182v47h62v289h-345v-289h63v-47h-182v47h62v590h-62v46h182v-46h-63v-252h345v252h-62v46h182v-46h-63v-590h63v-47z" />
    <glyph glyph-name="afii10032" unicode="&#x41e;" horiz-adv-x="648" 
d="M598 338c0 -196 -90 -345 -268 -345c-206 0 -280 131 -280 342c0 187 68 358 280 358c215 0 268 -173 268 -355zM540 335c0 138 -31 311 -210 311s-222 -156 -222 -313c0 -193 66 -293 222 -293c143 0 210 134 210 295z" />
    <glyph glyph-name="afii10033" unicode="&#x41f;" horiz-adv-x="677" 
d="M624 0h-184v47h62v587h-342v-587h63v-47h-183v47h62v587h-62v49h584v-49h-63v-587h63v-47z" />
    <glyph glyph-name="afii10034" unicode="&#x420;" horiz-adv-x="542" 
d="M244 0h-204v46h63v591h-63v46h270c110 0 202 -61 202 -193c0 -76 -38 -202 -194 -202h-158v-242h84v-46zM160 334h155c68 0 140 35 140 153c0 101 -63 150 -143 150h-152v-303z" />
    <glyph glyph-name="afii10035" unicode="&#x421;" horiz-adv-x="545" 
d="M503 66l12 -43c-43 -17 -124 -30 -184 -30c-202 0 -281 134 -281 344c0 140 57 356 285 356c75 0 132 -13 169 -27v-144h-48v107c-30 9 -76 16 -119 16c-158 0 -229 -124 -229 -310c0 -156 38 -293 230 -293c38 0 109 6 165 24z" />
    <glyph glyph-name="afii10036" unicode="&#x422;" horiz-adv-x="518" 
d="M502 683l1 -145h-49v99h-166v-591h74v-46h-202v46h72v591h-169v-99h-48v145h487z" />
    <glyph glyph-name="afii10037" unicode="&#x423;" horiz-adv-x="550" 
d="M182 683v-46h-65l93 -247l68 -188h4l65 187l90 248h-67v46h174v-46h-52l-197 -541c-26 -70 -56 -99 -114 -99c-11 0 -41 -2 -104 16l10 41c32 -6 60 -12 83 -12c35 0 58 16 78 70l18 50h-26l-181 475h-54v46h177z" />
    <glyph glyph-name="afii10038" unicode="&#x424;" horiz-adv-x="764" 
d="M724 346c0 -142 -118 -247 -308 -256v-43h72v-47h-200v47h71v43c-224 9 -319 100 -319 253c0 123 94 247 319 258v36h-71v46h200v-46h-72v-36c232 -8 308 -133 308 -255zM94 341c0 -134 93 -199 265 -207v422c-197 -10 -265 -110 -265 -215zM670 343
c0 100 -60 205 -254 213v-422c161 9 254 92 254 209z" />
    <glyph glyph-name="afii10039" unicode="&#x425;" horiz-adv-x="604" 
d="M269 356l-174 281h-60v46h191v-46h-70l147 -242l149 242h-73v46h194v-46h-60l-180 -286l188 -304h63v-47h-200v47h77l-163 265l-158 -265h81v-47h-201v47h60z" />
    <glyph glyph-name="afii10040" unicode="&#x426;" horiz-adv-x="664" 
d="M560 637v-591h62v-208h-48v162h-535v46h62v591h-62v45h183v-45h-63v-591h342v591h-62v45h184v-45h-63z" />
    <glyph glyph-name="afii10041" unicode="&#x427;" horiz-adv-x="621" 
d="M581 46v-46h-181v46h61v269c-66 -25 -129 -38 -184 -38c-108 0 -184 49 -184 149v210h-63v46h183v-46h-64v-191c0 -90 55 -119 142 -119c58 0 123 17 170 38v272h-61v46h181v-46h-64v-590h64z" />
    <glyph glyph-name="afii10042" unicode="&#x428;" horiz-adv-x="905" 
d="M681 682h184v-45h-63v-591h63v-46h-825v46h62v591h-62v45h183v-45h-63v-591h265v591h-62v45h184v-45h-63v-591h259v591h-62v45z" />
    <glyph glyph-name="afii10043" unicode="&#x429;" horiz-adv-x="905" 
d="M802 637v-591h61v-208h-48v162h-775v46h62v591h-62v45h183v-45h-63v-591h265v591h-62v45h184v-45h-63v-591h259v591h-62v45h184v-45h-63z" />
    <glyph glyph-name="afii10044" unicode="&#x42a;" horiz-adv-x="730" 
d="M183 46h68v591h-188v-89h-48v134h356v-45h-63v-242h171c152 0 211 -105 211 -200c0 -132 -89 -195 -199 -195h-308v46zM475 349h-167v-303h180c80 0 146 48 146 149c0 109 -82 154 -159 154z" />
    <glyph glyph-name="afii10045" unicode="&#x42b;" horiz-adv-x="822" 
d="M777 0h-181v46h61v591h-61v45h181v-45h-63v-591h63v-46zM40 683h196v-46h-71v-242h171c152 0 211 -105 211 -200c0 -132 -89 -195 -199 -195h-308v46h68v591h-68v46zM332 349h-167v-303h180c80 0 146 48 146 149c0 109 -82 154 -159 154z" />
    <glyph glyph-name="afii10046" unicode="&#x42c;" horiz-adv-x="592" 
d="M45 683h196v-46h-71v-242h171c152 0 211 -105 211 -200c0 -132 -89 -195 -199 -195h-308v46h68v591h-68v46zM337 349h-167v-303h180c80 0 146 48 146 149c0 109 -82 154 -159 154z" />
    <glyph glyph-name="afii10047" unicode="&#x42d;" horiz-adv-x="546" 
d="M448 337l-281 -4v54l281 -6c-3 159 -65 264 -215 264c-43 0 -104 -9 -134 -18v-107h-48v144c39 14 106 29 181 29c234 0 274 -181 274 -345c0 -203 -86 -355 -297 -355c-60 0 -138 12 -179 29l13 44c56 -18 125 -26 163 -26c187 0 242 148 242 297z" />
    <glyph glyph-name="afii10048" unicode="&#x42e;" horiz-adv-x="883" 
d="M833 338c0 -196 -80 -345 -258 -345c-206 0 -270 131 -270 342v1h-145v-289h63v-47h-183v47h62v590h-62v45h183v-45h-63v-252h146c12 166 76 308 269 308c215 0 258 -173 258 -355zM775 335c0 138 -21 311 -200 311s-212 -156 -212 -313c0 -193 56 -293 212 -293
c143 0 200 134 200 295z" />
    <glyph glyph-name="afii10049" unicode="&#x42f;" horiz-adv-x="605" 
d="M545 0h-198v46h74v259h-155l-131 -268c-12 -27 -21 -44 -55 -44c-19 0 -50 5 -70 12v33l71 9l131 265c-120 21 -143 111 -143 176c0 132 92 195 202 195h270v-46h-63v-591h67v-46zM276 351h145v286h-152c-80 0 -143 -48 -143 -149c0 -116 87 -137 150 -137z" />
    <glyph glyph-name="afii10065" unicode="&#x430;" horiz-adv-x="478" 
d="M341 239l-137 -7c-73 -4 -110 -40 -110 -96c0 -62 30 -96 100 -96c47 0 96 20 147 66v133zM394 336v-290h70l4 -33c-22 -11 -54 -17 -73 -17c-34 0 -53 10 -54 59l-2 1c-78 -64 -136 -63 -167 -63c-109 0 -137 84 -137 139c0 91 74 138 176 143l130 7v40
c0 93 -26 122 -110 122c-48 0 -99 -10 -150 -28l-15 40c54 25 119 39 177 39c96 0 151 -42 151 -159z" />
    <glyph glyph-name="afii10066" unicode="&#x431;" horiz-adv-x="480" 
d="M284 645c-133 -44 -176 -110 -190 -249h2c27 54 91 90 156 90c146 0 188 -113 188 -249c0 -112 -41 -245 -207 -245c-158 0 -193 129 -193 235c0 156 6 211 11 237c22 106 78 175 198 220c43 16 103 42 144 59l20 -43c-49 -26 -105 -47 -129 -55zM384 234
c0 98 -20 204 -141 204c-113 -3 -146 -112 -146 -212c0 -84 18 -186 145 -186c116 0 142 102 142 194z" />
    <glyph glyph-name="afii10067" unicode="&#x432;" horiz-adv-x="464" 
d="M84 443h-49v44h228c104 0 157 -51 157 -124c0 -34 -12 -77 -61 -106c62 -25 77 -79 77 -122c0 -81 -71 -135 -146 -135h-258v44h52v399zM381 139c0 47 -38 91 -113 91h-130v-186h130c83 0 113 47 113 95zM364 359c0 48 -32 84 -110 84h-116v-167h124c62 0 102 35 102 83z
" />
    <glyph glyph-name="afii10068" unicode="&#x433;" horiz-adv-x="405" 
d="M209 44v-44h-177v44h51v399h-48v44h354v-131h-44v87h-210v-399h74z" />
    <glyph glyph-name="afii10069" unicode="&#x434;" horiz-adv-x="539" 
d="M448 487v-443h44v-174h-45v130h-372v-130h-45v174h41c77 55 82 245 83 365v34h-58v44h352zM394 443h-188v-35c0 -120 -9 -292 -67 -364h255v399z" />
    <glyph glyph-name="afii10070" unicode="&#x435;" horiz-adv-x="462" 
d="M242 497c189 0 184 -183 184 -230v-38h-330c-1 -97 28 -189 146 -189c59 0 98 11 155 36l16 -37c-55 -30 -106 -44 -170 -44c-164 0 -203 110 -203 247c0 77 21 255 202 255zM242 450c-104 0 -138 -84 -145 -175h275c0 104 -31 175 -130 175z" />
    <glyph glyph-name="afii10072" unicode="&#x436;" horiz-adv-x="710" 
d="M380 44h72v-44h-192v44h67v398h-67v45h189v-45h-69v-398zM457 257l159 -212l75 -7v-30c-14 -9 -44 -15 -62 -15c-19 0 -36 3 -53 26l-173 233v9l165 207c18 22 34 26 53 26c18 0 41 -6 55 -15l-3 -30l-65 -7zM95 45l157 208l-154 189l-65 7l-3 30c14 9 37 15 55 15
c19 0 33 -4 51 -26l172 -211v-9l-173 -229c-17 -23 -34 -26 -53 -26c-18 0 -48 6 -62 15v30z" />
    <glyph glyph-name="afii10073" unicode="&#x437;" horiz-adv-x="434" 
d="M290 270v-3c56 -13 99 -56 99 -120c0 -111 -101 -154 -201 -154c-59 0 -128 17 -163 35l15 37c50 -17 94 -28 143 -28c95 0 154 32 154 110c0 77 -76 94 -126 94h-80v46h68c52 1 123 13 123 85c0 48 -34 80 -111 80c-39 0 -82 -5 -123 -19v-89h-44v119
c40 20 113 35 167 35c97 0 164 -42 164 -119c0 -59 -44 -99 -85 -109z" />
    <glyph glyph-name="afii10074" unicode="&#x438;" horiz-adv-x="547" 
d="M400 400h-3l-59 -94l-196 -306h-49v443h-73v44h125v-395h4l51 81l201 314h52v-441h74v-33c-22 -11 -54 -17 -73 -17c-34 0 -53 10 -54 59v345z" />
    <glyph glyph-name="afii10075" unicode="&#x439;" horiz-adv-x="547" 
d="M400 400h-3l-59 -94l-196 -306h-49v443h-73v44h125v-395h4l51 81l201 314h52v-441h74v-33c-22 -11 -54 -17 -73 -17c-34 0 -53 10 -54 59v345zM263 541c-67 0 -114 53 -152 104l38 26c34 -46 78 -84 117 -84c25 0 69 6 138 74l22 -19c-56 -77 -113 -101 -163 -101z" />
    <glyph glyph-name="afii10076" unicode="&#x43a;" horiz-adv-x="481" 
d="M151 487v-443h71v-44h-196v44h72v399h-83v44h136zM225 258l169 -214l72 -7v-29c-14 -9 -43 -15 -61 -15c-19 0 -35 4 -53 26l-182 233v9l174 207c18 22 34 26 53 26c18 0 41 -6 55 -15l-3 -30l-65 -4z" />
    <glyph glyph-name="afii10077" unicode="&#x43b;" horiz-adv-x="527" 
d="M497 0h-180v44h63v399h-188v-40c0 -217 -5 -385 -160 -418l-14 44c113 46 122 136 122 365v49h-77v44h370v-443h64v-44z" />
    <glyph glyph-name="afii10078" unicode="&#x43c;" horiz-adv-x="704" 
d="M542 387h-4l-38 -84l-124 -261h-49l-129 254l-47 97h-3v-393h-50v443h-75v44h133l143 -286l52 -108h1l50 109l135 285h125v-44h-70v-397h75v-33c-22 -11 -53 -17 -72 -17c-34 0 -52 10 -53 59v332z" />
    <glyph glyph-name="afii10079" unicode="&#x43d;" horiz-adv-x="525" 
d="M444 -4c-34 0 -54 10 -54 59v181h-258v-236h-53v443h-67v44h121v-206h257v206h53v-441h74v-33c-22 -11 -54 -17 -73 -17z" />
    <glyph glyph-name="afii10080" unicode="&#x43e;" horiz-adv-x="481" 
d="M385 240c0 91 -21 210 -140 210s-148 -111 -148 -211c0 -103 21 -199 148 -199c117 0 140 108 140 200zM245 497c156 0 196 -131 196 -255c0 -120 -42 -249 -207 -249c-152 0 -194 119 -194 247c0 126 53 257 205 257z" />
    <glyph glyph-name="afii10081" unicode="&#x43f;" horiz-adv-x="561" 
d="M460 46h74v-33c-22 -11 -54 -17 -73 -17c-34 0 -53 10 -54 59v387h-257v-442h-54v442h-70v45h506v-45h-72v-396z" />
    <glyph glyph-name="afii10082" unicode="&#x440;" horiz-adv-x="515" 
d="M13 -208v44h79v607h-82v44h137v-50c37 30 93 56 150 56c134 0 178 -112 178 -241c0 -148 -52 -263 -192 -263c-39 0 -98 11 -136 38v-191h86v-44h-220zM147 390v-314c21 -17 84 -39 133 -39c77 0 138 54 138 217c0 143 -51 191 -132 191c-44 0 -115 -30 -139 -55z" />
    <glyph glyph-name="afii10083" unicode="&#x441;" horiz-adv-x="433" 
d="M249 498c53 0 105 -11 142 -28v-118h-44v86c-35 11 -62 14 -95 14c-110 0 -156 -92 -156 -215c0 -108 32 -198 146 -198c53 0 95 12 148 34l16 -36c-39 -23 -100 -42 -163 -42c-151 0 -203 101 -203 242c0 99 36 261 209 261z" />
    <glyph glyph-name="afii10084" unicode="&#x442;" horiz-adv-x="425" 
d="M405 487v-112h-45v68h-121v-399h65v-44h-179v44h62v399h-122v-68h-45v112h385z" />
    <glyph glyph-name="afii10085" unicode="&#x443;" horiz-adv-x="503" 
d="M250 43l36 109l95 290h-66v45h169v-45h-51l-184 -557c-23 -71 -54 -99 -112 -99c-11 0 -41 -2 -104 16l10 41c32 -6 60 -12 83 -12c35 0 60 15 78 70l32 99h-27l-143 442h-50v45h92l104 -333l33 -111h5z" />
    <glyph glyph-name="afii10086" unicode="&#x444;" horiz-adv-x="625" 
d="M208 -208v45h79v156c-184 8 -247 108 -247 246c0 142 73 250 247 255v171h-80v44h130v-215c174 -2 248 -101 248 -243c0 -138 -63 -246 -248 -258v-156h90v-45h-219zM337 447v-409c146 6 195 93 195 208c0 114 -42 199 -195 201zM287 38v409c-153 -6 -194 -91 -194 -205
c0 -115 48 -201 194 -204z" />
    <glyph glyph-name="afii10087" unicode="&#x445;" horiz-adv-x="464" 
d="M124 487l114 -197l88 153h-42v44h162v-44h-64l-117 -197l125 -202h65v-44h-165v44h41l-102 170l-99 -170h54v-44h-174v44h63l127 212l-108 187h-76v44h108z" />
    <glyph glyph-name="afii10050" unicode="&#x490;" horiz-adv-x="513" 
d="M445 682v129h48v-174h-330v-591h97v-46h-220v46h66v591h-62v45h401z" />
    <glyph glyph-name="afii10098" unicode="&#x491;" horiz-adv-x="405" 
d="M345 487v103h44v-147h-254v-400h74v-43h-177v43h51v400h-48v44h310z" />
    <glyph glyph-name="Wgrave" unicode="&#x1e80;" horiz-adv-x="881" 
d="M761 637h-71v46h186v-46h-62c-48 -202 -106 -434 -155 -637h-62l-122 413l-28 100h-2l-30 -105l-120 -408h-65l-159 637h-61v46h191v-46h-73l112 -466l23 -99h2l28 102l124 429l-10 34h-71v46h201v-46h-74l141 -476l25 -89h2l23 101zM458 747l-29 -21l-131 139l49 40z
" />
    <glyph glyph-name="wgrave" unicode="&#x1e81;" horiz-adv-x="738" 
d="M368 333h-6l-42 -126l-71 -207h-61l-130 442h-55v45h95l80 -280l42 -149h4l47 145l68 198l-13 41h-76v45h187v-45h-54l91 -255l44 -129h4l34 132l68 252h-68v45h172v-45h-51l-124 -442h-62l-79 212zM371 557l-29 -21l-131 139l49 40z" />
    <glyph glyph-name="Wacute" unicode="&#x1e82;" horiz-adv-x="881" 
d="M761 637h-71v46h186v-46h-62c-48 -202 -106 -434 -155 -637h-62l-122 413l-28 100h-2l-30 -105l-120 -408h-65l-159 637h-61v46h191v-46h-73l112 -466l23 -99h2l28 102l124 429l-10 34h-71v46h201v-46h-74l141 -476l25 -89h2l23 101zM460 727l-29 21l111 158l49 -40z" />
    <glyph glyph-name="wacute" unicode="&#x1e83;" horiz-adv-x="738" 
d="M368 333h-6l-42 -126l-71 -207h-61l-130 442h-55v45h95l80 -280l42 -149h4l47 145l68 198l-13 41h-76v45h187v-45h-54l91 -255l44 -129h4l34 132l68 252h-68v45h172v-45h-51l-124 -442h-62l-79 212zM379 536l-29 21l111 158l49 -40z" />
    <glyph glyph-name="Wdieresis" unicode="&#x1e84;" horiz-adv-x="881" 
d="M761 637h-71v46h186v-46h-62c-48 -202 -106 -434 -155 -637h-62l-122 413l-28 100h-2l-30 -105l-120 -408h-65l-159 637h-61v46h191v-46h-73l112 -466l23 -99h2l28 102l124 429l-10 34h-71v46h201v-46h-74l141 -476l25 -89h2l23 101zM533 727c-21 0 -36 15 -36 37
c0 21 17 38 36 38c25 0 43 -15 43 -38c0 -22 -18 -37 -43 -37zM355 727c-23 0 -40 15 -40 37c0 21 19 38 38 38c25 0 42 -15 42 -38c0 -22 -17 -37 -40 -37z" />
    <glyph glyph-name="wdieresis" unicode="&#x1e85;" horiz-adv-x="738" 
d="M368 333h-6l-42 -126l-71 -207h-61l-130 442h-55v45h95l80 -280l42 -149h4l47 145l68 198l-13 41h-76v45h187v-45h-54l91 -255l44 -129h4l34 132l68 252h-68v45h172v-45h-51l-124 -442h-62l-79 212zM452 518c-21 0 -36 15 -36 37c0 21 17 38 36 38c25 0 43 -15 43 -38
c0 -22 -18 -37 -43 -37zM274 518c-23 0 -40 15 -40 37c0 21 19 38 38 38c25 0 42 -15 42 -38c0 -22 -17 -37 -40 -37z" />
    <glyph glyph-name="Ygrave" unicode="&#x1ef2;" horiz-adv-x="550" 
d="M273 360h4l155 277h-67v46h175v-46h-52l-185 -327v-264h82v-46h-222v46h82v261l-181 330h-54v46h179v-46h-65zM300 747l-29 -21l-131 139l49 40z" />
    <glyph glyph-name="ygrave" unicode="&#x1ef3;" horiz-adv-x="503" 
d="M250 43l36 109l95 290h-66v45h169v-45h-51l-184 -557c-23 -71 -54 -99 -112 -99c-11 0 -41 -2 -104 16l10 41c32 -6 60 -12 83 -12c35 0 60 15 78 70l32 99h-27l-143 442h-50v45h92l104 -333l33 -111h5zM266 557l-29 -21l-131 139l49 40z" />
    <glyph glyph-name="afii00208" unicode="&#x2015;" horiz-adv-x="1000" 
d="M968 232h-941v47h941v-47z" />
    <glyph glyph-name="fraction" unicode="&#x2044;" horiz-adv-x="107" 
d="M224 698l-282 -721h-43l284 721h41z" />
    <glyph glyph-name="fraction" unicode="&#x2215;" horiz-adv-x="107" 
d="M224 698l-282 -721h-43l284 721h41z" />
    <glyph glyph-name="dong" unicode="&#x20ab;" horiz-adv-x="540" 
d="M355 126l-2 2c-33 -26 -80 -48 -130 -48c-118 0 -158 86 -158 195c0 130 47 223 171 223c33 0 85 -11 119 -34v77h-137v41h137v62h-76v39h124v-101h70v-41h-70v-418h70v-38h-118v41zM355 171v249c-19 15 -74 35 -117 35c-68 0 -123 -38 -123 -182
c0 -120 46 -151 117 -151c40 0 102 27 123 49zM475 0h-396v40h396v-40z" />
    <glyph glyph-name="centigrade" unicode="&#x2103;" horiz-adv-x="817" 
d="M775 66l12 -43c-43 -17 -124 -30 -184 -30c-202 0 -281 134 -281 344c0 140 57 356 285 356c75 0 132 -13 169 -27v-144h-48v107c-30 9 -76 16 -119 16c-158 0 -229 -124 -229 -310c0 -156 38 -293 230 -293c38 0 109 6 165 24zM159 473c-81 0 -129 55 -129 126
c0 68 58 129 129 129s126 -61 126 -129c0 -71 -55 -126 -126 -126zM156 687c-49 0 -88 -41 -88 -91c0 -48 39 -88 88 -88c48 0 89 40 89 88c0 50 -41 91 -89 91z" />
    <glyph glyph-name="fahrenheit" unicode="&#x2109;" horiz-adv-x="823" 
d="M171 473c-81 0 -129 55 -129 126c0 68 58 129 129 129s126 -61 126 -129c0 -71 -55 -126 -126 -126zM168 687c-49 0 -88 -41 -88 -91c0 -48 39 -88 88 -88c48 0 89 40 89 88c0 50 -41 91 -89 91zM570 46v-46h-220v46h66v591h-62v45h449v-134h-48v89h-282v-255l279 6v-54
l-279 4v-292h97z" />
    <glyph glyph-name="afii61352" unicode="&#x2116;" horiz-adv-x="1019" 
d="M983 271h-272v47h272v-47zM943 510c0 57 -15 133 -93 133c-80 0 -99 -71 -99 -134c0 -65 14 -125 99 -125c77 0 93 67 93 126zM850 678c109 0 136 -86 136 -167c0 -79 -25 -165 -140 -165c-105 0 -139 79 -139 164c0 82 36 168 143 168zM534 104h5v533h-70v46h190v-46
h-65v-637h-53l-304 475l-73 117l-3 -1l1 -544h70v-47h-192v47h67v590h-67v46h128l282 -445z" />
    <glyph glyph-name="published" unicode="&#x2117;" horiz-adv-x="824" 
d="M412 -23c-199 0 -360 160 -360 357c0 196 161 356 360 356c198 0 362 -160 362 -356c0 -197 -164 -357 -362 -357zM412 655c-178 0 -325 -143 -325 -321c0 -177 147 -321 325 -321c181 0 325 144 325 321c0 178 -144 321 -325 321zM426 78h-154v35h48v436h-48v35h204
c83 0 152 -46 152 -146c0 -57 -28 -152 -146 -152h-119v-173h63v-35zM363 321h117c51 0 105 26 105 115c0 76 -47 113 -108 113h-114v-228z" />
    <glyph glyph-name="Ohm" unicode="&#x2126;" horiz-adv-x="666" 
d="M338 693c213 0 270 -166 270 -339c0 -126 -26 -247 -106 -306l2 -1h122v-47h-226v51c120 29 149 161 149 301c0 136 -33 293 -211 293c-166 0 -220 -133 -220 -291c0 -154 29 -277 144 -302v-52h-222v47h112l1 1c-83 57 -93 182 -93 306c0 178 72 339 278 339z" />
    <glyph glyph-name="angstrom" unicode="&#x212b;" horiz-adv-x="636" 
d="M617 0h-187v46h71l-44 143h-277l-44 -143h74v-46h-190v46h58c64 204 140 434 205 638h72l207 -638h55v-46zM441 239l-99 316l-22 74h-2c-1 -4 -4 -16 -23 -75c-17 -53 -47 -147 -98 -315h244zM321 704c-57 0 -102 44 -102 98c0 53 45 99 102 99c55 0 99 -45 99 -99
c0 -55 -44 -98 -99 -98zM321 867c-40 0 -66 -29 -66 -67c0 -37 26 -65 66 -65c37 0 63 28 63 65s-26 67 -63 67z" />
    <glyph glyph-name="gradient" unicode="&#x2207;" horiz-adv-x="636" 
d="M587 684v-41l-234 -643h-72l-233 643v41h539zM371 198l158 440h-425l159 -439l53 -152h2z" />
    <glyph glyph-name="product" unicode="&#x220f;" horiz-adv-x="664" 
d="M624 -87h-184v47h62v674h-342v-674h63v-47h-183v47h62v674h-62v49h584v-49h-63v-674h63v-47z" />
    <glyph glyph-name="summation" unicode="&#x2211;" horiz-adv-x="511" 
d="M276 321v-19l-182 -343h342v108h50v-155h-456v46l187 353l-187 326v46h445v-145h-48v99h-333z" />
    <glyph glyph-name="minus" unicode="&#x2212;" horiz-adv-x="540" 
d="M458 274h-374v47h374v-47z" />
    <glyph glyph-name="radical" unicode="&#x221a;" horiz-adv-x="540" 
d="M46 269l-15 38l96 49l109 -357h4l221 751h48l-242 -807h-63l-110 349z" />
    <glyph glyph-name="infinity" unicode="&#x221e;" horiz-adv-x="760" 
d="M558 112c-56 0 -107 33 -179 103c-50 -49 -106 -103 -186 -103c-78 0 -140 62 -140 138c0 79 61 141 147 141c70 0 127 -50 180 -105c56 54 107 105 188 105c82 0 139 -56 139 -136c0 -84 -68 -143 -149 -143zM204 157c55 0 109 53 147 91c-43 46 -94 98 -156 98
c-54 0 -88 -45 -88 -95c0 -53 41 -94 97 -94zM559 157c58 0 94 46 94 97c0 60 -42 92 -93 92c-56 0 -111 -55 -149 -93c57 -58 93 -96 148 -96z" />
    <glyph glyph-name="logicaland" unicode="&#x2227;" horiz-adv-x="540" 
d="M56 1l182 488h42l203 -488h-55l-168 397l-151 -397h-53z" />
    <glyph glyph-name="logicalor" unicode="&#x2228;" horiz-adv-x="540" 
d="M238 1l-182 488h53l151 -397l168 397h55l-203 -488h-42z" />
    <glyph glyph-name="intersection" unicode="&#x2229;" horiz-adv-x="540" 
d="M452 1h-55v302c0 77 -38 142 -131 142s-124 -55 -124 -132v-312h-54v314c0 104 58 178 179 178s185 -86 185 -188v-304z" />
    <glyph glyph-name="union" unicode="&#x222a;" horiz-adv-x="540" 
d="M397 489h55v-300c0 -102 -64 -188 -185 -188s-179 74 -179 178v310h54v-308c0 -77 31 -132 124 -132s131 65 131 142v298z" />
    <glyph glyph-name="integral" unicode="&#x222b;" horiz-adv-x="320" 
d="M143 -3c0 222 -29 367 -29 592c0 98 51 162 134 162c26 0 38 -3 67 -10l-7 -41c-23 3 -30 4 -50 4c-75 0 -92 -44 -92 -113c0 -225 30 -347 30 -594c0 -98 -51 -162 -134 -162c-26 0 -38 3 -67 10l8 41c23 -3 29 -4 49 -4c79 0 91 46 91 115z" />
    <glyph glyph-name="approxequal" unicode="&#x2248;" horiz-adv-x="540" 
d="M177 423c58 0 150 -48 198 -48l69 48l26 -19c-19 -42 -58 -76 -107 -76c-76 0 -138 47 -192 47l-74 -47l-27 20c20 42 59 75 107 75zM177 309c58 0 150 -48 198 -48l69 48l26 -18c-19 -42 -58 -76 -107 -76c-76 0 -138 47 -192 47l-74 -47l-27 23c20 42 59 71 107 71z
" />
    <glyph glyph-name="notequal" unicode="&#x2260;" horiz-adv-x="540" 
d="M446 460l-59 -66h79v-47h-121l-82 -91h203v-46h-245l-106 -119l-34 30l79 89h-87v46h128l81 91h-209v47h251l87 97z" />
    <glyph glyph-name="lessequal" unicode="&#x2264;" horiz-adv-x="540" 
d="M466 0h-393v46h393v-46zM466 102l-393 154v41l393 152v-54l-338 -118l338 -121v-54z" />
    <glyph glyph-name="greaterequal" unicode="&#x2265;" horiz-adv-x="540" 
d="M467 1h-393v46h393v-46zM468 257l-396 -154v54l341 121l-341 118v54l396 -152v-41z" />
    <glyph glyph-name="lozenge" unicode="&#x25ca;" horiz-adv-x="521" 
d="M240 0l-190 348l190 334h42l189 -334l-189 -348h-42zM101 348l161 -293l155 293l-155 279z" />
    <glyph glyph-name="zero.text" unicode="&#xe000;" horiz-adv-x="525" 
d="M496 328c0 -154 -52 -335 -230 -335c-205 0 -237 172 -237 332c0 142 34 348 239 348c209 0 228 -216 228 -345zM438 325c0 103 -7 299 -170 299c-165 0 -181 -184 -181 -301c0 -155 28 -282 181 -282c140 0 170 153 170 284z" />
    <glyph glyph-name="one.text" unicode="&#xe001;" horiz-adv-x="469" 
d="M217 596l-161 -26l-9 36l173 57h53v-617h136v-46h-338v46h146v550z" />
    <glyph glyph-name="two.text" unicode="&#xe002;" horiz-adv-x="525" 
d="M474 0h-422v43c101 101 339 297 339 446c0 94 -63 133 -147 133c-31 0 -90 -4 -170 -54l-23 35c81 60 158 70 201 70c113 0 198 -54 198 -177c0 -170 -222 -348 -323 -449h296v99h51v-146z" />
    <glyph glyph-name="three.text" unicode="&#xe003;" horiz-adv-x="525" 
d="M458 627l-229 -230h17c121 0 229 -58 229 -190c0 -146 -112 -216 -229 -216c-78 0 -140 12 -197 38l15 42c74 -21 125 -29 164 -29c116 0 189 51 189 165c0 91 -70 141 -186 141c-25 0 -44 -2 -68 -6l-18 38l229 232v1h-249v-102l-51 -1v153h373z" />
    <glyph glyph-name="four.text" unicode="&#xe004;" horiz-adv-x="525" 
d="M500 190h-97v-144h75v-46h-199v46h70v144h-325v47l321 426h58v-426h97v-47zM350 589h-6l-48 -66l-215 -286h269v352z" />
    <glyph glyph-name="five.text" unicode="&#xe005;" horiz-adv-x="525" 
d="M265 411c98 0 210 -55 210 -204c0 -146 -112 -216 -229 -216c-78 0 -140 12 -197 38l15 42c74 -21 125 -29 164 -29c116 0 189 51 189 165c0 105 -79 155 -169 155c-39 0 -81 -10 -118 -29l-40 31l18 299h339v-133h-48v83h-241l-13 -224c17 5 53 22 120 22z" />
    <glyph glyph-name="six.text" unicode="&#xe006;" horiz-adv-x="525" 
d="M102 367l6 -3c36 22 94 49 171 49c105 0 201 -56 201 -206c0 -131 -88 -214 -217 -214c-176 0 -219 143 -219 312c0 218 85 369 251 369c71 0 124 -21 145 -33l-17 -42c-51 21 -96 26 -129 26c-155 0 -188 -185 -192 -258zM273 363c-112 0 -172 -55 -172 -55v-23
c0 -86 15 -244 164 -244c105 0 157 69 157 162c0 94 -38 160 -149 160z" />
    <glyph glyph-name="seven.text" unicode="&#xe007;" horiz-adv-x="525" 
d="M457 616l-277 -616h-54l276 613h-284v-103h-51v153h390v-47z" />
    <glyph glyph-name="eight.text" unicode="&#xe008;" horiz-adv-x="525" 
d="M128 512c0 -78 90 -108 178 -145c76 52 101 100 101 142c0 52 -38 119 -143 119c-103 0 -136 -76 -136 -116zM259 37c109 0 162 68 162 138c0 99 -89 129 -211 179c-85 -53 -116 -125 -116 -187c0 -65 46 -130 165 -130zM461 518c0 -52 -24 -114 -105 -172
c70 -35 120 -90 120 -172c0 -97 -79 -181 -220 -181c-149 0 -219 77 -219 167c0 76 37 161 130 215c-65 36 -97 75 -97 137c0 88 79 162 197 162c89 0 194 -44 194 -156z" />
    <glyph glyph-name="nine.text" unicode="&#xe009;" horiz-adv-x="525" 
d="M422 301l-5 3c-36 -22 -94 -50 -172 -50c-105 0 -200 56 -200 206c0 131 87 214 216 214c176 0 219 -143 219 -312c0 -218 -85 -368 -251 -368c-71 0 -134 21 -155 33l17 42c51 -21 106 -26 139 -26c155 0 188 186 192 258zM251 304c112 0 172 55 172 55v23
c0 86 -15 241 -164 241c-105 0 -157 -66 -157 -159c0 -94 38 -160 149 -160z" />
    <glyph glyph-name="numbersign.text" unicode="&#xe00a;" horiz-adv-x="508" 
d="M268 0l41 194h-162l-41 -194h-40l41 194h-75l11 37h72l40 186h-79l11 37h76l37 170h40l-37 -170h162l37 170h40l-37 -170h68l-11 -37h-65l-40 -186h72l-11 -37h-69l-41 -194h-40zM195 417l-40 -186h162l40 186h-162z" />
    <glyph glyph-name="dollar.text" unicode="&#xe00b;" horiz-adv-x="480" 
d="M247 -75v802h36v-62c39 -3 83 -13 119 -36v-118h-44v89c-22 11 -49 16 -75 19v-263c83 -34 162 -66 162 -174c0 -107 -70 -160 -162 -175v-82h-36zM213 727v-802h-35v79c-52 5 -96 16 -146 48v117h44v-87c44 -21 72 -25 102 -29v285c-78 28 -139 66 -139 158
c0 94 60 148 139 165v66h35zM394 186c0 65 -48 96 -111 120v-251c70 12 111 51 111 131zM91 501c0 -68 38 -92 87 -112v225c-48 -13 -87 -47 -87 -113z" />
    <glyph glyph-name="euro.text" unicode="&#xe00c;" horiz-adv-x="549" 
d="M32 310h412v-37h-312c9 -129 54 -233 215 -233c28 0 77 4 123 14v72h44v-104c-40 -16 -117 -29 -174 -29c-173 0 -256 110 -262 280h-46v37zM444 359h-412v37h49c11 123 84 274 263 274c70 0 124 -13 158 -26v-119h-45v83c-28 9 -71 16 -111 16
c-128 0 -195 -89 -211 -228h309v-37z" />
    <glyph glyph-name="florin.text" unicode="&#xe00d;" horiz-adv-x="529" 
d="M155 353v42h98l14 98c14 101 50 179 149 179c28 0 53 -5 78 -13l-11 -38c-31 7 -43 8 -66 8c-70 0 -89 -53 -101 -136c-4 -29 -10 -70 -13 -98h103v-42h-108c-8 -51 -31 -256 -38 -293c-19 -120 -64 -183 -152 -183c-25 0 -52 5 -76 17l15 37c26 -8 39 -9 56 -9
c68 0 89 47 107 139c14 69 28 223 38 292h-93z" />
    <glyph glyph-name="sterling.text" unicode="&#xe00e;" horiz-adv-x="497" 
d="M456 0h-424v46c64 22 78 111 81 178l5 91h-70v45h72l5 114c5 105 53 194 182 194c56 0 118 -12 155 -31v-121h-48v87c-29 9 -69 18 -105 18c-105 0 -128 -65 -133 -151l-5 -110h199v-45h-200l-5 -91c-3 -67 -15 -147 -52 -177h343v-47z" />
    <glyph glyph-name="cent.text" unicode="&#xe00f;" horiz-adv-x="433" 
d="M306 630v-93c46 -2 91 -12 124 -27v-118h-44v86c-30 9 -54 13 -80 14v-412c42 3 78 14 123 33l16 -36c-34 -20 -85 -37 -139 -41v-81h-40v80c-139 7 -187 106 -187 242c0 94 33 247 187 260v93h40zM135 277c0 -104 27 -191 131 -198v411c-94 -12 -131 -99 -131 -213z" />
    <glyph glyph-name="yen.text" unicode="&#xe010;" horiz-adv-x="568" 
d="M477 282h-388v35h151l-154 300h-54v46h179v-46h-65l136 -279h4l139 279h-67v46h175v-46h-52l-157 -300h153v-35zM89 232h388v-38h-168v-148h84v-46h-222v46h83v148h-165v38z" />
    <glyph glyph-name="slashedzero" unicode="&#xe23f;" horiz-adv-x="540" 
d="M503 328c0 -154 -52 -335 -230 -335c-205 0 -237 172 -237 332c0 142 34 348 239 348c209 0 228 -216 228 -345zM94 323c0 -109 14 -204 74 -251l187 531c-21 13 -48 21 -80 21c-165 0 -181 -184 -181 -301zM445 325c0 73 -4 192 -64 256l-184 -526c21 -9 47 -14 78 -14
c140 0 170 153 170 284z" />
    <glyph glyph-name="schwacyrillic" unicode="&#x4d9;" horiz-adv-x="462" 
d="M230 -5c-189 0 -184 183 -184 230v38h330c1 97 -28 189 -146 189c-59 0 -98 -11 -155 -36l-16 37c55 30 106 44 170 44c164 0 203 -110 203 -247c0 -77 -21 -255 -202 -255zM230 42c104 0 138 84 145 175h-275c0 -104 31 -175 130 -175z" />
    <glyph glyph-name="onehalf" unicode="&#xbd;" horiz-adv-x="785" 
d="M157 610l-101 -16l-8 35l116 33h44v-356h86v-41h-230v41h93v304zM548 698l-282 -721h-43l284 721h41zM737 0h-283v36c105 90 217 182 217 255c0 49 -37 69 -88 69c-20 0 -56 -2 -111 -33l-21 31c55 39 108 45 137 45c77 0 134 -33 134 -108c0 -91 -121 -190 -195 -253
h164v57h46v-99z" />
    <glyph glyph-name="j" unicode="j" horiz-adv-x="255" 
d="M107 -6v449h-73v44h126v-481c0 -119 -30 -167 -153 -219l-17 37c95 53 117 89 117 170zM91 607c0 22 18 40 39 40c22 0 40 -18 40 -40c0 -21 -18 -39 -40 -39c-21 0 -39 18 -39 39z" />
    <glyph glyph-name="Dcroat" unicode="&#x110;" horiz-adv-x="633" 
d="M44 349v39h64v249h-64v46h270c213 0 269 -158 269 -340c0 -188 -62 -343 -279 -343h-264v46h68v303h-64zM526 335c0 297 -156 302 -222 302h-137v-249h158v-39h-158v-302h129c57 0 230 -4 230 288z" />
    <glyph glyph-name="partialdiff" unicode="&#x2202;" horiz-adv-x="540" 
d="M113 214c0 -125 69 -173 148 -173c119 0 166 131 166 250c-52 72 -104 98 -168 98c-103 0 -146 -90 -146 -175zM152 674l-3 42c25 4 47 5 67 5c200 0 268 -177 268 -375c0 -239 -91 -356 -227 -356c-115 0 -202 76 -202 222c0 137 87 222 198 222c53 0 123 -14 173 -79
c1 209 -80 322 -218 322c-20 0 -34 1 -56 -3z" />
    <glyph glyph-name="Eth" unicode="&#xd0;" horiz-adv-x="633" 
d="M44 349v39h64v249h-64v46h270c213 0 269 -158 269 -340c0 -188 -62 -343 -279 -343h-264v46h68v303h-64zM526 335c0 297 -156 302 -222 302h-137v-249h158v-39h-158v-302h129c57 0 230 -4 230 288z" />
    <glyph glyph-name="afii10088" unicode="&#x446;" horiz-adv-x="541" 
d="M352 442v45h153v-45h-52v-396h58v-176h-46v130h-433v46h59v396h-61v45h113l1 -441h256v396h-48z" />
    <glyph glyph-name="afii10089" unicode="&#x447;" horiz-adv-x="535" 
d="M86 443h-76v44h129l1 -129c0 -72 6 -119 91 -119c52 0 110 12 156 37v212h54v-446h72l2 -33c-22 -11 -54 -17 -73 -17c-34 0 -53 10 -54 59l-1 180c-49 -30 -116 -40 -164 -40c-135 0 -137 88 -137 152v100z" />
    <glyph glyph-name="afii10090" unicode="&#x448;" horiz-adv-x="730" 
d="M541 442v45h153v-45h-52v-396h58v-46h-668v46h59v396h-61v45h114v-441h193v396h-48v45h153v-45h-52v-396h199v396h-48z" />
    <glyph glyph-name="afii10091" unicode="&#x449;" horiz-adv-x="730" 
d="M541 442v45h153v-45h-52v-396h58v-176h-46v130h-622v46h59v396h-61v45h114v-441h193v396h-48v45h153v-45h-52v-396h199v396h-48z" />
    <glyph glyph-name="afii10092" unicode="&#x44a;" horiz-adv-x="578" 
d="M14 356v131h238v-199h133c125 0 163 -76 163 -144c0 -93 -68 -144 -155 -144h-193v443h-141v-87h-45zM382 243h-130v-199h141c61 0 104 33 104 98c0 72 -50 101 -115 101z" />
    <glyph glyph-name="afii10093" unicode="&#x44b;" horiz-adv-x="664" 
d="M278 243h-130v-199h141c61 0 104 33 104 98c0 72 -50 101 -115 101zM19 487h129v-199h133c125 0 163 -76 163 -144c0 -93 -68 -144 -155 -144h-192v443h-78v44zM512 443h-58v44h111v-441h74v-33c-22 -11 -54 -17 -73 -17c-34 0 -53 10 -54 59v388z" />
    <glyph glyph-name="afii10094" unicode="&#x44c;" horiz-adv-x="474" 
d="M278 243h-130v-199h141c61 0 104 33 104 98c0 72 -50 101 -115 101zM19 487h129v-199h133c125 0 163 -76 163 -144c0 -93 -68 -144 -155 -144h-192v443h-78v44z" />
    <glyph glyph-name="afii10095" unicode="&#x44d;" horiz-adv-x="460" 
d="M353 237l-223 -3v47l222 -5c-7 107 -55 176 -150 176c-33 0 -66 -3 -101 -14v-86h-44v118c37 17 93 28 146 28c167 0 205 -135 206 -244c1 -141 -67 -259 -218 -259c-63 0 -122 19 -161 42l16 36c53 -22 93 -34 146 -34c112 0 160 93 161 198z" />
    <glyph glyph-name="afii10096" unicode="&#x44e;" horiz-adv-x="681" 
d="M450 497c149 0 191 -131 191 -255c0 -120 -44 -249 -202 -249c-147 0 -188 114 -189 241h-102v-234h-52v443h-76v44h128v-206h104c10 112 65 216 198 216zM585 240c0 91 -22 210 -135 210c-112 0 -143 -111 -143 -211c0 -103 16 -199 143 -199c111 0 135 108 135 200z
" />
    <glyph glyph-name="afii10097" unicode="&#x44f;" horiz-adv-x="490" 
d="M435 442h-49v-396h74v-33c-22 -11 -54 -17 -73 -17c-34 0 -53 10 -54 59v158h-115l-100 -186c-10 -17 -25 -34 -51 -34c-16 0 -39 4 -57 10v35l60 6c33 61 63 113 96 174c-88 16 -106 80 -106 126c0 97 72 143 159 143h216v-45zM224 257h109v186h-118
c-60 0 -103 -33 -103 -99c0 -75 65 -87 112 -87z" />
    <glyph glyph-name="afii10071" unicode="&#x451;" horiz-adv-x="462" 
d="M242 497c189 0 184 -183 184 -230v-38h-330c-1 -97 28 -189 146 -189c59 0 98 11 155 36l16 -37c-55 -30 -106 -44 -170 -44c-164 0 -203 110 -203 247c0 77 21 255 202 255zM242 450c-104 0 -138 -84 -145 -175h275c0 104 -31 175 -130 175zM334 542
c-21 0 -36 15 -36 37c0 21 17 38 36 38c25 0 43 -15 43 -38c0 -22 -18 -37 -43 -37zM156 542c-23 0 -40 15 -40 37c0 21 19 38 38 38c25 0 42 -15 42 -38c0 -22 -17 -37 -40 -37z" />
    <glyph glyph-name="afii10099" unicode="&#x452;" horiz-adv-x="509" 
d="M32 544v39h54v82h-84v44h138v-126h231v-39h-231v-124c59 26 109 40 157 40c104 0 167 -67 167 -248c0 -135 -44 -234 -194 -234c-9 0 -12 0 -21 1l2 40c108 0 159 40 159 196s-48 197 -124 197c-44 0 -103 -18 -146 -38v-374h-54v544h-54z" />
    <glyph glyph-name="afii10100" unicode="&#x453;" horiz-adv-x="405" 
d="M213 536l-29 21l111 158l49 -40zM209 44v-44h-177v44h51v399h-48v44h354v-131h-44v87h-210v-399h74z" />
    <glyph glyph-name="afii10101" unicode="&#x454;" horiz-adv-x="433" 
d="M319 227l-223 3c1 -105 34 -191 146 -191c53 0 95 12 148 34l16 -36c-39 -23 -100 -42 -163 -42c-151 0 -203 101 -203 242c0 99 36 261 209 261c53 0 105 -11 142 -28v-118h-44v86c-35 11 -62 14 -95 14c-100 0 -147 -76 -155 -183l222 5v-47z" />
    <glyph glyph-name="afii10102" unicode="&#x455;" horiz-adv-x="408" 
d="M30 140h43l3 -77c32 -16 78 -24 113 -24c72 0 130 18 130 91c0 58 -56 79 -116 96c-79 22 -163 44 -163 140c0 97 80 131 165 131c45 0 95 -10 134 -35l3 -110h-44l-3 82c-25 11 -60 17 -91 17c-61 0 -110 -20 -110 -87c0 -58 73 -74 113 -85c81 -22 164 -43 164 -150
c0 -96 -85 -135 -179 -135c-58 0 -119 11 -159 39z" />
    <glyph glyph-name="afii10103" unicode="&#x456;" horiz-adv-x="267" 
d="M95 607c0 22 18 40 39 40c22 0 40 -18 40 -40c0 -21 -18 -39 -40 -39c-21 0 -39 18 -39 39zM111 443h-58v44h111v-441h74v-33c-22 -11 -54 -17 -73 -17c-34 0 -53 10 -54 59v388z" />
    <glyph glyph-name="afii10104" unicode="&#x457;" horiz-adv-x="267" 
d="M214 535c-21 0 -36 15 -36 37c0 21 17 38 36 38c25 0 43 -15 43 -38c0 -22 -18 -37 -43 -37zM36 535c-23 0 -40 15 -40 37c0 21 19 38 38 38c25 0 42 -15 42 -38c0 -22 -17 -37 -40 -37zM111 443h-58v44h111v-441h74v-33c-22 -11 -54 -17 -73 -17c-34 0 -53 10 -54 59
v388z" />
    <glyph glyph-name="afii10105" unicode="&#x458;" horiz-adv-x="255" 
d="M107 -6v449h-73v44h126v-481c0 -119 -30 -167 -153 -219l-17 37c95 53 117 89 117 170zM91 607c0 22 18 40 39 40c22 0 40 -18 40 -40c0 -21 -18 -39 -40 -39c-21 0 -39 18 -39 39z" />
    <glyph glyph-name="afii10106" unicode="&#x459;" horiz-adv-x="733" 
d="M356 0v443h-166v-40c0 -217 -5 -385 -160 -418l-14 44c113 46 122 136 122 365v49h-77v44h346v-199h133c125 0 163 -76 163 -144c0 -93 -68 -144 -155 -144h-192zM537 243h-130v-199h141c61 0 104 33 104 98c0 72 -50 101 -115 101z" />
    <glyph glyph-name="afii10107" unicode="&#x45a;" horiz-adv-x="738" 
d="M283 487h129v-199h133c125 0 163 -76 163 -144c0 -93 -68 -144 -155 -144h-192v243h-221v-243h-52v443h-68v44h120v-199h221v155h-78v44zM542 243h-130v-199h141c61 0 104 33 104 98c0 72 -50 101 -115 101z" />
    <glyph glyph-name="afii10108" unicode="&#x45b;" horiz-adv-x="556" 
d="M42 546v37h54v82h-76v44h130v-126h231v-37h-231v-135c57 35 126 55 174 55c135 0 136 -88 136 -152v-268h74v-33c-22 -11 -54 -17 -73 -17c-34 0 -53 10 -54 59v244c0 72 -6 119 -91 119c-52 0 -120 -27 -166 -52v-366h-54v546h-54z" />
    <glyph glyph-name="afii10109" unicode="&#x45c;" horiz-adv-x="481" 
d="M224 536l-29 21l111 158l49 -40zM151 487v-443h71v-44h-196v44h72v399h-83v44h136zM225 258l169 -214l72 -7v-29c-14 -9 -43 -15 -61 -15c-19 0 -35 4 -53 26l-182 233v9l174 207c18 22 34 26 53 26c18 0 41 -6 55 -15l-3 -30l-65 -4z" />
    <glyph glyph-name="afii10110" unicode="&#x45e;" horiz-adv-x="503" 
d="M250 43l36 109l95 290h-66v45h169v-45h-51l-184 -557c-23 -71 -54 -99 -112 -99c-11 0 -41 -2 -104 16l10 41c32 -6 60 -12 83 -12c35 0 60 15 78 70l32 99h-27l-143 442h-50v45h92l104 -333l33 -111h5zM250 541c-67 0 -114 53 -152 104l38 26c34 -46 78 -84 117 -84
c25 0 69 6 138 74l22 -19c-56 -77 -113 -101 -163 -101z" />
    <glyph glyph-name="afii10193" unicode="&#x45f;" horiz-adv-x="541" 
d="M247 -138v138h-215v44h59v399h-61v44h113l1 -443h256v399h-48v44h152v-44h-51v-399h57v-44h-216v-138h-47z" />
    <glyph glyph-name="zcaron" unicode="&#x17e;" horiz-adv-x="416" 
d="M345 46v82h46v-128h-371v39l299 403h-238v-84h-45v129h345v-43l-296 -398h260zM206 596l151 99l19 -23l-150 -128h-39l-149 130l18 22z" />
    <glyph glyph-name="zero.taboldstyle" unicode="&#xe024;" horiz-adv-x="540" 
d="M494 241c0 -111 -59 -248 -223 -248c-175 0 -228 131 -228 246c0 104 45 254 230 254c182 0 221 -156 221 -252zM437 239c0 67 -15 203 -164 203c-145 0 -172 -126 -172 -203c0 -112 45 -195 172 -195c117 0 164 101 164 195z" />
    <glyph glyph-name="one.taboldstyle" unicode="&#xe025;" horiz-adv-x="540" 
d="M258 426l-156 -24l-8 36l168 53h53v-446h131v-45h-329v45h141v381z" />
    <glyph glyph-name="two.taboldstyle" unicode="&#xe026;" horiz-adv-x="540" 
d="M463 0h-410v42c135 73 321 196 321 305c0 49 -47 94 -132 94c-29 0 -88 -3 -166 -51l-25 35c79 57 154 66 196 66c121 0 184 -67 184 -143c0 -125 -168 -241 -279 -302h260v93h51v-139z" />
    <glyph glyph-name="three.taboldstyle" unicode="&#xe027;" horiz-adv-x="540" 
d="M433 451l-219 -214h13c119 0 222 -54 222 -179c0 -138 -107 -204 -222 -204c-74 0 -136 11 -191 37l15 40c71 -20 120 -27 159 -27c111 0 182 48 182 154c0 85 -68 132 -179 132c-25 0 -43 -2 -66 -6l-19 37l220 217h-237v-96l-51 -1v146h362z" />
    <glyph glyph-name="four.taboldstyle" unicode="&#xe028;" horiz-adv-x="540" 
d="M486 0h-93v-93h72v-46h-194v46h68v93h-315v46l311 443h58v-443h93v-46zM340 411h-4l-254 -365h258v365z" />
    <glyph glyph-name="five.taboldstyle" unicode="&#xe029;" horiz-adv-x="540" 
d="M273 250c95 0 203 -51 203 -192c0 -138 -107 -204 -222 -204c-74 0 -136 11 -191 37l15 40c71 -20 120 -27 159 -27c111 0 182 48 182 154c0 98 -76 144 -163 144c-39 0 -79 -9 -115 -26l-39 28l17 283h330v-127h-47v78h-232l-13 -208c26 8 56 20 116 20z" />
    <glyph glyph-name="six.taboldstyle" unicode="&#xe02a;" horiz-adv-x="540" 
d="M116 346l4 -2c35 21 92 45 166 45c103 0 195 -52 195 -194c0 -124 -84 -202 -210 -202c-172 0 -213 135 -213 294c0 206 82 347 244 347c68 0 120 -21 141 -32l-16 -41c-50 20 -93 25 -126 25c-148 0 -181 -169 -185 -240zM280 340c-103 0 -165 -51 -165 -51v-21
c0 -81 14 -227 158 -227c101 0 151 64 151 150c0 87 -37 149 -144 149z" />
    <glyph glyph-name="seven.taboldstyle" unicode="&#xe02b;" horiz-adv-x="540" 
d="M459 443l-268 -581h-57l268 577h-271v-97h-50v146h378v-45z" />
    <glyph glyph-name="eight.taboldstyle" unicode="&#xe02c;" horiz-adv-x="540" 
d="M143 481c-2 -72 94 -101 170 -134c71 47 97 93 97 131c0 50 -39 109 -137 109s-130 -70 -130 -106zM268 38c105 0 155 62 155 128c0 89 -91 124 -202 166c-79 -50 -111 -119 -111 -174c0 -61 45 -120 158 -120zM464 486c0 -48 -23 -106 -99 -160c68 -34 114 -85 114 -161
c0 -91 -76 -172 -214 -172c-145 0 -213 73 -213 159c0 67 36 149 124 200c-62 35 -91 70 -91 129c0 83 76 153 190 153c88 0 189 -42 189 -148z" />
    <glyph glyph-name="nine.taboldstyle" unicode="&#xe02d;" horiz-adv-x="540" 
d="M424 143l-4 2c-35 -21 -91 -46 -167 -46c-103 0 -194 52 -194 193c0 124 84 202 210 202c172 0 212 -134 212 -293c0 -206 -81 -347 -243 -347c-68 0 -130 21 -151 32l16 41c49 -20 104 -25 136 -25c147 0 180 171 185 241zM259 148c104 0 166 51 166 51v20
c0 81 -15 225 -158 225c-101 0 -151 -62 -151 -148c0 -87 36 -148 143 -148z" />
    <glyph glyph-name="numbersign.taboldstyle" unicode="&#xe02e;" horiz-adv-x="540" 
d="M283 0l37 165h-145l-37 -165h-36l37 165h-68l10 31h65l36 158h-71l10 32h68l33 144h36l-33 -144h146l33 144h36l-33 -144h61l-10 -32h-58l-36 -158h64l-10 -31h-62l-37 -165h-36zM218 354l-36 -158h146l36 158h-146z" />
    <glyph glyph-name="dollar.taboldstyle" unicode="&#xe02f;" horiz-adv-x="540" 
d="M276 -64v682h36v-52c36 -2 73 -12 106 -31v-103h-43v76c-18 8 -41 13 -63 15v-218c74 -29 145 -57 145 -149c0 -91 -63 -137 -145 -150v-70h-36zM249 618v-682h-35v67c-47 5 -85 14 -131 42v102h44v-73c36 -17 63 -22 87 -25v236c-64 24 -124 62 -124 137
c0 79 54 126 124 141v55h35zM407 159c0 52 -41 79 -95 99v-207c60 10 95 41 95 108zM140 426c0 -56 33 -75 74 -92v184c-41 -11 -74 -39 -74 -92z" />
    <glyph glyph-name="euro.taboldstyle" unicode="&#xe030;" horiz-adv-x="540" 
d="M52 266h372v-35h-278c8 -109 47 -193 190 -193c24 0 66 2 108 11v61h43v-91c-36 -14 -106 -25 -157 -25c-156 0 -232 94 -237 237h-41v35zM424 303h-372v36h44c10 104 77 232 237 232c64 0 113 -12 144 -23v-105h-45v72c-25 7 -63 12 -97 12c-114 0 -172 -73 -187 -188
h276v-36z" />
    <glyph glyph-name="florin.taboldstyle" unicode="&#xe031;" horiz-adv-x="540" 
d="M165 292v39h95l14 92c13 95 48 169 144 169c27 0 52 -5 76 -13l-11 -35c-30 6 -41 7 -64 7c-68 0 -86 -50 -98 -128c-4 -27 -9 -65 -12 -92h100v-39h-105c-8 -48 -30 -241 -37 -276c-18 -112 -62 -172 -147 -172c-25 0 -51 5 -74 16l14 35c26 -7 38 -8 55 -8
c66 0 86 44 103 130c14 65 28 210 37 275h-90z" />
    <glyph glyph-name="sterling.taboldstyle" unicode="&#xe032;" horiz-adv-x="540" 
d="M458 0h-383v43c57 19 70 92 73 148l4 75h-63v42h65l4 95c5 89 48 166 165 166c53 0 106 -10 141 -28v-104h-47v73c-27 7 -57 12 -92 12c-93 0 -113 -51 -118 -122l-4 -92h178v-42h-179c-1 -25 -4 -49 -5 -75c-2 -54 -13 -119 -41 -147h302v-44z" />
    <glyph glyph-name="cent.taboldstyle" unicode="&#xe033;" horiz-adv-x="540" 
d="M311 543v-79c43 -1 81 -10 111 -22v-105h-44v73c-25 8 -46 11 -67 12v-344c36 3 68 12 109 29l16 -35c-30 -17 -77 -32 -125 -35v-69h-40v68c-124 6 -167 91 -167 206c0 79 29 209 167 222v79h40zM158 242c0 -86 24 -158 113 -165v344c-82 -12 -113 -85 -113 -179z" />
    <glyph glyph-name="yen.taboldstyle" unicode="&#xe034;" horiz-adv-x="540" 
d="M446 239h-351v32h134l-136 250h-50v44h165v-44h-56l119 -232h1l122 232h-58v44h160v-44h-47l-138 -250h135v-32zM95 200h351v-36h-150v-121h74v-43h-201v43h73v121h-147v36z" />
    <glyph glyph-name="ampersandsmall" unicode="&#xe0fb;" horiz-adv-x="571" 
d="M393 261v43h183v-43h-59c-8 -76 -48 -135 -105 -183c38 -32 81 -58 124 -74l-24 -40c-37 13 -97 48 -139 83c-54 -36 -119 -54 -178 -54c-97 0 -174 47 -174 143c0 68 49 116 135 161c-33 39 -43 70 -43 97c0 61 42 107 114 107c74 0 112 -44 112 -97
c0 -54 -38 -86 -110 -124c26 -34 60 -75 92 -110c18 -20 38 -41 59 -62c43 40 78 90 89 153h-76zM265 159c-30 35 -59 70 -82 100c-62 -30 -111 -68 -111 -121c0 -70 54 -103 119 -103c48 0 100 15 148 45c-27 25 -53 54 -74 79zM223 457c-42 0 -56 -36 -56 -59
c0 -24 15 -49 37 -80c48 23 84 46 84 86c0 32 -24 53 -65 53z" />
    <glyph glyph-name="exclamsmall" unicode="&#xe0fc;" horiz-adv-x="162" 
d="M102 116h-37l-8 166l-4 233h57l-2 -233zM120 30c0 -21 -17 -37 -38 -37c-23 0 -40 16 -40 37c0 19 16 35 39 35s39 -16 39 -35z" />
    <glyph glyph-name="questionsmall" unicode="&#xe0fd;" horiz-adv-x="340" 
d="M200 333c42 29 66 52 66 86c0 40 -38 57 -90 57c-28 0 -64 -3 -99 -13v-71h-47v107c48 16 103 23 142 23c101 0 151 -38 151 -100c0 -50 -39 -85 -78 -113c-69 -51 -102 -83 -102 -121c0 -13 2 -29 5 -44l4 -21l-45 -9c-9 35 -13 61 -13 77c0 49 30 88 106 142zM183 30
c0 -21 -18 -37 -39 -37c-22 0 -41 16 -41 37c0 19 18 35 40 35s40 -16 40 -35z" />
    <glyph glyph-name="Asmall" unicode="&#xe0fe;" horiz-adv-x="542" 
d="M517 0h-160v43h54l-32 95h-215l-32 -95h56v-43h-163v43h48l165 466h67l167 -466h45v-43zM364 184l-79 224l-14 39l-14 -40l-77 -223h184z" />
    <glyph glyph-name="Bsmall" unicode="&#xe0ff;" horiz-adv-x="501" 
d="M96 464h-52v44h236c108 0 163 -54 163 -130c0 -35 -12 -83 -69 -112c64 -21 87 -81 87 -126c0 -85 -74 -140 -154 -140h-266v44h55v420zM406 144c0 50 -39 98 -117 98h-137v-198h137c85 0 117 48 117 100zM388 374c0 51 -34 90 -114 90h-122v-178h122c75 0 114 36 114 88
z" />
    <glyph glyph-name="Csmall" unicode="&#xe100;" horiz-adv-x="467" 
d="M422 59l13 -40c-38 -14 -105 -24 -155 -24c-166 0 -231 100 -231 255c0 105 47 266 235 266c63 0 110 -10 141 -21v-114h-48v79c-25 6 -59 10 -92 10c-124 0 -179 -87 -179 -221c0 -111 30 -209 180 -209c31 0 89 5 136 19z" />
    <glyph glyph-name="Dsmall" unicode="&#xe101;" horiz-adv-x="539" 
d="M490 255c0 -140 -51 -255 -231 -255h-218v43h55v421h-52v44h223c176 0 223 -117 223 -253zM434 249c0 212 -123 215 -175 215h-105v-420h99c45 0 181 -3 181 205z" />
    <glyph glyph-name="Esmall" unicode="&#xe102;" horiz-adv-x="463" 
d="M41 0v43h53v421h-50v44h372v-108h-48v64h-218v-175l225 4v-49l-225 2v-203h230v65h50v-108h-389z" />
    <glyph glyph-name="Fsmall" unicode="&#xe103;" horiz-adv-x="441" 
d="M228 43v-43h-187v43h53v421h-50v44h372v-108h-48v64h-218v-175l225 4v-49l-225 2v-203h78z" />
    <glyph glyph-name="Gsmall" unicode="&#xe104;" horiz-adv-x="517" 
d="M297 516c63 0 109 -10 142 -21v-114h-50v79c-23 6 -59 10 -90 10c-135 0 -193 -87 -193 -221c0 -111 33 -208 180 -208c29 0 75 4 102 11v169h-84v43h180v-43h-42v-204c-53 -16 -110 -22 -162 -22c-165 0 -231 100 -231 255c0 105 46 266 248 266z" />
    <glyph glyph-name="Hsmall" unicode="&#xe105;" horiz-adv-x="564" 
d="M524 0h-159v44h50v201h-267v-201h51v-44h-158v44h51v420h-51v44h158v-44h-51v-173h267v173h-50v44h159v-44h-52v-420h52v-44z" />
    <glyph glyph-name="Ismall" unicode="&#xe106;" horiz-adv-x="283" 
d="M220 0h-157v43h49v421h-49v44h157v-44h-51v-421h51v-43z" />
    <glyph glyph-name="Jsmall" unicode="&#xe107;" horiz-adv-x="283" 
d="M118 464h-66v44h183v-44h-60c0 -124 -1 -246 -1 -370c0 -122 -61 -180 -173 -223l-17 36c92 49 133 90 133 175z" />
    <glyph glyph-name="Ksmall" unicode="&#xe108;" horiz-adv-x="508" 
d="M434 464l-180 -158l194 -261h50v-45h-167l-1 45h51l-168 226l-66 -59v-168h53v-44h-160v44h51v420h-51v44h158v-44h-51v-192l216 192h-47v44h164v-44h-46z" />
    <glyph glyph-name="Lsmall" unicode="&#xe109;" horiz-adv-x="446" 
d="M209 508v-44h-59v-421h230v87h50v-130h-389v43h53v421h-50v44h165z" />
    <glyph glyph-name="Msmall" unicode="&#xe10a;" horiz-adv-x="697" 
d="M549 400h-3l-28 -57l-145 -294h-51l-148 300l-25 52h-3v-358h52v-43h-156v43h50v421h-50v44h110l154 -313l42 -95l44 96l151 312h112v-44h-51v-421h51v-43h-158v43h52v357z" />
    <glyph glyph-name="Nsmall" unicode="&#xe10b;" horiz-adv-x="593" 
d="M153 508l229 -327l63 -91v374h-56v44h162v-44h-52v-464h-50l-248 349c-19 27 -32 43 -52 71c0 -126 1 -248 1 -376h56v-44h-164v44h54v420h-54v44h111z" />
    <glyph glyph-name="Osmall" unicode="&#xe10c;" horiz-adv-x="551" 
d="M502 251c0 -146 -74 -256 -221 -256c-171 0 -232 98 -232 254c0 139 56 267 232 267c177 0 221 -129 221 -265zM446 249c0 99 -25 222 -165 222c-141 0 -175 -111 -175 -224c0 -137 53 -208 175 -208c112 0 165 96 165 210z" />
    <glyph glyph-name="Psmall" unicode="&#xe10d;" horiz-adv-x="464" 
d="M215 0h-174v43h50v421h-50v44h223c91 0 168 -47 168 -145c0 -58 -31 -153 -161 -153h-124v-167h68v-43zM147 253h121c53 0 108 25 108 107c0 71 -49 104 -110 104h-119v-211z" />
    <glyph glyph-name="Qsmall" unicode="&#xe10e;" horiz-adv-x="551" 
d="M502 251c0 -106 -40 -193 -118 -233c37 -8 84 -19 119 -26l-20 -52l-194 55h-8c-171 0 -232 98 -232 254c0 139 56 267 232 267c177 0 221 -129 221 -265zM446 249c0 99 -25 222 -165 222c-141 0 -175 -111 -175 -224c0 -137 53 -208 175 -208c112 0 165 96 165 210z" />
    <glyph glyph-name="Rsmall" unicode="&#xe10f;" horiz-adv-x="500" 
d="M216 0h-175v43h50v421h-50v44h223c92 0 169 -38 169 -138c0 -49 -24 -116 -107 -138l95 -188l58 -7v-32c-18 -6 -44 -10 -60 -10c-30 0 -38 13 -49 35l-96 195h-126v-182h68v-43zM148 268h120c53 0 108 17 108 100c0 70 -49 96 -110 96h-118v-196z" />
    <glyph glyph-name="Ssmall" unicode="&#xe110;" horiz-adv-x="441" 
d="M37 132h48v-66c40 -18 83 -25 121 -25c90 0 143 23 143 100c0 62 -56 80 -127 97c-90 21 -177 47 -177 136c0 92 81 142 177 142c40 0 98 -6 145 -33v-98h-49v70c-29 11 -67 15 -100 15c-68 0 -117 -31 -117 -96c0 -57 66 -74 125 -88c81 -18 178 -40 178 -146
c0 -105 -89 -145 -195 -145c-56 0 -118 11 -172 40v97z" />
    <glyph glyph-name="Tsmall" unicode="&#xe111;" horiz-adv-x="445" 
d="M424 508v-116h-49v72h-124v-421h68v-43h-190v43h66v421h-126v-72h-49v116h404z" />
    <glyph glyph-name="Usmall" unicode="&#xe112;" horiz-adv-x="579" 
d="M440 464h-58v44h164v-44h-51v-282c0 -111 -68 -187 -207 -187c-143 0 -205 70 -205 187v282h-49v44h163v-44h-59v-281c0 -95 55 -144 150 -144c99 0 152 49 152 144v281z" />
    <glyph glyph-name="Vsmall" unicode="&#xe113;" horiz-adv-x="514" 
d="M124 464c35 -104 74 -211 109 -315l28 -85l28 88l106 312h-48v44h155v-44h-51c-53 -154 -108 -309 -161 -464h-61l-162 464h-51v44h157v-44h-49z" />
    <glyph glyph-name="Wsmall" unicode="&#xe114;" horiz-adv-x="742" 
d="M624 464h-56v44h160v-44h-51l-126 -464h-57l-99 305l-20 57l-20 -60l-97 -302h-60l-130 464h-50v44h165v-44h-58l89 -333l15 -54l18 57l100 312l-7 18h-58v44h172v-44h-57l111 -340l16 -47l15 55z" />
    <glyph glyph-name="Xsmall" unicode="&#xe115;" horiz-adv-x="515" 
d="M225 264l-138 200h-50v44h164v-44h-51l108 -162l111 162h-54v44h167v-44h-50l-143 -203l148 -217h54v-44h-172v44h58l-123 180l-118 -180h61v-44h-173v44h52z" />
    <glyph glyph-name="Ysmall" unicode="&#xe116;" horiz-adv-x="471" 
d="M237 272l116 192h-50v44h152v-44h-45l-147 -234v-187h67v-43h-190v43h66v185l-145 236h-45v44h155v-44h-48z" />
    <glyph glyph-name="Zsmall" unicode="&#xe117;" horiz-adv-x="427" 
d="M402 0h-378v40l296 424h-228v-72h-49v116h345v-41l-296 -423h260v79h50v-123z" />
    <glyph glyph-name="Alphasmall" unicode="&#xe183;" horiz-adv-x="542" 
d="M517 0h-160v43h54l-32 95h-215l-32 -95h56v-43h-163v43h48l165 466h67l167 -466h45v-43zM364 184l-79 224l-14 39l-14 -40l-77 -223h184z" />
    <glyph glyph-name="Betasmall" unicode="&#xe184;" horiz-adv-x="501" 
d="M96 464h-52v44h236c108 0 163 -54 163 -130c0 -35 -12 -83 -69 -112c64 -21 87 -81 87 -126c0 -85 -74 -140 -154 -140h-266v44h55v420zM406 144c0 50 -39 98 -117 98h-137v-198h137c85 0 117 48 117 100zM388 374c0 51 -34 90 -114 90h-122v-178h122c75 0 114 36 114 88
z" />
    <glyph glyph-name="Gammasmall" unicode="&#xe185;" horiz-adv-x="441" 
d="M228 43v-43h-187v43h53v421h-50v44h372v-108h-48v64h-218v-421h78z" />
    <glyph glyph-name="Deltasmall" unicode="&#xe186;" horiz-adv-x="542" 
d="M493 36v-36h-446v36l189 473h67zM434 43l-126 315l-38 97l-38 -98l-127 -314h329z" />
    <glyph glyph-name="Epsilonsmall" unicode="&#xe187;" horiz-adv-x="463" 
d="M41 0v43h53v421h-50v44h372v-108h-48v64h-218v-175l225 4v-49l-225 2v-203h230v65h50v-108h-389z" />
    <glyph glyph-name="Zetasmall" unicode="&#xe188;" horiz-adv-x="427" 
d="M402 0h-378v40l296 424h-228v-72h-49v116h345v-41l-296 -423h260v79h50v-123z" />
    <glyph glyph-name="Etasmall" unicode="&#xe189;" horiz-adv-x="564" 
d="M524 0h-159v44h50v201h-267v-201h51v-44h-158v44h51v420h-51v44h158v-44h-51v-173h267v173h-50v44h159v-44h-52v-420h52v-44z" />
    <glyph glyph-name="Thetasmall" unicode="&#xe18a;" horiz-adv-x="551" 
d="M502 251c0 -146 -74 -256 -221 -256c-171 0 -232 98 -232 254c0 139 56 267 232 267c177 0 221 -129 221 -265zM446 249c0 99 -25 222 -165 222c-141 0 -175 -111 -175 -224c0 -137 53 -208 175 -208c112 0 165 96 165 210zM149 243v44l251 5v-52z" />
    <glyph glyph-name="Iotasmall" unicode="&#xe18b;" horiz-adv-x="283" 
d="M220 0h-157v43h49v421h-49v44h157v-44h-51v-421h51v-43z" />
    <glyph glyph-name="Kappasmall" unicode="&#xe18c;" horiz-adv-x="508" 
d="M434 464l-180 -158l194 -261h50v-45h-167l-1 45h51l-168 226l-66 -59v-168h53v-44h-160v44h51v420h-51v44h158v-44h-51v-192l216 192h-47v44h164v-44h-46z" />
    <glyph glyph-name="Lambdasmall" unicode="&#xe18d;" horiz-adv-x="542" 
d="M257 407l-126 -364h57v-43h-163v43h48l165 466h67l167 -466h45v-43h-160v43h55l-127 365l-14 39z" />
    <glyph glyph-name="Musmall" unicode="&#xe18e;" horiz-adv-x="697" 
d="M549 400h-3l-28 -57l-145 -294h-51l-148 300l-25 52h-3v-358h52v-43h-156v43h50v421h-50v44h110l154 -313l42 -95l44 96l151 312h112v-44h-51v-421h51v-43h-158v43h52v357z" />
    <glyph glyph-name="Nusmall" unicode="&#xe18f;" horiz-adv-x="593" 
d="M153 508l229 -327l63 -91v374h-56v44h162v-44h-52v-464h-50l-248 349c-19 27 -32 43 -52 71c0 -126 1 -248 1 -376h56v-44h-164v44h54v420h-54v44h111z" />
    <glyph glyph-name="Xismall" unicode="&#xe190;" horiz-adv-x="447" 
d="M420 0h-395v121h50v-70h295v70h50v-121zM88 456v-71h-48v123h366v-123h-48v71h-270zM99 240v45l248 4v-52z" />
    <glyph glyph-name="Omicronsmall" unicode="&#xe191;" horiz-adv-x="551" 
d="M502 251c0 -146 -74 -256 -221 -256c-171 0 -232 98 -232 254c0 139 56 267 232 267c177 0 221 -129 221 -265zM446 249c0 99 -25 222 -165 222c-141 0 -175 -111 -175 -224c0 -137 53 -208 175 -208c112 0 165 96 165 210z" />
    <glyph glyph-name="Pismall" unicode="&#xe192;" horiz-adv-x="564" 
d="M524 0h-159v44h50v418h-267v-418h51v-44h-158v44h51v418h-51v46h483v-46h-52v-418h52v-44z" />
    <glyph glyph-name="Rhosmall" unicode="&#xe193;" horiz-adv-x="464" 
d="M215 0h-174v43h50v421h-50v44h223c91 0 168 -47 168 -145c0 -58 -31 -153 -161 -153h-124v-167h68v-43zM147 253h121c53 0 108 25 108 107c0 71 -49 104 -110 104h-119v-211z" />
    <glyph glyph-name="Sigmasmall" unicode="&#xe194;" horiz-adv-x="431" 
d="M241 278v-18l-143 -216h263v79h50v-123h-378v39l150 229l-150 199v41h369v-116h-49v72h-254z" />
    <glyph glyph-name="Tausmall" unicode="&#xe195;" horiz-adv-x="445" 
d="M424 508v-116h-49v72h-124v-421h68v-43h-190v43h66v421h-126v-72h-49v116h404z" />
    <glyph glyph-name="Upsilonsmall" unicode="&#xe196;" horiz-adv-x="471" 
d="M237 272l116 192h-50v44h152v-44h-45l-147 -234v-187h67v-43h-190v43h66v185l-145 236h-45v44h155v-44h-48z" />
    <glyph glyph-name="Phismall" unicode="&#xe197;" horiz-adv-x="646" 
d="M605 257c0 -98 -90 -180 -249 -187v-26h58v-44h-172v44h57v26c-180 7 -257 78 -257 185c0 87 76 174 257 183v26h-57v44h172v-44h-58v-26c187 -7 249 -93 249 -181zM95 253c0 -92 70 -136 204 -141v282c-152 -9 -204 -67 -204 -141zM551 255c0 63 -40 132 -195 139v-282
c130 7 195 61 195 143z" />
    <glyph glyph-name="Chismall" unicode="&#xe198;" horiz-adv-x="515" 
d="M225 264l-138 200h-50v44h164v-44h-51l108 -162l111 162h-54v44h167v-44h-50l-143 -203l148 -217h54v-44h-172v44h58l-123 180l-118 -180h61v-44h-173v44h52z" />
    <glyph glyph-name="Psismall" unicode="&#xe199;" horiz-adv-x="654" 
d="M620 464h-52v-156c-1 -101 -78 -169 -211 -175v-90h57v-43h-170v43h56v89c-137 8 -210 68 -210 185v147h-56v44h113v-193c0 -87 56 -132 153 -139v288h-48v44h154v-44h-49v-288c106 8 154 55 155 142v190h108v-44z" />
    <glyph glyph-name="Omegasmall" unicode="&#xe19a;" horiz-adv-x="566" 
d="M287 516c176 0 224 -124 224 -253c0 -87 -20 -171 -75 -219h89v-44h-193v46c97 21 121 116 121 215c0 98 -26 209 -166 209c-130 0 -173 -94 -173 -207c0 -110 24 -198 117 -217v-46h-190v44h79c-60 45 -63 131 -63 219c0 133 59 253 230 253z" />
    <glyph glyph-name="Alphatonossmall" unicode="&#xe19b;" horiz-adv-x="542" 
d="M517 0h-160v43h54l-32 95h-215l-32 -95h56v-43h-163v43h48l165 466h67l167 -466h45v-43zM364 184l-79 224l-14 39l-14 -40l-77 -223h184zM251 556l-29 21l111 158l49 -40z" />
    <glyph glyph-name="Epsilontonossmall" unicode="&#xe19c;" horiz-adv-x="463" 
d="M41 0v43h53v421h-50v44h372v-108h-48v64h-218v-175l225 4v-49l-225 2v-203h230v65h50v-108h-389zM208 556l-29 21l111 158l49 -40z" />
    <glyph glyph-name="Etatonossmall" unicode="&#xe19d;" horiz-adv-x="564" 
d="M524 0h-159v44h50v201h-267v-201h51v-44h-158v44h51v420h-51v44h158v-44h-51v-173h267v173h-50v44h159v-44h-52v-420h52v-44zM263 556l-29 21l111 158l49 -40z" />
    <glyph glyph-name="Iotatonossmall" unicode="&#xe19e;" horiz-adv-x="283" 
d="M220 0h-157v43h49v421h-49v44h157v-44h-51v-421h51v-43zM126 556l-29 21l111 158l49 -40z" />
    <glyph glyph-name="Omicrontonossmall" unicode="&#xe19f;" horiz-adv-x="551" 
d="M502 251c0 -146 -74 -256 -221 -256c-171 0 -232 98 -232 254c0 139 56 267 232 267c177 0 221 -129 221 -265zM446 249c0 99 -25 222 -165 222c-141 0 -175 -111 -175 -224c0 -137 53 -208 175 -208c112 0 165 96 165 210zM271 556l-29 21l111 158l49 -40z" />
    <glyph glyph-name="Ypsilontonossmall" unicode="&#xe1a0;" horiz-adv-x="471" 
d="M237 272l116 192h-50v44h152v-44h-45l-147 -234v-187h67v-43h-190v43h66v185l-145 236h-45v44h155v-44h-48zM229 556l-29 21l111 158l49 -40z" />
    <glyph glyph-name="Omegatonossmall" unicode="&#xe1a1;" horiz-adv-x="566" 
d="M287 516c176 0 224 -124 224 -253c0 -87 -20 -171 -75 -219h89v-44h-193v46c97 21 121 116 121 215c0 98 -26 209 -166 209c-130 0 -173 -94 -173 -207c0 -110 24 -198 117 -217v-46h-190v44h79c-60 45 -63 131 -63 219c0 133 59 253 230 253zM276 556l-29 21l111 158
l49 -40z" />
    <glyph glyph-name="Iotadieresissmall" unicode="&#xe1a2;" horiz-adv-x="283" 
d="M220 0h-157v43h49v421h-49v44h157v-44h-51v-421h51v-43zM228 555c-21 0 -36 15 -36 37c0 21 17 38 36 38c25 0 43 -15 43 -38c0 -22 -18 -37 -43 -37zM50 555c-23 0 -40 15 -40 37c0 21 19 38 38 38c25 0 42 -15 42 -38c0 -22 -17 -37 -40 -37z" />
    <glyph glyph-name="Ypsilondieresissmall" unicode="&#xe1a3;" horiz-adv-x="471" 
d="M237 272l116 192h-50v44h152v-44h-45l-147 -234v-187h67v-43h-190v43h66v185l-145 236h-45v44h155v-44h-48zM324 555c-21 0 -36 15 -36 37c0 21 17 38 36 38c25 0 43 -15 43 -38c0 -22 -18 -37 -43 -37zM146 555c-23 0 -40 15 -40 37c0 21 19 38 38 38
c25 0 42 -15 42 -38c0 -22 -17 -37 -40 -37z" />
    <glyph glyph-name="Scaronsmall" unicode="&#xe118;" horiz-adv-x="441" 
d="M37 132h48v-66c40 -18 83 -25 121 -25c90 0 143 23 143 100c0 62 -56 80 -127 97c-90 21 -177 47 -177 136c0 92 81 142 177 142c40 0 98 -6 145 -33v-98h-49v70c-29 11 -67 15 -100 15c-68 0 -117 -31 -117 -96c0 -57 66 -74 125 -88c81 -18 178 -40 178 -146
c0 -105 -89 -145 -195 -145c-56 0 -118 11 -172 40v97zM211 616l151 99l19 -23l-150 -128h-39l-149 130l18 22z" />
    <glyph glyph-name="OEsmall" unicode="&#xe119;" horiz-adv-x="651" 
d="M282 516c23 0 51 -4 70 -8h252v-108h-48v64h-202v-175l209 4v-49l-209 2v-203h214v65h50v-108h-284c-15 -3 -35 -5 -52 -5c-171 0 -232 98 -232 254c0 139 56 267 232 267zM282 39h15v432h-15c-141 0 -175 -111 -175 -224c0 -137 52 -208 175 -208z" />
    <glyph glyph-name="Zcaronsmall" unicode="&#xe11a;" horiz-adv-x="427" 
d="M402 0h-378v40l296 424h-228v-72h-49v116h345v-41l-296 -423h260v79h50v-123zM213 616l151 99l19 -23l-150 -128h-39l-149 130l18 22z" />
    <glyph glyph-name="Ydieresissmall" unicode="&#xe11b;" horiz-adv-x="471" 
d="M237 272l116 192h-50v44h152v-44h-45l-147 -234v-187h67v-43h-190v43h66v185l-145 236h-45v44h155v-44h-48zM323 555c-21 0 -36 15 -36 37c0 21 17 38 36 38c25 0 43 -15 43 -38c0 -22 -18 -37 -43 -37zM145 555c-23 0 -40 15 -40 37c0 21 19 38 38 38
c25 0 42 -15 42 -38c0 -22 -17 -37 -40 -37z" />
    <glyph glyph-name="Agravesmall" unicode="&#xe11c;" horiz-adv-x="542" 
d="M517 0h-160v43h54l-32 95h-215l-32 -95h56v-43h-163v43h48l165 466h67l167 -466h45v-43zM364 184l-79 224l-14 39l-14 -40l-77 -223h184zM292 577l-29 -21l-131 139l49 40z" />
    <glyph glyph-name="Aacutesmall" unicode="&#xe11d;" horiz-adv-x="542" 
d="M517 0h-160v43h54l-32 95h-215l-32 -95h56v-43h-163v43h48l165 466h67l167 -466h45v-43zM364 184l-79 224l-14 39l-14 -40l-77 -223h184zM257 547l-29 21l111 158l49 -40z" />
    <glyph glyph-name="Acircumflexsmall" unicode="&#xe11e;" horiz-adv-x="542" 
d="M517 0h-160v43h54l-32 95h-215l-32 -95h56v-43h-163v43h48l165 466h67l167 -466h45v-43zM364 184l-79 224l-14 39l-14 -40l-77 -223h184zM420 544l-151 99l-150 -100l-18 22l149 139h39l150 -137z" />
    <glyph glyph-name="Atildesmall" unicode="&#xe11f;" horiz-adv-x="542" 
d="M517 0h-160v43h54l-32 95h-215l-32 -95h56v-43h-163v43h48l165 466h67l167 -466h45v-43zM364 184l-79 224l-14 39l-14 -40l-77 -223h184zM207 641c43 0 101 -39 132 -39l57 39l22 -18c-13 -37 -43 -67 -79 -67c-56 0 -97 39 -132 39l-57 -39l-22 18c13 37 43 67 79 67z
" />
    <glyph glyph-name="Adieresissmall" unicode="&#xe120;" horiz-adv-x="542" 
d="M517 0h-160v43h54l-32 95h-215l-32 -95h56v-43h-163v43h48l165 466h67l167 -466h45v-43zM364 184l-79 224l-14 39l-14 -40l-77 -223h184zM357 575c-21 0 -36 15 -36 37c0 21 17 38 36 38c25 0 43 -15 43 -38c0 -22 -18 -37 -43 -37zM179 575c-23 0 -40 15 -40 37
c0 21 19 38 38 38c25 0 42 -15 42 -38c0 -22 -17 -37 -40 -37z" />
    <glyph glyph-name="Aringsmall" unicode="&#xe121;" horiz-adv-x="542" 
d="M517 0h-160v43h54l-32 95h-215l-32 -95h56v-43h-163v43h48l165 466h67l167 -466h45v-43zM364 184l-79 224l-14 39l-14 -40l-77 -223h184zM273 536c-57 0 -102 44 -102 98c0 53 45 99 102 99c55 0 99 -45 99 -99c0 -55 -44 -98 -99 -98zM273 699c-40 0 -66 -29 -66 -67
c0 -37 26 -65 66 -65c37 0 63 28 63 65s-26 67 -63 67z" />
    <glyph glyph-name="AEsmall" unicode="&#xe122;" horiz-adv-x="774" 
d="M357 43h53v110h-209l-76 -110h61v-43h-174v43h53l292 421h-41v44h401v-108h-49v64h-201v-175l209 4v-49l-209 2v-203h214v65h50v-108h-374v43zM413 460l-179 -261h176z" />
    <glyph glyph-name="Ccedillasmall" unicode="&#xe123;" horiz-adv-x="467" 
d="M422 59l13 -40c-38 -14 -105 -24 -155 -24h-1l-47 -60c64 -3 109 -26 109 -77c0 -53 -56 -102 -173 -99v31c71 7 120 25 120 61c0 37 -57 42 -104 43l-11 17l66 86c-136 15 -190 111 -190 253c0 105 47 266 235 266c63 0 110 -10 141 -21v-114h-48v79
c-25 6 -59 10 -92 10c-124 0 -179 -87 -179 -221c0 -111 30 -209 180 -209c31 0 89 5 136 19z" />
    <glyph glyph-name="Egravesmall" unicode="&#xe124;" horiz-adv-x="463" 
d="M41 0v43h53v421h-50v44h372v-108h-48v64h-218v-175l225 4v-49l-225 2v-203h230v65h50v-108h-389zM260 578l-29 -21l-131 139l49 40z" />
    <glyph glyph-name="Eacutesmall" unicode="&#xe125;" horiz-adv-x="463" 
d="M41 0v43h53v421h-50v44h372v-108h-48v64h-218v-175l225 4v-49l-225 2v-203h230v65h50v-108h-389zM206 566l-29 21l111 158l49 -40z" />
    <glyph glyph-name="Ecircumflexsmall" unicode="&#xe126;" horiz-adv-x="463" 
d="M41 0v43h53v421h-50v44h372v-108h-48v64h-218v-175l225 4v-49l-225 2v-203h230v65h50v-108h-389zM382 553l-151 99l-150 -100l-18 22l149 139h39l150 -137z" />
    <glyph glyph-name="Edieresissmall" unicode="&#xe127;" horiz-adv-x="463" 
d="M41 0v43h53v421h-50v44h372v-108h-48v64h-218v-175l225 4v-49l-225 2v-203h230v65h50v-108h-389zM133 565c-23 0 -40 15 -40 37c0 21 19 38 38 38c25 0 42 -15 42 -38c0 -22 -17 -37 -40 -37zM311 565c-21 0 -36 15 -36 37c0 21 17 38 36 38c25 0 43 -15 43 -38
c0 -22 -18 -37 -43 -37z" />
    <glyph glyph-name="Igravesmall" unicode="&#xe128;" horiz-adv-x="283" 
d="M220 0h-157v43h49v421h-49v44h157v-44h-51v-421h51v-43zM171 577l-29 -21l-131 139l49 40z" />
    <glyph glyph-name="Iacutesmall" unicode="&#xe129;" horiz-adv-x="283" 
d="M220 0h-157v43h49v421h-49v44h157v-44h-51v-421h51v-43zM127 556l-29 21l111 158l49 -40z" />
    <glyph glyph-name="Icircumflexsmall" unicode="&#xe12a;" horiz-adv-x="283" 
d="M220 0h-157v43h49v421h-49v44h157v-44h-51v-421h51v-43zM293 553l-151 99l-150 -100l-18 22l149 139h39l150 -137z" />
    <glyph glyph-name="Idieresissmall" unicode="&#xe12b;" horiz-adv-x="283" 
d="M220 0h-157v43h49v421h-49v44h157v-44h-51v-421h51v-43zM230 563c-21 0 -36 15 -36 37c0 21 17 38 36 38c25 0 43 -15 43 -38c0 -22 -18 -37 -43 -37zM52 563c-23 0 -40 15 -40 37c0 21 19 38 38 38c25 0 42 -15 42 -38c0 -22 -17 -37 -40 -37z" />
    <glyph glyph-name="Ethsmall" unicode="&#xe12c;" horiz-adv-x="539" 
d="M490 255c0 -140 -51 -255 -231 -255h-218v43h55v211h-52v39h52v171h-52v44h223c176 0 223 -117 223 -253zM434 249c0 212 -123 215 -175 215h-105v-171h128v-39h-128v-210h99c45 0 181 -3 181 205z" />
    <glyph glyph-name="Ntildesmall" unicode="&#xe12d;" horiz-adv-x="593" 
d="M153 508l229 -327l63 -91v374h-56v44h162v-44h-52v-464h-50l-248 349c-19 27 -32 43 -52 71c0 -126 1 -248 1 -376h56v-44h-164v44h54v420h-54v44h111zM221 641c43 0 101 -39 132 -39l57 39l22 -18c-13 -37 -43 -67 -79 -67c-56 0 -97 39 -132 39l-57 -39l-22 18
c13 37 43 67 79 67z" />
    <glyph glyph-name="Ogravesmall" unicode="&#xe12e;" horiz-adv-x="551" 
d="M502 251c0 -146 -74 -256 -221 -256c-171 0 -232 98 -232 254c0 139 56 267 232 267c177 0 221 -129 221 -265zM446 249c0 99 -25 222 -165 222c-141 0 -175 -111 -175 -224c0 -137 53 -208 175 -208c112 0 165 96 165 210zM326 577l-29 -21l-131 139l49 40z" />
    <glyph glyph-name="Oacutesmall" unicode="&#xe12f;" horiz-adv-x="551" 
d="M502 251c0 -146 -74 -256 -221 -256c-171 0 -232 98 -232 254c0 139 56 267 232 267c177 0 221 -129 221 -265zM446 249c0 99 -25 222 -165 222c-141 0 -175 -111 -175 -224c0 -137 53 -208 175 -208c112 0 165 96 165 210zM247 547l-29 21l111 158l49 -40z" />
    <glyph glyph-name="Ocircumflexsmall" unicode="&#xe130;" horiz-adv-x="551" 
d="M502 251c0 -146 -74 -256 -221 -256c-171 0 -232 98 -232 254c0 139 56 267 232 267c177 0 221 -129 221 -265zM446 249c0 99 -25 222 -165 222c-141 0 -175 -111 -175 -224c0 -137 53 -208 175 -208c112 0 165 96 165 210zM424 553l-151 99l-150 -100l-18 22l149 139h39
l150 -137z" />
    <glyph glyph-name="Otildesmall" unicode="&#xe131;" horiz-adv-x="551" 
d="M502 251c0 -146 -74 -256 -221 -256c-171 0 -232 98 -232 254c0 139 56 267 232 267c177 0 221 -129 221 -265zM446 249c0 99 -25 222 -165 222c-141 0 -175 -111 -175 -224c0 -137 53 -208 175 -208c112 0 165 96 165 210zM206 641c43 0 101 -39 132 -39l57 39l22 -18
c-13 -37 -43 -67 -79 -67c-56 0 -97 39 -132 39l-57 -39l-22 18c13 37 43 67 79 67z" />
    <glyph glyph-name="Odieresissmall" unicode="&#xe132;" horiz-adv-x="551" 
d="M502 251c0 -146 -74 -256 -221 -256c-171 0 -232 98 -232 254c0 139 56 267 232 267c177 0 221 -129 221 -265zM446 249c0 99 -25 222 -165 222c-141 0 -175 -111 -175 -224c0 -137 53 -208 175 -208c112 0 165 96 165 210zM361 555c-21 0 -36 15 -36 37
c0 21 17 38 36 38c25 0 43 -15 43 -38c0 -22 -18 -37 -43 -37zM183 555c-23 0 -40 15 -40 37c0 21 19 38 38 38c25 0 42 -15 42 -38c0 -22 -17 -37 -40 -37z" />
    <glyph glyph-name="Oslashsmall" unicode="&#xe133;" horiz-adv-x="531" 
d="M492 251c0 -146 -74 -256 -221 -256c-69 0 -120 16 -157 46l-37 -45h-47l58 71c-36 44 -49 106 -49 182c0 139 56 267 232 267c64 0 111 -17 145 -46c13 15 26 32 38 47h48l-61 -73c39 -51 51 -121 51 -193zM436 249c0 51 -8 108 -31 150c-88 -106 -171 -212 -258 -318
c27 -29 68 -42 124 -42c112 0 165 96 165 210zM96 247c0 -58 8 -102 28 -137c88 107 171 212 258 319c-24 26 -59 42 -111 42c-141 0 -175 -111 -175 -224z" />
    <glyph glyph-name="Ugravesmall" unicode="&#xe134;" horiz-adv-x="579" 
d="M440 464h-58v44h164v-44h-51v-282c0 -111 -68 -187 -207 -187c-143 0 -205 70 -205 187v282h-49v44h163v-44h-59v-281c0 -95 55 -144 150 -144c99 0 152 49 152 144v281zM329 577l-29 -21l-131 139l49 40z" />
    <glyph glyph-name="Uacutesmall" unicode="&#xe135;" horiz-adv-x="579" 
d="M440 464h-58v44h164v-44h-51v-282c0 -111 -68 -187 -207 -187c-143 0 -205 70 -205 187v282h-49v44h163v-44h-59v-281c0 -95 55 -144 150 -144c99 0 152 49 152 144v281zM278 556l-29 21l111 158l49 -40z" />
    <glyph glyph-name="Ucircumflexsmall" unicode="&#xe136;" horiz-adv-x="579" 
d="M440 464h-58v44h164v-44h-51v-282c0 -111 -68 -187 -207 -187c-143 0 -205 70 -205 187v282h-49v44h163v-44h-59v-281c0 -95 55 -144 150 -144c99 0 152 49 152 144v281zM429 553l-151 99l-150 -100l-18 22l149 139h39l150 -137z" />
    <glyph glyph-name="Udieresissmall" unicode="&#xe137;" horiz-adv-x="579" 
d="M440 464h-58v44h164v-44h-51v-282c0 -111 -68 -187 -207 -187c-143 0 -205 70 -205 187v282h-49v44h163v-44h-59v-281c0 -95 55 -144 150 -144c99 0 152 49 152 144v281zM368 555c-21 0 -36 15 -36 37c0 21 17 38 36 38c25 0 43 -15 43 -38c0 -22 -18 -37 -43 -37z
M190 555c-23 0 -40 15 -40 37c0 21 19 38 38 38c25 0 42 -15 42 -38c0 -22 -17 -37 -40 -37z" />
    <glyph glyph-name="Yacutesmall" unicode="&#xe138;" horiz-adv-x="471" 
d="M237 272l116 192h-50v44h152v-44h-45l-147 -234v-187h67v-43h-190v43h66v185l-145 236h-45v44h155v-44h-48zM221 555l-29 21l111 158l49 -40z" />
    <glyph glyph-name="Thornsmall" unicode="&#xe139;" horiz-adv-x="444" 
d="M137 413h117c91 0 168 -46 168 -146c0 -57 -31 -152 -161 -152h-124v-72h68v-43h-174v43h50v421h-50v44h174v-44h-68v-51zM137 159h121c53 0 108 24 108 106c0 71 -49 105 -110 105h-119v-211z" />
    </font>
</defs>
</svg>
