<?xml version="1.0" standalone="no"?>
<!DOCTYPE svg PUBLIC "-//W3C//DTD SVG 1.1//EN" "http://www.w3.org/Graphics/SVG/1.1/DTD/svg11.dtd" >
<svg xmlns="http://www.w3.org/2000/svg" xmlns:xlink="http://www.w3.org/1999/xlink" version="1.1">
<metadata>
Created by FontForge 20161116 at Wed Apr 17 13:49:21 2013
 By Jimmy Wärting
Copyright (c) 2006 Parachute\u00AE , www.parachute.gr. All rights reserved. Sapient Centro Slab is exclusively licensed to Sapient.
</metadata>
<defs>
<font id="SapientCentroSlab" horiz-adv-x="1818" >
  <font-face 
    font-family="Sapient Centro Slab"
    font-weight="400"
    font-stretch="normal"
    units-per-em="1000"
    panose-1="2 0 5 3 5 0 0 2 0 4"
    ascent="750"
    descent="-250"
    x-height="488"
    cap-height="685"
    bbox="-358 -262 1760 953"
    underline-thickness="50"
    underline-position="-100"
    stemh="62"
    stemv="81"
    unicode-range="U+0020-FB05"
  />
<missing-glyph horiz-adv-x="436" 
d="M0 0v685h436v-685h-436zM68 40h300l-150 266zM218 379l150 266h-300zM40 614v-542l153 271zM243 342l153 -272v547z" />
    <glyph glyph-name="fj" unicode="fj" horiz-adv-x="554" 
d="M437 710l-12 -63c-45 7 -93 13 -130 13c-83 0 -120 -23 -120 -111v-61h300v-365c0 -212 -3 -276 -177 -340c-7 18 -14 36 -22 53c98 55 118 89 118 175v413h-219v-362h82v-62h-233v62h71v362h-68v48c23 7 46 12 69 18v79c0 115 78 159 192 159c46 -1 105 -8 149 -18z" />
    <glyph glyph-name="ffj" unicode="ffj" horiz-adv-x="845" 
d="M724 722c-5 -20 -8 -41 -12 -62c-46 8 -89 13 -126 13c-82 0 -120 -24 -120 -112v-73h292v-449c0 -132 -32 -207 -177 -256l-22 53c94 53 117 87 118 165v423h-211v-362h83v-62h-222v62h59v362h-211v-362h67v-62h-218v62h71v362h-68v48c23 7 46 12 69 18v65
c2 104 74 161 196 161c45 0 86 -5 137 -19c31 30 82 43 142 43c49 0 107 -7 153 -18zM387 488v86c0 25 3 46 9 64c-35 9 -66 12 -90 12c-101 0 -131 -36 -131 -122v-40h212z" />
    <glyph glyph-name="ff" unicode="ff" horiz-adv-x="644" 
d="M609 488v-64h-143v-362h84v-62h-221v62h57v362h-211v-362h63v-62h-214v62h71v362h-68v48c23 7 46 12 69 18v32c0 116 48 195 196 195c45 0 85 -4 133 -19c26 26 72 41 125 41c28 0 65 -3 96 -11l-12 -62c-24 4 -52 7 -73 7c-61 0 -95 -23 -95 -85v-100h143zM387 597
c0 15 2 30 5 41c-32 8 -63 12 -86 12c-101 0 -131 -36 -131 -122v-40h212v109z" />
    <glyph glyph-name="fi" unicode="fi" horiz-adv-x="568" 
d="M464 488v-426h73v-49c-26 -12 -63 -19 -86 -19c-45 0 -67 12 -67 61v369h-209v-362h67v-62h-217v62h70v362h-68v49l69 18v78c0 114 74 159 186 159c44 0 108 -6 156 -18l-12 -63c-46 8 -94 14 -131 14c-83 0 -120 -24 -120 -112v-61h289z" />
    <glyph glyph-name="fl" unicode="fl" horiz-adv-x="579" 
d="M477 717v-655h71v-62h-216v62h64v580c-34 6 -72 10 -101 10c-83 0 -120 -23 -120 -111v-53h145v-64h-145v-362h63v-62h-213v62h70v362h-68v49l69 18v70c0 113 74 159 186 159c38 0 89 -6 131 -13z" />
    <glyph glyph-name="ffi" unicode="ffi" horiz-adv-x="860" 
d="M675 424h-209v-362h77v-62h-223v62h66v362h-211v-362h63v-62h-214v62h71v362h-68v48c23 7 46 12 69 18v64c2 104 73 163 193 163c46 0 89 -5 140 -20c33 32 90 42 155 42c46 0 104 -8 145 -18l-12 -63c-46 8 -94 14 -131 14c-84 0 -120 -24 -120 -111v-73h290
c0 -142 -1 -284 -1 -426h73v-49c-25 -12 -62 -18 -85 -18c-51 0 -68 22 -68 60v369zM387 488v92c0 23 4 41 10 58c-35 9 -67 12 -91 12c-101 0 -131 -36 -131 -122v-40h212z" />
    <glyph glyph-name="ffl" unicode="ffl" horiz-adv-x="871" 
d="M467 561c0 -25 -1 -49 -1 -73h145v-64h-145v-362h75v-62h-221v62h66v362h-211v-362h62v-62h-213v62h71v362h-68v48c23 7 46 12 69 18v58c0 112 82 169 193 169c46 0 89 -5 140 -20c37 32 88 42 158 42c40 0 81 -6 126 -15l56 13v-675h70v-62h-215v62h64v600
c-35 5 -72 10 -101 10c-84 0 -120 -24 -120 -111zM387 488c0 50 -3 113 10 146v4c-35 9 -67 12 -91 12c-101 0 -131 -36 -131 -122v-40h212z" />
    <glyph glyph-name="ft" unicode="ft" horiz-adv-x="674" 
d="M25 0v62h70v362h-68v49l69 18v82c0 97 55 150 157 150c29 0 81 -3 115 -12l-12 -60c-24 4 -65 7 -85 7c-63 0 -96 -22 -96 -85v-84h224l27 114l50 9v-124h148v-64h-148v-284c0 -47 13 -80 67 -80c24 0 55 6 92 17l13 -55c-36 -17 -82 -27 -122 -27
c-87 0 -131 40 -131 120v309h-220v-362h84v-62h-234z" />
    <glyph glyph-name=".notdef" horiz-adv-x="436" 
d="M0 0v685h436v-685h-436zM68 40h300l-150 266zM218 379l150 266h-300zM40 614v-542l153 271zM243 342l153 -272v547z" />
    <glyph glyph-name="exclam" unicode="!" horiz-adv-x="225" 
d="M73 696h80l-2 -297l-9 -229h-55l-10 229zM113 93c30 0 53 -23 53 -51c0 -29 -24 -53 -53 -53c-31 0 -54 24 -54 53c0 28 23 51 54 51z" />
    <glyph glyph-name="quotedbl" unicode="&#x22;" horiz-adv-x="272" 
d="M215 482h-46l-14 203h73zM107 482h-45l-14 203h74z" />
    <glyph glyph-name="numbersign" unicode="#" horiz-adv-x="533" 
d="M489 410h-71l-37 -168h75l-9 -47h-76l-42 -195h-52l42 195h-146l-43 -195h-52l43 195h-75l9 47h76l37 168h-80l9 46h81l39 172h51l-38 -172h147l38 172h52l-38 -172h69zM220 410l-37 -168h147l36 168h-146z" />
    <glyph glyph-name="dollar" unicode="$" horiz-adv-x="558" 
d="M292 -75v806h38v-64c41 -3 87 -13 124 -36v-127h-60v85c-20 9 -40 14 -64 17v-241c85 -32 168 -67 168 -177c0 -108 -70 -164 -168 -180v-83h-38zM258 731v-806h-37v80c-53 5 -100 16 -151 47v128h60v-84c40 -19 62 -23 91 -27v260c-81 28 -147 68 -147 163
c0 97 61 155 147 172v67h37zM428 189c0 58 -42 86 -98 107v-224c55 11 98 47 98 117zM144 499c0 -60 33 -82 77 -100v202c-43 -12 -77 -43 -77 -102z" />
    <glyph glyph-name="percent" unicode="%" horiz-adv-x="820" 
d="M345 463c0 -96 -37 -201 -161 -201c-137 0 -164 100 -164 200c0 91 28 207 166 207c141 0 159 -121 159 -206zM277 462c0 57 -5 154 -91 154c-88 0 -98 -92 -98 -155c0 -82 15 -148 98 -148c76 0 91 79 91 149zM584 701l-292 -723h-56l294 723h54zM800 198
c0 -96 -37 -201 -161 -201c-137 0 -164 100 -164 200c0 91 28 207 166 207c141 0 159 -121 159 -206zM732 197c0 57 -5 154 -91 154c-88 0 -98 -92 -98 -155c0 -82 15 -148 98 -148c76 0 91 79 91 149z" />
    <glyph glyph-name="ampersand" unicode="&#x26;" horiz-adv-x="726" 
d="M253 -12c-122 0 -219 65 -219 194c0 89 60 158 166 217c-41 54 -55 94 -55 135c0 74 47 143 145 143c102 0 145 -67 145 -131c0 -75 -56 -120 -138 -169c31 -45 69 -95 109 -144c24 -29 48 -57 74 -85c53 51 95 117 106 199h-87v59h224v-59h-70
c-10 -96 -59 -179 -127 -243c47 -45 100 -82 149 -102l-31 -56c-44 19 -120 68 -172 116c-65 -47 -145 -74 -219 -74zM337 212c-36 46 -73 93 -102 133c-72 -39 -127 -87 -127 -159c0 -92 66 -138 146 -138c55 0 117 21 172 59c-34 35 -62 71 -89 105zM218 539
c0 -34 18 -68 47 -109c56 29 103 60 103 116c0 44 -30 74 -80 74c-52 0 -70 -49 -70 -81z" />
    <glyph glyph-name="quotesingle" unicode="'" horiz-adv-x="193" 
d="M120 482h-46l-14 203h75z" />
    <glyph glyph-name="parenleft" unicode="(" horiz-adv-x="285" 
d="M60 285c0 221 101 370 148 428l35 -22c-30 -45 -108 -186 -108 -405c0 -246 78 -382 109 -432l-36 -25c-45 57 -148 209 -148 456z" />
    <glyph glyph-name="parenright" unicode=")" horiz-adv-x="287" 
d="M216 285c0 -247 -103 -399 -149 -456l-35 25c31 50 109 186 109 432c0 219 -78 361 -108 405l35 22c47 -58 148 -207 148 -428z" />
    <glyph glyph-name="asterisk" unicode="*" horiz-adv-x="389" 
d="M215 577c33 17 67 36 101 54c22 -25 25 -49 27 -79c-40 -4 -78 -10 -118 -14l84 -79c-18 -23 -38 -38 -65 -49l-50 106l-49 -105c-27 10 -46 23 -67 48l84 80l-113 15c3 32 10 56 26 80l101 -57c-7 37 -16 76 -23 113c14 4 29 5 44 5c14 0 28 -1 41 -5z" />
    <glyph glyph-name="plus" unicode="+" horiz-adv-x="558" 
d="M476 270h-163v-168h-60v168h-164v58h164v162h60v-162h163v-58z" />
    <glyph glyph-name="comma" unicode="," horiz-adv-x="210" 
d="M48 46c0 27 22 52 55 52c36 0 60 -27 60 -64c0 -54 -32 -119 -98 -163l-22 24c30 33 45 65 48 100c-33 2 -43 26 -43 51z" />
    <glyph glyph-name="hyphen" unicode="-" horiz-adv-x="366" 
d="M312 230h-258v68h258v-68z" />
    <glyph glyph-name="period" unicode="." horiz-adv-x="208" 
d="M159 47c0 -32 -26 -57 -55 -57c-32 0 -57 25 -57 57c0 30 25 55 55 55c32 0 57 -25 57 -55z" />
    <glyph glyph-name="slash" unicode="/" horiz-adv-x="333" 
d="M325 701l-256 -729h-54l256 729h54z" />
    <glyph glyph-name="zero" unicode="0" horiz-adv-x="558" 
d="M523 329c0 -161 -57 -336 -241 -336c-208 0 -248 168 -248 334c0 150 42 347 249 347c211 0 240 -205 240 -345zM441 327c0 104 -9 282 -158 282c-150 0 -167 -169 -167 -284c0 -149 27 -268 167 -268c129 0 158 141 158 270z" />
    <glyph glyph-name="one" unicode="1" horiz-adv-x="558" 
d="M101 0v62h145v520l-158 -24l-11 48l175 58h74v-602h137v-62h-362z" />
    <glyph glyph-name="two" unicode="2" horiz-adv-x="558" 
d="M456 491c0 -164 -207 -330 -309 -429h268v90h69v-152h-443v57c115 108 332 289 332 429c0 85 -56 120 -137 120c-33 0 -92 -6 -169 -54l-29 50c81 59 160 72 210 72c121 0 208 -59 208 -183z" />
    <glyph glyph-name="three" unicode="3" horiz-adv-x="558" 
d="M474 616l-216 -216c125 0 233 -49 233 -191c0 -147 -117 -218 -245 -218c-75 0 -142 12 -200 39c6 20 13 41 20 60c73 -21 123 -30 164 -30c109 0 178 45 178 148c0 88 -67 132 -187 132c-18 0 -34 -1 -54 -4l-15 48c70 72 143 146 214 217h-228v-95c-22 0 -46 -1 -68 -1
v159h391z" />
    <glyph glyph-name="four" unicode="4" horiz-adv-x="558" 
d="M526 188h-97v-126h72v-62h-220v62h71v126h-320v57c104 140 221 279 326 419h71v-416h97v-60zM353 550h-6c-80 -106 -159 -196 -239 -302h245v302z" />
    <glyph glyph-name="five" unicode="5" horiz-adv-x="558" 
d="M251 354c-38 0 -78 -10 -114 -27l-48 32l20 305h355v-141h-67v79h-221l-13 -205c23 9 52 20 112 20c109 0 219 -60 219 -207c0 -148 -115 -219 -240 -219c-73 0 -145 11 -205 40l19 60c74 -22 125 -30 166 -30c108 0 178 44 178 149c0 97 -75 144 -161 144z" />
    <glyph glyph-name="six" unicode="6" horiz-adv-x="558" 
d="M132 369l5 -3c50 27 101 49 169 49c105 0 201 -59 201 -206c0 -135 -92 -216 -225 -216c-181 0 -230 140 -230 310c0 216 83 371 264 371c70 0 122 -19 145 -31c-6 -19 -11 -38 -18 -57c-49 19 -93 24 -125 24c-148 0 -182 -166 -186 -241zM291 352
c-99 0 -154 -49 -158 -51v-21c0 -85 16 -224 151 -224c95 0 144 63 144 149s-34 147 -137 147z" />
    <glyph glyph-name="seven" unicode="7" horiz-adv-x="558" 
d="M147 501h-69v163h405v-59l-273 -605h-77l271 602h-257v-101z" />
    <glyph glyph-name="eight" unicode="8" horiz-adv-x="558" 
d="M162 508c0 -67 68 -90 155 -130c69 47 93 84 93 125c0 46 -35 108 -127 108c-90 0 -121 -67 -121 -103zM277 53c95 0 150 55 150 128c0 77 -76 109 -197 160c-79 -49 -100 -115 -100 -166c0 -67 49 -122 147 -122zM487 514c0 -49 -17 -105 -99 -165
c62 -32 117 -89 117 -173c0 -104 -89 -184 -231 -184c-146 0 -226 71 -226 173c0 67 29 153 123 205c-63 37 -92 73 -92 138c0 95 86 168 207 168c93 0 201 -46 201 -162z" />
    <glyph glyph-name="nine" unicode="9" horiz-adv-x="558" 
d="M418 298l-5 3c-49 -29 -102 -50 -169 -50c-107 0 -201 59 -201 206c0 135 92 217 225 217c180 0 230 -140 230 -311c0 -215 -84 -369 -264 -369c-71 0 -132 18 -155 30l19 57c49 -19 102 -24 134 -24c147 0 182 167 186 241zM259 314c99 0 154 49 158 51v22
c0 82 -16 220 -151 220c-95 0 -144 -60 -144 -146c0 -85 34 -147 137 -147z" />
    <glyph glyph-name="colon" unicode=":" horiz-adv-x="205" 
d="M159 47c0 -32 -26 -57 -55 -57c-32 0 -57 25 -57 57c0 30 25 55 55 55c32 0 57 -25 57 -55zM159 358c0 -32 -26 -57 -55 -57c-32 0 -57 25 -57 57c0 30 25 55 55 55c32 0 57 -25 57 -55z" />
    <glyph glyph-name="semicolon" unicode=";" horiz-adv-x="205" 
d="M159 358c0 -32 -26 -57 -55 -57c-32 0 -57 25 -57 57c0 30 25 55 55 55c32 0 57 -25 57 -55zM48 46c0 27 22 52 55 52c36 0 60 -27 60 -64c0 -54 -32 -119 -98 -163l-22 24c30 33 45 65 48 100c-33 2 -43 26 -43 51z" />
    <glyph glyph-name="less" unicode="&#x3c;" horiz-adv-x="558" 
d="M482 138v-67l-398 201v50l398 200v-68l-325 -156z" />
    <glyph glyph-name="equal" unicode="=" horiz-adv-x="558" 
d="M480 345h-403v58h403v-58zM480 200h-403v57h403v-57z" />
    <glyph glyph-name="greater" unicode="&#x3e;" horiz-adv-x="558" 
d="M84 71v67l325 160l-325 156v68l398 -200v-50z" />
    <glyph glyph-name="question" unicode="?" horiz-adv-x="441" 
d="M257 451c45 37 70 65 70 109c0 55 -47 77 -109 77c-33 0 -73 -5 -111 -17v-91h-66v143c63 22 132 32 182 32c122 0 185 -49 190 -131c0 -69 -36 -116 -87 -158c-86 -70 -128 -112 -128 -169c0 -22 5 -43 9 -72l-66 -9c-9 39 -12 70 -12 91c0 74 48 123 128 195zM243 41
c0 -29 -24 -51 -52 -51c-29 0 -53 23 -53 51s23 51 52 51c30 0 53 -23 53 -51z" />
    <glyph glyph-name="at" unicode="@" horiz-adv-x="878" 
d="M456 689c216 0 347 -131 347 -327c-2 -134 -87 -202 -173 -202c-42 0 -90 15 -107 58c-30 -30 -81 -55 -134 -55c-86 0 -106 65 -106 106c0 62 44 100 117 108l112 9v25c0 61 -18 81 -76 81c-35 0 -73 -7 -113 -20l-14 43c42 19 93 30 141 30c74 0 121 -32 121 -122v-154
c0 -38 22 -62 68 -62c52 0 113 46 113 153c0 177 -116 283 -296 283c-182 0 -333 -133 -333 -308c0 -178 132 -310 306 -310c37 0 76 4 123 20l14 -41c-36 -15 -87 -25 -135 -25c-213 0 -358 149 -358 354c0 206 173 356 383 356zM512 346l-91 -8c-41 -4 -73 -26 -73 -63
c0 -41 20 -64 67 -64c31 0 64 14 97 43v92z" />
    <glyph glyph-name="A" unicode="A" horiz-adv-x="668" 
d="M437 63h69l-40 126h-267c-10 -31 -27 -85 -39 -126h71v-63h-211v63h57c64 193 145 434 206 622h106c65 -201 139 -422 204 -622h56v-63h-212v63zM446 253c-29 97 -61 194 -91 291c-6 22 -13 44 -20 67h-2c-1 -5 -4 -17 -21 -68c-21 -65 -65 -201 -91 -290h225z" />
    <glyph glyph-name="B" unicode="B" horiz-adv-x="619" 
d="M109 620h-65v64h300c142 0 213 -68 213 -175c0 -42 -13 -114 -95 -151c87 -26 116 -100 116 -170c0 -114 -90 -188 -195 -188h-343v63h69v557zM492 193c0 68 -45 130 -138 130h-160v-260h160c100 0 138 61 138 130zM472 502c0 69 -40 118 -135 118h-143v-233h143
c87 0 135 46 135 115z" />
    <glyph glyph-name="C" unicode="C" horiz-adv-x="570" 
d="M460 508v106c-35 10 -75 13 -107 13c-150 0 -215 -115 -215 -289c0 -158 43 -275 222 -275c36 0 109 6 163 23l16 -62c-48 -19 -131 -32 -194 -32c-218 0 -295 141 -295 347c0 146 59 357 300 357c75 0 133 -13 174 -28v-160h-64z" />
    <glyph glyph-name="D" unicode="D" horiz-adv-x="664" 
d="M324 0h-283v63h69v556h-65v66h288c222 0 281 -158 281 -341c0 -187 -66 -344 -290 -344zM320 619h-123v-556h117c62 0 213 11 213 274c0 268 -136 282 -207 282z" />
    <glyph glyph-name="E" unicode="E" horiz-adv-x="575" 
d="M547 0h-506v64h67v556h-64v64h487v-162h-65v98h-273v-232l260 5v-67l-260 4v-266h287v100h67v-164z" />
    <glyph glyph-name="F" unicode="F" horiz-adv-x="552" 
d="M289 0h-248v63h67v557h-64v64h488v-162h-66v98h-273v-232l260 5v-67l-260 4v-267h96v-63z" />
    <glyph glyph-name="G" unicode="G" horiz-adv-x="633" 
d="M364 696c75 0 137 -13 178 -28v-158h-64v102c-28 8 -72 14 -111 14c-159 0 -229 -114 -229 -288c0 -154 43 -275 212 -275c35 0 90 5 121 15v216h-106v64h236v-64h-51v-270c-67 -22 -140 -32 -207 -32c-215 0 -293 142 -293 347c0 146 58 357 314 357z" />
    <glyph glyph-name="H" unicode="H" horiz-adv-x="703" 
d="M662 0h-213v63h62v265h-321v-265h63v-63h-213v63h65v557h-65v64h213v-64h-63v-230h321v230h-62v64h213v-64h-65v-557h65v-63z" />
    <glyph glyph-name="I" unicode="I" horiz-adv-x="353" 
d="M283 0h-213v63h63v557h-63v65h213v-65h-65v-557h65v-63z" />
    <glyph glyph-name="J" unicode="J" horiz-adv-x="359" 
d="M61 620v65h246v-65h-76l-1 -486c0 -171 -81 -258 -232 -310l-25 58c141 77 172 134 172 254v484h-84z" />
    <glyph glyph-name="K" unicode="K" horiz-adv-x="645" 
d="M551 622l-217 -207l236 -352h59v-63h-221l-1 63h66l-200 298l-84 -81v-218h64v-62h-212v62h64v561h-64v61h211v-61h-63v-261l269 260h-66v62h215v-62h-56z" />
    <glyph glyph-name="L" unicode="L" horiz-adv-x="562" 
d="M555 0h-514v63h67v557h-64v64h222v-64h-73v-557h295v120h67v-183z" />
    <glyph glyph-name="M" unicode="M" horiz-adv-x="870" 
d="M433 164h5c17 39 34 83 51 121l175 399h172v-64h-62v-557h62v-63h-211v63h62v490h-2l-44 -103c-23 -53 -46 -106 -70 -159c-32 -71 -63 -142 -94 -214h-87c-58 128 -114 251 -170 380c-14 32 -29 64 -42 96h-3l-1 -490h65v-63h-210v63h64v557h-64v64h176
c41 -89 109 -245 167 -377c23 -52 44 -104 61 -143z" />
    <glyph glyph-name="N" unicode="N" horiz-adv-x="736" 
d="M544 140h5v480h-70v64h216v-64h-66v-620h-81c-97 151 -195 297 -292 450l-66 105c-1 0 -2 -1 -3 -1v-491h69l1 -63h-217l-1 63h68l1 557h-68v64h158c182 -286 226 -353 270 -423c26 -40 51 -80 76 -121z" />
    <glyph glyph-name="O" unicode="O" horiz-adv-x="678" 
d="M628 340c0 -198 -96 -348 -284 -348c-212 0 -294 135 -294 345c0 190 77 358 294 358c220 0 284 -169 284 -355zM540 337c0 135 -31 290 -196 290c-166 0 -206 -142 -206 -291c0 -182 60 -276 206 -276c134 0 196 122 196 277z" />
    <glyph glyph-name="P" unicode="P" horiz-adv-x="571" 
d="M542 486c0 -83 -46 -205 -203 -205h-149v-218h86v-63h-235v63h64v557h-64v65h288c125 0 213 -68 213 -199zM320 620h-130v-275h133c65 0 132 31 132 138c0 94 -52 137 -135 137z" />
    <glyph glyph-name="Q" unicode="Q" horiz-adv-x="678" 
d="M627 339c0 -147 -53 -267 -156 -318l157 -38l-30 -74c-78 25 -156 50 -233 76l-22 4c-211 13 -293 131 -293 348c0 190 76 358 293 358c220 0 284 -170 284 -356zM539 337c0 134 -30 291 -196 291c-165 0 -206 -144 -206 -293c0 -182 61 -275 206 -275
c135 0 196 121 196 277z" />
    <glyph glyph-name="R" unicode="R" horiz-adv-x="618" 
d="M458 494c0 93 -64 126 -132 126h-136v-257h137c55 0 131 22 131 131zM338 301h-148v-237h80v-64h-228v64h63v556h-63v65h292c125 0 211 -61 211 -189c0 -65 -29 -155 -128 -183l114 -251l72 -10v-47c-24 -9 -59 -14 -80 -14c-41 0 -56 20 -71 53z" />
    <glyph glyph-name="S" unicode="S" horiz-adv-x="546" 
d="M35 178h64l1 -84c51 -26 104 -33 152 -33c111 0 168 53 168 126c0 87 -64 103 -157 129c-116 32 -218 67 -218 184c0 125 103 194 228 194c56 0 133 -8 189 -41l2 -134h-65l-2 87c-31 14 -86 19 -125 19c-77 0 -140 -35 -140 -114c0 -69 71 -97 156 -119
c106 -27 221 -60 221 -203c0 -140 -109 -197 -251 -197c-74 0 -156 13 -222 51z" />
    <glyph glyph-name="T" unicode="T" horiz-adv-x="554" 
d="M403 0h-249v63h82v557h-157v-106h-65v171h527v-171h-65v106h-156v-557h83v-63z" />
    <glyph glyph-name="U" unicode="U" horiz-adv-x="706" 
d="M613 620v-374c0 -153 -84 -254 -261 -254c-184 0 -261 96 -261 254v374h-60v65h214v-65h-70v-370c0 -125 64 -188 177 -188c114 0 178 62 178 188v370h-69v65h214v-65h-62z" />
    <glyph glyph-name="V" unicode="V" horiz-adv-x="639" 
d="M427 619v65h205v-65h-62c-66 -206 -132 -415 -198 -619h-102l-200 619h-61v65h210l-1 -65h-60c43 -141 83 -271 129 -416c12 -39 23 -79 35 -119h4l35 122c42 136 83 276 125 413h-59z" />
    <glyph glyph-name="W" unicode="W" horiz-adv-x="933" 
d="M716 619v66h212v-66h-63c-42 -173 -114 -449 -155 -619h-100l-110 375l-29 100h-2l-30 -104l-109 -371h-102l-158 619h-61v66h217v-66h-68l99 -409l27 -119h2l32 120l110 379l-10 29h-69l-1 66h227l1 -66h-71l125 -417l30 -107h2l27 119l93 405h-66z" />
    <glyph glyph-name="X" unicode="X" horiz-adv-x="637" 
d="M390 619v66h215v-66h-65l-172 -264l181 -291h66l1 -64h-229v64h68l-142 232l-145 -232h71v-64h-220l-1 64h64l185 289l-162 266h-69l1 66h221v-66h-61l126 -209l131 209h-64z" />
    <glyph glyph-name="Y" unicode="Y" horiz-adv-x="587" 
d="M376 619v66h201v-66h-57l-186 -321v-235h81v-63h-247v63h81v232l-181 324h-57v66h204v-66h-59l136 -256h4l140 256h-60z" />
    <glyph glyph-name="Z" unicode="Z" horiz-adv-x="532" 
d="M493 621l-373 -557h327v112h66v-176h-491v63l372 557h-282v-100h-66v165h447v-64z" />
    <glyph glyph-name="bracketleft" unicode="[" horiz-adv-x="260" 
d="M225 -160h-171v857h171v-54h-97v-748h97v-55z" />
    <glyph glyph-name="backslash" unicode="\" horiz-adv-x="333" 
d="M270 -28l-255 729h53l257 -729h-55z" />
    <glyph glyph-name="bracketright" unicode="]" horiz-adv-x="260" 
d="M203 -160h-170v55h97v748h-97v54h170v-857z" />
    <glyph glyph-name="asciicircum" unicode="^" horiz-adv-x="443" 
d="M416 381h-62l-135 237l-136 -237h-62l175 300h48z" />
    <glyph glyph-name="underscore" unicode="_" horiz-adv-x="500" 
d="M500 -132h-500v47h500v-47z" />
    <glyph glyph-name="grave" unicode="`" horiz-adv-x="487" 
d="M277 535l-145 139l56 52l123 -162z" />
    <glyph glyph-name="a" unicode="a" horiz-adv-x="515" 
d="M340 233l-122 -8c-63 -4 -98 -38 -98 -85c0 -57 27 -82 90 -82c41 0 93 23 130 58v117zM419 334v-272h77l5 -47c-24 -13 -74 -20 -97 -20c-37 0 -60 9 -61 60c-1 0 -1 1 -2 1c-74 -64 -136 -64 -166 -64c-113 0 -141 84 -141 140c0 84 61 138 183 146l124 8v32
c0 84 -24 111 -104 111c-48 0 -101 -10 -150 -27c-6 18 -12 37 -17 55c55 25 125 39 186 39c103 0 163 -42 163 -162z" />
    <glyph glyph-name="b" unicode="b" horiz-adv-x="540" 
d="M281 -7c-67 0 -142 15 -204 44v611h-79v63h161v-256c57 32 105 45 146 45c145 0 187 -110 187 -258c0 -136 -50 -249 -211 -249zM292 432c-47 0 -97 -20 -133 -41v-310c41 -18 83 -23 117 -23c82 0 132 44 132 182c0 155 -48 192 -116 192z" />
    <glyph glyph-name="c" unicode="c" horiz-adv-x="453" 
d="M261 499c54 0 104 -9 144 -26v-129h-62v77c-21 6 -47 9 -66 9c-105 0 -154 -71 -154 -191c0 -112 38 -180 138 -180c51 0 94 10 144 30l20 -57c-42 -24 -106 -40 -170 -40c-164 0 -215 107 -215 246c0 104 38 261 221 261z" />
    <glyph glyph-name="d" unicode="d" horiz-adv-x="544" 
d="M377 45l-2 1c-39 -31 -98 -54 -150 -54c-140 0 -185 112 -185 243c0 150 53 265 198 265c37 0 89 -8 135 -33v181h-82v63h164v-649h76v-62h-154v45zM250 433c-68 0 -126 -43 -126 -198c0 -135 49 -176 121 -176c47 0 104 27 128 50v288c-22 16 -78 36 -123 36z" />
    <glyph glyph-name="e" unicode="e" horiz-adv-x="485" 
d="M253 435c-86 0 -122 -71 -127 -151h243c-2 86 -27 151 -116 151zM254 499c189 0 194 -173 194 -233v-44h-324c-1 -92 28 -166 137 -166c57 0 99 11 154 34l22 -53c-58 -31 -117 -45 -182 -45c-174 0 -215 121 -215 251c0 87 33 256 214 256z" />
    <glyph glyph-name="f" unicode="f" horiz-adv-x="353" 
d="M25 0v62h70v362h-68v48l69 18v80c0 97 55 150 157 150c29 0 68 -3 102 -12l-11 -60c-25 4 -53 7 -73 7c-63 0 -96 -22 -96 -85v-82h143v-64h-143v-362h84v-62h-234z" />
    <glyph glyph-name="g" unicode="g" horiz-adv-x="512" 
d="M243 500c32 0 65 -5 92 -12h158v-52h-78l-2 -2c23 -24 36 -66 36 -107c0 -105 -86 -167 -205 -167h-54c-50 0 -78 -6 -78 -36c0 -22 20 -34 51 -34h126c119 0 187 -52 187 -147c0 -94 -87 -159 -239 -159c-161 0 -208 67 -208 141c0 57 35 100 64 115
c-40 8 -60 35 -60 75c0 59 51 76 83 82c-34 16 -69 54 -69 127c0 127 102 176 196 176zM247 435c-75 0 -116 -42 -116 -108c0 -64 39 -105 106 -105c74 0 129 36 129 106c0 41 -27 107 -119 107zM277 29h-109c-27 -9 -58 -50 -58 -87c0 -45 25 -91 139 -91
c96 0 143 37 143 91c0 41 -26 87 -115 87z" />
    <glyph glyph-name="h" unicode="h" horiz-adv-x="583" 
d="M174 0h-81v648h-73v63h154v-267c56 35 122 55 171 55c129 0 142 -81 142 -147l1 -290h77v-49c-25 -12 -67 -18 -90 -18c-52 0 -68 25 -68 74v257c0 68 -8 104 -85 104c-46 0 -107 -25 -148 -49v-381z" />
    <glyph glyph-name="i" unicode="i" horiz-adv-x="292" 
d="M107 424h-51v63h132v-425h73v-49c-25 -12 -62 -19 -85 -19c-46 0 -68 16 -69 70v360zM198 616c0 -28 -24 -53 -54 -53c-29 0 -53 25 -53 53c0 30 24 54 53 54c30 0 54 -24 54 -54z" />
    <glyph glyph-name="k" unicode="k" horiz-adv-x="527" 
d="M290 429v59h197v-59h-51c-45 -41 -90 -84 -136 -125c51 -81 102 -163 152 -245l66 -9v-44c-22 -9 -51 -13 -71 -13c-23 0 -46 6 -60 29l-143 236l-69 -62v-138h67v-58h-218v58h70v594h-79v58h160v-438l172 157h-57z" />
    <glyph glyph-name="l" unicode="l" horiz-adv-x="298" 
d="M196 711v-649h71v-62h-222v62h70v586h-79v63h160z" />
    <glyph glyph-name="m" unicode="m" horiz-adv-x="879" 
d="M343 497c52 0 92 -18 117 -59c47 33 119 60 176 60c137 0 148 -91 148 -163v-273h71v-49c-26 -12 -61 -18 -84 -18c-54 0 -68 22 -68 68v254c0 67 -14 108 -86 108c-42 0 -105 -17 -144 -42c6 -21 6 -47 6 -63v-320h-81v333c0 70 -38 92 -81 92c-46 0 -100 -21 -142 -47
v-378h-81v424h-75v64h155v-42l4 -3c54 35 115 54 165 54z" />
    <glyph glyph-name="n" unicode="n" horiz-adv-x="585" 
d="M174 0h-81v424h-73v64h154v-44c56 35 122 55 171 55c129 0 142 -81 142 -147l1 -290h75v-49c-25 -12 -65 -18 -88 -18c-52 0 -68 25 -68 74v253c0 68 -8 104 -85 104c-46 0 -107 -25 -148 -49v-377z" />
    <glyph glyph-name="o" unicode="o" horiz-adv-x="511" 
d="M471 243c0 -125 -51 -251 -221 -251c-159 0 -210 117 -210 249c0 130 60 257 219 257c163 0 212 -127 212 -255zM387 241c0 86 -20 191 -125 191c-110 0 -137 -98 -137 -191c0 -97 19 -184 133 -184c106 0 129 96 129 184z" />
    <glyph glyph-name="p" unicode="p" horiz-adv-x="539" 
d="M13 -209v63h76v570h-76v63h153v-46l2 -1c39 31 99 54 151 54c140 0 185 -111 185 -242c0 -150 -53 -262 -198 -262c-37 0 -89 8 -135 33v-169h82v-63h-240zM294 59c68 0 126 38 126 193c0 135 -49 170 -121 170c-47 0 -104 -27 -128 -50v-277c22 -16 78 -36 123 -36z" />
    <glyph glyph-name="q" unicode="q" horiz-adv-x="539" 
d="M296 -209v63h86v179c-57 -32 -105 -44 -146 -44c-143 0 -189 104 -187 251c3 138 55 255 217 255c67 0 137 -15 197 -42v-599h78v-63h-245zM249 62c47 0 96 19 133 40v303c-39 16 -78 21 -113 21c-81 0 -134 -48 -136 -184c-3 -147 48 -180 116 -180z" />
    <glyph glyph-name="r" unicode="r" horiz-adv-x="384" 
d="M182 420h2c39 33 115 80 175 80c16 0 25 -7 25 -28c0 -22 -10 -59 -27 -79l-173 -9v-322h77v-62h-230v62h71v362h-70v64h150v-68z" />
    <glyph glyph-name="s" unicode="s" horiz-adv-x="437" 
d="M29 145h63l3 -66c29 -15 72 -22 104 -22c66 0 119 18 119 74c0 53 -49 70 -105 86c-85 24 -174 46 -174 143c0 99 80 138 180 138c54 0 108 -11 148 -36l3 -114h-65l-2 69c-24 10 -53 15 -81 15c-56 0 -100 -19 -100 -71c0 -43 65 -61 103 -72c81 -24 175 -45 175 -158
c0 -96 -84 -139 -195 -139c-57 0 -127 9 -174 38z" />
    <glyph glyph-name="t" unicode="t" horiz-adv-x="369" 
d="M119 603l52 9v-124h147v-64h-148v-280c0 -47 7 -80 67 -80c24 0 55 4 93 15l15 -57c-36 -17 -84 -27 -124 -27c-94 0 -131 40 -131 120v309h-71v48l74 23z" />
    <glyph glyph-name="u" unicode="u" horiz-adv-x="575" 
d="M235 -11c-129 0 -141 82 -141 154v281h-73v64h154v-323c0 -64 7 -105 77 -105c37 0 97 16 147 61v303h-67v64h149v-426h71v-49c-30 -13 -65 -18 -86 -18c-42 0 -62 13 -66 62c-62 -57 -128 -68 -165 -68z" />
    <glyph glyph-name="v" unicode="v" horiz-adv-x="518" 
d="M12 424v64h118l69 -216l61 -203h4c17 59 37 119 54 177c20 60 38 117 57 178h-46v64h176v-64h-49c-49 -142 -98 -282 -148 -424h-98l-143 424h-55z" />
    <glyph glyph-name="w" unicode="w" horiz-adv-x="806" 
d="M564 64h4l37 144l60 216h-64v64h191v-64h-49l-122 -424h-106l-62 168l-47 139h-5l-48 -139l-60 -168h-110l-122 424h-54v64h117l75 -267l43 -157h5l46 139l64 188l-12 33h-69v64h218v-64h-58l79 -221z" />
    <glyph glyph-name="x" unicode="x" horiz-adv-x="490" 
d="M280 424l1 64h184v-64h-56l-116 -167l122 -195h68v-62h-198v62h37l-84 143l-89 -143h44v-62h-186v62h50l135 196l-100 166h-74v64h123l104 -181l75 117h-40z" />
    <glyph glyph-name="y" unicode="y" horiz-adv-x="533" 
d="M264 55c3 8 20 64 41 127l80 242h-62v64h187v-64h-50l-183 -546c-25 -71 -61 -92 -131 -92c-16 0 -56 3 -102 17l14 72c31 -6 58 -11 81 -11c36 0 57 5 72 48l33 91h-42l-134 421h-50v64h110l101 -327l30 -106h5z" />
    <glyph glyph-name="z" unicode="z" horiz-adv-x="447" 
d="M412 431l-288 -369h232v77h64v-139h-397v57l288 367h-204v-79h-62v143h367v-57z" />
    <glyph glyph-name="braceleft" unicode="{" horiz-adv-x="265" 
d="M242 -169h-52c-99 0 -95 83 -95 139v197c0 40 -7 94 -66 105v45c48 9 66 55 66 106v113c0 56 -3 166 88 166h59v-54h-23c-36 0 -50 -28 -50 -66v-162c0 -54 -10 -109 -60 -124c59 -32 60 -75 60 -155v-191c0 -36 7 -65 46 -65h27v-54z" />
    <glyph glyph-name="bar" unicode="|" horiz-adv-x="243" 
d="M147 -139h-58v839h58v-839z" />
    <glyph glyph-name="braceright" unicode="}" horiz-adv-x="265" 
d="M82 -169h-58v54h26c40 0 47 29 47 65v196c0 77 2 118 59 150c-47 14 -59 68 -59 119v167c0 38 -14 66 -50 66h-23v54h58c83 0 89 -73 89 -129v-145c0 -59 16 -102 65 -111v-45c-47 -7 -65 -54 -65 -105v-217c0 -55 -17 -119 -89 -119z" />
    <glyph glyph-name="asciitilde" unicode="~" horiz-adv-x="558" 
d="M385 247c-79 0 -148 47 -203 47l-73 -47l-34 28c23 52 64 85 114 85c62 0 155 -47 208 -47l68 48l33 -27c-21 -51 -61 -87 -113 -87z" />
    <glyph glyph-name="endash" unicode="&#x2013;" horiz-adv-x="500" 
d="M471 226h-440v60h440v-60z" />
    <glyph glyph-name="emdash" unicode="&#x2014;" horiz-adv-x="1000" 
d="M962 226h-928v60h928v-60z" />
    <glyph glyph-name="quoteleft" unicode="&#x2018;" horiz-adv-x="215" 
d="M165 545c0 -27 -24 -52 -54 -52c-36 0 -59 27 -59 65c0 56 46 125 102 154l20 -27c-26 -24 -43 -52 -45 -89c23 -7 36 -25 36 -51z" />
    <glyph glyph-name="quoteright" unicode="&#x2019;" horiz-adv-x="215" 
d="M62 659c0 28 24 53 54 53c36 0 59 -28 59 -65c0 -56 -44 -125 -102 -154l-20 27c26 24 42 52 45 88c-23 7 -36 26 -36 51z" />
    <glyph glyph-name="quotedblleft" unicode="&#x201c;" horiz-adv-x="343" 
d="M164 545c0 -27 -24 -52 -55 -52c-35 0 -58 27 -58 65c0 57 44 124 102 154l20 -27c-26 -24 -43 -52 -45 -89c22 -7 36 -25 36 -51zM298 545c0 -27 -24 -52 -54 -52c-36 0 -59 27 -59 65c0 56 46 125 102 154c7 -9 13 -18 21 -27c-27 -24 -44 -52 -46 -89
c23 -7 36 -25 36 -51z" />
    <glyph glyph-name="quotedblright" unicode="&#x201d;" horiz-adv-x="343" 
d="M196 659c0 28 24 53 55 53c35 0 58 -28 58 -65c0 -56 -43 -125 -102 -154l-20 27c26 24 43 52 45 88c-23 7 -36 26 -36 51zM62 659c0 28 23 53 54 53c36 0 59 -28 59 -65c0 -56 -44 -125 -102 -154l-21 27c27 24 43 52 46 88c-23 7 -36 26 -36 51z" />
    <glyph glyph-name="bullet" unicode="&#x2022;" horiz-adv-x="321" 
d="M267 274c0 -58 -49 -108 -107 -108s-107 50 -107 108c0 60 49 109 107 109s107 -49 107 -109z" />
    <glyph glyph-name="quotesinglbase" unicode="&#x201a;" horiz-adv-x="210" 
d="M48 46c0 27 22 52 55 52c36 0 60 -27 60 -64c0 -54 -32 -119 -98 -163l-22 24c30 33 45 65 48 100c-33 2 -43 26 -43 51z" />
    <glyph glyph-name="quotedblbase" unicode="&#x201e;" horiz-adv-x="351" 
d="M48 46c0 27 22 52 55 52c36 0 60 -27 60 -64c0 -54 -32 -119 -98 -163l-22 24c30 33 45 65 48 100c-33 2 -43 26 -43 51zM194 46c0 27 22 52 55 52c36 0 60 -27 60 -64c0 -54 -32 -119 -98 -163l-22 24c30 33 45 65 48 100c-33 2 -43 26 -43 51z" />
    <glyph glyph-name="alpha" unicode="&#x3b1;" horiz-adv-x="544" 
d="M451 488v-426h74l3 -50c-22 -10 -61 -17 -83 -17c-48 0 -66 8 -72 59c-74 -61 -136 -62 -166 -62c-123 0 -169 103 -169 249c0 121 54 254 200 254c60 0 107 -27 138 -55l19 48h56zM370 117c0 87 1 172 1 258c-24 23 -78 56 -118 56c-99 0 -131 -94 -131 -187
c0 -152 51 -186 114 -186c37 0 87 18 134 59z" />
    <glyph glyph-name="beta" unicode="&#x3b2;" horiz-adv-x="501" 
d="M48 -201v708c0 132 70 207 186 207c126 0 194 -65 194 -167c0 -65 -40 -123 -84 -144c92 -30 117 -101 117 -190c0 -149 -82 -223 -198 -223c-51 0 -107 16 -134 37v-228h-81zM241 368h-51v58h50c59 0 107 44 107 121c0 61 -43 105 -108 105c-68 0 -109 -42 -109 -120
v-442c42 -29 98 -36 122 -36c83 0 127 63 127 165c0 94 -42 149 -138 149z" />
    <glyph glyph-name="gamma" unicode="&#x3b3;" horiz-adv-x="502" 
d="M255 116h4c14 45 30 91 45 137c19 58 40 114 59 171h-51v64h186v-64h-56c-48 -134 -98 -267 -145 -401v-231h-82v228l-154 404h-55v64h117c24 -65 46 -129 69 -193z" />
    <glyph glyph-name="delta" unicode="&#x3b4;" horiz-adv-x="509" 
d="M263 706c48 0 109 -10 151 -35v-115h-63v74c-24 10 -57 16 -85 16c-55 0 -105 -22 -105 -72c0 -56 69 -76 106 -88c133 -42 202 -101 202 -256c0 -109 -51 -238 -221 -238c-158 0 -209 118 -209 236c0 95 35 188 126 224c-46 23 -85 56 -85 117c0 98 84 137 183 137z
M248 416c-100 -17 -125 -102 -125 -189c0 -84 20 -171 135 -171c106 0 127 100 127 172c0 77 -6 163 -137 188z" />
    <glyph glyph-name="epsilon" unicode="&#x3b5;" horiz-adv-x="429" 
d="M223 500c60 0 125 -11 161 -27l1 -122h-59v79c-32 9 -64 11 -94 11c-79 0 -109 -37 -109 -79c0 -64 62 -71 110 -70h59v-56l-60 -1c-46 -1 -118 -17 -118 -89c0 -66 56 -93 129 -93c52 0 96 13 149 35l19 -50c-40 -22 -108 -45 -178 -45c-107 0 -203 37 -203 144
c0 62 41 107 92 123l1 3c-43 12 -84 44 -84 96c0 89 80 141 184 141z" />
    <glyph glyph-name="zeta" unicode="&#x3b6;" horiz-adv-x="386" 
d="M336 644l-1 4h-216v-66h-61v126h369v-56c-184 -150 -306 -328 -306 -439c0 -80 42 -101 204 -156c61 -20 83 -48 83 -80c0 -40 -43 -95 -95 -151l-44 37c14 17 29 36 36 47c23 33 24 46 23 53c-1 16 -23 29 -51 39c-155 51 -237 75 -237 204c0 94 101 280 296 438z" />
    <glyph glyph-name="eta" unicode="&#x3b7;" horiz-adv-x="585" 
d="M174 0h-81v424h-73v64h154v-44c56 35 122 55 171 55c129 0 142 -81 142 -147l1 -290h75v-49c-25 -12 -65 -18 -88 -18c-52 0 -68 25 -68 74v253c0 68 -8 104 -85 104c-46 0 -107 -25 -148 -49v-377z" />
    <glyph glyph-name="theta" unicode="&#x3b8;" horiz-adv-x="511" 
d="M252 -6c-186 0 -216 160 -216 355c0 180 35 366 222 366c186 0 215 -189 215 -363c0 -183 -42 -358 -221 -358zM390 340h-271c0 -187 15 -284 137 -284c106 0 134 118 134 262v22zM258 650c-116 0 -135 -123 -138 -249h269c-3 119 -21 249 -131 249z" />
    <glyph glyph-name="upsilon" unicode="&#x3c5;" horiz-adv-x="545" 
d="M393 488h83v-297c0 -114 -74 -197 -200 -197c-131 0 -195 75 -195 184v246h-64v64h146v-310c0 -70 28 -119 112 -119c80 0 118 55 118 128v301z" />
    <glyph glyph-name="omega" unicode="&#x3c9;" horiz-adv-x="730" 
d="M331 336h75l1 -178c1 -51 27 -100 86 -100c83 0 117 69 117 181c0 84 -21 166 -100 203l18 54c120 -29 163 -141 163 -256c0 -130 -54 -247 -193 -247c-63 0 -112 30 -130 77h-3c-25 -48 -75 -77 -135 -77c-155 0 -191 117 -191 247c0 112 42 227 163 256l17 -54
c-78 -37 -99 -119 -99 -203c0 -88 17 -181 116 -181c67 0 95 49 95 100v178z" />
    <glyph glyph-name="rho" unicode="&#x3c1;" horiz-adv-x="515" 
d="M261 -10c-37 0 -90 7 -131 35v-232h-83v458c0 140 63 247 218 247c144 0 209 -103 209 -249c0 -154 -69 -259 -213 -259zM257 433c-88 0 -127 -79 -127 -160v-183c21 -16 75 -36 119 -36c79 0 142 36 142 198c0 143 -61 181 -134 181z" />
    <glyph glyph-name="xi" unicode="&#x3be;" horiz-adv-x="433" 
d="M264 717c37 0 112 -8 158 -30l-17 -58c-56 19 -103 24 -139 24c-95 0 -130 -49 -130 -117c0 -69 59 -113 149 -113h88v-61h-95c-114 0 -161 -73 -161 -155c0 -72 36 -105 162 -150c92 -33 150 -53 150 -104c0 -45 -45 -99 -89 -144l-44 34l21 29c22 30 32 47 32 59
c0 17 -15 31 -58 47c-122 46 -252 73 -256 219c0 65 23 160 127 198c-78 30 -108 97 -108 144c0 114 80 178 210 178z" />
    <glyph glyph-name="nu" unicode="&#x3bd;" horiz-adv-x="518" 
d="M12 424v64h118l69 -216l61 -203h4c17 59 37 119 54 177c20 60 38 117 57 178h-46v64h176v-64h-49c-49 -142 -98 -282 -148 -424h-98l-143 424h-55z" />
    <glyph glyph-name="omicron" unicode="&#x3bf;" horiz-adv-x="511" 
d="M471 243c0 -125 -51 -251 -221 -251c-159 0 -210 117 -210 249c0 130 60 257 219 257c163 0 212 -127 212 -255zM387 241c0 86 -20 191 -125 191c-110 0 -137 -98 -137 -191c0 -97 19 -184 133 -184c106 0 129 96 129 184z" />
    <glyph glyph-name="Euro" unicode="&#x20ac;" horiz-adv-x="558" 
d="M32 310h417v-41h-288c10 -119 56 -210 201 -210c25 0 65 3 105 12v82h63v-133c-43 -16 -121 -27 -179 -27c-181 0 -264 111 -272 276h-47v41zM449 358h-417v41h49c13 127 87 273 276 273c69 0 123 -13 161 -26v-131h-63v78c-26 8 -60 14 -96 14
c-120 0 -181 -81 -197 -208h287v-41z" />
    <glyph glyph-name="Phi" unicode="&#x3a6;" horiz-adv-x="799" 
d="M759 347c0 -149 -136 -238 -313 -248v-39h65v-60h-211v60h62v39c-210 8 -322 88 -322 245c0 121 101 241 322 252v26h-62v62h211v-62h-65v-27c216 -8 313 -113 313 -248zM119 342c0 -129 94 -176 243 -185v382c-163 -10 -243 -85 -243 -197zM679 344
c0 97 -64 187 -233 195v-382c137 9 233 81 233 187z" />
    <glyph glyph-name="Omega" unicode="&#x3a9;" horiz-adv-x="695" 
d="M537 64l2 -2h117v-62h-246v66c110 28 139 146 139 286c0 138 -35 278 -197 278c-152 0 -205 -122 -205 -276c0 -151 29 -263 134 -287v-67h-243v62h110l1 2c-78 55 -89 172 -89 291c0 182 81 341 291 341c217 0 287 -162 287 -340c0 -119 -26 -234 -101 -292z" />
    <glyph glyph-name="Psi" unicode="&#x3a8;" horiz-adv-x="813" 
d="M450 623v-376c127 7 187 66 188 186l1 252h147v-62h-64v-199c-1 -142 -96 -235 -272 -240v-123h72v-61h-226v61h71v122c-180 9 -272 92 -272 253v187h-67v62h152v-255c0 -119 67 -176 187 -183v376h-58v62h200v-62h-59z" />
    <glyph glyph-name="sterling" unicode="&#xa3;" horiz-adv-x="558" 
d="M76 364h70l5 107c7 113 60 201 194 201c66 0 125 -14 164 -33v-131h-67v83c-27 8 -56 14 -93 14c-94 0 -117 -56 -122 -139l-5 -102h185v-53h-188l-4 -81c-3 -65 -15 -137 -51 -167h339v-63h-443l1 62c61 26 75 105 78 170l4 79h-67v53z" />
    <glyph glyph-name="pi" unicode="&#x3c0;" horiz-adv-x="588" 
d="M407 424h-232v-424h-81v424h-74v63h544v-63h-76v-362h73v-49c-25 -12 -62 -19 -85 -19c-46 0 -68 16 -69 70v360z" />
    <glyph glyph-name="lambda" unicode="&#x3bb;" horiz-adv-x="500" 
d="M251 414h-4l-150 -414h-82l172 466h48l-55 179l-99 12l-1 42c29 14 74 25 104 25c44 0 56 -17 68 -54l192 -615h40l4 -47c-18 -9 -47 -13 -65 -13c-31 0 -46 11 -55 41z" />
    <glyph glyph-name="kappa" unicode="&#x3ba;" horiz-adv-x="527" 
d="M383 26l-139 232l-69 -62v-138h67v-58h-218v58h70v371h-79v59h160v-216l172 157h-55v59h195v-59h-51l-136 -126l152 -244l66 -9v-44c-23 -9 -48 -13 -74 -13c-31 0 -48 11 -61 33z" />
    <glyph glyph-name="mu" unicode="&#xb5;" horiz-adv-x="553" 
d="M244 -8c-39 0 -65 5 -86 16v-155h75v-61h-228v61h72c-1 203 -1 369 -1 571h-71v63h152v-326c0 -63 23 -104 99 -104c37 0 86 19 132 61v306h-67v64h149c0 -142 -1 -284 -1 -426h68l4 -49c-30 -13 -65 -18 -86 -18c-42 0 -62 13 -66 62c-60 -55 -113 -63 -145 -65z" />
    <glyph glyph-name="mu" unicode="&#x3bc;" horiz-adv-x="553" 
d="M244 -8c-39 0 -65 5 -86 16v-155h75v-61h-228v61h72c-1 203 -1 369 -1 571h-71v63h152v-326c0 -63 23 -104 99 -104c37 0 86 19 132 61v306h-67v64h149c0 -142 -1 -284 -1 -426h68l4 -49c-30 -13 -65 -18 -86 -18c-42 0 -62 13 -66 62c-60 -55 -113 -63 -145 -65z" />
    <glyph glyph-name="phi" unicode="&#x3c6;" horiz-adv-x="662" 
d="M39 242c0 114 50 212 167 249l23 -51c-77 -31 -109 -107 -109 -198c0 -108 32 -184 172 -189v443h97c157 0 234 -105 234 -248c0 -141 -68 -248 -255 -255v-200h-77v200c-206 7 -252 120 -252 249zM542 248c0 105 -36 185 -174 185l1 -380c130 3 173 85 173 195z" />
    <glyph glyph-name="chi" unicode="&#x3c7;" horiz-adv-x="490" 
d="M280 424l1 64h184v-64h-56l-116 -167l122 -195h68v-62h-198v62h37l-84 143l-89 -143h44v-62h-186v62h50l135 196l-100 166h-74v64h123l104 -181l75 117h-40z" />
    <glyph glyph-name="psi" unicode="&#x3c8;" horiz-adv-x="715" 
d="M398 -5v-141h79v-62h-234v62h74v141c-151 1 -240 84 -240 192v237h-62v63h143v-300c0 -64 54 -128 159 -130v446h-59v66h140v-512c111 3 159 63 159 138v292h143v-63h-62v-237c0 -108 -92 -191 -240 -192z" />
    <glyph glyph-name="sigma" unicode="&#x3c3;" horiz-adv-x="515" 
d="M410 424l-3 -4c46 -41 61 -113 61 -183c0 -137 -74 -242 -214 -242c-156 0 -216 95 -216 242c0 132 60 251 219 251h240v-64h-87zM256 426c-107 0 -135 -93 -135 -191c0 -117 39 -179 135 -179c88 0 129 79 129 181c0 88 -18 189 -129 189z" />
    <glyph glyph-name="tau" unicode="&#x3c4;" horiz-adv-x="396" 
d="M7 488h340v-64h-145v-284c0 -48 14 -80 70 -80c24 0 55 5 92 16l13 -54c-36 -17 -83 -27 -123 -27c-88 0 -132 40 -132 120v309h-115v64z" />
    <glyph glyph-name="iota" unicode="&#x3b9;" horiz-adv-x="280" 
d="M88 424h-57v64h137v-426h73v-49c-25 -12 -62 -19 -85 -19c-46 0 -67 16 -68 70v360z" />
    <glyph glyph-name="Alpha" unicode="&#x391;" horiz-adv-x="668" 
d="M437 63h69l-40 126h-267c-10 -31 -27 -85 -39 -126h71v-63h-211v63h57c64 193 145 434 206 622h106c65 -201 139 -422 204 -622h56v-63h-212v63zM446 253c-29 97 -61 194 -91 291c-6 22 -13 44 -20 67h-2c-1 -5 -4 -17 -21 -68c-21 -65 -65 -201 -91 -290h225z" />
    <glyph glyph-name="Beta" unicode="&#x392;" horiz-adv-x="619" 
d="M109 620h-65v64h300c142 0 213 -68 213 -175c0 -42 -13 -114 -95 -151c87 -26 116 -100 116 -170c0 -114 -90 -188 -195 -188h-343v63h69v557zM492 193c0 68 -45 130 -138 130h-160v-260h160c100 0 138 61 138 130zM472 502c0 69 -40 118 -135 118h-143v-233h143
c87 0 135 46 135 115z" />
    <glyph glyph-name="Gamma" unicode="&#x393;" horiz-adv-x="547" 
d="M289 0h-248v61h67v562h-64v61h485v-155h-66v94h-270v-562h96v-61z" />
    <glyph glyph-name="Epsilon" unicode="&#x395;" horiz-adv-x="575" 
d="M547 0h-506v64h67v556h-64v64h487v-162h-65v98h-273v-232l260 5v-67l-260 4v-266h287v100h67v-164z" />
    <glyph glyph-name="Zeta" unicode="&#x396;" horiz-adv-x="532" 
d="M493 621l-373 -557h327v112h66v-176h-491v63l372 557h-282v-100h-66v165h447v-64z" />
    <glyph glyph-name="Eta" unicode="&#x397;" horiz-adv-x="703" 
d="M662 0h-213v63h62v265h-321v-265h63v-63h-213v63h65v557h-65v64h213v-64h-63v-230h321v230h-62v64h213v-64h-65v-557h65v-63z" />
    <glyph glyph-name="Theta" unicode="&#x398;" horiz-adv-x="678" 
d="M198 326v60l279 5v-69zM628 340c0 -198 -96 -348 -284 -348c-212 0 -294 135 -294 345c0 190 77 358 294 358c220 0 284 -169 284 -355zM539 337c0 135 -30 294 -195 294c-166 0 -206 -146 -206 -295c0 -182 60 -279 206 -279c134 0 195 125 195 280z" />
    <glyph glyph-name="Iota" unicode="&#x399;" horiz-adv-x="353" 
d="M283 0h-213v63h63v557h-63v65h213v-65h-65v-557h65v-63z" />
    <glyph glyph-name="Kappa" unicode="&#x39a;" horiz-adv-x="645" 
d="M551 622l-217 -207l236 -352h59v-63h-221l-1 63h66l-200 298l-84 -81v-218h64v-62h-212v62h64v561h-64v61h211v-61h-63v-261l269 260h-66v62h215v-62h-56z" />
    <glyph glyph-name="Lambda" unicode="&#x39b;" horiz-adv-x="666" 
d="M306 527l-147 -466h71v-61h-212v61h57c65 201 140 423 206 624h107c68 -208 136 -416 205 -624h55v-61h-212v61h69c-48 163 -102 310 -149 476l-22 74h-2z" />
    <glyph glyph-name="Mu" unicode="&#x39c;" horiz-adv-x="870" 
d="M433 164h5c17 39 34 83 51 121l175 399h172v-64h-62v-557h62v-63h-211v63h62v490h-2l-44 -103c-23 -53 -46 -106 -70 -159c-32 -71 -63 -142 -94 -214h-87c-58 128 -114 251 -170 380c-14 32 -29 64 -42 96h-3l-1 -490h65v-63h-210v63h64v557h-64v64h176
c41 -89 109 -245 167 -377c23 -52 44 -104 61 -143z" />
    <glyph glyph-name="Nu" unicode="&#x39d;" horiz-adv-x="736" 
d="M544 140h5v480h-70v64h216v-64h-66v-620h-81c-97 151 -195 297 -292 450l-66 105c-1 0 -2 -1 -3 -1v-491h69l1 -63h-217l-1 63h68l1 557h-68v64h158c182 -286 226 -353 270 -423c26 -40 51 -80 76 -121z" />
    <glyph glyph-name="Xi" unicode="&#x39e;" horiz-adv-x="556" 
d="M449 610h-345v-96h-64v170h473v-170h-64v96zM91 75h372v97h67v-172h-506v172h67v-97zM424 319l-294 3v62l294 5v-70z" />
    <glyph glyph-name="Omicron" unicode="&#x39f;" horiz-adv-x="678" 
d="M628 340c0 -198 -96 -348 -284 -348c-212 0 -294 135 -294 345c0 190 77 358 294 358c220 0 284 -169 284 -355zM540 337c0 135 -31 290 -196 290c-166 0 -206 -142 -206 -291c0 -182 60 -276 206 -276c134 0 196 122 196 277z" />
    <glyph glyph-name="Pi" unicode="&#x3a0;" horiz-adv-x="703" 
d="M663 0h-214v62h62v559h-320v-559h63v-62h-213v62h64v559h-64v64h622v-64h-65v-559h65v-62z" />
    <glyph glyph-name="Rho" unicode="&#x3a1;" horiz-adv-x="571" 
d="M542 486c0 -83 -46 -205 -203 -205h-149v-218h86v-63h-235v63h64v557h-64v65h288c125 0 213 -68 213 -199zM320 620h-130v-275h133c65 0 132 31 132 138c0 94 -52 137 -135 137z" />
    <glyph glyph-name="Delta" unicode="&#x394;" horiz-adv-x="663" 
d="M617 55v-55h-573v46c71 216 158 426 235 639h104zM530 62c-52 137 -94 277 -149 413l-50 144h-2c-18 -48 -34 -96 -51 -145c-47 -138 -104 -275 -152 -412h404z" />
    <glyph glyph-name="Delta" unicode="&#x2206;" horiz-adv-x="663" 
d="M617 55v-55h-573v46c71 216 158 426 235 639h104zM530 62c-52 137 -94 277 -149 413l-50 144h-2c-18 -48 -34 -96 -51 -145c-47 -138 -104 -275 -152 -412h404z" />
    <glyph glyph-name="Sigma" unicode="&#x3a3;" horiz-adv-x="547" 
d="M307 371v-21c-60 -97 -118 -192 -178 -288h323v109h67v-171h-490v57l186 303c-61 89 -123 178 -185 267v57h478v-164h-65v103h-312z" />
    <glyph glyph-name="dagger" unicode="&#x2020;" horiz-adv-x="469" 
d="M430 419h-160v-479h-71v479h-159v65h159v201h71v-201h160v-65z" />
    <glyph glyph-name="ellipsis" unicode="&#x2026;" horiz-adv-x="638" 
d="M592 45c0 -30 -24 -55 -52 -55c-30 0 -54 25 -54 55c0 28 24 52 53 52c30 0 53 -24 53 -52zM366 45c0 -30 -24 -55 -52 -55c-30 0 -54 25 -54 55c0 28 23 52 53 52s53 -24 53 -52zM153 45c0 -30 -25 -55 -52 -55c-30 0 -55 25 -55 55c0 28 24 52 54 52
c29 0 53 -24 53 -52z" />
    <glyph glyph-name="registered" unicode="&#xae;" horiz-adv-x="581" 
d="M528 471c0 -132 -108 -239 -242 -239c-135 0 -243 107 -243 239c0 133 107 240 243 240c134 0 242 -107 242 -240zM492 471c0 113 -90 206 -206 206c-115 0 -207 -93 -207 -206c0 -112 91 -205 207 -205c118 0 206 93 206 205zM295 454h-51v-93h33v-33h-103v33h26v226
h-26v33h126c56 0 92 -27 92 -82c0 -25 -16 -62 -54 -78l48 -99l31 -4v-27c-11 -3 -28 -5 -39 -5c-17 0 -28 12 -33 24zM348 537c0 37 -24 51 -51 51h-53v-102h52c27 0 52 10 52 51z" />
    <glyph glyph-name="trademark" unicode="&#x2122;" horiz-adv-x="758" 
d="M640 593h-2c-29 -59 -60 -119 -89 -181h-43l-30 63l-57 113h-1v-192h36v-39h-124v39h36v247h-36v41h98l43 -93l57 -122h1l58 122c15 31 30 62 44 93h97v-41h-35v-247h35v-39h-122v39h34v197zM264 592v52h-69v-248h43v-38h-141v38h42v248h-66v-52h-40v92h271v-92h-40z" />
    <glyph glyph-name="copyright" unicode="&#xa9;" horiz-adv-x="835" 
d="M785 333c0 -201 -167 -364 -368 -364c-202 0 -367 163 -367 364c0 200 165 363 367 363c201 0 368 -163 368 -363zM741 333c0 177 -144 320 -324 320c-177 0 -324 -143 -324 -320s147 -320 324 -320c180 0 324 143 324 320zM276 325c0 -112 33 -197 159 -197
c27 0 81 5 117 16l11 -45c-33 -13 -93 -23 -139 -23c-156 0 -212 101 -212 249c0 105 43 257 218 257c55 0 96 -10 124 -20v-115h-49v74c-26 6 -47 9 -73 9c-107 0 -156 -80 -156 -205z" />
    <glyph glyph-name="sigma1" unicode="&#x3c2;" horiz-adv-x="442" 
d="M262 499c64 0 113 -13 151 -27v-126h-60v78c-20 7 -46 12 -84 12c-102 0 -147 -81 -147 -185c0 -91 28 -132 155 -190c87 -39 114 -64 114 -99c0 -22 -30 -75 -82 -130l-45 34c9 13 15 21 23 34c11 17 21 35 21 49c0 17 -19 31 -75 55c-163 69 -195 130 -195 246
c0 146 78 249 224 249z" />
    <glyph glyph-name="yen" unicode="&#xa5;" horiz-adv-x="558" 
d="M483 288h-413v40h137c-46 92 -93 181 -139 272h-53v64h198v-64h-62c41 -87 83 -171 125 -258h4l126 258h-63v64h193v-64h-50c-47 -91 -95 -180 -142 -272h139v-40zM70 240h413v-43h-168v-134h81v-63h-242v63h80v134h-164v43z" />
    <glyph glyph-name="section" unicode="&#xa7;" horiz-adv-x="472" 
d="M415 278c0 -47 -19 -87 -69 -133c61 -38 75 -85 75 -121c0 -109 -90 -159 -200 -159c-66 0 -113 15 -152 27v123h62v-76c30 -8 61 -14 92 -14c66 0 122 34 122 91c0 54 -50 82 -115 110c-83 35 -173 69 -173 161c0 49 23 96 74 132c-44 30 -63 60 -63 104
c0 101 81 153 186 153c69 0 112 -13 148 -25v-126h-63v78c-25 7 -48 13 -86 13c-55 0 -111 -25 -111 -87c0 -53 72 -80 134 -107c70 -30 139 -65 139 -144zM345 262c0 75 -92 94 -163 131c-33 -27 -52 -55 -52 -89c0 -81 89 -91 167 -132c30 30 48 67 48 90z" />
    <glyph glyph-name="guillemotright" unicode="&#xbb;" horiz-adv-x="433" 
d="M379 208v-39l-147 -158l-33 25l100 152l-100 153l34 26zM231 208v-39l-147 -158l-33 25l101 152l-101 153l34 26z" />
    <glyph glyph-name="degree" unicode="&#xb0;" horiz-adv-x="347" 
d="M312 538c0 -75 -58 -133 -133 -133c-83 0 -135 57 -135 133c0 72 61 135 135 135c75 0 133 -49 133 -135zM263 535c0 49 -31 92 -86 92c-48 0 -85 -43 -85 -92c0 -47 37 -85 85 -85c47 0 86 38 86 85z" />
    <glyph glyph-name="germandbls" unicode="&#xdf;" horiz-adv-x="586" 
d="M470 115c0 68 -52 98 -93 136c-49 45 -103 93 -103 149c0 76 105 117 105 180c0 17 -6 78 -98 78c-73 0 -104 -53 -104 -116v-542h-156v60h75v324h-71v54h71v75c0 41 -4 208 189 208c136 0 173 -79 173 -128c0 -99 -104 -133 -104 -189c0 -35 32 -68 77 -102
c62 -46 121 -88 121 -184c-4 -67 -50 -131 -167 -131c-49 0 -106 10 -142 25v117h56v-68c39 -12 69 -15 87 -15c53 0 84 30 84 69z" />
    <glyph glyph-name="guillemotleft" unicode="&#xab;" horiz-adv-x="433" 
d="M60 169v39l146 159l34 -26l-101 -153l101 -152l-33 -25zM207 169v39l147 159l34 -26l-101 -153l101 -152l-33 -25z" />
    <glyph glyph-name="divide" unicode="&#xf7;" horiz-adv-x="558" 
d="M330 457c0 -28 -23 -51 -49 -51c-28 0 -51 24 -51 51c0 28 22 50 50 50s50 -22 50 -50zM474 270h-389v58h389v-58zM330 140c0 -28 -23 -51 -49 -51c-28 0 -51 24 -51 51c0 28 22 49 50 49s50 -21 50 -49z" />
    <glyph glyph-name="circumflex" unicode="&#x2c6;" horiz-adv-x="503" 
d="M430 561l-25 -29l-155 99l-154 -100l-23 28l150 143h55z" />
    <glyph glyph-name="perthousand" unicode="&#x2030;" horiz-adv-x="1195" 
d="M345 463c0 -96 -37 -201 -161 -201c-137 0 -164 100 -164 200c0 91 28 207 166 207c141 0 159 -121 159 -206zM277 462c0 57 -5 154 -91 154c-88 0 -98 -92 -98 -155c0 -82 15 -148 98 -148c76 0 91 79 91 149zM584 701l-292 -723h-56l294 723h54zM801 198
c0 -96 -37 -201 -161 -201c-137 0 -164 100 -164 200c0 91 28 207 166 207c141 0 159 -121 159 -206zM733 197c0 57 -5 154 -91 154c-88 0 -98 -92 -98 -155c0 -82 15 -148 98 -148c76 0 91 79 91 149zM1175 198c0 -96 -37 -201 -161 -201c-137 0 -164 100 -164 200
c0 91 28 207 166 207c141 0 159 -121 159 -206zM1107 197c0 57 -5 154 -91 154c-88 0 -98 -92 -98 -155c0 -82 15 -148 98 -148c76 0 91 79 91 149z" />
    <glyph glyph-name="dieresis" unicode="&#xa8;" horiz-adv-x="470" 
d="M379 603c0 -25 -21 -44 -49 -44c-25 0 -43 19 -43 44s20 44 43 44c28 0 49 -18 49 -44zM191 603c0 -25 -19 -44 -46 -44c-26 0 -46 19 -46 44s22 44 45 44c28 0 47 -18 47 -44z" />
    <glyph glyph-name="florin" unicode="&#x192;" horiz-adv-x="558" 
d="M160 340v56h97c3 25 8 63 12 88c14 101 48 191 163 191c31 0 62 -5 92 -15l-15 -55c-31 7 -44 8 -66 8c-67 0 -87 -46 -99 -128l-11 -89h102v-56h-108c-8 -49 -28 -229 -35 -269c-18 -115 -60 -192 -166 -192c-28 0 -61 5 -90 18l18 54c27 -8 41 -9 58 -9
c65 0 87 41 104 131c13 66 25 203 34 267h-90z" />
    <glyph glyph-name="daggerdbl" unicode="&#x2021;" horiz-adv-x="469" 
d="M40 193h159v226h-159v65h159v201h71v-201h160v-65h-160v-226h160v-66h-160v-187h-71v187h-159v66z" />
    <glyph glyph-name="logicalnot" unicode="&#xac;" horiz-adv-x="558" 
d="M476 328v-226h-61v168h-326v58h387z" />
    <glyph glyph-name="multiply" unicode="&#xd7;" horiz-adv-x="558" 
d="M410 119l-127 128l-131 -131l-43 44l131 130l-129 129l42 41l128 -129l126 127l43 -43l-126 -127l128 -127z" />
    <glyph glyph-name="plusminus" unicode="&#xb1;" horiz-adv-x="558" 
d="M475 268h-162v-162h-61v162h-163v59h163v157h61v-157h162v-59zM89 53h386v-53h-386v53z" />
    <glyph glyph-name="brokenbar" unicode="&#xa6;" horiz-adv-x="243" 
d="M147 358h-58v342h58v-342zM89 228h58v-367h-58v367z" />
    <glyph glyph-name="guilsinglright" unicode="&#x203a;" horiz-adv-x="315" 
d="M242 208v-39l-147 -158l-33 25l100 152l-100 153l34 26z" />
    <glyph glyph-name="guilsinglleft" unicode="&#x2039;" horiz-adv-x="315" 
d="M62 169v39l146 159l34 -26l-101 -153l101 -152l-33 -25z" />
    <glyph glyph-name="currency" unicode="&#xa4;" horiz-adv-x="558" 
d="M144 306c0 -74 60 -133 134 -133c72 0 133 59 133 133c0 73 -60 133 -133 133c-74 0 -134 -60 -134 -133zM126 420l-63 64l37 38l64 -64c32 25 72 39 115 39c42 0 80 -14 114 -39l63 64l39 -39l-65 -62c27 -36 38 -73 38 -114c0 -42 -14 -81 -38 -115l65 -60l-39 -40
l-64 63c-36 -29 -75 -38 -113 -38c-40 0 -77 9 -114 38l-65 -64l-38 40l64 61c-30 38 -39 79 -39 113c0 40 11 82 39 115z" />
    <glyph glyph-name="exclamdown" unicode="&#xa1;" horiz-adv-x="225" 
d="M87 315h54c3 -108 6 -216 8 -323c1 -25 4 -178 4 -202h-81c3 86 4 172 6 258c3 89 5 178 9 267zM165 443c0 -28 -22 -51 -53 -51c-30 0 -53 23 -53 51c0 29 23 53 54 53c28 0 52 -24 52 -53z" />
    <glyph glyph-name="questiondown" unicode="&#xbf;" horiz-adv-x="441" 
d="M199 33c-44 -34 -70 -62 -70 -106c0 -56 45 -79 108 -79c34 0 73 5 112 17v91h66v-142c-64 -23 -133 -33 -183 -33c-126 0 -189 54 -189 141c1 61 39 109 86 147c87 70 128 112 128 169c0 22 -4 43 -8 73c22 2 43 5 66 8c8 -39 12 -69 12 -90c0 -75 -49 -123 -128 -196z
M212 443c0 30 24 53 52 53c30 0 54 -24 54 -53c0 -27 -24 -51 -53 -51s-53 23 -53 51z" />
    <glyph glyph-name="sfthyphen" unicode="&#xad;" horiz-adv-x="366" 
d="M312 230h-258v68h258v-68z" />
    <glyph glyph-name="periodcentered" unicode="&#xb7;" horiz-adv-x="205" 
d="M158 286c0 -30 -25 -54 -53 -54c-29 0 -54 25 -54 54c0 30 24 53 54 53c29 0 53 -23 53 -53z" />
    <glyph glyph-name="cedilla" unicode="&#xb8;" horiz-adv-x="447" 
d="M288 17c-20 -25 -42 -53 -62 -80c65 -3 109 -28 109 -79c0 -56 -56 -102 -179 -102v36c71 7 118 25 118 59c0 36 -53 41 -101 41l-13 19c33 42 64 84 97 125c10 -7 21 -12 31 -19z" />
    <glyph glyph-name="acute" unicode="&#xb4;" horiz-adv-x="492" 
d="M375 674l-145 -139l-35 29l123 162z" />
    <glyph glyph-name="primemod" unicode="&#x2b9;" horiz-adv-x="234" 
d="M249 653l-168 -262l-38 22l142 277z" />
    <glyph glyph-name="caron" unicode="&#x2c7;" horiz-adv-x="503" 
d="M406 715l24 -29l-152 -141h-54l-151 143l23 28l155 -100z" />
    <glyph glyph-name="breve" unicode="&#x2d8;" horiz-adv-x="524" 
d="M255 551c-70 0 -121 56 -162 112l47 34c36 -50 80 -83 118 -83c25 0 69 4 143 76l27 -25c-58 -84 -120 -114 -173 -114z" />
    <glyph glyph-name="dotaccent" unicode="&#x2d9;" horiz-adv-x="504" 
d="M311 619c0 -31 -26 -56 -57 -56s-55 25 -55 56s24 57 55 57s57 -26 57 -57z" />
    <glyph glyph-name="ring" unicode="&#x2da;" horiz-adv-x="504" 
d="M253 551c-61 0 -109 47 -109 105c0 56 48 105 109 105c60 0 106 -48 106 -105c0 -59 -47 -105 -106 -105zM253 714c-34 0 -60 -28 -60 -61c0 -30 25 -58 60 -58c32 0 57 28 57 58c0 32 -25 61 -57 61z" />
    <glyph glyph-name="ogonek" unicode="&#x2db;" horiz-adv-x="526" 
d="M405 29l16 -15c-34 -37 -59 -91 -59 -125c0 -39 23 -51 59 -51c26 0 54 7 72 11l6 -32c-32 -16 -71 -26 -108 -26c-62 0 -96 27 -96 72c0 40 19 106 110 166z" />
    <glyph glyph-name="hungarumlaut" unicode="&#x2dd;" horiz-adv-x="504" 
d="M310 680l-141 -146l-36 28l117 167zM437 680l-141 -146l-36 28l117 167z" />
    <glyph glyph-name="tonos" unicode="&#x384;" horiz-adv-x="492" 
d="M373 682l-138 -148l-38 26l113 168z" />
    <glyph glyph-name="dieresistonos" unicode="&#x385;" horiz-adv-x="488" 
d="M398 604c0 -25 -23 -43 -48 -43s-43 18 -43 43s22 45 45 45c25 0 46 -18 46 -45zM173 604c0 -25 -20 -43 -46 -43s-46 18 -46 43s21 45 44 45c28 0 48 -18 48 -45zM330 706l-107 -171l-41 18l78 187z" />
    <glyph glyph-name="anoteleia" unicode="&#x387;" horiz-adv-x="205" 
d="M159 358c0 -32 -26 -57 -55 -57c-32 0 -57 25 -57 57c0 30 25 55 55 55c32 0 57 -25 57 -55z" />
    <glyph glyph-name="Alphatonos" unicode="&#x386;" horiz-adv-x="668" 
d="M437 63h69l-40 126h-267c-10 -31 -27 -85 -39 -126h71v-63h-211v63h57c64 193 145 434 206 622h106c65 -201 139 -422 204 -622h56v-63h-212v63zM446 253c-29 97 -61 194 -91 291c-6 22 -13 44 -20 67h-2c-1 -5 -4 -17 -21 -68c-21 -65 -65 -201 -91 -290h225zM175 675
l-138 -148l-38 26l113 168z" />
    <glyph glyph-name="Epsilontonos" unicode="&#x388;" horiz-adv-x="575" 
d="M547 0h-506v64h67v556h-64v64h487v-162h-65v98h-273v-232l260 5v-67l-260 4v-266h287v100h67v-164zM-4 676l-138 -148l-38 26l113 168z" />
    <glyph glyph-name="Etatonos" unicode="&#x389;" horiz-adv-x="703" 
d="M662 0h-213v63h62v265h-321v-265h63v-63h-213v63h65v557h-65v64h213v-64h-63v-230h321v230h-62v64h213v-64h-65v-557h65v-63zM-7 675l-138 -148l-38 26l113 168z" />
    <glyph glyph-name="Iotatonos" unicode="&#x38a;" horiz-adv-x="353" 
d="M283 0h-213v63h63v557h-63v65h213v-65h-65v-557h65v-63zM23 675l-138 -148l-38 26l113 168z" />
    <glyph glyph-name="Omicrontonos" unicode="&#x38c;" horiz-adv-x="678" 
d="M628 340c0 -198 -96 -348 -284 -348c-212 0 -294 135 -294 345c0 190 77 358 294 358c220 0 284 -169 284 -355zM540 337c0 135 -31 290 -196 290c-166 0 -206 -142 -206 -291c0 -182 60 -276 206 -276c134 0 196 122 196 277zM56 676l-138 -148l-38 26l113 168z" />
    <glyph glyph-name="Upsilontonos" unicode="&#x38e;" horiz-adv-x="587" 
d="M376 619v66h201v-66h-57l-186 -321v-235h81v-63h-247v63h81v232l-181 324h-57v66h204v-66h-59l136 -256h4l140 256h-60zM-25 676l-138 -148l-38 26l113 168z" />
    <glyph glyph-name="Omegatonos" unicode="&#x38f;" horiz-adv-x="695" 
d="M537 64l2 -2h117v-62h-246v66c110 28 139 146 139 286c0 138 -35 278 -197 278c-152 0 -205 -122 -205 -276c0 -151 29 -263 134 -287v-67h-243v62h110l1 2c-78 55 -89 172 -89 291c0 182 81 341 291 341c217 0 287 -162 287 -340c0 -119 -26 -234 -101 -292zM71 676
l-138 -148l-38 26l113 168z" />
    <glyph glyph-name="Tau" unicode="&#x3a4;" horiz-adv-x="554" 
d="M403 0h-249v63h82v557h-157v-106h-65v171h527v-171h-65v106h-156v-557h83v-63z" />
    <glyph glyph-name="Upsilon" unicode="&#x3a5;" horiz-adv-x="587" 
d="M376 619v66h201v-66h-57l-186 -321v-235h81v-63h-247v63h81v232l-181 324h-57v66h204v-66h-59l136 -256h4l140 256h-60z" />
    <glyph glyph-name="Chi" unicode="&#x3a7;" horiz-adv-x="637" 
d="M390 619v66h215v-66h-65l-172 -264l181 -291h66l1 -64h-229v64h68l-142 232l-145 -232h71v-64h-220l-1 64h64l185 289l-162 266h-69l1 66h221v-66h-61l126 -209l131 209h-64z" />
    <glyph glyph-name="iotadieresistonos" unicode="&#x390;" horiz-adv-x="280" 
d="M88 424h-57v64h137v-426h73v-49c-25 -12 -62 -19 -85 -19c-46 0 -67 16 -68 70v360zM276 604c0 -25 -23 -43 -48 -43s-43 18 -43 43s22 45 45 45c25 0 46 -18 46 -45zM51 604c0 -25 -20 -43 -46 -43s-46 18 -46 43s21 45 44 45c28 0 48 -18 48 -45zM208 706l-107 -171
l-41 18l78 187z" />
    <glyph glyph-name="Dieresis" unicode="&#xf6cb;" horiz-adv-x="668" 
d="M476 771c0 -26 -21 -44 -49 -44c-24 0 -42 18 -42 44c0 24 19 44 42 44c28 0 49 -18 49 -44zM289 771c0 -26 -20 -44 -46 -44c-27 0 -46 18 -46 44c0 24 21 44 44 44c28 0 48 -18 48 -44z" />
    <glyph glyph-name="Iotadieresis" unicode="&#x3aa;" horiz-adv-x="353" 
d="M283 0h-213v63h63v557h-63v65h213v-65h-65v-557h65v-63zM313 771c0 -26 -21 -44 -49 -44c-24 0 -42 18 -42 44c0 24 19 44 42 44c28 0 49 -18 49 -44zM126 771c0 -26 -20 -44 -46 -44c-27 0 -46 18 -46 44c0 24 21 44 44 44c28 0 48 -18 48 -44z" />
    <glyph glyph-name="Upsilondieresis" unicode="&#x3ab;" horiz-adv-x="587" 
d="M376 619v66h201v-66h-57l-186 -321v-235h81v-63h-247v63h81v232l-181 324h-57v66h204v-66h-59l136 -256h4l140 256h-60zM438 771c0 -26 -21 -44 -49 -44c-24 0 -42 18 -42 44c0 24 19 44 42 44c28 0 49 -18 49 -44zM251 771c0 -26 -20 -44 -46 -44c-27 0 -46 18 -46 44
c0 24 21 44 44 44c28 0 48 -18 48 -44z" />
    <glyph glyph-name="tilde" unicode="&#x2dc;" horiz-adv-x="503" 
d="M325 572c-60 0 -108 39 -145 39l-57 -39l-28 22c16 45 48 75 87 75c47 0 108 -39 144 -39l57 40l28 -22c-15 -45 -47 -76 -86 -76z" />
    <glyph glyph-name="macron" unicode="&#xaf;" horiz-adv-x="503" 
d="M84 592v64h329v-64h-329z" />
    <glyph glyph-name="iotadieresis" unicode="&#x3ca;" horiz-adv-x="280" 
d="M88 424h-57v64h137v-426h73v-49c-25 -12 -62 -19 -85 -19c-46 0 -67 16 -68 70v360zM238 603c0 -25 -21 -44 -49 -44c-25 0 -43 19 -43 44s20 44 43 44c28 0 49 -18 49 -44zM50 603c0 -25 -19 -44 -46 -44c-26 0 -46 19 -46 44s22 44 45 44c28 0 47 -18 47 -44z" />
    <glyph glyph-name="upsilondieresis" unicode="&#x3cb;" horiz-adv-x="545" 
d="M393 488h83v-297c0 -114 -74 -197 -200 -197c-131 0 -195 75 -195 184v246h-64v64h146v-310c0 -70 28 -119 112 -119c80 0 118 55 118 128v301zM406 603c0 -25 -21 -44 -49 -44c-25 0 -43 19 -43 44s20 44 43 44c28 0 49 -18 49 -44zM218 603c0 -25 -19 -44 -46 -44
c-26 0 -46 19 -46 44s22 44 45 44c28 0 47 -18 47 -44z" />
    <glyph glyph-name="etatonos" unicode="&#x3ae;" horiz-adv-x="585" 
d="M174 0h-81v424h-73v64h154v-44c56 35 122 55 171 55c129 0 142 -81 142 -147l1 -290h75v-49c-25 -12 -65 -18 -88 -18c-52 0 -68 25 -68 74v253c0 68 -8 104 -85 104c-46 0 -107 -25 -148 -49v-377zM377 682l-138 -148l-38 26l113 168z" />
    <glyph glyph-name="iotatonos" unicode="&#x3af;" horiz-adv-x="280" 
d="M88 424h-57v64h137v-426h73v-49c-25 -12 -62 -19 -85 -19c-46 0 -67 16 -68 70v360zM236 682l-138 -148l-38 26l113 168z" />
    <glyph glyph-name="upsilondieresistonos" unicode="&#x3b0;" horiz-adv-x="545" 
d="M393 488h83v-297c0 -114 -74 -197 -200 -197c-131 0 -195 75 -195 184v246h-64v64h146v-310c0 -70 28 -119 112 -119c80 0 118 55 118 128v301zM426 604c0 -25 -23 -43 -48 -43s-43 18 -43 43s22 45 45 45c25 0 46 -18 46 -45zM201 604c0 -25 -20 -43 -46 -43
s-46 18 -46 43s21 45 44 45c28 0 48 -18 48 -45zM358 706l-107 -171l-41 18l78 187z" />
    <glyph glyph-name="omegatonos" unicode="&#x3ce;" horiz-adv-x="730" 
d="M331 336h75l1 -178c1 -51 27 -100 86 -100c83 0 117 69 117 181c0 84 -21 166 -100 203l18 54c120 -29 163 -141 163 -256c0 -130 -54 -247 -193 -247c-63 0 -112 30 -130 77h-3c-25 -48 -75 -77 -135 -77c-155 0 -191 117 -191 247c0 112 42 227 163 256l17 -54
c-78 -37 -99 -119 -99 -203c0 -88 17 -181 116 -181c67 0 95 49 95 100v178zM489 682l-138 -148l-38 26l113 168z" />
    <glyph glyph-name="epsilontonos" unicode="&#x3ad;" horiz-adv-x="429" 
d="M223 500c60 0 125 -11 161 -27l1 -122h-59v79c-32 9 -64 11 -94 11c-79 0 -109 -37 -109 -79c0 -64 62 -71 110 -70h59v-56l-60 -1c-46 -1 -118 -17 -118 -89c0 -66 56 -93 129 -93c52 0 96 13 149 35l19 -50c-40 -22 -108 -45 -178 -45c-107 0 -203 37 -203 144
c0 62 41 107 92 123l1 3c-43 12 -84 44 -84 96c0 89 80 141 184 141zM339 682l-138 -148l-38 26l113 168z" />
    <glyph glyph-name="OE" unicode="&#x152;" horiz-adv-x="810" 
d="M342 695c34 0 65 -4 92 -12h330v-154h-65v92h-247v-233c78 1 158 3 237 5v-67c-79 1 -159 3 -237 3v-266h261v94h67v-157h-367c-22 -4 -46 -7 -71 -7c-212 0 -294 133 -294 344c0 190 77 358 294 358zM342 56c8 0 16 0 24 1v572c-7 0 -16 1 -25 1
c-165 0 -205 -146 -205 -295c0 -182 60 -279 206 -279z" />
    <glyph glyph-name="paragraph" unicode="&#xb6;" horiz-adv-x="528" 
d="M244 325h-19c-104 0 -182 78 -182 181c0 102 77 187 182 187h273v-59h-67v-828h-59v828h-68l1 -828h-141v58h80v461z" />
    <glyph glyph-name="oe" unicode="&#x153;" horiz-adv-x="832" 
d="M764 92l20 -52c-58 -31 -115 -45 -180 -45c-94 0 -148 35 -177 90c-32 -54 -87 -93 -178 -93c-159 0 -210 117 -210 249c0 130 60 257 219 257c89 0 141 -41 171 -98c29 54 81 99 174 99c189 0 194 -172 194 -232v-38h-325c-1 -91 29 -172 138 -172c57 0 99 11 154 35z
M386 241c0 87 -20 194 -128 194s-134 -102 -134 -194c0 -97 20 -186 134 -186c107 0 128 98 128 186zM473 278h247c0 95 -28 159 -117 159c-93 0 -124 -76 -130 -159z" />
    <glyph glyph-name="ae" unicode="&#xe6;" horiz-adv-x="792" 
d="M565 499c189 0 193 -173 193 -233v-39h-324c-1 -91 29 -170 138 -170c57 0 99 11 154 34l19 -52c-57 -31 -115 -45 -179 -45c-90 0 -141 28 -173 75c-101 -77 -180 -77 -215 -77c-116 0 -145 85 -145 140c0 84 64 144 177 145l143 1v41c0 84 -35 111 -115 111
c-51 0 -104 -10 -152 -27l-18 55c55 25 126 39 187 39c68 0 126 -22 150 -78c31 46 80 80 160 80zM211 52c36 0 113 22 159 62c-12 33 -17 71 -18 113h-129c-68 0 -103 -34 -103 -86c0 -58 28 -89 91 -89zM565 436c-93 0 -123 -76 -129 -158h245c0 94 -27 158 -116 158z" />
    <glyph glyph-name="AE" unicode="&#xc6;" horiz-adv-x="954" 
d="M502 61v146h-258l-90 -146h73v-61h-224v61h61l351 561h-56v62h539v-155h-65v94h-246v-235l237 5v-67l-237 4v-269h260v96h67v-157h-479v61h67zM497 617l-216 -347h221v347h-5z" />
    <glyph glyph-name="space" unicode=" " horiz-adv-x="272" 
 />
    <glyph glyph-name="Circumflex" unicode="&#xf6c0;" horiz-adv-x="668" 
d="M514 759l-25 -29l-155 99l-154 -100l-23 28l150 138h55z" />
    <glyph glyph-name="commaaccent" unicode="&#xf6c3;" horiz-adv-x="668" 
d="M285 -90c0 27 23 50 53 50c33 0 56 -26 55 -60c-2 -50 -32 -95 -83 -121l-20 25c20 18 30 39 30 59c-22 6 -35 24 -35 47z" />
    <glyph glyph-name="Acute" unicode="&#xf6c9;" horiz-adv-x="668" 
d="M495 868l-145 -139l-35 30l123 161z" />
    <glyph glyph-name="Caron" unicode="&#xf6ca;" horiz-adv-x="668" 
d="M490 900l24 -29l-152 -135h-54l-151 137l23 27l155 -100z" />
    <glyph glyph-name="DieresisAcute" unicode="&#xf6cc;" horiz-adv-x="668" 
d="M512 795c0 -25 -23 -43 -48 -43s-43 18 -43 43s22 45 45 45c25 0 46 -18 46 -45zM287 795c0 -25 -20 -43 -46 -43s-46 18 -46 43s21 45 44 45c28 0 48 -18 48 -45zM461 884l-134 -151l-37 24l108 172z" />
    <glyph glyph-name="DieresisGrave" unicode="&#xf6cd;" horiz-adv-x="668" 
d="M482 795c0 -25 -23 -43 -48 -43s-43 18 -43 43s22 45 45 45c25 0 46 -18 46 -45zM257 795c0 -25 -20 -43 -46 -43s-46 18 -46 43s21 45 44 45c28 0 48 -18 48 -45zM355 733l-134 151l63 45l108 -172z" />
    <glyph glyph-name="Grave" unicode="&#xf6ce;" horiz-adv-x="668" 
d="M320 729l-144 139l56 52l123 -161z" />
    <glyph glyph-name="Hungarumlaut" unicode="&#xf6cf;" horiz-adv-x="668" 
d="M563 877l-141 -146l-36 28l117 166zM439 877l-140 -146l-37 28l117 166z" />
    <glyph glyph-name="Macron" unicode="&#xf6d0;" horiz-adv-x="668" 
d="M175 747v64h326v-64h-326z" />
    <glyph glyph-name="cyrBreve" unicode="&#xf6d1;" horiz-adv-x="668" 
d="M331 730c-70 0 -121 55 -162 112l47 33c36 -49 80 -83 119 -83c24 0 68 5 142 77l27 -25c-58 -84 -120 -114 -173 -114z" />
    <glyph glyph-name="cyrbreve" unicode="&#xf6d4;" horiz-adv-x="504" 
d="M255 538c-70 0 -121 55 -162 112l47 33c36 -49 80 -83 118 -83c25 0 69 5 143 76l27 -25c-58 -83 -120 -113 -173 -113z" />
    <glyph glyph-name="Scaron" unicode="&#x160;" horiz-adv-x="546" 
d="M35 178h64l1 -84c51 -26 104 -33 152 -33c111 0 168 53 168 126c0 87 -64 103 -157 129c-116 32 -218 67 -218 184c0 125 103 194 228 194c56 0 133 -8 189 -41l2 -134h-65l-2 87c-31 14 -86 19 -125 19c-77 0 -140 -35 -140 -114c0 -69 71 -97 156 -119
c106 -27 221 -60 221 -203c0 -140 -109 -197 -251 -197c-74 0 -156 13 -222 51zM440 900l24 -29l-152 -135h-54l-151 137l23 27l155 -100z" />
    <glyph glyph-name="Zcaron" unicode="&#x17d;" horiz-adv-x="532" 
d="M493 621l-373 -557h327v112h66v-176h-491v63l372 557h-282v-100h-66v165h447v-64zM438 900l24 -29l-152 -135h-54l-151 137l23 27l155 -100z" />
    <glyph glyph-name="scaron" unicode="&#x161;" horiz-adv-x="437" 
d="M29 145h63l3 -66c29 -15 72 -22 104 -22c66 0 119 18 119 74c0 53 -49 70 -105 86c-85 24 -174 46 -174 143c0 99 80 138 180 138c54 0 108 -11 148 -36l3 -114h-65l-2 69c-24 10 -53 15 -81 15c-56 0 -100 -19 -100 -71c0 -43 65 -61 103 -72c81 -24 175 -45 175 -158
c0 -96 -84 -139 -195 -139c-57 0 -127 9 -174 38zM375 715l24 -29l-152 -141h-54l-151 143l23 28l155 -100z" />
    <glyph glyph-name="Ydieresis" unicode="&#x178;" horiz-adv-x="587" 
d="M376 619v66h201v-66h-57l-186 -321v-235h81v-63h-247v63h81v232l-181 324h-57v66h204v-66h-59l136 -256h4l140 256h-60zM433 771c0 -26 -21 -44 -49 -44c-24 0 -42 18 -42 44c0 24 19 44 42 44c28 0 49 -18 49 -44zM246 771c0 -26 -20 -44 -46 -44c-27 0 -46 18 -46 44
c0 24 21 44 44 44c28 0 48 -18 48 -44z" />
    <glyph glyph-name="cent" unicode="&#xa2;" horiz-adv-x="558" 
d="M325 -85h-45v78c-148 9 -194 112 -194 245c0 98 34 245 194 260v92h45v-92c47 -2 90 -10 126 -25v-129h-62v77c-21 6 -45 9 -64 9v-371c43 2 82 12 126 30l20 -57c-37 -21 -91 -36 -146 -39v-78zM169 239c0 -101 31 -167 111 -178v364c-76 -17 -111 -84 -111 -186z" />
    <glyph glyph-name="ordfeminine" unicode="&#xaa;" horiz-adv-x="348" 
d="M292 486v-170h45l4 -39c-18 -8 -45 -13 -63 -13c-24 0 -43 8 -47 37c-47 -38 -86 -39 -106 -39c-82 0 -104 56 -104 95c0 97 119 98 209 101v19c0 51 -15 68 -67 68c-31 0 -68 -7 -104 -19c-4 14 -9 28 -14 42c40 17 89 27 132 27c72 0 115 -28 115 -109zM230 418
c-78 -3 -143 -1 -143 -56c0 -34 18 -53 58 -53c25 0 60 15 85 35v74z" />
    <glyph glyph-name="ordmasculine" unicode="&#xba;" horiz-adv-x="353" 
d="M327 428c0 -82 -36 -165 -155 -165c-111 0 -146 78 -146 165c0 85 41 168 153 168c114 0 148 -83 148 -168zM263 428c0 53 -13 121 -84 121s-88 -65 -88 -122c0 -60 12 -115 88 -115c70 0 84 61 84 116z" />
    <glyph glyph-name="onequarter" unicode="&#xbc;" horiz-adv-x="820" 
d="M749 110h-62v-60h46v-51h-154v51h43v60h-203v45c135 163 170 203 204 244h64v-238h62v-51zM86 265v52h91v283l-97 -14l-10 44l117 34h59v-347h86v-52h-246zM590 701l-292 -723h-56l294 723h54zM492 161h131v161c-45 -59 -92 -110 -131 -161z" />
    <glyph glyph-name="threequarters" unicode="&#xbe;" horiz-adv-x="820" 
d="M330 628l-125 -117c73 -5 134 -41 134 -116c0 -86 -77 -134 -160 -134c-54 0 -100 6 -141 25l17 49c59 -18 95 -18 119 -18c57 0 97 28 97 78c0 41 -36 68 -102 68c-18 0 -32 -2 -50 -4c-8 24 -11 31 -13 36c42 39 89 79 130 117h-123v-54h-57v106h263zM598 701
l-292 -723h-56l294 723h54zM781 110h-62v-60h46v-51h-154v51h43v60h-203v45c135 163 170 203 204 244h64v-238h62v-51zM524 161h131v161c-45 -59 -92 -110 -131 -161z" />
    <glyph glyph-name="Agrave" unicode="&#xc0;" horiz-adv-x="668" 
d="M437 63h69l-40 126h-267c-10 -31 -27 -85 -39 -126h71v-63h-211v63h57c64 193 145 434 206 622h106c65 -201 139 -422 204 -622h56v-63h-212v63zM446 253c-29 97 -61 194 -91 291c-6 22 -13 44 -20 67h-2c-1 -5 -4 -17 -21 -68c-21 -65 -65 -201 -91 -290h225zM321 729
l-144 139l56 52l123 -161z" />
    <glyph glyph-name="Aacute" unicode="&#xc1;" horiz-adv-x="668" 
d="M437 63h69l-40 126h-267c-10 -31 -27 -85 -39 -126h71v-63h-211v63h57c64 193 145 434 206 622h106c65 -201 139 -422 204 -622h56v-63h-212v63zM446 253c-29 97 -61 194 -91 291c-6 22 -13 44 -20 67h-2c-1 -5 -4 -17 -21 -68c-21 -65 -65 -201 -91 -290h225zM492 868
l-145 -139l-35 30l123 161z" />
    <glyph glyph-name="Acircumflex" unicode="&#xc2;" horiz-adv-x="668" 
d="M437 63h69l-40 126h-267c-10 -31 -27 -85 -39 -126h71v-63h-211v63h57c64 193 145 434 206 622h106c65 -201 139 -422 204 -622h56v-63h-212v63zM446 253c-29 97 -61 194 -91 291c-6 22 -13 44 -20 67h-2c-1 -5 -4 -17 -21 -68c-21 -65 -65 -201 -91 -290h225zM512 759
l-25 -29l-155 99l-154 -100l-23 28l150 138h55z" />
    <glyph glyph-name="Atilde" unicode="&#xc3;" horiz-adv-x="668" 
d="M437 63h69l-40 126h-267c-10 -31 -27 -85 -39 -126h71v-63h-211v63h57c64 193 145 434 206 622h106c65 -201 139 -422 204 -622h56v-63h-212v63zM446 253c-29 97 -61 194 -91 291c-6 22 -13 44 -20 67h-2c-1 -5 -4 -17 -21 -68c-21 -65 -65 -201 -91 -290h225zM404 762
c-60 0 -108 39 -145 39l-57 -39l-28 22c16 45 48 75 87 75c47 0 108 -39 144 -39l57 40l28 -22c-15 -45 -47 -76 -86 -76z" />
    <glyph glyph-name="Adieresis" unicode="&#xc4;" horiz-adv-x="668" 
d="M437 63h69l-40 126h-267c-10 -31 -27 -85 -39 -126h71v-63h-211v63h57c64 193 145 434 206 622h106c65 -201 139 -422 204 -622h56v-63h-212v63zM446 253c-29 97 -61 194 -91 291c-6 22 -13 44 -20 67h-2c-1 -5 -4 -17 -21 -68c-21 -65 -65 -201 -91 -290h225zM289 771
c0 -26 -20 -44 -46 -44c-27 0 -46 18 -46 44c0 24 21 44 44 44c28 0 48 -18 48 -44zM476 771c0 -26 -21 -44 -49 -44c-24 0 -42 18 -42 44c0 24 19 44 42 44c28 0 49 -18 49 -44z" />
    <glyph glyph-name="Aring" unicode="&#xc5;" horiz-adv-x="668" 
d="M437 63h69l-40 126h-267c-10 -31 -27 -85 -39 -126h71v-63h-211v63h57c64 193 145 434 206 622h106c65 -201 139 -422 204 -622h56v-63h-212v63zM446 253c-29 97 -61 194 -91 291c-6 22 -13 44 -20 67h-2c-1 -5 -4 -17 -21 -68c-21 -65 -65 -201 -91 -290h225zM329 743
c-61 0 -109 47 -109 105c0 56 48 105 109 105c60 0 106 -48 106 -105c0 -59 -47 -105 -106 -105zM329 906c-34 0 -60 -28 -60 -61c0 -30 25 -58 60 -58c32 0 57 28 57 58c0 32 -25 61 -57 61z" />
    <glyph glyph-name="Ccedilla" unicode="&#xc7;" horiz-adv-x="570" 
d="M460 508v106c-35 10 -75 13 -107 13c-150 0 -215 -115 -215 -289c0 -158 43 -275 222 -275c36 0 109 6 163 23l16 -62c-41 -16 -107 -28 -164 -31c-19 -23 -38 -48 -56 -73c65 -3 109 -28 109 -79c0 -56 -56 -102 -179 -102v36c71 7 118 25 118 59c0 36 -53 41 -101 41
l-13 19c26 33 50 66 76 99c-206 7 -279 145 -279 346c0 146 59 357 300 357c75 0 133 -13 174 -28v-160h-64z" />
    <glyph glyph-name="Egrave" unicode="&#xc8;" horiz-adv-x="575" 
d="M547 0h-506v64h67v556h-64v64h487v-162h-65v98h-273v-232l260 5v-67l-260 4v-266h287v100h67v-164zM321 729l-144 139l56 52l123 -161z" />
    <glyph glyph-name="Eacute" unicode="&#xc9;" horiz-adv-x="575" 
d="M547 0h-506v64h67v556h-64v64h487v-162h-65v98h-273v-232l260 5v-67l-260 4v-266h287v100h67v-164zM447 868l-145 -139l-35 30l123 161z" />
    <glyph glyph-name="Ecircumflex" unicode="&#xca;" horiz-adv-x="575" 
d="M547 0h-506v64h67v556h-64v64h487v-162h-65v98h-273v-232l260 5v-67l-260 4v-266h287v100h67v-164zM490 759l-25 -29l-155 99l-154 -100l-23 28l150 138h55z" />
    <glyph glyph-name="Edieresis" unicode="&#xcb;" horiz-adv-x="575" 
d="M547 0h-506v64h67v556h-64v64h487v-162h-65v98h-273v-232l260 5v-67l-260 4v-266h287v100h67v-164zM449 771c0 -26 -21 -44 -49 -44c-24 0 -42 18 -42 44c0 24 19 44 42 44c28 0 49 -18 49 -44zM262 771c0 -26 -20 -44 -46 -44c-27 0 -46 18 -46 44c0 24 21 44 44 44
c28 0 48 -18 48 -44z" />
    <glyph glyph-name="Igrave" unicode="&#xcc;" horiz-adv-x="353" 
d="M283 0h-213v63h63v557h-63v65h213v-65h-65v-557h65v-63zM177 729l-144 139l56 52l123 -161z" />
    <glyph glyph-name="Iacute" unicode="&#xcd;" horiz-adv-x="353" 
d="M283 0h-213v63h63v557h-63v65h213v-65h-65v-557h65v-63zM325 868l-145 -139l-35 30l123 161z" />
    <glyph glyph-name="Icircumflex" unicode="&#xce;" horiz-adv-x="353" 
d="M283 0h-213v63h63v557h-63v65h213v-65h-65v-557h65v-63zM356 759l-25 -29l-155 99l-154 -100l-23 28l150 138h55z" />
    <glyph glyph-name="Idieresis" unicode="&#xcf;" horiz-adv-x="353" 
d="M283 0h-213v63h63v557h-63v65h213v-65h-65v-557h65v-63zM315 771c0 -26 -21 -44 -49 -44c-24 0 -42 18 -42 44c0 24 19 44 42 44c28 0 49 -18 49 -44zM128 771c0 -26 -20 -44 -46 -44c-27 0 -46 18 -46 44c0 24 21 44 44 44c28 0 48 -18 48 -44z" />
    <glyph glyph-name="Ntilde" unicode="&#xd1;" horiz-adv-x="736" 
d="M544 140h5v480h-70v64h216v-64h-66v-620h-81c-97 151 -195 297 -292 450l-66 105c-1 0 -2 -1 -3 -1v-491h69l1 -63h-217l-1 63h68l1 557h-68v64h158c182 -286 226 -353 270 -423c26 -40 51 -80 76 -121zM451 765c-60 0 -108 39 -145 39l-57 -39l-28 22c16 45 48 75 87 75
c47 0 108 -39 144 -39l57 40l28 -22c-15 -45 -47 -76 -86 -76z" />
    <glyph glyph-name="Ograve" unicode="&#xd2;" horiz-adv-x="678" 
d="M628 340c0 -198 -96 -348 -284 -348c-212 0 -294 135 -294 345c0 190 77 358 294 358c220 0 284 -169 284 -355zM540 337c0 135 -31 290 -196 290c-166 0 -206 -142 -206 -291c0 -182 60 -276 206 -276c134 0 196 122 196 277zM331 729l-144 139l56 52l123 -161z" />
    <glyph glyph-name="Oacute" unicode="&#xd3;" horiz-adv-x="678" 
d="M628 340c0 -198 -96 -348 -284 -348c-212 0 -294 135 -294 345c0 190 77 358 294 358c220 0 284 -169 284 -355zM540 337c0 135 -31 290 -196 290c-166 0 -206 -142 -206 -291c0 -182 60 -276 206 -276c134 0 196 122 196 277zM486 868l-145 -139l-35 30l123 161z" />
    <glyph glyph-name="Ocircumflex" unicode="&#xd4;" horiz-adv-x="678" 
d="M628 340c0 -198 -96 -348 -284 -348c-212 0 -294 135 -294 345c0 190 77 358 294 358c220 0 284 -169 284 -355zM540 337c0 135 -31 290 -196 290c-166 0 -206 -142 -206 -291c0 -182 60 -276 206 -276c134 0 196 122 196 277zM523 759l-25 -29l-155 99l-154 -100l-23 28
l150 138h55z" />
    <glyph glyph-name="Otilde" unicode="&#xd5;" horiz-adv-x="678" 
d="M628 340c0 -198 -96 -348 -284 -348c-212 0 -294 135 -294 345c0 190 77 358 294 358c220 0 284 -169 284 -355zM540 337c0 135 -31 290 -196 290c-166 0 -206 -142 -206 -291c0 -182 60 -276 206 -276c134 0 196 122 196 277zM428 767c-60 0 -108 39 -145 39l-57 -39
l-28 22c16 45 48 75 87 75c47 0 108 -39 144 -39l57 40l28 -22c-15 -45 -47 -76 -86 -76z" />
    <glyph glyph-name="Odieresis" unicode="&#xd6;" horiz-adv-x="678" 
d="M628 340c0 -198 -96 -348 -284 -348c-212 0 -294 135 -294 345c0 190 77 358 294 358c220 0 284 -169 284 -355zM540 337c0 135 -31 290 -196 290c-166 0 -206 -142 -206 -291c0 -182 60 -276 206 -276c134 0 196 122 196 277zM478 771c0 -26 -21 -44 -49 -44
c-24 0 -42 18 -42 44c0 24 19 44 42 44c28 0 49 -18 49 -44zM291 771c0 -26 -20 -44 -46 -44c-27 0 -46 18 -46 44c0 24 21 44 44 44c28 0 48 -18 48 -44z" />
    <glyph glyph-name="Oslash" unicode="&#xd8;" horiz-adv-x="678" 
d="M628 340c0 -198 -96 -348 -284 -348c-89 0 -154 23 -201 66l-48 -64h-48l70 92c-47 60 -67 146 -67 251c0 190 77 358 294 358c83 0 143 -24 187 -65l50 67h50l-73 -95c51 -67 70 -163 70 -262zM539 337c0 66 -8 139 -37 195l-310 -413c34 -42 83 -62 152 -62
c134 0 195 125 195 280zM138 336c0 -77 10 -136 34 -180l310 412c-30 38 -74 63 -138 63c-166 0 -206 -146 -206 -295z" />
    <glyph glyph-name="Ugrave" unicode="&#xd9;" horiz-adv-x="706" 
d="M613 620v-374c0 -153 -84 -254 -261 -254c-184 0 -261 96 -261 254v374h-60v65h214v-65h-70v-370c0 -125 64 -188 177 -188c114 0 178 62 178 188v370h-69v65h214v-65h-62zM353 729l-144 139l56 52l123 -161z" />
    <glyph glyph-name="Uacute" unicode="&#xda;" horiz-adv-x="706" 
d="M613 620v-374c0 -153 -84 -254 -261 -254c-184 0 -261 96 -261 254v374h-60v65h214v-65h-70v-370c0 -125 64 -188 177 -188c114 0 178 62 178 188v370h-69v65h214v-65h-62zM509 868l-145 -139l-35 30l123 161z" />
    <glyph glyph-name="Ucircumflex" unicode="&#xdb;" horiz-adv-x="706" 
d="M613 620v-374c0 -153 -84 -254 -261 -254c-184 0 -261 96 -261 254v374h-60v65h214v-65h-70v-370c0 -125 64 -188 177 -188c114 0 178 62 178 188v370h-69v65h214v-65h-62zM545 759l-26 -29l-161 98l-160 -99l-24 28l156 135h57z" />
    <glyph glyph-name="Udieresis" unicode="&#xdc;" horiz-adv-x="706" 
d="M613 620v-374c0 -153 -84 -254 -261 -254c-184 0 -261 96 -261 254v374h-60v65h214v-65h-70v-370c0 -125 64 -188 177 -188c114 0 178 62 178 188v370h-69v65h214v-65h-62zM496 771c0 -26 -21 -44 -49 -44c-24 0 -42 18 -42 44c0 24 19 44 42 44c28 0 49 -18 49 -44z
M309 771c0 -26 -20 -44 -46 -44c-27 0 -46 18 -46 44c0 24 21 44 44 44c28 0 48 -18 48 -44z" />
    <glyph glyph-name="Yacute" unicode="&#xdd;" horiz-adv-x="587" 
d="M376 619v66h201v-66h-57l-186 -321v-235h81v-63h-247v63h81v232l-181 324h-57v66h204v-66h-59l136 -256h4l140 256h-60zM445 867l-145 -139l-35 30l123 161z" />
    <glyph glyph-name="Thorn" unicode="&#xde;" horiz-adv-x="571" 
d="M190 624v-75h140c125 0 213 -63 213 -191c0 -82 -46 -200 -204 -199h-149v-100h81v-59h-231v59h66v565h-66v61h231v-61h-81zM323 492h-133v-276h136c66 0 130 34 130 139c0 93 -58 137 -133 137z" />
    <glyph glyph-name="agrave" unicode="&#xe0;" horiz-adv-x="515" 
d="M340 233l-122 -8c-63 -4 -98 -38 -98 -85c0 -57 27 -82 90 -82c41 0 93 23 130 58v117zM419 334v-272h77l5 -47c-24 -13 -74 -20 -97 -20c-37 0 -60 9 -61 60c-1 0 -1 1 -2 1c-74 -64 -136 -64 -166 -64c-113 0 -141 84 -141 140c0 84 61 138 183 146l124 8v32
c0 84 -24 111 -104 111c-48 0 -101 -10 -150 -27c-6 18 -12 37 -17 55c55 25 125 39 186 39c103 0 163 -42 163 -162zM276 535l-145 139l56 52l123 -162z" />
    <glyph glyph-name="aacute" unicode="&#xe1;" horiz-adv-x="515" 
d="M340 233l-122 -8c-63 -4 -98 -38 -98 -85c0 -57 27 -82 90 -82c41 0 93 23 130 58v117zM419 334v-272h77l5 -47c-24 -13 -74 -20 -97 -20c-37 0 -60 9 -61 60c-1 0 -1 1 -2 1c-74 -64 -136 -64 -166 -64c-113 0 -141 84 -141 140c0 84 61 138 183 146l124 8v32
c0 84 -24 111 -104 111c-48 0 -101 -10 -150 -27c-6 18 -12 37 -17 55c55 25 125 39 186 39c103 0 163 -42 163 -162zM385 674l-145 -139l-35 29l123 162z" />
    <glyph glyph-name="acircumflex" unicode="&#xe2;" horiz-adv-x="515" 
d="M340 233l-122 -8c-63 -4 -98 -38 -98 -85c0 -57 27 -82 90 -82c41 0 93 23 130 58v117zM419 334v-272h77l5 -47c-24 -13 -74 -20 -97 -20c-37 0 -60 9 -61 60c-1 0 -1 1 -2 1c-74 -64 -136 -64 -166 -64c-113 0 -141 84 -141 140c0 84 61 138 183 146l124 8v32
c0 84 -24 111 -104 111c-48 0 -101 -10 -150 -27c-6 18 -12 37 -17 55c55 25 125 39 186 39c103 0 163 -42 163 -162zM430 561l-25 -29l-155 99l-154 -100l-23 28l150 143h55z" />
    <glyph glyph-name="atilde" unicode="&#xe3;" horiz-adv-x="515" 
d="M340 233l-122 -8c-63 -4 -98 -38 -98 -85c0 -57 27 -82 90 -82c41 0 93 23 130 58v117zM419 334v-272h77l5 -47c-24 -13 -74 -20 -97 -20c-37 0 -60 9 -61 60c-1 0 -1 1 -2 1c-74 -64 -136 -64 -166 -64c-113 0 -141 84 -141 140c0 84 61 138 183 146l124 8v32
c0 84 -24 111 -104 111c-48 0 -101 -10 -150 -27c-6 18 -12 37 -17 55c55 25 125 39 186 39c103 0 163 -42 163 -162zM326 573c-60 0 -108 39 -145 39l-57 -39l-28 22c16 45 48 75 87 75c47 0 108 -39 144 -39l57 40l28 -22c-15 -45 -47 -76 -86 -76z" />
    <glyph glyph-name="adieresis" unicode="&#xe4;" horiz-adv-x="515" 
d="M340 233l-122 -8c-63 -4 -98 -38 -98 -85c0 -57 27 -82 90 -82c41 0 93 23 130 58v117zM419 334v-272h77l5 -47c-24 -13 -74 -20 -97 -20c-37 0 -60 9 -61 60c-1 0 -1 1 -2 1c-74 -64 -136 -64 -166 -64c-113 0 -141 84 -141 140c0 84 61 138 183 146l124 8v32
c0 84 -24 111 -104 111c-48 0 -101 -10 -150 -27c-6 18 -12 37 -17 55c55 25 125 39 186 39c103 0 163 -42 163 -162zM370 603c0 -25 -21 -44 -49 -44c-25 0 -43 19 -43 44s20 44 43 44c28 0 49 -18 49 -44zM182 603c0 -25 -19 -44 -46 -44c-26 0 -46 19 -46 44s22 44 45 44
c28 0 47 -18 47 -44z" />
    <glyph glyph-name="aring" unicode="&#xe5;" horiz-adv-x="515" 
d="M340 233l-122 -8c-63 -4 -98 -38 -98 -85c0 -57 27 -82 90 -82c41 0 93 23 130 58v117zM419 334v-272h77l5 -47c-24 -13 -74 -20 -97 -20c-37 0 -60 9 -61 60c-1 0 -1 1 -2 1c-74 -64 -136 -64 -166 -64c-113 0 -141 84 -141 140c0 84 61 138 183 146l124 8v32
c0 84 -24 111 -104 111c-48 0 -101 -10 -150 -27c-6 18 -12 37 -17 55c55 25 125 39 186 39c103 0 163 -42 163 -162zM250 551c-61 0 -109 47 -109 105c0 56 48 105 109 105c60 0 106 -48 106 -105c0 -59 -47 -105 -106 -105zM250 714c-34 0 -60 -28 -60 -61
c0 -30 25 -58 60 -58c32 0 57 28 57 58c0 32 -25 61 -57 61z" />
    <glyph glyph-name="ccedilla" unicode="&#xe7;" horiz-adv-x="453" 
d="M261 499c54 0 104 -9 144 -26v-129h-62v77c-21 6 -47 9 -66 9c-105 0 -154 -71 -154 -191c0 -112 38 -180 138 -180c51 0 94 10 144 30l20 -57c-39 -22 -97 -38 -156 -40c-14 -18 -29 -36 -42 -55c65 -3 109 -28 109 -79c0 -56 -56 -102 -179 -102v36c71 7 118 25 118 59
c0 36 -53 41 -101 41l-13 19l63 83c-140 12 -184 114 -184 244c0 104 38 261 221 261z" />
    <glyph glyph-name="egrave" unicode="&#xe8;" horiz-adv-x="485" 
d="M253 435c-86 0 -122 -71 -127 -151h243c-2 86 -27 151 -116 151zM254 499c189 0 194 -173 194 -233v-44h-324c-1 -92 28 -166 137 -166c57 0 99 11 154 34l22 -53c-58 -31 -117 -45 -182 -45c-174 0 -215 121 -215 251c0 87 33 256 214 256zM253 535l-145 139l56 52
l123 -162z" />
    <glyph glyph-name="eacute" unicode="&#xe9;" horiz-adv-x="485" 
d="M253 435c-86 0 -122 -71 -127 -151h243c-2 86 -27 151 -116 151zM254 499c189 0 194 -173 194 -233v-44h-324c-1 -92 28 -166 137 -166c57 0 99 11 154 34l22 -53c-58 -31 -117 -45 -182 -45c-174 0 -215 121 -215 251c0 87 33 256 214 256zM394 674l-145 -139l-35 29
l123 162z" />
    <glyph glyph-name="ecircumflex" unicode="&#xea;" horiz-adv-x="485" 
d="M253 435c-86 0 -122 -71 -127 -151h243c-2 86 -27 151 -116 151zM254 499c189 0 194 -173 194 -233v-44h-324c-1 -92 28 -166 137 -166c57 0 99 11 154 34l22 -53c-58 -31 -117 -45 -182 -45c-174 0 -215 121 -215 251c0 87 33 256 214 256zM433 561l-25 -29l-155 99
l-154 -100l-23 28l150 143h55z" />
    <glyph glyph-name="edieresis" unicode="&#xeb;" horiz-adv-x="485" 
d="M253 435c-86 0 -122 -71 -127 -151h243c-2 86 -27 151 -116 151zM254 499c189 0 194 -173 194 -233v-44h-324c-1 -92 28 -166 137 -166c57 0 99 11 154 34l22 -53c-58 -31 -117 -45 -182 -45c-174 0 -215 121 -215 251c0 87 33 256 214 256zM391 603
c0 -25 -21 -44 -49 -44c-25 0 -43 19 -43 44s20 44 43 44c28 0 49 -18 49 -44zM203 603c0 -25 -19 -44 -46 -44c-26 0 -46 19 -46 44s22 44 45 44c28 0 47 -18 47 -44z" />
    <glyph glyph-name="igrave" unicode="&#xec;" horiz-adv-x="292" 
d="M108 429h-57v59h137v-426h73v-49c-25 -12 -62 -19 -85 -19c-46 0 -67 16 -68 70v365zM139 535l-145 139l56 52l123 -162z" />
    <glyph glyph-name="iacute" unicode="&#xed;" horiz-adv-x="292" 
d="M108 429h-57v59h137v-426h73v-49c-25 -12 -62 -19 -85 -19c-46 0 -67 16 -68 70v365zM274 674l-145 -139l-35 29l123 162z" />
    <glyph glyph-name="icircumflex" unicode="&#xee;" horiz-adv-x="292" 
d="M108 429h-57v59h137v-426h73v-49c-25 -12 -62 -19 -85 -19c-46 0 -67 16 -68 70v365zM328 561l-25 -29l-155 99l-154 -100l-23 28l150 143h55z" />
    <glyph glyph-name="idieresis" unicode="&#xef;" horiz-adv-x="292" 
d="M108 429h-57v59h137v-426h73v-49c-25 -12 -62 -19 -85 -19c-46 0 -67 16 -68 70v365zM274 603c0 -25 -21 -44 -49 -44c-25 0 -43 19 -43 44s20 44 43 44c28 0 49 -18 49 -44zM86 603c0 -25 -19 -44 -46 -44c-26 0 -46 19 -46 44s22 44 45 44c28 0 47 -18 47 -44z" />
    <glyph glyph-name="ntilde" unicode="&#xf1;" horiz-adv-x="585" 
d="M174 0h-81v424h-73v64h154v-44c56 35 122 55 171 55c129 0 142 -81 142 -147l1 -290h75v-49c-25 -12 -65 -18 -88 -18c-52 0 -68 25 -68 74v253c0 68 -8 104 -85 104c-46 0 -107 -25 -148 -49v-377zM346 585c-60 0 -108 39 -145 39l-57 -39l-28 22c16 45 48 75 87 75
c47 0 108 -39 144 -39l57 40l28 -22c-15 -45 -47 -76 -86 -76z" />
    <glyph glyph-name="ograve" unicode="&#xf2;" horiz-adv-x="511" 
d="M471 243c0 -125 -51 -251 -221 -251c-159 0 -210 117 -210 249c0 130 60 257 219 257c163 0 212 -127 212 -255zM387 241c0 86 -20 191 -125 191c-110 0 -137 -98 -137 -191c0 -97 19 -184 133 -184c106 0 129 96 129 184zM257 535l-145 139l56 52l123 -162z" />
    <glyph glyph-name="oacute" unicode="&#xf3;" horiz-adv-x="511" 
d="M471 243c0 -125 -51 -251 -221 -251c-159 0 -210 117 -210 249c0 130 60 257 219 257c163 0 212 -127 212 -255zM387 241c0 86 -20 191 -125 191c-110 0 -137 -98 -137 -191c0 -97 19 -184 133 -184c106 0 129 96 129 184zM396 674l-145 -139l-35 29l123 162z" />
    <glyph glyph-name="ocircumflex" unicode="&#xf4;" horiz-adv-x="511" 
d="M471 243c0 -125 -51 -251 -221 -251c-159 0 -210 117 -210 249c0 130 60 257 219 257c163 0 212 -127 212 -255zM387 241c0 86 -20 191 -125 191c-110 0 -137 -98 -137 -191c0 -97 19 -184 133 -184c106 0 129 96 129 184zM438 561l-25 -29l-155 99l-154 -100l-23 28
l150 143h55z" />
    <glyph glyph-name="otilde" unicode="&#xf5;" horiz-adv-x="511" 
d="M471 243c0 -125 -51 -251 -221 -251c-159 0 -210 117 -210 249c0 130 60 257 219 257c163 0 212 -127 212 -255zM387 241c0 86 -20 191 -125 191c-110 0 -137 -98 -137 -191c0 -97 19 -184 133 -184c106 0 129 96 129 184zM340 572c-60 0 -108 39 -145 39l-57 -39l-28 22
c16 45 48 75 87 75c47 0 108 -39 144 -39l57 40l28 -22c-15 -45 -47 -76 -86 -76z" />
    <glyph glyph-name="odieresis" unicode="&#xf6;" horiz-adv-x="511" 
d="M471 243c0 -125 -51 -251 -221 -251c-159 0 -210 117 -210 249c0 130 60 257 219 257c163 0 212 -127 212 -255zM387 241c0 86 -20 191 -125 191c-110 0 -137 -98 -137 -191c0 -97 19 -184 133 -184c106 0 129 96 129 184zM398 603c0 -25 -21 -44 -49 -44
c-25 0 -43 19 -43 44s20 44 43 44c28 0 49 -18 49 -44zM210 603c0 -25 -19 -44 -46 -44c-26 0 -46 19 -46 44s22 44 45 44c28 0 47 -18 47 -44z" />
    <glyph glyph-name="oslash" unicode="&#xf8;" horiz-adv-x="511" 
d="M259 498c61 0 105 -18 138 -48l36 47c13 0 27 1 40 1l-54 -70c38 -49 52 -117 52 -185c0 -126 -51 -250 -222 -250c-60 0 -105 15 -137 43l-33 -42c-15 0 -29 -1 -43 -1l53 67c-36 46 -49 112 -49 181c0 130 60 257 219 257zM386 241c0 40 -5 86 -22 122l-203 -270
c20 -23 51 -38 98 -38c106 0 127 98 127 186zM259 434c-107 0 -134 -99 -135 -190c0 -41 5 -86 20 -119l204 268c-19 25 -47 41 -89 41z" />
    <glyph glyph-name="ugrave" unicode="&#xf9;" horiz-adv-x="575" 
d="M235 -11c-129 0 -141 82 -141 154v281h-73v64h154v-323c0 -64 7 -105 77 -105c37 0 97 16 147 61v303h-67v64h149v-426h71v-49c-30 -13 -65 -18 -86 -18c-42 0 -62 13 -66 62c-62 -57 -128 -68 -165 -68zM280 535l-145 139l56 52l123 -162z" />
    <glyph glyph-name="uacute" unicode="&#xfa;" horiz-adv-x="575" 
d="M235 -11c-129 0 -141 82 -141 154v281h-73v64h154v-323c0 -64 7 -105 77 -105c37 0 97 16 147 61v303h-67v64h149v-426h71v-49c-30 -13 -65 -18 -86 -18c-42 0 -62 13 -66 62c-62 -57 -128 -68 -165 -68zM403 674l-145 -139l-35 29l123 162z" />
    <glyph glyph-name="ucircumflex" unicode="&#xfb;" horiz-adv-x="575" 
d="M235 -11c-129 0 -141 82 -141 154v281h-73v64h154v-323c0 -64 7 -105 77 -105c37 0 97 16 147 61v303h-67v64h149v-426h71v-49c-30 -13 -65 -18 -86 -18c-42 0 -62 13 -66 62c-62 -57 -128 -68 -165 -68zM456 561l-25 -29l-155 99l-154 -100l-23 28l150 143h55z" />
    <glyph glyph-name="udieresis" unicode="&#xfc;" horiz-adv-x="575" 
d="M235 -11c-129 0 -141 82 -141 154v281h-73v64h154v-323c0 -64 7 -105 77 -105c37 0 97 16 147 61v303h-67v64h149v-426h71v-49c-30 -13 -65 -18 -86 -18c-42 0 -62 13 -66 62c-62 -57 -128 -68 -165 -68zM413 603c0 -25 -21 -44 -49 -44c-25 0 -43 19 -43 44s20 44 43 44
c28 0 49 -18 49 -44zM225 603c0 -25 -19 -44 -46 -44c-26 0 -46 19 -46 44s22 44 45 44c28 0 47 -18 47 -44z" />
    <glyph glyph-name="yacute" unicode="&#xfd;" horiz-adv-x="533" 
d="M264 55c3 8 20 64 41 127l80 242h-62v64h187v-64h-50l-183 -546c-25 -71 -61 -92 -131 -92c-16 0 -56 3 -102 17l14 72c31 -6 58 -11 81 -11c36 0 57 5 72 48l33 91h-42l-134 421h-50v64h110l101 -327l30 -106h5zM377 674l-145 -139l-35 29l123 162z" />
    <glyph glyph-name="thorn" unicode="&#xfe;" horiz-adv-x="539" 
d="M8 -208v58h76v776h-78v59h159v-244s0 -1 1 -1c38 31 96 54 148 54c140 0 185 -111 185 -241c0 -150 -53 -263 -198 -263c-37 0 -96 10 -135 35v-175h82v-58h-240zM166 380v-291c22 -16 78 -35 123 -35c68 0 126 47 126 200c0 135 -49 176 -121 176
c-40 0 -104 -27 -128 -50z" />
    <glyph glyph-name="ydieresis" unicode="&#xff;" horiz-adv-x="533" 
d="M264 55c3 8 20 64 41 127l80 242h-62v64h187v-64h-50l-183 -546c-25 -71 -61 -92 -131 -92c-16 0 -56 3 -102 17l14 72c31 -6 58 -11 81 -11c36 0 57 5 72 48l33 91h-42l-134 421h-50v64h110l101 -327l30 -106h5zM389 603c0 -25 -21 -44 -49 -44c-25 0 -43 19 -43 44
s20 44 43 44c28 0 49 -18 49 -44zM201 603c0 -25 -19 -44 -46 -44c-26 0 -46 19 -46 44s22 44 45 44c28 0 47 -18 47 -44z" />
    <glyph glyph-name="Amacron" unicode="&#x100;" horiz-adv-x="668" 
d="M437 63h69l-40 126h-267c-10 -31 -27 -85 -39 -126h71v-63h-211v63h57c64 193 145 434 206 622h106c65 -201 139 -422 204 -622h56v-63h-212v63zM446 253c-29 97 -61 194 -91 291c-6 22 -13 44 -20 67h-2c-1 -5 -4 -17 -21 -68c-21 -65 -65 -201 -91 -290h225zM176 747
v64h326v-64h-326z" />
    <glyph glyph-name="amacron" unicode="&#x101;" horiz-adv-x="515" 
d="M340 233l-122 -8c-63 -4 -98 -38 -98 -85c0 -57 27 -82 90 -82c41 0 93 23 130 58v117zM419 334v-272h77l5 -47c-24 -13 -74 -20 -97 -20c-37 0 -60 9 -61 60c-1 0 -1 1 -2 1c-74 -64 -136 -64 -166 -64c-113 0 -141 84 -141 140c0 84 61 138 183 146l124 8v32
c0 84 -24 111 -104 111c-48 0 -101 -10 -150 -27c-6 18 -12 37 -17 55c55 25 125 39 186 39c103 0 163 -42 163 -162zM79 592v64h329v-64h-329z" />
    <glyph glyph-name="Abreve" unicode="&#x102;" horiz-adv-x="668" 
d="M437 63h69l-40 126h-267c-10 -31 -27 -85 -39 -126h71v-63h-211v63h57c64 193 145 434 206 622h106c65 -201 139 -422 204 -622h56v-63h-212v63zM446 253c-29 97 -61 194 -91 291c-6 22 -13 44 -20 67h-2c-1 -5 -4 -17 -21 -68c-21 -65 -65 -201 -91 -290h225zM331 730
c-70 0 -121 55 -162 112l47 33c36 -49 80 -83 119 -83c24 0 68 5 142 77l27 -25c-58 -84 -120 -114 -173 -114z" />
    <glyph glyph-name="abreve" unicode="&#x103;" horiz-adv-x="515" 
d="M340 233l-122 -8c-63 -4 -98 -38 -98 -85c0 -57 27 -82 90 -82c41 0 93 23 130 58v117zM419 334v-272h77l5 -47c-24 -13 -74 -20 -97 -20c-37 0 -60 9 -61 60c-1 0 -1 1 -2 1c-74 -64 -136 -64 -166 -64c-113 0 -141 84 -141 140c0 84 61 138 183 146l124 8v32
c0 84 -24 111 -104 111c-48 0 -101 -10 -150 -27c-6 18 -12 37 -17 55c55 25 125 39 186 39c103 0 163 -42 163 -162zM250 551c-70 0 -121 56 -162 112l47 34c36 -50 80 -83 118 -83c25 0 69 4 143 76l27 -25c-58 -84 -120 -114 -173 -114z" />
    <glyph glyph-name="Aogonek" unicode="&#x104;" horiz-adv-x="668" 
d="M437 63h69l-40 126h-267c-10 -31 -27 -85 -39 -126h71v-63h-211v63h57c64 193 145 434 206 622h106c65 -201 139 -422 204 -622h56v-63h-50c-28 -35 -46 -80 -46 -110c0 -39 23 -51 59 -51c26 0 54 7 72 11l6 -32c-32 -16 -71 -26 -108 -26c-62 0 -96 27 -96 72
c0 34 13 85 70 136h-119v63zM446 253c-29 97 -61 194 -91 291c-6 22 -13 44 -20 67h-2c-1 -5 -4 -17 -21 -68c-21 -65 -65 -201 -91 -290h225z" />
    <glyph glyph-name="aogonek" unicode="&#x105;" horiz-adv-x="515" 
d="M419 334v-272h77l5 -47c-19 -10 -52 -16 -77 -19c-25 -34 -42 -76 -42 -104c0 -39 23 -51 59 -51c26 0 54 7 72 11l6 -32c-32 -16 -71 -26 -108 -26c-62 0 -96 27 -96 72c0 33 12 82 65 131c-23 4 -36 19 -37 58c-1 0 -1 1 -2 1c-74 -64 -136 -64 -166 -64
c-113 0 -141 84 -141 140c0 84 61 138 183 146l124 8v32c0 84 -24 111 -104 111c-48 0 -101 -10 -150 -27c-6 18 -12 37 -17 55c55 25 125 39 186 39c103 0 163 -42 163 -162zM340 233l-122 -8c-63 -4 -98 -38 -98 -85c0 -57 27 -82 90 -82c41 0 93 23 130 58v117z" />
    <glyph glyph-name="Cacute" unicode="&#x106;" horiz-adv-x="570" 
d="M460 508v106c-35 10 -75 13 -107 13c-150 0 -215 -115 -215 -289c0 -158 43 -275 222 -275c36 0 109 6 163 23l16 -62c-48 -19 -131 -32 -194 -32c-218 0 -295 141 -295 347c0 146 59 357 300 357c75 0 133 -13 174 -28v-160h-64zM491 868l-145 -139l-35 30l123 161z" />
    <glyph glyph-name="cacute" unicode="&#x107;" horiz-adv-x="453" 
d="M261 499c54 0 104 -9 144 -26v-129h-62v77c-21 6 -47 9 -66 9c-105 0 -154 -71 -154 -191c0 -112 38 -180 138 -180c51 0 94 10 144 30l20 -57c-42 -24 -106 -40 -170 -40c-164 0 -215 107 -215 246c0 104 38 261 221 261zM379 674l-145 -139l-35 29l123 162z" />
    <glyph glyph-name="Ccircumflex" unicode="&#x108;" horiz-adv-x="570" 
d="M460 508v106c-35 10 -75 13 -107 13c-150 0 -215 -115 -215 -289c0 -158 43 -275 222 -275c36 0 109 6 163 23l16 -62c-48 -19 -131 -32 -194 -32c-218 0 -295 141 -295 347c0 146 59 357 300 357c75 0 133 -13 174 -28v-160h-64zM516 759l-25 -29l-155 99l-154 -100
l-23 28l150 138h55z" />
    <glyph glyph-name="ccircumflex" unicode="&#x109;" horiz-adv-x="453" 
d="M261 499c54 0 104 -9 144 -26v-129h-62v77c-21 6 -47 9 -66 9c-105 0 -154 -71 -154 -191c0 -112 38 -180 138 -180c51 0 94 10 144 30l20 -57c-42 -24 -106 -40 -170 -40c-164 0 -215 107 -215 246c0 104 38 261 221 261zM433 561l-25 -29l-155 99l-154 -100l-23 28
l150 143h55z" />
    <glyph glyph-name="Cdotaccent" unicode="&#x10a;" horiz-adv-x="570" 
d="M460 508v106c-35 10 -75 13 -107 13c-150 0 -215 -115 -215 -289c0 -158 43 -275 222 -275c36 0 109 6 163 23l16 -62c-48 -19 -131 -32 -194 -32c-218 0 -295 141 -295 347c0 146 59 357 300 357c75 0 133 -13 174 -28v-160h-64zM393 819c0 -31 -26 -56 -57 -56
s-55 25 -55 56s24 57 55 57s57 -26 57 -57z" />
    <glyph glyph-name="cdotaccent" unicode="&#x10b;" horiz-adv-x="453" 
d="M261 499c54 0 104 -9 144 -26v-129h-62v77c-21 6 -47 9 -66 9c-105 0 -154 -71 -154 -191c0 -112 38 -180 138 -180c51 0 94 10 144 30l20 -57c-42 -24 -106 -40 -170 -40c-164 0 -215 107 -215 246c0 104 38 261 221 261zM309 620c0 -30 -23 -54 -51 -54s-49 24 -49 54
s21 55 49 55s51 -25 51 -55z" />
    <glyph glyph-name="Ccaron" unicode="&#x10c;" horiz-adv-x="570" 
d="M460 508v106c-35 10 -75 13 -107 13c-150 0 -215 -115 -215 -289c0 -158 43 -275 222 -275c36 0 109 6 163 23l16 -62c-48 -19 -131 -32 -194 -32c-218 0 -295 141 -295 347c0 146 59 357 300 357c75 0 133 -13 174 -28v-160h-64zM492 900l24 -29l-152 -135h-54l-151 137
l23 27l155 -100z" />
    <glyph glyph-name="ccaron" unicode="&#x10d;" horiz-adv-x="453" 
d="M261 499c54 0 104 -9 144 -26v-129h-62v77c-21 6 -47 9 -66 9c-105 0 -154 -71 -154 -191c0 -112 38 -180 138 -180c51 0 94 10 144 30l20 -57c-42 -24 -106 -40 -170 -40c-164 0 -215 107 -215 246c0 104 38 261 221 261zM419 715l24 -29l-152 -141h-54l-151 143l23 28
l155 -100z" />
    <glyph glyph-name="Dcaron" unicode="&#x10e;" horiz-adv-x="664" 
d="M324 0h-283v63h69v556h-65v66h288c222 0 281 -158 281 -341c0 -187 -66 -344 -290 -344zM320 619h-123v-556h117c62 0 213 11 213 274c0 268 -136 282 -207 282zM444 900l24 -29l-152 -135h-54l-151 137l23 27l155 -100z" />
    <glyph glyph-name="dcaron" unicode="&#x10f;" horiz-adv-x="667" 
d="M535 690c0 27 23 50 53 50c33 0 56 -26 55 -60c-2 -50 -32 -95 -83 -121l-20 25c20 18 30 39 30 59c-22 6 -35 24 -35 47zM377 45l-2 1c-39 -31 -98 -54 -150 -54c-140 0 -185 112 -185 243c0 150 53 265 198 265c37 0 89 -8 135 -33v181h-82v63h164v-649h76v-62h-154v45
zM250 433c-68 0 -126 -43 -126 -198c0 -135 49 -176 121 -176c47 0 104 27 128 50v288c-22 16 -78 36 -123 36z" />
    <glyph glyph-name="dcroat" unicode="&#x111;" horiz-adv-x="544" 
d="M375 44l-2 3c-39 -31 -96 -54 -148 -54c-140 0 -185 110 -185 240c0 148 53 254 198 254c37 0 96 -11 135 -36v85h-148v46h148v72h-82v57h164v-129h75v-46h-75v-478h76v-58h-156v44zM250 423c-68 0 -127 -40 -126 -190c0 -136 49 -175 121 -175c40 0 104 26 128 49v280
c-22 17 -78 36 -123 36z" />
    <glyph glyph-name="Emacron" unicode="&#x112;" horiz-adv-x="575" 
d="M547 0h-506v64h67v556h-64v64h487v-162h-65v98h-273v-232l260 5v-67l-260 4v-266h287v100h67v-164zM154 747v64h326v-64h-326z" />
    <glyph glyph-name="emacron" unicode="&#x113;" horiz-adv-x="485" 
d="M253 435c-86 0 -122 -71 -127 -151h243c-2 86 -27 151 -116 151zM254 499c189 0 194 -173 194 -233v-44h-324c-1 -92 28 -166 137 -166c57 0 99 11 154 34l22 -53c-58 -31 -117 -45 -182 -45c-174 0 -215 121 -215 251c0 87 33 256 214 256zM97 592v64h329v-64h-329z" />
    <glyph glyph-name="Ebreve" unicode="&#x114;" horiz-adv-x="575" 
d="M547 0h-506v64h67v556h-64v64h487v-162h-65v98h-273v-232l260 5v-67l-260 4v-266h287v100h67v-164zM309 730c-70 0 -121 55 -162 112l47 33c36 -49 80 -83 119 -83c24 0 68 5 142 77l27 -25c-58 -84 -120 -114 -173 -114z" />
    <glyph glyph-name="ebreve" unicode="&#x115;" horiz-adv-x="485" 
d="M253 435c-86 0 -122 -71 -127 -151h243c-2 86 -27 151 -116 151zM254 499c189 0 194 -173 194 -233v-44h-324c-1 -92 28 -166 137 -166c57 0 99 11 154 34l22 -53c-58 -31 -117 -45 -182 -45c-174 0 -215 121 -215 251c0 87 33 256 214 256zM250 551
c-70 0 -121 56 -162 112l47 34c36 -50 80 -83 118 -83c25 0 69 4 143 76l27 -25c-58 -84 -120 -114 -173 -114z" />
    <glyph glyph-name="Edotaccent" unicode="&#x116;" horiz-adv-x="575" 
d="M547 0h-506v64h67v556h-64v64h487v-162h-65v98h-273v-232l260 5v-67l-260 4v-266h287v100h67v-164zM367 813c0 -31 -26 -56 -57 -56s-55 25 -55 56s24 57 55 57s57 -26 57 -57z" />
    <glyph glyph-name="edotaccent" unicode="&#x117;" horiz-adv-x="485" 
d="M253 435c-86 0 -122 -71 -127 -151h243c-2 86 -27 151 -116 151zM254 499c189 0 194 -173 194 -233v-44h-324c-1 -92 28 -166 137 -166c57 0 99 11 154 34l22 -53c-58 -31 -117 -45 -182 -45c-174 0 -215 121 -215 251c0 87 33 256 214 256zM310 619
c0 -31 -26 -56 -57 -56s-55 25 -55 56s24 57 55 57s57 -26 57 -57z" />
    <glyph glyph-name="Eogonek" unicode="&#x118;" horiz-adv-x="575" 
d="M547 0h-77c-27 -35 -45 -79 -45 -109c0 -39 23 -51 59 -51c26 0 54 7 72 11l6 -32c-32 -16 -71 -26 -108 -26c-62 0 -96 27 -96 72c0 33 13 85 69 135h-386v64h67v556h-64v64h487v-162h-65v98h-273v-232l260 5v-67l-260 4v-266h287v100h67v-164z" />
    <glyph glyph-name="eogonek" unicode="&#x119;" horiz-adv-x="485" 
d="M254 499c189 0 194 -173 194 -233v-44h-324c-1 -92 28 -166 137 -166c57 0 99 11 154 34l22 -53c-16 -9 -32 -16 -49 -22c-21 -32 -35 -69 -35 -95c0 -39 23 -51 59 -51c26 0 54 7 72 11l6 -32c-32 -16 -71 -26 -108 -26c-62 0 -96 27 -96 72c0 27 8 64 40 104
c-23 -4 -47 -6 -71 -6c-174 0 -215 121 -215 251c0 87 33 256 214 256zM253 435c-86 0 -122 -71 -127 -151h243c-2 86 -27 151 -116 151z" />
    <glyph glyph-name="Ecaron" unicode="&#x11a;" horiz-adv-x="575" 
d="M547 0h-506v64h67v556h-64v64h487v-162h-65v98h-273v-232l260 5v-67l-260 4v-266h287v100h67v-164zM475 900l24 -29l-152 -135h-54l-151 137l23 27l155 -100z" />
    <glyph glyph-name="ecaron" unicode="&#x11b;" horiz-adv-x="485" 
d="M253 435c-86 0 -122 -71 -127 -151h243c-2 86 -27 151 -116 151zM254 499c189 0 194 -173 194 -233v-44h-324c-1 -92 28 -166 137 -166c57 0 99 11 154 34l22 -53c-58 -31 -117 -45 -182 -45c-174 0 -215 121 -215 251c0 87 33 256 214 256zM406 715l24 -29l-152 -141
h-54l-151 143l23 28l155 -100z" />
    <glyph glyph-name="Gcircumflex" unicode="&#x11c;" horiz-adv-x="633" 
d="M364 696c75 0 137 -13 178 -28v-158h-64v102c-28 8 -72 14 -111 14c-159 0 -229 -114 -229 -288c0 -154 43 -275 212 -275c35 0 90 5 121 15v216h-106v64h236v-64h-51v-270c-67 -22 -140 -32 -207 -32c-215 0 -293 142 -293 347c0 146 58 357 314 357zM535 759l-25 -29
l-155 99l-154 -100l-23 28l150 138h55z" />
    <glyph glyph-name="gcircumflex" unicode="&#x11d;" horiz-adv-x="512" 
d="M243 500c32 0 65 -5 92 -12h158v-52h-78l-2 -2c23 -24 36 -66 36 -107c0 -105 -86 -167 -205 -167h-54c-50 0 -78 -6 -78 -36c0 -22 20 -34 51 -34h126c119 0 187 -52 187 -147c0 -94 -87 -159 -239 -159c-161 0 -208 67 -208 141c0 57 35 100 64 115
c-40 8 -60 35 -60 75c0 59 51 76 83 82c-34 16 -69 54 -69 127c0 127 102 176 196 176zM247 435c-75 0 -116 -42 -116 -108c0 -64 39 -105 106 -105c74 0 129 36 129 106c0 41 -27 107 -119 107zM277 29h-109c-27 -9 -58 -50 -58 -87c0 -45 25 -91 139 -91
c96 0 143 37 143 91c0 41 -26 87 -115 87zM429 561l-25 -29l-155 99l-154 -100l-23 28l150 143h55z" />
    <glyph glyph-name="Gbreve" unicode="&#x11e;" horiz-adv-x="633" 
d="M364 696c75 0 137 -13 178 -28v-158h-64v102c-28 8 -72 14 -111 14c-159 0 -229 -114 -229 -288c0 -154 43 -275 212 -275c35 0 90 5 121 15v216h-106v64h236v-64h-51v-270c-67 -22 -140 -32 -207 -32c-215 0 -293 142 -293 347c0 146 58 357 314 357zM347 730
c-70 0 -121 55 -162 112l47 33c36 -49 80 -83 119 -83c24 0 68 5 142 77l27 -25c-58 -84 -120 -114 -173 -114z" />
    <glyph glyph-name="gbreve" unicode="&#x11f;" horiz-adv-x="512" 
d="M243 500c32 0 65 -5 92 -12h158v-52h-78l-2 -2c23 -24 36 -66 36 -107c0 -105 -86 -167 -205 -167h-54c-50 0 -78 -6 -78 -36c0 -22 20 -34 51 -34h126c119 0 187 -52 187 -147c0 -94 -87 -159 -239 -159c-161 0 -208 67 -208 141c0 57 35 100 64 115
c-40 8 -60 35 -60 75c0 59 51 76 83 82c-34 16 -69 54 -69 127c0 127 102 176 196 176zM247 435c-75 0 -116 -42 -116 -108c0 -64 39 -105 106 -105c74 0 129 36 129 106c0 41 -27 107 -119 107zM277 29h-109c-27 -9 -58 -50 -58 -87c0 -45 25 -91 139 -91
c96 0 143 37 143 91c0 41 -26 87 -115 87zM241 551c-70 0 -121 56 -162 112l47 34c36 -50 80 -83 118 -83c25 0 69 4 143 76l27 -25c-58 -84 -120 -114 -173 -114z" />
    <glyph glyph-name="Gdotaccent" unicode="&#x120;" horiz-adv-x="633" 
d="M364 696c75 0 137 -13 178 -28v-158h-64v102c-28 8 -72 14 -111 14c-159 0 -229 -114 -229 -288c0 -154 43 -275 212 -275c35 0 90 5 121 15v216h-106v64h236v-64h-51v-270c-67 -22 -140 -32 -207 -32c-215 0 -293 142 -293 347c0 146 58 357 314 357zM425 812
c0 -31 -26 -56 -57 -56s-55 25 -55 56s24 57 55 57s57 -26 57 -57z" />
    <glyph glyph-name="gdotaccent" unicode="&#x121;" horiz-adv-x="512" 
d="M243 500c32 0 65 -5 92 -12h158v-52h-78l-2 -2c23 -24 36 -66 36 -107c0 -105 -86 -167 -205 -167h-54c-50 0 -78 -6 -78 -36c0 -22 20 -34 51 -34h126c119 0 187 -52 187 -147c0 -94 -87 -159 -239 -159c-161 0 -208 67 -208 141c0 57 35 100 64 115
c-40 8 -60 35 -60 75c0 59 51 76 83 82c-34 16 -69 54 -69 127c0 127 102 176 196 176zM247 435c-75 0 -116 -42 -116 -108c0 -64 39 -105 106 -105c74 0 129 36 129 106c0 41 -27 107 -119 107zM277 29h-109c-27 -9 -58 -50 -58 -87c0 -45 25 -91 139 -91
c96 0 143 37 143 91c0 41 -26 87 -115 87zM317 619c0 -31 -26 -56 -57 -56s-55 25 -55 56s24 57 55 57s57 -26 57 -57z" />
    <glyph glyph-name="Gcommaaccent" unicode="&#x122;" horiz-adv-x="633" 
d="M364 696c75 0 137 -13 178 -28v-158h-64v102c-28 8 -72 14 -111 14c-159 0 -229 -114 -229 -288c0 -154 43 -275 212 -275c35 0 90 5 121 15v216h-106v64h236v-64h-51v-270c-67 -22 -140 -32 -207 -32c-215 0 -293 142 -293 347c0 146 58 357 314 357zM295 -90
c0 27 23 50 53 50c33 0 56 -26 55 -60c-2 -50 -32 -95 -83 -121l-20 25c20 18 30 39 30 59c-22 6 -35 24 -35 47z" />
    <glyph glyph-name="gcommaaccent" unicode="&#x123;" horiz-adv-x="512" 
d="M243 500c32 0 65 -5 92 -12h158v-52h-78l-2 -2c23 -24 36 -66 36 -107c0 -105 -86 -167 -205 -167h-54c-50 0 -78 -6 -78 -36c0 -22 20 -34 51 -34h126c119 0 187 -52 187 -147c0 -94 -87 -159 -239 -159c-161 0 -208 67 -208 141c0 57 35 100 64 115
c-40 8 -60 35 -60 75c0 59 51 76 83 82c-34 16 -69 54 -69 127c0 127 102 176 196 176zM277 29h-109c-27 -9 -58 -50 -58 -87c0 -45 25 -91 139 -91c96 0 143 37 143 91c0 41 -26 87 -115 87zM247 435c-75 0 -116 -42 -116 -108c0 -64 39 -105 106 -105c74 0 129 36 129 106
c0 41 -27 107 -119 107zM316 596c0 -27 -24 -50 -55 -50c-33 0 -56 25 -56 59v2c2 50 33 92 85 118l20 -25c-20 -19 -30 -36 -30 -56c22 -6 36 -24 36 -48z" />
    <glyph glyph-name="Hcircumflex" unicode="&#x124;" horiz-adv-x="703" 
d="M662 0h-213v63h62v265h-321v-265h63v-63h-213v63h65v557h-65v64h213v-64h-63v-230h321v230h-62v64h213v-64h-65v-557h65v-63zM521 759l-25 -29l-155 99l-154 -100l-23 28l150 138h55z" />
    <glyph glyph-name="hcircumflex" unicode="&#x125;" horiz-adv-x="583" 
d="M174 0h-81v648h-73v63h154v-267c56 35 122 55 171 55c129 0 142 -81 142 -147l1 -290h77v-49c-25 -12 -67 -18 -90 -18c-52 0 -68 25 -68 74v257c0 68 -8 104 -85 104c-46 0 -107 -25 -148 -49v-381zM306 790l-25 -29l-155 99l-154 -100l-23 28l150 138h55z" />
    <glyph glyph-name="Hbar" unicode="&#x126;" horiz-adv-x="703" 
d="M662 0h-213v62h62v264h-321v-264h63v-62h-213v62h65v415h-66v47h66v99h-65v61h213v-61h-63v-99h321v99h-62v61h213v-61h-65v-99h65v-47h-65v-415h65v-62zM190 384h321v93h-321v-93z" />
    <glyph glyph-name="hbar" unicode="&#x127;" horiz-adv-x="583" 
d="M93 518h-72v47h72v90h-73v56h155v-146h181v-47h-181v-108c55 36 122 56 170 56c133 0 144 -85 144 -157v-247h71v-49c-26 -12 -61 -19 -84 -19c-46 0 -67 16 -68 70v225c0 67 -8 109 -85 109c-46 0 -107 -24 -148 -47v-351h-82v518z" />
    <glyph glyph-name="Itilde" unicode="&#x128;" horiz-adv-x="353" 
d="M283 0h-213v63h63v557h-63v65h213v-65h-65v-557h65v-63zM253 754c-60 0 -108 39 -145 39l-57 -39l-28 22c16 45 48 75 87 75c47 0 108 -39 144 -39l57 40l28 -22c-15 -45 -47 -76 -86 -76z" />
    <glyph glyph-name="itilde" unicode="&#x129;" horiz-adv-x="292" 
d="M108 429h-57v59h137v-426h73v-49c-25 -12 -62 -19 -85 -19c-46 0 -67 16 -68 70v365zM201 576c-60 0 -108 39 -145 39l-57 -39l-28 22c16 45 48 75 87 75c47 0 108 -39 144 -39l57 40l28 -22c-15 -45 -47 -76 -86 -76z" />
    <glyph glyph-name="Imacron" unicode="&#x12a;" horiz-adv-x="353" 
d="M283 0h-213v63h63v557h-63v65h213v-65h-65v-557h65v-63zM15 747v64h326v-64h-326z" />
    <glyph glyph-name="imacron" unicode="&#x12b;" horiz-adv-x="301" 
d="M108 429h-57v59h137v-426h73v-49c-25 -12 -62 -19 -85 -19c-46 0 -67 16 -68 70v365zM-28 592v64h329v-64h-329z" />
    <glyph glyph-name="Ibreve" unicode="&#x12c;" horiz-adv-x="353" 
d="M173 733c-70 0 -121 55 -162 112l47 33c36 -49 80 -83 119 -83c24 0 68 5 142 77l27 -25c-58 -84 -120 -114 -173 -114zM283 0h-213v63h63v557h-63v65h213v-65h-65v-557h65v-63z" />
    <glyph glyph-name="ibreve" unicode="&#x12d;" horiz-adv-x="305" 
d="M108 429h-57v59h137v-426h73v-49c-25 -12 -62 -19 -85 -19c-46 0 -67 16 -68 70v365zM132 551c-70 0 -121 56 -162 112l47 34c36 -50 80 -83 118 -83c25 0 69 4 143 76l27 -25c-58 -84 -120 -114 -173 -114z" />
    <glyph glyph-name="Iogonek" unicode="&#x12e;" horiz-adv-x="353" 
d="M283 0h-81c-26 -35 -44 -79 -44 -108c0 -39 23 -51 59 -51c26 0 54 7 72 11l6 -32c-32 -16 -71 -26 -108 -26c-62 0 -96 27 -96 72c0 33 13 84 68 134h-89v63h63v557h-63v65h213v-65h-65v-557h65v-63z" />
    <glyph glyph-name="iogonek" unicode="&#x12f;" horiz-adv-x="292" 
d="M107 424h-51v63h132v-425h73v-49c-15 -7 -34 -13 -51 -15c-24 -34 -39 -74 -39 -101c0 -39 23 -51 59 -51c26 0 54 7 72 11l6 -32c-32 -16 -71 -26 -108 -26c-62 0 -96 27 -96 72c0 31 11 77 57 124c-36 3 -53 21 -54 69v360zM198 616c0 -28 -24 -53 -54 -53
c-29 0 -53 25 -53 53c0 30 24 54 53 54c30 0 54 -24 54 -54z" />
    <glyph glyph-name="Idotaccent" unicode="&#x130;" horiz-adv-x="353" 
d="M283 0h-213v63h63v557h-63v65h213v-65h-65v-557h65v-63zM240 811c0 -31 -26 -56 -57 -56s-55 25 -55 56s24 57 55 57s57 -26 57 -57z" />
    <glyph glyph-name="dotlessi" unicode="&#x131;" horiz-adv-x="292" 
d="M108 429h-57v59h137v-426h73v-49c-25 -12 -62 -19 -85 -19c-46 0 -67 16 -68 70v365z" />
    <glyph glyph-name="IJ" unicode="&#x132;" horiz-adv-x="702" 
d="M283 0h-213v63h63v557h-63v65h213v-65h-65v-557h65v-63zM404 620v65h246v-65h-76l-1 -486c0 -171 -81 -258 -232 -310l-25 58c141 77 172 134 172 254v484h-84z" />
    <glyph glyph-name="ij" unicode="&#x133;" horiz-adv-x="556" 
d="M107 424h-51v63h132v-425h73v-49c-25 -12 -62 -19 -85 -19c-46 0 -68 16 -69 70v360zM198 616c0 -28 -24 -53 -54 -53c-29 0 -53 25 -53 53c0 30 24 54 53 54c30 0 54 -24 54 -54zM313 424v63h150v-459c0 -134 -41 -201 -177 -256l-28 54c106 63 124 111 124 193v405h-69
zM473 616c0 -28 -25 -53 -54 -53s-53 25 -53 53c0 30 24 54 53 54s54 -24 54 -54z" />
    <glyph glyph-name="Jcircumflex" unicode="&#x134;" horiz-adv-x="359" 
d="M61 621v65h246v-65h-76l-1 -486c0 -171 -81 -258 -232 -310l-25 58c141 77 172 134 172 254v484h-84zM367 759l-25 -29l-155 99l-154 -100l-23 28l150 138h55z" />
    <glyph glyph-name="jcircumflex" unicode="&#x135;" horiz-adv-x="279" 
d="M36 429v59h150v-466c0 -134 -40 -190 -177 -239l-22 52c98 55 118 89 118 176v418h-69zM300 562l-24 -29l-155 100l-155 -100l-23 28l151 142h54z" />
    <glyph glyph-name="Kcommaaccent" unicode="&#x136;" horiz-adv-x="645" 
d="M551 622l-217 -207l236 -352h59v-63h-221l-1 63h66l-200 298l-84 -81v-218h64v-62h-212v62h64v561h-64v61h211v-61h-63v-261l269 260h-66v62h215v-62h-56zM270 -90c0 27 23 50 53 50c33 0 56 -26 55 -60c-2 -50 -32 -95 -83 -121l-20 25c20 18 30 39 30 59
c-22 6 -35 24 -35 47z" />
    <glyph glyph-name="kcommaaccent" unicode="&#x137;" horiz-adv-x="527" 
d="M290 429v59h197v-59h-51c-45 -41 -90 -84 -136 -125c51 -81 102 -163 152 -245l66 -9v-44c-22 -9 -51 -13 -71 -13c-23 0 -46 6 -60 29l-143 236l-69 -62v-138h67v-58h-218v58h70v594h-79v58h160v-438l172 157h-57zM250 -90c0 27 23 50 53 50c33 0 56 -26 55 -60
c-2 -50 -32 -95 -83 -121l-20 25c20 18 30 39 30 59c-22 6 -35 24 -35 47z" />
    <glyph glyph-name="kgreenlandic" unicode="&#x138;" horiz-adv-x="524" 
d="M383 26l-139 232l-69 -62v-138h67v-58h-218v58h70v371h-79v59h160v-216l172 157h-55v59h195v-59h-51l-136 -126l152 -244l66 -9v-44c-23 -9 -48 -13 -74 -13c-31 0 -48 11 -61 33z" />
    <glyph glyph-name="Lacute" unicode="&#x139;" horiz-adv-x="562" 
d="M555 0h-514v63h67v557h-64v64h222v-64h-73v-557h295v120h67v-183zM304 868l-145 -139l-35 30l123 161z" />
    <glyph glyph-name="lacute" unicode="&#x13a;" horiz-adv-x="298" 
d="M196 711v-649h71v-62h-222v62h70v586h-79v63h160zM292 878l-145 -139l-35 30l123 161z" />
    <glyph glyph-name="Lcommaaccent" unicode="&#x13b;" horiz-adv-x="562" 
d="M555 0h-514v63h67v557h-64v64h222v-64h-73v-557h295v120h67v-183zM234 -90c0 27 23 50 53 50c33 0 56 -26 55 -60c-2 -50 -32 -95 -83 -121l-20 25c20 18 30 39 30 59c-22 6 -35 24 -35 47z" />
    <glyph glyph-name="lcommaaccent" unicode="&#x13c;" horiz-adv-x="298" 
d="M196 711v-649h71v-62h-222v62h70v586h-79v63h160zM104 -90c0 27 23 50 53 50c33 0 56 -26 55 -60c-2 -50 -32 -95 -83 -121l-20 25c20 18 30 39 30 59c-22 6 -35 24 -35 47z" />
    <glyph glyph-name="Lcaron" unicode="&#x13d;" horiz-adv-x="562" 
d="M555 0h-514v63h67v557h-64v64h222v-64h-73v-557h295v120h67v-183zM377 624c0 27 23 50 53 50c33 0 56 -26 55 -60c-2 -50 -32 -95 -83 -121l-20 25c20 18 30 39 30 59c-22 6 -35 24 -35 47z" />
    <glyph glyph-name="lcaron" unicode="&#x13e;" horiz-adv-x="399" 
d="M273 663c0 27 23 50 53 50c33 0 56 -26 55 -60c-2 -50 -32 -95 -83 -121l-20 25c20 18 30 39 30 59c-22 6 -35 24 -35 47zM196 711v-649h71v-62h-222v62h70v586h-79v63h160z" />
    <glyph glyph-name="Ldot" unicode="&#x13f;" horiz-adv-x="562" 
d="M555 0h-514v63h67v557h-64v64h222v-64h-73v-557h295v120h67v-183zM457 385c0 -31 -26 -56 -57 -56s-55 25 -55 56s24 57 55 57s57 -26 57 -57z" />
    <glyph glyph-name="ldot" unicode="&#x140;" horiz-adv-x="374" 
d="M380 350c0 -31 -26 -56 -57 -56s-55 25 -55 56s24 57 55 57s57 -26 57 -57zM196 711v-649h71v-62h-222v62h70v586h-79v63h160z" />
    <glyph glyph-name="Lslash" unicode="&#x141;" horiz-adv-x="554" 
d="M542 0h-501v61h67v178l-71 -42l-28 44l99 58v324h-64v61h222v-61h-73v-276l125 71l27 -42l-152 -87v-228h282v122h67v-183z" />
    <glyph glyph-name="lslash" unicode="&#x142;" horiz-adv-x="298" 
d="M195 340v-282h71v-58h-221v58h70v235l-89 -51l-26 43l115 66v301h-80v59h160v-313l93 53c9 -14 17 -29 26 -42c-39 -23 -79 -47 -119 -69z" />
    <glyph glyph-name="Nacute" unicode="&#x143;" horiz-adv-x="736" 
d="M544 140h5v480h-70v64h216v-64h-66v-620h-81c-97 151 -195 297 -292 450l-66 105c-1 0 -2 -1 -3 -1v-491h69l1 -63h-217l-1 63h68l1 557h-68v64h158c182 -286 226 -353 270 -423c26 -40 51 -80 76 -121zM515 868l-145 -139l-35 30l123 161z" />
    <glyph glyph-name="nacute" unicode="&#x144;" horiz-adv-x="585" 
d="M174 0h-81v424h-73v64h154v-44c56 35 122 55 171 55c129 0 142 -81 142 -147l1 -290h75v-49c-25 -12 -65 -18 -88 -18c-52 0 -68 25 -68 74v253c0 68 -8 104 -85 104c-46 0 -107 -25 -148 -49v-377zM394 674l-145 -139l-35 29l123 162z" />
    <glyph glyph-name="Ncommaaccent" unicode="&#x145;" horiz-adv-x="736" 
d="M544 140h5v480h-70v64h216v-64h-66v-620h-81c-97 151 -195 297 -292 450l-66 105c-1 0 -2 -1 -3 -1v-491h69l1 -63h-217l-1 63h68l1 557h-68v64h158c182 -286 226 -353 270 -423c26 -40 51 -80 76 -121zM316 -90c0 27 23 50 53 50c33 0 56 -26 55 -60
c-2 -50 -32 -95 -83 -121l-20 25c20 18 30 39 30 59c-22 6 -35 24 -35 47z" />
    <glyph glyph-name="ncommaaccent" unicode="&#x146;" horiz-adv-x="585" 
d="M174 0h-81v424h-73v64h154v-44c56 35 122 55 171 55c129 0 142 -81 142 -147l1 -290h75v-49c-25 -12 -65 -18 -88 -18c-52 0 -68 25 -68 74v253c0 68 -8 104 -85 104c-46 0 -107 -25 -148 -49v-377zM247 -90c0 27 23 50 53 50c33 0 56 -26 55 -60
c-2 -50 -32 -95 -83 -121l-20 25c20 18 30 39 30 59c-22 6 -35 24 -35 47z" />
    <glyph glyph-name="Ncaron" unicode="&#x147;" horiz-adv-x="736" 
d="M544 140h5v480h-70v64h216v-64h-66v-620h-81c-97 151 -195 297 -292 450l-66 105c-1 0 -2 -1 -3 -1v-491h69l1 -63h-217l-1 63h68l1 557h-68v64h158c182 -286 226 -353 270 -423c26 -40 51 -80 76 -121zM512 900l24 -29l-152 -135h-54l-151 137l23 27l155 -100z" />
    <glyph glyph-name="ncaron" unicode="&#x148;" horiz-adv-x="585" 
d="M174 0h-81v424h-73v64h154v-44c56 35 122 55 171 55c129 0 142 -81 142 -147l1 -290h75v-49c-25 -12 -65 -18 -88 -18c-52 0 -68 25 -68 74v253c0 68 -8 104 -85 104c-46 0 -107 -25 -148 -49v-377zM414 715l24 -29l-152 -141h-54l-151 143l23 28l155 -100z" />
    <glyph glyph-name="napostrophe" unicode="&#x149;" horiz-adv-x="703" 
d="M292 0h-81v424h-73v64h154v-44c56 35 122 55 171 55c129 0 142 -81 142 -147l1 -290h75v-49c-25 -12 -65 -18 -88 -18c-52 0 -68 25 -68 74v253c0 68 -8 104 -85 104c-46 0 -107 -25 -148 -49v-377zM-2 611c0 27 23 50 53 50c33 0 56 -26 55 -60c-2 -50 -32 -95 -83 -121
l-20 25c20 18 30 39 30 59c-22 6 -35 24 -35 47z" />
    <glyph glyph-name="Eng" unicode="&#x14a;" horiz-adv-x="736" 
d="M388 -117c24 -2 51 -5 72 -5c49 0 92 21 92 76v46c-46 71 -328 509 -362 563h-3c0 -167 1 -335 1 -501h69v-62h-217v62h68v561h-68v61h156c44 -68 309 -481 348 -546h5v485h-70v61h216v-61h-66v-550c0 -40 0 -78 -1 -118c-2 -94 -62 -143 -158 -143c-27 0 -63 4 -92 11
c4 20 6 40 10 60z" />
    <glyph glyph-name="eng" unicode="&#x14b;" horiz-adv-x="550" 
d="M346 499c133 0 144 -84 144 -157v-256c0 -32 0 -64 -1 -96c-2 -97 -61 -146 -160 -146c-26 0 -63 3 -92 10l9 63c22 -3 47 -5 65 -5c60 0 98 20 98 85v325c0 69 -12 110 -85 110c-46 0 -107 -24 -148 -48v-384h-82v429h-73v59h154v-41l3 -2c55 35 121 54 168 54z" />
    <glyph glyph-name="Omacron" unicode="&#x14c;" horiz-adv-x="678" 
d="M628 340c0 -198 -96 -348 -284 -348c-212 0 -294 135 -294 345c0 190 77 358 294 358c220 0 284 -169 284 -355zM540 337c0 135 -31 290 -196 290c-166 0 -206 -142 -206 -291c0 -182 60 -276 206 -276c134 0 196 122 196 277zM186 747v64h326v-64h-326z" />
    <glyph glyph-name="omacron" unicode="&#x14d;" horiz-adv-x="511" 
d="M471 243c0 -125 -51 -251 -221 -251c-159 0 -210 117 -210 249c0 130 60 257 219 257c163 0 212 -127 212 -255zM387 241c0 86 -20 191 -125 191c-110 0 -137 -98 -137 -191c0 -97 19 -184 133 -184c106 0 129 96 129 184zM92 592v64h329v-64h-329z" />
    <glyph glyph-name="Obreve" unicode="&#x14e;" horiz-adv-x="678" 
d="M628 340c0 -198 -96 -348 -284 -348c-212 0 -294 135 -294 345c0 190 77 358 294 358c220 0 284 -169 284 -355zM540 337c0 135 -31 290 -196 290c-166 0 -206 -142 -206 -291c0 -182 60 -276 206 -276c134 0 196 122 196 277zM330 730c-70 0 -121 55 -162 112l47 33
c36 -49 80 -83 119 -83c24 0 68 5 142 77l27 -25c-58 -84 -120 -114 -173 -114z" />
    <glyph glyph-name="obreve" unicode="&#x14f;" horiz-adv-x="511" 
d="M471 243c0 -125 -51 -251 -221 -251c-159 0 -210 117 -210 249c0 130 60 257 219 257c163 0 212 -127 212 -255zM387 241c0 86 -20 191 -125 191c-110 0 -137 -98 -137 -191c0 -97 19 -184 133 -184c106 0 129 96 129 184zM255 551c-70 0 -121 56 -162 112l47 34
c36 -50 80 -83 118 -83c25 0 69 4 143 76l27 -25c-58 -84 -120 -114 -173 -114z" />
    <glyph glyph-name="Ohungarumlaut" unicode="&#x150;" horiz-adv-x="678" 
d="M628 340c0 -198 -96 -348 -284 -348c-212 0 -294 135 -294 345c0 190 77 358 294 358c220 0 284 -169 284 -355zM540 337c0 135 -31 290 -196 290c-166 0 -206 -142 -206 -291c0 -182 60 -276 206 -276c134 0 196 122 196 277zM556 877l-141 -146l-36 28l117 166z
M432 877l-140 -146l-37 28l117 166z" />
    <glyph glyph-name="ohungarumlaut" unicode="&#x151;" horiz-adv-x="511" 
d="M471 243c0 -125 -51 -251 -221 -251c-159 0 -210 117 -210 249c0 130 60 257 219 257c163 0 212 -127 212 -255zM387 241c0 86 -20 191 -125 191c-110 0 -137 -98 -137 -191c0 -97 19 -184 133 -184c106 0 129 96 129 184zM326 680l-141 -146l-36 28l117 167zM453 680
l-141 -146l-36 28l117 167z" />
    <glyph glyph-name="Racute" unicode="&#x154;" horiz-adv-x="618" 
d="M458 494c0 93 -64 126 -132 126h-136v-257h137c55 0 131 22 131 131zM338 301h-148v-237h80v-64h-228v64h63v556h-63v65h292c125 0 211 -61 211 -189c0 -65 -29 -155 -128 -183l114 -251l72 -10v-47c-24 -9 -59 -14 -80 -14c-41 0 -56 20 -71 53zM410 868l-145 -139
l-35 30l123 161z" />
    <glyph glyph-name="racute" unicode="&#x155;" horiz-adv-x="384" 
d="M182 420h2c39 33 115 80 175 80c16 0 25 -7 25 -28c0 -22 -10 -59 -27 -79l-173 -9v-322h77v-62h-230v62h71v362h-70v64h150v-68zM334 674l-145 -139l-35 29l123 162z" />
    <glyph glyph-name="Rcommaaccent" unicode="&#x156;" horiz-adv-x="618" 
d="M458 494c0 93 -64 126 -132 126h-136v-257h137c55 0 131 22 131 131zM338 301h-148v-237h80v-64h-228v64h63v556h-63v65h292c125 0 211 -61 211 -189c0 -65 -29 -155 -128 -183l114 -251l72 -10v-47c-24 -9 -59 -14 -80 -14c-41 0 -56 20 -71 53zM259 -90
c0 27 23 50 53 50c33 0 56 -26 55 -60c-2 -50 -32 -95 -83 -121l-20 25c20 18 30 39 30 59c-22 6 -35 24 -35 47z" />
    <glyph glyph-name="rcommaaccent" unicode="&#x157;" horiz-adv-x="384" 
d="M182 420h2c39 33 115 80 175 80c16 0 25 -7 25 -28c0 -22 -10 -59 -27 -79l-173 -9v-322h77v-62h-230v62h71v362h-70v64h150v-68zM94 -90c0 27 23 50 53 50c33 0 56 -26 55 -60c-2 -50 -32 -95 -83 -121l-20 25c20 18 30 39 30 59c-22 6 -35 24 -35 47z" />
    <glyph glyph-name="Rcaron" unicode="&#x158;" horiz-adv-x="618" 
d="M458 494c0 93 -64 126 -132 126h-136v-257h137c55 0 131 22 131 131zM338 301h-148v-237h80v-64h-228v64h63v556h-63v65h292c125 0 211 -61 211 -189c0 -65 -29 -155 -128 -183l114 -251l72 -10v-47c-24 -9 -59 -14 -80 -14c-41 0 -56 20 -71 53zM448 900l24 -29
l-152 -135h-54l-151 137l23 27l155 -100z" />
    <glyph glyph-name="rcaron" unicode="&#x159;" horiz-adv-x="384" 
d="M182 420h2c39 33 115 80 175 80c16 0 25 -7 25 -28c0 -22 -10 -59 -27 -79l-173 -9v-322h77v-62h-230v62h71v362h-70v64h150v-68zM340 715l24 -29l-152 -141h-54l-151 143l23 28l155 -100z" />
    <glyph glyph-name="Sacute" unicode="&#x15a;" horiz-adv-x="546" 
d="M35 178h64l1 -84c51 -26 104 -33 152 -33c111 0 168 53 168 126c0 87 -64 103 -157 129c-116 32 -218 67 -218 184c0 125 103 194 228 194c56 0 133 -8 189 -41l2 -134h-65l-2 87c-31 14 -86 19 -125 19c-77 0 -140 -35 -140 -114c0 -69 71 -97 156 -119
c106 -27 221 -60 221 -203c0 -140 -109 -197 -251 -197c-74 0 -156 13 -222 51zM418 866l-145 -139l-35 30l123 161z" />
    <glyph glyph-name="sacute" unicode="&#x15b;" horiz-adv-x="437" 
d="M29 145h63l3 -66c29 -15 72 -22 104 -22c66 0 119 18 119 74c0 53 -49 70 -105 86c-85 24 -174 46 -174 143c0 99 80 138 180 138c54 0 108 -11 148 -36l3 -114h-65l-2 69c-24 10 -53 15 -81 15c-56 0 -100 -19 -100 -71c0 -43 65 -61 103 -72c81 -24 175 -45 175 -158
c0 -96 -84 -139 -195 -139c-57 0 -127 9 -174 38zM341 674l-145 -139l-35 29l123 162z" />
    <glyph glyph-name="Scircumflex" unicode="&#x15c;" horiz-adv-x="546" 
d="M35 178h64l1 -84c51 -26 104 -33 152 -33c111 0 168 53 168 126c0 87 -64 103 -157 129c-116 32 -218 67 -218 184c0 125 103 194 228 194c56 0 133 -8 189 -41l2 -134h-65l-2 87c-31 14 -86 19 -125 19c-77 0 -140 -35 -140 -114c0 -69 71 -97 156 -119
c106 -27 221 -60 221 -203c0 -140 -109 -197 -251 -197c-74 0 -156 13 -222 51zM458 759l-25 -29l-155 99l-154 -100l-23 28l150 138h55z" />
    <glyph glyph-name="scircumflex" unicode="&#x15d;" horiz-adv-x="437" 
d="M29 145h63l3 -66c29 -15 72 -22 104 -22c66 0 119 18 119 74c0 53 -49 70 -105 86c-85 24 -174 46 -174 143c0 99 80 138 180 138c54 0 108 -11 148 -36l3 -114h-65l-2 69c-24 10 -53 15 -81 15c-56 0 -100 -19 -100 -71c0 -43 65 -61 103 -72c81 -24 175 -45 175 -158
c0 -96 -84 -139 -195 -139c-57 0 -127 9 -174 38zM390 561l-25 -29l-155 99l-154 -100l-23 28l150 143h55z" />
    <glyph glyph-name="Scedilla" unicode="&#x15e;" horiz-adv-x="546" 
d="M35 178h64l1 -84c51 -26 104 -33 152 -33c111 0 168 53 168 126c0 87 -64 103 -157 129c-116 32 -218 67 -218 184c0 125 103 194 228 194c56 0 133 -8 189 -41l2 -134h-65l-2 87c-31 14 -86 19 -125 19c-77 0 -140 -35 -140 -114c0 -69 71 -97 156 -119
c106 -27 221 -60 221 -203c0 -133 -98 -191 -229 -196c-14 -18 -29 -37 -42 -56c65 -3 109 -28 109 -79c0 -56 -56 -102 -179 -102v36c71 7 118 25 118 59c0 36 -53 41 -101 41l-13 19l62 82c-67 2 -139 16 -198 50z" />
    <glyph glyph-name="scedilla" unicode="&#x15f;" horiz-adv-x="437" 
d="M29 145h63l3 -66c29 -15 72 -22 104 -22c66 0 119 18 119 74c0 53 -49 70 -105 86c-85 24 -174 46 -174 143c0 99 80 138 180 138c54 0 108 -11 148 -36l3 -114h-65l-2 69c-24 10 -53 15 -81 15c-56 0 -100 -19 -100 -71c0 -43 65 -61 103 -72c81 -24 175 -45 175 -158
c0 -85 -66 -129 -158 -137c-15 -19 -29 -38 -43 -57c65 -3 109 -28 109 -79c0 -56 -56 -102 -179 -102v36c71 7 118 25 118 59c0 36 -53 41 -101 41l-13 19c21 27 41 55 62 81c-55 1 -120 10 -164 38z" />
    <glyph glyph-name="Tcommaaccent" unicode="&#x162;" horiz-adv-x="554" 
d="M403 0h-249v63h82v557h-157v-106h-65v171h527v-171h-65v106h-156v-557h83v-63zM227 -90c0 27 23 50 53 50c33 0 56 -26 55 -60c-2 -50 -32 -95 -83 -121l-20 25c20 18 30 39 30 59c-22 6 -35 24 -35 47z" />
    <glyph glyph-name="tcommaaccent" unicode="&#x163;" horiz-adv-x="369" 
d="M119 603l52 9v-124h147v-64h-148v-280c0 -47 7 -80 67 -80c24 0 55 4 93 15l15 -57c-36 -17 -84 -27 -124 -27c-94 0 -131 40 -131 120v309h-71v48l74 23zM154 -90c0 27 23 50 53 50c33 0 56 -26 55 -60c-2 -50 -32 -95 -83 -121l-20 25c20 18 30 39 30 59
c-22 6 -35 24 -35 47z" />
    <glyph glyph-name="Tcaron" unicode="&#x164;" horiz-adv-x="554" 
d="M403 0h-249v63h82v557h-157v-106h-65v171h527v-171h-65v106h-156v-557h83v-63zM435 900l24 -29l-152 -135h-54l-151 137l23 27l155 -100z" />
    <glyph glyph-name="tcaron" unicode="&#x165;" horiz-adv-x="440" 
d="M314 648c0 27 23 50 53 50c33 0 56 -26 55 -60c-2 -50 -32 -95 -83 -121l-20 25c20 18 30 39 30 59c-22 6 -35 24 -35 47zM119 603l52 9v-124h147v-64h-148v-280c0 -47 7 -80 67 -80c24 0 55 4 93 15l15 -57c-36 -17 -84 -27 -124 -27c-94 0 -131 40 -131 120v309h-71v48
l74 23z" />
    <glyph glyph-name="Tbar" unicode="&#x166;" horiz-adv-x="554" 
d="M403 0h-249v61h82v279h-158v52h158v231h-155v-102h-65v164h522v-164h-65v102h-153v-231h154v-52h-154v-279h83v-61z" />
    <glyph glyph-name="tbar" unicode="&#x167;" horiz-adv-x="369" 
d="M170 429v-83h144v-51h-144v-162c1 -41 15 -73 67 -73c24 0 53 6 92 16c5 -18 8 -36 13 -55c-36 -16 -82 -26 -122 -26c-80 0 -131 33 -131 123v177h-69v51h69v83h-71v43l75 22l25 109l52 8v-123h147v-59h-147z" />
    <glyph glyph-name="Utilde" unicode="&#x168;" horiz-adv-x="706" 
d="M613 620v-374c0 -153 -84 -254 -261 -254c-184 0 -261 96 -261 254v374h-60v65h214v-65h-70v-370c0 -125 64 -188 177 -188c114 0 178 62 178 188v370h-69v65h214v-65h-62zM448 760c-60 0 -108 39 -145 39l-57 -39l-28 22c16 45 48 75 87 75c47 0 108 -39 144 -39l57 40
l28 -22c-15 -45 -47 -76 -86 -76z" />
    <glyph glyph-name="utilde" unicode="&#x169;" horiz-adv-x="575" 
d="M235 -11c-129 0 -141 82 -141 154v281h-73v64h154v-323c0 -64 7 -105 77 -105c37 0 97 16 147 61v303h-67v64h149v-426h71v-49c-30 -13 -65 -18 -86 -18c-42 0 -62 13 -66 62c-62 -57 -128 -68 -165 -68zM360 572c-60 0 -108 39 -145 39l-57 -39l-28 22
c16 45 48 75 87 75c47 0 108 -39 144 -39l57 40l28 -22c-15 -45 -47 -76 -86 -76z" />
    <glyph glyph-name="Umacron" unicode="&#x16a;" horiz-adv-x="706" 
d="M613 620v-374c0 -153 -84 -254 -261 -254c-184 0 -261 96 -261 254v374h-60v65h214v-65h-70v-370c0 -125 64 -188 177 -188c114 0 178 62 178 188v370h-69v65h214v-65h-62zM196 747v64h326v-64h-326z" />
    <glyph glyph-name="umacron" unicode="&#x16b;" horiz-adv-x="575" 
d="M235 -11c-129 0 -141 82 -141 154v281h-73v64h154v-323c0 -64 7 -105 77 -105c37 0 97 16 147 61v303h-67v64h149v-426h71v-49c-30 -13 -65 -18 -86 -18c-42 0 -62 13 -66 62c-62 -57 -128 -68 -165 -68zM118 592v64h329v-64h-329z" />
    <glyph glyph-name="Ubreve" unicode="&#x16c;" horiz-adv-x="706" 
d="M613 620v-374c0 -153 -84 -254 -261 -254c-184 0 -261 96 -261 254v374h-60v65h214v-65h-70v-370c0 -125 64 -188 177 -188c114 0 178 62 178 188v370h-69v65h214v-65h-62zM346 725c-70 0 -121 56 -162 112l47 34c36 -50 80 -83 118 -83c25 0 69 4 143 76l27 -25
c-58 -84 -120 -114 -173 -114z" />
    <glyph glyph-name="ubreve" unicode="&#x16d;" horiz-adv-x="575" 
d="M235 -11c-129 0 -141 82 -141 154v281h-73v64h154v-323c0 -64 7 -105 77 -105c37 0 97 16 147 61v303h-67v64h149v-426h71v-49c-30 -13 -65 -18 -86 -18c-42 0 -62 13 -66 62c-62 -57 -128 -68 -165 -68zM272 551c-70 0 -121 56 -162 112l47 34c36 -50 80 -83 118 -83
c25 0 69 4 143 76l27 -25c-58 -84 -120 -114 -173 -114z" />
    <glyph glyph-name="Uring" unicode="&#x16e;" horiz-adv-x="706" 
d="M613 620v-374c0 -153 -84 -254 -261 -254c-184 0 -261 96 -261 254v374h-60v65h214v-65h-70v-370c0 -125 64 -188 177 -188c114 0 178 62 178 188v370h-69v65h214v-65h-62zM356 713c-61 0 -109 47 -109 105c0 56 48 105 109 105c60 0 106 -48 106 -105
c0 -59 -47 -105 -106 -105zM356 876c-34 0 -60 -28 -60 -61c0 -30 25 -58 60 -58c32 0 57 28 57 58c0 32 -25 61 -57 61z" />
    <glyph glyph-name="uring" unicode="&#x16f;" horiz-adv-x="575" 
d="M235 -11c-129 0 -141 82 -141 154v281h-73v64h154v-323c0 -64 7 -105 77 -105c37 0 97 16 147 61v303h-67v64h149v-426h71v-49c-30 -13 -65 -18 -86 -18c-42 0 -62 13 -66 62c-62 -57 -128 -68 -165 -68zM272 551c-61 0 -109 47 -109 105c0 56 48 105 109 105
c60 0 106 -48 106 -105c0 -59 -47 -105 -106 -105zM272 714c-34 0 -60 -28 -60 -61c0 -30 25 -58 60 -58c32 0 57 28 57 58c0 32 -25 61 -57 61z" />
    <glyph glyph-name="Uhungarumlaut" unicode="&#x170;" horiz-adv-x="706" 
d="M613 620v-374c0 -153 -84 -254 -261 -254c-184 0 -261 96 -261 254v374h-60v65h214v-65h-70v-370c0 -125 64 -188 177 -188c114 0 178 62 178 188v370h-69v65h214v-65h-62zM569 877l-141 -146l-36 28l117 166zM445 877l-140 -146l-37 28l117 166z" />
    <glyph glyph-name="uhungarumlaut" unicode="&#x171;" horiz-adv-x="575" 
d="M235 -11c-129 0 -141 82 -141 154v281h-73v64h154v-323c0 -64 7 -105 77 -105c37 0 97 16 147 61v303h-67v64h149v-426h71v-49c-30 -13 -65 -18 -86 -18c-42 0 -62 13 -66 62c-62 -57 -128 -68 -165 -68zM468 680l-141 -146l-36 28l117 167zM341 680l-141 -146l-36 28
l117 167z" />
    <glyph glyph-name="Uogonek" unicode="&#x172;" horiz-adv-x="706" 
d="M613 620v-374c0 -146 -76 -244 -235 -253c-24 -34 -40 -74 -40 -102c0 -39 23 -51 59 -51c26 0 54 7 72 11l6 -32c-32 -16 -71 -26 -108 -26c-62 0 -96 27 -96 72c0 32 12 79 61 127c-170 7 -241 102 -241 254v374h-60v65h214v-65h-70v-370c0 -125 64 -188 177 -188
c114 0 178 62 178 188v370h-69v65h214v-65h-62z" />
    <glyph glyph-name="uogonek" unicode="&#x173;" horiz-adv-x="575" 
d="M235 -11c-129 0 -141 82 -141 154v281h-73v64h154v-323c0 -64 7 -105 77 -105c37 0 97 16 147 61v303h-67v64h149v-426h71v-49c-27 -12 -57 -17 -78 -18c-21 -32 -35 -69 -35 -95c0 -39 23 -51 59 -51c26 0 54 7 72 11l6 -32c-32 -16 -71 -26 -108 -26
c-62 0 -96 27 -96 72c0 31 11 79 60 126c-19 7 -30 24 -32 57c-62 -57 -128 -68 -165 -68z" />
    <glyph glyph-name="Wcircumflex" unicode="&#x174;" horiz-adv-x="933" 
d="M716 619v66h212v-66h-63c-42 -173 -114 -449 -155 -619h-100l-110 375l-29 100h-2l-30 -104l-109 -371h-102l-158 619h-61v66h217v-66h-68l99 -409l27 -119h2l32 120l110 379l-10 29h-69l-1 66h227l1 -66h-71l125 -417l30 -107h2l27 119l93 405h-66zM649 759l-25 -29
l-155 99l-154 -100l-23 28l150 138h55z" />
    <glyph glyph-name="wcircumflex" unicode="&#x175;" horiz-adv-x="806" 
d="M564 64h4l37 144l60 216h-64v64h191v-64h-49l-122 -424h-106l-62 168l-47 139h-5l-48 -139l-60 -168h-110l-122 424h-54v64h117l75 -267l43 -157h5l46 139l64 188l-12 33h-69v64h218v-64h-58l79 -221zM564 561l-25 -29l-155 99l-154 -100l-23 28l150 143h55z" />
    <glyph glyph-name="Ycircumflex" unicode="&#x176;" horiz-adv-x="587" 
d="M376 619v66h201v-66h-57l-186 -321v-235h81v-63h-247v63h81v232l-181 324h-57v66h204v-66h-59l136 -256h4l140 256h-60zM473 759l-25 -29l-155 99l-154 -100l-23 28l150 138h55z" />
    <glyph glyph-name="ycircumflex" unicode="&#x177;" horiz-adv-x="533" 
d="M264 55c3 8 20 64 41 127l80 242h-62v64h187v-64h-50l-183 -546c-25 -71 -61 -92 -131 -92c-16 0 -56 3 -102 17l14 72c31 -6 58 -11 81 -11c36 0 57 5 72 48l33 91h-42l-134 421h-50v64h110l101 -327l30 -106h5zM441 561l-25 -29l-155 99l-154 -100l-23 28l150 143h55z
" />
    <glyph glyph-name="Zacute" unicode="&#x179;" horiz-adv-x="532" 
d="M493 621l-373 -557h327v112h66v-176h-491v63l372 557h-282v-100h-66v165h447v-64zM422 868l-145 -139l-35 30l123 161z" />
    <glyph glyph-name="zacute" unicode="&#x17a;" horiz-adv-x="447" 
d="M412 431l-288 -369h232v77h64v-139h-397v57l288 367h-204v-79h-62v143h367v-57zM337 674l-145 -139l-35 29l123 162z" />
    <glyph glyph-name="Zdotaccent" unicode="&#x17b;" horiz-adv-x="532" 
d="M493 621l-373 -557h327v112h66v-176h-491v63l372 557h-282v-100h-66v165h447v-64zM338 811c0 -31 -26 -56 -57 -56s-55 25 -55 56s24 57 55 57s57 -26 57 -57z" />
    <glyph glyph-name="zdotaccent" unicode="&#x17c;" horiz-adv-x="447" 
d="M412 431l-288 -369h232v77h64v-139h-397v57l288 367h-204v-79h-62v143h367v-57zM289 619c0 -31 -26 -56 -57 -56s-55 25 -55 56s24 57 55 57s57 -26 57 -57z" />
    <glyph glyph-name="Ohorn" unicode="&#x1a0;" horiz-adv-x="702" 
d="M628 340c0 -198 -96 -348 -284 -348c-212 0 -294 135 -294 345c0 190 77 358 294 358c106 0 175 -40 218 -102h11c52 0 74 33 74 85v73h55v-80c0 -64 -22 -123 -108 -130c24 -59 34 -129 34 -201zM539 337c0 135 -30 294 -195 294c-166 0 -206 -146 -206 -295
c0 -182 60 -279 206 -279c134 0 195 125 195 280z" />
    <glyph glyph-name="ohorn" unicode="&#x1a1;" horiz-adv-x="548" 
d="M471 243c0 -125 -51 -251 -221 -251c-159 0 -210 117 -210 249c0 130 60 257 219 257c82 0 135 -32 168 -81c46 3 65 35 65 85v73h56v-81c0 -60 -20 -116 -95 -128c12 -37 18 -81 18 -123zM387 241c0 87 -20 194 -128 194s-134 -102 -134 -194c0 -97 20 -186 134 -186
c106 0 128 98 128 186z" />
    <glyph glyph-name="Uhorn" unicode="&#x1af;" horiz-adv-x="777" 
d="M613 625v-44h33c52 0 74 22 74 74v97h55v-100c0 -62 -25 -124 -126 -124h-36v-282c0 -153 -84 -254 -261 -254c-184 0 -261 96 -261 254v379h-60v60h214v-60h-70v-380c0 -125 64 -188 177 -188c114 0 178 62 178 188v380h-69v60h202v-60h-50z" />
    <glyph glyph-name="uhorn" unicode="&#x1b0;" horiz-adv-x="615" 
d="M235 -11c-129 0 -141 82 -141 154v286h-73v59h154v-323c0 -65 10 -108 75 -108c38 0 98 15 149 61v311h-67v59c50 0 98 1 148 1l1 -1c0 -24 -1 -47 -1 -70h4c52 0 73 26 73 78v80h56v-81c0 -67 -25 -130 -126 -130h-7v-303h68l4 -49c-30 -13 -65 -18 -86 -18
c-42 0 -62 13 -66 62c-62 -57 -128 -68 -165 -68z" />
    <glyph glyph-name="AEacute" unicode="&#x1fc;" horiz-adv-x="954" 
d="M502 61v146h-258l-90 -146h73v-61h-224v61h61l351 561h-56v62h539v-155h-65v94h-246v-235l237 5v-67l-237 4v-269h260v96h67v-157h-479v61h67zM497 617l-216 -347h221v347h-5zM717 868l-145 -139l-35 30l123 161z" />
    <glyph glyph-name="aeacute" unicode="&#x1fd;" horiz-adv-x="792" 
d="M565 499c189 0 193 -173 193 -233v-39h-324c-1 -91 29 -170 138 -170c57 0 99 11 154 34l19 -52c-57 -31 -115 -45 -179 -45c-90 0 -141 28 -173 75c-101 -77 -180 -77 -215 -77c-116 0 -145 85 -145 140c0 84 64 144 177 145l143 1v41c0 84 -35 111 -115 111
c-51 0 -104 -10 -152 -27l-18 55c55 25 126 39 187 39c68 0 126 -22 150 -78c31 46 80 80 160 80zM211 52c36 0 113 22 159 62c-12 33 -17 71 -18 113h-129c-68 0 -103 -34 -103 -86c0 -58 28 -89 91 -89zM565 436c-93 0 -123 -76 -129 -158h245c0 94 -27 158 -116 158z
M557 674l-145 -139l-35 29l123 162z" />
    <glyph glyph-name="Oslashacute" unicode="&#x1fe;" horiz-adv-x="678" 
d="M628 340c0 -198 -96 -348 -284 -348c-89 0 -154 23 -201 66l-48 -64h-48l70 92c-47 60 -67 146 -67 251c0 190 77 358 294 358c83 0 143 -24 187 -65l50 67h50l-73 -95c51 -67 70 -163 70 -262zM539 337c0 66 -8 139 -37 195l-310 -413c34 -42 83 -62 152 -62
c134 0 195 125 195 280zM138 336c0 -77 10 -136 34 -180l310 412c-30 38 -74 63 -138 63c-166 0 -206 -146 -206 -295zM495 868l-145 -139l-35 30l123 161z" />
    <glyph glyph-name="oslashacute" unicode="&#x1ff;" horiz-adv-x="511" 
d="M259 498c61 0 105 -18 138 -48l36 47c13 0 27 1 40 1l-54 -70c38 -49 52 -117 52 -185c0 -126 -51 -250 -222 -250c-60 0 -105 15 -137 43l-33 -42c-15 0 -29 -1 -43 -1l53 67c-36 46 -49 112 -49 181c0 130 60 257 219 257zM386 241c0 40 -5 86 -22 122l-203 -270
c20 -23 51 -38 98 -38c106 0 127 98 127 186zM259 434c-107 0 -134 -99 -135 -190c0 -41 5 -86 20 -119l204 268c-19 25 -47 41 -89 41zM403 674l-145 -139l-35 29l123 162z" />
    <glyph glyph-name="Scommaaccent" unicode="&#x218;" horiz-adv-x="546" 
d="M35 178h64l1 -84c51 -26 104 -33 152 -33c111 0 168 53 168 126c0 87 -64 103 -157 129c-116 32 -218 67 -218 184c0 125 103 194 228 194c56 0 133 -8 189 -41l2 -134h-65l-2 87c-31 14 -86 19 -125 19c-77 0 -140 -35 -140 -114c0 -69 71 -97 156 -119
c106 -27 221 -60 221 -203c0 -140 -109 -197 -251 -197c-74 0 -156 13 -222 51zM210 -90c0 27 23 50 53 50c33 0 56 -26 55 -60c-2 -50 -32 -95 -83 -121l-20 25c20 18 30 39 30 59c-22 6 -35 24 -35 47z" />
    <glyph glyph-name="scommaaccent" unicode="&#x219;" horiz-adv-x="437" 
d="M29 145h63l3 -66c29 -15 72 -22 104 -22c66 0 119 18 119 74c0 53 -49 70 -105 86c-85 24 -174 46 -174 143c0 99 80 138 180 138c54 0 108 -11 148 -36l3 -114h-65l-2 69c-24 10 -53 15 -81 15c-56 0 -100 -19 -100 -71c0 -43 65 -61 103 -72c81 -24 175 -45 175 -158
c0 -96 -84 -139 -195 -139c-57 0 -127 9 -174 38zM159 -90c0 27 23 50 53 50c33 0 56 -26 55 -60c-2 -50 -32 -95 -83 -121l-20 25c20 18 30 39 30 59c-22 6 -35 24 -35 47z" />
    <glyph glyph-name="schwa" unicode="&#x259;" horiz-adv-x="485" 
d="M239 57c93 0 124 75 130 158h-246c0 -94 27 -158 116 -158zM239 -6c-189 0 -194 173 -194 233v37h325c1 92 -29 172 -138 172c-57 0 -99 -11 -154 -34l-20 51c58 32 115 46 180 46c174 0 215 -113 215 -249c0 -87 -29 -256 -214 -256z" />
    <glyph glyph-name="afii10023" unicode="&#x401;" horiz-adv-x="575" 
d="M446 771c0 -26 -21 -44 -49 -44c-24 0 -42 18 -42 44c0 24 19 44 42 44c28 0 49 -18 49 -44zM259 771c0 -26 -20 -44 -46 -44c-27 0 -46 18 -46 44c0 24 21 44 44 44c28 0 48 -18 48 -44zM547 0h-506v64h67v556h-64v64h487v-162h-65v98h-273v-232l260 5v-67l-260 4v-266
h287v100h67v-164z" />
    <glyph glyph-name="afii10051" unicode="&#x402;" horiz-adv-x="758" 
d="M717 214c0 -150 -96 -258 -194 -318l-33 44c82 63 140 148 140 260c0 107 -55 153 -143 153c-45 0 -104 -11 -158 -33v-259h75v-61h-231v61h72v562h-155v-93h-65v154h592v-154h-66v93h-222v-242c65 27 132 39 182 39c136 0 206 -86 206 -206z" />
    <glyph glyph-name="afii10052" unicode="&#x403;" horiz-adv-x="547" 
d="M435 869l-145 -139l-35 30l123 161zM289 0h-248v61h67v562h-64v61h485v-155h-66v94h-270v-562h96v-61z" />
    <glyph glyph-name="afii10053" unicode="&#x404;" horiz-adv-x="572" 
d="M524 85l15 -61c-47 -19 -132 -31 -195 -31c-218 0 -294 140 -294 345c0 147 58 357 300 357c74 0 133 -12 175 -27v-156h-66v102c-27 8 -69 14 -107 14c-135 0 -201 -97 -213 -240c88 1 177 3 266 5v-67c-90 1 -178 3 -267 3v-2c3 -147 45 -265 221 -265
c37 0 110 7 165 23z" />
    <glyph glyph-name="afii10054" unicode="&#x405;" horiz-adv-x="546" 
d="M35 178h64l1 -84c51 -26 104 -33 152 -33c111 0 168 53 168 126c0 87 -64 103 -157 129c-116 32 -218 67 -218 184c0 125 103 194 228 194c56 0 133 -8 189 -41l2 -134h-65l-2 87c-31 14 -86 19 -125 19c-77 0 -140 -35 -140 -114c0 -69 71 -97 156 -119
c106 -27 221 -60 221 -203c0 -140 -109 -197 -251 -197c-74 0 -156 13 -222 51z" />
    <glyph glyph-name="afii10055" unicode="&#x406;" horiz-adv-x="353" 
d="M283 0h-213v63h63v557h-63v65h213v-65h-65v-557h65v-63z" />
    <glyph glyph-name="afii10056" unicode="&#x407;" horiz-adv-x="353" 
d="M315 771c0 -26 -21 -44 -49 -44c-24 0 -42 18 -42 44c0 24 19 44 42 44c28 0 49 -18 49 -44zM128 771c0 -26 -20 -44 -46 -44c-27 0 -46 18 -46 44c0 24 21 44 44 44c28 0 48 -18 48 -44zM283 0h-213v63h63v557h-63v65h213v-65h-65v-557h65v-63z" />
    <glyph glyph-name="afii10057" unicode="&#x408;" horiz-adv-x="359" 
d="M61 620v65h246v-65h-76l-1 -486c0 -171 -81 -258 -232 -310l-25 58c141 77 172 134 172 254v484h-84z" />
    <glyph glyph-name="afii10058" unicode="&#x409;" horiz-adv-x="961" 
d="M608 685v-62h-71v-221h161c148 0 223 -94 223 -203c0 -135 -91 -199 -208 -199h-328v61h67v562l-191 -1v-62c0 -296 -20 -535 -232 -574l-17 62c151 51 170 207 170 495v79h-87v63h513zM689 341h-152v-280h163c74 0 134 46 134 139c0 99 -73 141 -145 141z" />
    <glyph glyph-name="afii10059" unicode="&#x40a;" horiz-adv-x="978" 
d="M626 685v-62h-72v-222h161c149 0 223 -93 223 -202c0 -134 -90 -199 -208 -199h-327v61h66v279h-277v-279h62v-61h-212v61h64v562h-64v61h212v-61h-62v-224h277v224h-67v62h224zM706 340h-152v-279h163c75 0 135 45 135 138c0 99 -73 141 -146 141z" />
    <glyph glyph-name="afii10060" unicode="&#x40b;" horiz-adv-x="818" 
d="M712 61h64v-61h-211v61h62v182c0 84 -53 111 -133 111c-55 0 -117 -16 -161 -36v-257h72v-61h-228v61h73v562h-157v-93h-65v154h592v-154h-66v93h-221v-240c64 24 129 36 184 36c112 0 195 -48 195 -156v-202z" />
    <glyph glyph-name="afii10061" unicode="&#x40c;" horiz-adv-x="629" 
d="M189 623v-562h64v-61h-212v61h63v562h-63v61h212v-61h-64zM303 362l220 -295l92 -9v-50c-26 -10 -62 -16 -85 -16c-33 -1 -57 9 -77 37l-230 316v24l209 279c23 33 44 44 73 43c29 0 57 -7 83 -20l-6 -50l-87 -9zM465 871l-145 -139l-35 30l123 161z" />
    <glyph glyph-name="afii10062" unicode="&#x40e;" horiz-adv-x="588" 
d="M7 685h201v-62h-63l88 -227l64 -174h5l61 174l84 227h-65v62h197v-62h-51l-200 -527c-28 -73 -63 -102 -125 -102c-18 0 -52 -1 -115 17l14 58c33 -7 60 -12 82 -12c33 0 55 15 73 63l17 47h-30l-184 456h-53v62zM291 730c-70 0 -121 55 -162 112l47 33
c36 -49 80 -83 119 -83c24 0 68 5 142 77l27 -25c-58 -84 -120 -114 -173 -114z" />
    <glyph glyph-name="afii10145" unicode="&#x40f;" horiz-adv-x="703" 
d="M449 683h213v-60h-65v-562h65v-61h-276v-172h-68v172h-278v61h65v562h-65v60h213v-60h-63v-562h321v562h-62v60z" />
    <glyph glyph-name="afii10017" unicode="&#x410;" horiz-adv-x="668" 
d="M437 63h69l-40 126h-267c-10 -31 -27 -85 -39 -126h71v-63h-211v63h57c64 193 145 434 206 622h106c65 -201 139 -422 204 -622h56v-63h-212v63zM446 253c-29 97 -61 194 -91 291c-6 22 -13 44 -20 67h-2c-1 -5 -4 -17 -21 -68c-21 -65 -65 -201 -91 -290h225z" />
    <glyph glyph-name="afii10018" unicode="&#x411;" horiz-adv-x="614" 
d="M507 684v-146h-65v85h-252v-221h162c154 0 222 -85 222 -194c0 -135 -88 -208 -207 -208h-325v61h64v562h-64v61h465zM343 341h-153v-280h166c74 0 133 52 133 144c0 99 -68 136 -146 136z" />
    <glyph glyph-name="afii10019" unicode="&#x412;" horiz-adv-x="619" 
d="M109 620h-65v64h300c142 0 213 -68 213 -175c0 -42 -13 -114 -95 -151c87 -26 116 -100 116 -170c0 -114 -90 -188 -195 -188h-343v63h69v557zM492 193c0 68 -45 130 -138 130h-160v-260h160c100 0 138 61 138 130zM472 502c0 69 -40 118 -135 118h-143v-233h143
c87 0 135 46 135 115z" />
    <glyph glyph-name="afii10020" unicode="&#x413;" horiz-adv-x="547" 
d="M289 0h-248v61h67v562h-64v61h485v-155h-66v94h-270v-562h96v-61z" />
    <glyph glyph-name="afii10021" unicode="&#x414;" horiz-adv-x="705" 
d="M586 0h-491v-167h-67v228h54c86 77 119 296 119 514v48h-69v61h518v-61h-65v-562h68v-228h-67v167zM276 623v-52c0 -245 -28 -402 -103 -510h328v562h-225z" />
    <glyph glyph-name="afii10022" unicode="&#x415;" horiz-adv-x="575" 
d="M547 0h-506v64h67v556h-64v64h487v-162h-65v98h-273v-232l260 5v-67l-260 4v-266h287v100h67v-164z" />
    <glyph glyph-name="afii10024" unicode="&#x416;" horiz-adv-x="922" 
d="M504 623v-562h64v-61h-210v61h62v562h-62v61h210v-61h-64zM614 362l202 -295l92 -9v-50c-26 -10 -62 -16 -85 -16c-33 -1 -57 9 -77 37l-212 316v24l209 279c23 33 44 44 73 43c29 0 57 -7 83 -20l-6 -50l-87 -9zM108 67l202 295l-192 250l-87 9l-6 50c26 13 54 20 83 20
c29 1 50 -10 73 -43l209 -279v-24l-212 -316c-20 -28 -44 -38 -77 -37c-23 0 -59 6 -85 16v50z" />
    <glyph glyph-name="afii10025" unicode="&#x417;" horiz-adv-x="568" 
d="M126 604v-106h-67v154c55 27 138 43 210 43c127 0 231 -42 231 -165c0 -57 -39 -124 -115 -151c79 -24 133 -81 133 -169c0 -144 -123 -214 -266 -214c-73 0 -157 11 -219 39l20 59c71 -20 132 -30 171 -30c137 0 207 52 207 146c0 84 -75 132 -173 132h-83v60h80
c101 0 157 59 157 122c0 78 -62 106 -151 106c-48 0 -97 -10 -135 -26z" />
    <glyph glyph-name="afii10026" unicode="&#x418;" horiz-adv-x="720" 
d="M452 623v60h231v-60h-68v-562h68v-61h-220v61h69v442h-2l-339 -412v-30h67v-61h-219v61h69v562h-67v60h219v-60h-69v-439h2c114 137 227 274 341 410v29h-82z" />
    <glyph glyph-name="afii10027" unicode="&#x419;" horiz-adv-x="720" 
d="M452 623v60h231v-60h-68v-562h68v-61h-220v61h69v442h-2l-339 -412v-30h67v-61h-219v61h69v562h-67v60h219v-60h-69v-439h2c114 137 227 274 341 410v29h-82zM358 770c-70 0 -121 56 -162 112l47 34c36 -50 80 -83 118 -83c25 0 69 4 143 76l27 -25
c-58 -84 -120 -114 -173 -114z" />
    <glyph glyph-name="afii10028" unicode="&#x41a;" horiz-adv-x="629" 
d="M189 623v-562h64v-61h-212v61h63v562h-63v61h212v-61h-64zM303 362l220 -295l92 -9v-50c-26 -10 -62 -16 -85 -16c-33 -1 -57 9 -77 37l-230 316v24l209 279c23 33 44 44 73 43c29 0 57 -7 83 -20l-6 -50l-87 -9z" />
    <glyph glyph-name="afii10029" unicode="&#x41b;" horiz-adv-x="682" 
d="M632 0h-212v62h61v560h-220v-62c0 -296 -20 -535 -232 -574l-17 62c151 51 170 207 170 495v79h-87v63h537v-62h-65v-561h65v-62z" />
    <glyph glyph-name="afii10030" unicode="&#x41c;" horiz-adv-x="870" 
d="M433 164h5c17 39 34 83 51 121l175 399h172v-64h-62v-557h62v-63h-211v63h62v490h-2l-44 -103c-23 -53 -46 -106 -70 -159c-32 -71 -63 -142 -94 -214h-87c-58 128 -114 251 -170 380c-14 32 -29 64 -42 96h-3l-1 -490h65v-63h-210v63h64v557h-64v64h176
c41 -89 109 -245 167 -377c23 -52 44 -104 61 -143z" />
    <glyph glyph-name="afii10031" unicode="&#x41d;" horiz-adv-x="703" 
d="M662 0h-213v63h62v265h-321v-265h63v-63h-213v63h65v557h-65v64h213v-64h-63v-230h321v230h-62v64h213v-64h-65v-557h65v-63z" />
    <glyph glyph-name="afii10032" unicode="&#x41e;" horiz-adv-x="678" 
d="M628 340c0 -198 -96 -348 -284 -348c-212 0 -294 135 -294 345c0 190 77 358 294 358c220 0 284 -169 284 -355zM540 337c0 135 -31 290 -196 290c-166 0 -206 -142 -206 -291c0 -182 60 -276 206 -276c134 0 196 122 196 277z" />
    <glyph glyph-name="afii10033" unicode="&#x41f;" horiz-adv-x="703" 
d="M663 0h-214v62h62v559h-320v-559h63v-62h-213v62h64v559h-64v64h622v-64h-65v-559h65v-62z" />
    <glyph glyph-name="afii10034" unicode="&#x420;" horiz-adv-x="571" 
d="M542 486c0 -83 -46 -205 -203 -205h-149v-218h86v-63h-235v63h64v557h-64v65h288c125 0 213 -68 213 -199zM320 620h-130v-275h133c65 0 132 31 132 138c0 94 -52 137 -135 137z" />
    <glyph glyph-name="afii10035" unicode="&#x421;" horiz-adv-x="570" 
d="M460 508v106c-35 10 -75 13 -107 13c-150 0 -215 -115 -215 -289c0 -158 43 -275 222 -275c36 0 109 6 163 23l16 -62c-48 -19 -131 -32 -194 -32c-218 0 -295 141 -295 347c0 146 59 357 300 357c75 0 133 -13 174 -28v-160h-64z" />
    <glyph glyph-name="afii10036" unicode="&#x422;" horiz-adv-x="554" 
d="M403 0h-249v63h82v557h-157v-106h-65v171h527v-171h-65v106h-156v-557h83v-63z" />
    <glyph glyph-name="afii10037" unicode="&#x423;" horiz-adv-x="588" 
d="M7 685h201v-62h-63l88 -227l64 -174h5l61 174l84 227h-65v62h197v-62h-51l-200 -527c-28 -73 -63 -102 -125 -102c-18 0 -52 -1 -115 17l14 58c33 -7 60 -12 82 -12c33 0 55 15 73 63l17 47h-30l-184 456h-53v62z" />
    <glyph glyph-name="afii10038" unicode="&#x424;" horiz-adv-x="799" 
d="M759 347c0 -149 -136 -238 -313 -248v-39h65v-60h-211v60h62v39c-210 8 -322 88 -322 245c0 121 101 241 322 252v26h-62v62h211v-62h-65v-27c216 -8 313 -113 313 -248zM119 342c0 -129 94 -176 243 -185v382c-163 -10 -243 -85 -243 -197zM679 344
c0 97 -64 187 -233 195v-382c137 9 233 81 233 187z" />
    <glyph glyph-name="afii10039" unicode="&#x425;" horiz-adv-x="637" 
d="M390 619v66h215v-66h-65l-172 -264l181 -291h66l1 -64h-229v64h68l-142 232l-145 -232h71v-64h-220l-1 64h64l185 289l-162 266h-69l1 66h221v-66h-61l126 -209l131 209h-64z" />
    <glyph glyph-name="afii10040" unicode="&#x426;" horiz-adv-x="703" 
d="M596 623v-562h71v-227h-67v166h-561v61h65v562h-65v60h213v-60h-63v-562h321v562h-62v60h213v-60h-65z" />
    <glyph glyph-name="afii10041" unicode="&#x427;" horiz-adv-x="661" 
d="M619 61v-61h-213v61h64v244c-61 -21 -121 -33 -175 -33c-115 0 -203 45 -203 158v192h-64v61h212v-61h-64v-171c0 -85 52 -113 133 -113c56 0 115 14 161 33v251h-62v61h211v-61h-66v-561h66z" />
    <glyph glyph-name="afii10042" unicode="&#x428;" horiz-adv-x="959" 
d="M438 61v562h-60v61h207v-61h-62v-562h245v562h-61v61h211v-61h-65v-562h65v-61h-877v61h64v562h-64v61h211v-61h-63v-562h249z" />
    <glyph glyph-name="afii10043" unicode="&#x429;" horiz-adv-x="959" 
d="M438 61v562h-60v61h207v-61h-62v-562h245v562h-61v61h211v-61h-65v-562h70v-228h-67v167h-815v61h64v562h-64v61h211v-61h-63v-562h249z" />
    <glyph glyph-name="afii10044" unicode="&#x42a;" horiz-adv-x="766" 
d="M342 623v-221h161c148 0 223 -94 223 -203c0 -135 -91 -199 -208 -199h-330v61h69v562h-176v-93h-65v154h390v-61h-64zM494 341h-152v-280h163c74 0 134 46 134 139c0 99 -73 141 -145 141z" />
    <glyph glyph-name="afii10045" unicode="&#x42b;" horiz-adv-x="884" 
d="M347 341h-152v-280h163c74 0 135 46 135 139c0 99 -74 141 -146 141zM266 685v-62h-71v-221h161c149 0 223 -94 223 -203c0 -135 -91 -199 -208 -199h-330v61h69v562h-69v62h225zM839 0h-213v61h63v562h-63v61h213v-61h-65v-562h65v-61z" />
    <glyph glyph-name="afii10046" unicode="&#x42c;" horiz-adv-x="624" 
d="M352 341h-152v-280h163c74 0 135 46 135 139c0 99 -74 141 -146 141zM271 685v-62h-71v-221h161c149 0 223 -94 223 -203c0 -135 -91 -199 -208 -199h-330v61h69v562h-69v62h225z" />
    <glyph glyph-name="afii10047" unicode="&#x42d;" horiz-adv-x="571" 
d="M440 336l-264 -4v67l264 -5c-3 140 -61 234 -201 234c-39 0 -93 -7 -121 -15v-103h-65v156c43 15 111 29 185 29c242 0 290 -172 290 -332c0 -198 -90 -370 -313 -370c-63 0 -143 11 -188 30c5 21 13 40 18 61c54 -16 122 -24 159 -24c176 0 234 135 236 276z" />
    <glyph glyph-name="afii10048" unicode="&#x42e;" horiz-adv-x="937" 
d="M887 339c0 -198 -85 -346 -274 -346c-201 0 -283 128 -283 335h-140v-266h63v-62h-213v62h65v561h-65v60h213v-60h-63v-233h141c14 167 85 305 282 305c220 0 274 -170 274 -356zM800 337c0 134 -22 293 -187 293s-197 -146 -197 -295c0 -182 51 -279 197 -279
c135 0 187 125 187 281z" />
    <glyph glyph-name="afii10049" unicode="&#x42f;" horiz-adv-x="637" 
d="M159 485c0 -107 81 -127 140 -127h129v265h-136c-74 0 -133 -45 -133 -138zM428 298h-141l-124 -253c-15 -34 -28 -53 -70 -53c-20 0 -57 5 -81 13v48l73 9l124 248c-112 23 -136 110 -136 174c0 128 86 201 210 201h293v-62h-64v-562h68v-61h-224v61h72v237z" />
    <glyph glyph-name="afii10065" unicode="&#x430;" horiz-adv-x="515" 
d="M340 233l-122 -8c-63 -4 -98 -38 -98 -85c0 -57 27 -82 90 -82c41 0 93 23 130 58v117zM419 334v-272h77l5 -47c-24 -13 -74 -20 -97 -20c-37 0 -60 9 -61 60c-1 0 -1 1 -2 1c-74 -64 -136 -64 -166 -64c-113 0 -141 84 -141 140c0 84 61 138 183 146l124 8v32
c0 84 -24 111 -104 111c-48 0 -101 -10 -150 -27c-6 18 -12 37 -17 55c55 25 125 39 186 39c103 0 163 -42 163 -162z" />
    <glyph glyph-name="afii10066" unicode="&#x431;" horiz-adv-x="510" 
d="M256 681c44 18 118 46 158 64l25 -52c-47 -25 -91 -42 -110 -50c-135 -53 -199 -97 -216 -245c1 0 1 0 2 -1c33 52 92 86 162 86c142 0 192 -106 192 -243c0 -117 -49 -248 -221 -248c-165 0 -208 129 -208 235c0 156 6 203 11 229c22 106 94 180 205 225zM263 422
c-102 0 -139 -112 -139 -194c0 -80 17 -173 132 -173c105 0 129 93 129 180c0 92 -19 187 -122 187z" />
    <glyph glyph-name="afii10067" unicode="&#x432;" horiz-adv-x="494" 
d="M289 488c107 0 160 -51 160 -126c0 -34 -12 -76 -59 -104c60 -25 75 -79 75 -121c0 -83 -72 -137 -154 -137h-279v59h52v371h-50v58h255zM283 227h-119v-169h119c74 0 101 43 101 86s-33 83 -101 83zM270 431h-106v-152h113c56 0 91 32 91 75c0 44 -28 77 -98 77z" />
    <glyph glyph-name="afii10068" unicode="&#x433;" horiz-adv-x="436" 
d="M239 0h-206v59h52v371h-49v58h383v-143h-60v85h-194v-371h74v-59z" />
    <glyph glyph-name="afii10069" unicode="&#x434;" horiz-adv-x="578" 
d="M486 488l-1 -429h48v-195h-64v136h-374v-136h-65v195h46c71 53 76 224 77 339v32h-60v58h393zM405 430h-176v-35c0 -114 -9 -269 -62 -336h238v371z" />
    <glyph glyph-name="afii10070" unicode="&#x435;" horiz-adv-x="485" 
d="M253 435c-86 0 -122 -71 -127 -151h243c-2 86 -27 151 -116 151zM254 499c189 0 194 -173 194 -233v-44h-324c-1 -92 28 -166 137 -166c57 0 99 11 154 34l22 -53c-58 -31 -117 -45 -182 -45c-174 0 -215 121 -215 251c0 87 33 256 214 256z" />
    <glyph glyph-name="afii10072" unicode="&#x436;" horiz-adv-x="762" 
d="M420 58h66v-58h-208v58h61v370h-62v60h207v-60h-64v-370zM520 259l149 -201l70 -8v-42c-18 -10 -52 -16 -72 -16c-26 0 -44 6 -63 30l-164 225v16l158 201c19 26 37 32 62 32c22 0 50 -7 66 -17l-4 -44l-62 -4zM91 58l147 201l-140 172l-62 4l-4 44c16 10 44 17 66 17
c25 0 43 -6 62 -32l158 -201v-16l-162 -225c-19 -24 -37 -30 -63 -30c-20 0 -54 6 -72 16v42z" />
    <glyph glyph-name="afii10073" unicode="&#x437;" horiz-adv-x="451" 
d="M196 -8c-65 0 -136 17 -173 35l19 52c51 -17 94 -27 141 -27c89 0 143 29 143 99c0 68 -66 84 -112 84h-75v55h63c48 1 110 13 110 77c0 43 -31 72 -100 72c-35 0 -72 -4 -109 -17v-80h-60v122c45 21 118 36 176 36c108 0 175 -46 175 -123c0 -56 -39 -95 -82 -108v-3
c55 -14 95 -58 95 -118c0 -107 -96 -156 -211 -156z" />
    <glyph glyph-name="afii10074" unicode="&#x438;" horiz-adv-x="585" 
d="M410 373h-3c-10 -15 -224 -351 -239 -373h-76v429h-71v59h151v-371h4c16 24 30 50 46 74l105 162l86 135h78c0 -142 1 -284 1 -426h71v-49c-26 -12 -61 -18 -84 -18c-45 0 -69 25 -69 66v312z" />
    <glyph glyph-name="afii10075" unicode="&#x439;" horiz-adv-x="585" 
d="M410 373h-3c-10 -15 -224 -351 -239 -373h-76v429h-71v59h151v-371h4c16 24 30 50 46 74l105 162l86 135h78c0 -142 1 -284 1 -426h71v-49c-26 -12 -61 -18 -84 -18c-45 0 -69 25 -69 66v312zM282 549c-70 0 -121 56 -162 112l47 34c36 -50 80 -83 118 -83
c25 0 69 4 143 76l27 -25c-58 -84 -120 -114 -173 -114z" />
    <glyph glyph-name="afii10076" unicode="&#x43a;" horiz-adv-x="519" 
d="M28 0v59h68v371h-78v58h159v-429h66v-59h-215zM275 259l156 -201l70 -8v-42c-18 -10 -52 -16 -72 -16c-26 0 -44 6 -63 30l-171 225v16l163 201c19 26 37 32 62 32c22 0 50 -7 66 -17l-4 -44l-62 -4z" />
    <glyph glyph-name="afii10077" unicode="&#x43b;" horiz-adv-x="547" 
d="M517 0h-204v59h61v371h-160v-42c0 -210 -12 -370 -174 -410l-25 63c108 50 121 136 121 334v55h-76v58h395v-429h62v-59z" />
    <glyph glyph-name="afii10078" unicode="&#x43c;" horiz-adv-x="733" 
d="M547 349h-4c-15 -31 -30 -64 -45 -94c-33 -67 -67 -133 -103 -207h-58c-7 15 -65 124 -109 208c-25 47 -46 88 -51 99h-4v-355h-77v429h-72v59h161l121 -231c28 -54 51 -103 59 -119h2c5 10 31 67 63 131l109 219h152v-59h-67v-367h73v-49c-26 -12 -60 -18 -83 -18
c-70 0 -67 58 -67 108v246z" />
    <glyph glyph-name="afii10079" unicode="&#x43d;" horiz-adv-x="561" 
d="M397 488h81v-426h72v-49c-26 -12 -61 -19 -85 -19c-46 0 -68 16 -68 70v165h-236v-229h-81v430h-65v58h147v-202h235v202z" />
    <glyph glyph-name="afii10080" unicode="&#x43e;" horiz-adv-x="511" 
d="M471 243c0 -125 -51 -251 -221 -251c-159 0 -210 117 -210 249c0 130 60 257 219 257c163 0 212 -127 212 -255zM387 241c0 86 -20 191 -125 191c-110 0 -137 -98 -137 -191c0 -97 19 -184 133 -184c106 0 129 96 129 184z" />
    <glyph glyph-name="afii10081" unicode="&#x43f;" horiz-adv-x="588" 
d="M407 424h-232v-424h-81v424h-74v63h544v-63h-76v-362h73v-49c-25 -12 -62 -19 -85 -19c-46 0 -68 16 -69 70v360z" />
    <glyph glyph-name="afii10082" unicode="&#x440;" horiz-adv-x="539" 
d="M13 -209v63h76v570h-76v63h153v-46l2 -1c39 31 99 54 151 54c140 0 185 -111 185 -242c0 -150 -53 -262 -198 -262c-37 0 -89 8 -135 33v-169h82v-63h-240zM294 59c68 0 126 38 126 193c0 135 -49 170 -121 170c-47 0 -104 -27 -128 -50v-277c22 -16 78 -36 123 -36z" />
    <glyph glyph-name="afii10083" unicode="&#x441;" horiz-adv-x="453" 
d="M261 499c54 0 104 -9 144 -26v-129h-62v77c-21 6 -47 9 -66 9c-105 0 -154 -71 -154 -191c0 -112 38 -180 138 -180c51 0 94 10 144 30l20 -57c-42 -24 -106 -40 -170 -40c-164 0 -215 107 -215 246c0 104 38 261 221 261z" />
    <glyph glyph-name="afii10084" unicode="&#x442;" horiz-adv-x="463" 
d="M129 0v59h63v371h-112v-69h-60v127h423v-127h-60v69h-111v-371h66v-59h-209z" />
    <glyph glyph-name="afii10085" unicode="&#x443;" horiz-adv-x="533" 
d="M264 57l34 105l87 266h-62v60h191v-60h-50l-172 -505c-25 -73 -45 -138 -148 -137c-16 0 -47 1 -100 17l12 57c31 -6 58 -11 81 -11c46 0 70 40 88 95l19 59h-40c-46 141 -92 282 -139 423h-50v62h113l101 -327l30 -104h5z" />
    <glyph glyph-name="afii10086" unicode="&#x444;" horiz-adv-x="668" 
d="M219 -209v59h76v143c-194 7 -255 114 -255 248c0 143 78 250 255 255v157h-77v58h154v-215c177 -2 256 -101 256 -245c0 -140 -68 -247 -256 -258v-143h85v-59h-238zM372 434v-381c131 5 177 84 177 193c0 105 -37 186 -177 188zM295 434c-139 -6 -176 -86 -176 -191
c0 -110 45 -188 176 -190v381z" />
    <glyph glyph-name="afii10087" unicode="&#x445;" horiz-adv-x="490" 
d="M280 424l1 64h184v-64h-56l-116 -167l122 -195h68v-62h-198v62h37l-84 143l-89 -143h44v-62h-186v62h50l135 196l-100 166h-74v64h123l104 -181l75 117h-40z" />
    <glyph glyph-name="afii10050" unicode="&#x490;" horiz-adv-x="547" 
d="M289 0h-248v61h67v562h-64v61h419v129h66v-190h-336v-562h96v-61z" />
    <glyph glyph-name="afii10098" unicode="&#x491;" horiz-adv-x="435" 
d="M357 488v106h60v-165h-252v-371h73v-58h-205v58h52v371h-50v59h322z" />
    <glyph glyph-name="Wgrave" unicode="&#x1e80;" horiz-adv-x="933" 
d="M716 619v66h212v-66h-63c-42 -173 -114 -449 -155 -619h-100l-110 375l-29 100h-2l-30 -104l-109 -371h-102l-158 619h-61v66h217v-66h-68l99 -409l27 -119h2l32 120l110 379l-10 29h-69l-1 66h227l1 -66h-71l125 -417l30 -107h2l27 119l93 405h-66zM456 729l-144 139
l56 52l123 -161z" />
    <glyph glyph-name="wgrave" unicode="&#x1e81;" horiz-adv-x="806" 
d="M564 64h4l37 144l60 216h-64v64h191v-64h-49l-122 -424h-106l-62 168l-47 139h-5l-48 -139l-60 -168h-110l-122 424h-54v64h117l75 -267l43 -157h5l46 139l64 188l-12 33h-69v64h218v-64h-58l79 -221zM372 535l-145 139l56 52l123 -162z" />
    <glyph glyph-name="Wacute" unicode="&#x1e82;" horiz-adv-x="933" 
d="M716 619v66h212v-66h-63c-42 -173 -114 -449 -155 -619h-100l-110 375l-29 100h-2l-30 -104l-109 -371h-102l-158 619h-61v66h217v-66h-68l99 -409l27 -119h2l32 120l110 379l-10 29h-69l-1 66h227l1 -66h-71l125 -417l30 -107h2l27 119l93 405h-66zM627 869l-145 -139
l-35 30l123 161z" />
    <glyph glyph-name="wacute" unicode="&#x1e83;" horiz-adv-x="806" 
d="M564 64h4l37 144l60 216h-64v64h191v-64h-49l-122 -424h-106l-62 168l-47 139h-5l-48 -139l-60 -168h-110l-122 424h-54v64h117l75 -267l43 -157h5l46 139l64 188l-12 33h-69v64h218v-64h-58l79 -221zM531 674l-145 -139l-35 29l123 162z" />
    <glyph glyph-name="Wdieresis" unicode="&#x1e84;" horiz-adv-x="933" 
d="M716 619v66h212v-66h-63c-42 -173 -114 -449 -155 -619h-100l-110 375l-29 100h-2l-30 -104l-109 -371h-102l-158 619h-61v66h217v-66h-68l99 -409l27 -119h2l32 120l110 379l-10 29h-69l-1 66h227l1 -66h-71l125 -417l30 -107h2l27 119l93 405h-66zM608 771
c0 -26 -21 -44 -49 -44c-24 0 -42 18 -42 44c0 24 19 44 42 44c28 0 49 -18 49 -44zM421 771c0 -26 -20 -44 -46 -44c-27 0 -46 18 -46 44c0 24 21 44 44 44c28 0 48 -18 48 -44z" />
    <glyph glyph-name="wdieresis" unicode="&#x1e85;" horiz-adv-x="806" 
d="M564 64h4l37 144l60 216h-64v64h191v-64h-49l-122 -424h-106l-62 168l-47 139h-5l-48 -139l-60 -168h-110l-122 424h-54v64h117l75 -267l43 -157h5l46 139l64 188l-12 33h-69v64h218v-64h-58l79 -221zM520 586c0 -25 -21 -44 -49 -44c-25 0 -43 19 -43 44s20 44 43 44
c28 0 49 -18 49 -44zM332 586c0 -25 -19 -44 -46 -44c-26 0 -46 19 -46 44s22 44 45 44c28 0 47 -18 47 -44z" />
    <glyph glyph-name="Ygrave" unicode="&#x1ef2;" horiz-adv-x="587" 
d="M376 619v66h201v-66h-57l-186 -321v-235h81v-63h-247v63h81v232l-181 324h-57v66h204v-66h-59l136 -256h4l140 256h-60zM294 729l-144 139l56 52l123 -161z" />
    <glyph glyph-name="ygrave" unicode="&#x1ef3;" horiz-adv-x="533" 
d="M264 55c3 8 20 64 41 127l80 242h-62v64h187v-64h-50l-183 -546c-25 -71 -61 -92 -131 -92c-16 0 -56 3 -102 17l14 72c31 -6 58 -11 81 -11c36 0 57 5 72 48l33 91h-42l-134 421h-50v64h110l101 -327l30 -106h5zM258 535l-145 139l56 52l123 -162z" />
    <glyph glyph-name="afii00208" unicode="&#x2015;" horiz-adv-x="1000" 
d="M962 226h-928v60h928v-60z" />
    <glyph glyph-name="fraction" unicode="&#x2044;" horiz-adv-x="107" 
d="M237 701l-292 -723h-56l294 723h54z" />
    <glyph glyph-name="fraction" unicode="&#x2215;" horiz-adv-x="107" 
d="M237 701l-292 -723h-56l294 723h54z" />
    <glyph glyph-name="dong" unicode="&#x20ab;" horiz-adv-x="551" 
d="M354 132l-3 1c-33 -26 -81 -46 -127 -46c-120 0 -160 84 -160 193c0 127 47 217 172 217c31 0 82 -11 116 -32v73h-128v42h128v56h-71v49h139v-105h65v-42h-65v-397h66v-48h-132v39zM246 442c-61 0 -112 -32 -112 -164c0 -110 43 -137 106 -137c36 0 92 23 112 44v226
c-19 14 -68 31 -106 31zM488 0h-411v49h411v-49z" />
    <glyph glyph-name="centigrade" unicode="&#x2103;" horiz-adv-x="868" 
d="M758 508v106c-35 10 -75 13 -107 13c-150 0 -215 -115 -215 -289c0 -158 43 -275 222 -275c36 0 109 6 163 23l16 -62c-48 -19 -131 -32 -194 -32c-218 0 -295 141 -295 347c0 146 59 357 300 357c75 0 133 -13 174 -28v-160h-64zM308 590c0 -75 -58 -133 -133 -133
c-83 0 -135 57 -135 133c0 72 61 135 135 135c75 0 133 -49 133 -135zM259 587c0 49 -31 92 -86 92c-48 0 -85 -43 -85 -92c0 -47 37 -85 85 -85c47 0 86 38 86 85z" />
    <glyph glyph-name="fahrenheit" unicode="&#x2109;" horiz-adv-x="872" 
d="M308 590c0 -75 -58 -133 -133 -133c-83 0 -135 57 -135 133c0 72 61 135 135 135c75 0 133 -49 133 -135zM259 587c0 49 -31 92 -86 92c-48 0 -85 -43 -85 -92c0 -47 37 -85 85 -85c47 0 86 38 86 85zM609 0h-248v63h67v557h-64v64h488v-162h-66v98h-273v-232l260 5v-67
l-260 4v-267h96v-63z" />
    <glyph glyph-name="afii61352" unicode="&#x2116;" horiz-adv-x="1070" 
d="M540 139h4v484h-69v61h215v-61h-65v-623h-81c-62 97 -124 196 -185 294l-104 163c-21 35 -44 70 -65 105c-1 0 -2 -1 -3 -1c0 -166 1 -333 1 -499h69v-62h-217v62h68v561h-68v61h158c58 -90 114 -182 171 -273l95 -150zM890 680c113 0 147 -84 147 -167
s-32 -166 -151 -166c-110 0 -149 77 -149 165c0 84 41 168 153 168zM974 512c0 54 -14 122 -84 122c-73 0 -90 -65 -90 -123c0 -61 13 -116 90 -116c70 0 84 61 84 117zM1033 258h-292v60h292v-60z" />
    <glyph glyph-name="published" unicode="&#x2117;" horiz-adv-x="835" 
d="M638 432c0 -60 -32 -151 -149 -151h-110v-156h62v-44h-171v44h48v409h-48v44h212c91 0 156 -49 156 -146zM478 534h-99v-210h102c48 0 96 26 96 106c0 70 -43 104 -99 104zM785 333c0 -201 -167 -364 -368 -364c-202 0 -367 163 -367 364c0 200 165 363 367 363
c201 0 368 -163 368 -363zM741 333c0 177 -144 320 -324 320c-177 0 -324 -143 -324 -320s147 -320 324 -320c180 0 324 143 324 320z" />
    <glyph glyph-name="Ohm" unicode="&#x2126;" horiz-adv-x="695" 
d="M537 64l2 -2h117v-62h-246v66c110 28 139 146 139 286c0 138 -35 278 -197 278c-152 0 -205 -122 -205 -276c0 -151 29 -263 134 -287v-67h-243v62h110l1 2c-78 55 -89 172 -89 291c0 182 81 341 291 341c217 0 287 -162 287 -340c0 -119 -26 -234 -101 -292z" />
    <glyph glyph-name="angstrom" unicode="&#x212b;" horiz-adv-x="668" 
d="M437 63h69l-40 126h-267c-10 -31 -27 -85 -39 -126h71v-63h-211v63h57c64 193 145 434 206 622h106c65 -201 139 -422 204 -622h56v-63h-212v63zM446 253c-29 97 -61 194 -91 291c-6 22 -13 44 -20 67h-2c-1 -5 -4 -17 -21 -68c-21 -65 -65 -201 -91 -290h225zM333 718
c-61 0 -109 47 -109 105c0 56 48 105 109 105c60 0 106 -48 106 -105c0 -59 -47 -105 -106 -105zM333 881c-34 0 -60 -28 -60 -61c0 -30 25 -58 60 -58c32 0 57 28 57 58c0 32 -25 61 -57 61z" />
    <glyph glyph-name="gradient" unicode="&#x2207;" horiz-adv-x="663" 
d="M617 685v-54l-234 -631h-104l-202 538l-33 102v45h573zM384 217l146 407h-404c14 -41 144 -393 152 -414c17 -48 33 -96 51 -144h2z" />
    <glyph glyph-name="product" unicode="&#x220f;" horiz-adv-x="703" 
d="M663 -93h-214v62h62v652h-320v-652h63v-62h-213v62h64v652h-64v64h622v-64h-65v-652h65v-62z" />
    <glyph glyph-name="summation" unicode="&#x2211;" horiz-adv-x="547" 
d="M132 623l175 -305v-22l-177 -328h323v110h67v-172h-491v57l187 344l-185 321v57h477v-164h-64v102h-312z" />
    <glyph glyph-name="minus" unicode="&#x2212;" horiz-adv-x="558" 
d="M476 270h-387v58h387v-58z" />
    <glyph glyph-name="radical" unicode="&#x221a;" horiz-adv-x="545" 
d="M58 260c-7 17 -13 34 -19 51l105 54l103 -336h4l211 719h62c-81 -268 -161 -536 -241 -803h-72c-36 111 -71 225 -107 337c-16 -7 -32 -15 -46 -22z" />
    <glyph glyph-name="infinity" unicode="&#x221e;" horiz-adv-x="768" 
d="M205 403c69 0 128 -48 180 -101c54 53 105 101 186 101c87 0 148 -59 148 -143c0 -86 -70 -150 -158 -150c-57 0 -110 34 -177 101c-50 -49 -106 -101 -186 -101c-83 0 -148 65 -148 146c0 82 64 147 155 147zM201 346c-50 0 -82 -42 -82 -90c0 -50 38 -89 89 -89
c52 0 102 49 138 87c-40 44 -88 92 -145 92zM564 346c-52 0 -103 -50 -140 -88c53 -54 88 -91 139 -91c53 0 87 44 87 92c0 56 -39 87 -86 87z" />
    <glyph glyph-name="logicaland" unicode="&#x2227;" horiz-adv-x="555" 
d="M51 1l192 491h53l210 -491h-73l-163 379c-18 -48 -36 -96 -55 -144c-30 -78 -63 -158 -93 -235h-71z" />
    <glyph glyph-name="logicalor" unicode="&#x2228;" horiz-adv-x="558" 
d="M243 0l-192 492h71l148 -380l84 197l79 183h73l-210 -492h-53z" />
    <glyph glyph-name="intersection" unicode="&#x2229;" horiz-adv-x="565" 
d="M280 433c-92 0 -123 -57 -123 -129v-303h-71l-1 306c0 110 68 190 196 190c130 0 201 -90 201 -203v-293h-73v295c0 72 -36 137 -129 137z" />
    <glyph glyph-name="union" unicode="&#x222a;" horiz-adv-x="565" 
d="M280 63c93 0 129 65 129 137v292h73v-290c0 -113 -71 -203 -201 -203c-128 0 -196 80 -196 190l1 303h71v-301c0 -72 31 -128 123 -128z" />
    <glyph glyph-name="integral" unicode="&#x222b;" horiz-adv-x="323" 
d="M138 0c0 218 -28 365 -28 586c0 100 52 165 140 165c27 0 42 -2 73 -10l-8 -52c-23 3 -31 4 -51 4c-71 0 -88 -40 -88 -108c0 -221 30 -344 30 -586c0 -100 -56 -165 -141 -165c-27 0 -42 3 -73 11l9 52c23 -3 31 -4 51 -4c73 0 86 41 86 107z" />
    <glyph glyph-name="approxequal" unicode="&#x2248;" horiz-adv-x="558" 
d="M370 326c-76 0 -143 46 -196 46l-71 -46l-32 24c22 50 61 82 110 82c60 0 150 -46 201 -46l67 47l31 -23c-20 -49 -59 -84 -110 -84zM370 203c-76 0 -143 45 -196 45l-71 -46l-32 27c22 49 61 78 110 78c60 0 150 -46 201 -46l67 47l31 -22c-20 -49 -59 -83 -110 -83z
" />
    <glyph glyph-name="notequal" unicode="&#x2260;" horiz-adv-x="558" 
d="M464 471l-59 -68h75v-58h-124l-77 -88h201v-57h-250l-102 -116l-44 26l79 90h-86v57h134l77 88h-211v58h260l83 94z" />
    <glyph glyph-name="lessequal" unicode="&#x2264;" horiz-adv-x="558" 
d="M480 178v-69l-412 162v50l412 157v-68l-336 -113c16 -6 320 -114 336 -119zM480 0h-413v58h413v-58z" />
    <glyph glyph-name="greaterequal" unicode="&#x2265;" horiz-adv-x="558" 
d="M486 1h-413v58h413v-58zM71 110v69l339 118c-16 5 -322 109 -339 113v69l415 -157v-50z" />
    <glyph glyph-name="lozenge" unicode="&#x25ca;" horiz-adv-x="530" 
d="M470 316l-172 -335h-69c-53 104 -120 231 -174 335c54 106 120 231 174 337h70zM382 316l-119 241l-118 -240c38 -75 83 -163 119 -239c40 79 78 159 118 238z" />
    <glyph glyph-name="zero.text" unicode="&#xe000;" horiz-adv-x="558" 
d="M523 329c0 -161 -57 -336 -241 -336c-208 0 -248 168 -248 334c0 150 42 347 249 347c211 0 240 -205 240 -345zM441 327c0 104 -9 282 -158 282c-150 0 -167 -169 -167 -284c0 -149 27 -268 167 -268c129 0 158 141 158 270z" />
    <glyph glyph-name="one.text" unicode="&#xe001;" horiz-adv-x="487" 
d="M71 0v62h145v520l-158 -24l-11 48l175 58h74v-602h137v-62h-362z" />
    <glyph glyph-name="two.text" unicode="&#xe002;" horiz-adv-x="558" 
d="M456 491c0 -164 -207 -330 -309 -429h268v90h69v-152h-443v57c115 108 332 289 332 429c0 85 -56 120 -137 120c-33 0 -92 -6 -169 -54l-29 50c81 59 160 72 210 72c121 0 208 -59 208 -183z" />
    <glyph glyph-name="three.text" unicode="&#xe003;" horiz-adv-x="540" 
d="M454 616l-216 -216c125 0 233 -49 233 -191c0 -147 -117 -218 -245 -218c-75 0 -142 12 -200 39c6 20 13 41 20 60c73 -21 123 -30 164 -30c109 0 178 45 178 148c0 88 -67 132 -187 132c-18 0 -34 -1 -54 -4l-15 48c70 72 143 146 214 217h-228v-95c-22 0 -46 -1 -68 -1
v159h391z" />
    <glyph glyph-name="four.text" unicode="&#xe004;" horiz-adv-x="558" 
d="M526 188h-97v-126h72v-62h-220v62h71v126h-320v57c104 140 221 279 326 419h71v-416h97v-60zM353 550h-6c-80 -106 -159 -196 -239 -302h245v302z" />
    <glyph glyph-name="five.text" unicode="&#xe005;" horiz-adv-x="558" 
d="M251 354c-38 0 -78 -10 -114 -27l-48 32l20 305h355v-141h-67v79h-221l-13 -205c23 9 52 20 112 20c109 0 219 -60 219 -207c0 -148 -115 -219 -240 -219c-73 0 -145 11 -205 40l19 60c74 -22 125 -30 166 -30c108 0 178 44 178 149c0 97 -75 144 -161 144z" />
    <glyph glyph-name="six.text" unicode="&#xe006;" horiz-adv-x="558" 
d="M132 369l5 -3c50 27 101 49 169 49c105 0 201 -59 201 -206c0 -135 -92 -216 -225 -216c-181 0 -230 140 -230 310c0 216 83 371 264 371c70 0 122 -19 145 -31c-6 -19 -11 -38 -18 -57c-49 19 -93 24 -125 24c-148 0 -182 -166 -186 -241zM291 352
c-99 0 -154 -49 -158 -51v-21c0 -85 16 -224 151 -224c95 0 144 63 144 149s-34 147 -137 147z" />
    <glyph glyph-name="seven.text" unicode="&#xe007;" horiz-adv-x="502" 
d="M117 501h-69v163h405v-59l-273 -605h-77l271 602h-257v-101z" />
    <glyph glyph-name="eight.text" unicode="&#xe008;" horiz-adv-x="558" 
d="M162 508c0 -67 68 -90 155 -130c69 47 93 84 93 125c0 46 -35 108 -127 108c-90 0 -121 -67 -121 -103zM277 53c95 0 150 55 150 128c0 77 -76 109 -197 160c-79 -49 -100 -115 -100 -166c0 -67 49 -122 147 -122zM487 514c0 -49 -17 -105 -99 -165
c62 -32 117 -89 117 -173c0 -104 -89 -184 -231 -184c-146 0 -226 71 -226 173c0 67 29 153 123 205c-63 37 -92 73 -92 138c0 95 86 168 207 168c93 0 201 -46 201 -162z" />
    <glyph glyph-name="nine.text" unicode="&#xe009;" horiz-adv-x="558" 
d="M418 298l-5 3c-49 -29 -102 -50 -169 -50c-107 0 -201 59 -201 206c0 135 92 217 225 217c180 0 230 -140 230 -311c0 -215 -84 -369 -264 -369c-71 0 -132 18 -155 30l19 57c49 -19 102 -24 134 -24c147 0 182 167 186 241zM259 314c99 0 154 49 158 51v22
c0 82 -16 220 -151 220c-95 0 -144 -60 -144 -146c0 -85 34 -147 137 -147z" />
    <glyph glyph-name="numbersign.text" unicode="&#xe00a;" horiz-adv-x="533" 
d="M489 410h-71l-37 -168h75l-9 -47h-76l-42 -195h-52l42 195h-146l-43 -195h-52l43 195h-75l9 47h76l37 168h-80l9 46h81l39 172h51l-38 -172h147l38 172h52l-38 -172h69zM220 410l-37 -168h147l36 168h-146z" />
    <glyph glyph-name="dollar.text" unicode="&#xe00b;" horiz-adv-x="558" 
d="M292 -75v806h38v-64c41 -3 87 -13 124 -36v-127h-60v85c-20 9 -40 14 -64 17v-241c85 -32 168 -67 168 -177c0 -108 -70 -164 -168 -180v-83h-38zM258 731v-806h-37v80c-53 5 -100 16 -151 47v128h60v-84c40 -19 62 -23 91 -27v260c-81 28 -147 68 -147 163
c0 97 61 155 147 172v67h37zM428 189c0 58 -42 86 -98 107v-224c55 11 98 47 98 117zM144 499c0 -60 33 -82 77 -100v202c-43 -12 -77 -43 -77 -102z" />
    <glyph glyph-name="euro.text" unicode="&#xe00c;" horiz-adv-x="558" 
d="M32 310h417v-41h-288c10 -119 56 -210 201 -210c25 0 65 3 105 12v82h63v-133c-43 -16 -121 -27 -179 -27c-181 0 -264 111 -272 276h-47v41zM449 358h-417v41h49c13 127 87 273 276 273c69 0 123 -13 161 -26v-131h-63v78c-26 8 -60 14 -96 14
c-120 0 -181 -81 -197 -208h287v-41z" />
    <glyph glyph-name="florin.text" unicode="&#xe00d;" horiz-adv-x="525" 
d="M120 340v56h97c3 25 8 63 12 88c14 101 48 191 163 191c31 0 62 -5 92 -15l-15 -55c-31 7 -44 8 -66 8c-67 0 -87 -46 -99 -128l-11 -89h102v-56h-108c-8 -49 -28 -229 -35 -269c-18 -115 -60 -192 -166 -192c-28 0 -61 5 -90 18l18 54c27 -8 41 -9 58 -9
c65 0 87 41 104 131c13 66 25 203 34 267h-90z" />
    <glyph glyph-name="sterling.text" unicode="&#xe00e;" horiz-adv-x="558" 
d="M76 364h70l5 107c7 113 60 201 194 201c66 0 125 -14 164 -33v-131h-67v83c-27 8 -56 14 -93 14c-94 0 -117 -56 -122 -139l-5 -102h185v-53h-188l-4 -81c-3 -65 -15 -137 -51 -167h339v-63h-443l1 62c61 26 75 105 78 170l4 79h-67v53z" />
    <glyph glyph-name="cent.text" unicode="&#xe00f;" horiz-adv-x="558" 
d="M325 -51h-45v78c-148 9 -194 112 -194 245c0 98 34 245 194 260v92h45v-92c47 -2 90 -10 126 -25v-129h-62v77c-21 6 -45 9 -64 9v-371c43 2 82 12 126 30l20 -57c-37 -21 -91 -36 -146 -39v-78zM169 273c0 -101 31 -167 111 -178v364c-76 -17 -111 -84 -111 -186z" />
    <glyph glyph-name="yen.text" unicode="&#xe010;" horiz-adv-x="558" 
d="M483 288h-413v40h137c-46 92 -93 181 -139 272h-53v64h198v-64h-62c41 -87 83 -171 125 -258h4l126 258h-63v64h193v-64h-50c-47 -91 -95 -180 -142 -272h139v-40zM70 240h413v-43h-168v-134h81v-63h-242v63h80v134h-164v43z" />
    <glyph glyph-name="slashedzero" unicode="&#xe23f;" horiz-adv-x="558" 
d="M522 329c0 -161 -56 -336 -241 -336c-207 0 -247 167 -247 333c0 151 41 348 249 348c211 0 239 -206 239 -345zM116 324c0 -95 12 -179 63 -222c60 162 120 324 179 486c-20 12 -45 20 -75 20c-151 0 -167 -169 -167 -284zM440 326c0 64 -3 168 -54 224
c-59 -159 -118 -320 -176 -480c20 -9 44 -14 73 -14c129 0 157 141 157 270z" />
    <glyph glyph-name="schwacyrillic" unicode="&#x4d9;" horiz-adv-x="485" 
d="M239 57c93 0 124 75 130 158h-246c0 -94 27 -158 116 -158zM239 -6c-189 0 -194 173 -194 233v37h325c1 92 -29 172 -138 172c-57 0 -99 -11 -154 -34l-20 51c58 32 115 46 180 46c174 0 215 -113 215 -249c0 -87 -29 -256 -214 -256z" />
    <glyph glyph-name="onehalf" unicode="&#xbd;" horiz-adv-x="820" 
d="M745 293c0 -89 -111 -181 -183 -240h142v51h58v-104h-297v45c99 75 211 182 211 244c0 43 -32 60 -80 60c-20 0 -55 -3 -109 -33l-26 43c55 38 108 46 143 46c83 0 141 -37 141 -112zM72 265v52h91v283l-97 -14l-10 44l117 34h59v-347h86v-52h-246zM570 701l-292 -723
h-56l294 723h54z" />
    <glyph glyph-name="j" unicode="j" horiz-adv-x="279" 
d="M36 424v63h150v-459c0 -134 -41 -201 -177 -256l-28 54c106 63 124 111 124 193v405h-69zM196 616c0 -28 -25 -53 -54 -53s-53 25 -53 53c0 30 24 54 53 54s54 -24 54 -54z" />
    <glyph glyph-name="Dcroat" unicode="&#x110;" horiz-adv-x="664" 
d="M324 0h-283v61h69v282h-65v47h65v233h-65v62h288c222 0 281 -158 281 -341c0 -187 -66 -344 -290 -344zM320 623h-123v-233h145v-47h-145v-281h117c62 0 213 12 213 275c0 268 -136 286 -207 286z" />
    <glyph glyph-name="partialdiff" unicode="&#x2202;" horiz-adv-x="538" 
d="M254 -10c-117 0 -206 77 -206 225c0 138 89 224 202 224c50 0 114 -13 162 -71c-2 195 -83 297 -214 297c-19 0 -34 0 -55 -3l-2 53c25 5 48 6 69 6c202 0 275 -174 275 -374c0 -239 -94 -357 -231 -357zM257 53c112 0 157 125 157 239c-50 67 -100 90 -158 90
c-95 0 -136 -85 -136 -165c0 -119 64 -164 137 -164z" />
    <glyph glyph-name="Eth" unicode="&#xd0;" horiz-adv-x="664" 
d="M324 0h-283v61h69v282h-65v47h65v233h-65v62h288c222 0 281 -158 281 -341c0 -187 -66 -344 -290 -344zM320 623h-123v-233h145v-47h-145v-281h117c62 0 213 12 213 275c0 268 -136 286 -207 286z" />
    <glyph glyph-name="afii10088" unicode="&#x446;" horiz-adv-x="578" 
d="M358 428v60h181v-60h-52v-368h59v-195h-65v135h-448v60h59v368h-61v60h141v-428h234v368h-48z" />
    <glyph glyph-name="afii10089" unicode="&#x447;" horiz-adv-x="565" 
d="M85 429h-73v59h155v-132c0 -71 13 -108 84 -108c46 0 97 10 138 32v209h82v-431h70c0 -16 0 -32 1 -49c-29 -12 -64 -17 -85 -17c-50 0 -68 34 -68 76v151c-48 -27 -111 -37 -159 -37c-130 0 -145 80 -145 155v92z" />
    <glyph glyph-name="afii10090" unicode="&#x448;" horiz-adv-x="782" 
d="M569 428v60h176v-60h-54v-368h59v-60h-718v60h59v368h-60v60h141v-428h176v368h-45v60h175v-60h-49v-368h181v368h-41z" />
    <glyph glyph-name="afii10091" unicode="&#x449;" horiz-adv-x="783" 
d="M570 428v60h173v-60h-52v-368h59v-195h-65v135h-653v60h59v368h-60v60h141v-428h176v368h-45v60h175v-60h-49v-368h181v368h-40z" />
    <glyph glyph-name="afii10092" unicode="&#x44a;" horiz-adv-x="616" 
d="M287 488v-194h131c118 0 169 -69 169 -147c0 -94 -69 -147 -160 -147h-220v430h-132v-85h-61v143h273zM404 237h-117v-179h126c57 0 95 30 95 88c0 64 -44 91 -104 91z" />
    <glyph glyph-name="afii10093" unicode="&#x44b;" horiz-adv-x="719" 
d="M291 237h-117v-180h126c57 0 95 31 95 89c0 64 -45 91 -104 91zM20 488h154v-195h131c118 0 169 -69 169 -146c0 -95 -70 -147 -160 -147h-219v430h-75v58zM539 429h-56v59h137v-426h73v-49c-25 -12 -62 -18 -85 -18c-51 0 -69 30 -69 90v344z" />
    <glyph glyph-name="afii10094" unicode="&#x44c;" horiz-adv-x="503" 
d="M291 237h-117v-180h126c57 0 95 31 95 89c0 64 -45 91 -104 91zM20 488h154v-195h131c118 0 169 -69 169 -146c0 -95 -70 -147 -160 -147h-219v430h-75v58z" />
    <glyph glyph-name="afii10095" unicode="&#x44d;" horiz-adv-x="474" 
d="M207 499c177 0 217 -128 217 -240c1 -133 -59 -265 -233 -265c-64 0 -125 14 -167 38l21 51c49 -19 89 -28 140 -28c102 0 154 80 155 176l-203 -3v57l203 -5c-7 96 -49 158 -136 158c-29 0 -58 -3 -89 -12v-78h-59l-1 123c41 18 99 28 152 28z" />
    <glyph glyph-name="afii10096" unicode="&#x44e;" horiz-adv-x="727" 
d="M174 0h-80v429h-72v59h152v-203h97c11 113 72 214 211 214c155 0 205 -128 205 -256c0 -125 -52 -251 -215 -251c-150 0 -200 110 -203 237h-95v-229zM604 242c0 86 -20 193 -122 193s-130 -101 -130 -194c0 -97 16 -186 130 -186c100 0 122 98 122 187z" />
    <glyph glyph-name="afii10097" unicode="&#x44f;" horiz-adv-x="521" 
d="M223 488h246v-59h-50v-367h71v-49c-25 -12 -61 -19 -84 -19c-46 0 -67 16 -68 70v142h-102l-93 -173c-13 -23 -31 -42 -64 -42c-18 0 -45 4 -67 12v48l63 7c28 52 60 105 88 157c-81 16 -103 77 -103 127c0 99 74 146 163 146zM241 262h97v168h-105
c-55 0 -94 -30 -94 -89c0 -67 58 -79 102 -79z" />
    <glyph glyph-name="afii10071" unicode="&#x451;" horiz-adv-x="485" 
d="M253 435c-86 0 -122 -71 -127 -151h243c-2 86 -27 151 -116 151zM254 499c189 0 194 -173 194 -233v-44h-324c-1 -92 28 -166 137 -166c57 0 99 11 154 34l22 -53c-58 -31 -117 -45 -182 -45c-174 0 -215 121 -215 251c0 87 33 256 214 256zM393 610
c0 -25 -21 -44 -49 -44c-25 0 -43 19 -43 44s20 44 43 44c28 0 49 -18 49 -44zM205 610c0 -25 -19 -44 -46 -44c-26 0 -46 19 -46 44s22 44 45 44c28 0 47 -18 47 -44z" />
    <glyph glyph-name="afii10099" unicode="&#x452;" horiz-adv-x="540" 
d="M33 534v44h53v75h-81v58h163v-133h216v-44h-216v-115c57 26 107 39 153 39c115 0 176 -71 176 -248c0 -135 -45 -238 -206 -238c-9 0 -13 0 -22 1l2 58c99 1 145 37 145 181c0 145 -46 182 -115 182c-40 0 -93 -17 -133 -36v-358h-82v534h-53z" />
    <glyph glyph-name="afii10101" unicode="&#x454;" horiz-adv-x="453" 
d="M327 222l-203 3c3 -96 36 -170 137 -170c51 0 95 12 145 31l19 -51c-42 -24 -106 -41 -170 -41c-164 0 -215 105 -215 244c0 104 38 261 221 261c54 0 107 -11 147 -28v-123h-60v75c-30 10 -54 12 -83 12c-83 0 -135 -60 -141 -162c68 2 136 3 203 4v-55z" />
    <glyph glyph-name="afii10102" unicode="&#x455;" horiz-adv-x="437" 
d="M29 145h63l3 -66c29 -15 72 -22 104 -22c66 0 119 18 119 74c0 53 -49 70 -105 86c-85 24 -174 46 -174 143c0 99 80 138 180 138c54 0 108 -11 148 -36l3 -114h-65l-2 69c-24 10 -53 15 -81 15c-56 0 -100 -19 -100 -71c0 -43 65 -61 103 -72c81 -24 175 -45 175 -158
c0 -96 -84 -139 -195 -139c-57 0 -127 9 -174 38z" />
    <glyph glyph-name="afii10103" unicode="&#x456;" horiz-adv-x="292" 
d="M107 424h-51v63h132v-425h73v-49c-25 -12 -62 -19 -85 -19c-46 0 -68 16 -69 70v360zM198 616c0 -28 -24 -53 -54 -53c-29 0 -53 25 -53 53c0 30 24 54 53 54c30 0 54 -24 54 -54z" />
    <glyph glyph-name="afii10105" unicode="&#x458;" horiz-adv-x="279" 
d="M36 424v63h150v-459c0 -134 -41 -201 -177 -256l-28 54c106 63 124 111 124 193v405h-69zM196 616c0 -28 -25 -53 -54 -53s-53 25 -53 53c0 30 24 54 53 54s54 -24 54 -54z" />
    <glyph glyph-name="afii10106" unicode="&#x459;" horiz-adv-x="766" 
d="M358 430h-144v-42c0 -210 -12 -370 -174 -410l-25 63c108 50 121 136 121 334v55h-76v58h377v-194h132c117 0 168 -69 168 -147c0 -94 -69 -147 -160 -147h-219v430zM555 237h-118v-179h127c56 0 94 30 94 88c0 64 -44 91 -103 91z" />
    <glyph glyph-name="afii10107" unicode="&#x45a;" horiz-adv-x="779" 
d="M450 488v-196h131c118 0 169 -67 169 -145c0 -94 -69 -147 -160 -147h-219v235h-203v-235h-80v430h-66v58h146v-198h203v140h-73v58h152zM568 236h-118v-178h128c55 0 93 30 93 88c0 64 -44 90 -103 90z" />
    <glyph glyph-name="afii10108" unicode="&#x45b;" horiz-adv-x="583" 
d="M93 537h-53v43h53v75h-73v56h155v-131h217v-43h-217v-128c55 35 122 55 170 55c133 0 144 -84 144 -157v-245h71v-49c-26 -12 -61 -19 -84 -19c-46 0 -67 16 -68 70v223c0 67 -8 110 -85 110c-46 0 -107 -24 -148 -48v-349h-82v537z" />
    <glyph glyph-name="afii10193" unicode="&#x45f;" horiz-adv-x="578" 
d="M255 -144v144h-222v58h59v371h-61v59h141v-430h234v371h-48v59h180v-59h-51v-370c20 0 39 -1 59 -1v-58h-224v-144h-67z" />
    <glyph glyph-name="zcaron" unicode="&#x17e;" horiz-adv-x="447" 
d="M412 431l-288 -369h232v77h64v-139h-397v57l288 367h-204v-79h-62v143h367v-57zM378 715l24 -29l-152 -141h-54l-151 143l23 28l155 -100z" />
    <glyph glyph-name="zero.taboldstyle" unicode="&#xe024;" horiz-adv-x="558" 
d="M517 243c0 -114 -63 -250 -237 -250c-183 0 -241 129 -241 248c0 108 51 255 243 255c189 0 235 -152 235 -253zM436 241c0 65 -17 188 -154 188c-134 0 -161 -116 -161 -188c0 -103 41 -182 161 -182c111 0 154 95 154 182z" />
    <glyph glyph-name="one.taboldstyle" unicode="&#xe025;" horiz-adv-x="558" 
d="M254 409c-51 -7 -103 -15 -154 -23c-3 17 -6 33 -10 50l181 55h65v-432h132v-59h-356v59h142v350z" />
    <glyph glyph-name="two.taboldstyle" unicode="&#xe026;" horiz-adv-x="558" 
d="M485 0h-430v55c123 66 314 184 314 286c0 44 -42 85 -120 85c-31 0 -92 -6 -167 -51l-31 50c80 56 157 68 206 68c129 0 194 -65 194 -145c0 -121 -159 -231 -263 -287v-1h232v83h65v-143z" />
    <glyph glyph-name="three.taboldstyle" unicode="&#xe027;" horiz-adv-x="558" 
d="M454 439c-68 -66 -137 -134 -206 -200c115 3 222 -53 222 -179c0 -138 -111 -206 -238 -206c-72 1 -139 12 -195 39l20 55c71 -21 121 -28 161 -28c103 0 170 44 170 139c0 75 -59 123 -163 123c-25 0 -45 0 -70 -4l-16 46l205 201h-217v-89c-22 0 -44 -1 -66 -1v152h381
z" />
    <glyph glyph-name="four.taboldstyle" unicode="&#xe028;" horiz-adv-x="558" 
d="M332 490h83v-429h94v-61h-94v-83h70v-57h-214v57h65v83h-312v58zM336 389h-4l-230 -328h234v328z" />
    <glyph glyph-name="five.taboldstyle" unicode="&#xe029;" horiz-adv-x="558" 
d="M257 194c-37 0 -76 -8 -111 -24l-48 29l20 289h347v-135h-63v73h-217l-12 -188c26 7 55 17 108 17c107 0 213 -56 213 -195s-109 -206 -234 -206c-69 0 -146 14 -200 39l20 54c71 -20 120 -28 161 -28c104 0 172 44 172 141c0 91 -72 134 -156 134z" />
    <glyph glyph-name="six.taboldstyle" unicode="&#xe02a;" horiz-adv-x="558" 
d="M314 634c69 0 122 -19 145 -30l-19 -55c-48 18 -91 23 -123 23c-142 0 -176 -152 -180 -224c53 27 108 43 168 43c103 0 196 -55 196 -195c0 -127 -88 -203 -219 -203c-179 0 -227 132 -227 292c0 204 82 349 259 349zM289 328c-91 0 -148 -45 -152 -47v-20
c0 -76 14 -205 146 -205c93 0 139 58 139 136c0 79 -35 136 -133 136z" />
    <glyph glyph-name="seven.taboldstyle" unicode="&#xe02b;" horiz-adv-x="558" 
d="M148 333h-66v156h394v-57l-265 -571h-79l264 566h-248v-94z" />
    <glyph glyph-name="eight.taboldstyle" unicode="&#xe02c;" horiz-adv-x="558" 
d="M172 477c-4 -61 79 -88 147 -119c64 43 89 77 89 114c0 42 -33 99 -121 99c-86 0 -115 -62 -115 -94zM281 54c91 0 143 50 143 117s-74 106 -188 148c-71 -46 -95 -108 -95 -153c0 -62 47 -112 140 -112zM485 482c0 -45 -16 -97 -92 -153c60 -31 110 -84 110 -163
c0 -97 -86 -174 -225 -174c-142 0 -219 68 -219 164c0 62 28 142 115 192c-60 35 -85 68 -85 129c0 90 83 158 200 158c92 0 196 -43 196 -153z" />
    <glyph glyph-name="nine.taboldstyle" unicode="&#xe02d;" horiz-adv-x="558" 
d="M243 -145c-69 0 -126 16 -149 27l20 56c54 -17 94 -21 126 -21c142 0 176 152 180 224c-53 -27 -108 -43 -168 -43c-103 0 -196 55 -196 195c0 127 88 203 219 203c179 0 227 -132 227 -292c0 -204 -82 -349 -259 -349zM268 161c91 0 148 45 152 47v20
c0 76 -14 205 -146 205c-93 0 -139 -58 -139 -136c0 -79 35 -136 133 -136z" />
    <glyph glyph-name="numbersign.taboldstyle" unicode="&#xe02e;" horiz-adv-x="558" 
d="M482 348h-64l-33 -143h67l-8 -39h-69l-38 -166h-46l38 166h-132l-38 -166h-46l38 166h-68l8 39h69l33 143h-72l8 40h73l35 145h46l-34 -145h132l35 145h46l-34 -145h62zM240 348l-33 -143h132l33 143h-132z" />
    <glyph glyph-name="dollar.taboldstyle" unicode="&#xe02f;" horiz-adv-x="558" 
d="M259 621v-685h-37v68c-48 5 -89 14 -136 41v111h55v-70c32 -15 57 -20 81 -23v214c-67 25 -132 64 -132 141c0 82 56 133 132 148v55h37zM286 -64v685h38v-53c37 -2 76 -12 110 -31v-111h-53v72c-16 7 -37 12 -57 14v-199c75 -28 150 -58 150 -152
c0 -92 -64 -141 -150 -154v-71h-38zM156 424c0 -49 29 -67 66 -82v166c-37 -10 -66 -36 -66 -84zM407 162c0 46 -36 71 -83 89v-186c52 9 83 37 83 97z" />
    <glyph glyph-name="euro.taboldstyle" unicode="&#xe030;" horiz-adv-x="558" 
d="M54 266h375v-38h-256c9 -100 57 -175 180 -175c21 0 57 2 94 10v57h56v-102c-39 -14 -110 -24 -161 -24c-163 0 -239 95 -246 234h-42v38zM430 302h-376v40h44c11 107 79 230 248 230c63 0 113 -11 147 -23v-114h-59v67c-23 8 -58 11 -91 11c-101 0 -155 -71 -169 -171
h256v-40z" />
    <glyph glyph-name="florin.taboldstyle" unicode="&#xe031;" horiz-adv-x="558" 
d="M163 282v52h93c15 132 33 261 175 261c29 0 57 -5 83 -14c-5 -17 -9 -36 -14 -54c-26 5 -40 7 -57 7c-96 0 -98 -71 -115 -200h101v-52h-107c-10 -81 -16 -149 -24 -207c-20 -152 -59 -225 -179 -225c-25 0 -52 5 -75 16l16 52c26 -7 39 -10 56 -10c64 0 87 38 100 121
c11 72 26 186 34 253h-87z" />
    <glyph glyph-name="sterling.taboldstyle" unicode="&#xe032;" horiz-adv-x="558" 
d="M475 0h-399v55c53 20 67 86 70 138l4 69h-61v49h64c1 33 3 65 5 96c8 91 56 165 174 165c59 0 112 -12 149 -30v-112h-61v70c-25 6 -52 11 -84 11c-82 0 -104 -46 -108 -113l-4 -87h166v-49h-169c-1 -23 -3 -46 -5 -70c-3 -50 -12 -108 -40 -136h299v-56z" />
    <glyph glyph-name="cent.taboldstyle" unicode="&#xe033;" horiz-adv-x="558" 
d="M318 -37h-39v67c-124 8 -163 96 -163 210c0 85 29 211 163 223v80h39v-80c39 -1 76 -8 107 -21v-110h-53v66c-18 4 -38 7 -54 7v-318c36 2 69 10 107 24l16 -47c-32 -18 -76 -31 -123 -34v-67zM186 241c0 -86 26 -143 93 -152v312c-63 -14 -93 -72 -93 -160z" />
    <glyph glyph-name="yen.taboldstyle" unicode="&#xe034;" horiz-adv-x="558" 
d="M466 244h-373v37h121l-123 228h-48v57h181v-57h-53c37 -71 73 -144 109 -216h1l111 216h-55v57h177v-57h-46l-125 -228h123v-37zM93 207h373v-41h-150v-111h72v-55h-220v55h71v111h-146v41z" />
    <glyph glyph-name="ampersandsmall" unicode="&#xe0fb;" horiz-adv-x="595" 
d="M403 253v53h191v-53h-58c-8 -70 -46 -126 -100 -172c37 -31 80 -57 122 -73l-27 -50c-39 14 -103 50 -145 85c-53 -35 -117 -51 -178 -51c-101 0 -182 48 -182 145c0 66 46 116 132 160c-31 37 -41 69 -41 96c0 63 44 110 122 110c86 0 121 -51 121 -100
c0 -56 -41 -89 -109 -125c41 -52 89 -108 142 -159c38 35 68 79 78 134h-68zM277 151c-31 35 -60 69 -84 99c-54 -27 -97 -62 -97 -110c0 -62 49 -95 110 -95c41 0 87 13 129 38c-21 22 -42 46 -58 68zM237 451c-38 0 -52 -32 -52 -53c0 -22 14 -46 34 -74
c43 20 77 42 77 79c0 29 -22 48 -59 48z" />
    <glyph glyph-name="exclamsmall" unicode="&#xe0fc;" horiz-adv-x="184" 
d="M54 518h77l-2 -219l-8 -172h-54l-9 172zM92 78c29 0 47 -19 47 -42c0 -24 -20 -44 -46 -44c-29 0 -48 20 -48 44c0 22 19 42 47 42z" />
    <glyph glyph-name="questionsmall" unicode="&#xe0fd;" horiz-adv-x="361" 
d="M201 329c39 27 62 50 62 82c0 37 -35 53 -84 53c-25 0 -57 -2 -88 -11v-68h-60v114c53 18 111 24 152 24c102 0 155 -37 159 -98c0 -78 -67 -109 -109 -148c-43 -34 -65 -60 -65 -90c0 -11 2 -24 8 -57l-63 -7c-8 31 -12 55 -12 71c0 50 31 85 100 135zM205 35
c0 -24 -22 -42 -48 -42s-48 18 -48 42c0 23 21 42 48 42c26 0 48 -19 48 -42z" />
    <glyph glyph-name="Asmall" unicode="&#xe0fe;" horiz-adv-x="569" 
d="M544 0h-182v62h52c-10 29 -19 49 -29 78h-203c-10 -29 -19 -49 -29 -78h54v-62h-183v62h48c55 151 110 297 165 448h96l166 -448h45v-62zM367 196c-25 67 -39 118 -64 186c-5 12 -15 47 -19 59h-1c-4 -12 -15 -47 -20 -59c-24 -67 -38 -119 -62 -186h166z" />
    <glyph glyph-name="Bsmall" unicode="&#xe0ff;" horiz-adv-x="528" 
d="M470 377c0 -33 -12 -82 -68 -110c63 -21 86 -78 86 -124c0 -87 -76 -143 -164 -143h-283v62h56v386h-53v62h258c112 0 168 -56 168 -133zM301 236h-123v-174h123c76 0 105 38 105 85c0 46 -35 89 -105 89zM287 448h-109v-157h109c67 0 102 33 102 81c0 46 -30 76 -102 76
z" />
    <glyph glyph-name="Csmall" unicode="&#xe100;" horiz-adv-x="488" 
d="M439 77l16 -57c-42 -16 -111 -25 -164 -25c-180 0 -243 104 -243 256c0 110 49 267 248 267c63 0 111 -10 146 -22v-126h-64v75c-22 5 -52 8 -80 8c-116 0 -167 -76 -167 -202c0 -116 38 -193 172 -193c30 0 90 6 136 19z" />
    <glyph glyph-name="Dsmall" unicode="&#xe101;" horiz-adv-x="565" 
d="M276 0h-235v62h57v386h-54v62h239c184 0 233 -118 233 -254c0 -139 -55 -256 -240 -256zM272 448h-92v-386h88c48 0 166 2 166 189c0 190 -107 197 -162 197z" />
    <glyph glyph-name="Esmall" unicode="&#xe102;" horiz-adv-x="493" 
d="M459 0h-418v62h54v386h-51v62h402v-123h-64v61h-206v-154l207 5v-61l-207 2v-178h217v62h66v-124z" />
    <glyph glyph-name="Fsmall" unicode="&#xe103;" horiz-adv-x="473" 
d="M253 0h-212v62h55v386h-52v62h402v-123h-64v61h-206v-154l207 5v-61l-207 2v-178h77v-62z" />
    <glyph glyph-name="Gsmall" unicode="&#xe104;" horiz-adv-x="540" 
d="M309 518c62 0 112 -10 148 -21v-123h-66v71c-20 6 -52 9 -79 9c-126 0 -180 -78 -180 -203c0 -108 33 -192 166 -192c26 0 66 4 90 10v145h-76v53h193v-53h-41v-195c-56 -18 -118 -25 -172 -25c-179 0 -243 106 -243 258c0 109 48 266 260 266z" />
    <glyph glyph-name="Hsmall" unicode="&#xe105;" horiz-adv-x="597" 
d="M556 0h-183v62h48v176h-247v-176h49v-62h-182v62h53v386h-53v61h182v-61h-49v-153h247v153h-48v61h183v-61h-54v-386h54v-62z" />
    <glyph glyph-name="Ismall" unicode="&#xe106;" horiz-adv-x="309" 
d="M247 0h-184v62h50v386h-50v62h184v-62h-52v-386h52v-62z" />
    <glyph glyph-name="Jsmall" unicode="&#xe107;" horiz-adv-x="314" 
d="M55 448v62h210v-62h-60c0 -105 -1 -241 -1 -346c0 -128 -71 -194 -198 -234l-20 50c99 49 136 89 136 174l1 356h-68z" />
    <glyph glyph-name="Ksmall" unicode="&#xe108;" horiz-adv-x="541" 
d="M463 453l-170 -146l186 -250h50v-57h-190l-1 57h48l-151 204l-62 -54v-151h50v-56h-182v56h52v397h-52v57h181v-57h-49v-173l198 173h-44v57h184v-57h-48z" />
    <glyph glyph-name="Lsmall" unicode="&#xe109;" horiz-adv-x="474" 
d="M457 0h-416v62h55v386h-52v62h191v-62h-59v-386h215v82h66v-144z" />
    <glyph glyph-name="Msmall" unicode="&#xe10a;" horiz-adv-x="734" 
d="M561 383h-3l-26 -54l-55 -113c-26 -54 -52 -104 -78 -157h-65c-26 54 -54 105 -80 159l-80 166h-3v-322h49v-62h-178v62h52v386h-52v61h143l55 -112l90 -185c13 -27 25 -51 37 -78c14 29 27 55 40 85c17 37 121 253 139 290h145v-61h-51v-386h51v-62h-179v62h49v321z" />
    <glyph glyph-name="Nsmall" unicode="&#xe10b;" horiz-adv-x="624" 
d="M179 509l215 -308l57 -84h1v331h-54v61h183v-61h-52v-448h-75l-237 335l-45 63c0 -114 1 -221 1 -336h54v-62h-185v62h54v386h-54v61h137z" />
    <glyph glyph-name="Osmall" unicode="&#xe10c;" horiz-adv-x="576" 
d="M527 253c0 -148 -78 -259 -234 -259c-177 0 -244 101 -244 257c0 141 63 267 244 267s234 -127 234 -265zM444 251c0 96 -24 208 -151 208c-129 0 -161 -103 -161 -210c0 -128 48 -197 161 -197c103 0 151 90 151 199z" />
    <glyph glyph-name="Psmall" unicode="&#xe10d;" horiz-adv-x="489" 
d="M458 360c0 -63 -38 -156 -170 -156h-115v-142h69v-62h-201v62h52v386h-52v62h239c104 0 178 -52 178 -150zM276 448h-103v-186h106c49 0 98 22 98 95c0 66 -44 91 -101 91z" />
    <glyph glyph-name="Qsmall" unicode="&#xe10e;" horiz-adv-x="577" 
d="M527 252c0 -103 -39 -188 -115 -229c37 -8 84 -19 118 -25c-9 -22 -15 -46 -24 -68l-225 66h1c-170 4 -234 101 -234 254c0 142 64 268 244 268c182 0 235 -127 235 -266zM444 250c0 96 -24 209 -152 209c-129 0 -160 -104 -160 -210c0 -129 48 -197 160 -197
c104 0 152 89 152 198z" />
    <glyph glyph-name="Rsmall" unicode="&#xe10f;" horiz-adv-x="530" 
d="M286 219h-112v-157h63v-62h-194v62h50v386h-50v62h242c105 0 177 -46 177 -143c0 -48 -25 -113 -103 -137c27 -51 63 -120 89 -173l60 -8v-44c-21 -8 -52 -12 -70 -12c-37 0 -48 16 -62 43zM378 366c0 57 -43 82 -99 82h-105v-171h105c50 0 99 19 99 89z" />
    <glyph glyph-name="Ssmall" unicode="&#xe110;" horiz-adv-x="468" 
d="M234 458c-63 0 -107 -28 -107 -85c0 -50 60 -66 121 -81c85 -19 182 -44 182 -149c0 -104 -88 -149 -208 -149c-59 0 -125 11 -183 40v104h64v-61c38 -16 80 -23 114 -23c84 0 130 22 130 89c0 55 -51 71 -119 87c-96 22 -183 51 -183 140c0 93 80 148 190 148
c44 0 107 -8 157 -34v-104h-66v65c-27 10 -63 13 -92 13z" />
    <glyph glyph-name="Tsmall" unicode="&#xe111;" horiz-adv-x="475" 
d="M346 0h-214v62h66v386h-113v-69h-66v131h436v-131h-65v69h-112v-386h68v-62z" />
    <glyph glyph-name="Usmall" unicode="&#xe112;" horiz-adv-x="599" 
d="M516 448v-263c0 -114 -70 -190 -217 -190c-153 0 -216 71 -216 190v263h-49v62h183v-62h-55v-263c0 -88 50 -133 137 -133c88 0 138 45 138 133v263h-55v62h184v-62h-50z" />
    <glyph glyph-name="Vsmall" unicode="&#xe113;" horiz-adv-x="544" 
d="M275 84h3c8 27 17 56 26 81c33 95 64 187 96 283h-47v61h177v-61h-49c-53 -151 -108 -297 -161 -448h-92c-54 151 -108 296 -162 448h-50v61h181v-61h-49c32 -96 70 -194 104 -293c7 -22 15 -49 23 -71z" />
    <glyph glyph-name="Wsmall" unicode="&#xe114;" horiz-adv-x="785" 
d="M398 336h-6l-28 -85l-76 -251h-91l-124 448h-55v61h187v-61h-53l70 -260l24 -95h4l28 91l78 244l-8 20h-54v61h190v-61h-54l92 -275l24 -77h4l18 75l72 277h-53v61h182v-61h-55l-122 -448h-89l-78 254z" />
    <glyph glyph-name="Xsmall" unicode="&#xe115;" horiz-adv-x="543" 
d="M330 448v62h180v-62h-48l-142 -188l143 -198h54v-62h-200v62h58l-112 156l-110 -156h56v-62h-187v62h52l149 205l-131 181h-57v62h193v-62h-51l102 -139l103 139h-52z" />
    <glyph glyph-name="Ysmall" unicode="&#xe116;" horiz-adv-x="502" 
d="M248 280h8c13 20 25 42 37 62l66 106h-47v61h173v-61h-45c-49 -78 -99 -150 -148 -227v-159h65v-62h-215v62h65v157c-48 78 -98 150 -146 229h-45v61h177v-61h-45c16 -28 33 -54 64 -106z" />
    <glyph glyph-name="Zsmall" unicode="&#xe117;" horiz-adv-x="457" 
d="M417 456l-291 -394h239v73h66v-135h-406v51l291 397h-207v-64h-65v126h373v-54z" />
    <glyph glyph-name="Alphasmall" unicode="&#xe183;" horiz-adv-x="569" 
d="M544 0h-182v62h52c-10 29 -19 49 -29 78h-203c-10 -29 -19 -49 -29 -78h54v-62h-183v62h48c55 151 110 297 165 448h96l166 -448h45v-62zM367 196c-25 67 -39 118 -64 186c-5 12 -15 47 -19 59h-1c-4 -12 -15 -47 -20 -59c-24 -67 -38 -119 -62 -186h166z" />
    <glyph glyph-name="Betasmall" unicode="&#xe184;" horiz-adv-x="528" 
d="M470 377c0 -33 -12 -82 -68 -110c63 -21 86 -78 86 -124c0 -87 -76 -143 -164 -143h-283v62h56v386h-53v62h258c112 0 168 -56 168 -133zM301 236h-123v-174h123c76 0 105 38 105 85c0 46 -35 89 -105 89zM287 448h-109v-157h109c67 0 102 33 102 81c0 46 -30 76 -102 76
z" />
    <glyph glyph-name="Gammasmall" unicode="&#xe185;" horiz-adv-x="470" 
d="M253 0h-212v62h55v386h-52v62h402v-126h-64v64h-206v-386h77v-62z" />
    <glyph glyph-name="Deltasmall" unicode="&#xe186;" horiz-adv-x="565" 
d="M518 49v-49h-480v42l197 468h92zM283 436h-6l-39 -100l-113 -274h309l-112 273z" />
    <glyph glyph-name="Epsilonsmall" unicode="&#xe187;" horiz-adv-x="493" 
d="M459 0h-418v62h54v386h-51v62h402v-123h-64v61h-206v-154l207 5v-61l-207 2v-178h217v62h66v-124z" />
    <glyph glyph-name="Zetasmall" unicode="&#xe188;" horiz-adv-x="457" 
d="M417 456l-291 -394h239v73h66v-135h-406v51l291 397h-207v-64h-65v126h373v-54z" />
    <glyph glyph-name="Etasmall" unicode="&#xe189;" horiz-adv-x="597" 
d="M556 0h-183v62h48v176h-247v-176h49v-62h-182v62h53v386h-53v61h182v-61h-49v-153h247v153h-48v61h183v-61h-54v-386h54v-62z" />
    <glyph glyph-name="Thetasmall" unicode="&#xe18a;" horiz-adv-x="576" 
d="M172 238v52l230 5v-59zM527 253c0 -148 -78 -259 -234 -259c-177 0 -244 101 -244 257c0 141 63 267 244 267s234 -127 234 -265zM444 251c0 96 -24 208 -151 208c-129 0 -161 -103 -161 -210c0 -128 48 -197 161 -197c103 0 151 90 151 199z" />
    <glyph glyph-name="Iotasmall" unicode="&#xe18b;" horiz-adv-x="309" 
d="M247 0h-184v62h50v386h-50v62h184v-62h-52v-386h52v-62z" />
    <glyph glyph-name="Kappasmall" unicode="&#xe18c;" horiz-adv-x="541" 
d="M463 453l-170 -146l186 -250h50v-57h-190l-1 57h48l-151 204l-62 -54v-151h50v-56h-182v56h52v397h-52v57h181v-57h-49v-173l198 173h-44v57h184v-57h-48z" />
    <glyph glyph-name="Lambdasmall" unicode="&#xe18d;" horiz-adv-x="567" 
d="M285 425l-4 -1l-129 -362h54v-62h-183v62h48c55 151 110 297 165 448h96l166 -448h45v-62h-182v62h53c-43 123 -87 240 -129 363z" />
    <glyph glyph-name="Musmall" unicode="&#xe18e;" horiz-adv-x="734" 
d="M561 383h-3l-26 -54l-55 -113c-26 -54 -52 -104 -78 -157h-65c-26 54 -54 105 -80 159l-80 166h-3v-322h49v-62h-178v62h52v386h-52v61h143l55 -112l90 -185c13 -27 25 -51 37 -78c14 29 27 55 40 85c17 37 121 253 139 290h145v-61h-51v-386h51v-62h-179v62h49v321z" />
    <glyph glyph-name="Nusmall" unicode="&#xe18f;" horiz-adv-x="624" 
d="M179 509l215 -308l57 -84h1v331h-54v61h183v-61h-52v-448h-75l-237 335l-45 63c0 -114 1 -221 1 -336h54v-62h-185v62h54v386h-54v61h137z" />
    <glyph glyph-name="Xismall" unicode="&#xe190;" horiz-adv-x="476" 
d="M94 67h287v67h66v-134h-420v134h67v-67zM369 443h-263v-66h-65v133h393v-133h-65v66zM357 233l-239 3v54l239 4v-61z" />
    <glyph glyph-name="Omicronsmall" unicode="&#xe191;" horiz-adv-x="576" 
d="M527 253c0 -148 -78 -259 -234 -259c-177 0 -244 101 -244 257c0 141 63 267 244 267s234 -127 234 -265zM444 251c0 96 -24 208 -151 208c-129 0 -161 -103 -161 -210c0 -128 48 -197 161 -197c103 0 151 90 151 199z" />
    <glyph glyph-name="Pismall" unicode="&#xe192;" horiz-adv-x="597" 
d="M556 0h-183v62h48v386h-246v-386h49v-62h-182v62h52v386h-52v62h514v-62h-53v-386h53v-62z" />
    <glyph glyph-name="Rhosmall" unicode="&#xe193;" horiz-adv-x="489" 
d="M458 360c0 -63 -38 -156 -170 -156h-115v-142h69v-62h-201v62h52v386h-52v62h239c104 0 178 -52 178 -150zM276 448h-103v-186h106c49 0 98 22 98 95c0 66 -44 91 -101 91z" />
    <glyph glyph-name="Sigmasmall" unicode="&#xe194;" horiz-adv-x="462" 
d="M267 278v-20c-46 -67 -91 -129 -138 -196h244v71h66v-133h-407v54c49 73 99 141 149 213c-50 64 -99 124 -148 187v55h397v-128h-65v67h-233c45 -58 90 -112 135 -170z" />
    <glyph glyph-name="Tausmall" unicode="&#xe195;" horiz-adv-x="475" 
d="M346 0h-214v62h66v386h-113v-69h-66v131h436v-131h-65v69h-112v-386h68v-62z" />
    <glyph glyph-name="Upsilonsmall" unicode="&#xe196;" horiz-adv-x="502" 
d="M248 280h8c13 20 25 42 37 62l66 106h-47v61h173v-61h-45c-49 -78 -99 -150 -148 -227v-159h65v-62h-215v62h65v157c-48 78 -98 150 -146 229h-45v61h177v-61h-45c16 -28 33 -54 64 -106z" />
    <glyph glyph-name="Phismall" unicode="&#xe197;" horiz-adv-x="672" 
d="M632 258c0 -103 -100 -170 -253 -177v-25h50v-56h-178v56h49v25c-169 7 -260 62 -260 173c0 93 99 171 260 179v21h-49v55h178v-55h-50v-21c173 -7 253 -81 253 -175zM115 254c0 -85 72 -113 185 -119v245c-121 -10 -185 -56 -185 -126zM556 256c0 61 -48 117 -177 124
v-245c107 7 177 44 177 121z" />
    <glyph glyph-name="Chismall" unicode="&#xe198;" horiz-adv-x="543" 
d="M330 448v62h180v-62h-48l-142 -188l143 -198h54v-62h-200v62h58l-112 156l-110 -156h56v-62h-187v62h52l149 205l-131 181h-57v62h193v-62h-51l102 -139l103 139h-52z" />
    <glyph glyph-name="Psismall" unicode="&#xe199;" horiz-adv-x="688" 
d="M386 448v-256c101 8 139 50 140 130v188h129v-62h-51v-133c0 -106 -78 -180 -218 -187v-66h57v-62h-194v62h56v66c-145 8 -219 76 -219 195v125h-54v62h134v-191c0 -79 47 -121 139 -127v256h-44v62h170v-62h-45z" />
    <glyph glyph-name="Omegasmall" unicode="&#xe19a;" horiz-adv-x="590" 
d="M298 518c179 0 238 -121 238 -254c0 -82 -21 -156 -73 -201v-1h87v-62h-207v64c87 20 111 98 111 197c0 101 -31 197 -156 197c-118 0 -161 -87 -161 -196c0 -107 24 -180 108 -198v-64h-206v62h79v1c-45 41 -62 112 -62 195c0 136 67 260 242 260z" />
    <glyph glyph-name="Alphatonossmall" unicode="&#xe19b;" horiz-adv-x="569" 
d="M544 0h-182v62h52c-10 29 -19 49 -29 78h-203c-10 -29 -19 -49 -29 -78h54v-62h-183v62h48c55 151 110 297 165 448h96l166 -448h45v-62zM367 196c-25 67 -39 118 -64 186c-5 12 -15 47 -19 59h-1c-4 -12 -15 -47 -20 -59c-24 -67 -38 -119 -62 -186h166zM421 702
l-138 -148l-38 26l113 168z" />
    <glyph glyph-name="Epsilontonossmall" unicode="&#xe19c;" horiz-adv-x="493" 
d="M459 0h-418v62h54v386h-51v62h402v-123h-64v61h-206v-154l207 5v-61l-207 2v-178h217v62h66v-124zM375 702l-138 -148l-38 26l113 168z" />
    <glyph glyph-name="Etatonossmall" unicode="&#xe19d;" horiz-adv-x="597" 
d="M556 0h-183v62h48v176h-247v-176h49v-62h-182v62h53v386h-53v61h182v-61h-49v-153h247v153h-48v61h183v-61h-54v-386h54v-62zM430 702l-138 -148l-38 26l113 168z" />
    <glyph glyph-name="Iotatonossmall" unicode="&#xe19e;" horiz-adv-x="309" 
d="M247 0h-184v62h50v386h-50v62h184v-62h-52v-386h52v-62zM280 702l-138 -148l-38 26l113 168z" />
    <glyph glyph-name="Omicrontonossmall" unicode="&#xe19f;" horiz-adv-x="576" 
d="M527 253c0 -148 -78 -259 -234 -259c-177 0 -244 101 -244 257c0 141 63 267 244 267s234 -127 234 -265zM444 251c0 96 -24 208 -151 208c-129 0 -161 -103 -161 -210c0 -128 48 -197 161 -197c103 0 151 90 151 199zM422 702l-138 -148l-38 26l113 168z" />
    <glyph glyph-name="Ypsilontonossmall" unicode="&#xe1a0;" horiz-adv-x="502" 
d="M248 280h8c13 20 25 42 37 62l66 106h-47v61h173v-61h-45c-49 -78 -99 -150 -148 -227v-159h65v-62h-215v62h65v157c-48 78 -98 150 -146 229h-45v61h177v-61h-45c16 -28 33 -54 64 -106zM374 702l-138 -148l-38 26l113 168z" />
    <glyph glyph-name="Omegatonossmall" unicode="&#xe1a1;" horiz-adv-x="590" 
d="M298 518c179 0 238 -121 238 -254c0 -82 -21 -156 -73 -201v-1h87v-62h-207v64c87 20 111 98 111 197c0 101 -31 197 -156 197c-118 0 -161 -87 -161 -196c0 -107 24 -180 108 -198v-64h-206v62h79v1c-45 41 -62 112 -62 195c0 136 67 260 242 260zM427 702l-138 -148
l-38 26l113 168z" />
    <glyph glyph-name="Iotadieresissmall" unicode="&#xe1a2;" horiz-adv-x="309" 
d="M247 0h-184v62h50v386h-50v62h184v-62h-52v-386h52v-62zM289 623c0 -25 -21 -44 -49 -44c-25 0 -43 19 -43 44s20 44 43 44c28 0 49 -18 49 -44zM101 623c0 -25 -19 -44 -46 -44c-26 0 -46 19 -46 44s22 44 45 44c28 0 47 -18 47 -44z" />
    <glyph glyph-name="Ypsilondieresissmall" unicode="&#xe1a3;" horiz-adv-x="502" 
d="M248 280h8c13 20 25 42 37 62l66 106h-47v61h173v-61h-45c-49 -78 -99 -150 -148 -227v-159h65v-62h-215v62h65v157c-48 78 -98 150 -146 229h-45v61h177v-61h-45c16 -28 33 -54 64 -106zM388 623c0 -25 -21 -44 -49 -44c-25 0 -43 19 -43 44s20 44 43 44
c28 0 49 -18 49 -44zM200 623c0 -25 -19 -44 -46 -44c-26 0 -46 19 -46 44s22 44 45 44c28 0 47 -18 47 -44z" />
    <glyph glyph-name="Scaronsmall" unicode="&#xe118;" horiz-adv-x="468" 
d="M234 458c-63 0 -107 -28 -107 -85c0 -50 60 -66 121 -81c85 -19 182 -44 182 -149c0 -104 -88 -149 -208 -149c-59 0 -125 11 -183 40v104h64v-61c38 -16 80 -23 114 -23c84 0 130 22 130 89c0 55 -51 71 -119 87c-96 22 -183 51 -183 140c0 93 80 148 190 148
c44 0 107 -8 157 -34v-104h-66v65c-27 10 -63 13 -92 13zM379 735l24 -29l-152 -141h-54l-151 143l23 28l155 -100z" />
    <glyph glyph-name="OEsmall" unicode="&#xe119;" horiz-adv-x="686" 
d="M387 453v-159c61 0 127 2 188 3v-59c-63 0 -125 0 -188 1v-184h198v68h66v-123h-300c-17 -3 -39 -5 -58 -5c-176 0 -244 99 -244 255c0 142 63 268 244 268c25 0 54 -5 75 -9h270v-122h-64v66h-187zM132 249c0 -122 46 -195 146 -195c8 0 18 1 27 2v403h-13
c-128 -1 -160 -104 -160 -210z" />
    <glyph glyph-name="Zcaronsmall" unicode="&#xe11a;" horiz-adv-x="457" 
d="M417 456l-291 -394h239v73h66v-135h-406v51l291 397h-207v-64h-65v126h373v-54zM383 735l24 -29l-152 -141h-54l-151 143l23 28l155 -100z" />
    <glyph glyph-name="Ydieresissmall" unicode="&#xe11b;" horiz-adv-x="502" 
d="M248 280h8c13 20 25 42 37 62l66 106h-47v61h173v-61h-45c-49 -78 -99 -150 -148 -227v-159h65v-62h-215v62h65v157c-48 78 -98 150 -146 229h-45v61h177v-61h-45c16 -28 33 -54 64 -106zM387 623c0 -25 -21 -44 -49 -44c-25 0 -43 19 -43 44s20 44 43 44
c28 0 49 -18 49 -44zM199 623c0 -25 -19 -44 -46 -44c-26 0 -46 19 -46 44s22 44 45 44c28 0 47 -18 47 -44z" />
    <glyph glyph-name="Agravesmall" unicode="&#xe11c;" horiz-adv-x="569" 
d="M544 0h-182v62h52c-10 29 -19 49 -29 78h-203c-10 -29 -19 -49 -29 -78h54v-62h-183v62h48c55 151 110 297 165 448h96l166 -448h45v-62zM367 196c-25 67 -39 118 -64 186c-5 12 -15 47 -19 59h-1c-4 -12 -15 -47 -20 -59c-24 -67 -38 -119 -62 -186h166zM284 555
l-145 139l56 52l123 -162z" />
    <glyph glyph-name="Aacutesmall" unicode="&#xe11d;" horiz-adv-x="569" 
d="M544 0h-182v62h52c-10 29 -19 49 -29 78h-203c-10 -29 -19 -49 -29 -78h54v-62h-183v62h48c55 151 110 297 165 448h96l166 -448h45v-62zM367 196c-25 67 -39 118 -64 186c-5 12 -15 47 -19 59h-1c-4 -12 -15 -47 -20 -59c-24 -67 -38 -119 -62 -186h166zM403 685
l-145 -139l-35 29l123 162z" />
    <glyph glyph-name="Acircumflexsmall" unicode="&#xe11e;" horiz-adv-x="569" 
d="M544 0h-182v62h52c-10 29 -19 49 -29 78h-203c-10 -29 -19 -49 -29 -78h54v-62h-183v62h48c55 151 110 297 165 448h96l166 -448h45v-62zM462 572l-25 -29l-155 99l-154 -100l-23 28l150 143h55zM367 196c-25 67 -39 118 -64 186c-5 12 -15 47 -19 59h-1
c-4 -12 -15 -47 -20 -59c-24 -67 -38 -119 -62 -186h166z" />
    <glyph glyph-name="Atildesmall" unicode="&#xe11f;" horiz-adv-x="569" 
d="M544 0h-182v62h52c-10 29 -19 49 -29 78h-203c-10 -29 -19 -49 -29 -78h54v-62h-183v62h48c55 151 110 297 165 448h96l166 -448h45v-62zM367 196c-25 67 -39 118 -64 186c-5 12 -15 47 -19 59h-1c-4 -12 -15 -47 -20 -59c-24 -67 -38 -119 -62 -186h166zM364 592
c-60 0 -108 39 -145 39l-57 -39l-28 22c16 45 48 75 87 75c47 0 108 -39 144 -39l57 40l28 -22c-15 -45 -47 -76 -86 -76z" />
    <glyph glyph-name="Adieresissmall" unicode="&#xe120;" horiz-adv-x="569" 
d="M544 0h-182v62h52c-10 29 -19 49 -29 78h-203c-10 -29 -19 -49 -29 -78h54v-62h-183v62h48c55 151 110 297 165 448h96l166 -448h45v-62zM367 196c-25 67 -39 118 -64 186c-5 12 -15 47 -19 59h-1c-4 -12 -15 -47 -20 -59c-24 -67 -38 -119 -62 -186h166zM417 643
c0 -25 -21 -44 -49 -44c-25 0 -43 19 -43 44s20 44 43 44c28 0 49 -18 49 -44zM229 643c0 -25 -19 -44 -46 -44c-26 0 -46 19 -46 44s22 44 45 44c28 0 47 -18 47 -44z" />
    <glyph glyph-name="Aringsmall" unicode="&#xe121;" horiz-adv-x="569" 
d="M544 0h-182v62h52c-10 29 -19 49 -29 78h-203c-10 -29 -19 -49 -29 -78h54v-62h-183v62h48c55 151 110 297 165 448h96l166 -448h45v-62zM280 551c-61 0 -109 47 -109 105c0 56 48 105 109 105c60 0 106 -48 106 -105c0 -59 -47 -105 -106 -105zM367 196
c-25 67 -39 118 -64 186c-5 12 -15 47 -19 59h-1c-4 -12 -15 -47 -20 -59c-24 -67 -38 -119 -62 -186h166zM280 714c-34 0 -60 -28 -60 -61c0 -30 25 -58 60 -58c32 0 57 28 57 58c0 32 -25 61 -57 61z" />
    <glyph glyph-name="AEsmall" unicode="&#xe122;" horiz-adv-x="804" 
d="M361 60h54v92h-202l-63 -92h54v-60h-193v60h52l269 388h-40v61h456v-127h-65v66h-186v-154c63 0 125 2 188 3v-59c-63 0 -125 0 -188 1v-179h198v63h66v-123h-400v60zM416 444h-4c-36 -53 -121 -181 -161 -237h165c0 78 -1 159 0 237z" />
    <glyph glyph-name="Ccedillasmall" unicode="&#xe123;" horiz-adv-x="488" 
d="M439 77l16 -57c-42 -16 -111 -25 -164 -25h-1l-44 -58c65 -3 109 -28 109 -79c0 -56 -56 -102 -179 -102v36c71 7 118 25 118 59c0 36 -53 41 -101 41l-13 19l66 87c-146 16 -198 114 -198 253c0 110 49 267 248 267c63 0 111 -10 146 -22v-126h-64v75c-22 5 -52 8 -80 8
c-116 0 -167 -76 -167 -202c0 -116 38 -193 172 -193c30 0 90 6 136 19z" />
    <glyph glyph-name="Egravesmall" unicode="&#xe124;" horiz-adv-x="493" 
d="M459 0h-418v62h54v386h-51v62h402v-123h-64v61h-206v-154l207 5v-61l-207 2v-178h217v62h66v-124zM254 556l-145 139l56 52l123 -162z" />
    <glyph glyph-name="Eacutesmall" unicode="&#xe125;" horiz-adv-x="493" 
d="M459 0h-418v62h54v386h-51v62h402v-123h-64v61h-206v-154l207 5v-61l-207 2v-178h217v62h66v-124zM354 704l-145 -139l-35 29l123 162z" />
    <glyph glyph-name="Ecircumflexsmall" unicode="&#xe126;" horiz-adv-x="493" 
d="M459 0h-418v62h54v386h-51v62h402v-123h-64v61h-206v-154l207 5v-61l-207 2v-178h217v62h66v-124zM426 581l-25 -29l-155 99l-154 -100l-23 28l150 143h55z" />
    <glyph glyph-name="Edieresissmall" unicode="&#xe127;" horiz-adv-x="493" 
d="M459 0h-418v62h54v386h-51v62h402v-123h-64v61h-206v-154l207 5v-61l-207 2v-178h217v62h66v-124zM374 633c0 -25 -21 -44 -49 -44c-25 0 -43 19 -43 44s20 44 43 44c28 0 49 -18 49 -44zM186 633c0 -25 -19 -44 -46 -44c-26 0 -46 19 -46 44s22 44 45 44
c28 0 47 -18 47 -44z" />
    <glyph glyph-name="Igravesmall" unicode="&#xe128;" horiz-adv-x="309" 
d="M247 0h-184v62h50v386h-50v62h184v-62h-52v-386h52v-62zM163 555l-145 139l56 52l123 -162z" />
    <glyph glyph-name="Iacutesmall" unicode="&#xe129;" horiz-adv-x="309" 
d="M247 0h-184v62h50v386h-50v62h184v-62h-52v-386h52v-62zM270 694l-145 -139l-35 29l123 162z" />
    <glyph glyph-name="Icircumflexsmall" unicode="&#xe12a;" horiz-adv-x="309" 
d="M247 0h-184v62h50v386h-50v62h184v-62h-52v-386h52v-62zM336 581l-25 -29l-155 99l-154 -100l-23 28l150 143h55z" />
    <glyph glyph-name="Idieresissmall" unicode="&#xe12b;" horiz-adv-x="309" 
d="M247 0h-184v62h50v386h-50v62h184v-62h-52v-386h52v-62zM291 629c0 -25 -21 -44 -49 -44c-25 0 -43 19 -43 44s20 44 43 44c28 0 49 -18 49 -44zM103 629c0 -25 -19 -44 -46 -44c-26 0 -46 19 -46 44s22 44 45 44c28 0 47 -18 47 -44z" />
    <glyph glyph-name="Ethsmall" unicode="&#xe12c;" horiz-adv-x="561" 
d="M276 0h-235v62h57v188h-54v44h54v154h-54v62h239c184 0 233 -118 233 -254c0 -139 -55 -256 -240 -256zM272 448h-92v-154h114v-44h-114v-188h88c48 0 166 2 166 189c0 190 -107 197 -162 197z" />
    <glyph glyph-name="Ntildesmall" unicode="&#xe12d;" horiz-adv-x="624" 
d="M179 509l215 -308l57 -84h1v331h-54v61h183v-61h-52v-448h-75l-237 335l-45 63c0 -114 1 -221 1 -336h54v-62h-185v62h54v386h-54v61h137zM381 592c-60 0 -108 39 -145 39l-57 -39l-28 22c16 45 48 75 87 75c47 0 108 -39 144 -39l57 40l28 -22c-15 -45 -47 -76 -86 -76z
" />
    <glyph glyph-name="Ogravesmall" unicode="&#xe12e;" horiz-adv-x="576" 
d="M527 253c0 -148 -78 -259 -234 -259c-177 0 -244 101 -244 257c0 141 63 267 244 267s234 -127 234 -265zM444 251c0 96 -24 208 -151 208c-129 0 -161 -103 -161 -210c0 -128 48 -197 161 -197c103 0 151 90 151 199zM318 555l-145 139l56 52l123 -162z" />
    </font>
</defs>
</svg>
