<?xml version="1.0" standalone="no"?>
<!DOCTYPE svg PUBLIC "-//W3C//DTD SVG 1.1//EN" "http://www.w3.org/Graphics/SVG/1.1/DTD/svg11.dtd" >
<svg xmlns="http://www.w3.org/2000/svg" xmlns:xlink="http://www.w3.org/1999/xlink" version="1.1">
<metadata>
Created by FontForge 20161116 at Wed Apr 17 13:49:29 2013
 By Jimmy Warting
Copyright (c) 2006 Parachute\u00AE , www.parachute.gr. All rights reserved. Sapient Centro Slab is exclusively licensed to Sapient.
</metadata>
<defs>
<font id="SapientCentroSlab-Bold" horiz-adv-x="1818" >
  <font-face 
    font-family="Sapient Centro Slab"
    font-weight="700"
    font-stretch="normal"
    units-per-em="1000"
    panose-1="2 0 8 3 6 0 0 2 0 4"
    ascent="750"
    descent="-250"
    x-height="490"
    cap-height="688"
    bbox="-407 -272 1760 979"
    underline-thickness="70"
    underline-position="-120"
    stemh="86"
    stemv="139"
    unicode-range="U+0020-FB05"
  />
<missing-glyph horiz-adv-x="445" 
d="M0 0v687h445v-687h-445zM94 60h257l-129 228zM222 400l129 227h-258zM61 570v-452l126 226zM257 343l127 -226v455z" />
    <glyph glyph-name="fj" unicode="fj" horiz-adv-x="640" 
d="M35 0v92h65v306h-70v76c15 5 57 17 71 20v61c0 105 57 184 217 184c46 0 121 -7 188 -24c-2 -14 -15 -87 -18 -99c-57 8 -103 14 -142 14c-74 0 -110 -20 -110 -95v-44h329v-407c0 -165 -38 -256 -227 -310c-5 11 -29 75 -34 85c105 60 121 89 121 189v350h-189v-306h74
v-92h-275z" />
    <glyph glyph-name="ffj" unicode="ffj" horiz-adv-x="961" 
d="M824 725c-7 -32 -12 -65 -19 -98c-58 9 -100 14 -139 14c-73 0 -110 -20 -110 -95v-56h323v-415c0 -167 -51 -255 -226 -300c-11 28 -22 57 -34 85c108 61 121 91 121 192v345h-184v-306h74v-91h-264v91h55v306h-186v-306h61v-91h-262v91h66v306h-71v76c24 8 47 14 72 20
v68c7 90 67 160 224 160c47 0 90 -3 146 -20c33 32 87 48 166 48c51 0 124 -6 187 -24zM422 490v69c0 18 1 34 5 47c-31 7 -60 10 -83 10c-81 0 -109 -26 -109 -95v-31h187z" />
    <glyph glyph-name="ff" unicode="ff" horiz-adv-x="744" 
d="M369 0v91h52v306h-185v-306h54v-91h-256v91h66v306h-70v77l71 20v34c0 104 45 195 223 195c43 0 88 -3 142 -20c30 27 82 42 154 42c32 0 81 -5 119 -16l-19 -97c-29 6 -64 9 -86 9c-47 0 -77 -21 -77 -68v-83h141v-93h-141v-306h78v-91h-266zM344 617
c-80 0 -108 -27 -108 -96v-31h185c2 50 0 103 4 117c-29 7 -58 10 -81 10z" />
    <glyph glyph-name="fi" unicode="fi" horiz-adv-x="663" 
d="M557 491v-395h72v-83c-34 -14 -81 -22 -113 -22c-70 0 -97 25 -97 87v320h-183v-306h64v-92h-265v92h65v306h-70v77l71 20v60c0 104 55 184 214 184c43 0 122 -5 192 -24l-18 -99c-58 9 -104 15 -143 15c-74 0 -110 -21 -110 -96v-44h321z" />
    <glyph glyph-name="fl" unicode="fl" horiz-adv-x="670" 
d="M569 734v-642h67v-92h-264v92h58v525c-29 5 -59 8 -84 8c-74 0 -110 -20 -110 -95v-39h130v-93h-130v-306h58v-92h-259v92h65v306h-70v77l71 20v55c0 103 55 184 214 184c35 0 89 -4 142 -13z" />
    <glyph glyph-name="ffi" unicode="ffi" horiz-adv-x="985" 
d="M739 397h-183v-306h71v-91h-266v91h60v306h-186v-306h57v-91h-258v91h66v306h-71v76c24 8 47 14 72 20v65c6 96 68 164 223 164c43 0 90 -4 147 -21c34 33 88 48 171 48c51 0 126 -8 185 -25l-18 -98c-59 10 -104 14 -143 14c-74 0 -110 -20 -110 -94v-56h322v-395h71
v-82c-33 -14 -81 -21 -112 -21c-79 0 -98 37 -98 90v315zM422 490v72c0 18 0 31 6 44c-31 7 -61 10 -84 10c-81 0 -109 -26 -109 -95v-31h187z" />
    <glyph glyph-name="ffl" unicode="ffl" horiz-adv-x="991" 
d="M557 546c0 -19 -1 -38 -1 -56h130v-93h-130v-306h66v-91h-262v91h61v306h-186v-306h56v-91h-257v91h66v306h-71v76c24 8 47 14 72 20v62c5 99 71 167 230 167c42 0 87 -5 140 -21c39 36 98 48 188 48c41 0 92 -7 145 -19l86 19v-658h66v-91h-263v91h58v542
c-30 4 -60 7 -85 7c-74 0 -109 -20 -109 -94zM422 490c0 38 -2 84 6 108v8c-31 7 -61 10 -84 10c-81 0 -109 -26 -109 -95v-31h187z" />
    <glyph glyph-name="ft" unicode="ft" horiz-adv-x="763" 
d="M35 0v92h65v306h-70v77l71 20v73c0 93 41 167 184 167c34 0 97 -5 142 -17l-20 -96c-27 5 -67 8 -89 8c-52 0 -82 -17 -82 -67v-72h203l36 126l91 9v-135h143v-93h-143v-223c0 -55 15 -78 67 -78c19 0 50 4 85 13l16 -90c-41 -18 -96 -28 -138 -28
c-134 0 -168 67 -168 145v261h-192v-306h79v-92h-280z" />
    <glyph glyph-name=".notdef" horiz-adv-x="445" 
d="M0 0v687h445v-687h-445zM94 60h257l-129 228zM222 400l129 227h-258zM61 570v-452l126 226zM257 343l127 -226v455z" />
    <glyph glyph-name="exclam" unicode="!" horiz-adv-x="281" 
d="M76 705h130l-1 -266l-14 -246h-99l-13 246zM141 129c44 0 74 -31 74 -71c0 -38 -31 -71 -74 -71c-45 0 -75 33 -75 71c0 39 32 71 75 71z" />
    <glyph glyph-name="quotedbl" unicode="&#x22;" horiz-adv-x="362" 
d="M144 448h-77l-18 241h115zM300 448h-78l-18 241h114z" />
    <glyph glyph-name="numbersign" unicode="#" horiz-adv-x="586" 
d="M530 395h-84l-31 -131h81l-5 -67h-90l-45 -197h-77l45 197h-114l-46 -197h-77l46 197h-75l6 67h84l30 131h-82l5 66h93l42 176h75l-41 -176h115l42 176h75l-40 -176h73zM255 395l-30 -131h114l30 131h-114z" />
    <glyph glyph-name="dollar" unicode="$" horiz-adv-x="597" 
d="M311 -76v816h43v-68c45 -4 94 -15 133 -37v-146h-81v76c-16 7 -33 11 -52 14v-195c87 -29 181 -68 181 -183c0 -110 -72 -174 -181 -191v-86h-43zM278 740v-816h-41v83c-56 5 -110 17 -163 45v150h82v-77c30 -14 53 -18 81 -21v206c-90 28 -166 71 -166 173
c0 104 65 171 166 188v69h41zM424 196c0 42 -29 63 -70 79v-166c41 9 70 36 70 87zM179 495c0 -42 23 -60 58 -75v153c-34 -10 -58 -34 -58 -78z" />
    <glyph glyph-name="percent" unicode="%" horiz-adv-x="900" 
d="M377 465c0 -105 -44 -203 -177 -203c-140 0 -179 95 -179 203c0 102 39 207 180 207c144 0 176 -108 176 -207zM274 465c0 57 -7 132 -73 132c-69 0 -78 -73 -78 -133c0 -74 12 -129 78 -129c60 0 73 63 73 130zM650 708l-315 -728h-82l315 728h82zM876 200
c0 -105 -44 -204 -177 -204c-140 0 -179 96 -179 203c0 102 39 207 180 207c144 0 176 -108 176 -206zM773 199c0 57 -7 133 -73 133c-69 0 -78 -74 -78 -134c0 -73 12 -129 78 -129c60 0 73 64 73 130z" />
    <glyph glyph-name="ampersand" unicode="&#x26;" horiz-adv-x="789" 
d="M288 -15c-134 0 -240 68 -240 201c0 82 51 157 159 214c-37 48 -51 91 -51 134c0 65 41 152 165 152c132 0 169 -90 169 -142c0 -78 -66 -130 -136 -172c27 -36 58 -76 92 -116c23 -26 45 -52 69 -77c39 38 70 88 80 145h-70v87h244v-87h-64c-13 -78 -55 -152 -116 -212
c44 -39 98 -76 143 -96l-47 -81c-50 21 -126 69 -178 115c-63 -42 -141 -65 -219 -65zM356 205c-32 39 -65 79 -93 115c-53 -30 -93 -69 -93 -126c0 -76 57 -116 131 -116c43 0 89 15 130 41c-27 28 -51 57 -75 86zM266 539c0 -27 15 -59 39 -93c43 23 86 51 86 98
c0 37 -26 60 -66 60c-42 0 -59 -37 -59 -65z" />
    <glyph glyph-name="quotesingle" unicode="'" horiz-adv-x="239" 
d="M157 448h-78l-18 241h115z" />
    <glyph glyph-name="parenleft" unicode="(" horiz-adv-x="331" 
d="M62 280c0 194 90 349 167 433l60 -38c-34 -49 -108 -182 -108 -392c0 -232 74 -362 109 -411l-60 -41c-77 84 -168 239 -168 449z" />
    <glyph glyph-name="parenright" unicode=")" horiz-adv-x="333" 
d="M265 280c0 -210 -90 -364 -168 -448l-58 40c33 49 109 180 109 412c0 209 -76 343 -110 391l61 38c77 -84 166 -239 166 -433z" />
    <glyph glyph-name="asterisk" unicode="*" horiz-adv-x="421" 
d="M242 579c35 18 70 39 106 58c19 -33 26 -66 33 -101c-41 -6 -81 -12 -122 -16l87 -81c-25 -25 -52 -45 -83 -63l-52 110c-16 -36 -34 -72 -50 -109c-32 17 -59 36 -86 62c29 27 60 55 88 82l-119 15c8 38 17 70 33 103c34 -21 70 -40 105 -60c-8 38 -17 78 -24 116
c18 3 36 3 55 3s36 0 53 -3c-8 -38 -15 -78 -24 -116z" />
    <glyph glyph-name="plus" unicode="+" horiz-adv-x="597" 
d="M513 261h-163v-170h-85v170h-164v83h164v165h85v-165h163v-83z" />
    <glyph glyph-name="comma" unicode="," horiz-adv-x="261" 
d="M51 70c0 38 31 71 77 71c53 0 79 -42 79 -88c0 -71 -52 -150 -124 -193l-35 44c34 32 52 62 57 101c-40 4 -54 32 -54 65z" />
    <glyph glyph-name="hyphen" unicode="-" horiz-adv-x="392" 
d="M333 219h-274v99h274v-99z" />
    <glyph glyph-name="period" unicode="." horiz-adv-x="261" 
d="M206 66c0 -42 -35 -77 -76 -77c-42 0 -78 35 -78 77c0 43 36 77 77 77c43 0 77 -34 77 -77z" />
    <glyph glyph-name="slash" unicode="/" horiz-adv-x="370" 
d="M364 706l-259 -739h-97l259 739h97z" />
    <glyph glyph-name="zero" unicode="0" horiz-adv-x="597" 
d="M567 332c0 -176 -68 -340 -267 -340c-215 0 -272 160 -272 338c0 168 58 346 272 346c216 0 267 -183 267 -344zM427 330c0 105 -12 245 -127 245s-132 -138 -132 -246c0 -134 23 -237 132 -237c103 0 127 116 127 238z" />
    <glyph glyph-name="one" unicode="1" horiz-adv-x="597" 
d="M93 0v92h142v457c-16 -2 -135 -18 -150 -19l-15 76l180 61h123v-575h139v-92h-419z" />
    <glyph glyph-name="two" unicode="2" horiz-adv-x="597" 
d="M505 479c0 -149 -175 -292 -281 -386v-1c68 0 137 -1 205 -1v77h104v-168h-494v83c130 110 325 266 325 388c0 64 -38 96 -113 96c-34 0 -95 -10 -167 -52c-15 28 -28 56 -43 84c83 57 167 76 233 76c140 0 231 -69 231 -196z" />
    <glyph glyph-name="three" unicode="3" horiz-adv-x="597" 
d="M77 667h430l17 -75l-190 -187c118 -9 204 -65 204 -189c0 -151 -121 -226 -268 -226c-62 0 -154 11 -222 46c4 12 27 79 32 91c74 -23 123 -30 167 -30c93 0 149 40 149 118c0 67 -46 109 -158 109c-16 0 -30 -1 -48 -4l-17 69c44 45 143 140 188 184h-182v-78h-102v172z
" />
    <glyph glyph-name="four" unicode="4" horiz-adv-x="597" 
d="M330 667h141v-386h97v-92h-97v-97h67v-92h-264v92h63v97h-307v81zM337 512h-5c-50 -67 -128 -165 -178 -231h184z" />
    <glyph glyph-name="five" unicode="5" horiz-adv-x="597" 
d="M261 335c-32 0 -69 -9 -105 -25l-69 37l25 320h394v-160h-105v67h-179l-12 -158c22 8 47 15 90 15c133 0 240 -69 240 -212c0 -152 -120 -228 -265 -228c-61 0 -157 9 -225 46l32 94c75 -23 125 -31 168 -31c89 0 150 37 150 119c0 79 -63 116 -139 116z" />
    <glyph glyph-name="six" unicode="6" horiz-adv-x="597" 
d="M183 383l5 -4c50 27 101 42 155 42c107 0 205 -64 205 -207s-102 -222 -245 -222c-192 0 -257 134 -257 308c0 210 82 375 294 375c70 0 122 -13 151 -25l-22 -94c-49 16 -91 19 -120 19c-124 0 -160 -121 -166 -192zM309 327c-70 0 -112 -35 -124 -41v-19
c0 -73 17 -174 119 -174c71 0 111 48 111 119c0 65 -24 115 -106 115z" />
    <glyph glyph-name="seven" unicode="7" horiz-adv-x="597" 
d="M186 479h-106v187h443v-87c-89 -194 -176 -386 -265 -579h-132l260 574h-200v-95z" />
    <glyph glyph-name="eight" unicode="8" horiz-adv-x="597" 
d="M206 499c0 -53 57 -72 128 -105c52 39 69 70 69 102c0 38 -29 84 -102 84c-68 0 -95 -51 -95 -81zM295 94c75 0 116 47 116 98c0 56 -49 85 -154 127c-60 -41 -76 -89 -76 -131c0 -51 38 -94 114 -94zM530 506c0 -46 -18 -102 -90 -156c63 -33 109 -87 109 -167
c0 -109 -100 -191 -256 -191c-159 0 -252 73 -252 184c0 60 27 140 116 192c-56 35 -83 71 -83 133c0 102 96 178 229 178c103 0 227 -47 227 -173z" />
    <glyph glyph-name="nine" unicode="9" horiz-adv-x="597" 
d="M406 284l-5 3c-48 -28 -102 -43 -154 -43c-112 0 -206 66 -206 207c0 144 103 224 245 224c192 0 257 -135 257 -310c0 -209 -83 -372 -295 -372c-70 0 -121 10 -156 22l21 92c52 -14 97 -17 127 -17c124 0 160 122 166 194zM280 338c69 0 113 34 124 41v19
c0 72 -16 173 -119 173c-72 0 -112 -47 -112 -117c0 -65 25 -116 107 -116z" />
    <glyph glyph-name="colon" unicode=":" horiz-adv-x="258" 
d="M206 66c0 -42 -35 -77 -76 -77c-42 0 -78 35 -78 77c0 43 36 77 77 77c43 0 77 -34 77 -77zM206 363c0 -44 -35 -78 -76 -78c-42 0 -78 34 -78 78c0 41 36 76 77 76c43 0 77 -35 77 -76z" />
    <glyph glyph-name="semicolon" unicode=";" horiz-adv-x="258" 
d="M206 363c0 -44 -35 -78 -76 -78c-42 0 -78 34 -78 78c0 41 36 76 77 76c43 0 77 -35 77 -76zM53 70c0 38 30 71 76 71c54 0 80 -42 80 -88c0 -71 -52 -150 -125 -193l-34 44c34 32 52 62 57 101c-40 4 -54 32 -54 65z" />
    <glyph glyph-name="less" unicode="&#x3c;" horiz-adv-x="597" 
d="M523 143v-95l-443 216v68l443 217v-96l-331 -154z" />
    <glyph glyph-name="equal" unicode="=" horiz-adv-x="597" 
d="M510 340h-424v81h424v-81zM510 180h-424v80h424v-80z" />
    <glyph glyph-name="greater" unicode="&#x3e;" horiz-adv-x="597" 
d="M80 48v95l332 156l-332 154v96l444 -217v-68z" />
    <glyph glyph-name="question" unicode="?" horiz-adv-x="495" 
d="M251 709c138 0 211 -62 211 -159c0 -137 -200 -204 -200 -313c0 -15 2 -31 4 -51c-38 -1 -73 -3 -111 -5c-5 30 -7 56 -7 75c0 128 170 197 170 281c0 46 -38 68 -93 68c-25 0 -55 -4 -83 -12v-82h-99v161c77 27 154 37 208 37zM299 56c0 -37 -33 -67 -73 -67
c-41 0 -74 30 -74 67c0 38 33 70 73 70c41 0 74 -31 74 -70z" />
    <glyph glyph-name="at" unicode="@" horiz-adv-x="922" 
d="M477 701c225 0 360 -133 360 -334c0 -134 -90 -209 -193 -209c-45 0 -102 18 -118 65c-32 -35 -83 -56 -128 -56c-89 0 -108 65 -108 105c0 99 104 103 222 115v18c0 46 -13 63 -64 63c-34 0 -71 -6 -106 -17l-17 62c43 17 95 28 146 28c79 0 135 -30 135 -120v-147
c0 -27 17 -48 57 -48c33 0 99 36 99 136c0 164 -108 270 -285 270c-179 0 -323 -128 -323 -295c0 -171 126 -297 298 -297c36 0 78 5 133 22c7 -20 14 -40 23 -60c-46 -21 -106 -30 -156 -30c-231 0 -373 154 -373 362c0 212 175 367 398 367zM512 340
c-55 -6 -120 -5 -120 -56c0 -32 14 -51 49 -51c24 0 48 11 71 31v76z" />
    <glyph glyph-name="A" unicode="A" horiz-adv-x="736" 
d="M453 94h63l-30 96h-245c-8 -25 -22 -65 -30 -96h65v-94h-256v94h55l208 593h177l201 -593h55v-94h-263v94zM458 282l-75 239c-4 17 -10 34 -15 52h-3l-16 -53c-22 -67 -56 -170 -77 -238h186z" />
    <glyph glyph-name="B" unicode="B" horiz-adv-x="686" 
d="M535 361v-1c86 -30 109 -108 109 -166c0 -118 -93 -194 -218 -194h-385v94h72v498h-69v95h352c152 0 227 -69 227 -182c0 -37 -14 -108 -88 -144zM383 308h-126v-214h126c79 0 112 49 112 107c0 57 -36 107 -112 107zM370 592h-113v-193h113c68 0 107 39 107 96
s-33 97 -107 97z" />
    <glyph glyph-name="C" unicode="C" horiz-adv-x="623" 
d="M201 345c0 -162 52 -240 205 -240c33 0 109 6 160 21l22 -100c-57 -22 -145 -36 -215 -36c-251 0 -323 156 -323 352c0 161 63 359 333 359c73 0 133 -11 183 -28v-193h-101v103c-26 7 -55 9 -79 9c-134 0 -185 -98 -185 -247z" />
    <glyph glyph-name="D" unicode="D" horiz-adv-x="729" 
d="M367 0h-324v95h72v496h-68v97h326c242 0 306 -158 306 -342c0 -185 -75 -346 -312 -346zM353 591h-93v-496h92c73 0 176 44 176 246c0 206 -94 250 -175 250z" />
    <glyph glyph-name="E" unicode="E" horiz-adv-x="649" 
d="M617 0h-574v96h69v496h-68v95h560v-202h-101v107h-247v-192l230 6v-99l-230 6v-217h259v112h102v-208z" />
    <glyph glyph-name="F" unicode="F" horiz-adv-x="633" 
d="M350 0h-307v95h70v497h-69v95h562v-202h-103v107h-247v-192l230 7v-100l-230 6v-218h94v-95z" />
    <glyph glyph-name="G" unicode="G" horiz-adv-x="689" 
d="M394 701c73 0 142 -11 192 -28v-189h-101v98c-23 6 -56 10 -85 10c-141 0 -199 -98 -199 -247c0 -152 44 -242 179 -242c28 0 69 4 95 11v162h-89v89h268v-89h-49v-249c-76 -26 -160 -37 -232 -37c-250 0 -323 159 -323 352c0 159 62 359 344 359z" />
    <glyph glyph-name="H" unicode="H" horiz-adv-x="786" 
d="M743 0h-275v95h62v217h-275v-217h63v-95h-276v95h70v497h-70v95h276v-95h-63v-190h275v190h-62v95h275v-95h-69v-497h69v-95z" />
    <glyph glyph-name="I" unicode="I" horiz-adv-x="419" 
d="M349 0h-279v95h68v497h-68v96h279v-96h-68v-497h68v-95z" />
    <glyph glyph-name="J" unicode="J" horiz-adv-x="438" 
d="M71 592v96h312v-96h-79v-432c0 -189 -101 -296 -289 -341l-34 97c157 71 180 126 180 248v428h-90z" />
    <glyph glyph-name="K" unicode="K" horiz-adv-x="722" 
d="M623 594l-194 -176l218 -323h57v-95h-277l-1 95h59l-159 238l-75 -69v-170h62v-94h-270v94h69v500h-69v93h273v-93h-65v-209l225 209h-59v93h266v-93h-60z" />
    <glyph glyph-name="L" unicode="L" horiz-adv-x="629" 
d="M618 0h-575v95h70v497h-69v95h285v-95h-72v-497h258v125h103v-220z" />
    <glyph glyph-name="M" unicode="M" horiz-adv-x="963" 
d="M480 247h5c14 30 26 62 39 91c14 33 57 134 93 216c25 57 46 108 57 133h251v-95h-63v-498h63v-94h-264v94h59v404h-2c-16 -36 -31 -73 -46 -109c-36 -88 -103 -231 -126 -289h-126c-52 110 -94 205 -146 321c-10 25 -23 51 -33 77h-3c0 -135 -1 -270 -1 -404h64v-94
h-267v94h69v498h-69v95h253c19 -41 41 -91 64 -144c28 -61 57 -129 84 -191c18 -38 33 -75 45 -105z" />
    <glyph glyph-name="N" unicode="N" horiz-adv-x="814" 
d="M565 207h5v385h-68v95h268v-95h-66v-592h-140c-89 138 -180 275 -268 414c-17 28 -34 56 -52 84c-1 0 -1 -1 -2 -1v-403h68v-94h-270v94h69c0 166 1 331 1 498h-69v95h222c97 -156 158 -246 244 -387c20 -31 39 -61 58 -93z" />
    <glyph glyph-name="O" unicode="O" horiz-adv-x="740" 
d="M690 344c0 -202 -107 -354 -317 -354c-225 0 -323 142 -323 352c0 197 95 358 323 358c230 0 317 -162 317 -356zM538 342c0 128 -29 255 -165 255c-137 0 -172 -123 -172 -256c0 -159 48 -248 172 -248c117 0 165 106 165 249z" />
    <glyph glyph-name="P" unicode="P" horiz-adv-x="633" 
d="M605 479c0 -99 -62 -213 -222 -213h-130v-171h89v-95h-299v95h67v497h-67v96h327c156 0 235 -81 235 -209zM343 592h-90v-233h94c60 0 108 33 108 115c0 81 -41 118 -112 118z" />
    <glyph glyph-name="Q" unicode="Q" horiz-adv-x="743" 
d="M688 342c0 -138 -49 -253 -147 -309c51 -13 103 -26 154 -38l-42 -109l-283 95c-32 5 -63 12 -90 19c-159 37 -230 159 -230 341c0 196 93 359 321 359c230 0 317 -163 317 -358zM537 341c0 128 -28 255 -166 255c-136 0 -172 -123 -172 -256c0 -159 48 -247 172 -247
c117 0 166 104 166 248z" />
    <glyph glyph-name="R" unicode="R" horiz-adv-x="688" 
d="M463 488c0 75 -49 104 -108 104h-103v-215h100c53 0 111 22 111 111zM363 285h-111v-189h73v-96h-280v96h65v496h-65v96h340c157 0 229 -81 229 -201c0 -63 -30 -148 -118 -178l100 -217l77 -10v-78c-32 -12 -85 -17 -110 -17c-57 0 -80 25 -101 73z" />
    <glyph glyph-name="S" unicode="S" horiz-adv-x="614" 
d="M41 199h101c0 -26 1 -50 1 -76c45 -20 99 -26 137 -26c103 0 136 47 136 93c0 64 -61 83 -146 105c-130 33 -225 78 -225 194c0 133 107 208 260 208c66 0 154 -11 217 -44c0 -52 1 -103 1 -155h-102c0 26 -1 52 -1 78c-29 12 -78 17 -110 17c-80 0 -116 -37 -116 -89
c0 -55 53 -75 148 -100c116 -31 232 -67 232 -206c0 -142 -111 -208 -285 -208c-81 0 -172 12 -247 48c0 53 -1 107 -1 161z" />
    <glyph glyph-name="T" unicode="T" horiz-adv-x="630" 
d="M468 0h-305v95h82v497h-129l1 -112h-101v208h599v-208h-101v112h-127v-497h81v-95z" />
    <glyph glyph-name="U" unicode="U" horiz-adv-x="757" 
d="M664 592v-339c0 -163 -89 -262 -286 -262c-206 0 -287 98 -287 262v339h-58v96h263v-96h-65v-342c0 -106 53 -155 148 -155c89 0 146 46 146 155v342h-63v96h262v-96h-60z" />
    <glyph glyph-name="V" unicode="V" horiz-adv-x="715" 
d="M446 591v96h258v-96h-57c-67 -197 -133 -396 -200 -591h-177c-68 195 -135 394 -204 591h-56v96h265v-96h-59c37 -126 76 -246 115 -370c10 -32 19 -65 29 -98h4c10 33 20 66 29 100c39 122 74 247 113 368h-60z" />
    <glyph glyph-name="W" unicode="W" horiz-adv-x="1042" 
d="M522 384h-2l-30 -101l-86 -283h-176l-160 591h-57v97h271v-97h-61l76 -310l35 -151h3l41 150l79 272l-13 39h-63l-1 97h274l1 -97h-67l97 -313l41 -134h3l32 145l70 302h-62v97h267v-97h-60c-27 -108 -133 -484 -159 -591h-177l-86 286z" />
    <glyph glyph-name="X" unicode="X" horiz-adv-x="706" 
d="M438 350l172 -254h68l1 -96h-295v96h57l-110 173l-111 -173h59v-96h-251v96h60l173 259l-156 236h-75v97h293v-97h-54l101 -158l106 158h-58v97h252v-97h-60z" />
    <glyph glyph-name="Y" unicode="Y" horiz-adv-x="666" 
d="M336 370l121 221h-58v97h255v-97h-55l-193 -319v-177h78v-95h-307v95h78v175l-189 321h-53v97h257v-97h-57l119 -221h4z" />
    <glyph glyph-name="Z" unicode="Z" horiz-adv-x="608" 
d="M565 596l-362 -500h279v127h103v-223h-560v94l360 498h-234v-111h-102v207h516v-92z" />
    <glyph glyph-name="bracketleft" unicode="[" horiz-adv-x="311" 
d="M276 -160h-213v859h213v-79h-95v-704h95v-76z" />
    <glyph glyph-name="backslash" unicode="\" horiz-adv-x="370" 
d="M267 -33l-259 739h97l259 -739h-97z" />
    <glyph glyph-name="bracketright" unicode="]" horiz-adv-x="311" 
d="M252 -160h-214v76h96v704h-96v79h214v-859z" />
    <glyph glyph-name="asciicircum" unicode="^" horiz-adv-x="485" 
d="M458 356h-94l-127 224l-124 -224h-94l186 323h67z" />
    <glyph glyph-name="underscore" unicode="_" horiz-adv-x="500" 
d="M500 -145h-500v70h500v-70z" />
    <glyph glyph-name="grave" unicode="`" horiz-adv-x="518" 
d="M325 532l-174 140l72 77l148 -169z" />
    <glyph glyph-name="a" unicode="a" horiz-adv-x="565" 
d="M339 222l-92 -9c-48 -5 -71 -32 -71 -65c0 -46 20 -68 69 -68c30 0 67 17 94 42v100zM472 330v-237h75l7 -75c-48 -21 -98 -26 -130 -26c-43 0 -75 10 -76 63c-1 0 -1 1 -2 1c-67 -64 -136 -66 -164 -66c-121 0 -150 85 -150 142c0 76 59 139 172 146l137 9v24
c0 57 -19 88 -90 88c-48 0 -106 -10 -150 -25c-8 28 -16 57 -23 86c57 25 138 39 207 39c116 0 187 -43 187 -169z" />
    <glyph glyph-name="b" unicode="b" horiz-adv-x="605" 
d="M322 -9c-57 0 -161 12 -244 51v581h-70v93h209v-254c54 30 105 41 141 41c156 0 202 -109 202 -258c0 -136 -50 -254 -238 -254zM324 399c-37 0 -76 -16 -106 -33v-257c35 -14 70 -19 96 -19c62 0 106 30 106 153c0 134 -44 156 -96 156z" />
    <glyph glyph-name="c" unicode="c" horiz-adv-x="494" 
d="M287 501c54 0 110 -8 155 -25v-148h-94v66c-17 3 -33 5 -47 5c-84 0 -121 -56 -121 -155c0 -110 46 -152 122 -152c47 0 95 10 136 25l26 -88c-45 -23 -117 -38 -184 -38c-190 0 -240 113 -240 249c0 114 43 261 247 261z" />
    <glyph glyph-name="d" unicode="d" horiz-adv-x="610" 
d="M391 42l-2 1c-43 -34 -107 -52 -150 -52c-152 0 -199 110 -199 244c0 153 55 268 210 268c34 0 89 -7 133 -29v149h-74v93h213v-624h69v-92h-200v42zM282 401c-51 0 -102 -27 -102 -164c0 -119 44 -145 100 -145c35 0 79 19 103 38v243c-23 14 -66 28 -101 28z" />
    <glyph glyph-name="e" unicode="e" horiz-adv-x="532" 
d="M279 405c-66 0 -94 -54 -97 -107h184c-1 56 -19 107 -87 107zM279 502c190 0 215 -141 215 -239v-50h-314c-1 -82 30 -122 122 -122c52 0 100 11 151 31l30 -84c-64 -34 -137 -48 -203 -48c-195 0 -240 124 -240 254c0 108 49 258 239 258z" />
    <glyph glyph-name="f" unicode="f" horiz-adv-x="423" 
d="M35 0v92h65v306h-70v76l71 20v64c0 93 41 167 184 167c34 0 89 -4 134 -17l-19 -95c-28 5 -60 8 -82 8c-52 0 -82 -18 -82 -68v-63h142v-92h-142v-306h79v-92h-280z" />
    <glyph glyph-name="g" unicode="g" horiz-adv-x="576" 
d="M482 422l-4 -3c18 -23 29 -63 29 -94c0 -112 -100 -170 -225 -172h-57c-41 0 -62 -8 -62 -32c0 -17 14 -27 40 -27h140c122 0 200 -44 200 -144c0 -89 -78 -168 -284 -168c-178 0 -228 63 -228 131c0 54 30 96 64 115c-37 9 -57 37 -57 75c0 50 41 76 83 89
c-38 17 -70 59 -70 128c0 130 112 182 225 182c38 0 76 -5 103 -12h174v-68h-71zM314 10h-102c-23 -9 -44 -38 -44 -64c0 -35 23 -67 111 -67c76 0 120 28 120 68c0 32 -23 63 -85 63zM367 326c0 36 -22 83 -89 83c-57 0 -87 -35 -87 -84c0 -50 29 -80 81 -80
c54 0 95 27 95 81z" />
    <glyph glyph-name="h" unicode="h" horiz-adv-x="640" 
d="M225 0h-139v623h-66v92h205v-269c54 36 114 56 164 56c136 0 158 -96 158 -169v-238h70v-82c-33 -14 -80 -21 -111 -21c-91 0 -98 64 -98 99v215c0 62 -16 87 -72 87c-34 0 -79 -18 -111 -39v-354z" />
    <glyph glyph-name="i" unicode="i" horiz-adv-x="345" 
d="M100 397h-50v93h189v-394h71v-83c-32 -14 -80 -22 -111 -22c-72 0 -98 28 -99 92v314zM249 636c0 -45 -38 -83 -83 -83c-46 0 -82 38 -82 83c0 46 36 83 82 83c45 0 83 -37 83 -83z" />
    <glyph glyph-name="k" unicode="k" horiz-adv-x="595" 
d="M300 399v91h254v-92h-63l-110 -93l128 -214c22 -3 45 -8 67 -11v-76c-31 -10 -73 -15 -95 -15c-34 0 -61 2 -82 39l-117 204l-51 -43v-98h55v-91h-259v91h65v531h-70v91h209v-410l117 96h-48z" />
    <glyph glyph-name="l" unicode="l" horiz-adv-x="349" 
d="M248 713v-621h66v-92h-271v92h65v528h-70v93h210z" />
    <glyph glyph-name="m" unicode="m" horiz-adv-x="939" 
d="M395 500c60 0 98 -20 122 -65c48 39 120 66 173 66c130 0 156 -80 156 -171v-235h66v-82c-34 -14 -76 -21 -108 -21c-92 0 -97 41 -97 122v194c0 59 -15 81 -68 81c-31 0 -78 -14 -106 -34c4 -20 4 -42 4 -58v-297h-138v317c0 50 -22 71 -63 71c-33 0 -74 -14 -106 -36
v-352h-140v397h-68v93h204v-44l4 -3c53 38 117 57 165 57z" />
    <glyph glyph-name="n" unicode="n" horiz-adv-x="645" 
d="M393 502c136 0 157 -96 157 -169v-238h70v-82c-33 -14 -79 -21 -111 -21c-101 0 -98 87 -98 105v209c0 62 -16 87 -72 87c-34 0 -79 -18 -110 -39v-354h-140v398h-66v92h204v-43c2 0 3 -1 5 -1c54 36 111 56 161 56z" />
    <glyph glyph-name="o" unicode="o" horiz-adv-x="574" 
d="M534 245c0 -136 -70 -254 -251 -254c-174 0 -243 113 -243 253c0 138 75 257 249 257c177 0 245 -119 245 -256zM391 244c0 76 -17 157 -100 157c-86 0 -108 -79 -108 -157c0 -84 17 -155 105 -155c84 0 103 76 103 155z" />
    <glyph glyph-name="p" unicode="p" horiz-adv-x="607" 
d="M20 -211v93h68v515h-68v93h199v-44l2 -1c42 35 107 53 150 53c152 0 200 -110 200 -243c0 -153 -56 -265 -211 -265c-33 0 -88 8 -133 30v-138h73v-93h-280zM329 93c50 0 101 28 101 160c0 118 -44 141 -99 141c-35 0 -80 -19 -104 -38v-234c24 -15 66 -29 102 -29z" />
    <glyph glyph-name="q" unicode="q" horiz-adv-x="601" 
d="M314 -211v93h75v147c-54 -30 -105 -41 -141 -41c-149 0 -204 100 -202 245c1 141 56 267 251 267c56 0 152 -11 230 -47v-571h70v-93h-283zM282 94c37 0 75 14 106 31v256c-29 11 -60 16 -89 16c-65 0 -113 -37 -113 -152c-3 -130 44 -151 96 -151z" />
    <glyph glyph-name="r" unicode="r" horiz-adv-x="458" 
d="M235 419l4 -1c42 35 118 84 182 84c24 0 33 -12 33 -42c0 -32 -13 -85 -41 -114l-176 10v-264h68v-92h-271v92h64v306h-61v93h198v-72z" />
    <glyph glyph-name="s" unicode="s" horiz-adv-x="499" 
d="M32 158h96l2 -58c23 -11 66 -17 95 -17c50 0 94 16 94 51c0 41 -40 54 -82 65c-96 27 -200 51 -200 149c0 105 82 153 211 153c60 0 128 -12 177 -38c0 -41 0 -82 1 -124h-97l-1 56c-20 8 -48 12 -71 12c-45 0 -78 -18 -78 -51c0 -32 48 -43 81 -52
c81 -22 202 -43 202 -170c0 -96 -83 -143 -228 -143c-57 0 -139 8 -201 39c0 41 0 87 -1 128z" />
    <glyph glyph-name="t" unicode="t" horiz-adv-x="421" 
d="M129 617l95 9v-135h142v-93h-143v-221c0 -55 11 -78 67 -78c20 0 51 4 86 12l18 -91c-42 -18 -98 -28 -140 -28c-139 0 -169 67 -169 145v261h-69v77l78 23z" />
    <glyph glyph-name="u" unicode="u" horiz-adv-x="635" 
d="M242 -11c-117 0 -152 69 -152 159v249h-66v93h206v-313c0 -51 9 -78 64 -78c26 0 72 12 108 47v251h-57v93h197v-395h66v-82c-46 -16 -86 -21 -111 -21c-59 0 -83 19 -89 66c-55 -51 -116 -69 -166 -69z" />
    <glyph glyph-name="v" unicode="v" horiz-adv-x="599" 
d="M301 108h4c11 38 38 112 48 149c13 37 35 102 47 140h-39v94h218v-94h-44c-30 -89 -119 -308 -150 -397h-171c-30 88 -115 300 -144 389h-51v102h156l72 -217c13 -41 41 -124 54 -166z" />
    <glyph glyph-name="w" unicode="w" horiz-adv-x="897" 
d="M626 99h4l35 127l50 172h-54v93h224v-93l-44 -1l-122 -397h-180l-50 129l-43 115h-5l-39 -115l-41 -129h-180l-117 389h-52v102h155l71 -251l39 -142h6l39 125l51 154l-8 20h-70v94h269v-94h-50l66 -177z" />
    <glyph glyph-name="x" unicode="x" horiz-adv-x="587" 
d="M32 403l1 90h169l111 -155l53 66h-46v89h227v-89h-50l-133 -153l120 -162h69v-89h-262v89h35l-61 83l-69 -83h34v-89h-206l1 89h38l145 173l-103 141h-73z" />
    <glyph glyph-name="y" unicode="y" horiz-adv-x="597" 
d="M299 101c12 39 79 248 95 296h-54v93h234v-93h-47l-181 -508c-24 -67 -60 -104 -148 -104c-9 0 -68 0 -130 20l19 100c28 -5 52 -9 75 -9c44 0 59 13 69 38l30 77h-63c-43 126 -80 253 -123 380h-54v99h155c20 -64 105 -340 119 -389h4z" />
    <glyph glyph-name="z" unicode="z" horiz-adv-x="512" 
d="M470 413l-270 -326h186v84h94v-171h-450v80l269 322h-159v-77h-94v166h424v-78z" />
    <glyph glyph-name="braceleft" unicode="{" horiz-adv-x="325" 
d="M304 -166h-84c-94 0 -119 66 -119 142v180c0 53 -22 89 -71 93v73c49 9 71 42 71 97v136c0 69 19 148 115 148h88v-78h-27c-44 0 -56 -30 -56 -66v-153c0 -58 -15 -105 -70 -117v-2c59 -23 70 -66 70 -136v-175c0 -35 8 -66 54 -66h29v-76z" />
    <glyph glyph-name="bar" unicode="|" horiz-adv-x="311" 
d="M201 -146h-94v853h94v-853z" />
    <glyph glyph-name="braceright" unicode="}" horiz-adv-x="325" 
d="M107 -166h-84v76h29c46 0 54 31 54 66v175c0 70 11 113 70 136v2c-55 12 -70 59 -70 117v153c0 36 -12 66 -56 66h-27v78h88c96 0 115 -79 115 -148v-136c0 -55 22 -88 71 -97v-73c-49 -4 -71 -40 -71 -93v-180c0 -76 -25 -142 -119 -142z" />
    <glyph glyph-name="asciitilde" unicode="~" horiz-adv-x="597" 
d="M413 231c-84 0 -169 46 -225 46l-70 -47l-49 38c29 74 75 106 129 106c71 0 164 -45 227 -45l68 48l47 -37c-26 -69 -68 -109 -127 -109z" />
    <glyph glyph-name="endash" unicode="&#x2013;" horiz-adv-x="500" 
d="M462 214h-422v86h422v-86z" />
    <glyph glyph-name="emdash" unicode="&#x2014;" horiz-adv-x="1000" 
d="M948 214h-898v86h898v-86z" />
    <glyph glyph-name="quoteleft" unicode="&#x2018;" horiz-adv-x="255" 
d="M205 522c0 -38 -32 -72 -76 -72c-54 0 -79 42 -79 89c0 73 62 154 128 187l33 -45c-32 -27 -51 -54 -55 -94c33 -7 49 -31 49 -65z" />
    <glyph glyph-name="quoteright" unicode="&#x2019;" horiz-adv-x="255" 
d="M57 655c0 39 32 72 77 72c53 0 78 -43 78 -89c0 -73 -59 -153 -127 -187l-33 45c32 27 50 55 55 94c-34 7 -50 32 -50 65z" />
    <glyph glyph-name="quotedblleft" unicode="&#x201c;" horiz-adv-x="421" 
d="M202 522c0 -38 -32 -72 -77 -72c-53 0 -78 42 -78 89c0 74 60 153 127 187c12 -15 22 -30 34 -45c-32 -27 -52 -54 -56 -94c33 -7 50 -31 50 -65zM377 522c0 -38 -33 -72 -77 -72c-54 0 -78 42 -78 89c0 73 60 154 126 187c12 -15 22 -30 35 -45c-32 -27 -52 -54 -56 -94
c33 -7 50 -31 50 -65z" />
    <glyph glyph-name="quotedblright" unicode="&#x201d;" horiz-adv-x="421" 
d="M229 655c0 39 33 72 78 72c53 0 78 -43 78 -89c0 -73 -59 -153 -127 -187l-34 45c31 27 52 55 55 94c-33 7 -50 32 -50 65zM55 655c0 39 31 72 77 72c53 0 78 -43 78 -89c0 -73 -60 -153 -127 -187l-35 45c33 27 52 55 56 94c-33 7 -49 32 -49 65z" />
    <glyph glyph-name="bullet" unicode="&#x2022;" horiz-adv-x="390" 
d="M323 271c0 -71 -58 -129 -128 -129s-128 58 -128 129s58 129 128 129s128 -58 128 -129z" />
    <glyph glyph-name="quotesinglbase" unicode="&#x201a;" horiz-adv-x="261" 
d="M51 70c0 38 31 71 77 71c53 0 79 -42 79 -88c0 -71 -52 -150 -124 -193l-35 44c34 32 52 62 57 101c-40 4 -54 32 -54 65z" />
    <glyph glyph-name="quotedblbase" unicode="&#x201e;" horiz-adv-x="448" 
d="M51 70c0 38 31 71 77 71c53 0 79 -42 79 -88c0 -71 -52 -150 -124 -193l-35 44c34 32 52 62 57 101c-40 4 -54 32 -54 65zM240 70c0 38 31 71 77 71c54 0 80 -42 80 -88c0 -71 -53 -150 -125 -193l-35 44c34 32 53 62 56 101c-38 4 -53 32 -53 65z" />
    <glyph glyph-name="alpha" unicode="&#x3b1;" horiz-adv-x="607" 
d="M518 491v-398h67l1 -82c-28 -11 -79 -19 -110 -19c-44 0 -74 7 -85 59c-66 -58 -137 -61 -165 -61c-151 0 -190 123 -190 253c0 126 59 256 214 256c51 0 102 -20 141 -51l19 43h108zM271 98c30 0 68 13 108 44v216c-23 19 -65 42 -96 42c-73 0 -107 -62 -107 -151
c0 -125 46 -151 95 -151z" />
    <glyph glyph-name="beta" unicode="&#x3b2;" horiz-adv-x="562" 
d="M183 -190h-139c1 42 0 307 0 348v326c0 128 65 237 223 237c153 0 219 -82 219 -176c0 -64 -34 -119 -79 -141c94 -30 116 -106 116 -186c0 -150 -83 -227 -207 -227c-48 0 -102 14 -133 34v-215zM271 624c-56 0 -86 -36 -86 -101v-405c33 -21 75 -27 97 -27
c70 0 104 51 104 139c0 76 -31 124 -118 124h-36v82h36c49 0 86 36 86 99c0 54 -34 89 -83 89z" />
    <glyph glyph-name="gamma" unicode="&#x3b3;" horiz-adv-x="589" 
d="M223 -210v213c-32 84 -130 303 -163 387h-53v101h158c15 -41 59 -155 73 -195l54 -149h4c9 29 32 91 42 120c12 37 34 95 46 130h-40v94h230v-94h-51c-31 -84 -127 -302 -156 -386l1 -221h-145z" />
    <glyph glyph-name="delta" unicode="&#x3b4;" horiz-adv-x="567" 
d="M293 716c55 0 126 -10 174 -34v-126h-95v58c-20 8 -46 13 -68 13c-44 0 -82 -18 -82 -58c0 -42 48 -57 78 -67c143 -51 227 -110 227 -268c0 -124 -69 -243 -249 -243c-172 0 -241 112 -241 242c0 93 38 179 125 217c-45 27 -78 61 -78 117c0 100 80 149 209 149z
M276 391c-75 -13 -98 -86 -98 -159c0 -75 18 -143 107 -143c83 0 101 76 101 144c0 65 -8 136 -110 158z" />
    <glyph glyph-name="epsilon" unicode="&#x3b5;" horiz-adv-x="460" 
d="M244 504c74 0 145 -15 178 -30v-128h-91v63c-21 6 -48 8 -68 8c-60 0 -85 -29 -85 -62c0 -45 33 -56 72 -56h65v-79h-65c-36 0 -78 -14 -78 -65c0 -52 44 -72 108 -72c45 0 92 11 142 30l26 -80c-42 -21 -116 -43 -201 -43c-133 0 -216 51 -216 148c0 52 33 101 84 118
l1 2c-45 15 -78 50 -78 98c0 84 75 148 206 148z" />
    <glyph glyph-name="zeta" unicode="&#x3b6;" horiz-adv-x="439" 
d="M320 623l-1 4h-171v-56h-88v142h408v-84c-183 -147 -286 -303 -286 -401c0 -69 41 -90 180 -138c68 -23 93 -57 93 -95c0 -55 -58 -124 -124 -183l-67 61c9 10 33 40 38 47c19 27 22 40 21 48c0 16 -19 28 -47 37c-148 47 -231 77 -231 201c0 103 107 284 275 417z" />
    <glyph glyph-name="eta" unicode="&#x3b7;" horiz-adv-x="645" 
d="M393 502c136 0 157 -96 157 -169v-238h70v-82c-33 -14 -79 -21 -111 -21c-101 0 -98 87 -98 105v209c0 62 -16 87 -72 87c-34 0 -79 -18 -110 -39v-354h-140v398h-66v92h204v-43c2 0 3 -1 5 -1c54 36 111 56 161 56z" />
    <glyph glyph-name="theta" unicode="&#x3b8;" horiz-adv-x="567" 
d="M529 358c0 -196 -57 -367 -250 -367c-196 0 -245 165 -245 360c0 198 57 370 251 370c195 0 244 -176 244 -363zM388 320h-213c-1 -150 9 -233 107 -233c89 0 106 107 106 233zM175 409h212c-1 117 -18 213 -103 213c-90 0 -107 -94 -109 -213z" />
    <glyph glyph-name="upsilon" unicode="&#x3c5;" horiz-adv-x="605" 
d="M398 491h141v-284c0 -139 -95 -216 -232 -216c-151 0 -228 79 -228 197v209h-58v94h198v-306c0 -55 23 -93 88 -93c53 0 91 36 91 100v299z" />
    <glyph glyph-name="omega" unicode="&#x3c9;" horiz-adv-x="789" 
d="M338 334h117l1 -162c1 -45 24 -82 70 -82c62 0 88 51 88 149c0 77 -20 145 -84 173l24 88c145 -22 198 -131 198 -260c0 -133 -59 -248 -215 -248c-60 0 -115 24 -141 73h-5c-30 -49 -87 -73 -145 -73c-166 0 -209 115 -209 248c0 127 51 238 198 260l23 -88
c-64 -28 -83 -96 -83 -173c0 -83 15 -149 87 -149c51 0 76 37 76 82v162z" />
    <glyph glyph-name="rho" unicode="&#x3c1;" horiz-adv-x="573" 
d="M282 91c58 0 112 29 112 161c0 122 -52 149 -107 149c-65 0 -104 -58 -104 -135v-147c23 -15 64 -28 99 -28zM43 42v179c1 195 104 280 254 280c165 0 236 -109 236 -252c0 -153 -67 -259 -219 -259c-34 0 -90 7 -131 31v-228h-141c0 39 1 229 1 249z" />
    <glyph glyph-name="xi" unicode="&#x3be;" horiz-adv-x="466" 
d="M286 722c39 0 116 -8 167 -28l-22 -93c-58 17 -103 21 -134 21c-80 0 -108 -41 -108 -95c0 -59 50 -90 120 -90h92v-94h-95c-91 0 -130 -53 -130 -120c0 -62 33 -90 154 -137c92 -35 143 -61 143 -112c0 -56 -59 -122 -115 -177l-71 55c33 40 51 70 51 85
c0 17 -15 30 -52 43c-130 53 -249 81 -249 226c0 68 30 154 118 187c-75 31 -103 87 -103 146c4 114 84 183 234 183z" />
    <glyph glyph-name="nu" unicode="&#x3bd;" horiz-adv-x="599" 
d="M301 108h4c11 38 38 112 48 149c13 37 35 102 47 140h-39v94h218v-94h-44c-30 -89 -119 -308 -150 -397h-171c-30 88 -115 300 -144 389h-51v102h156l72 -217c13 -41 41 -124 54 -166z" />
    <glyph glyph-name="omicron" unicode="&#x3bf;" horiz-adv-x="574" 
d="M534 245c0 -136 -70 -254 -251 -254c-174 0 -243 113 -243 253c0 138 75 257 249 257c177 0 245 -119 245 -256zM391 244c0 76 -17 157 -100 157c-86 0 -108 -79 -108 -157c0 -84 17 -155 105 -155c84 0 103 76 103 155z" />
    <glyph glyph-name="Euro" unicode="&#x20ac;" horiz-adv-x="597" 
d="M381 677c66 0 122 -11 168 -26v-155h-95v67c-20 6 -44 10 -71 10c-102 0 -152 -63 -166 -165h239v-52h-427v52h50c15 134 93 269 302 269zM29 262v50h427v-50h-239c14 -98 62 -163 175 -163c18 0 46 3 74 9v68h95v-158c-49 -16 -129 -27 -189 -27
c-199 0 -281 116 -294 271h-49z" />
    <glyph glyph-name="Phi" unicode="&#x3a6;" horiz-adv-x="873" 
d="M833 356c0 -160 -132 -278 -324 -289l-1 -67h-139v67c-202 9 -329 122 -329 286c0 150 130 279 329 289v45h139l1 -46c205 -11 324 -137 324 -285zM181 351c0 -105 70 -169 188 -182v369c-115 -10 -188 -89 -188 -187zM690 353c0 92 -55 176 -181 185v-369
c96 9 181 82 181 184z" />
    <glyph glyph-name="Omega" unicode="&#x3a9;" horiz-adv-x="755" 
d="M610 98l1 -4h108v-94h-288v98c89 24 117 113 117 254s-38 246 -166 246c-124 0 -173 -99 -173 -244c0 -144 27 -233 112 -255v-99h-288v94h106l3 3c-68 50 -83 151 -83 260c0 191 100 344 320 344c224 0 321 -153 321 -341c0 -104 -24 -207 -90 -262z" />
    <glyph glyph-name="Psi" unicode="&#x3a8;" horiz-adv-x="898" 
d="M520 594v-310c97 5 154 50 154 156v248h202v-94h-62v-150c-1 -155 -98 -252 -294 -257v-93h73v-94h-284v94h73v92c-204 9 -296 100 -296 266v142h-63v94h204v-251c0 -101 55 -148 155 -153v310h-55v94h247v-94h-54z" />
    <glyph glyph-name="sterling" unicode="&#xa3;" horiz-adv-x="597" 
d="M69 373h67l6 93c9 129 74 215 219 215c76 0 137 -18 181 -37v-152h-99v75c-23 6 -46 11 -75 11c-72 0 -95 -43 -100 -120l-5 -85h157v-71h-162l-4 -60c-3 -59 -15 -119 -49 -151h331v-91h-481l1 91c56 34 68 97 72 157l3 54h-62v71z" />
    <glyph glyph-name="pi" unicode="&#x3c0;" horiz-adv-x="644" 
d="M410 397h-183v-397h-137v397h-66v92h593v-92h-68v-302h71v-82c-33 -14 -81 -22 -112 -22c-82 0 -98 41 -98 96v310z" />
    <glyph glyph-name="lambda" unicode="&#x3bb;" horiz-adv-x="575" 
d="M289 373h-4l-133 -373h-137l172 461h75l-50 160l-111 17v70c42 19 97 28 127 28c65 0 88 -25 103 -71l185 -576h47l3 -79c-30 -13 -74 -17 -97 -17c-48 0 -68 18 -81 62z" />
    <glyph glyph-name="kappa" unicode="&#x3ba;" horiz-adv-x="593" 
d="M300 399v91h254v-92h-63l-110 -93l128 -214c22 -3 45 -8 67 -11v-76c-31 -10 -73 -15 -95 -15c-34 0 -61 2 -82 39l-117 204l-51 -43v-98h55v-91h-259v91h65v310h-70v91h209v-189l117 96h-48z" />
    <glyph glyph-name="mu" unicode="&#xb5;" horiz-adv-x="612" 
d="M272 -5c-25 -4 -41 -4 -55 -4v-109h69v-91h-274v91h66c-1 205 -1 313 -1 514h-64v93h204v-312c0 -44 17 -80 76 -80c28 0 65 14 100 46v254h-56v93h196c0 -132 -1 -263 -1 -395h65c0 -28 1 -56 2 -82c-45 -16 -86 -21 -111 -21c-59 0 -83 19 -89 66
c-48 -44 -93 -58 -127 -63z" />
    <glyph glyph-name="mu" unicode="&#x3bc;" horiz-adv-x="612" 
d="M272 -5c-25 -4 -41 -4 -55 -4v-109h69v-91h-274v91h66c-1 205 -1 313 -1 514h-64v93h204v-312c0 -44 17 -80 76 -80c28 0 65 14 100 46v254h-56v93h196c0 -132 -1 -263 -1 -395h65c0 -28 1 -56 2 -82c-45 -16 -86 -21 -111 -21c-59 0 -83 19 -89 66
c-48 -44 -93 -58 -127 -63z" />
    <glyph glyph-name="phi" unicode="&#x3c6;" horiz-adv-x="748" 
d="M37 245c0 109 52 216 186 252l38 -75c-60 -35 -87 -96 -87 -177c0 -94 27 -155 133 -160v416h157c159 0 247 -105 247 -251c0 -147 -84 -252 -274 -258v-199h-132v199c-221 11 -268 131 -268 253zM572 250c0 85 -28 153 -135 155l1 -319c96 2 134 64 134 164z" />
    <glyph glyph-name="chi" unicode="&#x3c7;" horiz-adv-x="587" 
d="M32 403l1 90h169l111 -155l53 66h-46v89h227v-89h-50l-133 -153l120 -162h69v-89h-262v89h35l-61 83l-69 -83h34v-89h-206l1 89h38l145 173l-103 141h-73z" />
    <glyph glyph-name="psi" unicode="&#x3c8;" horiz-adv-x="796" 
d="M262 -211v93h69v113c-167 5 -263 92 -263 209v193h-53v93h190v-290c0 -47 37 -101 126 -105v404h-50v96h186v-500c93 4 126 54 126 117v278h189v-93h-53v-193c0 -117 -98 -204 -262 -209v-113h72v-93h-277z" />
    <glyph glyph-name="sigma" unicode="&#x3c3;" horiz-adv-x="577" 
d="M477 397l-3 -5c36 -36 50 -98 50 -155c0 -141 -83 -243 -244 -243c-172 0 -246 98 -246 245c0 136 78 251 251 251h273v-93h-81zM281 394c-83 0 -106 -75 -106 -156c0 -97 29 -151 106 -151c71 0 104 64 104 152c0 77 -18 155 -104 155z" />
    <glyph glyph-name="tau" unicode="&#x3c4;" horiz-adv-x="449" 
d="M8 491h389v-93h-143v-225c0 -55 20 -78 77 -78c19 0 50 5 84 13l17 -88c-42 -18 -101 -28 -142 -28c-136 0 -173 67 -173 145v261h-109v93z" />
    <glyph glyph-name="iota" unicode="&#x3b9;" horiz-adv-x="333" 
d="M87 397h-54v94h193v-395h71v-83c-33 -14 -81 -22 -112 -22c-71 0 -97 28 -98 92v314z" />
    <glyph glyph-name="Alpha" unicode="&#x391;" horiz-adv-x="736" 
d="M453 94h63l-30 96h-245c-8 -25 -22 -65 -30 -96h65v-94h-256v94h55l208 593h177l201 -593h55v-94h-263v94zM458 282l-75 239c-4 17 -10 34 -15 52h-3l-16 -53c-22 -67 -56 -170 -77 -238h186z" />
    <glyph glyph-name="Beta" unicode="&#x392;" horiz-adv-x="686" 
d="M535 361v-1c86 -30 109 -108 109 -166c0 -118 -93 -194 -218 -194h-385v94h72v498h-69v95h352c152 0 227 -69 227 -182c0 -37 -14 -108 -88 -144zM383 308h-126v-214h126c79 0 112 49 112 107c0 57 -36 107 -112 107zM370 592h-113v-193h113c68 0 107 39 107 96
s-33 97 -107 97z" />
    <glyph glyph-name="Gamma" unicode="&#x393;" horiz-adv-x="619" 
d="M350 0h-307v94h70v500h-69v93h559v-198h-101v105h-246v-500h94v-94z" />
    <glyph glyph-name="Epsilon" unicode="&#x395;" horiz-adv-x="649" 
d="M617 0h-574v96h69v496h-68v95h560v-202h-101v107h-247v-192l230 6v-99l-230 6v-217h259v112h102v-208z" />
    <glyph glyph-name="Zeta" unicode="&#x396;" horiz-adv-x="608" 
d="M565 596l-362 -500h279v127h103v-223h-560v94l360 498h-234v-111h-102v207h516v-92z" />
    <glyph glyph-name="Eta" unicode="&#x397;" horiz-adv-x="786" 
d="M743 0h-275v95h62v217h-275v-217h63v-95h-276v95h70v497h-70v95h276v-95h-63v-190h275v190h-62v95h275v-95h-69v-497h69v-95z" />
    <glyph glyph-name="Theta" unicode="&#x398;" horiz-adv-x="740" 
d="M250 310v89l238 3v-94zM690 344c0 -202 -107 -354 -317 -354c-225 0 -323 142 -323 352c0 197 95 358 323 358c230 0 317 -162 317 -356zM538 342c0 128 -29 257 -165 257c-137 0 -172 -125 -172 -258c0 -159 48 -249 172 -249c117 0 165 107 165 250z" />
    <glyph glyph-name="Iota" unicode="&#x399;" horiz-adv-x="419" 
d="M349 0h-279v95h68v497h-68v96h279v-96h-68v-497h68v-95z" />
    <glyph glyph-name="Kappa" unicode="&#x39a;" horiz-adv-x="722" 
d="M623 594l-194 -176l218 -323h57v-95h-277l-1 95h59l-159 238l-75 -69v-170h62v-94h-270v94h69v500h-69v93h273v-93h-65v-209l225 209h-59v93h266v-93h-60z" />
    <glyph glyph-name="Lambda" unicode="&#x39b;" horiz-adv-x="728" 
d="M329 471l-122 -378h65v-93h-258v93h55c67 193 141 401 209 594h179l201 -594h55v-93h-263v93h63c-29 91 -56 178 -129 416c-7 21 -13 42 -19 64h-3z" />
    <glyph glyph-name="Mu" unicode="&#x39c;" horiz-adv-x="963" 
d="M480 247h5c14 30 26 62 39 91c14 33 57 134 93 216c25 57 46 108 57 133h251v-95h-63v-498h63v-94h-264v94h59v404h-2c-16 -36 -31 -73 -46 -109c-36 -88 -103 -231 -126 -289h-126c-52 110 -94 205 -146 321c-10 25 -23 51 -33 77h-3c0 -135 -1 -270 -1 -404h64v-94
h-267v94h69v498h-69v95h253c19 -41 41 -91 64 -144c28 -61 57 -129 84 -191c18 -38 33 -75 45 -105z" />
    <glyph glyph-name="Nu" unicode="&#x39d;" horiz-adv-x="814" 
d="M565 207h5v385h-68v95h268v-95h-66v-592h-140c-89 138 -180 275 -268 414c-17 28 -34 56 -52 84c-1 0 -1 -1 -2 -1v-403h68v-94h-270v94h69c0 166 1 331 1 498h-69v95h222c97 -156 158 -246 244 -387c20 -31 39 -61 58 -93z" />
    <glyph glyph-name="Xi" unicode="&#x39e;" horiz-adv-x="628" 
d="M482 575h-339v-89h-101v201h541v-201h-101v89zM133 113h362v99h102v-212h-566v212h102v-99zM461 307l-294 3v90l294 3v-96z" />
    <glyph glyph-name="Omicron" unicode="&#x39f;" horiz-adv-x="740" 
d="M690 344c0 -202 -107 -354 -317 -354c-225 0 -323 142 -323 352c0 197 95 358 323 358c230 0 317 -162 317 -356zM538 342c0 128 -29 255 -165 255c-137 0 -172 -123 -172 -256c0 -159 48 -248 172 -248c117 0 165 106 165 249z" />
    <glyph glyph-name="Pi" unicode="&#x3a0;" horiz-adv-x="786" 
d="M744 0h-276v94h62v499h-274v-499h63v-94h-276v94h69v499h-69v95h701v-95h-69v-499h69v-94z" />
    <glyph glyph-name="Rho" unicode="&#x3a1;" horiz-adv-x="633" 
d="M605 479c0 -99 -62 -213 -222 -213h-130v-171h89v-95h-299v95h67v497h-67v96h327c156 0 235 -81 235 -209zM343 592h-90v-233h94c60 0 108 33 108 115c0 81 -41 118 -112 118z" />
    <glyph glyph-name="Delta" unicode="&#x394;" horiz-adv-x="719" 
d="M683 83v-83h-650v85l245 602h171zM536 93c-46 123 -86 247 -133 370c-14 40 -28 79 -41 119h-3c-17 -45 -33 -89 -49 -135c-56 -153 -98 -252 -134 -354h360z" />
    <glyph glyph-name="Delta" unicode="&#x2206;" horiz-adv-x="719" 
d="M683 83v-83h-650v85l245 602h171zM536 93c-46 123 -86 247 -133 370c-14 40 -28 79 -41 119h-3c-17 -45 -33 -89 -49 -135c-56 -153 -98 -252 -134 -354h360z" />
    <glyph glyph-name="Sigma" unicode="&#x3a3;" horiz-adv-x="622" 
d="M372 371v-25l-168 -253h283v113h102v-206h-562v81l186 277l-182 249v80h546v-204h-100v110h-267z" />
    <glyph glyph-name="dagger" unicode="&#x2020;" horiz-adv-x="494" 
d="M454 399h-152v-467h-114v467h-148v94h148v197h114v-197h152v-94z" />
    <glyph glyph-name="ellipsis" unicode="&#x2026;" horiz-adv-x="756" 
d="M704 67c0 -42 -34 -76 -74 -76c-41 0 -76 34 -76 76c0 40 35 74 75 74c42 0 75 -34 75 -74zM449 67c0 -42 -34 -76 -75 -76s-75 34 -75 76c0 40 33 74 75 74c41 0 75 -34 75 -74zM202 67c0 -42 -35 -76 -75 -76c-42 0 -76 34 -76 76c0 40 34 74 76 74c41 0 75 -34 75 -74
z" />
    <glyph glyph-name="registered" unicode="&#xae;" horiz-adv-x="608" 
d="M558 466c0 -141 -111 -255 -256 -255c-146 0 -258 114 -258 255c0 142 110 255 258 255c146 0 256 -113 256 -255zM512 466c0 115 -89 210 -210 210s-211 -95 -211 -210s88 -210 211 -210c126 0 210 95 210 210zM311 445h-40v-75h29v-43h-121v43h28v203h-28v44h144
c68 0 98 -35 98 -86c0 -25 -15 -60 -50 -75l42 -86l33 -4v-38c-14 -4 -37 -6 -49 -6c-24 0 -35 12 -43 32zM355 532c0 30 -20 42 -44 42h-40v-86h39c24 0 45 9 45 44z" />
    <glyph glyph-name="trademark" unicode="&#x2122;" horiz-adv-x="855" 
d="M597 491h1c13 29 36 81 50 110c11 22 30 64 39 86h139v-55h-35v-236h35v-54h-148v54h32v175h-2c-12 -27 -34 -73 -48 -102l-29 -65h-67c-8 16 -23 51 -32 67l-47 97h-1v-172h35v-54h-151v54h38v236h-38v55h138l40 -86c14 -30 37 -81 51 -110zM272 342h-170v54h43v235h-57
v-57h-58v113h316v-113h-58v57h-59v-235h43v-54z" />
    <glyph glyph-name="copyright" unicode="&#xa9;" horiz-adv-x="858" 
d="M808 330c0 -208 -172 -378 -380 -378c-210 0 -381 170 -381 378s171 378 381 378c208 0 380 -170 380 -378zM748 330c0 176 -142 319 -320 319c-176 0 -321 -143 -321 -319c0 -175 145 -318 321 -318c178 0 320 143 320 318zM315 325c0 -111 41 -167 144 -167
c24 0 78 5 111 14l14 -68c-38 -15 -100 -24 -148 -24c-172 0 -223 107 -223 242c0 111 47 250 234 250c52 0 93 -9 126 -20v-130h-68v68c-18 4 -37 6 -55 6c-93 0 -135 -65 -135 -171z" />
    <glyph glyph-name="sigma1" unicode="&#x3c2;" horiz-adv-x="475" 
d="M288 501c61 0 113 -10 157 -26c0 -49 -1 -98 -1 -147h-92v68c-14 5 -31 8 -55 8c-84 0 -121 -64 -121 -150c0 -76 24 -113 143 -170c86 -41 116 -71 116 -109c0 -35 -48 -102 -119 -166c-22 19 -46 39 -68 59c25 32 44 59 44 82c0 17 -18 29 -58 47
c-152 67 -199 123 -199 251c0 141 73 253 253 253z" />
    <glyph glyph-name="yen" unicode="&#xa5;" horiz-adv-x="597" 
d="M529 302h-464v50h107c-36 75 -73 147 -109 221h-48v94h236v-94h-55c33 -75 67 -148 101 -222h4c33 74 66 148 100 222h-57v94h233v-94h-47c-37 -74 -74 -146 -111 -221h110v-50zM65 257h464v-52h-167v-113h75v-92h-285v92h75v112l-1 1h-161v52z" />
    <glyph glyph-name="section" unicode="&#xa7;" horiz-adv-x="525" 
d="M464 298c0 -51 -21 -91 -66 -130c55 -36 76 -82 76 -122c0 -104 -87 -165 -229 -165c-69 0 -125 15 -169 30v137h92c0 -23 -1 -46 -1 -70c24 -6 50 -12 79 -12c78 0 104 40 104 69c0 40 -33 64 -103 91c-91 35 -185 70 -185 166c0 52 24 96 71 130c-39 28 -62 59 -62 109
c0 110 95 161 213 161c70 0 127 -15 164 -30v-138h-93v75c-27 7 -46 11 -73 11c-58 0 -93 -29 -93 -71c0 -44 81 -74 129 -94c75 -30 146 -64 146 -147zM359 276c0 54 -73 75 -146 108c-28 -22 -41 -45 -41 -71c0 -62 70 -67 149 -108c24 22 38 51 38 71z" />
    <glyph glyph-name="guillemotright" unicode="&#xbb;" horiz-adv-x="493" 
d="M451 216v-38l-165 -179l-56 42l102 156l-103 158l57 40zM265 216v-38l-164 -179l-57 42l103 156l-104 158l57 40z" />
    <glyph glyph-name="degree" unicode="&#xb0;" horiz-adv-x="373" 
d="M336 538c0 -82 -66 -149 -148 -149c-87 0 -149 62 -149 149c0 81 68 149 149 149c82 0 148 -59 148 -149zM266 536c0 46 -29 83 -79 83c-46 0 -79 -37 -79 -83c0 -45 33 -79 79 -79c44 0 79 34 79 79z" />
    <glyph glyph-name="germandbls" unicode="&#xdf;" horiz-adv-x="663" 
d="M496 128c0 55 -45 85 -86 121c-50 45 -106 95 -106 156c0 81 98 113 98 168c0 20 -10 63 -79 63c-68 0 -90 -46 -90 -101v-535h-209v91h71v286h-67v77h67v73c0 54 16 206 225 206c166 0 208 -90 208 -142c0 -99 -104 -137 -104 -182c0 -72 206 -121 206 -270
c0 -85 -63 -152 -194 -152c-52 0 -106 10 -149 23v137h82v-63c27 -8 48 -10 63 -10c34 0 64 19 64 54z" />
    <glyph glyph-name="guillemotleft" unicode="&#xab;" horiz-adv-x="493" 
d="M49 178v38l166 179l56 -40l-104 -158l103 -156l-57 -42zM233 178v38l167 179l56 -40l-104 -158l103 -156l-56 -42z" />
    <glyph glyph-name="divide" unicode="&#xf7;" horiz-adv-x="597" 
d="M364 474c0 -36 -30 -66 -65 -66c-36 0 -66 31 -66 66c0 36 29 65 66 65c36 0 65 -29 65 -65zM507 261h-417v83h417v-83zM364 131c0 -36 -30 -66 -65 -66c-36 0 -66 31 -66 66c0 37 29 65 66 65c36 0 65 -28 65 -65z" />
    <glyph glyph-name="circumflex" unicode="&#x2c6;" horiz-adv-x="556" 
d="M477 571l-35 -41l-165 100l-163 -100l-34 40l154 150h87z" />
    <glyph glyph-name="perthousand" unicode="&#x2030;" horiz-adv-x="1299" 
d="M378 465c0 -105 -44 -203 -177 -203c-140 0 -179 95 -179 203c0 102 39 207 180 207c144 0 176 -108 176 -207zM275 465c0 57 -7 132 -73 132c-69 0 -78 -73 -78 -133c0 -74 12 -129 78 -129c60 0 73 63 73 130zM651 708l-315 -728h-82l315 728h82zM877 200
c0 -105 -44 -204 -177 -204c-140 0 -179 96 -179 203c0 102 39 207 180 207c144 0 176 -108 176 -206zM774 199c0 57 -7 133 -73 133c-69 0 -78 -74 -78 -134c0 -73 12 -129 78 -129c60 0 73 64 73 130zM1275 200c0 -105 -44 -204 -177 -204c-140 0 -179 96 -179 203
c0 102 39 207 180 207c144 0 176 -108 176 -206zM1172 199c0 57 -7 133 -73 133c-69 0 -78 -74 -78 -134c0 -73 12 -129 78 -129c60 0 73 64 73 130z" />
    <glyph glyph-name="dieresis" unicode="&#xa8;" horiz-adv-x="454" 
d="M389 607c0 -32 -26 -57 -61 -57c-32 0 -57 25 -57 57c0 33 26 58 57 58c35 0 61 -24 61 -58zM188 607c0 -32 -25 -57 -59 -57c-33 0 -58 25 -58 57c0 33 27 58 57 58c35 0 60 -24 60 -58z" />
    <glyph glyph-name="florin" unicode="&#x192;" horiz-adv-x="597" 
d="M155 312v86h94c15 113 20 282 203 282c35 0 79 -4 120 -18l-24 -90c-31 7 -44 8 -66 8c-75 0 -86 -46 -102 -182h101v-86h-109c-8 -59 -14 -119 -22 -178c-15 -124 -42 -250 -203 -250c-34 0 -78 3 -118 18c9 30 17 61 25 90c29 -7 44 -8 63 -8c59 0 81 29 96 112
c7 67 21 164 27 216h-85z" />
    <glyph glyph-name="daggerdbl" unicode="&#x2021;" horiz-adv-x="494" 
d="M40 203h148v196h-148v94h148v197h114v-197h152v-94h-152v-196h152v-94h-152v-177h-114v177h-148v94z" />
    <glyph glyph-name="logicalnot" unicode="&#xac;" horiz-adv-x="597" 
d="M513 344v-253h-86v170h-326v83h412z" />
    <glyph glyph-name="multiply" unicode="&#xd7;" horiz-adv-x="597" 
d="M430 110l-126 127l-128 -128l-60 60l128 128l-127 127l59 59l126 -128l124 126l61 -61l-124 -125l126 -125z" />
    <glyph glyph-name="plusminus" unicode="&#xb1;" horiz-adv-x="597" 
d="M512 277h-162v-152h-86v152h-163v83h163v150h86v-150h162v-83zM101 79h411v-79h-411v79z" />
    <glyph glyph-name="brokenbar" unicode="&#xa6;" horiz-adv-x="311" 
d="M201 361h-94v346h94v-346zM107 230h94v-376h-94v376z" />
    <glyph glyph-name="guilsinglright" unicode="&#x203a;" horiz-adv-x="346" 
d="M277 216v-38l-163 -179l-57 42l102 156l-104 158l57 40z" />
    <glyph glyph-name="guilsinglleft" unicode="&#x2039;" horiz-adv-x="346" 
d="M55 178v38l165 179l57 -40l-104 -158l103 -156l-57 -42z" />
    <glyph glyph-name="currency" unicode="&#xa4;" horiz-adv-x="597" 
d="M181 306c0 -65 51 -116 116 -116c64 0 116 51 116 116c0 63 -51 116 -116 116s-116 -52 -116 -116zM130 415l-65 65l58 58l64 -64c32 21 71 33 111 33c39 0 77 -12 111 -34l63 65l59 -59l-66 -63c23 -34 33 -71 33 -110c0 -38 -12 -77 -33 -110l66 -61l-59 -60l-64 64
c-34 -25 -72 -33 -110 -33c-39 0 -75 8 -110 33l-65 -65l-58 60l65 63c-25 35 -34 74 -34 108c0 38 11 78 34 110z" />
    <glyph glyph-name="exclamdown" unicode="&#xa1;" horiz-adv-x="281" 
d="M206 -218h-130l3 267l13 246h99l14 -246zM141 358c-43 0 -75 32 -75 71c0 38 30 72 75 72c43 0 74 -34 74 -72c0 -39 -30 -71 -74 -71z" />
    <glyph glyph-name="questiondown" unicode="&#xbf;" horiz-adv-x="495" 
d="M189 -53c0 -47 43 -65 95 -65c44 0 64 5 84 11v82h99v-160c-78 -29 -154 -37 -209 -37c-127 0 -202 52 -209 136c0 60 24 91 61 132c77 85 138 135 138 203c0 15 -3 28 -6 49c38 1 74 3 113 5c5 -31 7 -55 7 -74c0 -95 -64 -141 -126 -205c-26 -24 -47 -47 -47 -77z
M211 427c0 39 33 71 72 71c42 0 75 -33 75 -71c0 -37 -33 -69 -74 -69c-40 0 -73 30 -73 69z" />
    <glyph glyph-name="sfthyphen" unicode="&#xad;" horiz-adv-x="392" 
d="M333 219h-274v99h274v-99z" />
    <glyph glyph-name="periodcentered" unicode="&#xb7;" horiz-adv-x="258" 
d="M207 281c0 -41 -35 -75 -76 -75s-75 34 -75 75c0 42 33 76 75 76s76 -34 76 -76z" />
    <glyph glyph-name="cedilla" unicode="&#xb8;" horiz-adv-x="477" 
d="M314 18c-18 -24 -39 -50 -58 -76c66 -4 108 -33 108 -86c0 -56 -59 -107 -191 -108c0 16 -1 32 -1 48c72 7 114 25 114 55c0 32 -47 36 -94 36c-6 9 -10 16 -16 24c34 44 66 88 100 130c12 -9 26 -15 38 -23z" />
    <glyph glyph-name="acute" unicode="&#xb4;" horiz-adv-x="522" 
d="M410 672l-174 -140l-46 48l147 169z" />
    <glyph glyph-name="primemod" unicode="&#x2b9;" horiz-adv-x="234" 
d="M274 653l-186 -278l-52 31l152 296z" />
    <glyph glyph-name="caron" unicode="&#x2c7;" horiz-adv-x="556" 
d="M442 734l35 -41l-156 -149h-87l-154 150l34 40l163 -100z" />
    <glyph glyph-name="breve" unicode="&#x2d8;" horiz-adv-x="571" 
d="M281 550c-78 0 -137 60 -183 129l58 45c42 -58 92 -87 128 -87c25 0 69 0 152 80l39 -38c-63 -97 -135 -129 -194 -129z" />
    <glyph glyph-name="dotaccent" unicode="&#x2d9;" horiz-adv-x="558" 
d="M371 638c0 -47 -39 -85 -85 -85c-47 0 -84 38 -84 85s37 85 84 85c46 0 85 -38 85 -85z" />
    <glyph glyph-name="ring" unicode="&#x2da;" horiz-adv-x="558" 
d="M285 548c-70 0 -124 54 -124 120c0 63 54 119 124 119s120 -55 120 -119c0 -68 -53 -120 -120 -120zM285 722c-32 0 -57 -27 -57 -57c0 -28 23 -54 57 -54c31 0 53 26 53 54c0 30 -21 57 -53 57z" />
    <glyph glyph-name="ogonek" unicode="&#x2db;" horiz-adv-x="572" 
d="M420 32l25 -18c-34 -40 -61 -95 -62 -131c0 -35 19 -50 55 -50c27 0 55 7 77 13l9 -44c-36 -19 -79 -30 -119 -30c-69 0 -106 31 -106 81c0 43 22 115 121 179z" />
    <glyph glyph-name="hungarumlaut" unicode="&#x2dd;" horiz-adv-x="558" 
d="M335 690l-161 -159l-52 41l130 185zM493 690l-161 -159l-51 41l129 185z" />
    <glyph glyph-name="tonos" unicode="&#x384;" horiz-adv-x="522" 
d="M406 696l-154 -165l-56 35l115 190z" />
    <glyph glyph-name="dieresistonos" unicode="&#x385;" horiz-adv-x="509" 
d="M449 611c0 -32 -28 -57 -60 -57c-33 0 -57 25 -57 57c0 34 27 59 58 59c33 0 59 -25 59 -59zM172 611c0 -32 -26 -57 -59 -57c-32 0 -58 25 -58 57c0 34 26 59 57 59c34 0 60 -25 60 -59zM358 718l-120 -188l-59 25l80 208z" />
    <glyph glyph-name="anoteleia" unicode="&#x387;" horiz-adv-x="258" 
d="M206 363c0 -44 -35 -78 -76 -78c-42 0 -78 34 -78 78c0 41 36 76 77 76c43 0 77 -35 77 -76z" />
    <glyph glyph-name="Alphatonos" unicode="&#x386;" horiz-adv-x="736" 
d="M453 94h63l-30 96h-245c-8 -25 -22 -65 -30 -96h65v-94h-256v94h55l208 593h177l201 -593h55v-94h-263v94zM458 282l-75 239c-4 17 -10 34 -15 52h-3l-16 -53c-22 -67 -56 -170 -77 -238h186zM169 675l-154 -165l-56 35l115 190z" />
    <glyph glyph-name="Epsilontonos" unicode="&#x388;" horiz-adv-x="649" 
d="M617 0h-574v96h69v496h-68v95h560v-202h-101v107h-247v-192l230 6v-99l-230 6v-217h259v112h102v-208zM-25 676l-154 -165l-56 35l115 190z" />
    <glyph glyph-name="Etatonos" unicode="&#x389;" horiz-adv-x="786" 
d="M743 0h-275v95h62v217h-275v-217h63v-95h-276v95h70v497h-70v95h276v-95h-63v-190h275v190h-62v95h275v-95h-69v-497h69v-95zM-25 673l-154 -165l-56 35l115 190z" />
    <glyph glyph-name="Iotatonos" unicode="&#x38a;" horiz-adv-x="419" 
d="M349 0h-279v95h68v497h-68v96h279v-96h-68v-497h68v-95zM4 673l-154 -165l-56 35l115 190z" />
    <glyph glyph-name="Omicrontonos" unicode="&#x38c;" horiz-adv-x="740" 
d="M690 344c0 -202 -107 -354 -317 -354c-225 0 -323 142 -323 352c0 197 95 358 323 358c230 0 317 -162 317 -356zM538 342c0 128 -29 255 -165 255c-137 0 -172 -123 -172 -256c0 -159 48 -248 172 -248c117 0 165 106 165 249zM47 678l-154 -165l-56 35l115 190z" />
    <glyph glyph-name="Upsilontonos" unicode="&#x38e;" horiz-adv-x="666" 
d="M336 370l121 221h-58v97h255v-97h-55l-193 -319v-177h78v-95h-307v95h78v175l-189 321h-53v97h257v-97h-57l119 -221h4zM-47 678l-154 -165l-56 35l115 190z" />
    <glyph glyph-name="Omegatonos" unicode="&#x38f;" horiz-adv-x="755" 
d="M610 98l1 -4h108v-94h-288v98c89 24 117 113 117 254s-38 246 -166 246c-124 0 -173 -99 -173 -244c0 -144 27 -233 112 -255v-99h-288v94h106l3 3c-68 50 -83 151 -83 260c0 191 100 344 320 344c224 0 321 -153 321 -341c0 -104 -24 -207 -90 -262zM64 678l-154 -165
l-56 35l115 190z" />
    <glyph glyph-name="Tau" unicode="&#x3a4;" horiz-adv-x="630" 
d="M468 0h-305v95h82v497h-129l1 -112h-101v208h599v-208h-101v112h-127v-497h81v-95z" />
    <glyph glyph-name="Upsilon" unicode="&#x3a5;" horiz-adv-x="666" 
d="M336 370l121 221h-58v97h255v-97h-55l-193 -319v-177h78v-95h-307v95h78v175l-189 321h-53v97h257v-97h-57l119 -221h4z" />
    <glyph glyph-name="Chi" unicode="&#x3a7;" horiz-adv-x="706" 
d="M438 350l172 -254h68l1 -96h-295v96h57l-110 173l-111 -173h59v-96h-251v96h60l173 259l-156 236h-75v97h293v-97h-54l101 -158l106 158h-58v97h252v-97h-60z" />
    <glyph glyph-name="iotadieresistonos" unicode="&#x390;" horiz-adv-x="333" 
d="M87 397h-54v94h193v-395h71v-83c-33 -14 -81 -22 -112 -22c-71 0 -97 28 -98 92v314zM338 611c0 -32 -28 -57 -60 -57c-33 0 -57 25 -57 57c0 34 27 59 58 59c33 0 59 -25 59 -59zM61 611c0 -32 -26 -57 -59 -57c-32 0 -58 25 -58 57c0 34 26 59 57 59
c34 0 60 -25 60 -59zM247 718l-120 -188l-59 25l80 208z" />
    <glyph glyph-name="Dieresis" unicode="&#xf6cb;" horiz-adv-x="736" 
d="M528 785c0 -33 -26 -58 -60 -58c-32 0 -57 25 -57 58c0 32 25 58 57 58c34 0 60 -25 60 -58zM328 785c0 -33 -26 -58 -59 -58s-58 25 -58 58c0 32 26 58 57 58c34 0 60 -25 60 -58z" />
    <glyph glyph-name="Iotadieresis" unicode="&#x3aa;" horiz-adv-x="419" 
d="M349 0h-279v95h68v497h-68v96h279v-96h-68v-497h68v-95zM364 785c0 -33 -26 -58 -60 -58c-32 0 -57 25 -57 58c0 32 25 58 57 58c34 0 60 -25 60 -58zM164 785c0 -33 -26 -58 -59 -58s-58 25 -58 58c0 32 26 58 57 58c34 0 60 -25 60 -58z" />
    <glyph glyph-name="Upsilondieresis" unicode="&#x3ab;" horiz-adv-x="666" 
d="M336 370l121 221h-58v97h255v-97h-55l-193 -319v-177h78v-95h-307v95h78v175l-189 321h-53v97h257v-97h-57l119 -221h4zM492 785c0 -33 -26 -58 -60 -58c-32 0 -57 25 -57 58c0 32 25 58 57 58c34 0 60 -25 60 -58zM292 785c0 -33 -26 -58 -59 -58s-58 25 -58 58
c0 32 26 58 57 58c34 0 60 -25 60 -58z" />
    <glyph glyph-name="tilde" unicode="&#x2dc;" horiz-adv-x="556" 
d="M367 563c-67 0 -132 39 -173 39l-56 -39l-41 31c23 63 59 91 103 91c56 0 124 -37 172 -37l55 40l40 -31c-20 -59 -54 -94 -100 -94z" />
    <glyph glyph-name="macron" unicode="&#xaf;" horiz-adv-x="556" 
d="M96 583v91h363v-91h-363z" />
    <glyph glyph-name="iotadieresis" unicode="&#x3ca;" horiz-adv-x="333" 
d="M87 397h-54v94h193v-395h71v-83c-33 -14 -81 -22 -112 -22c-71 0 -97 28 -98 92v314zM292 607c0 -32 -26 -57 -61 -57c-32 0 -57 25 -57 57c0 33 26 58 57 58c35 0 61 -24 61 -58zM91 607c0 -32 -25 -57 -59 -57c-33 0 -58 25 -58 57c0 33 27 58 57 58
c35 0 60 -24 60 -58z" />
    <glyph glyph-name="upsilondieresis" unicode="&#x3cb;" horiz-adv-x="605" 
d="M398 491h141v-284c0 -139 -95 -216 -232 -216c-151 0 -228 79 -228 197v209h-58v94h198v-306c0 -55 23 -93 88 -93c53 0 91 36 91 100v299zM459 607c0 -32 -26 -57 -61 -57c-32 0 -57 25 -57 57c0 33 26 58 57 58c35 0 61 -24 61 -58zM258 607c0 -32 -25 -57 -59 -57
c-33 0 -58 25 -58 57c0 33 27 58 57 58c35 0 60 -24 60 -58z" />
    <glyph glyph-name="etatonos" unicode="&#x3ae;" horiz-adv-x="645" 
d="M393 502c136 0 157 -96 157 -169v-238h70v-82c-33 -14 -79 -21 -111 -21c-101 0 -98 87 -98 105v209c0 62 -16 87 -72 87c-34 0 -79 -18 -110 -39v-354h-140v398h-66v92h204v-43c2 0 3 -1 5 -1c54 36 111 56 161 56zM436 696l-154 -165l-56 35l115 190z" />
    <glyph glyph-name="iotatonos" unicode="&#x3af;" horiz-adv-x="333" 
d="M87 397h-54v94h193v-395h71v-83c-33 -14 -81 -22 -112 -22c-71 0 -97 28 -98 92v314zM292 696l-154 -165l-56 35l115 190z" />
    <glyph glyph-name="upsilondieresistonos" unicode="&#x3b0;" horiz-adv-x="605" 
d="M398 491h141v-284c0 -139 -95 -216 -232 -216c-151 0 -228 79 -228 197v209h-58v94h198v-306c0 -55 23 -93 88 -93c53 0 91 36 91 100v299zM498 611c0 -32 -28 -57 -60 -57c-33 0 -57 25 -57 57c0 34 27 59 58 59c33 0 59 -25 59 -59zM221 611c0 -32 -26 -57 -59 -57
c-32 0 -58 25 -58 57c0 34 26 59 57 59c34 0 60 -25 60 -59zM407 718l-120 -188l-59 25l80 208z" />
    <glyph glyph-name="omegatonos" unicode="&#x3ce;" horiz-adv-x="789" 
d="M338 334h117l1 -162c1 -45 24 -82 70 -82c62 0 88 51 88 149c0 77 -20 145 -84 173l24 88c145 -22 198 -131 198 -260c0 -133 -59 -248 -215 -248c-60 0 -115 24 -141 73h-5c-30 -49 -87 -73 -145 -73c-166 0 -209 115 -209 248c0 127 51 238 198 260l23 -88
c-64 -28 -83 -96 -83 -173c0 -83 15 -149 87 -149c51 0 76 37 76 82v162zM529 696l-154 -165l-56 35l115 190z" />
    <glyph glyph-name="epsilontonos" unicode="&#x3ad;" horiz-adv-x="460" 
d="M244 504c74 0 145 -15 178 -30v-128h-91v63c-21 6 -48 8 -68 8c-60 0 -85 -29 -85 -62c0 -45 33 -56 72 -56h65v-79h-65c-36 0 -78 -14 -78 -65c0 -52 44 -72 108 -72c45 0 92 11 142 30l26 -80c-42 -21 -116 -43 -201 -43c-133 0 -216 51 -216 148c0 52 33 101 84 118
l1 2c-45 15 -78 50 -78 98c0 84 75 148 206 148zM385 696l-154 -165l-56 35l115 190z" />
    <glyph glyph-name="OE" unicode="&#x152;" horiz-adv-x="894" 
d="M367 700c39 0 75 -6 106 -14h377v-198h-100v104h-217v-192l201 5v-97l-201 3v-217h228v109h103v-203h-411c-27 -5 -55 -8 -86 -8c-225 0 -323 139 -323 349c0 196 95 359 323 359zM367 90c7 0 15 0 22 1v506c-6 0 -13 1 -25 1c-135 -2 -169 -126 -169 -258
c0 -159 48 -250 172 -250z" />
    <glyph glyph-name="paragraph" unicode="&#xb6;" horiz-adv-x="611" 
d="M263 295h-19c-116 0 -202 82 -202 201c0 113 81 207 202 207h336v-92h-67v-817h-94v817h-61v-817h-182v86h87v415z" />
    <glyph glyph-name="oe" unicode="&#x153;" horiz-adv-x="880" 
d="M806 125l29 -83c-63 -34 -135 -48 -201 -48c-87 0 -141 27 -175 73c-38 -45 -94 -76 -178 -76c-175 0 -244 113 -244 253c0 138 75 257 249 257c82 0 136 -31 171 -78c34 47 88 81 175 81c190 0 216 -151 216 -238v-36h-315c0 -80 31 -136 123 -136c51 0 100 11 150 31z
M388 244c0 77 -17 159 -102 159s-106 -82 -106 -159c0 -84 18 -156 106 -156c84 0 102 77 102 156zM535 285h187c-1 74 -21 124 -89 124c-70 0 -94 -58 -98 -124z" />
    <glyph glyph-name="ae" unicode="&#xe6;" horiz-adv-x="831" 
d="M588 502c189 0 212 -151 212 -239v-39h-311c0 -81 30 -132 122 -132c51 0 99 11 150 30l26 -83c-62 -34 -133 -47 -198 -47c-99 0 -152 25 -187 74c-86 -71 -165 -77 -212 -77c-130 0 -160 87 -160 143c0 70 42 151 178 151h146v29c0 65 -31 88 -101 88
c-57 0 -114 -10 -158 -25l-23 86c57 25 140 40 209 40c60 0 125 -19 150 -68c33 42 84 69 157 69zM248 78c27 0 85 16 120 48c-10 30 -15 61 -16 96h-89c-58 0 -89 -27 -89 -71c0 -49 25 -73 74 -73zM589 406c-70 0 -94 -58 -97 -123h184c0 73 -20 123 -87 123z" />
    <glyph glyph-name="AE" unicode="&#xc6;" horiz-adv-x="1026" 
d="M518 94v108h-239l-67 -108h62v-94h-264v94h56l311 498h-53v95h650v-198h-102v105h-211v-194l211 6v-98l-211 5v-219h223v110h102v-204h-539v94h71zM513 588l-183 -295h188v295h-5z" />
    <glyph glyph-name="space" unicode=" " horiz-adv-x="297" 
 />
    <glyph glyph-name="Circumflex" unicode="&#xf6c0;" horiz-adv-x="736" 
d="M567 778l-36 -41l-164 99l-163 -100l-33 40l153 147h87z" />
    <glyph glyph-name="commaaccent" unicode="&#xf6c3;" horiz-adv-x="736" 
d="M297 -104c0 34 30 63 71 63c49 0 73 -37 72 -77c-1 -62 -49 -123 -108 -151l-32 39c26 21 41 43 43 69c-31 6 -46 27 -46 57z" />
    <glyph glyph-name="Acute" unicode="&#xf6c9;" horiz-adv-x="736" 
d="M555 875l-174 -139l-47 48l148 169z" />
    <glyph glyph-name="Caron" unicode="&#xf6ca;" horiz-adv-x="736" 
d="M534 927l35 -41l-156 -145h-86l-154 146l33 39l164 -100z" />
    <glyph glyph-name="DieresisAcute" unicode="&#xf6cc;" horiz-adv-x="736" 
d="M592 816c0 -33 -26 -58 -60 -58c-32 0 -57 25 -57 58c0 32 25 58 57 58c34 0 60 -25 60 -58zM300 816c0 -33 -26 -58 -59 -58s-58 25 -58 58c0 32 26 58 57 58c34 0 60 -25 60 -58zM504 892l-152 -164l-52 41l121 188z" />
    <glyph glyph-name="DieresisGrave" unicode="&#xf6cd;" horiz-adv-x="736" 
d="M542 816c0 -33 -26 -58 -60 -58c-32 0 -57 25 -57 58c0 32 25 58 57 58c34 0 60 -25 60 -58zM250 816c0 -33 -26 -58 -59 -58s-58 25 -58 58c0 32 26 58 57 58c34 0 60 -25 60 -58zM375 728l-152 164l83 65l121 -188z" />
    <glyph glyph-name="Grave" unicode="&#xf6ce;" horiz-adv-x="736" 
d="M369 736l-172 139l70 77l148 -169z" />
    <glyph glyph-name="Hungarumlaut" unicode="&#xf6cf;" horiz-adv-x="736" 
d="M479 897l-159 -159l-53 41l130 185zM635 897l-160 -159l-52 41l129 185z" />
    <glyph glyph-name="Macron" unicode="&#xf6d0;" horiz-adv-x="736" 
d="M199 748v91h353v-91h-353z" />
    <glyph glyph-name="cyrBreve" unicode="&#xf6d1;" horiz-adv-x="736" 
d="M368 737c-78 0 -137 59 -183 128l58 45c42 -57 92 -88 129 -88c24 0 68 2 151 82l39 -38c-63 -97 -136 -129 -194 -129z" />
    <glyph glyph-name="cyrbreve" unicode="&#xf6d4;" horiz-adv-x="558" 
d="M281 542c-78 0 -137 60 -183 129l58 44c42 -56 92 -87 128 -87c25 0 69 1 152 80l39 -38c-63 -97 -135 -128 -194 -128z" />
    <glyph glyph-name="Scaron" unicode="&#x160;" horiz-adv-x="614" 
d="M41 199h101c0 -26 1 -50 1 -76c45 -20 99 -26 137 -26c103 0 136 47 136 93c0 64 -61 83 -146 105c-130 33 -225 78 -225 194c0 133 107 208 260 208c66 0 154 -11 217 -44c0 -52 1 -103 1 -155h-102c0 26 -1 52 -1 78c-29 12 -78 17 -110 17c-80 0 -116 -37 -116 -89
c0 -55 53 -75 148 -100c116 -31 232 -67 232 -206c0 -142 -111 -208 -285 -208c-81 0 -172 12 -247 48c0 53 -1 107 -1 161zM461 927l35 -41l-156 -145h-86l-154 146l33 39l164 -100z" />
    <glyph glyph-name="Zcaron" unicode="&#x17d;" horiz-adv-x="608" 
d="M565 596l-362 -500h279v127h103v-223h-560v94l360 498h-234v-111h-102v207h516v-92zM482 927l35 -41l-156 -145h-86l-154 146l33 39l164 -100z" />
    <glyph glyph-name="scaron" unicode="&#x161;" horiz-adv-x="499" 
d="M32 158h96l2 -58c23 -11 66 -17 95 -17c50 0 94 16 94 51c0 41 -40 54 -82 65c-96 27 -200 51 -200 149c0 105 82 153 211 153c60 0 128 -12 177 -38c0 -41 0 -82 1 -124h-97l-1 56c-20 8 -48 12 -71 12c-45 0 -78 -18 -78 -51c0 -32 48 -43 81 -52
c81 -22 202 -43 202 -170c0 -96 -83 -143 -228 -143c-57 0 -139 8 -201 39c0 41 0 87 -1 128zM411 734l35 -41l-156 -149h-87l-154 150l34 40l163 -100z" />
    <glyph glyph-name="Ydieresis" unicode="&#x178;" horiz-adv-x="666" 
d="M336 370l121 221h-58v97h255v-97h-55l-193 -319v-177h78v-95h-307v95h78v175l-189 321h-53v97h257v-97h-57l119 -221h4zM493 785c0 -33 -26 -58 -60 -58c-32 0 -57 25 -57 58c0 32 25 58 57 58c34 0 60 -25 60 -58zM293 785c0 -33 -26 -58 -59 -58s-58 25 -58 58
c0 32 26 58 57 58c34 0 60 -25 60 -58z" />
    <glyph glyph-name="cent" unicode="&#xa2;" horiz-adv-x="597" 
d="M293 -85v78c-163 12 -207 119 -207 247c0 106 37 241 207 259v91h56v-89c49 -2 98 -10 139 -25v-148h-94v66c-16 3 -32 5 -45 5v-307c46 0 94 10 135 25l26 -88c-40 -21 -101 -34 -161 -37v-77h-56zM226 244c0 -80 24 -124 67 -142v286c-46 -20 -67 -70 -67 -144z" />
    <glyph glyph-name="ordfeminine" unicode="&#xaa;" horiz-adv-x="385" 
d="M328 484v-147h40l5 -59c-22 -9 -58 -16 -81 -16c-26 0 -53 9 -57 40c-44 -39 -88 -40 -107 -40c-86 0 -108 57 -108 95c0 43 21 74 72 87c39 10 87 14 138 17v12c0 36 -12 53 -58 53c-30 0 -71 -6 -104 -16c-5 19 -11 40 -18 61c42 17 98 27 146 27
c82 0 132 -29 132 -114zM230 412c-27 -1 -53 -2 -73 -8c-21 -6 -33 -18 -33 -39c0 -27 13 -40 45 -40c18 0 44 10 61 24v63z" />
    <glyph glyph-name="ordmasculine" unicode="&#xba;" horiz-adv-x="397" 
d="M370 431c0 -90 -49 -167 -175 -167c-121 0 -169 74 -169 167c0 91 52 168 174 168c123 0 170 -77 170 -168zM266 431c0 47 -11 99 -66 99s-69 -53 -69 -100c0 -51 10 -97 69 -97c54 0 66 49 66 98z" />
    <glyph glyph-name="onequarter" unicode="&#xbc;" horiz-adv-x="900" 
d="M679 403h100v-224h62v-66h-62v-47h43v-65h-182v65h39v47h-195v55zM81 265v75h89v239c-20 -2 -73 -8 -92 -11l-13 64l121 37h90v-329h87v-75h-282zM673 708l-315 -728h-82l315 728h82zM680 302c-35 -45 -71 -84 -101 -123h101v123z" />
    <glyph glyph-name="threequarters" unicode="&#xbe;" horiz-adv-x="900" 
d="M677 403h100v-224h62v-66h-62v-47h43v-65h-182v65h39v47h-195v55zM143 450l-13 47c30 27 83 71 112 98h-96v-43h-77v117h290c3 -11 10 -44 14 -55c-30 -27 -82 -72 -112 -100c69 -10 119 -47 119 -114c0 -90 -81 -139 -179 -139c-45 0 -104 5 -153 30c6 14 22 57 27 71
c55 -17 93 -19 118 -19c49 0 81 22 81 58c0 30 -24 53 -85 53c-16 0 -29 -2 -46 -4zM659 708l-315 -728h-82l315 728h82zM678 302c-35 -45 -71 -84 -101 -123h101v123z" />
    <glyph glyph-name="Agrave" unicode="&#xc0;" horiz-adv-x="736" 
d="M453 94h63l-30 96h-245c-8 -25 -22 -65 -30 -96h65v-94h-256v94h55l208 593h177l201 -593h55v-94h-263v94zM458 282l-75 239c-4 17 -10 34 -15 52h-3l-16 -53c-22 -67 -56 -170 -77 -238h186zM370 736l-172 139l70 77l148 -169z" />
    <glyph glyph-name="Aacute" unicode="&#xc1;" horiz-adv-x="736" 
d="M453 94h63l-30 96h-245c-8 -25 -22 -65 -30 -96h65v-94h-256v94h55l208 593h177l201 -593h55v-94h-263v94zM458 282l-75 239c-4 17 -10 34 -15 52h-3l-16 -53c-22 -67 -56 -170 -77 -238h186zM552 875l-174 -139l-47 48l148 169z" />
    <glyph glyph-name="Acircumflex" unicode="&#xc2;" horiz-adv-x="736" 
d="M453 94h63l-30 96h-245c-8 -25 -22 -65 -30 -96h65v-94h-256v94h55l208 593h177l201 -593h55v-94h-263v94zM565 778l-36 -41l-164 99l-163 -100l-33 40l153 147h87zM458 282l-75 239c-4 17 -10 34 -15 52h-3l-16 -53c-22 -67 -56 -170 -77 -238h186z" />
    <glyph glyph-name="Atilde" unicode="&#xc3;" horiz-adv-x="736" 
d="M453 94h63l-30 96h-245c-8 -25 -22 -65 -30 -96h65v-94h-256v94h55l208 593h177l201 -593h55v-94h-263v94zM451 758c-67 0 -132 39 -173 39l-56 -39l-41 31c23 63 59 91 103 91c56 0 124 -37 172 -37l55 40l40 -31c-20 -59 -54 -94 -100 -94zM458 282l-75 239
c-4 17 -10 34 -15 52h-3l-16 -53c-22 -67 -56 -170 -77 -238h186z" />
    <glyph glyph-name="Adieresis" unicode="&#xc4;" horiz-adv-x="736" 
d="M453 94h63l-30 96h-245c-8 -25 -22 -65 -30 -96h65v-94h-256v94h55l208 593h177l201 -593h55v-94h-263v94zM458 282l-75 239c-4 17 -10 34 -15 52h-3l-16 -53c-22 -67 -56 -170 -77 -238h186zM528 785c0 -33 -26 -58 -60 -58c-32 0 -57 25 -57 58c0 32 25 58 57 58
c34 0 60 -25 60 -58zM328 785c0 -33 -26 -58 -59 -58s-58 25 -58 58c0 32 26 58 57 58c34 0 60 -25 60 -58z" />
    <glyph glyph-name="Aring" unicode="&#xc5;" horiz-adv-x="736" 
d="M453 94h63l-30 96h-245c-8 -25 -22 -65 -30 -96h65v-94h-256v94h55l208 593h177l201 -593h55v-94h-263v94zM364 740c-70 0 -124 54 -124 120c0 63 54 119 124 119s120 -55 120 -119c0 -68 -53 -120 -120 -120zM458 282l-75 239c-4 17 -10 34 -15 52h-3l-16 -53
c-22 -67 -56 -170 -77 -238h186zM364 914c-32 0 -57 -27 -57 -57c0 -28 23 -54 57 -54c31 0 53 26 53 54c0 30 -21 57 -53 57z" />
    <glyph glyph-name="Ccedilla" unicode="&#xc7;" horiz-adv-x="623" 
d="M201 345c0 -162 52 -240 205 -240c33 0 109 6 160 21l22 -100c-50 -20 -124 -32 -189 -35c-16 -21 -34 -43 -50 -66c66 -4 108 -33 108 -86c0 -56 -59 -107 -191 -108c0 16 -1 32 -1 48c72 7 114 25 114 55c0 32 -47 36 -94 36c-6 9 -10 16 -16 24l74 97
c-227 12 -293 163 -293 351c0 161 63 359 333 359c73 0 133 -11 183 -28v-193h-101v103c-26 7 -55 9 -79 9c-134 0 -185 -98 -185 -247z" />
    <glyph glyph-name="Egrave" unicode="&#xc8;" horiz-adv-x="649" 
d="M617 0h-574v96h69v496h-68v95h560v-202h-101v107h-247v-192l230 6v-99l-230 6v-217h259v112h102v-208zM370 736l-172 139l70 77l148 -169z" />
    <glyph glyph-name="Eacute" unicode="&#xc9;" horiz-adv-x="649" 
d="M617 0h-574v96h69v496h-68v95h560v-202h-101v107h-247v-192l230 6v-99l-230 6v-217h259v112h102v-208zM504 875l-174 -139l-47 48l148 169z" />
    <glyph glyph-name="Ecircumflex" unicode="&#xca;" horiz-adv-x="649" 
d="M617 0h-574v96h69v496h-68v95h560v-202h-101v107h-247v-192l230 6v-99l-230 6v-217h259v112h102v-208zM543 778l-36 -41l-164 99l-163 -100l-33 40l153 147h87z" />
    <glyph glyph-name="Edieresis" unicode="&#xcb;" horiz-adv-x="649" 
d="M617 0h-574v96h69v496h-68v95h560v-202h-101v107h-247v-192l230 6v-99l-230 6v-217h259v112h102v-208zM501 785c0 -33 -26 -58 -60 -58c-32 0 -57 25 -57 58c0 32 25 58 57 58c34 0 60 -25 60 -58zM301 785c0 -33 -26 -58 -59 -58s-58 25 -58 58c0 32 26 58 57 58
c34 0 60 -25 60 -58z" />
    <glyph glyph-name="Igrave" unicode="&#xcc;" horiz-adv-x="419" 
d="M349 0h-279v95h68v497h-68v96h279v-96h-68v-497h68v-95zM214 736l-172 139l70 77l148 -169z" />
    <glyph glyph-name="Iacute" unicode="&#xcd;" horiz-adv-x="419" 
d="M349 0h-279v95h68v497h-68v96h279v-96h-68v-497h68v-95zM391 875l-174 -139l-47 48l148 169z" />
    <glyph glyph-name="Icircumflex" unicode="&#xce;" horiz-adv-x="419" 
d="M349 0h-279v95h68v497h-68v96h279v-96h-68v-497h68v-95zM409 778l-36 -41l-164 99l-163 -100l-33 40l153 147h87z" />
    <glyph glyph-name="Idieresis" unicode="&#xcf;" horiz-adv-x="419" 
d="M349 0h-279v95h68v497h-68v96h279v-96h-68v-497h68v-95zM364 785c0 -33 -26 -58 -60 -58c-32 0 -57 25 -57 58c0 32 25 58 57 58c34 0 60 -25 60 -58zM164 785c0 -33 -26 -58 -59 -58s-58 25 -58 58c0 32 26 58 57 58c34 0 60 -25 60 -58z" />
    <glyph glyph-name="Ntilde" unicode="&#xd1;" horiz-adv-x="814" 
d="M565 207h5v385h-68v95h268v-95h-66v-592h-140c-89 138 -180 275 -268 414c-17 28 -34 56 -52 84c-1 0 -1 -1 -2 -1v-403h68v-94h-270v94h69c0 166 1 331 1 498h-69v95h222c97 -156 158 -246 244 -387c20 -31 39 -61 58 -93zM493 761c-67 0 -132 39 -173 39l-56 -39
l-41 31c23 63 59 91 103 91c56 0 124 -37 172 -37l55 40l40 -31c-20 -59 -54 -94 -100 -94z" />
    <glyph glyph-name="Ograve" unicode="&#xd2;" horiz-adv-x="740" 
d="M690 344c0 -202 -107 -354 -317 -354c-225 0 -323 142 -323 352c0 197 95 358 323 358c230 0 317 -162 317 -356zM538 342c0 128 -29 255 -165 255c-137 0 -172 -123 -172 -256c0 -159 48 -248 172 -248c117 0 165 106 165 249zM380 736l-172 139l70 77l148 -169z" />
    <glyph glyph-name="Oacute" unicode="&#xd3;" horiz-adv-x="740" 
d="M690 344c0 -202 -107 -354 -317 -354c-225 0 -323 142 -323 352c0 197 95 358 323 358c230 0 317 -162 317 -356zM538 342c0 128 -29 255 -165 255c-137 0 -172 -123 -172 -256c0 -159 48 -248 172 -248c117 0 165 106 165 249zM546 875l-174 -139l-47 48l148 169z" />
    <glyph glyph-name="Ocircumflex" unicode="&#xd4;" horiz-adv-x="740" 
d="M690 344c0 -202 -107 -354 -317 -354c-225 0 -323 142 -323 352c0 197 95 358 323 358c230 0 317 -162 317 -356zM538 342c0 128 -29 255 -165 255c-137 0 -172 -123 -172 -256c0 -159 48 -248 172 -248c117 0 165 106 165 249zM572 778l-36 -41l-164 99l-163 -100
l-33 40l153 147h87z" />
    <glyph glyph-name="Otilde" unicode="&#xd5;" horiz-adv-x="740" 
d="M690 344c0 -202 -107 -354 -317 -354c-225 0 -323 142 -323 352c0 197 95 358 323 358c230 0 317 -162 317 -356zM538 342c0 128 -29 255 -165 255c-137 0 -172 -123 -172 -256c0 -159 48 -248 172 -248c117 0 165 106 165 249zM464 763c-67 0 -132 39 -173 39l-56 -39
l-41 31c23 63 59 91 103 91c56 0 124 -37 172 -37l55 40l40 -31c-20 -59 -54 -94 -100 -94z" />
    <glyph glyph-name="Odieresis" unicode="&#xd6;" horiz-adv-x="740" 
d="M690 344c0 -202 -107 -354 -317 -354c-225 0 -323 142 -323 352c0 197 95 358 323 358c230 0 317 -162 317 -356zM538 342c0 128 -29 255 -165 255c-137 0 -172 -123 -172 -256c0 -159 48 -248 172 -248c117 0 165 106 165 249zM526 785c0 -33 -26 -58 -60 -58
c-32 0 -57 25 -57 58c0 32 25 58 57 58c34 0 60 -25 60 -58zM326 785c0 -33 -26 -58 -59 -58s-58 25 -58 58c0 32 26 58 57 58c34 0 60 -25 60 -58z" />
    <glyph glyph-name="Oslash" unicode="&#xd8;" horiz-adv-x="740" 
d="M690 344c0 -202 -107 -354 -317 -354c-92 0 -161 23 -212 65l-52 -63h-61l78 96c-52 62 -76 149 -76 254c0 197 95 358 323 358c87 0 152 -22 202 -63l51 65h67l-82 -98c55 -66 79 -160 79 -260zM538 342c0 51 -6 106 -25 149l-270 -340c29 -39 70 -59 130 -59
c117 0 165 107 165 250zM201 341c0 -58 7 -104 22 -139l269 339c-26 35 -63 58 -119 58c-137 0 -172 -125 -172 -258z" />
    <glyph glyph-name="Ugrave" unicode="&#xd9;" horiz-adv-x="757" 
d="M664 592v-339c0 -163 -89 -262 -286 -262c-206 0 -287 98 -287 262v339h-58v96h263v-96h-65v-342c0 -106 53 -155 148 -155c89 0 146 46 146 155v342h-63v96h262v-96h-60zM384 736l-172 139l70 77l148 -169z" />
    <glyph glyph-name="Uacute" unicode="&#xda;" horiz-adv-x="757" 
d="M664 592v-339c0 -163 -89 -262 -286 -262c-206 0 -287 98 -287 262v339h-58v96h263v-96h-65v-342c0 -106 53 -155 148 -155c89 0 146 46 146 155v342h-63v96h262v-96h-60zM557 875l-174 -139l-47 48l148 169z" />
    <glyph glyph-name="Ucircumflex" unicode="&#xdb;" horiz-adv-x="757" 
d="M664 592v-339c0 -163 -89 -262 -286 -262c-206 0 -287 98 -287 262v339h-58v96h263v-96h-65v-342c0 -106 53 -155 148 -155c89 0 146 46 146 155v342h-63v96h262v-96h-60zM588 778l-38 -41l-170 97l-169 -98l-34 40l158 144h91z" />
    <glyph glyph-name="Udieresis" unicode="&#xdc;" horiz-adv-x="757" 
d="M664 592v-339c0 -163 -89 -262 -286 -262c-206 0 -287 98 -287 262v339h-58v96h263v-96h-65v-342c0 -106 53 -155 148 -155c89 0 146 46 146 155v342h-63v96h262v-96h-60zM535 785c0 -33 -26 -58 -60 -58c-32 0 -57 25 -57 58c0 32 25 58 57 58c34 0 60 -25 60 -58z
M335 785c0 -33 -26 -58 -59 -58s-58 25 -58 58c0 32 26 58 57 58c34 0 60 -25 60 -58z" />
    <glyph glyph-name="Yacute" unicode="&#xdd;" horiz-adv-x="666" 
d="M336 370l121 221h-58v97h255v-97h-55l-193 -319v-177h78v-95h-307v95h78v175l-189 321h-53v97h257v-97h-57l119 -221h4zM513 874l-174 -139l-47 48l148 169z" />
    <glyph glyph-name="Thorn" unicode="&#xde;" horiz-adv-x="633" 
d="M254 596v-56h117c157 0 237 -68 237 -187c0 -93 -63 -194 -225 -192h-129v-74h75v-87h-288v87h70v509h-70v92h288v-92h-75zM345 460h-91v-218h95c61 0 110 31 110 109c0 76 -47 109 -114 109z" />
    <glyph glyph-name="agrave" unicode="&#xe0;" horiz-adv-x="565" 
d="M339 222l-92 -9c-48 -5 -71 -32 -71 -65c0 -46 20 -68 69 -68c30 0 67 17 94 42v100zM472 330v-237h75l7 -75c-48 -21 -98 -26 -130 -26c-43 0 -75 10 -76 63c-1 0 -1 1 -2 1c-67 -64 -136 -66 -164 -66c-121 0 -150 85 -150 142c0 76 59 139 172 146l137 9v24
c0 57 -19 88 -90 88c-48 0 -106 -10 -150 -25c-8 28 -16 57 -23 86c57 25 138 39 207 39c116 0 187 -43 187 -169zM316 532l-174 140l72 77l148 -169z" />
    <glyph glyph-name="aacute" unicode="&#xe1;" horiz-adv-x="565" 
d="M339 222l-92 -9c-48 -5 -71 -32 -71 -65c0 -46 20 -68 69 -68c30 0 67 17 94 42v100zM472 330v-237h75l7 -75c-48 -21 -98 -26 -130 -26c-43 0 -75 10 -76 63c-1 0 -1 1 -2 1c-67 -64 -136 -66 -164 -66c-121 0 -150 85 -150 142c0 76 59 139 172 146l137 9v24
c0 57 -19 88 -90 88c-48 0 -106 -10 -150 -25c-8 28 -16 57 -23 86c57 25 138 39 207 39c116 0 187 -43 187 -169zM413 672l-174 -140l-46 48l147 169z" />
    <glyph glyph-name="acircumflex" unicode="&#xe2;" horiz-adv-x="565" 
d="M339 222l-92 -9c-48 -5 -71 -32 -71 -65c0 -46 20 -68 69 -68c30 0 67 17 94 42v100zM472 330v-237h75l7 -75c-48 -21 -98 -26 -130 -26c-43 0 -75 10 -76 63c-1 0 -1 1 -2 1c-67 -64 -136 -66 -164 -66c-121 0 -150 85 -150 142c0 76 59 139 172 146l137 9v24
c0 57 -19 88 -90 88c-48 0 -106 -10 -150 -25c-8 28 -16 57 -23 86c57 25 138 39 207 39c116 0 187 -43 187 -169zM477 571l-35 -41l-165 100l-163 -100l-34 40l154 150h87z" />
    <glyph glyph-name="atilde" unicode="&#xe3;" horiz-adv-x="565" 
d="M339 222l-92 -9c-48 -5 -71 -32 -71 -65c0 -46 20 -68 69 -68c30 0 67 17 94 42v100zM472 330v-237h75l7 -75c-48 -21 -98 -26 -130 -26c-43 0 -75 10 -76 63c-1 0 -1 1 -2 1c-67 -64 -136 -66 -164 -66c-121 0 -150 85 -150 142c0 76 59 139 172 146l137 9v24
c0 57 -19 88 -90 88c-48 0 -106 -10 -150 -25c-8 28 -16 57 -23 86c57 25 138 39 207 39c116 0 187 -43 187 -169zM366 567c-67 0 -132 39 -173 39l-56 -39l-41 31c23 63 59 91 103 91c56 0 124 -37 172 -37l55 40l40 -31c-20 -59 -54 -94 -100 -94z" />
    <glyph glyph-name="adieresis" unicode="&#xe4;" horiz-adv-x="565" 
d="M339 222l-92 -9c-48 -5 -71 -32 -71 -65c0 -46 20 -68 69 -68c30 0 67 17 94 42v100zM472 330v-237h75l7 -75c-48 -21 -98 -26 -130 -26c-43 0 -75 10 -76 63c-1 0 -1 1 -2 1c-67 -64 -136 -66 -164 -66c-121 0 -150 85 -150 142c0 76 59 139 172 146l137 9v24
c0 57 -19 88 -90 88c-48 0 -106 -10 -150 -25c-8 28 -16 57 -23 86c57 25 138 39 207 39c116 0 187 -43 187 -169zM419 607c0 -32 -26 -57 -61 -57c-32 0 -57 25 -57 57c0 33 26 58 57 58c35 0 61 -24 61 -58zM218 607c0 -32 -25 -57 -59 -57c-33 0 -58 25 -58 57
c0 33 27 58 57 58c35 0 60 -24 60 -58z" />
    <glyph glyph-name="aring" unicode="&#xe5;" horiz-adv-x="565" 
d="M339 222l-92 -9c-48 -5 -71 -32 -71 -65c0 -46 20 -68 69 -68c30 0 67 17 94 42v100zM472 330v-237h75l7 -75c-48 -21 -98 -26 -130 -26c-43 0 -75 10 -76 63c-1 0 -1 1 -2 1c-67 -64 -136 -66 -164 -66c-121 0 -150 85 -150 142c0 76 59 139 172 146l137 9v24
c0 57 -19 88 -90 88c-48 0 -106 -10 -150 -25c-8 28 -16 57 -23 86c57 25 138 39 207 39c116 0 187 -43 187 -169zM282 548c-70 0 -124 54 -124 120c0 63 54 119 124 119s120 -55 120 -119c0 -68 -53 -120 -120 -120zM282 722c-32 0 -57 -27 -57 -57c0 -28 23 -54 57 -54
c31 0 53 26 53 54c0 30 -21 57 -53 57z" />
    <glyph glyph-name="ccedilla" unicode="&#xe7;" horiz-adv-x="494" 
d="M287 501c54 0 110 -8 155 -25v-148h-94v66c-17 3 -33 5 -47 5c-84 0 -121 -56 -121 -155c0 -110 46 -152 122 -152c47 0 95 10 136 25l26 -88c-41 -21 -105 -35 -167 -38c-12 -16 -25 -32 -37 -49c66 -4 108 -33 108 -86c0 -56 -59 -107 -191 -108c0 16 -1 32 -1 48
c72 7 114 25 114 55c0 32 -47 36 -94 36c-6 9 -10 16 -16 24l62 82c-159 14 -202 120 -202 247c0 114 43 261 247 261z" />
    <glyph glyph-name="egrave" unicode="&#xe8;" horiz-adv-x="532" 
d="M279 405c-66 0 -94 -54 -97 -107h184c-1 56 -19 107 -87 107zM279 502c190 0 215 -141 215 -239v-50h-314c-1 -82 30 -122 122 -122c52 0 100 11 151 31l30 -84c-64 -34 -137 -48 -203 -48c-195 0 -240 124 -240 254c0 108 49 258 239 258zM301 532l-174 140l72 77
l148 -169z" />
    <glyph glyph-name="eacute" unicode="&#xe9;" horiz-adv-x="532" 
d="M279 405c-66 0 -94 -54 -97 -107h184c-1 56 -19 107 -87 107zM279 502c190 0 215 -141 215 -239v-50h-314c-1 -82 30 -122 122 -122c52 0 100 11 151 31l30 -84c-64 -34 -137 -48 -203 -48c-195 0 -240 124 -240 254c0 108 49 258 239 258zM417 672l-174 -140l-46 48
l147 169z" />
    <glyph glyph-name="ecircumflex" unicode="&#xea;" horiz-adv-x="532" 
d="M279 405c-66 0 -94 -54 -97 -107h184c-1 56 -19 107 -87 107zM279 502c190 0 215 -141 215 -239v-50h-314c-1 -82 30 -122 122 -122c52 0 100 11 151 31l30 -84c-64 -34 -137 -48 -203 -48c-195 0 -240 124 -240 254c0 108 49 258 239 258zM480 571l-35 -41l-165 100
l-163 -100l-34 40l154 150h87z" />
    <glyph glyph-name="edieresis" unicode="&#xeb;" horiz-adv-x="532" 
d="M279 405c-66 0 -94 -54 -97 -107h184c-1 56 -19 107 -87 107zM279 502c190 0 215 -141 215 -239v-50h-314c-1 -82 30 -122 122 -122c52 0 100 11 151 31l30 -84c-64 -34 -137 -48 -203 -48c-195 0 -240 124 -240 254c0 108 49 258 239 258zM447 607
c0 -32 -26 -57 -61 -57c-32 0 -57 25 -57 57c0 33 26 58 57 58c35 0 61 -24 61 -58zM246 607c0 -32 -25 -57 -59 -57c-33 0 -58 25 -58 57c0 33 27 58 57 58c35 0 60 -24 60 -58z" />
    <glyph glyph-name="igrave" unicode="&#xec;" horiz-adv-x="345" 
d="M101 401h-54v90h192v-395h71v-83c-32 -14 -80 -22 -111 -22c-72 0 -97 28 -98 92v318zM187 532l-174 140l72 77l148 -169z" />
    <glyph glyph-name="iacute" unicode="&#xed;" horiz-adv-x="345" 
d="M101 401h-54v90h192v-395h71v-83c-32 -14 -80 -22 -111 -22c-72 0 -97 28 -98 92v318zM302 672l-174 -140l-46 48l147 169z" />
    <glyph glyph-name="icircumflex" unicode="&#xee;" horiz-adv-x="345" 
d="M101 401h-54v90h192v-395h71v-83c-32 -14 -80 -22 -111 -22c-72 0 -97 28 -98 92v318zM366 571l-35 -41l-165 100l-163 -100l-34 40l154 150h87z" />
    <glyph glyph-name="idieresis" unicode="&#xef;" horiz-adv-x="345" 
d="M101 401h-54v90h192v-395h71v-83c-32 -14 -80 -22 -111 -22c-72 0 -97 28 -98 92v318zM321 607c0 -32 -26 -57 -61 -57c-32 0 -57 25 -57 57c0 33 26 58 57 58c35 0 61 -24 61 -58zM120 607c0 -32 -25 -57 -59 -57c-33 0 -58 25 -58 57c0 33 27 58 57 58
c35 0 60 -24 60 -58z" />
    <glyph glyph-name="ntilde" unicode="&#xf1;" horiz-adv-x="645" 
d="M393 502c136 0 157 -96 157 -169v-238h70v-82c-33 -14 -79 -21 -111 -21c-101 0 -98 87 -98 105v209c0 62 -16 87 -72 87c-34 0 -79 -18 -110 -39v-354h-140v398h-66v92h204v-43c2 0 3 -1 5 -1c54 36 111 56 161 56zM382 576c-67 0 -132 39 -173 39l-56 -39l-41 31
c23 63 59 91 103 91c56 0 124 -37 172 -37l55 40l40 -31c-20 -59 -54 -94 -100 -94z" />
    <glyph glyph-name="ograve" unicode="&#xf2;" horiz-adv-x="574" 
d="M534 245c0 -136 -70 -254 -251 -254c-174 0 -243 113 -243 253c0 138 75 257 249 257c177 0 245 -119 245 -256zM391 244c0 76 -17 157 -100 157c-86 0 -108 -79 -108 -157c0 -84 17 -155 105 -155c84 0 103 76 103 155zM305 532l-174 140l72 77l148 -169z" />
    <glyph glyph-name="oacute" unicode="&#xf3;" horiz-adv-x="574" 
d="M534 245c0 -136 -70 -254 -251 -254c-174 0 -243 113 -243 253c0 138 75 257 249 257c177 0 245 -119 245 -256zM391 244c0 76 -17 157 -100 157c-86 0 -108 -79 -108 -157c0 -84 17 -155 105 -155c84 0 103 76 103 155zM432 672l-174 -140l-46 48l147 169z" />
    <glyph glyph-name="ocircumflex" unicode="&#xf4;" horiz-adv-x="574" 
d="M534 245c0 -136 -70 -254 -251 -254c-174 0 -243 113 -243 253c0 138 75 257 249 257c177 0 245 -119 245 -256zM391 244c0 76 -17 157 -100 157c-86 0 -108 -79 -108 -157c0 -84 17 -155 105 -155c84 0 103 76 103 155zM488 571l-35 -41l-165 100l-163 -100l-34 40
l154 150h87z" />
    <glyph glyph-name="otilde" unicode="&#xf5;" horiz-adv-x="574" 
d="M534 245c0 -136 -70 -254 -251 -254c-174 0 -243 113 -243 253c0 138 75 257 249 257c177 0 245 -119 245 -256zM391 244c0 76 -17 157 -100 157c-86 0 -108 -79 -108 -157c0 -84 17 -155 105 -155c84 0 103 76 103 155zM379 563c-67 0 -132 39 -173 39l-56 -39l-41 31
c23 63 59 91 103 91c56 0 124 -37 172 -37l55 40l40 -31c-20 -59 -54 -94 -100 -94z" />
    <glyph glyph-name="odieresis" unicode="&#xf6;" horiz-adv-x="574" 
d="M534 245c0 -136 -70 -254 -251 -254c-174 0 -243 113 -243 253c0 138 75 257 249 257c177 0 245 -119 245 -256zM391 244c0 76 -17 157 -100 157c-86 0 -108 -79 -108 -157c0 -84 17 -155 105 -155c84 0 103 76 103 155zM449 607c0 -32 -26 -57 -61 -57
c-32 0 -57 25 -57 57c0 33 26 58 57 58c35 0 61 -24 61 -58zM248 607c0 -32 -25 -57 -59 -57c-33 0 -58 25 -58 57c0 33 27 58 57 58c35 0 60 -24 60 -58z" />
    <glyph glyph-name="oslash" unicode="&#xf8;" horiz-adv-x="574" 
d="M288 500c65 0 115 -17 153 -45c13 15 26 29 38 45h56l-62 -71c42 -48 60 -114 60 -185c0 -136 -69 -252 -251 -252c-65 0 -116 14 -154 41c-11 -13 -23 -27 -35 -39c-19 0 -38 -1 -57 -1l60 68c-40 46 -56 111 -56 182c0 138 74 257 248 257zM389 243c0 27 -3 59 -13 83
c-56 -69 -110 -138 -166 -207c17 -19 41 -32 78 -32c84 0 101 76 101 156zM288 402c-79 0 -106 -74 -106 -148c0 -32 2 -63 13 -90l164 205c-15 20 -37 33 -71 33z" />
    <glyph glyph-name="ugrave" unicode="&#xf9;" horiz-adv-x="635" 
d="M242 -11c-117 0 -152 69 -152 159v249h-66v93h206v-313c0 -51 9 -78 64 -78c26 0 72 12 108 47v251h-57v93h197v-395h66v-82c-46 -16 -86 -21 -111 -21c-59 0 -83 19 -89 66c-55 -51 -116 -69 -166 -69zM328 532l-174 140l72 77l148 -169z" />
    <glyph glyph-name="uacute" unicode="&#xfa;" horiz-adv-x="635" 
d="M242 -11c-117 0 -152 69 -152 159v249h-66v93h206v-313c0 -51 9 -78 64 -78c26 0 72 12 108 47v251h-57v93h197v-395h66v-82c-46 -16 -86 -21 -111 -21c-59 0 -83 19 -89 66c-55 -51 -116 -69 -166 -69zM443 672l-174 -140l-46 48l147 169z" />
    <glyph glyph-name="ucircumflex" unicode="&#xfb;" horiz-adv-x="635" 
d="M242 -11c-117 0 -152 69 -152 159v249h-66v93h206v-313c0 -51 9 -78 64 -78c26 0 72 12 108 47v251h-57v93h197v-395h66v-82c-46 -16 -86 -21 -111 -21c-59 0 -83 19 -89 66c-55 -51 -116 -69 -166 -69zM508 571l-35 -41l-165 100l-163 -100l-34 40l154 150h87z" />
    <glyph glyph-name="udieresis" unicode="&#xfc;" horiz-adv-x="635" 
d="M242 -11c-117 0 -152 69 -152 159v249h-66v93h206v-313c0 -51 9 -78 64 -78c26 0 72 12 108 47v251h-57v93h197v-395h66v-82c-46 -16 -86 -21 -111 -21c-59 0 -83 19 -89 66c-55 -51 -116 -69 -166 -69zM464 607c0 -32 -26 -57 -61 -57c-32 0 -57 25 -57 57
c0 33 26 58 57 58c35 0 61 -24 61 -58zM263 607c0 -32 -25 -57 -59 -57c-33 0 -58 25 -58 57c0 33 27 58 57 58c35 0 60 -24 60 -58z" />
    <glyph glyph-name="yacute" unicode="&#xfd;" horiz-adv-x="597" 
d="M299 101c12 39 79 248 95 296h-54v93h234v-93h-47l-181 -508c-24 -67 -60 -104 -148 -104c-9 0 -68 0 -130 20l19 100c28 -5 52 -9 75 -9c44 0 59 13 69 38l30 77h-63c-43 126 -80 253 -123 380h-54v99h155c20 -64 105 -340 119 -389h4zM462 672l-174 -140l-46 48
l147 169z" />
    <glyph glyph-name="thorn" unicode="&#xfe;" horiz-adv-x="607" 
d="M15 -209v89h69v717h-70v90h206v-238c1 0 1 -1 2 -1c42 32 102 49 145 49c152 0 199 -109 199 -243c0 -153 -55 -264 -210 -264c-33 0 -93 10 -132 30v-140h72v-89h-281zM224 360v-243c23 -14 66 -28 100 -28c51 0 103 33 103 165c0 118 -45 144 -100 144
c-31 0 -80 -18 -103 -38z" />
    <glyph glyph-name="ydieresis" unicode="&#xff;" horiz-adv-x="597" 
d="M299 101c12 39 79 248 95 296h-54v93h234v-93h-47l-181 -508c-24 -67 -60 -104 -148 -104c-9 0 -68 0 -130 20l19 100c28 -5 52 -9 75 -9c44 0 59 13 69 38l30 77h-63c-43 126 -80 253 -123 380h-54v99h155c20 -64 105 -340 119 -389h4zM461 607c0 -32 -26 -57 -61 -57
c-32 0 -57 25 -57 57c0 33 26 58 57 58c35 0 61 -24 61 -58zM260 607c0 -32 -25 -57 -59 -57c-33 0 -58 25 -58 57c0 33 27 58 57 58c35 0 60 -24 60 -58z" />
    <glyph glyph-name="Amacron" unicode="&#x100;" horiz-adv-x="736" 
d="M453 94h63l-30 96h-245c-8 -25 -22 -65 -30 -96h65v-94h-256v94h55l208 593h177l201 -593h55v-94h-263v94zM200 748v91h353v-91h-353zM458 282l-75 239c-4 17 -10 34 -15 52h-3l-16 -53c-22 -67 -56 -170 -77 -238h186z" />
    <glyph glyph-name="amacron" unicode="&#x101;" horiz-adv-x="565" 
d="M339 222l-92 -9c-48 -5 -71 -32 -71 -65c0 -46 20 -68 69 -68c30 0 67 17 94 42v100zM472 330v-237h75l7 -75c-48 -21 -98 -26 -130 -26c-43 0 -75 10 -76 63c-1 0 -1 1 -2 1c-67 -64 -136 -66 -164 -66c-121 0 -150 85 -150 142c0 76 59 139 172 146l137 9v24
c0 57 -19 88 -90 88c-48 0 -106 -10 -150 -25c-8 28 -16 57 -23 86c57 25 138 39 207 39c116 0 187 -43 187 -169zM91 583v91h363v-91h-363z" />
    <glyph glyph-name="Abreve" unicode="&#x102;" horiz-adv-x="736" 
d="M453 94h63l-30 96h-245c-8 -25 -22 -65 -30 -96h65v-94h-256v94h55l208 593h177l201 -593h55v-94h-263v94zM368 737c-78 0 -137 59 -183 128l58 45c42 -57 92 -88 129 -88c24 0 68 2 151 82l39 -38c-63 -97 -136 -129 -194 -129zM458 282l-75 239c-4 17 -10 34 -15 52h-3
l-16 -53c-22 -67 -56 -170 -77 -238h186z" />
    <glyph glyph-name="abreve" unicode="&#x103;" horiz-adv-x="565" 
d="M339 222l-92 -9c-48 -5 -71 -32 -71 -65c0 -46 20 -68 69 -68c30 0 67 17 94 42v100zM472 330v-237h75l7 -75c-48 -21 -98 -26 -130 -26c-43 0 -75 10 -76 63c-1 0 -1 1 -2 1c-67 -64 -136 -66 -164 -66c-121 0 -150 85 -150 142c0 76 59 139 172 146l137 9v24
c0 57 -19 88 -90 88c-48 0 -106 -10 -150 -25c-8 28 -16 57 -23 86c57 25 138 39 207 39c116 0 187 -43 187 -169zM276 550c-78 0 -137 60 -183 129l58 45c42 -58 92 -87 128 -87c25 0 69 0 152 80l39 -38c-63 -97 -135 -129 -194 -129z" />
    <glyph glyph-name="Aogonek" unicode="&#x104;" horiz-adv-x="736" 
d="M453 94h63l-30 96h-245c-8 -25 -22 -65 -30 -96h65v-94h-256v94h55l208 593h177l201 -593h55v-94h-94c-27 -37 -46 -82 -47 -113c0 -35 19 -50 55 -50c27 0 55 7 77 13l9 -44c-36 -19 -79 -30 -119 -30c-69 0 -106 31 -106 81c0 35 15 90 74 143h-112v94zM458 282
l-75 239c-4 17 -10 34 -15 52h-3l-16 -53c-22 -67 -56 -170 -77 -238h186z" />
    <glyph glyph-name="aogonek" unicode="&#x105;" horiz-adv-x="565" 
d="M472 330v-237h75l7 -75c-31 -14 -62 -20 -89 -23c-23 -35 -39 -74 -40 -102c0 -35 19 -50 55 -50c27 0 55 7 77 13l9 -44c-36 -19 -79 -30 -119 -30c-69 0 -106 31 -106 81c0 33 12 81 60 130c-31 4 -52 18 -53 62c-1 0 -1 1 -2 1c-67 -64 -136 -66 -164 -66
c-121 0 -150 85 -150 142c0 76 59 139 172 146l137 9v24c0 57 -19 88 -90 88c-48 0 -106 -10 -150 -25c-8 28 -16 57 -23 86c57 25 138 39 207 39c116 0 187 -43 187 -169zM339 222l-92 -9c-48 -5 -71 -32 -71 -65c0 -46 20 -68 69 -68c30 0 67 17 94 42v100z" />
    <glyph glyph-name="Cacute" unicode="&#x106;" horiz-adv-x="623" 
d="M201 345c0 -162 52 -240 205 -240c33 0 109 6 160 21l22 -100c-57 -22 -145 -36 -215 -36c-251 0 -323 156 -323 352c0 161 63 359 333 359c73 0 133 -11 183 -28v-193h-101v103c-26 7 -55 9 -79 9c-134 0 -185 -98 -185 -247zM532 875l-174 -139l-47 48l148 169z" />
    <glyph glyph-name="cacute" unicode="&#x107;" horiz-adv-x="494" 
d="M287 501c54 0 110 -8 155 -25v-148h-94v66c-17 3 -33 5 -47 5c-84 0 -121 -56 -121 -155c0 -110 46 -152 122 -152c47 0 95 10 136 25l26 -88c-45 -23 -117 -38 -184 -38c-190 0 -240 113 -240 249c0 114 43 261 247 261zM404 672l-174 -140l-46 48l147 169z" />
    <glyph glyph-name="Ccircumflex" unicode="&#x108;" horiz-adv-x="623" 
d="M201 345c0 -162 52 -240 205 -240c33 0 109 6 160 21l22 -100c-57 -22 -145 -36 -215 -36c-251 0 -323 156 -323 352c0 161 63 359 333 359c73 0 133 -11 183 -28v-193h-101v103c-26 7 -55 9 -79 9c-134 0 -185 -98 -185 -247zM560 778l-36 -41l-164 99l-163 -100l-33 40
l153 147h87z" />
    <glyph glyph-name="ccircumflex" unicode="&#x109;" horiz-adv-x="494" 
d="M287 501c54 0 110 -8 155 -25v-148h-94v66c-17 3 -33 5 -47 5c-84 0 -121 -56 -121 -155c0 -110 46 -152 122 -152c47 0 95 10 136 25l26 -88c-45 -23 -117 -38 -184 -38c-190 0 -240 113 -240 249c0 114 43 261 247 261zM470 571l-35 -41l-165 100l-163 -100l-34 40
l154 150h87z" />
    <glyph glyph-name="Cdotaccent" unicode="&#x10a;" horiz-adv-x="623" 
d="M201 345c0 -162 52 -240 205 -240c33 0 109 6 160 21l22 -100c-57 -22 -145 -36 -215 -36c-251 0 -323 156 -323 352c0 161 63 359 333 359c73 0 133 -11 183 -28v-193h-101v103c-26 7 -55 9 -79 9c-134 0 -185 -98 -185 -247zM449 838c0 -47 -39 -85 -85 -85
c-47 0 -84 38 -84 85s37 85 84 85c46 0 85 -38 85 -85z" />
    <glyph glyph-name="cdotaccent" unicode="&#x10b;" horiz-adv-x="494" 
d="M287 501c54 0 110 -8 155 -25v-148h-94v66c-17 3 -33 5 -47 5c-84 0 -121 -56 -121 -155c0 -110 46 -152 122 -152c47 0 95 10 136 25l26 -88c-45 -23 -117 -38 -184 -38c-190 0 -240 113 -240 249c0 114 43 261 247 261zM361 638c0 -45 -35 -82 -76 -82
c-42 0 -75 37 -75 82c0 46 33 82 75 82c41 0 76 -36 76 -82z" />
    <glyph glyph-name="Ccaron" unicode="&#x10c;" horiz-adv-x="623" 
d="M201 345c0 -162 52 -240 205 -240c33 0 109 6 160 21l22 -100c-57 -22 -145 -36 -215 -36c-251 0 -323 156 -323 352c0 161 63 359 333 359c73 0 133 -11 183 -28v-193h-101v103c-26 7 -55 9 -79 9c-134 0 -185 -98 -185 -247zM524 927l35 -41l-156 -145h-86l-154 146
l33 39l164 -100z" />
    <glyph glyph-name="ccaron" unicode="&#x10d;" horiz-adv-x="494" 
d="M287 501c54 0 110 -8 155 -25v-148h-94v66c-17 3 -33 5 -47 5c-84 0 -121 -56 -121 -155c0 -110 46 -152 122 -152c47 0 95 10 136 25l26 -88c-45 -23 -117 -38 -184 -38c-190 0 -240 113 -240 249c0 114 43 261 247 261zM445 734l35 -41l-156 -149h-87l-154 150l34 40
l163 -100z" />
    <glyph glyph-name="Dcaron" unicode="&#x10e;" horiz-adv-x="729" 
d="M367 0h-324v95h72v496h-68v97h326c242 0 306 -158 306 -342c0 -185 -75 -346 -312 -346zM353 591h-93v-496h92c73 0 176 44 176 246c0 206 -94 250 -175 250zM488 927l35 -41l-156 -145h-86l-154 146l33 39l164 -100z" />
    <glyph glyph-name="dcaron" unicode="&#x10f;" horiz-adv-x="751" 
d="M592 682c0 34 30 63 71 63c49 0 73 -37 72 -77c-1 -62 -49 -123 -108 -151l-32 39c26 21 41 43 43 69c-31 6 -46 27 -46 57zM391 42l-2 1c-43 -34 -107 -52 -150 -52c-152 0 -199 110 -199 244c0 153 55 268 210 268c34 0 89 -7 133 -29v149h-74v93h213v-624h69v-92h-200
v42zM282 401c-51 0 -102 -27 -102 -164c0 -119 44 -145 100 -145c35 0 79 19 103 38v243c-23 14 -66 28 -101 28z" />
    <glyph glyph-name="dcroat" unicode="&#x111;" horiz-adv-x="610" 
d="M389 42l-2 2c-42 -35 -105 -53 -148 -53c-152 0 -199 105 -199 239c0 147 55 252 210 252c34 0 93 -11 133 -33v73h-132v53h132v56h-74v85h213v-141h67v-53h-67v-432h69v-90h-202v42zM282 383c-51 0 -104 -27 -102 -151c2 -119 44 -141 100 -141c30 0 79 19 103 37v226
c-23 15 -66 29 -101 29z" />
    <glyph glyph-name="Emacron" unicode="&#x112;" horiz-adv-x="649" 
d="M617 0h-574v96h69v496h-68v95h560v-202h-101v107h-247v-192l230 6v-99l-230 6v-217h259v112h102v-208zM178 748v91h353v-91h-353z" />
    <glyph glyph-name="emacron" unicode="&#x113;" horiz-adv-x="532" 
d="M279 405c-66 0 -94 -54 -97 -107h184c-1 56 -19 107 -87 107zM279 502c190 0 215 -141 215 -239v-50h-314c-1 -82 30 -122 122 -122c52 0 100 11 151 31l30 -84c-64 -34 -137 -48 -203 -48c-195 0 -240 124 -240 254c0 108 49 258 239 258zM96 583v91h363v-91h-363z" />
    <glyph glyph-name="Ebreve" unicode="&#x114;" horiz-adv-x="649" 
d="M617 0h-574v96h69v496h-68v95h560v-202h-101v107h-247v-192l230 6v-99l-230 6v-217h259v112h102v-208zM346 737c-78 0 -137 59 -183 128l58 45c42 -57 92 -88 129 -88c24 0 68 2 151 82l39 -38c-63 -97 -136 -129 -194 -129z" />
    <glyph glyph-name="ebreve" unicode="&#x115;" horiz-adv-x="532" 
d="M279 405c-66 0 -94 -54 -97 -107h184c-1 56 -19 107 -87 107zM279 502c190 0 215 -141 215 -239v-50h-314c-1 -82 30 -122 122 -122c52 0 100 11 151 31l30 -84c-64 -34 -137 -48 -203 -48c-195 0 -240 124 -240 254c0 108 49 258 239 258zM276 550
c-78 0 -137 60 -183 129l58 45c42 -58 92 -87 128 -87c25 0 69 0 152 80l39 -38c-63 -97 -135 -129 -194 -129z" />
    <glyph glyph-name="Edotaccent" unicode="&#x116;" horiz-adv-x="649" 
d="M617 0h-574v96h69v496h-68v95h560v-202h-101v107h-247v-192l230 6v-99l-230 6v-217h259v112h102v-208zM427 832c0 -47 -39 -85 -85 -85c-47 0 -84 38 -84 85s37 85 84 85c46 0 85 -38 85 -85z" />
    <glyph glyph-name="edotaccent" unicode="&#x117;" horiz-adv-x="532" 
d="M279 405c-66 0 -94 -54 -97 -107h184c-1 56 -19 107 -87 107zM279 502c190 0 215 -141 215 -239v-50h-314c-1 -82 30 -122 122 -122c52 0 100 11 151 31l30 -84c-64 -34 -137 -48 -203 -48c-195 0 -240 124 -240 254c0 108 49 258 239 258zM371 638
c0 -47 -39 -85 -85 -85c-47 0 -84 38 -84 85s37 85 84 85c46 0 85 -38 85 -85z" />
    <glyph glyph-name="Eogonek" unicode="&#x118;" horiz-adv-x="649" 
d="M617 0h-59c-26 -36 -44 -80 -45 -110c0 -35 19 -50 55 -50c27 0 55 7 77 13l9 -44c-36 -19 -79 -30 -119 -30c-69 0 -106 31 -106 81c0 35 14 88 70 140h-456v96h69v496h-68v95h560v-202h-101v107h-247v-192l230 6v-99l-230 6v-217h259v112h102v-208z" />
    <glyph glyph-name="eogonek" unicode="&#x119;" horiz-adv-x="532" 
d="M279 502c190 0 215 -141 215 -239v-50h-314c-1 -82 30 -122 122 -122c52 0 100 11 151 31l30 -84c-19 -10 -38 -19 -58 -25c-20 -32 -34 -67 -34 -93c0 -35 19 -50 55 -50c27 0 55 7 77 13l9 -44c-36 -19 -79 -30 -119 -30c-69 0 -106 31 -106 81c0 27 8 65 38 105
c-22 -3 -44 -5 -65 -5c-195 0 -240 124 -240 254c0 108 49 258 239 258zM279 405c-66 0 -94 -54 -97 -107h184c-1 56 -19 107 -87 107z" />
    <glyph glyph-name="Ecaron" unicode="&#x11a;" horiz-adv-x="649" 
d="M617 0h-574v96h69v496h-68v95h560v-202h-101v107h-247v-192l230 6v-99l-230 6v-217h259v112h102v-208zM519 927l35 -41l-156 -145h-86l-154 146l33 39l164 -100z" />
    <glyph glyph-name="ecaron" unicode="&#x11b;" horiz-adv-x="532" 
d="M279 405c-66 0 -94 -54 -97 -107h184c-1 56 -19 107 -87 107zM279 502c190 0 215 -141 215 -239v-50h-314c-1 -82 30 -122 122 -122c52 0 100 11 151 31l30 -84c-64 -34 -137 -48 -203 -48c-195 0 -240 124 -240 254c0 108 49 258 239 258zM435 734l35 -41l-156 -149h-87
l-154 150l34 40l163 -100z" />
    <glyph glyph-name="Gcircumflex" unicode="&#x11c;" horiz-adv-x="689" 
d="M394 701c73 0 142 -11 192 -28v-189h-101v98c-23 6 -56 10 -85 10c-141 0 -199 -98 -199 -247c0 -152 44 -242 179 -242c28 0 69 4 95 11v162h-89v89h268v-89h-49v-249c-76 -26 -160 -37 -232 -37c-250 0 -323 159 -323 352c0 159 62 359 344 359zM581 778l-36 -41
l-164 99l-163 -100l-33 40l153 147h87z" />
    <glyph glyph-name="gcircumflex" unicode="&#x11d;" horiz-adv-x="576" 
d="M482 422l-4 -3c18 -23 29 -63 29 -94c0 -112 -100 -170 -225 -172h-57c-41 0 -62 -8 -62 -32c0 -17 14 -27 40 -27h140c122 0 200 -44 200 -144c0 -89 -78 -168 -284 -168c-178 0 -228 63 -228 131c0 54 30 96 64 115c-37 9 -57 37 -57 75c0 50 41 76 83 89
c-38 17 -70 59 -70 128c0 130 112 182 225 182c38 0 76 -5 103 -12h174v-68h-71zM314 10h-102c-23 -9 -44 -38 -44 -64c0 -35 23 -67 111 -67c76 0 120 28 120 68c0 32 -23 63 -85 63zM367 326c0 36 -22 83 -89 83c-57 0 -87 -35 -87 -84c0 -50 29 -80 81 -80
c54 0 95 27 95 81zM476 571l-35 -41l-165 100l-163 -100l-34 40l154 150h87z" />
    <glyph glyph-name="Gbreve" unicode="&#x11e;" horiz-adv-x="689" 
d="M394 701c73 0 142 -11 192 -28v-189h-101v98c-23 6 -56 10 -85 10c-141 0 -199 -98 -199 -247c0 -152 44 -242 179 -242c28 0 69 4 95 11v162h-89v89h268v-89h-49v-249c-76 -26 -160 -37 -232 -37c-250 0 -323 159 -323 352c0 159 62 359 344 359zM369 737
c-78 0 -137 59 -183 128l58 45c42 -57 92 -88 129 -88c24 0 68 2 151 82l39 -38c-63 -97 -136 -129 -194 -129z" />
    <glyph glyph-name="gbreve" unicode="&#x11f;" horiz-adv-x="576" 
d="M482 422l-4 -3c18 -23 29 -63 29 -94c0 -112 -100 -170 -225 -172h-57c-41 0 -62 -8 -62 -32c0 -17 14 -27 40 -27h140c122 0 200 -44 200 -144c0 -89 -78 -168 -284 -168c-178 0 -228 63 -228 131c0 54 30 96 64 115c-37 9 -57 37 -57 75c0 50 41 76 83 89
c-38 17 -70 59 -70 128c0 130 112 182 225 182c38 0 76 -5 103 -12h174v-68h-71zM314 10h-102c-23 -9 -44 -38 -44 -64c0 -35 23 -67 111 -67c76 0 120 28 120 68c0 32 -23 63 -85 63zM367 326c0 36 -22 83 -89 83c-57 0 -87 -35 -87 -84c0 -50 29 -80 81 -80
c54 0 95 27 95 81zM274 550c-78 0 -137 60 -183 129l58 45c42 -58 92 -87 128 -87c25 0 69 0 152 80l39 -38c-63 -97 -135 -129 -194 -129z" />
    <glyph glyph-name="Gdotaccent" unicode="&#x120;" horiz-adv-x="689" 
d="M394 701c73 0 142 -11 192 -28v-189h-101v98c-23 6 -56 10 -85 10c-141 0 -199 -98 -199 -247c0 -152 44 -242 179 -242c28 0 69 4 95 11v162h-89v89h268v-89h-49v-249c-76 -26 -160 -37 -232 -37c-250 0 -323 159 -323 352c0 159 62 359 344 359zM481 834
c0 -47 -39 -85 -85 -85c-47 0 -84 38 -84 85s37 85 84 85c46 0 85 -38 85 -85z" />
    <glyph glyph-name="gdotaccent" unicode="&#x121;" horiz-adv-x="576" 
d="M482 422l-4 -3c18 -23 29 -63 29 -94c0 -112 -100 -170 -225 -172h-57c-41 0 -62 -8 -62 -32c0 -17 14 -27 40 -27h140c122 0 200 -44 200 -144c0 -89 -78 -168 -284 -168c-178 0 -228 63 -228 131c0 54 30 96 64 115c-37 9 -57 37 -57 75c0 50 41 76 83 89
c-38 17 -70 59 -70 128c0 130 112 182 225 182c38 0 76 -5 103 -12h174v-68h-71zM314 10h-102c-23 -9 -44 -38 -44 -64c0 -35 23 -67 111 -67c76 0 120 28 120 68c0 32 -23 63 -85 63zM367 326c0 36 -22 83 -89 83c-57 0 -87 -35 -87 -84c0 -50 29 -80 81 -80
c54 0 95 27 95 81zM380 638c0 -47 -39 -85 -85 -85c-47 0 -84 38 -84 85s37 85 84 85c46 0 85 -38 85 -85z" />
    <glyph glyph-name="Gcommaaccent" unicode="&#x122;" horiz-adv-x="689" 
d="M394 701c73 0 142 -11 192 -28v-189h-101v98c-23 6 -56 10 -85 10c-141 0 -199 -98 -199 -247c0 -152 44 -242 179 -242c28 0 69 4 95 11v162h-89v89h268v-89h-49v-249c-76 -26 -160 -37 -232 -37c-250 0 -323 159 -323 352c0 159 62 359 344 359zM307 -104
c0 34 30 63 71 63c49 0 73 -37 72 -77c-1 -62 -49 -123 -108 -151l-32 39c26 21 41 43 43 69c-31 6 -46 27 -46 57z" />
    <glyph glyph-name="gcommaaccent" unicode="&#x123;" horiz-adv-x="576" 
d="M482 422l-4 -3c18 -23 29 -63 29 -94c0 -112 -100 -170 -225 -172h-57c-41 0 -62 -8 -62 -32c0 -17 14 -27 40 -27h140c122 0 200 -44 200 -144c0 -89 -78 -168 -284 -168c-178 0 -228 63 -228 131c0 54 30 96 64 115c-37 9 -57 37 -57 75c0 50 41 76 83 89
c-38 17 -70 59 -70 128c0 130 112 182 225 182c38 0 76 -5 103 -12h174v-68h-71zM314 10h-102c-23 -9 -44 -38 -44 -64c0 -35 23 -67 111 -67c76 0 120 28 120 68c0 32 -23 63 -85 63zM372 611c0 -35 -31 -65 -76 -65c-51 0 -76 37 -76 79v1c1 66 53 126 115 157l33 -41
c-27 -23 -42 -43 -44 -70c31 -6 48 -29 48 -61zM367 326c0 36 -22 83 -89 83c-57 0 -87 -35 -87 -84c0 -50 29 -80 81 -80c54 0 95 27 95 81z" />
    <glyph glyph-name="Hcircumflex" unicode="&#x124;" horiz-adv-x="786" 
d="M743 0h-275v95h62v217h-275v-217h63v-95h-276v95h70v497h-70v95h276v-95h-63v-190h275v190h-62v95h275v-95h-69v-497h69v-95zM586 778l-36 -41l-164 99l-163 -100l-33 40l153 147h87z" />
    <glyph glyph-name="hcircumflex" unicode="&#x125;" horiz-adv-x="640" 
d="M225 0h-139v623h-66v92h205v-269c54 36 114 56 164 56c136 0 158 -96 158 -169v-238h70v-82c-33 -14 -80 -21 -111 -21c-91 0 -98 64 -98 99v215c0 62 -16 87 -72 87c-34 0 -79 -18 -111 -39v-354zM344 778l-36 -41l-164 99l-163 -100l-33 40l153 147h87z" />
    <glyph glyph-name="Hbar" unicode="&#x126;" horiz-adv-x="786" 
d="M743 0h-275v94h62v213h-275v-213h63v-94h-276v94h70v364h-71v57h71v79h-70v93h276v-93h-63v-79h275v79h-62v93h275v-93h-69v-79h69v-57h-69v-364h69v-94zM255 384h275v74h-275v-74z" />
    <glyph glyph-name="hbar" unicode="&#x127;" horiz-adv-x="640" 
d="M86 507h-62v57h62v69h-66v83h207v-152h166v-57h-166v-102c52 36 114 56 164 56c128 0 158 -77 158 -168v-197h66v-83c-34 -14 -76 -22 -108 -22c-71 0 -97 28 -97 92v180c0 58 -13 89 -73 89c-33 0 -79 -17 -110 -37v-315h-141v507z" />
    <glyph glyph-name="Itilde" unicode="&#x128;" horiz-adv-x="419" 
d="M349 0h-279v95h68v497h-68v96h279v-96h-68v-497h68v-95zM295 750c-67 0 -132 39 -173 39l-56 -39l-41 31c23 63 59 91 103 91c56 0 124 -37 172 -37l55 40l40 -31c-20 -59 -54 -94 -100 -94z" />
    <glyph glyph-name="itilde" unicode="&#x129;" horiz-adv-x="357" 
d="M101 401h-54v90h192v-395h71v-83c-32 -14 -80 -22 -111 -22c-72 0 -97 28 -98 92v318zM242 572c-67 0 -132 39 -173 39l-56 -39l-41 31c23 63 59 91 103 91c56 0 124 -37 172 -37l55 40l40 -31c-20 -59 -54 -94 -100 -94z" />
    <glyph glyph-name="Imacron" unicode="&#x12a;" horiz-adv-x="419" 
d="M349 0h-279v95h68v497h-68v96h279v-96h-68v-497h68v-95zM34 748v91h353v-91h-353z" />
    <glyph glyph-name="imacron" unicode="&#x12b;" horiz-adv-x="360" 
d="M101 401h-54v90h192v-395h71v-83c-32 -14 -80 -22 -111 -22c-72 0 -97 28 -98 92v318zM-28 583v91h363v-91h-363z" />
    <glyph glyph-name="Ibreve" unicode="&#x12c;" horiz-adv-x="419" 
d="M208 740c-78 0 -137 59 -183 128l58 45c42 -57 92 -88 129 -88c24 0 68 2 151 82l39 -38c-63 -97 -136 -129 -194 -129zM349 0h-279v95h68v497h-68v96h279v-96h-68v-497h68v-95z" />
    <glyph glyph-name="ibreve" unicode="&#x12d;" horiz-adv-x="387" 
d="M117 401h-54v90h192v-395h71v-83c-32 -14 -80 -22 -111 -22c-72 0 -97 28 -98 92v318zM173 550c-78 0 -137 60 -183 129l58 45c42 -58 92 -87 128 -87c25 0 69 0 152 80l39 -38c-63 -97 -135 -129 -194 -129z" />
    <glyph glyph-name="Iogonek" unicode="&#x12e;" horiz-adv-x="419" 
d="M349 0h-121c-26 -36 -44 -79 -45 -109c0 -35 19 -50 55 -50c27 0 55 7 77 13l9 -44c-36 -19 -79 -30 -119 -30c-69 0 -106 31 -106 81c0 34 14 87 69 139h-98v95h68v497h-68v96h279v-96h-68v-497h68v-95z" />
    <glyph glyph-name="iogonek" unicode="&#x12f;" horiz-adv-x="345" 
d="M100 397h-50v93h189v-394h71v-83c-19 -8 -43 -14 -65 -18c-22 -33 -37 -70 -37 -97c0 -35 19 -50 55 -50c27 0 55 7 77 13l9 -44c-36 -19 -79 -30 -119 -30c-69 0 -106 31 -106 81c0 31 11 77 54 124c-56 5 -77 33 -78 91v314zM249 636c0 -45 -38 -83 -83 -83
c-46 0 -82 38 -82 83c0 46 36 83 82 83c45 0 83 -37 83 -83z" />
    <glyph glyph-name="Idotaccent" unicode="&#x130;" horiz-adv-x="419" 
d="M349 0h-279v95h68v497h-68v96h279v-96h-68v-497h68v-95zM302 830c0 -47 -39 -85 -85 -85c-47 0 -84 38 -84 85s37 85 84 85c46 0 85 -38 85 -85z" />
    <glyph glyph-name="dotlessi" unicode="&#x131;" horiz-adv-x="345" 
d="M101 401h-54v90h192v-395h71v-83c-32 -14 -80 -22 -111 -22c-72 0 -97 28 -98 92v318z" />
    <glyph glyph-name="IJ" unicode="&#x132;" horiz-adv-x="841" 
d="M349 0h-279v95h68v497h-68v96h279v-96h-68v-497h68v-95zM474 592v96h312v-96h-79v-432c0 -189 -101 -296 -289 -341l-34 97c157 71 180 126 180 248v428h-90z" />
    <glyph glyph-name="ij" unicode="&#x133;" horiz-adv-x="672" 
d="M100 397h-50v93h189v-394h71v-83c-32 -14 -80 -22 -111 -22c-72 0 -98 28 -99 92v314zM249 636c0 -45 -38 -83 -83 -83c-46 0 -82 38 -82 83c0 46 36 83 82 83c45 0 83 -37 83 -83zM383 397v93h201v-432c0 -165 -61 -243 -226 -291l-38 86c109 64 124 103 124 200v344
h-61zM594 636c0 -45 -39 -83 -83 -83c-46 0 -83 38 -83 83c0 46 37 83 83 83c44 0 83 -37 83 -83z" />
    <glyph glyph-name="Jcircumflex" unicode="&#x134;" horiz-adv-x="438" 
d="M71 593v96h312v-96h-79v-432c0 -189 -101 -296 -289 -341l-34 97c157 71 180 126 180 248v428h-90zM431 778l-36 -41l-164 99l-163 -100l-33 40l153 147h87z" />
    <glyph glyph-name="jcircumflex" unicode="&#x135;" horiz-adv-x="377" 
d="M69 401v90h201v-436c0 -165 -60 -237 -226 -281l-34 85c104 59 120 88 120 189v353h-61zM377 576l-35 -42l-165 101l-163 -100l-34 40l154 149h87z" />
    <glyph glyph-name="Kcommaaccent" unicode="&#x136;" horiz-adv-x="722" 
d="M623 594l-194 -176l218 -323h57v-95h-277l-1 95h59l-159 238l-75 -69v-170h62v-94h-270v94h69v500h-69v93h273v-93h-65v-209l225 209h-59v93h266v-93h-60zM304 -104c0 34 30 63 71 63c49 0 73 -37 72 -77c-1 -62 -49 -123 -108 -151l-32 39c26 21 41 43 43 69
c-31 6 -46 27 -46 57z" />
    <glyph glyph-name="kcommaaccent" unicode="&#x137;" horiz-adv-x="595" 
d="M300 399v91h254v-92h-63l-110 -93l128 -214c22 -3 45 -8 67 -11v-76c-31 -10 -73 -15 -95 -15c-34 0 -61 2 -82 39l-117 204l-51 -43v-98h55v-91h-259v91h65v531h-70v91h209v-410l117 96h-48zM262 -104c0 34 30 63 71 63c49 0 73 -37 72 -77c-1 -62 -49 -123 -108 -151
l-32 39c26 21 41 43 43 69c-31 6 -46 27 -46 57z" />
    <glyph glyph-name="kgreenlandic" unicode="&#x138;" horiz-adv-x="593" 
d="M300 399v91h254v-92h-63l-110 -93l128 -214c22 -3 45 -8 67 -11v-76c-31 -10 -73 -15 -95 -15c-34 0 -61 2 -82 39l-117 204l-51 -43v-98h55v-91h-259v91h65v310h-70v91h209v-189l117 96h-48z" />
    <glyph glyph-name="Lacute" unicode="&#x139;" horiz-adv-x="629" 
d="M618 0h-575v95h70v497h-69v95h285v-95h-72v-497h258v125h103v-220zM370 875l-174 -139l-47 48l148 169z" />
    <glyph glyph-name="lacute" unicode="&#x13a;" horiz-adv-x="349" 
d="M248 713v-621h66v-92h-271v92h65v528h-70v93h210zM342 885l-174 -139l-47 48l148 169z" />
    <glyph glyph-name="Lcommaaccent" unicode="&#x13b;" horiz-adv-x="629" 
d="M618 0h-575v95h70v497h-69v95h285v-95h-72v-497h258v125h103v-220zM246 -104c0 34 30 63 71 63c49 0 73 -37 72 -77c-1 -62 -49 -123 -108 -151l-32 39c26 21 41 43 43 69c-31 6 -46 27 -46 57z" />
    <glyph glyph-name="lcommaaccent" unicode="&#x13c;" horiz-adv-x="349" 
d="M248 713v-621h66v-92h-271v92h65v528h-70v93h210zM116 -104c0 34 30 63 71 63c49 0 73 -37 72 -77c-1 -62 -49 -123 -108 -151l-32 39c26 21 41 43 43 69c-31 6 -46 27 -46 57z" />
    <glyph glyph-name="Lcaron" unicode="&#x13d;" horiz-adv-x="629" 
d="M618 0h-575v95h70v497h-69v95h285v-95h-72v-497h258v125h103v-220zM454 626c0 34 30 63 71 63c49 0 73 -37 72 -77c-1 -62 -49 -123 -108 -151l-32 39c26 21 41 43 43 69c-31 6 -46 27 -46 57z" />
    <glyph glyph-name="lcaron" unicode="&#x13e;" horiz-adv-x="471" 
d="M315 661c0 34 30 63 71 63c49 0 73 -37 72 -77c-1 -62 -49 -123 -108 -151l-32 39c26 21 41 43 43 69c-31 6 -46 27 -46 57zM248 713v-621h66v-92h-271v92h65v528h-70v93h210z" />
    <glyph glyph-name="Ldot" unicode="&#x13f;" horiz-adv-x="629" 
d="M618 0h-575v95h70v497h-69v95h285v-95h-72v-497h258v125h103v-220zM566 415c0 -47 -39 -85 -85 -85c-47 0 -84 38 -84 85s37 85 84 85c46 0 85 -38 85 -85z" />
    <glyph glyph-name="ldot" unicode="&#x140;" horiz-adv-x="486" 
d="M477 371c0 -47 -39 -85 -85 -85c-47 0 -84 38 -84 85s37 85 84 85c46 0 85 -38 85 -85zM248 713v-621h66v-92h-271v92h65v528h-70v93h210z" />
    <glyph glyph-name="Lslash" unicode="&#x141;" horiz-adv-x="624" 
d="M609 0h-566v94h70v131l-58 -33l-34 54l92 54v294h-69v93h285v-93h-72v-212l103 59l34 -53l-137 -79v-215h250v126h102v-220z" />
    <glyph glyph-name="lslash" unicode="&#x142;" horiz-adv-x="349" 
d="M246 357v-268h67v-89h-270v89h65v188l-74 -43c-12 18 -23 37 -34 54l108 61v276h-72v90h210v-285c27 16 55 31 81 46c12 -18 22 -36 33 -53c-38 -22 -76 -45 -114 -66z" />
    <glyph glyph-name="Nacute" unicode="&#x143;" horiz-adv-x="814" 
d="M565 207h5v385h-68v95h268v-95h-66v-592h-140c-89 138 -180 275 -268 414c-17 28 -34 56 -52 84c-1 0 -1 -1 -2 -1v-403h68v-94h-270v94h69c0 166 1 331 1 498h-69v95h222c97 -156 158 -246 244 -387c20 -31 39 -61 58 -93zM575 875l-174 -139l-47 48l148 169z" />
    <glyph glyph-name="nacute" unicode="&#x144;" horiz-adv-x="645" 
d="M393 502c136 0 157 -96 157 -169v-238h70v-82c-33 -14 -79 -21 -111 -21c-101 0 -98 87 -98 105v209c0 62 -16 87 -72 87c-34 0 -79 -18 -110 -39v-354h-140v398h-66v92h204v-43c2 0 3 -1 5 -1c54 36 111 56 161 56zM425 672l-174 -140l-46 48l147 169z" />
    <glyph glyph-name="Ncommaaccent" unicode="&#x145;" horiz-adv-x="814" 
d="M565 207h5v385h-68v95h268v-95h-66v-592h-140c-89 138 -180 275 -268 414c-17 28 -34 56 -52 84c-1 0 -1 -1 -2 -1v-403h68v-94h-270v94h69c0 166 1 331 1 498h-69v95h222c97 -156 158 -246 244 -387c20 -31 39 -61 58 -93zM346 -104c0 34 30 63 71 63
c49 0 73 -37 72 -77c-1 -62 -49 -123 -108 -151l-32 39c26 21 41 43 43 69c-31 6 -46 27 -46 57z" />
    <glyph glyph-name="ncommaaccent" unicode="&#x146;" horiz-adv-x="645" 
d="M393 502c136 0 157 -96 157 -169v-238h70v-82c-33 -14 -79 -21 -111 -21c-101 0 -98 87 -98 105v209c0 62 -16 87 -72 87c-34 0 -79 -18 -110 -39v-354h-140v398h-66v92h204v-43c2 0 3 -1 5 -1c54 36 111 56 161 56zM268 -104c0 34 30 63 71 63c49 0 73 -37 72 -77
c-1 -62 -49 -123 -108 -151l-32 39c26 21 41 43 43 69c-31 6 -46 27 -46 57z" />
    <glyph glyph-name="Ncaron" unicode="&#x147;" horiz-adv-x="814" 
d="M565 207h5v385h-68v95h268v-95h-66v-592h-140c-89 138 -180 275 -268 414c-17 28 -34 56 -52 84c-1 0 -1 -1 -2 -1v-403h68v-94h-270v94h69c0 166 1 331 1 498h-69v95h222c97 -156 158 -246 244 -387c20 -31 39 -61 58 -93zM561 927l35 -41l-156 -145h-86l-154 146l33 39
l164 -100z" />
    <glyph glyph-name="ncaron" unicode="&#x148;" horiz-adv-x="645" 
d="M393 502c136 0 157 -96 157 -169v-238h70v-82c-33 -14 -79 -21 -111 -21c-101 0 -98 87 -98 105v209c0 62 -16 87 -72 87c-34 0 -79 -18 -110 -39v-354h-140v398h-66v92h204v-43c2 0 3 -1 5 -1c54 36 111 56 161 56zM460 734l35 -41l-156 -149h-87l-154 150l34 40
l163 -100z" />
    <glyph glyph-name="napostrophe" unicode="&#x149;" horiz-adv-x="781" 
d="M529 502c136 0 157 -96 157 -169v-238h70v-82c-33 -14 -79 -21 -111 -21c-101 0 -98 87 -98 105v209c0 62 -16 87 -72 87c-34 0 -79 -18 -110 -39v-354h-140v398h-66v92h204v-43c2 0 3 -1 5 -1c54 36 111 56 161 56zM-3 630c0 34 30 63 71 63c49 0 73 -37 72 -77
c-1 -62 -49 -123 -108 -151l-32 39c26 21 41 43 43 69c-31 6 -46 27 -46 57z" />
    <glyph glyph-name="Eng" unicode="&#x14a;" horiz-adv-x="814" 
d="M423 -104c21 -2 45 -4 83 -4c35 0 68 9 68 70v38c-47 70 -142 219 -234 358c-13 20 -84 129 -96 146h-2v-411h69v-93h-270v93h69v500h-69v94h215c61 -89 262 -397 309 -477h5v383h-68v94h268v-94h-66v-590c0 -118 -17 -215 -192 -215c-29 0 -72 5 -101 12z" />
    <glyph glyph-name="eng" unicode="&#x14b;" horiz-adv-x="613" 
d="M553 334v-286c0 -131 -11 -231 -193 -231c-28 0 -74 4 -103 11l12 99c20 -1 41 -3 60 -3c48 0 85 12 85 75v305c0 60 -17 91 -73 91c-34 0 -79 -19 -110 -39v-356h-141v401h-66v90h204v-42c1 -1 3 -2 4 -2c52 35 114 55 162 55c129 0 159 -76 159 -168z" />
    <glyph glyph-name="Omacron" unicode="&#x14c;" horiz-adv-x="740" 
d="M690 344c0 -202 -107 -354 -317 -354c-225 0 -323 142 -323 352c0 197 95 358 323 358c230 0 317 -162 317 -356zM538 342c0 128 -29 255 -165 255c-137 0 -172 -123 -172 -256c0 -159 48 -248 172 -248c117 0 165 106 165 249zM200 748v91h353v-91h-353z" />
    <glyph glyph-name="omacron" unicode="&#x14d;" horiz-adv-x="574" 
d="M534 245c0 -136 -70 -254 -251 -254c-174 0 -243 113 -243 253c0 138 75 257 249 257c177 0 245 -119 245 -256zM391 244c0 76 -17 157 -100 157c-86 0 -108 -79 -108 -157c0 -84 17 -155 105 -155c84 0 103 76 103 155zM104 583v91h363v-91h-363z" />
    <glyph glyph-name="Obreve" unicode="&#x14e;" horiz-adv-x="740" 
d="M690 344c0 -202 -107 -354 -317 -354c-225 0 -323 142 -323 352c0 197 95 358 323 358c230 0 317 -162 317 -356zM538 342c0 128 -29 255 -165 255c-137 0 -172 -123 -172 -256c0 -159 48 -248 172 -248c117 0 165 106 165 249zM367 737c-78 0 -137 59 -183 128l58 45
c42 -57 92 -88 129 -88c24 0 68 2 151 82l39 -38c-63 -97 -136 -129 -194 -129z" />
    <glyph glyph-name="obreve" unicode="&#x14f;" horiz-adv-x="574" 
d="M534 245c0 -136 -70 -254 -251 -254c-174 0 -243 113 -243 253c0 138 75 257 249 257c177 0 245 -119 245 -256zM391 244c0 76 -17 157 -100 157c-86 0 -108 -79 -108 -157c0 -84 17 -155 105 -155c84 0 103 76 103 155zM284 550c-78 0 -137 60 -183 129l58 45
c42 -58 92 -87 128 -87c25 0 69 0 152 80l39 -38c-63 -97 -135 -129 -194 -129z" />
    <glyph glyph-name="Ohungarumlaut" unicode="&#x150;" horiz-adv-x="740" 
d="M690 344c0 -202 -107 -354 -317 -354c-225 0 -323 142 -323 352c0 197 95 358 323 358c230 0 317 -162 317 -356zM538 342c0 128 -29 255 -165 255c-137 0 -172 -123 -172 -256c0 -159 48 -248 172 -248c117 0 165 106 165 249zM472 897l-159 -159l-53 41l130 185z
M628 897l-160 -159l-52 41l129 185z" />
    <glyph glyph-name="ohungarumlaut" unicode="&#x151;" horiz-adv-x="574" 
d="M534 245c0 -136 -70 -254 -251 -254c-174 0 -243 113 -243 253c0 138 75 257 249 257c177 0 245 -119 245 -256zM391 244c0 76 -17 157 -100 157c-86 0 -108 -79 -108 -157c0 -84 17 -155 105 -155c84 0 103 76 103 155zM351 690l-161 -159l-52 41l130 185zM509 690
l-161 -159l-51 41l129 185z" />
    <glyph glyph-name="Racute" unicode="&#x154;" horiz-adv-x="688" 
d="M463 488c0 75 -49 104 -108 104h-103v-215h100c53 0 111 22 111 111zM363 285h-111v-189h73v-96h-280v96h65v496h-65v96h340c157 0 229 -81 229 -201c0 -63 -30 -148 -118 -178l100 -217l77 -10v-78c-32 -12 -85 -17 -110 -17c-57 0 -80 25 -101 73zM470 875l-174 -139
l-47 48l148 169z" />
    <glyph glyph-name="racute" unicode="&#x155;" horiz-adv-x="458" 
d="M235 419l4 -1c42 35 118 84 182 84c24 0 33 -12 33 -42c0 -32 -13 -85 -41 -114l-176 10v-264h68v-92h-271v92h64v306h-61v93h198v-72zM360 672l-174 -140l-46 48l147 169z" />
    <glyph glyph-name="Rcommaaccent" unicode="&#x156;" horiz-adv-x="688" 
d="M463 488c0 75 -49 104 -108 104h-103v-215h100c53 0 111 22 111 111zM363 285h-111v-189h73v-96h-280v96h65v496h-65v96h340c157 0 229 -81 229 -201c0 -63 -30 -148 -118 -178l100 -217l77 -10v-78c-32 -12 -85 -17 -110 -17c-57 0 -80 25 -101 73zM271 -104
c0 34 30 63 71 63c49 0 73 -37 72 -77c-1 -62 -49 -123 -108 -151l-32 39c26 21 41 43 43 69c-31 6 -46 27 -46 57z" />
    <glyph glyph-name="rcommaaccent" unicode="&#x157;" horiz-adv-x="458" 
d="M235 419l4 -1c42 35 118 84 182 84c24 0 33 -12 33 -42c0 -32 -13 -85 -41 -114l-176 10v-264h68v-92h-271v92h64v306h-61v93h198v-72zM106 -104c0 34 30 63 71 63c49 0 73 -37 72 -77c-1 -62 -49 -123 -108 -151l-32 39c26 21 41 43 43 69c-31 6 -46 27 -46 57z" />
    <glyph glyph-name="Rcaron" unicode="&#x158;" horiz-adv-x="688" 
d="M463 488c0 75 -49 104 -108 104h-103v-215h100c53 0 111 22 111 111zM363 285h-111v-189h73v-96h-280v96h65v496h-65v96h340c157 0 229 -81 229 -201c0 -63 -30 -148 -118 -178l100 -217l77 -10v-78c-32 -12 -85 -17 -110 -17c-57 0 -80 25 -101 73zM492 927l35 -41
l-156 -145h-86l-154 146l33 39l164 -100z" />
    <glyph glyph-name="rcaron" unicode="&#x159;" horiz-adv-x="458" 
d="M235 419l4 -1c42 35 118 84 182 84c24 0 33 -12 33 -42c0 -32 -13 -85 -41 -114l-176 10v-264h68v-92h-271v92h64v306h-61v93h198v-72zM376 734l35 -41l-156 -149h-87l-154 150l34 40l163 -100z" />
    <glyph glyph-name="Sacute" unicode="&#x15a;" horiz-adv-x="614" 
d="M41 199h101c0 -26 1 -50 1 -76c45 -20 99 -26 137 -26c103 0 136 47 136 93c0 64 -61 83 -146 105c-130 33 -225 78 -225 194c0 133 107 208 260 208c66 0 154 -11 217 -44c0 -52 1 -103 1 -155h-102c0 26 -1 52 -1 78c-29 12 -78 17 -110 17c-80 0 -116 -37 -116 -89
c0 -55 53 -75 148 -100c116 -31 232 -67 232 -206c0 -142 -111 -208 -285 -208c-81 0 -172 12 -247 48c0 53 -1 107 -1 161zM468 873l-174 -139l-47 48l148 169z" />
    <glyph glyph-name="sacute" unicode="&#x15b;" horiz-adv-x="499" 
d="M32 158h96l2 -58c23 -11 66 -17 95 -17c50 0 94 16 94 51c0 41 -40 54 -82 65c-96 27 -200 51 -200 149c0 105 82 153 211 153c60 0 128 -12 177 -38c0 -41 0 -82 1 -124h-97l-1 56c-20 8 -48 12 -71 12c-45 0 -78 -18 -78 -51c0 -32 48 -43 81 -52
c81 -22 202 -43 202 -170c0 -96 -83 -143 -228 -143c-57 0 -139 8 -201 39c0 41 0 87 -1 128zM371 672l-174 -140l-46 48l147 169z" />
    <glyph glyph-name="Scircumflex" unicode="&#x15c;" horiz-adv-x="614" 
d="M41 199h101c0 -26 1 -50 1 -76c45 -20 99 -26 137 -26c103 0 136 47 136 93c0 64 -61 83 -146 105c-130 33 -225 78 -225 194c0 133 107 208 260 208c66 0 154 -11 217 -44c0 -52 1 -103 1 -155h-102c0 26 -1 52 -1 78c-29 12 -78 17 -110 17c-80 0 -116 -37 -116 -89
c0 -55 53 -75 148 -100c116 -31 232 -67 232 -206c0 -142 -111 -208 -285 -208c-81 0 -172 12 -247 48c0 53 -1 107 -1 161zM511 778l-36 -41l-164 99l-163 -100l-33 40l153 147h87z" />
    <glyph glyph-name="scircumflex" unicode="&#x15d;" horiz-adv-x="499" 
d="M32 158h96l2 -58c23 -11 66 -17 95 -17c50 0 94 16 94 51c0 41 -40 54 -82 65c-96 27 -200 51 -200 149c0 105 82 153 211 153c60 0 128 -12 177 -38c0 -41 0 -82 1 -124h-97l-1 56c-20 8 -48 12 -71 12c-45 0 -78 -18 -78 -51c0 -32 48 -43 81 -52
c81 -22 202 -43 202 -170c0 -96 -83 -143 -228 -143c-57 0 -139 8 -201 39c0 41 0 87 -1 128zM439 571l-35 -41l-165 100l-163 -100l-34 40l154 150h87z" />
    <glyph glyph-name="Scedilla" unicode="&#x15e;" horiz-adv-x="614" 
d="M41 199h101c0 -26 1 -50 1 -76c45 -20 99 -26 137 -26c103 0 136 47 136 93c0 64 -61 83 -146 105c-130 33 -225 78 -225 194c0 133 107 208 260 208c66 0 154 -11 217 -44c0 -52 1 -103 1 -155h-102c0 26 -1 52 -1 78c-29 12 -78 17 -110 17c-80 0 -116 -37 -116 -89
c0 -55 53 -75 148 -100c116 -31 232 -67 232 -206c0 -132 -97 -198 -250 -207c-13 -16 -26 -33 -38 -50c66 -4 108 -33 108 -86c0 -56 -59 -107 -191 -108c0 16 -1 32 -1 48c72 7 114 25 114 55c0 32 -47 36 -94 36c-6 9 -10 16 -16 24l61 80c-75 2 -157 15 -225 48
c0 53 -1 107 -1 161z" />
    <glyph glyph-name="scedilla" unicode="&#x15f;" horiz-adv-x="499" 
d="M32 158h96l2 -58c23 -11 66 -17 95 -17c50 0 94 16 94 51c0 41 -40 54 -82 65c-96 27 -200 51 -200 149c0 105 82 153 211 153c60 0 128 -12 177 -38c0 -41 0 -82 1 -124h-97l-1 56c-20 8 -48 12 -71 12c-45 0 -78 -18 -78 -51c0 -32 48 -43 81 -52
c81 -22 202 -43 202 -170c0 -87 -68 -133 -188 -141c-13 -17 -26 -34 -38 -51c66 -4 108 -33 108 -86c0 -56 -59 -107 -191 -108c0 16 -1 32 -1 48c72 7 114 25 114 55c0 32 -47 36 -94 36c-6 9 -10 16 -16 24l61 80c-56 2 -128 11 -184 39c0 41 0 87 -1 128z" />
    <glyph glyph-name="Tcommaaccent" unicode="&#x162;" horiz-adv-x="630" 
d="M468 0h-305v95h82v497h-129l1 -112h-101v208h599v-208h-101v112h-127v-497h81v-95zM253 -104c0 34 30 63 71 63c49 0 73 -37 72 -77c-1 -62 -49 -123 -108 -151l-32 39c26 21 41 43 43 69c-31 6 -46 27 -46 57z" />
    <glyph glyph-name="tcommaaccent" unicode="&#x163;" horiz-adv-x="421" 
d="M129 617l95 9v-135h142v-93h-143v-221c0 -55 11 -78 67 -78c20 0 51 4 86 12l18 -91c-42 -18 -98 -28 -140 -28c-139 0 -169 67 -169 145v261h-69v77l78 23zM154 -104c0 34 30 63 71 63c49 0 73 -37 72 -77c-1 -62 -49 -123 -108 -151l-32 39c26 21 41 43 43 69
c-31 6 -46 27 -46 57z" />
    <glyph glyph-name="Tcaron" unicode="&#x164;" horiz-adv-x="630" 
d="M468 0h-305v95h82v497h-129l1 -112h-101v208h599v-208h-101v112h-127v-497h81v-95zM483 927l35 -41l-156 -145h-86l-154 146l33 39l164 -100z" />
    <glyph glyph-name="tcaron" unicode="&#x165;" horiz-adv-x="533" 
d="M377 655c0 34 30 63 71 63c49 0 73 -37 72 -77c-1 -62 -49 -123 -108 -151l-32 39c26 21 41 43 43 69c-31 6 -46 27 -46 57zM129 617l95 9v-135h142v-93h-143v-221c0 -55 11 -78 67 -78c20 0 51 4 86 12l18 -91c-42 -18 -98 -28 -140 -28c-139 0 -169 67 -169 145v261
h-69v77l78 23z" />
    <glyph glyph-name="Tbar" unicode="&#x166;" horiz-adv-x="630" 
d="M468 0h-305v94h82v222h-144v67h144v211h-127v-110h-100v204h594v-204h-100v110h-125v-211h138v-67h-138v-222h81v-94z" />
    <glyph glyph-name="tbar" unicode="&#x167;" horiz-adv-x="421" 
d="M129 616l94 10v-136h143v-92h-144v-66h136v-64h-136c0 -35 1 -69 1 -103c0 -44 16 -67 67 -67c15 0 46 3 85 13l18 -92c-41 -17 -98 -26 -139 -26c-150 0 -172 75 -169 169v106h-65v64h65v66h-69v76l77 24z" />
    <glyph glyph-name="Utilde" unicode="&#x168;" horiz-adv-x="757" 
d="M664 592v-339c0 -163 -89 -262 -286 -262c-206 0 -287 98 -287 262v339h-58v96h263v-96h-65v-342c0 -106 53 -155 148 -155c89 0 146 46 146 155v342h-63v96h262v-96h-60zM463 754c-67 0 -132 39 -173 39l-56 -39l-41 31c23 63 59 91 103 91c56 0 124 -37 172 -37l55 40
l40 -31c-20 -59 -54 -94 -100 -94z" />
    <glyph glyph-name="utilde" unicode="&#x169;" horiz-adv-x="635" 
d="M242 -11c-117 0 -152 69 -152 159v249h-66v93h206v-313c0 -51 9 -78 64 -78c26 0 72 12 108 47v251h-57v93h197v-395h66v-82c-46 -16 -86 -21 -111 -21c-59 0 -83 19 -89 66c-55 -51 -116 -69 -166 -69zM402 563c-67 0 -132 39 -173 39l-56 -39l-41 31
c23 63 59 91 103 91c56 0 124 -37 172 -37l55 40l40 -31c-20 -59 -54 -94 -100 -94z" />
    <glyph glyph-name="Umacron" unicode="&#x16a;" horiz-adv-x="757" 
d="M664 592v-339c0 -163 -89 -262 -286 -262c-206 0 -287 98 -287 262v339h-58v96h263v-96h-65v-342c0 -106 53 -155 148 -155c89 0 146 46 146 155v342h-63v96h262v-96h-60zM207 748v91h353v-91h-353z" />
    <glyph glyph-name="umacron" unicode="&#x16b;" horiz-adv-x="635" 
d="M242 -11c-117 0 -152 69 -152 159v249h-66v93h206v-313c0 -51 9 -78 64 -78c26 0 72 12 108 47v251h-57v93h197v-395h66v-82c-46 -16 -86 -21 -111 -21c-59 0 -83 19 -89 66c-55 -51 -116 -69 -166 -69zM126 583v91h363v-91h-363z" />
    <glyph glyph-name="Ubreve" unicode="&#x16c;" horiz-adv-x="757" 
d="M664 592v-339c0 -163 -89 -262 -286 -262c-206 0 -287 98 -287 262v339h-58v96h263v-96h-65v-342c0 -106 53 -155 148 -155c89 0 146 46 146 155v342h-63v96h262v-96h-60zM375 731c-78 0 -137 60 -183 129l58 45c42 -58 92 -87 128 -87c25 0 69 0 152 80l39 -38
c-63 -97 -135 -129 -194 -129z" />
    <glyph glyph-name="ubreve" unicode="&#x16d;" horiz-adv-x="635" 
d="M242 -11c-117 0 -152 69 -152 159v249h-66v93h206v-313c0 -51 9 -78 64 -78c26 0 72 12 108 47v251h-57v93h197v-395h66v-82c-46 -16 -86 -21 -111 -21c-59 0 -83 19 -89 66c-55 -51 -116 -69 -166 -69zM298 550c-78 0 -137 60 -183 129l58 45c42 -58 92 -87 128 -87
c25 0 69 0 152 80l39 -38c-63 -97 -135 -129 -194 -129z" />
    <glyph glyph-name="Uring" unicode="&#x16e;" horiz-adv-x="757" 
d="M664 592v-339c0 -163 -89 -262 -286 -262c-206 0 -287 98 -287 262v339h-58v96h263v-96h-65v-342c0 -106 53 -155 148 -155c89 0 146 46 146 155v342h-63v96h262v-96h-60zM380 711c-70 0 -124 54 -124 120c0 63 54 119 124 119s120 -55 120 -119
c0 -68 -53 -120 -120 -120zM380 885c-32 0 -57 -27 -57 -57c0 -28 23 -54 57 -54c31 0 53 26 53 54c0 30 -21 57 -53 57z" />
    <glyph glyph-name="uring" unicode="&#x16f;" horiz-adv-x="635" 
d="M242 -11c-117 0 -152 69 -152 159v249h-66v93h206v-313c0 -51 9 -78 64 -78c26 0 72 12 108 47v251h-57v93h197v-395h66v-82c-46 -16 -86 -21 -111 -21c-59 0 -83 19 -89 66c-55 -51 -116 -69 -166 -69zM304 548c-70 0 -124 54 -124 120c0 63 54 119 124 119
s120 -55 120 -119c0 -68 -53 -120 -120 -120zM304 722c-32 0 -57 -27 -57 -57c0 -28 23 -54 57 -54c31 0 53 26 53 54c0 30 -21 57 -53 57z" />
    <glyph glyph-name="Uhungarumlaut" unicode="&#x170;" horiz-adv-x="757" 
d="M664 592v-339c0 -163 -89 -262 -286 -262c-206 0 -287 98 -287 262v339h-58v96h263v-96h-65v-342c0 -106 53 -155 148 -155c89 0 146 46 146 155v342h-63v96h262v-96h-60zM471 897l-159 -159l-53 41l130 185zM627 897l-160 -159l-52 41l129 185z" />
    <glyph glyph-name="uhungarumlaut" unicode="&#x171;" horiz-adv-x="635" 
d="M242 -11c-117 0 -152 69 -152 159v249h-66v93h206v-313c0 -51 9 -78 64 -78c26 0 72 12 108 47v251h-57v93h197v-395h66v-82c-46 -16 -86 -21 -111 -21c-59 0 -83 19 -89 66c-55 -51 -116 -69 -166 -69zM366 690l-161 -159l-52 41l130 185zM524 690l-161 -159l-51 41
l129 185z" />
    <glyph glyph-name="Uogonek" unicode="&#x172;" horiz-adv-x="757" 
d="M664 592v-339c0 -159 -85 -257 -273 -262c-24 -35 -40 -75 -41 -104c0 -35 19 -50 55 -50c27 0 55 7 77 13l9 -44c-36 -19 -79 -30 -119 -30c-69 0 -106 31 -106 81c0 34 13 85 66 136c-173 13 -241 108 -241 260v339h-58v96h263v-96h-65v-342c0 -106 53 -155 148 -155
c89 0 146 46 146 155v342h-63v96h262v-96h-60z" />
    <glyph glyph-name="uogonek" unicode="&#x173;" horiz-adv-x="635" 
d="M242 -11c-117 0 -152 69 -152 159v249h-66v93h206v-313c0 -51 9 -78 64 -78c26 0 72 12 108 47v251h-57v93h197v-395h66v-82c-30 -10 -56 -16 -78 -19c-21 -32 -35 -68 -35 -94c0 -35 19 -50 55 -50c27 0 55 7 77 13l9 -44c-36 -19 -79 -30 -119 -30
c-69 0 -106 31 -106 81c0 31 11 77 55 125c-37 6 -53 25 -58 63c-55 -51 -116 -69 -166 -69z" />
    <glyph glyph-name="Wcircumflex" unicode="&#x174;" horiz-adv-x="1042" 
d="M522 384h-2l-30 -101l-86 -283h-176l-160 591h-57v97h271v-97h-61l76 -310l35 -151h3l41 150l79 272l-13 39h-63l-1 97h274l1 -97h-67l97 -313l41 -134h3l32 145l70 302h-62v97h267v-97h-60c-27 -108 -133 -484 -159 -591h-177l-86 286zM719 778l-36 -41l-164 99
l-163 -100l-33 40l153 147h87z" />
    <glyph glyph-name="wcircumflex" unicode="&#x175;" horiz-adv-x="897" 
d="M626 99h4l35 127l50 172h-54v93h224v-93l-44 -1l-122 -397h-180l-50 129l-43 115h-5l-39 -115l-41 -129h-180l-117 389h-52v102h155l71 -251l39 -142h6l39 125l51 154l-8 20h-70v94h269v-94h-50l66 -177zM649 571l-35 -41l-165 100l-163 -100l-34 40l154 150h87z" />
    <glyph glyph-name="Ycircumflex" unicode="&#x176;" horiz-adv-x="666" 
d="M336 370l121 221h-58v97h255v-97h-55l-193 -319v-177h78v-95h-307v95h78v175l-189 321h-53v97h257v-97h-57l119 -221h4zM540 778l-36 -41l-164 99l-163 -100l-33 40l153 147h87z" />
    <glyph glyph-name="ycircumflex" unicode="&#x177;" horiz-adv-x="597" 
d="M299 101c12 39 79 248 95 296h-54v93h234v-93h-47l-181 -508c-24 -67 -60 -104 -148 -104c-9 0 -68 0 -130 20l19 100c28 -5 52 -9 75 -9c44 0 59 13 69 38l30 77h-63c-43 126 -80 253 -123 380h-54v99h155c20 -64 105 -340 119 -389h4zM491 571l-35 -41l-165 100
l-163 -100l-34 40l154 150h87z" />
    <glyph glyph-name="Zacute" unicode="&#x179;" horiz-adv-x="608" 
d="M565 596l-362 -500h279v127h103v-223h-560v94l360 498h-234v-111h-102v207h516v-92zM482 875l-174 -139l-47 48l148 169z" />
    <glyph glyph-name="zacute" unicode="&#x17a;" horiz-adv-x="512" 
d="M470 413l-270 -326h186v84h94v-171h-450v80l269 322h-159v-77h-94v166h424v-78zM383 672l-174 -140l-46 48l147 169z" />
    <glyph glyph-name="Zdotaccent" unicode="&#x17b;" horiz-adv-x="608" 
d="M565 596l-362 -500h279v127h103v-223h-560v94l360 498h-234v-111h-102v207h516v-92zM410 830c0 -47 -39 -85 -85 -85c-47 0 -84 38 -84 85s37 85 84 85c46 0 85 -38 85 -85z" />
    <glyph glyph-name="zdotaccent" unicode="&#x17c;" horiz-adv-x="512" 
d="M470 413l-270 -326h186v84h94v-171h-450v80l269 322h-159v-77h-94v166h424v-78zM360 638c0 -47 -39 -85 -85 -85c-47 0 -84 38 -84 85s37 85 84 85c46 0 85 -38 85 -85z" />
    <glyph glyph-name="Ohorn" unicode="&#x1a0;" horiz-adv-x="770" 
d="M690 344c0 -202 -107 -354 -317 -354c-225 0 -323 142 -323 352c0 197 95 358 323 358c107 0 182 -36 232 -93h17c45 0 69 24 69 77v74h78v-84c0 -67 -22 -133 -113 -142c24 -55 34 -120 34 -188zM538 342c0 128 -29 257 -165 257c-137 0 -172 -125 -172 -258
c0 -159 48 -249 172 -249c117 0 165 107 165 250z" />
    <glyph glyph-name="ohorn" unicode="&#x1a1;" horiz-adv-x="617" 
d="M534 245c0 -136 -70 -254 -251 -254c-174 0 -243 113 -243 253c0 138 75 257 249 257c89 0 151 -30 191 -79c39 3 58 29 58 77v74h79v-84c0 -62 -20 -125 -97 -140c9 -32 14 -68 14 -104zM391 244c0 77 -17 159 -102 159s-106 -82 -106 -159c0 -84 18 -156 106 -156
c83 0 102 77 102 156z" />
    <glyph glyph-name="Uhorn" unicode="&#x1af;" horiz-adv-x="849" 
d="M664 599v-37h35c46 0 69 18 69 70v121h79v-128c0 -68 -27 -139 -135 -139h-48v-233c0 -163 -89 -262 -286 -262c-206 0 -287 98 -287 262v346h-58v89h263v-89h-65v-352c0 -106 53 -155 148 -155c89 0 146 46 146 155v352h-63v89h245v-89h-43z" />
    <glyph glyph-name="uhorn" unicode="&#x1b0;" horiz-adv-x="696" 
d="M242 -11c-117 0 -152 69 -152 159v252h-66v90h206v-306c0 -54 11 -85 59 -85c25 0 74 8 113 45v256h-57v90c66 0 131 1 196 1l1 -1c0 -23 -1 -44 -1 -66h3c45 0 67 21 67 73v79h79v-85c0 -71 -26 -143 -135 -143h-14v-253h65c0 -28 1 -56 2 -82c-46 -16 -86 -21 -111 -21
c-59 0 -83 19 -89 66c-55 -51 -116 -69 -166 -69z" />
    <glyph glyph-name="AEacute" unicode="&#x1fc;" horiz-adv-x="1026" 
d="M518 94v108h-239l-67 -108h62v-94h-264v94h56l311 498h-53v95h650v-198h-102v105h-211v-194l211 6v-98l-211 5v-219h223v110h102v-204h-539v94h71zM513 588l-183 -295h188v295h-5zM789 875l-174 -139l-47 48l148 169z" />
    <glyph glyph-name="aeacute" unicode="&#x1fd;" horiz-adv-x="831" 
d="M588 502c189 0 212 -151 212 -239v-39h-311c0 -81 30 -132 122 -132c51 0 99 11 150 30l26 -83c-62 -34 -133 -47 -198 -47c-99 0 -152 25 -187 74c-86 -71 -165 -77 -212 -77c-130 0 -160 87 -160 143c0 70 42 151 178 151h146v29c0 65 -31 88 -101 88
c-57 0 -114 -10 -158 -25l-23 86c57 25 140 40 209 40c60 0 125 -19 150 -68c33 42 84 69 157 69zM248 78c27 0 85 16 120 48c-10 30 -15 61 -16 96h-89c-58 0 -89 -27 -89 -71c0 -49 25 -73 74 -73zM589 406c-70 0 -94 -58 -97 -123h184c0 73 -20 123 -87 123zM604 672
l-174 -140l-46 48l147 169z" />
    <glyph glyph-name="Oslashacute" unicode="&#x1fe;" horiz-adv-x="740" 
d="M690 344c0 -202 -107 -354 -317 -354c-92 0 -161 23 -212 65l-52 -63h-61l78 96c-52 62 -76 149 -76 254c0 197 95 358 323 358c87 0 152 -22 202 -63l51 65h67l-82 -98c55 -66 79 -160 79 -260zM538 342c0 51 -6 106 -25 149l-270 -340c29 -39 70 -59 130 -59
c117 0 165 107 165 250zM201 341c0 -58 7 -104 22 -139l269 339c-26 35 -63 58 -119 58c-137 0 -172 -125 -172 -258zM555 875l-174 -139l-47 48l148 169z" />
    <glyph glyph-name="oslashacute" unicode="&#x1ff;" horiz-adv-x="574" 
d="M288 500c65 0 115 -17 153 -45c13 15 26 29 38 45h56l-62 -71c42 -48 60 -114 60 -185c0 -136 -69 -252 -251 -252c-65 0 -116 14 -154 41c-11 -13 -23 -27 -35 -39c-19 0 -38 -1 -57 -1l60 68c-40 46 -56 111 -56 182c0 138 74 257 248 257zM389 243c0 27 -3 59 -13 83
c-56 -69 -110 -138 -166 -207c17 -19 41 -32 78 -32c84 0 101 76 101 156zM288 402c-79 0 -106 -74 -106 -148c0 -32 2 -63 13 -90l164 205c-15 20 -37 33 -71 33zM446 672l-174 -140l-46 48l147 169z" />
    <glyph glyph-name="Scommaaccent" unicode="&#x218;" horiz-adv-x="614" 
d="M41 199h101c0 -26 1 -50 1 -76c45 -20 99 -26 137 -26c103 0 136 47 136 93c0 64 -61 83 -146 105c-130 33 -225 78 -225 194c0 133 107 208 260 208c66 0 154 -11 217 -44c0 -52 1 -103 1 -155h-102c0 26 -1 52 -1 78c-29 12 -78 17 -110 17c-80 0 -116 -37 -116 -89
c0 -55 53 -75 148 -100c116 -31 232 -67 232 -206c0 -142 -111 -208 -285 -208c-81 0 -172 12 -247 48c0 53 -1 107 -1 161zM235 -104c0 34 30 63 71 63c49 0 73 -37 72 -77c-1 -62 -49 -123 -108 -151l-32 39c26 21 41 43 43 69c-31 6 -46 27 -46 57z" />
    <glyph glyph-name="scommaaccent" unicode="&#x219;" horiz-adv-x="499" 
d="M32 158h96l2 -58c23 -11 66 -17 95 -17c50 0 94 16 94 51c0 41 -40 54 -82 65c-96 27 -200 51 -200 149c0 105 82 153 211 153c60 0 128 -12 177 -38c0 -41 0 -82 1 -124h-97l-1 56c-20 8 -48 12 -71 12c-45 0 -78 -18 -78 -51c0 -32 48 -43 81 -52
c81 -22 202 -43 202 -170c0 -96 -83 -143 -228 -143c-57 0 -139 8 -201 39c0 41 0 87 -1 128zM171 -104c0 34 30 63 71 63c49 0 73 -37 72 -77c-1 -62 -49 -123 -108 -151l-32 39c26 21 41 43 43 69c-31 6 -46 27 -46 57z" />
    <glyph glyph-name="schwa" unicode="&#x259;" horiz-adv-x="532" 
d="M258 88c70 0 94 58 97 123h-185c0 -73 20 -123 88 -123zM258 -8c-190 0 -215 152 -215 239v35h315c0 81 -31 137 -123 137c-51 0 -100 -12 -151 -31l-29 82c64 35 136 48 202 48c195 0 240 -118 240 -252c0 -108 -47 -258 -239 -258z" />
    <glyph glyph-name="afii10023" unicode="&#x401;" horiz-adv-x="649" 
d="M498 785c0 -33 -26 -58 -60 -58c-32 0 -57 25 -57 58c0 32 25 58 57 58c34 0 60 -25 60 -58zM298 785c0 -33 -26 -58 -59 -58s-58 25 -58 58c0 32 26 58 57 58c34 0 60 -25 60 -58zM617 0h-574v96h69v496h-68v95h560v-202h-101v107h-247v-192l230 6v-99l-230 6v-217h259
v112h102v-208z" />
    <glyph glyph-name="afii10051" unicode="&#x402;" horiz-adv-x="844" 
d="M803 211c0 -158 -111 -274 -208 -333l-59 74c68 56 117 131 117 235c0 99 -50 136 -126 136c-39 0 -89 -9 -135 -26v-203h77v-94h-291v94h72v500h-126v-82h-101v175h662v-175h-101v82h-192v-202c60 23 125 33 179 33c137 0 232 -73 232 -214z" />
    <glyph glyph-name="afii10052" unicode="&#x403;" horiz-adv-x="619" 
d="M495 876l-174 -139l-47 48l148 169zM350 0h-307v94h70v500h-69v93h559v-198h-101v105h-246v-500h94v-94z" />
    <glyph glyph-name="afii10053" unicode="&#x404;" horiz-adv-x="628" 
d="M568 125l22 -100c-56 -22 -148 -33 -218 -33c-251 0 -322 153 -322 349c0 161 61 359 332 359c72 0 136 -12 187 -27v-182h-103v91c-22 6 -53 10 -81 10c-116 0 -178 -79 -183 -192c76 1 169 3 245 5v-96c-77 1 -169 3 -246 3c3 -129 57 -208 203 -208c34 0 112 9 164 21
z" />
    <glyph glyph-name="afii10054" unicode="&#x405;" horiz-adv-x="614" 
d="M41 199h101c0 -26 1 -50 1 -76c45 -20 99 -26 137 -26c103 0 136 47 136 93c0 64 -61 83 -146 105c-130 33 -225 78 -225 194c0 133 107 208 260 208c66 0 154 -11 217 -44c0 -52 1 -103 1 -155h-102c0 26 -1 52 -1 78c-29 12 -78 17 -110 17c-80 0 -116 -37 -116 -89
c0 -55 53 -75 148 -100c116 -31 232 -67 232 -206c0 -142 -111 -208 -285 -208c-81 0 -172 12 -247 48c0 53 -1 107 -1 161z" />
    <glyph glyph-name="afii10055" unicode="&#x406;" horiz-adv-x="419" 
d="M349 0h-279v95h68v497h-68v96h279v-96h-68v-497h68v-95z" />
    <glyph glyph-name="afii10056" unicode="&#x407;" horiz-adv-x="419" 
d="M367 785c0 -33 -26 -58 -60 -58c-32 0 -57 25 -57 58c0 32 25 58 57 58c34 0 60 -25 60 -58zM167 785c0 -33 -26 -58 -59 -58s-58 25 -58 58c0 32 26 58 57 58c34 0 60 -25 60 -58zM349 0h-279v95h68v497h-68v96h279v-96h-68v-497h68v-95z" />
    <glyph glyph-name="afii10057" unicode="&#x408;" horiz-adv-x="438" 
d="M71 592v96h312v-96h-79v-432c0 -189 -101 -296 -289 -341l-34 97c157 71 180 126 180 248v428h-90z" />
    <glyph glyph-name="afii10058" unicode="&#x409;" horiz-adv-x="1040" 
d="M684 688v-94h-73v-176h141c141 0 248 -71 248 -210c0 -142 -94 -208 -227 -208h-370v94h65v500h-152v-55c0 -291 -28 -507 -267 -556l-34 101c149 55 170 172 170 429v81h-89v94h588zM733 325h-122v-231h128c63 0 111 40 111 116c0 77 -55 115 -117 115z" />
    <glyph glyph-name="afii10059" unicode="&#x40a;" horiz-adv-x="1075" 
d="M719 688v-94h-72v-181h140c142 0 248 -68 248 -206c0 -137 -93 -207 -226 -207h-369v94h63v228h-245v-228h61v-94h-274v94h70v500h-70v93h274v-93h-61v-183h245v183h-65v94h281zM768 321h-121v-227h128c63 0 110 38 110 114c0 78 -54 113 -117 113z" />
    <glyph glyph-name="afii10060" unicode="&#x40b;" horiz-adv-x="897" 
d="M793 94h66v-94h-272v94h63v140c0 70 -48 93 -114 93c-50 0 -105 -15 -141 -31v-202h68v-94h-284v94h74v500h-127v-82h-101v175h658v-175h-101v82h-187v-199c58 19 123 31 180 31c119 0 218 -47 218 -172v-160z" />
    <glyph glyph-name="afii10061" unicode="&#x40c;" horiz-adv-x="721" 
d="M254 594v-500h66v-94h-277v94h68v500h-68v93h277v-93h-66zM415 365l191 -265l93 -9v-80c-33 -13 -80 -20 -105 -20c-50 -2 -80 10 -106 48l-203 293v44l186 265c27 43 55 56 95 55c38 0 74 -9 107 -26l-8 -79l-87 -8zM546 878l-174 -139l-47 48l148 169z" />
    <glyph glyph-name="afii10062" unicode="&#x40e;" horiz-adv-x="667" 
d="M12 688h251v-95h-59l78 -185l56 -144h5l54 146l71 183h-62v95h247v-95h-51l-204 -496c-33 -80 -78 -110 -149 -110c-31 0 -75 2 -138 21l22 92c37 -8 61 -11 81 -11c28 0 47 13 62 49l16 40h-39l-190 415h-51v95zM334 737c-78 0 -137 59 -183 128l58 45
c42 -57 92 -88 129 -88c24 0 68 2 151 82l39 -38c-63 -97 -136 -129 -194 -129z" />
    <glyph glyph-name="afii10145" unicode="&#x40f;" horiz-adv-x="786" 
d="M468 687h275v-94h-69v-500h69v-93h-294v-190h-110v190h-297v93h70v500h-70v94h276v-94h-63v-500h275v500h-62v94z" />
    <glyph glyph-name="afii10017" unicode="&#x410;" horiz-adv-x="736" 
d="M453 94h63l-30 96h-245c-8 -25 -22 -65 -30 -96h65v-94h-256v94h55l208 593h177l201 -593h55v-94h-263v94zM458 282l-75 239c-4 17 -10 34 -15 52h-3l-16 -53c-22 -67 -56 -170 -77 -238h186z" />
    <glyph glyph-name="afii10018" unicode="&#x411;" horiz-adv-x="682" 
d="M575 687v-170h-101v77h-220v-176h141c145 0 247 -66 247 -204c0 -140 -91 -214 -226 -214h-373v94h68v500h-68v93h532zM377 325h-123v-231h131c62 0 109 46 109 119c0 77 -50 112 -117 112z" />
    <glyph glyph-name="afii10019" unicode="&#x412;" horiz-adv-x="686" 
d="M535 361v-1c86 -30 109 -108 109 -166c0 -118 -93 -194 -218 -194h-385v94h72v498h-69v95h352c152 0 227 -69 227 -182c0 -37 -14 -108 -88 -144zM383 308h-126v-214h126c79 0 112 49 112 107c0 57 -36 107 -112 107zM370 592h-113v-193h113c68 0 107 39 107 96
s-33 97 -107 97z" />
    <glyph glyph-name="afii10020" unicode="&#x413;" horiz-adv-x="619" 
d="M350 0h-307v94h70v500h-69v93h559v-198h-101v105h-246v-500h94v-94z" />
    <glyph glyph-name="afii10021" unicode="&#x414;" horiz-adv-x="774" 
d="M616 0h-489v-177h-107v268l58 3c101 98 122 260 122 456v44h-76v93h596v-93h-69v-500l71 -3v-268h-106v177zM325 594v-53c0 -209 -23 -354 -99 -447h282v500h-183z" />
    <glyph glyph-name="afii10022" unicode="&#x415;" horiz-adv-x="649" 
d="M617 0h-574v96h69v496h-68v95h560v-202h-101v107h-247v-192l230 6v-99l-230 6v-217h259v112h102v-208z" />
    <glyph glyph-name="afii10024" unicode="&#x416;" horiz-adv-x="1039" 
d="M590 593v-500h66v-93h-272v93h66v500h-66v93h272v-93h-66zM749 365l177 -265l93 -9v-80c-33 -13 -80 -20 -105 -20c-50 -2 -80 10 -106 48l-189 293v44l186 265c27 43 55 56 95 55c38 0 74 -9 107 -26l-8 -79l-87 -8zM117 100l173 265l-166 218l-87 8l-8 79
c33 17 69 26 107 26c40 1 68 -12 95 -55l189 -265v-44l-185 -293c-26 -38 -56 -50 -106 -48c-25 0 -72 7 -105 20v80z" />
    <glyph glyph-name="afii10025" unicode="&#x417;" horiz-adv-x="614" 
d="M59 483v173c70 31 167 45 229 45c133 0 259 -40 259 -179c0 -52 -37 -117 -106 -145v-1c80 -27 125 -89 125 -161c0 -149 -133 -222 -292 -222c-62 0 -171 10 -243 44l30 93c71 -19 133 -31 175 -31c119 0 180 41 180 116c0 68 -55 106 -136 106h-88v89h80
c84 0 127 49 127 99c0 68 -53 91 -128 91c-37 0 -76 -7 -107 -18v-99h-105z" />
    <glyph glyph-name="afii10026" unicode="&#x418;" horiz-adv-x="804" 
d="M478 593v93h286v-93h-72v-500h72v-93h-279v93h68v350h-2c-99 -107 -198 -214 -297 -319v-31h67v-93h-281v93h73v500h-71v93h280v-93h-68v-345h2l297 318v27h-75z" />
    <glyph glyph-name="afii10027" unicode="&#x419;" horiz-adv-x="804" 
d="M478 593v93h286v-93h-72v-500h72v-93h-279v93h68v350h-2c-99 -107 -198 -214 -297 -319v-31h67v-93h-281v93h73v500h-71v93h280v-93h-68v-345h2l297 318v27h-75zM399 751c-78 0 -137 60 -183 129l58 45c42 -58 92 -87 128 -87c25 0 69 0 152 80l39 -38
c-63 -97 -135 -129 -194 -129z" />
    <glyph glyph-name="afii10028" unicode="&#x41a;" horiz-adv-x="721" 
d="M254 594v-500h66v-94h-277v94h68v500h-68v93h277v-93h-66zM415 365l191 -265l93 -9v-80c-33 -13 -80 -20 -105 -20c-50 -2 -80 10 -106 48l-203 293v44l186 265c27 43 55 56 95 55c38 0 74 -9 107 -26l-8 -79l-87 -8z" />
    <glyph glyph-name="afii10029" unicode="&#x41b;" horiz-adv-x="755" 
d="M705 0h-275v94h62v500h-176v-55c0 -291 -28 -507 -267 -556l-34 101c149 55 170 172 170 429v81h-89v94h609v-94h-69v-500h69v-94z" />
    <glyph glyph-name="afii10030" unicode="&#x41c;" horiz-adv-x="963" 
d="M480 247h5c14 30 26 62 39 91c14 33 57 134 93 216c25 57 46 108 57 133h251v-95h-63v-498h63v-94h-264v94h59v404h-2c-16 -36 -31 -73 -46 -109c-36 -88 -103 -231 -126 -289h-126c-52 110 -94 205 -146 321c-10 25 -23 51 -33 77h-3c0 -135 -1 -270 -1 -404h64v-94
h-267v94h69v498h-69v95h253c19 -41 41 -91 64 -144c28 -61 57 -129 84 -191c18 -38 33 -75 45 -105z" />
    <glyph glyph-name="afii10031" unicode="&#x41d;" horiz-adv-x="786" 
d="M743 0h-275v95h62v217h-275v-217h63v-95h-276v95h70v497h-70v95h276v-95h-63v-190h275v190h-62v95h275v-95h-69v-497h69v-95z" />
    <glyph glyph-name="afii10032" unicode="&#x41e;" horiz-adv-x="740" 
d="M690 344c0 -202 -107 -354 -317 -354c-225 0 -323 142 -323 352c0 197 95 358 323 358c230 0 317 -162 317 -356zM538 342c0 128 -29 255 -165 255c-137 0 -172 -123 -172 -256c0 -159 48 -248 172 -248c117 0 165 106 165 249z" />
    <glyph glyph-name="afii10033" unicode="&#x41f;" horiz-adv-x="786" 
d="M744 0h-276v94h62v499h-274v-499h63v-94h-276v94h69v499h-69v95h701v-95h-69v-499h69v-94z" />
    <glyph glyph-name="afii10034" unicode="&#x420;" horiz-adv-x="633" 
d="M605 479c0 -99 -62 -213 -222 -213h-130v-171h89v-95h-299v95h67v497h-67v96h327c156 0 235 -81 235 -209zM343 592h-90v-233h94c60 0 108 33 108 115c0 81 -41 118 -112 118z" />
    <glyph glyph-name="afii10035" unicode="&#x421;" horiz-adv-x="623" 
d="M201 345c0 -162 52 -240 205 -240c33 0 109 6 160 21l22 -100c-57 -22 -145 -36 -215 -36c-251 0 -323 156 -323 352c0 161 63 359 333 359c73 0 133 -11 183 -28v-193h-101v103c-26 7 -55 9 -79 9c-134 0 -185 -98 -185 -247z" />
    <glyph glyph-name="afii10036" unicode="&#x422;" horiz-adv-x="630" 
d="M468 0h-305v95h82v497h-129l1 -112h-101v208h599v-208h-101v112h-127v-497h81v-95z" />
    <glyph glyph-name="afii10037" unicode="&#x423;" horiz-adv-x="667" 
d="M12 688h251v-95h-59l78 -185l56 -144h5l54 146l71 183h-62v95h247v-95h-51l-204 -496c-33 -80 -78 -110 -149 -110c-31 0 -75 2 -138 21l22 92c37 -8 61 -11 81 -11c28 0 47 13 62 49l16 40h-39l-190 415h-51v95z" />
    <glyph glyph-name="afii10038" unicode="&#x424;" horiz-adv-x="873" 
d="M833 356c0 -160 -132 -278 -324 -289l-1 -67h-139v67c-202 9 -329 122 -329 286c0 150 130 279 329 289v45h139l1 -46c205 -11 324 -137 324 -285zM181 351c0 -105 70 -169 188 -182v369c-115 -10 -188 -89 -188 -187zM690 353c0 92 -55 176 -181 185v-369
c96 9 181 82 181 184z" />
    <glyph glyph-name="afii10039" unicode="&#x425;" horiz-adv-x="706" 
d="M438 350l172 -254h68l1 -96h-295v96h57l-110 173l-111 -173h59v-96h-251v96h60l173 259l-156 236h-75v97h293v-97h-54l101 -158l106 158h-58v97h252v-97h-60z" />
    <glyph glyph-name="afii10040" unicode="&#x426;" horiz-adv-x="786" 
d="M655 -176v176h-614v93h70v500h-70v94h276v-94h-63v-500h275v500h-62v94h275v-94h-69v-500h89v-269h-107z" />
    <glyph glyph-name="afii10041" unicode="&#x427;" horiz-adv-x="744" 
d="M698 93v-93h-278v93h68v192c-54 -14 -110 -24 -164 -24c-125 0 -233 45 -233 177v155h-67v93h272v-93h-62v-130c0 -74 45 -99 114 -101c47 0 98 11 140 25v206h-62v93h272v-93h-68v-500h68z" />
    <glyph glyph-name="afii10042" unicode="&#x428;" horiz-adv-x="1072" 
d="M466 93v500h-58v94h256v-94h-58v-500h215v500h-59v94h268v-94h-69v-500h69v-93h-987v93h69v500h-69v94h269v-94h-61v-500h215z" />
    <glyph glyph-name="afii10043" unicode="&#x429;" horiz-adv-x="1072" 
d="M466 93v500h-58v94h256v-94h-58v-500h215v500h-59v94h268v-94h-69v-500h87v-270h-106v177h-899v93h69v500h-69v94h269v-94h-61v-500h215z" />
    <glyph glyph-name="afii10044" unicode="&#x42a;" horiz-adv-x="841" 
d="M413 594l-1 -176h140c142 0 248 -71 248 -210c0 -142 -93 -208 -226 -208h-376v94h71v500h-150v-101h-101v194h462v-93h-67zM533 325h-121v-231h128c62 0 111 40 111 116c0 77 -55 115 -118 115z" />
    <glyph glyph-name="afii10045" unicode="&#x42b;" horiz-adv-x="1013" 
d="M378 325h-121v-231h128c63 0 111 40 111 116c0 77 -55 115 -118 115zM329 688v-94h-72v-176h141c142 0 248 -71 248 -210c0 -142 -94 -208 -227 -208h-376v94h71v500h-71v94h286zM968 0h-279v94h68v500h-68v93h279v-93h-68v-500h68v-94z" />
    <glyph glyph-name="afii10046" unicode="&#x42c;" horiz-adv-x="691" 
d="M383 325h-121v-231h128c63 0 111 40 111 116c0 77 -55 115 -118 115zM334 688v-94h-72v-176h141c142 0 248 -71 248 -210c0 -142 -94 -208 -227 -208h-376v94h71v500h-71v94h286z" />
    <glyph glyph-name="afii10047" unicode="&#x42d;" horiz-adv-x="622" 
d="M424 313c-76 -1 -153 -3 -229 -3v93l229 -3c-3 116 -53 192 -173 192c-29 0 -70 -6 -91 -11v-91h-102v181c50 17 121 29 194 29c262 0 323 -171 323 -344c0 -187 -84 -364 -333 -364c-69 0 -152 10 -208 33c7 34 15 67 23 100c51 -12 123 -21 157 -21
c141 0 209 81 210 209z" />
    <glyph glyph-name="afii10048" unicode="&#x42e;" horiz-adv-x="1051" 
d="M1001 343c0 -202 -96 -352 -307 -352c-208 0 -302 125 -310 321h-129v-218h63v-94h-276v94h70v500h-70v93h276v-93h-63v-192h130c18 168 105 298 309 298c231 0 307 -163 307 -357zM855 342c0 127 -24 256 -161 256c-136 0 -166 -124 -166 -258c0 -159 42 -249 166 -249
c118 0 161 107 161 251z" />
    <glyph glyph-name="afii10049" unicode="&#x42f;" horiz-adv-x="705" 
d="M229 480c0 -89 67 -106 119 -106h94v220h-101c-63 0 -112 -40 -112 -114zM442 284h-111l-110 -222c-22 -48 -42 -73 -100 -73c-23 0 -73 5 -106 16v78l79 11l110 213c-96 27 -123 106 -123 169c0 120 73 212 228 212h341v-94h-66v-500h68v-94h-277v94h67v190z" />
    <glyph glyph-name="afii10065" unicode="&#x430;" horiz-adv-x="565" 
d="M339 222l-92 -9c-48 -5 -71 -32 -71 -65c0 -46 20 -68 69 -68c30 0 67 17 94 42v100zM472 330v-237h75l7 -75c-48 -21 -98 -26 -130 -26c-43 0 -75 10 -76 63c-1 0 -1 1 -2 1c-67 -64 -136 -66 -164 -66c-121 0 -150 85 -150 142c0 76 59 139 172 146l137 9v24
c0 57 -19 88 -90 88c-48 0 -106 -10 -150 -25c-8 28 -16 57 -23 86c57 25 138 39 207 39c116 0 187 -43 187 -169z" />
    <glyph glyph-name="afii10066" unicode="&#x431;" horiz-adv-x="573" 
d="M272 675c43 17 141 55 182 75c12 -27 26 -53 38 -80c-43 -25 -87 -43 -116 -55c-124 -49 -205 -88 -223 -216c1 0 2 0 3 -1c35 51 95 83 165 83c154 0 210 -104 210 -243c0 -127 -67 -246 -250 -246c-174 0 -233 111 -240 231c-1 30 -1 60 -1 91c1 73 7 113 15 142
c27 102 100 173 217 219zM290 388c-80 0 -109 -85 -109 -155c0 -72 16 -146 105 -146c82 0 102 73 102 151s-17 150 -98 150z" />
    <glyph glyph-name="afii10067" unicode="&#x432;" horiz-adv-x="557" 
d="M343 490c113 0 168 -50 168 -130c0 -33 -14 -73 -56 -100c57 -25 71 -78 71 -118c0 -88 -73 -142 -171 -142h-324v91h54v311h-53v88h311zM323 208h-104v-120h104c45 0 68 29 68 63c0 33 -22 57 -68 57zM312 405h-93v-111h98c34 0 60 23 60 56s-18 55 -65 55z" />
    <glyph glyph-name="afii10068" unicode="&#x433;" horiz-adv-x="501" 
d="M301 0h-265v90h54v312h-52v88h443v-168h-92v80h-161v-312h73v-90z" />
    <glyph glyph-name="afii10069" unicode="&#x434;" horiz-adv-x="634" 
d="M541 490l-1 -399l54 -3v-236h-105v148h-362v-148h-107v236l56 3c69 68 72 178 73 284v27h-62v88h454zM402 402h-124v-34c0 -101 -6 -206 -60 -277h184v311z" />
    <glyph glyph-name="afii10070" unicode="&#x435;" horiz-adv-x="532" 
d="M279 405c-66 0 -94 -54 -97 -107h184c-1 56 -19 107 -87 107zM279 502c190 0 215 -141 215 -239v-50h-314c-1 -82 30 -122 122 -122c52 0 100 11 151 31l30 -84c-64 -34 -137 -48 -203 -48c-195 0 -240 124 -240 254c0 108 49 258 239 258z" />
    <glyph glyph-name="afii10072" unicode="&#x436;" horiz-adv-x="871" 
d="M316 0v89h50v312h-52v89h244v-89h-54v-312h55v-89h-243zM652 260l127 -172l65 -10v-70c-26 -11 -70 -17 -93 -18c-42 0 -65 9 -85 37l-145 209v30l136 191c22 32 44 43 81 43c31 0 67 -9 89 -21l-6 -73l-57 -4zM215 260l-108 142l-56 4l-7 73c22 12 59 21 90 21
c37 0 60 -11 81 -43l132 -191v-30l-141 -209c-20 -28 -43 -37 -84 -37c-24 1 -68 7 -94 18v70l65 10z" />
    <glyph glyph-name="afii10073" unicode="&#x437;" horiz-adv-x="486" 
d="M214 -9c-78 0 -155 17 -194 34l25 89c53 -17 103 -24 144 -24c76 0 114 24 114 72c0 49 -46 60 -83 60h-65v75h54c39 1 82 10 82 56c0 28 -24 53 -77 53c-25 0 -52 -3 -80 -12v-56h-93v129c55 22 127 36 194 36c131 0 199 -54 199 -131c0 -48 -30 -85 -76 -105v-3
c53 -16 87 -63 87 -114c0 -98 -87 -159 -231 -159z" />
    <glyph glyph-name="afii10074" unicode="&#x438;" horiz-adv-x="664" 
d="M433 291h-5c-7 -10 -34 -52 -67 -98l-138 -193h-133v401h-66v88h204v-300h4v-1c1 3 39 59 83 122l124 179h133c0 -131 1 -262 1 -394h66v-82c-34 -14 -76 -21 -107 -21c-84 0 -99 54 -99 104v195z" />
    <glyph glyph-name="afii10075" unicode="&#x439;" horiz-adv-x="664" 
d="M433 291h-5c-7 -10 -34 -52 -67 -98l-138 -193h-133v401h-66v88h204v-300h4v-1c1 3 39 59 83 122l124 179h133c0 -131 1 -262 1 -394h66v-82c-34 -14 -76 -21 -107 -21c-84 0 -99 54 -99 104v195zM324 543c-78 0 -137 60 -183 129l58 45c42 -58 92 -87 128 -87
c25 0 69 0 152 80l39 -38c-63 -97 -135 -129 -194 -129z" />
    <glyph glyph-name="afii10076" unicode="&#x43a;" horiz-adv-x="598" 
d="M33 0v90h59v312h-68v88h208v-400h55v-90h-254zM380 261l128 -173l65 -10v-70c-25 -11 -69 -17 -93 -18c-42 0 -64 9 -84 37l-148 210v31l140 189c21 32 44 43 81 43c31 0 67 -9 89 -21l-7 -73l-56 -4z" />
    <glyph glyph-name="afii10077" unicode="&#x43b;" horiz-adv-x="610" 
d="M580 0h-255v90h56v312h-124v-32c0 -194 -29 -345 -202 -388l-42 98c99 42 116 108 116 269v53h-75v88h467v-400h59v-90z" />
    <glyph glyph-name="afii10078" unicode="&#x43c;" horiz-adv-x="794" 
d="M396 214h4c4 9 34 70 55 110c30 58 78 148 88 166h211v-89h-61v-306h67v-82c-33 -14 -73 -21 -105 -21c-86 0 -94 50 -96 110v188h-4c-12 -23 -32 -66 -44 -87c-22 -40 -52 -93 -74 -141h-78c-6 13 -48 88 -77 138c-19 34 -45 85 -50 96h-5v-296h-135v401h-66v89h220
c10 -18 60 -107 91 -165c21 -37 52 -98 59 -111z" />
    <glyph glyph-name="afii10079" unicode="&#x43d;" horiz-adv-x="636" 
d="M413 490h139v-394h66v-83c-33 -14 -76 -22 -107 -22c-72 0 -98 28 -98 92v132h-191v-215h-140v402h-62v88h202v-194h191v194z" />
    <glyph glyph-name="afii10080" unicode="&#x43e;" horiz-adv-x="574" 
d="M534 245c0 -136 -70 -254 -251 -254c-174 0 -243 113 -243 253c0 138 75 257 249 257c177 0 245 -119 245 -256zM391 244c0 76 -17 157 -100 157c-86 0 -108 -79 -108 -157c0 -84 17 -155 105 -155c84 0 103 76 103 155z" />
    <glyph glyph-name="afii10081" unicode="&#x43f;" horiz-adv-x="644" 
d="M410 397h-183v-397h-137v397h-66v92h593v-92h-68v-302h71v-82c-33 -14 -81 -22 -112 -22c-82 0 -98 41 -98 96v310z" />
    <glyph glyph-name="afii10082" unicode="&#x440;" horiz-adv-x="607" 
d="M20 -211v93h68v515h-68v93h199v-44l2 -1c42 35 107 53 150 53c152 0 200 -110 200 -243c0 -153 -56 -265 -211 -265c-33 0 -88 8 -133 30v-138h73v-93h-280zM329 93c50 0 101 28 101 160c0 118 -44 141 -99 141c-35 0 -80 -19 -104 -38v-234c24 -15 66 -29 102 -29z" />
    <glyph glyph-name="afii10083" unicode="&#x441;" horiz-adv-x="494" 
d="M287 501c54 0 110 -8 155 -25v-148h-94v66c-17 3 -33 5 -47 5c-84 0 -121 -56 -121 -155c0 -110 46 -152 122 -152c47 0 95 10 136 25l26 -88c-45 -23 -117 -38 -184 -38c-190 0 -240 113 -240 249c0 114 43 261 247 261z" />
    <glyph glyph-name="afii10084" unicode="&#x442;" horiz-adv-x="543" 
d="M137 0v90h65v312h-89v-71h-93v159h503v-159h-93v71h-89v-312h68v-90h-272z" />
    <glyph glyph-name="afii10085" unicode="&#x443;" horiz-adv-x="597" 
d="M296 89c15 46 30 92 44 139l57 171h-56v91h236v-91h-48c-58 -164 -120 -330 -179 -493c-25 -70 -57 -121 -160 -121c-20 0 -60 0 -122 20c5 30 10 60 16 90c28 -5 53 -9 76 -9c62 0 74 44 101 125h-66l-129 381h-51v98h155l79 -260l42 -141h5z" />
    <glyph glyph-name="afii10086" unicode="&#x444;" horiz-adv-x="758" 
d="M242 -211v89h69v114c-205 7 -271 129 -271 253c0 146 97 251 271 256v127h-70v88h205v-215c178 -3 272 -102 272 -249c0 -146 -90 -256 -272 -260v-114h75v-89h-279zM446 407v-324c90 4 138 66 138 162c0 87 -32 159 -138 162zM311 407c-98 -5 -137 -76 -137 -161
c0 -99 42 -161 137 -163v324z" />
    <glyph glyph-name="afii10087" unicode="&#x445;" horiz-adv-x="587" 
d="M32 403l1 90h169l111 -155l53 66h-46v89h227v-89h-50l-133 -153l120 -162h69v-89h-262v89h35l-61 83l-69 -83h34v-89h-206l1 89h38l145 173l-103 141h-73z" />
    <glyph glyph-name="afii10050" unicode="&#x490;" horiz-adv-x="619" 
d="M350 0h-307v94h70v500h-69v93h458v131h101v-224h-347v-500h94v-94z" />
    <glyph glyph-name="afii10098" unicode="&#x491;" horiz-adv-x="498" 
d="M300 0h-264v90h54v311h-53v89h346v114h94v-203h-249v-311h72v-90z" />
    <glyph glyph-name="Wgrave" unicode="&#x1e80;" horiz-adv-x="1042" 
d="M522 384h-2l-30 -101l-86 -283h-176l-160 591h-57v97h271v-97h-61l76 -310l35 -151h3l41 150l79 272l-13 39h-63l-1 97h274l1 -97h-67l97 -313l41 -134h3l32 145l70 302h-62v97h267v-97h-60c-27 -108 -133 -484 -159 -591h-177l-86 286zM514 736l-172 139l70 77l148 -169
z" />
    <glyph glyph-name="wgrave" unicode="&#x1e81;" horiz-adv-x="897" 
d="M626 99h4l35 127l50 172h-54v93h224v-93l-44 -1l-122 -397h-180l-50 129l-43 115h-5l-39 -115l-41 -129h-180l-117 389h-52v102h155l71 -251l39 -142h6l39 125l51 154l-8 20h-70v94h269v-94h-50l66 -177zM459 532l-174 140l72 77l148 -169z" />
    <glyph glyph-name="Wacute" unicode="&#x1e82;" horiz-adv-x="1042" 
d="M522 384h-2l-30 -101l-86 -283h-176l-160 591h-57v97h271v-97h-61l76 -310l35 -151h3l41 150l79 272l-13 39h-63l-1 97h274l1 -97h-67l97 -313l41 -134h3l32 145l70 302h-62v97h267v-97h-60c-27 -108 -133 -484 -159 -591h-177l-86 286zM702 876l-174 -139l-47 48
l148 169z" />
    <glyph glyph-name="wacute" unicode="&#x1e83;" horiz-adv-x="897" 
d="M626 99h4l35 127l50 172h-54v93h224v-93l-44 -1l-122 -397h-180l-50 129l-43 115h-5l-39 -115l-41 -129h-180l-117 389h-52v102h155l71 -251l39 -142h6l39 125l51 154l-8 20h-70v94h269v-94h-50l66 -177zM591 672l-174 -140l-46 48l147 169z" />
    <glyph glyph-name="Wdieresis" unicode="&#x1e84;" horiz-adv-x="1042" 
d="M522 384h-2l-30 -101l-86 -283h-176l-160 591h-57v97h271v-97h-61l76 -310l35 -151h3l41 150l79 272l-13 39h-63l-1 97h274l1 -97h-67l97 -313l41 -134h3l32 145l70 302h-62v97h267v-97h-60c-27 -108 -133 -484 -159 -591h-177l-86 286zM674 785c0 -33 -26 -58 -60 -58
c-32 0 -57 25 -57 58c0 32 25 58 57 58c34 0 60 -25 60 -58zM474 785c0 -33 -26 -58 -59 -58s-58 25 -58 58c0 32 26 58 57 58c34 0 60 -25 60 -58z" />
    <glyph glyph-name="wdieresis" unicode="&#x1e85;" horiz-adv-x="897" 
d="M626 99h4l35 127l50 172h-54v93h224v-93l-44 -1l-122 -397h-180l-50 129l-43 115h-5l-39 -115l-41 -129h-180l-117 389h-52v102h155l71 -251l39 -142h6l39 125l51 154l-8 20h-70v94h269v-94h-50l66 -177zM582 590c0 -32 -26 -57 -61 -57c-32 0 -57 25 -57 57
c0 33 26 58 57 58c35 0 61 -24 61 -58zM381 590c0 -32 -25 -57 -59 -57c-33 0 -58 25 -58 57c0 33 27 58 57 58c35 0 60 -24 60 -58z" />
    <glyph glyph-name="Ygrave" unicode="&#x1ef2;" horiz-adv-x="666" 
d="M336 370l121 221h-58v97h255v-97h-55l-193 -319v-177h78v-95h-307v95h78v175l-189 321h-53v97h257v-97h-57l119 -221h4zM343 736l-172 139l70 77l148 -169z" />
    <glyph glyph-name="ygrave" unicode="&#x1ef3;" horiz-adv-x="597" 
d="M299 101c12 39 79 248 95 296h-54v93h234v-93h-47l-181 -508c-24 -67 -60 -104 -148 -104c-9 0 -68 0 -130 20l19 100c28 -5 52 -9 75 -9c44 0 59 13 69 38l30 77h-63c-43 126 -80 253 -123 380h-54v99h155c20 -64 105 -340 119 -389h4zM303 532l-174 140l72 77l148 -169
z" />
    <glyph glyph-name="afii00208" unicode="&#x2015;" horiz-adv-x="1000" 
d="M948 214h-898v86h898v-86z" />
    <glyph glyph-name="fraction" unicode="&#x2044;" horiz-adv-x="107" 
d="M265 708l-315 -728h-82l315 728h82z" />
    <glyph glyph-name="fraction" unicode="&#x2215;" horiz-adv-x="107" 
d="M265 708l-315 -728h-82l315 728h82z" />
    <glyph glyph-name="dong" unicode="&#x20ab;" horiz-adv-x="597" 
d="M361 144l-3 1c-35 -28 -85 -44 -122 -44c-125 0 -164 81 -164 189c0 121 46 205 173 205c27 0 77 -10 110 -28v64h-110v44h110v45h-62v68h172v-113h55v-44h-55v-352h58v-70h-162v35zM271 415c-44 0 -88 -20 -88 -125c0 -90 38 -110 85 -110c26 0 68 16 87 33v179
c-19 12 -55 23 -84 23zM525 0h-441v69h441v-69z" />
    <glyph glyph-name="centigrade" unicode="&#x2103;" horiz-adv-x="954" 
d="M532 345c0 -162 52 -240 205 -240c33 0 109 6 160 21l22 -100c-57 -22 -145 -36 -215 -36c-251 0 -323 156 -323 352c0 161 63 359 333 359c73 0 133 -11 183 -28v-193h-101v103c-26 7 -55 9 -79 9c-134 0 -185 -98 -185 -247zM337 572c0 -82 -66 -149 -148 -149
c-87 0 -149 62 -149 149c0 81 68 149 149 149c82 0 148 -59 148 -149zM267 570c0 46 -29 83 -79 83c-46 0 -79 -37 -79 -83c0 -45 33 -79 79 -79c44 0 79 34 79 79z" />
    <glyph glyph-name="fahrenheit" unicode="&#x2109;" horiz-adv-x="981" 
d="M337 572c0 -82 -66 -149 -148 -149c-87 0 -149 62 -149 149c0 81 68 149 149 149c82 0 148 -59 148 -149zM267 570c0 46 -29 83 -79 83c-46 0 -79 -37 -79 -83c0 -45 33 -79 79 -79c44 0 79 34 79 79zM698 0h-307v95h70v497h-69v95h562v-202h-103v107h-247v-192l230 7
v-100l-230 6v-218h94v-95z" />
    <glyph glyph-name="afii61352" unicode="&#x2116;" horiz-adv-x="1178" 
d="M552 214h4v380h-68v93h268v-93h-65v-594h-140c-72 112 -172 287 -246 401l-60 99h-2v-406h68v-94h-270v94h70v500h-70v93h222c64 -103 159 -259 223 -364c17 -28 49 -82 66 -109zM1143 516c0 -89 -49 -167 -175 -167c-121 0 -169 75 -169 167c0 91 52 168 174 168
c123 0 170 -77 170 -168zM1138 233h-332v86h332v-86zM1039 516c0 47 -11 99 -66 99c-56 0 -70 -52 -70 -100c0 -51 11 -96 70 -96c54 0 66 48 66 97z" />
    <glyph glyph-name="published" unicode="&#x2117;" horiz-adv-x="858" 
d="M659 420c0 -68 -41 -150 -154 -150h-93v-120h61v-64h-206v64h48v353h-48v63h229c107 0 163 -55 163 -146zM480 503h-68v-172h71c42 0 76 26 76 86c0 58 -32 86 -79 86zM808 330c0 -208 -172 -378 -380 -378c-210 0 -381 170 -381 378s171 378 381 378
c208 0 380 -170 380 -378zM748 330c0 176 -142 319 -320 319c-176 0 -321 -143 -321 -319c0 -175 145 -318 321 -318c178 0 320 143 320 318z" />
    <glyph glyph-name="Ohm" unicode="&#x2126;" horiz-adv-x="755" 
d="M610 98l1 -4h108v-94h-288v98c89 24 117 113 117 254s-38 246 -166 246c-124 0 -173 -99 -173 -244c0 -144 27 -233 112 -255v-99h-288v94h106l3 3c-68 50 -83 151 -83 260c0 191 100 344 320 344c224 0 321 -153 321 -341c0 -104 -24 -207 -90 -262z" />
    <glyph glyph-name="angstrom" unicode="&#x212b;" horiz-adv-x="736" 
d="M453 94h63l-30 96h-245c-8 -25 -22 -65 -30 -96h65v-94h-256v94h55l208 593h177l201 -593h55v-94h-263v94zM367 713c-70 0 -124 54 -124 120c0 63 54 119 124 119s120 -55 120 -119c0 -68 -53 -120 -120 -120zM458 282l-75 239c-4 17 -10 34 -15 52h-3l-16 -53
c-22 -67 -56 -170 -77 -238h186zM367 887c-32 0 -57 -27 -57 -57c0 -28 23 -54 57 -54c31 0 53 26 53 54c0 30 -21 57 -53 57z" />
    <glyph glyph-name="gradient" unicode="&#x2207;" horiz-adv-x="719" 
d="M683 688v-83l-234 -604h-171l-245 602v85h650zM536 595h-360c36 -102 78 -201 134 -354c16 -46 32 -90 49 -135h3c13 40 27 79 41 119c47 123 87 247 133 370z" />
    <glyph glyph-name="product" unicode="&#x220f;" horiz-adv-x="786" 
d="M744 -107h-276v95h62v605h-274v-605h63v-95h-276v95h69v605h-69v95h701v-95h-69v-605h69v-95z" />
    <glyph glyph-name="summation" unicode="&#x2211;" horiz-adv-x="622" 
d="M211 594l161 -283v-27l-167 -297h283v113h102v-208h-563v83l187 323l-181 311v79h545v-204h-99v110h-268z" />
    <glyph glyph-name="minus" unicode="&#x2212;" horiz-adv-x="597" 
d="M513 261h-412v83h412v-83z" />
    <glyph glyph-name="radical" unicode="&#x221a;" horiz-adv-x="555" 
d="M83 242c-9 26 -19 52 -27 78c41 21 83 43 125 66l90 -294h3l190 654h92l-240 -799h-91c-33 104 -66 210 -100 315z" />
    <glyph glyph-name="infinity" unicode="&#x221e;" horiz-adv-x="786" 
d="M215 429c68 0 130 -45 179 -93c50 51 103 93 184 93c96 0 165 -66 165 -159c0 -91 -74 -164 -175 -164c-61 0 -116 37 -174 96c-50 -49 -104 -96 -185 -96c-93 0 -166 70 -166 162c0 88 70 161 172 161zM213 347c-41 0 -69 -36 -69 -79c0 -45 32 -80 73 -80
c45 0 86 41 120 78c-36 41 -76 81 -124 81zM571 347c-41 0 -86 -41 -121 -78c46 -47 79 -81 120 -81c44 0 73 39 73 81c0 49 -32 78 -72 78z" />
    <glyph glyph-name="logicaland" unicode="&#x2227;" horiz-adv-x="587" 
d="M151 1h-110c62 146 152 352 213 498h76c65 -146 161 -352 225 -498h-111c-46 102 -107 243 -151 346c-16 -39 -115 -287 -142 -346z" />
    <glyph glyph-name="logicalor" unicode="&#x2228;" horiz-adv-x="597" 
d="M41 498h110c42 -103 100 -261 142 -364c26 60 125 309 151 364h111l-225 -498h-76z" />
    <glyph glyph-name="intersection" unicode="&#x2229;" horiz-adv-x="618" 
d="M308 408c-89 0 -120 -61 -120 -122v-286h-107l-1 289c0 123 87 216 229 216c151 0 235 -99 235 -234v-271h-109v281c0 61 -32 127 -127 127z" />
    <glyph glyph-name="union" unicode="&#x222a;" horiz-adv-x="618" 
d="M308 91c95 0 127 67 127 128v278h109v-269c0 -135 -84 -234 -235 -234c-142 0 -229 94 -229 216l1 287h107v-284c0 -61 31 -122 120 -122z" />
    <glyph glyph-name="integral" unicode="&#x222b;" horiz-adv-x="328" 
d="M129 7c-1 209 -28 361 -28 573c0 104 56 172 153 172c29 0 50 -2 86 -11l-11 -76c-21 3 -33 5 -53 5c-62 0 -79 -31 -79 -97c0 -213 29 -339 29 -569c0 -104 -64 -172 -154 -172c-29 0 -51 3 -87 13l12 75c22 -3 35 -4 55 -4c60 0 77 30 77 91z" />
    <glyph glyph-name="approxequal" unicode="&#x2248;" horiz-adv-x="597" 
d="M386 323c-78 0 -154 43 -205 43l-66 -43l-42 32c25 66 66 96 117 96c64 0 150 -42 207 -42l62 44l42 -31c-23 -63 -62 -99 -115 -99zM386 177c-78 0 -154 42 -205 42l-66 -43l-42 34c25 65 66 93 117 93c64 0 150 -42 207 -42l62 44l42 -30c-23 -63 -62 -98 -115 -98z
" />
    <glyph glyph-name="notequal" unicode="&#x2260;" horiz-adv-x="597" 
d="M514 508l-73 -87h69v-81h-131l-67 -80h198v-80h-262l-92 -110h-78l93 110h-85v80h148l66 80h-214v81h278l77 88z" />
    <glyph glyph-name="lessequal" unicode="&#x2264;" horiz-adv-x="597" 
d="M510 224v-99l-454 177v70l454 168v-100l-333 -102c50 -17 283 -99 333 -114zM509 0h-454v83h454v-83z" />
    <glyph glyph-name="greaterequal" unicode="&#x2265;" horiz-adv-x="597" 
d="M526 0h-455v84h455v-84zM70 126v99l334 113c-50 13 -283 89 -334 102v101l455 -168v-71z" />
    <glyph glyph-name="lozenge" unicode="&#x25ca;" horiz-adv-x="530" 
d="M467 318l-173 -336h-82c-17 34 -156 301 -174 336l175 337h82zM354 318l-101 202c-12 -26 -87 -175 -99 -201c12 -26 90 -177 101 -202c14 26 86 174 99 201z" />
    <glyph glyph-name="zero.text" unicode="&#xe000;" horiz-adv-x="597" 
d="M567 332c0 -176 -68 -340 -267 -340c-215 0 -272 160 -272 338c0 168 58 346 272 346c216 0 267 -183 267 -344zM427 330c0 105 -12 245 -127 245s-132 -138 -132 -246c0 -134 23 -237 132 -237c103 0 127 116 127 238z" />
    <glyph glyph-name="one.text" unicode="&#xe001;" horiz-adv-x="533" 
d="M63 0v92h142v457c-16 -2 -135 -18 -150 -19l-15 76l180 61h123v-575h139v-92h-419z" />
    <glyph glyph-name="two.text" unicode="&#xe002;" horiz-adv-x="597" 
d="M505 479c0 -149 -175 -292 -281 -386v-1c68 0 137 -1 205 -1v77h104v-168h-494v83c130 110 325 266 325 388c0 64 -38 96 -113 96c-34 0 -95 -10 -167 -52c-15 28 -28 56 -43 84c83 57 167 76 233 76c140 0 231 -69 231 -196z" />
    <glyph glyph-name="three.text" unicode="&#xe003;" horiz-adv-x="597" 
d="M77 667h430l17 -75l-190 -187c118 -9 204 -65 204 -189c0 -151 -121 -226 -268 -226c-62 0 -154 11 -222 46c4 12 27 79 32 91c74 -23 123 -30 167 -30c93 0 149 40 149 118c0 67 -46 109 -158 109c-16 0 -30 -1 -48 -4l-17 69c44 45 143 140 188 184h-182v-78h-102v172z
" />
    <glyph glyph-name="four.text" unicode="&#xe004;" horiz-adv-x="597" 
d="M330 667h141v-386h97v-92h-97v-97h67v-92h-264v92h63v97h-307v81zM337 512h-5c-50 -67 -128 -165 -178 -231h184z" />
    <glyph glyph-name="five.text" unicode="&#xe005;" horiz-adv-x="597" 
d="M261 335c-32 0 -69 -9 -105 -25l-69 37l25 320h394v-160h-105v67h-179l-12 -158c22 8 47 15 90 15c133 0 240 -69 240 -212c0 -152 -120 -228 -265 -228c-61 0 -157 9 -225 46l32 94c75 -23 125 -31 168 -31c89 0 150 37 150 119c0 79 -63 116 -139 116z" />
    <glyph glyph-name="six.text" unicode="&#xe006;" horiz-adv-x="597" 
d="M183 383l5 -4c50 27 101 42 155 42c107 0 205 -64 205 -207s-102 -222 -245 -222c-192 0 -257 134 -257 308c0 210 82 375 294 375c70 0 122 -13 151 -25l-22 -94c-49 16 -91 19 -120 19c-124 0 -160 -121 -166 -192zM309 327c-70 0 -112 -35 -124 -41v-19
c0 -73 17 -174 119 -174c71 0 111 48 111 119c0 65 -24 115 -106 115z" />
    <glyph glyph-name="seven.text" unicode="&#xe007;" horiz-adv-x="533" 
d="M153 479h-106v187h443v-87c-89 -194 -176 -386 -265 -579h-132l260 574h-200v-95z" />
    <glyph glyph-name="eight.text" unicode="&#xe008;" horiz-adv-x="597" 
d="M206 499c0 -53 57 -72 128 -105c52 39 69 70 69 102c0 38 -29 84 -102 84c-68 0 -95 -51 -95 -81zM295 94c75 0 116 47 116 98c0 56 -49 85 -154 127c-60 -41 -76 -89 -76 -131c0 -51 38 -94 114 -94zM530 506c0 -46 -18 -102 -90 -156c63 -33 109 -87 109 -167
c0 -109 -100 -191 -256 -191c-159 0 -252 73 -252 184c0 60 27 140 116 192c-56 35 -83 71 -83 133c0 102 96 178 229 178c103 0 227 -47 227 -173z" />
    <glyph glyph-name="nine.text" unicode="&#xe009;" horiz-adv-x="597" 
d="M406 284l-5 3c-48 -28 -102 -43 -154 -43c-112 0 -206 66 -206 207c0 144 103 224 245 224c192 0 257 -135 257 -310c0 -209 -83 -372 -295 -372c-70 0 -121 10 -156 22l21 92c52 -14 97 -17 127 -17c124 0 160 122 166 194zM280 338c69 0 113 34 124 41v19
c0 72 -16 173 -119 173c-72 0 -112 -47 -112 -117c0 -65 25 -116 107 -116z" />
    <glyph glyph-name="numbersign.text" unicode="&#xe00a;" horiz-adv-x="586" 
d="M530 395h-84l-31 -131h81l-5 -67h-90l-45 -197h-77l45 197h-114l-46 -197h-77l46 197h-75l6 67h84l30 131h-82l5 66h93l42 176h75l-41 -176h115l42 176h75l-40 -176h73zM255 395l-30 -131h114l30 131h-114z" />
    <glyph glyph-name="dollar.text" unicode="&#xe00b;" horiz-adv-x="597" 
d="M311 -76v816h43v-68c45 -4 94 -15 133 -37v-146h-81v76c-16 7 -33 11 -52 14v-195c87 -29 181 -68 181 -183c0 -110 -72 -174 -181 -191v-86h-43zM278 740v-816h-41v83c-56 5 -110 17 -163 45v150h82v-77c30 -14 53 -18 81 -21v206c-90 28 -166 71 -166 173
c0 104 65 171 166 188v69h41zM424 196c0 42 -29 63 -70 79v-166c41 9 70 36 70 87zM179 495c0 -42 23 -60 58 -75v153c-34 -10 -58 -34 -58 -78z" />
    <glyph glyph-name="euro.text" unicode="&#xe00c;" horiz-adv-x="597" 
d="M381 677c66 0 122 -11 168 -26v-155h-95v67c-20 6 -44 10 -71 10c-102 0 -152 -63 -166 -165h239v-52h-427v52h50c15 134 93 269 302 269zM29 262v50h427v-50h-239c14 -98 62 -163 175 -163c18 0 46 3 74 9v68h95v-158c-49 -16 -129 -27 -189 -27
c-199 0 -281 116 -294 271h-49z" />
    <glyph glyph-name="florin.text" unicode="&#xe00d;" horiz-adv-x="552" 
d="M105 312v86h94c15 113 20 282 203 282c35 0 79 -4 120 -18l-24 -90c-31 7 -44 8 -66 8c-75 0 -86 -46 -102 -182h101v-86h-109c-8 -59 -14 -119 -22 -178c-15 -124 -42 -250 -203 -250c-34 0 -78 3 -118 18c9 30 17 61 25 90c29 -7 44 -8 63 -8c59 0 81 29 96 112
c7 67 21 164 27 216h-85z" />
    <glyph glyph-name="sterling.text" unicode="&#xe00e;" horiz-adv-x="597" 
d="M69 373h67l6 93c9 129 74 215 219 215c76 0 137 -18 181 -37v-152h-99v75c-23 6 -46 11 -75 11c-72 0 -95 -43 -100 -120l-5 -85h157v-71h-162l-4 -60c-3 -59 -15 -119 -49 -151h331v-91h-481l1 91c56 34 68 97 72 157l3 54h-62v71z" />
    <glyph glyph-name="cent.text" unicode="&#xe00f;" horiz-adv-x="597" 
d="M293 -64v78c-163 12 -207 119 -207 247c0 106 37 241 207 259v91h56v-89c49 -2 98 -10 139 -25v-148h-94v66c-16 3 -32 5 -45 5v-307c46 0 94 10 135 25l26 -88c-40 -21 -101 -34 -161 -37v-77h-56zM226 265c0 -80 24 -124 67 -142v286c-46 -20 -67 -70 -67 -144z" />
    <glyph glyph-name="yen.text" unicode="&#xe010;" horiz-adv-x="597" 
d="M529 302h-464v50h107c-36 75 -73 147 -109 221h-48v94h236v-94h-55c33 -75 67 -148 101 -222h4c33 74 66 148 100 222h-57v94h233v-94h-47c-37 -74 -74 -146 -111 -221h110v-50zM65 257h464v-52h-167v-113h75v-92h-285v92h75v112l-1 1h-161v52z" />
    <glyph glyph-name="slashedzero" unicode="&#xe23f;" horiz-adv-x="597" 
d="M564 331c0 -175 -66 -338 -264 -338c-213 0 -269 159 -269 337c0 168 57 346 270 346c214 0 263 -183 263 -345zM198 155c51 121 116 281 167 402c-17 12 -38 19 -64 19c-116 0 -138 -130 -138 -235c0 -78 6 -142 35 -186zM432 330c0 54 -3 123 -31 170
c-49 -117 -114 -274 -164 -396c17 -10 38 -15 64 -15c106 0 131 116 131 241z" />
    <glyph glyph-name="schwacyrillic" unicode="&#x4d9;" horiz-adv-x="532" 
d="M258 88c70 0 94 58 97 123h-185c0 -73 20 -123 88 -123zM258 -8c-190 0 -215 152 -215 239v35h315c0 81 -31 137 -123 137c-51 0 -100 -12 -151 -31l-29 82c64 35 136 48 202 48c195 0 240 -118 240 -252c0 -108 -47 -258 -239 -258z" />
    <glyph glyph-name="onehalf" unicode="&#xbd;" horiz-adv-x="900" 
d="M59 265v75h89v239c-20 -2 -73 -8 -92 -11l-13 64l121 37h90v-329h87v-75h-282zM644 708l-315 -728h-82l315 728h82zM832 290c0 -82 -106 -166 -174 -215h112v40h81v-116h-326v66c85 63 200 156 200 216c0 31 -23 46 -62 46c-22 0 -59 -6 -108 -33l-35 65
c57 38 112 50 157 50c97 0 155 -42 155 -119z" />
    <glyph glyph-name="j" unicode="j" horiz-adv-x="328" 
d="M39 397v93h201v-432c0 -165 -61 -243 -226 -291l-38 86c109 64 124 103 124 200v344h-61zM250 636c0 -45 -39 -83 -83 -83c-46 0 -83 38 -83 83c0 46 37 83 83 83c44 0 83 -37 83 -83z" />
    <glyph glyph-name="Dcroat" unicode="&#x110;" horiz-adv-x="729" 
d="M367 0h-324v94h72v236h-68v64h68v200h-68v94h326c242 0 306 -158 306 -342c0 -185 -75 -346 -312 -346zM353 594h-93v-200h117v-64h-117v-236h92c73 0 176 45 176 247c0 206 -94 253 -175 253z" />
    <glyph glyph-name="partialdiff" unicode="&#x2202;" horiz-adv-x="535" 
d="M247 -10c-121 0 -213 79 -213 230c0 141 92 229 209 229c43 0 96 -11 139 -54c-9 166 -88 244 -205 244c-17 0 -33 0 -53 -3l-1 78c27 5 51 6 73 6c207 0 291 -166 291 -371c0 -239 -100 -359 -240 -359zM250 78c95 0 137 112 137 215c-46 57 -92 75 -138 75
c-78 0 -115 -76 -115 -146c0 -104 53 -144 116 -144z" />
    <glyph glyph-name="Eth" unicode="&#xd0;" horiz-adv-x="729" 
d="M367 0h-324v94h72v236h-68v64h68v200h-68v94h326c242 0 306 -158 306 -342c0 -185 -75 -346 -312 -346zM353 594h-93v-200h117v-64h-117v-236h92c73 0 176 45 176 247c0 206 -94 253 -175 253z" />
    <glyph glyph-name="afii10088" unicode="&#x446;" horiz-adv-x="657" 
d="M515 -147v147h-479v91h59v310h-60v89h198v-399h188v310h-48v89h240v-89h-52v-310h61v-238h-107z" />
    <glyph glyph-name="afii10089" unicode="&#x447;" horiz-adv-x="628" 
d="M17 491h206v-138c0 -59 18 -86 72 -86c34 0 70 7 100 22v202h140v-398h65v-82c-44 -17 -85 -21 -110 -21c-64 0 -95 39 -95 92v114c-45 -22 -100 -32 -149 -32c-118 0 -162 65 -162 162v75h-67v90z" />
    <glyph glyph-name="afii10090" unicode="&#x448;" horiz-adv-x="891" 
d="M613 400v89h237v-89h-55v-310h60v-90h-822v90h59v310h-60v89h199v-399h141v310h-41v89h222v-89h-43v-310h145v310h-42z" />
    <glyph glyph-name="afii10091" unicode="&#x449;" horiz-adv-x="894" 
d="M750 -147v147h-717v90h59v310h-60v89h199v-399h141v310h-41v89h222v-89h-43v-310h145v310h-42v89h237v-89h-55v-310h61v-237h-106z" />
    <glyph glyph-name="afii10092" unicode="&#x44a;" horiz-adv-x="695" 
d="M361 490v-184h127c102 0 180 -54 180 -152s-71 -154 -171 -154h-275v402h-114v-80h-94v168h347zM450 225h-89v-139h95c47 0 75 26 75 69c0 48 -32 70 -81 70z" />
    <glyph glyph-name="afii10093" unicode="&#x44b;" horiz-adv-x="835" 
d="M598 401h-53v90h192v-395h71v-83c-33 -14 -80 -21 -112 -21c-74 0 -98 36 -98 104v305zM230 490v-185h127c102 0 180 -54 180 -151c0 -98 -72 -154 -170 -154h-275v403h-68v87h206zM319 225h-89v-139h95c48 0 75 26 75 69c0 48 -33 70 -81 70z" />
    <glyph glyph-name="afii10094" unicode="&#x44c;" horiz-adv-x="565" 
d="M230 490v-185h127c102 0 180 -54 180 -151c0 -98 -72 -154 -170 -154h-275v403h-68v87h206zM319 225h-89v-139h95c48 0 75 26 75 69c0 48 -33 70 -81 70z" />
    <glyph glyph-name="afii10095" unicode="&#x44d;" horiz-adv-x="503" 
d="M216 502c198 0 241 -128 241 -248c0 -136 -60 -263 -251 -263c-65 0 -131 15 -179 39l26 84c41 -14 87 -25 133 -25c80 0 125 53 127 130l-161 -2v72l162 -2c-5 73 -36 121 -106 121c-21 0 -41 -3 -63 -8v-61h-91l-2 135c47 18 109 28 164 28z" />
    <glyph glyph-name="afii10096" unicode="&#x44e;" horiz-adv-x="824" 
d="M230 0h-139v401h-66v90h205v-197h80c15 115 89 208 238 208c168 0 236 -119 236 -256s-68 -255 -242 -255c-158 0 -224 100 -234 227h-78v-218zM644 245c0 76 -16 158 -96 158c-79 0 -101 -81 -101 -159c0 -84 14 -156 101 -156c78 0 96 77 96 157z" />
    <glyph glyph-name="afii10097" unicode="&#x44f;" horiz-adv-x="586" 
d="M231 490l308 1v-90h-51v-305h65v-83c-32 -14 -75 -22 -107 -22c-71 0 -97 28 -98 92v109h-74c-17 -33 -61 -112 -78 -145c-20 -36 -43 -59 -92 -59c-22 0 -57 4 -87 14v77l68 9c18 32 54 89 71 121c-65 15 -95 69 -95 128c0 104 78 153 170 153zM276 272h72v132h-77
c-46 0 -74 -25 -74 -70c0 -49 41 -62 79 -62z" />
    <glyph glyph-name="afii10071" unicode="&#x451;" horiz-adv-x="532" 
d="M279 405c-66 0 -94 -54 -97 -107h184c-1 56 -19 107 -87 107zM279 502c190 0 215 -141 215 -239v-50h-314c-1 -82 30 -122 122 -122c52 0 100 11 151 31l30 -84c-64 -34 -137 -48 -203 -48c-195 0 -240 124 -240 254c0 108 49 258 239 258zM437 614
c0 -32 -26 -57 -61 -57c-32 0 -57 25 -57 57c0 33 26 58 57 58c35 0 61 -24 61 -58zM236 614c0 -32 -25 -57 -59 -57c-33 0 -58 25 -58 57c0 33 27 58 57 58c35 0 60 -24 60 -58z" />
    <glyph glyph-name="afii10099" unicode="&#x452;" horiz-adv-x="605" 
d="M36 512v55h51v60h-77v89h218v-149h183v-55h-183v-95c50 25 101 38 144 38c137 0 195 -82 195 -249c0 -134 -49 -246 -232 -246c-9 0 -15 0 -23 1l1 94c80 5 117 31 117 152c0 122 -44 148 -96 148c-32 0 -73 -13 -106 -30v-325h-141v512h-51z" />
    <glyph glyph-name="afii10101" unicode="&#x454;" horiz-adv-x="494" 
d="M344 212l-161 2c4 -80 40 -126 119 -126c47 0 95 12 137 26l25 -83c-48 -25 -117 -39 -184 -39c-190 0 -240 112 -240 248c0 114 43 261 247 261c54 0 112 -10 158 -27c0 -44 -1 -89 -1 -135h-93v55c-19 6 -35 7 -53 7c-65 0 -108 -45 -116 -119l162 5v-75z" />
    <glyph glyph-name="afii10102" unicode="&#x455;" horiz-adv-x="499" 
d="M32 158h96l2 -58c23 -11 66 -17 95 -17c50 0 94 16 94 51c0 41 -40 54 -82 65c-96 27 -200 51 -200 149c0 105 82 153 211 153c60 0 128 -12 177 -38c0 -41 0 -82 1 -124h-97l-1 56c-20 8 -48 12 -71 12c-45 0 -78 -18 -78 -51c0 -32 48 -43 81 -52
c81 -22 202 -43 202 -170c0 -96 -83 -143 -228 -143c-57 0 -139 8 -201 39c0 41 0 87 -1 128z" />
    <glyph glyph-name="afii10103" unicode="&#x456;" horiz-adv-x="345" 
d="M100 397h-50v93h189v-394h71v-83c-32 -14 -80 -22 -111 -22c-72 0 -98 28 -99 92v314zM249 636c0 -45 -38 -83 -83 -83c-46 0 -82 38 -82 83c0 46 36 83 82 83c45 0 83 -37 83 -83z" />
    <glyph glyph-name="afii10105" unicode="&#x458;" horiz-adv-x="328" 
d="M39 397v93h201v-432c0 -165 -61 -243 -226 -291l-38 86c109 64 124 103 124 200v344h-61zM250 636c0 -45 -39 -83 -83 -83c-46 0 -83 38 -83 83c0 46 37 83 83 83c44 0 83 -37 83 -83z" />
    <glyph glyph-name="afii10106" unicode="&#x459;" horiz-adv-x="836" 
d="M363 403l-104 -1v-31c0 -194 -29 -345 -202 -388l-42 100c99 42 116 106 116 267v52h-75v88h445v-184h128c101 0 180 -54 180 -152s-72 -154 -171 -154h-275v403zM592 225h-91v-139h96c47 0 75 26 75 69c0 48 -33 70 -80 70z" />
    <glyph glyph-name="afii10107" unicode="&#x45a;" horiz-adv-x="865" 
d="M530 490v-189h127c102 0 181 -49 181 -147s-72 -154 -171 -154h-275v217h-166v-217h-139v402h-62v88h201v-197h166v110h-62v87h200zM623 220h-93v-134h99c44 0 72 24 72 67c0 48 -32 67 -78 67z" />
    <glyph glyph-name="afii10108" unicode="&#x45b;" horiz-adv-x="640" 
d="M86 519h-51v54h51v60h-66v83h207v-143h188v-54h-188v-115c52 36 114 55 164 55c128 0 158 -76 158 -167v-196h66v-83c-34 -14 -76 -22 -108 -22c-71 0 -97 28 -97 92v178c0 58 -13 91 -73 91c-33 0 -79 -18 -110 -38v-314h-141v519z" />
    <glyph glyph-name="afii10193" unicode="&#x45f;" horiz-adv-x="657" 
d="M622 0h-240v-158h-108v158h-238v90h59v311h-60v89h198v-400h188v311h-48v89h239v-89h-51v-310c12 0 48 -1 61 -1v-90z" />
    <glyph glyph-name="zcaron" unicode="&#x17e;" horiz-adv-x="512" 
d="M470 413l-270 -326h186v84h94v-171h-450v80l269 322h-159v-77h-94v166h424v-78zM422 734l35 -41l-156 -149h-87l-154 150l34 40l163 -100z" />
    <glyph glyph-name="zero.taboldstyle" unicode="&#xe024;" horiz-adv-x="597" 
d="M564 246c0 -120 -71 -254 -265 -254c-200 0 -268 125 -268 253c0 116 64 256 270 256c204 0 263 -141 263 -255zM424 245c0 57 -14 157 -124 157c-106 0 -130 -99 -130 -157c0 -80 29 -155 130 -155c95 0 124 87 124 155z" />
    <glyph glyph-name="one.taboldstyle" unicode="&#xe025;" horiz-adv-x="597" 
d="M103 0v90h143v285l-149 -21l-14 78l189 60h113v-402h135v-90h-417z" />
    <glyph glyph-name="two.taboldstyle" unicode="&#xe026;" horiz-adv-x="597" 
d="M269 93v-2h173v63h94v-154h-476v83c106 52 298 159 298 246c0 35 -31 67 -93 67c-35 0 -100 -12 -168 -52c-6 11 -38 73 -44 83c81 54 167 73 231 73c144 0 215 -65 215 -152c0 -112 -142 -208 -230 -255z" />
    <glyph glyph-name="three.taboldstyle" unicode="&#xe027;" horiz-adv-x="597" 
d="M68 489h423l17 -73c-43 -42 -140 -130 -184 -172c108 -9 195 -67 195 -179c0 -142 -116 -212 -259 -212c-61 0 -155 10 -219 43l30 85c69 -21 122 -29 166 -29c85 0 144 37 144 115c0 58 -40 104 -141 104c-21 0 -39 -1 -60 -3c-4 9 -13 55 -16 65c43 41 135 125 177 167
h-177v-76c-15 0 -83 -1 -96 -1v166z" />
    <glyph glyph-name="four.taboldstyle" unicode="&#xe028;" horiz-adv-x="597" 
d="M319 492h144v-400h93v-92h-93v-63h66v-80h-261v80h59v63h-302v84zM326 347h-5l-180 -255h185v255z" />
    <glyph glyph-name="five.taboldstyle" unicode="&#xe029;" horiz-adv-x="597" 
d="M260 178c-35 0 -71 -6 -105 -20l-64 32l24 301h388v-152h-98v62h-183l-12 -143c26 5 53 9 92 9c132 0 233 -67 233 -202c0 -142 -113 -212 -257 -212c-68 0 -160 13 -225 43l31 85c70 -21 119 -29 165 -29c89 0 148 37 148 116c0 76 -60 110 -137 110z" />
    <glyph glyph-name="six.taboldstyle" unicode="&#xe02a;" horiz-adv-x="597" 
d="M344 396c106 0 203 -59 203 -194c0 -134 -99 -210 -242 -210c-194 0 -259 127 -259 290c0 199 82 353 295 353c70 0 122 -15 151 -26l-22 -87c-47 15 -89 18 -119 18c-124 0 -161 -111 -166 -183c53 28 109 39 159 39zM410 197c0 58 -26 107 -105 107
c-66 0 -109 -32 -119 -38v-18c0 -64 12 -159 114 -159c74 0 110 47 110 108z" />
    <glyph glyph-name="seven.taboldstyle" unicode="&#xe02b;" horiz-adv-x="597" 
d="M183 315h-99v176h432v-82l-259 -551h-131l256 544h-199v-87z" />
    <glyph glyph-name="eight.taboldstyle" unicode="&#xe02c;" horiz-adv-x="597" 
d="M212 469c-2 -49 63 -70 122 -96c49 35 67 64 67 92c0 35 -28 77 -98 77c-66 0 -91 -46 -91 -73zM297 90c73 0 111 43 111 90c1 51 -48 83 -148 119c-55 -39 -72 -84 -72 -121c0 -47 37 -88 109 -88zM525 475c0 -42 -16 -95 -85 -146c62 -31 105 -81 105 -156
c0 -102 -97 -181 -250 -181c-155 0 -245 69 -245 173c0 57 28 131 110 181c-53 33 -78 66 -78 124c0 97 94 168 223 168c101 0 220 -44 220 -163z" />
    <glyph glyph-name="nine.taboldstyle" unicode="&#xe02d;" horiz-adv-x="597" 
d="M250 95c-106 0 -203 59 -203 194c0 134 102 210 245 210c194 0 256 -127 256 -290c0 -199 -82 -353 -295 -353c-70 0 -124 13 -154 24l24 88c50 -15 90 -18 120 -18c124 0 161 112 166 184c-53 -29 -109 -39 -159 -39zM184 294c0 -58 26 -107 105 -107
c66 0 109 31 119 38v18c0 64 -12 159 -114 159c-74 0 -110 -47 -110 -108z" />
    <glyph glyph-name="numbersign.taboldstyle" unicode="&#xe02e;" horiz-adv-x="597" 
d="M513 336h-76l-27 -112h72l-4 -56h-82l-40 -168h-69l40 168h-102l-41 -168h-69l41 168h-68l5 56h76l28 112h-74l4 56h84l37 148h68l-36 -148h103l38 148h67l-36 -148h66zM266 336l-27 -112h103l27 112h-103z" />
    <glyph glyph-name="dollar.taboldstyle" unicode="&#xe02f;" horiz-adv-x="597" 
d="M280 628v-693h-41v71c-51 5 -98 15 -146 39v130h76v-65c25 -11 47 -16 70 -18v169c-74 25 -149 67 -149 149c0 88 60 146 149 161v57h41zM307 -65v693h42v-56c40 -3 83 -13 118 -31v-127h-74v63c-12 6 -28 10 -44 12v-160c76 -25 160 -60 160 -157
c0 -94 -64 -149 -160 -164v-73h-42zM191 421c0 -37 19 -51 48 -63v129c-28 -9 -48 -29 -48 -66zM407 167c0 36 -24 54 -58 68v-142c36 9 58 30 58 74z" />
    <glyph glyph-name="euro.taboldstyle" unicode="&#xe030;" horiz-adv-x="597" 
d="M59 266h382v-43h-212c9 -103 78 -138 160 -138c14 0 39 2 64 7v49h83v-124c-44 -14 -117 -23 -169 -23c-178 0 -252 98 -264 229h-44v43zM442 300h-383v48h44c13 113 84 227 271 227c61 0 113 -9 154 -23v-134h-89v58c-18 6 -41 8 -66 8c-84 0 -141 -54 -143 -136h212
v-48z" />
    <glyph glyph-name="florin.taboldstyle" unicode="&#xe031;" horiz-adv-x="597" 
d="M159 261v79h89c16 119 26 262 214 262c31 -2 64 -7 94 -16l-21 -86c-24 5 -40 7 -57 7c-86 0 -89 -42 -110 -167h103v-79h-110c-7 -70 -14 -132 -23 -188c-19 -125 -45 -212 -214 -212c-27 0 -57 7 -85 17l21 83c27 -6 42 -9 59 -9c60 0 80 28 93 103
c12 67 21 152 27 206h-80z" />
    <glyph glyph-name="sterling.taboldstyle" unicode="&#xe032;" horiz-adv-x="597" 
d="M512 0h-435c0 26 1 53 1 80c45 23 61 75 64 118l4 57h-57v63h62c2 34 4 67 8 97c15 95 71 164 194 164c69 0 124 -16 164 -34v-130h-90v64c-22 5 -42 9 -67 9c-61 0 -84 -35 -88 -94l-4 -76h140v-63h-145c-6 -57 -6 -132 -45 -173h294v-82z" />
    <glyph glyph-name="cent.taboldstyle" unicode="&#xe033;" horiz-adv-x="597" 
d="M284 -35v64c-140 11 -179 104 -179 213c0 90 30 204 179 221v76h54v-75c42 -1 84 -9 120 -22v-129h-87v57c-11 2 -24 3 -33 3v-253c39 0 80 9 115 22l25 -80c-36 -18 -87 -29 -140 -32v-65h-54zM225 245c0 -70 21 -108 59 -120v244c-39 -16 -59 -62 -59 -124z" />
    <glyph glyph-name="yen.taboldstyle" unicode="&#xe034;" horiz-adv-x="597" 
d="M508 254h-419v48h95c-32 59 -65 123 -97 183h-44v83h216v-83h-48c30 -60 59 -122 88 -182h1c30 61 60 122 88 182h-49v83h212v-83h-43c-33 -61 -65 -122 -97 -183h97v-48zM89 221h419v-50h-149v-91h66v-80h-259v80h67v91h-144v50z" />
    <glyph glyph-name="ampersandsmall" unicode="&#xe0fb;" horiz-adv-x="646" 
d="M237 -11c-111 0 -199 51 -199 151c0 61 41 115 127 159c-28 32 -37 66 -37 95c0 58 39 115 136 115c111 0 139 -66 139 -106c0 -57 -50 -97 -108 -129c33 -40 74 -87 126 -131c27 24 48 56 56 93h-53v74h208v-74h-54c-10 -57 -43 -106 -90 -149c31 -23 73 -50 114 -70
l-45 -69c-38 19 -100 52 -143 86c-52 -30 -114 -45 -177 -45zM346 93c-52 44 -99 98 -130 139c-39 -22 -69 -50 -69 -86c0 -50 41 -78 96 -78c30 0 71 2 103 25zM225 398c0 -17 10 -38 27 -62c32 16 63 36 63 65c0 24 -19 39 -49 39c-29 0 -41 -25 -41 -42z" />
    <glyph glyph-name="exclamsmall" unicode="&#xe0fc;" horiz-adv-x="230" 
d="M57 525h117l-1 -190l-11 -185h-91l-11 185zM115 105c41 0 65 -25 65 -57c0 -31 -26 -58 -64 -58c-40 0 -65 27 -65 58c0 30 25 57 64 57z" />
    <glyph glyph-name="questionsmall" unicode="&#xe0fd;" horiz-adv-x="405" 
d="M208 527c115 0 176 -44 178 -116c0 -71 -60 -102 -100 -138c-40 -31 -64 -57 -64 -86c0 -7 1 -19 5 -40c-14 -1 -88 -3 -102 -5c-4 20 -7 48 -7 59c0 53 33 80 87 121c31 24 53 45 53 72c0 31 -28 47 -71 47c-19 0 -42 -2 -65 -7v-62h-88v127c64 23 129 28 174 28z
M187 103c35 0 65 -26 65 -56c0 -31 -30 -56 -65 -56c-36 0 -64 25 -64 56c0 30 28 56 64 56z" />
    <glyph glyph-name="Asmall" unicode="&#xe0fe;" horiz-adv-x="626" 
d="M420 86l-21 59h-179l-21 -59h48v-86h-223v86h47l165 427h157l162 -427h46v-86h-228v86h47zM313 418h-4l-28 -87l-36 -109h131l-36 109z" />
    <glyph glyph-name="Bsmall" unicode="&#xe0ff;" horiz-adv-x="584" 
d="M526 374c0 -28 -12 -78 -66 -105c61 -20 84 -71 84 -121c0 -90 -79 -148 -184 -148h-318v86h57v341h-55v86h304c120 0 178 -58 178 -139zM326 222h-94v-136h94c56 0 80 31 80 68c0 38 -26 68 -80 68zM315 427h-83v-122h83c49 0 76 24 76 62c0 37 -23 60 -76 60z" />
    <glyph glyph-name="Csmall" unicode="&#xe100;" horiz-adv-x="533" 
d="M476 107c7 -28 14 -58 22 -86c-50 -18 -125 -27 -184 -27c-208 0 -268 114 -268 260c0 119 52 267 276 267c61 0 113 -8 157 -22v-152h-100v75c-15 3 -35 4 -55 4c-100 0 -139 -67 -139 -170c0 -123 48 -166 155 -166c28 0 91 6 136 17z" />
    <glyph glyph-name="Dsmall" unicode="&#xe101;" horiz-adv-x="619" 
d="M312 0h-270v86h59v341h-56v86h271c202 0 255 -118 255 -255c0 -138 -63 -258 -259 -258zM300 427h-65v-341h65c53 0 133 26 133 168c0 145 -73 173 -133 173z" />
    <glyph glyph-name="Esmall" unicode="&#xe102;" horiz-adv-x="555" 
d="M519 0h-477v86h56v341h-54v86h465v-153h-99v67h-179v-122l168 6v-91l-168 6v-140h188v71h100v-157z" />
    <glyph glyph-name="Fsmall" unicode="&#xe103;" horiz-adv-x="540" 
d="M306 0h-264v86h57v341h-55v86h465v-153h-98v67h-180v-122l168 5v-89l-168 5v-140h75v-86z" />
    <glyph glyph-name="Gsmall" unicode="&#xe104;" horiz-adv-x="587" 
d="M334 523c60 0 117 -10 162 -22v-141h-100v62c-15 4 -38 6 -58 6c-106 0 -151 -66 -151 -172c0 -104 33 -166 136 -166c20 0 48 3 66 7v103h-61v73h222v-73h-39v-178c-64 -21 -135 -29 -194 -29c-209 0 -269 119 -269 262c0 118 52 268 286 268z" />
    <glyph glyph-name="Hsmall" unicode="&#xe105;" horiz-adv-x="666" 
d="M623 0h-232v86h44v140h-205v-140h46v-86h-233v86h56v341h-56v85h233v-85h-46v-122h205v122h-44v85h232v-85h-56v-341h56v-86z" />
    <glyph glyph-name="Ismall" unicode="&#xe106;" horiz-adv-x="365" 
d="M303 0h-241v86h54v341h-54v86h241v-86h-54v-341h54v-86z" />
    <glyph glyph-name="Jsmall" unicode="&#xe107;" horiz-adv-x="380" 
d="M62 427v86h267v-86h-62c0 -66 -1 -243 -1 -308c0 -142 -90 -223 -250 -258l-26 80c114 50 144 88 144 172v314h-72z" />
    <glyph glyph-name="Ksmall" unicode="&#xe108;" horiz-adv-x="610" 
d="M523 430l-149 -120l170 -227h49v-83h-236l-1 83h40l-115 157l-52 -43v-115h43v-82h-229v82h55v348h-55v83h228v-83h-42v-133l158 133h-38v83h227v-83h-53z" />
    <glyph glyph-name="Lsmall" unicode="&#xe109;" horiz-adv-x="534" 
d="M515 0h-473v86h57v341h-55v86h246v-86h-59v-341h183v88h101v-174z" />
    <glyph glyph-name="Msmall" unicode="&#xe10a;" horiz-adv-x="812" 
d="M405 205h4l47 101l98 206h214v-86h-51v-340h51v-86h-225v86h44v256h-4l-40 -88l-88 -181l-95 1l-90 180l-42 90h-3v-258h43v-86h-225v86h56v340h-56v86h212l99 -200z" />
    <glyph glyph-name="Nsmall" unicode="&#xe10b;" horiz-adv-x="689" 
d="M462 186h5v240h-50v86h227v-86h-52v-426h-127c-60 89 -125 176 -185 266l-53 76h-6v-257h50v-85h-229v85h55v341h-55v86h192c58 -84 118 -165 175 -249c18 -26 35 -52 53 -77z" />
    <glyph glyph-name="Osmall" unicode="&#xe10c;" horiz-adv-x="629" 
d="M580 256c0 -151 -88 -263 -263 -263c-187 0 -268 106 -268 262c0 146 78 268 268 268c191 0 263 -123 263 -267zM441 255c0 89 -23 179 -124 179c-103 0 -130 -87 -130 -180c0 -110 37 -174 130 -174c86 0 124 76 124 175z" />
    <glyph glyph-name="Psmall" unicode="&#xe10d;" horiz-adv-x="540" 
d="M511 355c0 -75 -52 -163 -188 -163h-95v-106h71v-86h-257v86h54v341h-54v86h271c131 0 198 -62 198 -158zM298 427h-70v-153h74c42 0 76 22 76 77c0 54 -33 76 -80 76z" />
    <glyph glyph-name="Qsmall" unicode="&#xe10e;" horiz-adv-x="631" 
d="M580 256c0 -97 -36 -178 -108 -221c37 -9 83 -20 116 -27c-5 -13 -30 -84 -36 -98l-269 86h1c-165 13 -236 112 -236 259c0 146 80 268 269 268c191 0 263 -123 263 -267zM441 255c0 88 -23 179 -124 179c-103 0 -130 -88 -130 -180c0 -111 37 -174 130 -174
c86 0 124 75 124 175z" />
    <glyph glyph-name="Rsmall" unicode="&#xe10f;" horiz-adv-x="593" 
d="M312 207h-83v-121h54v-86h-237v86h51v341h-51v86h284c131 0 192 -61 192 -153c0 -46 -26 -107 -93 -133c17 -32 60 -110 76 -143c9 -1 54 -8 65 -9v-70c-28 -12 -71 -15 -92 -15c-51 0 -69 20 -88 58zM383 361c0 45 -32 66 -78 66h-76v-139h73c43 0 81 17 81 73z" />
    <glyph glyph-name="Ssmall" unicode="&#xe110;" horiz-adv-x="526" 
d="M267 433c-52 0 -85 -21 -85 -62c0 -36 46 -48 112 -65c93 -23 192 -53 192 -156c0 -102 -86 -158 -237 -158c-65 0 -140 11 -205 39v120h98v-51c34 -13 74 -18 99 -18c71 0 102 19 102 64c0 42 -42 54 -101 68c-109 22 -198 58 -198 148c0 94 79 159 219 159
c52 0 126 -10 181 -36v-117h-100v55c-24 8 -55 10 -77 10z" />
    <glyph glyph-name="Tsmall" unicode="&#xe111;" horiz-adv-x="538" 
d="M402 0h-265v86h66v341h-85v-76h-100v162h502v-162h-100v76h-85v-341h67v-86z" />
    <glyph glyph-name="Usmall" unicode="&#xe112;" horiz-adv-x="642" 
d="M560 427v-235c0 -121 -74 -198 -238 -198c-173 0 -240 75 -240 198v235h-47v86h225v-86h-48v-238c0 -73 39 -109 110 -109c66 0 108 35 108 109v238h-47v86h225v-86h-48z" />
    <glyph glyph-name="Vsmall" unicode="&#xe113;" horiz-adv-x="607" 
d="M307 110h4c5 18 23 73 28 89c21 60 54 167 73 228h-45v85h224v-85h-46c-34 -95 -128 -332 -161 -427h-156c-35 95 -129 331 -164 427h-46v85h230v-85h-47c23 -70 50 -153 79 -236c8 -22 17 -53 27 -81z" />
    <glyph glyph-name="Wsmall" unicode="&#xe114;" horiz-adv-x="876" 
d="M440 268h-4l-26 -80l-58 -188h-156l-125 427h-51v85h234v-85h-46l55 -200l24 -97h5l28 95l57 178l-10 24h-45v85h226v-85h-48l70 -206l25 -83h6l20 82l54 207h-48v85h230v-85h-51l-126 -427h-156l-59 190z" />
    <glyph glyph-name="Xsmall" unicode="&#xe115;" horiz-adv-x="601" 
d="M361 427v86h209v-86h-46l-139 -170l133 -170h54v-87h-258v87h46l-85 115l-85 -115h44v-87h-215v87h50l143 185l-118 155h-62v86h252v-86h-39l78 -104l78 104h-40z" />
    <glyph glyph-name="Ysmall" unicode="&#xe116;" horiz-adv-x="567" 
d="M282 290h8l35 55l52 82h-46v85h219v-85h-45c-31 -49 -121 -175 -152 -224v-117h62v-86h-266v86h62v116c-30 49 -119 176 -149 225h-45v85h223v-85h-39c10 -18 30 -51 50 -84z" />
    <glyph glyph-name="Zsmall" unicode="&#xe117;" horiz-adv-x="520" 
d="M478 437l-281 -351h196v73h100v-159h-466v76l281 351h-162v-60h-100v146h432v-76z" />
    <glyph glyph-name="Alphasmall" unicode="&#xe183;" horiz-adv-x="626" 
d="M420 86l-21 59h-179l-21 -59h48v-86h-223v86h47l165 427h157l162 -427h46v-86h-228v86h47zM313 418h-4l-28 -87l-36 -109h131l-36 109z" />
    <glyph glyph-name="Betasmall" unicode="&#xe184;" horiz-adv-x="584" 
d="M526 374c0 -28 -12 -78 -66 -105c61 -20 84 -71 84 -121c0 -90 -79 -148 -184 -148h-318v86h57v341h-55v86h304c120 0 178 -58 178 -139zM326 222h-94v-136h94c56 0 80 31 80 68c0 38 -26 68 -80 68zM315 427h-83v-122h83c49 0 76 24 76 62c0 37 -23 60 -76 60z" />
    <glyph glyph-name="Gammasmall" unicode="&#xe185;" horiz-adv-x="530" 
d="M306 0h-264v86h57v341h-55v86h465v-159h-98v73h-180v-341h75v-86z" />
    <glyph glyph-name="Deltasmall" unicode="&#xe186;" horiz-adv-x="612" 
d="M572 69v-69h-540v47l199 465h150c64 -147 127 -296 191 -443zM306 402h-6l-37 -91c-13 -31 -82 -195 -96 -226h267c-30 76 -64 152 -93 228z" />
    <glyph glyph-name="Epsilonsmall" unicode="&#xe187;" horiz-adv-x="555" 
d="M519 0h-477v86h56v341h-54v86h465v-153h-99v67h-179v-122l168 6v-91l-168 6v-140h188v71h100v-157z" />
    <glyph glyph-name="Zetasmall" unicode="&#xe188;" horiz-adv-x="520" 
d="M478 437l-281 -351h196v73h100v-159h-466v76l281 351h-162v-60h-100v146h432v-76z" />
    <glyph glyph-name="Etasmall" unicode="&#xe189;" horiz-adv-x="666" 
d="M623 0h-232v86h44v140h-205v-140h46v-86h-233v86h56v341h-56v85h233v-85h-46v-122h205v122h-44v85h232v-85h-56v-341h56v-86z" />
    <glyph glyph-name="Thetasmall" unicode="&#xe18a;" horiz-adv-x="629" 
d="M220 228v69l187 3v-73zM580 256c0 -151 -88 -263 -263 -263c-187 0 -268 106 -268 262c0 146 78 268 268 268c191 0 263 -123 263 -267zM441 255c0 89 -23 179 -124 179c-103 0 -130 -87 -130 -180c0 -110 37 -174 130 -174c86 0 124 76 124 175z" />
    <glyph glyph-name="Iotasmall" unicode="&#xe18b;" horiz-adv-x="365" 
d="M303 0h-241v86h54v341h-54v86h241v-86h-54v-341h54v-86z" />
    <glyph glyph-name="Kappasmall" unicode="&#xe18c;" horiz-adv-x="610" 
d="M523 430l-149 -120l170 -227h49v-83h-236l-1 83h40l-115 157l-52 -43v-115h43v-82h-229v82h55v348h-55v83h228v-83h-42v-133l158 133h-38v83h227v-83h-53z" />
    <glyph glyph-name="Lambdasmall" unicode="&#xe18d;" horiz-adv-x="620" 
d="M311 395c-2 0 -4 -1 -5 -1l-42 -120c-23 -62 -45 -126 -68 -189h48v-85h-225v85h48c55 144 111 284 167 427h156c54 -143 108 -283 162 -427h46v-85h-228v85h47c-22 68 -47 134 -70 200z" />
    <glyph glyph-name="Musmall" unicode="&#xe18e;" horiz-adv-x="812" 
d="M405 205h4l47 101l98 206h214v-86h-51v-340h51v-86h-225v86h44v256h-4l-40 -88l-88 -181l-95 1l-90 180l-42 90h-3v-258h43v-86h-225v86h56v340h-56v86h212l99 -200z" />
    <glyph glyph-name="Nusmall" unicode="&#xe18f;" horiz-adv-x="689" 
d="M462 186h5v240h-50v86h227v-86h-52v-426h-127c-60 89 -125 176 -185 266l-53 76h-6v-257h50v-85h-229v85h55v341h-55v86h192c58 -84 118 -165 175 -249c18 -26 35 -52 53 -77z" />
    <glyph glyph-name="Xismall" unicode="&#xe190;" horiz-adv-x="537" 
d="M134 100h269v61h101v-161h-472v161h102v-61zM393 416h-250v-55h-101v152h452v-152h-101v55zM379 225l-221 2v75l221 2v-79z" />
    <glyph glyph-name="Omicronsmall" unicode="&#xe191;" horiz-adv-x="629" 
d="M580 256c0 -151 -88 -263 -263 -263c-187 0 -268 106 -268 262c0 146 78 268 268 268c191 0 263 -123 263 -267zM441 255c0 89 -23 179 -124 179c-103 0 -130 -87 -130 -180c0 -110 37 -174 130 -174c86 0 124 76 124 175z" />
    <glyph glyph-name="Pismall" unicode="&#xe192;" horiz-adv-x="666" 
d="M623 0h-232v86h44v341h-204v-341h46v-86h-234v86h56v341h-56v86h580v-86h-55v-341h55v-86z" />
    <glyph glyph-name="Rhosmall" unicode="&#xe193;" horiz-adv-x="540" 
d="M511 355c0 -75 -52 -163 -188 -163h-95v-106h71v-86h-257v86h54v341h-54v86h271c131 0 198 -62 198 -158zM298 427h-70v-153h74c42 0 76 22 76 77c0 54 -33 76 -80 76z" />
    <glyph glyph-name="Sigmasmall" unicode="&#xe194;" horiz-adv-x="527" 
d="M323 279v-25c-43 -56 -84 -111 -127 -169h203v69h99v-154h-468v71c48 66 97 129 147 195l-144 175v71h455v-153h-98v68h-189z" />
    <glyph glyph-name="Tausmall" unicode="&#xe195;" horiz-adv-x="538" 
d="M402 0h-265v86h66v341h-85v-76h-100v162h502v-162h-100v76h-85v-341h67v-86z" />
    <glyph glyph-name="Upsilonsmall" unicode="&#xe196;" horiz-adv-x="567" 
d="M282 290h8l35 55l52 82h-46v85h219v-85h-45c-31 -49 -121 -175 -152 -224v-117h62v-86h-266v86h62v116c-30 49 -119 176 -149 225h-45v85h223v-85h-39c10 -18 30 -51 50 -84z" />
    <glyph glyph-name="Phismall" unicode="&#xe197;" horiz-adv-x="727" 
d="M429 383v-240c79 9 133 53 133 120c0 57 -37 112 -133 120zM302 144v239c-91 -11 -138 -60 -138 -121c0 -70 51 -110 138 -118zM429 512v-47c173 -8 260 -93 260 -200c0 -114 -97 -196 -260 -205v-60h-127v60c-171 8 -264 84 -264 202c0 106 103 195 264 203v47h127z" />
    <glyph glyph-name="Chismall" unicode="&#xe198;" horiz-adv-x="601" 
d="M361 427v86h209v-86h-46l-139 -170l133 -170h54v-87h-258v87h46l-85 115l-85 -115h44v-87h-215v87h50l143 185l-118 155h-62v86h252v-86h-39l78 -104l78 104h-40z" />
    <glyph glyph-name="Psismall" unicode="&#xe199;" horiz-adv-x="758" 
d="M446 427v-202c73 7 109 40 109 106v182h174v-86h-48v-98c0 -115 -80 -184 -235 -191v-52h57v-86h-245v86h58v53c-163 8 -238 74 -238 196v92h-50v86h177v-185c0 -64 40 -98 111 -103v202h-37v86h205v-86h-38z" />
    <glyph glyph-name="Omegasmall" unicode="&#xe19a;" horiz-adv-x="641" 
d="M519 88l2 -2h82v-86h-244v87c68 18 91 76 91 174s-30 172 -127 172c-93 0 -131 -71 -131 -171s23 -158 88 -175v-87h-245v86h78v3c-41 35 -58 100 -58 172c0 143 83 262 267 262c186 0 267 -115 267 -256c0 -71 -21 -140 -70 -179z" />
    <glyph glyph-name="Alphatonossmall" unicode="&#xe19b;" horiz-adv-x="626" 
d="M420 86l-21 59h-179l-21 -59h48v-86h-223v86h47l165 427h157l162 -427h46v-86h-228v86h47zM313 418h-4l-28 -87l-36 -109h131l-36 109zM445 716l-154 -165l-56 35l115 190z" />
    <glyph glyph-name="Epsilontonossmall" unicode="&#xe19c;" horiz-adv-x="555" 
d="M519 0h-477v86h56v341h-54v86h465v-153h-99v67h-179v-122l168 6v-91l-168 6v-140h188v71h100v-157zM401 716l-154 -165l-56 35l115 190z" />
    <glyph glyph-name="Etatonossmall" unicode="&#xe19d;" horiz-adv-x="666" 
d="M623 0h-232v86h44v140h-205v-140h46v-86h-233v86h56v341h-56v85h233v-85h-46v-122h205v122h-44v85h232v-85h-56v-341h56v-86zM485 716l-154 -165l-56 35l115 190z" />
    <glyph glyph-name="Iotatonossmall" unicode="&#xe19e;" horiz-adv-x="365" 
d="M303 0h-241v86h54v341h-54v86h241v-86h-54v-341h54v-86zM328 716l-154 -165l-56 35l115 190z" />
    <glyph glyph-name="Omicrontonossmall" unicode="&#xe19f;" horiz-adv-x="629" 
d="M580 256c0 -151 -88 -263 -263 -263c-187 0 -268 106 -268 262c0 146 78 268 268 268c191 0 263 -123 263 -267zM441 255c0 89 -23 179 -124 179c-103 0 -130 -87 -130 -180c0 -110 37 -174 130 -174c86 0 124 76 124 175zM480 716l-154 -165l-56 35l115 190z" />
    <glyph glyph-name="Ypsilontonossmall" unicode="&#xe1a0;" horiz-adv-x="567" 
d="M282 290h8l35 55l52 82h-46v85h219v-85h-45c-31 -49 -121 -175 -152 -224v-117h62v-86h-266v86h62v116c-30 49 -119 176 -149 225h-45v85h223v-85h-39c10 -18 30 -51 50 -84zM434 716l-154 -165l-56 35l115 190z" />
    <glyph glyph-name="Omegatonossmall" unicode="&#xe1a1;" horiz-adv-x="641" 
d="M519 88l2 -2h82v-86h-244v87c68 18 91 76 91 174s-30 172 -127 172c-93 0 -131 -71 -131 -171s23 -158 88 -175v-87h-245v86h78v3c-41 35 -58 100 -58 172c0 143 83 262 267 262c186 0 267 -115 267 -256c0 -71 -21 -140 -70 -179zM472 716l-154 -165l-56 35l115 190z
" />
    <glyph glyph-name="Iotadieresissmall" unicode="&#xe1a2;" horiz-adv-x="365" 
d="M303 0h-241v86h54v341h-54v86h241v-86h-54v-341h54v-86zM341 627c0 -32 -26 -57 -61 -57c-32 0 -57 25 -57 57c0 33 26 58 57 58c35 0 61 -24 61 -58zM140 627c0 -32 -25 -57 -59 -57c-33 0 -58 25 -58 57c0 33 27 58 57 58c35 0 60 -24 60 -58z" />
    <glyph glyph-name="Ypsilondieresissmall" unicode="&#xe1a3;" horiz-adv-x="567" 
d="M282 290h8l35 55l52 82h-46v85h219v-85h-45c-31 -49 -121 -175 -152 -224v-117h62v-86h-266v86h62v116c-30 49 -119 176 -149 225h-45v85h223v-85h-39c10 -18 30 -51 50 -84zM443 627c0 -32 -26 -57 -61 -57c-32 0 -57 25 -57 57c0 33 26 58 57 58c35 0 61 -24 61 -58z
M242 627c0 -32 -25 -57 -59 -57c-33 0 -58 25 -58 57c0 33 27 58 57 58c35 0 60 -24 60 -58z" />
    <glyph glyph-name="Scaronsmall" unicode="&#xe118;" horiz-adv-x="526" 
d="M267 433c-52 0 -85 -21 -85 -62c0 -36 46 -48 112 -65c93 -23 192 -53 192 -156c0 -102 -86 -158 -237 -158c-65 0 -140 11 -205 39v120h98v-51c34 -13 74 -18 99 -18c71 0 102 19 102 64c0 42 -42 54 -101 68c-109 22 -198 58 -198 148c0 94 79 159 219 159
c52 0 126 -10 181 -36v-117h-100v55c-24 8 -55 10 -77 10zM415 754l35 -41l-156 -149h-87l-154 150l34 40l163 -100z" />
    <glyph glyph-name="OEsmall" unicode="&#xe119;" horiz-adv-x="758" 
d="M455 430v-126c48 0 98 1 146 2v-81h-146v-144h167v75h99v-156h-333c-22 -3 -48 -6 -72 -6c-187 0 -269 103 -269 259c0 147 79 268 269 268c30 0 61 -5 87 -9h307v-153h-98v71h-157zM186 253c0 -118 42 -171 136 -171v351h-9c-100 -2 -127 -88 -127 -180z" />
    <glyph glyph-name="Zcaronsmall" unicode="&#xe11a;" horiz-adv-x="520" 
d="M478 437l-281 -351h196v73h100v-159h-466v76l281 351h-162v-60h-100v146h432v-76zM423 754l35 -41l-156 -149h-87l-154 150l34 40l163 -100z" />
    <glyph glyph-name="Ydieresissmall" unicode="&#xe11b;" horiz-adv-x="567" 
d="M282 290h8l35 55l52 82h-46v85h219v-85h-45c-31 -49 -121 -175 -152 -224v-117h62v-86h-266v86h62v116c-30 49 -119 176 -149 225h-45v85h223v-85h-39c10 -18 30 -51 50 -84zM447 627c0 -32 -26 -57 -61 -57c-32 0 -57 25 -57 57c0 33 26 58 57 58c35 0 61 -24 61 -58z
M246 627c0 -32 -25 -57 -59 -57c-33 0 -58 25 -58 57c0 33 27 58 57 58c35 0 60 -24 60 -58z" />
    <glyph glyph-name="Agravesmall" unicode="&#xe11c;" horiz-adv-x="626" 
d="M420 86l-21 59h-179l-21 -59h48v-86h-223v86h47l165 427h157l162 -427h46v-86h-228v86h47zM313 418h-4l-28 -87l-36 -109h131l-36 109zM328 552l-174 140l72 77l148 -169z" />
    <glyph glyph-name="Aacutesmall" unicode="&#xe11d;" horiz-adv-x="626" 
d="M420 86l-21 59h-179l-21 -59h48v-86h-223v86h47l165 427h157l162 -427h46v-86h-228v86h47zM313 418h-4l-28 -87l-36 -109h131l-36 109zM434 683l-174 -140l-46 48l147 169z" />
    <glyph glyph-name="Acircumflexsmall" unicode="&#xe11e;" horiz-adv-x="626" 
d="M420 86l-21 59h-179l-21 -59h48v-86h-223v86h47l165 427h157l162 -427h46v-86h-228v86h47zM313 418h-4l-28 -87l-36 -109h131l-36 109zM509 582l-35 -41l-165 100l-163 -100l-34 40l154 150h87z" />
    <glyph glyph-name="Atildesmall" unicode="&#xe11f;" horiz-adv-x="626" 
d="M420 86l-21 59h-179l-21 -59h48v-86h-223v86h47l165 427h157l162 -427h46v-86h-228v86h47zM313 418h-4l-28 -87l-36 -109h131l-36 109zM396 583c-67 0 -132 39 -173 39l-56 -39l-41 31c23 63 59 91 103 91c56 0 124 -37 172 -37l55 40l40 -31c-20 -59 -54 -94 -100 -94z
" />
    <glyph glyph-name="Adieresissmall" unicode="&#xe120;" horiz-adv-x="626" 
d="M420 86l-21 59h-179l-21 -59h48v-86h-223v86h47l165 427h157l162 -427h46v-86h-228v86h47zM313 418h-4l-28 -87l-36 -109h131l-36 109zM470 647c0 -32 -26 -57 -61 -57c-32 0 -57 25 -57 57c0 33 26 58 57 58c35 0 61 -24 61 -58zM269 647c0 -32 -25 -57 -59 -57
c-33 0 -58 25 -58 57c0 33 27 58 57 58c35 0 60 -24 60 -58z" />
    <glyph glyph-name="Aringsmall" unicode="&#xe121;" horiz-adv-x="626" 
d="M420 86l-21 59h-179l-21 -59h48v-86h-223v86h47l165 427h157l162 -427h46v-86h-228v86h47zM313 418h-4l-28 -87l-36 -109h131l-36 109zM305 548c-70 0 -124 54 -124 120c0 63 54 119 124 119s120 -55 120 -119c0 -68 -53 -120 -120 -120zM305 722c-32 0 -57 -27 -57 -57
c0 -28 23 -54 57 -54c31 0 53 26 53 54c0 30 -21 57 -53 57z" />
    <glyph glyph-name="AEsmall" unicode="&#xe122;" horiz-adv-x="867" 
d="M11 0v85h50c57 83 180 259 238 342h-38v85h554v-155h-99v70h-155v-122c40 0 104 1 143 2v-81h-143v-141h164v71h101v-156h-454v85h55v67h-182c-14 -20 -31 -47 -46 -67h44v-85h-232zM428 418h-4c-23 -33 -107 -158 -132 -193h136v193z" />
    <glyph glyph-name="Ccedillasmall" unicode="&#xe123;" horiz-adv-x="533" 
d="M476 107c7 -28 14 -58 22 -86c-50 -18 -124 -27 -183 -27l-39 -52c66 -4 108 -33 108 -86c0 -56 -59 -107 -191 -108c0 16 -1 32 -1 48c72 7 114 25 114 55c0 32 -47 36 -94 36c-6 9 -10 16 -16 24l65 86c-166 18 -215 124 -215 257c0 119 52 267 276 267
c61 0 113 -8 157 -22v-152h-100v75c-15 3 -35 4 -55 4c-100 0 -139 -67 -139 -170c0 -123 48 -166 155 -166c28 0 91 6 136 17z" />
    <glyph glyph-name="Egravesmall" unicode="&#xe124;" horiz-adv-x="555" 
d="M519 0h-477v86h56v341h-54v86h465v-153h-99v67h-179v-122l168 6v-91l-168 6v-140h188v71h100v-157zM302 553l-174 140l72 77l148 -169z" />
    <glyph glyph-name="Eacutesmall" unicode="&#xe125;" horiz-adv-x="555" 
d="M519 0h-477v86h56v341h-54v86h465v-153h-99v67h-179v-122l168 6v-91l-168 6v-140h188v71h100v-157zM421 702l-174 -140l-46 48l147 169z" />
    <glyph glyph-name="Ecircumflexsmall" unicode="&#xe126;" horiz-adv-x="555" 
d="M519 0h-477v86h56v341h-54v86h465v-153h-99v67h-179v-122l168 6v-91l-168 6v-140h188v71h100v-157zM477 591l-35 -41l-165 100l-163 -100l-34 40l154 150h87z" />
    <glyph glyph-name="Edieresissmall" unicode="&#xe127;" horiz-adv-x="555" 
d="M519 0h-477v86h56v341h-54v86h465v-153h-99v67h-179v-122l168 6v-91l-168 6v-140h188v71h100v-157zM441 637c0 -32 -26 -57 -61 -57c-32 0 -57 25 -57 57c0 33 26 58 57 58c35 0 61 -24 61 -58zM240 637c0 -32 -25 -57 -59 -57c-33 0 -58 25 -58 57c0 33 27 58 57 58
c35 0 60 -24 60 -58z" />
    <glyph glyph-name="Igravesmall" unicode="&#xe128;" horiz-adv-x="365" 
d="M303 0h-241v86h54v341h-54v86h241v-86h-54v-341h54v-86zM207 552l-174 140l72 77l148 -169z" />
    <glyph glyph-name="Iacutesmall" unicode="&#xe129;" horiz-adv-x="365" 
d="M303 0h-241v86h54v341h-54v86h241v-86h-54v-341h54v-86zM295 692l-174 -140l-46 48l147 169z" />
    <glyph glyph-name="Icircumflexsmall" unicode="&#xe12a;" horiz-adv-x="365" 
d="M303 0h-241v86h54v341h-54v86h241v-86h-54v-341h54v-86zM385 591l-35 -41l-165 100l-163 -100l-34 40l154 150h87z" />
    <glyph glyph-name="Idieresissmall" unicode="&#xe12b;" horiz-adv-x="365" 
d="M303 0h-241v86h54v341h-54v86h241v-86h-54v-341h54v-86zM343 630c0 -32 -26 -57 -61 -57c-32 0 -57 25 -57 57c0 33 26 58 57 58c35 0 61 -24 61 -58zM142 630c0 -32 -25 -57 -59 -57c-33 0 -58 25 -58 57c0 33 27 58 57 58c35 0 60 -24 60 -58z" />
    <glyph glyph-name="Ethsmall" unicode="&#xe12c;" horiz-adv-x="608" 
d="M308 0h-269v83h59v158h-55v56h55v132h-56v84h270c200 0 253 -118 253 -255c0 -138 -62 -258 -257 -258zM295 429h-68v-132h93v-56h-93v-158h68c56 0 137 28 137 171c0 145 -74 175 -137 175z" />
    <glyph glyph-name="Ntildesmall" unicode="&#xe12d;" horiz-adv-x="689" 
d="M462 186h5v240h-50v86h227v-86h-52v-426h-127c-60 89 -125 176 -185 266l-53 76h-6v-257h50v-85h-229v85h55v341h-55v86h192c58 -84 118 -165 175 -249c18 -26 35 -52 53 -77zM421 583c-67 0 -132 39 -173 39l-56 -39l-41 31c23 63 59 91 103 91c56 0 124 -37 172 -37
l55 40l40 -31c-20 -59 -54 -94 -100 -94z" />
    <glyph glyph-name="Ogravesmall" unicode="&#xe12e;" horiz-adv-x="629" 
d="M580 256c0 -151 -88 -263 -263 -263c-187 0 -268 106 -268 262c0 146 78 268 268 268c191 0 263 -123 263 -267zM441 255c0 89 -23 179 -124 179c-103 0 -130 -87 -130 -180c0 -110 37 -174 130 -174c86 0 124 76 124 175zM362 552l-174 140l72 77l148 -169z" />
    <glyph glyph-name="Oacutesmall" unicode="&#xe12f;" horiz-adv-x="629" 
d="M580 256c0 -151 -88 -263 -263 -263c-187 0 -268 106 -268 262c0 146 78 268 268 268c191 0 263 -123 263 -267zM441 255c0 89 -23 179 -124 179c-103 0 -130 -87 -130 -180c0 -110 37 -174 130 -174c86 0 124 76 124 175zM446 683l-174 -140l-46 48l147 169z" />
    </font>
</defs>
</svg>
